{"metadata": {"schema_version": "0.2"}, "resolution": 12, "tempos": [{"time": 0, "qpm": 100.0}], "tracks": [{"program": 49, "is_drum": false, "notes": [{"time": 0, "pitch": 48, "duration": 3, "velocity": 64}, {"time": 3, "pitch": 50, "duration": 3, "velocity": 64}, {"time": 6, "pitch": 52, "duration": 3, "velocity": 64}, {"time": 9, "pitch": 53, "duration": 3, "velocity": 64}, {"time": 12, "pitch": 55, "duration": 3, "velocity": 64}, {"time": 15, "pitch": 50, "duration": 3, "velocity": 64}, {"time": 18, "pitch": 55, "duration": 3, "velocity": 64}, {"time": 21, "pitch": 53, "duration": 3, "velocity": 64}, {"time": 24, "pitch": 52, "duration": 9, "velocity": 64}, {"time": 33, "pitch": 57, "duration": 3, "velocity": 64}, {"time": 36, "pitch": 50, "duration": 5, "velocity": 64}, {"time": 42, "pitch": 55, "duration": 5, "velocity": 64}, {"time": 48, "pitch": 48, "duration": 3, "velocity": 64}, {"time": 51, "pitch": 55, "duration": 3, "velocity": 64}, {"time": 54, "pitch": 57, "duration": 3, "velocity": 64}, {"time": 57, "pitch": 59, "duration": 3, "velocity": 64}, {"time": 60, "pitch": 60, "duration": 3, "velocity": 64}, {"time": 63, "pitch": 55, "duration": 3, "velocity": 64}, {"time": 66, "pitch": 48, "duration": 5, "velocity": 64}, {"time": 72, "pitch": 47, "duration": 10, "velocity": 64}, {"time": 84, "pitch": 42, "duration": 10, "velocity": 64}, {"time": 96, "pitch": 43, "duration": 3, "velocity": 64}, {"time": 99, "pitch": 45, "duration": 3, "velocity": 64}, {"time": 102, "pitch": 47, "duration": 3, "velocity": 64}, {"time": 105, "pitch": 48, "duration": 3, "velocity": 64}, {"time": 108, "pitch": 50, "duration": 3, "velocity": 64}, {"time": 111, "pitch": 45, "duration": 3, "velocity": 64}, {"time": 114, "pitch": 50, "duration": 3, "velocity": 64}, {"time": 117, "pitch": 48, "duration": 3, "velocity": 64}, {"time": 120, "pitch": 47, "duration": 10, "velocity": 64}, {"time": 132, "pitch": 45, "duration": 3, "velocity": 64}, {"time": 135, "pitch": 50, "duration": 3, "velocity": 64}, {"time": 138, "pitch": 45, "duration": 3, "velocity": 64}, {"time": 141, "pitch": 47, "duration": 3, "velocity": 64}, {"time": 144, "pitch": 48, "duration": 3, "velocity": 64}, {"time": 147, "pitch": 50, "duration": 3, "velocity": 64}, {"time": 150, "pitch": 52, "duration": 3, "velocity": 64}, {"time": 153, "pitch": 53, "duration": 3, "velocity": 64}, {"time": 156, "pitch": 55, "duration": 3, "velocity": 64}, {"time": 159, "pitch": 50, "duration": 3, "velocity": 64}, {"time": 162, "pitch": 55, "duration": 3, "velocity": 64}, {"time": 165, "pitch": 53, "duration": 3, "velocity": 64}, {"time": 168, "pitch": 52, "duration": 10, "velocity": 64}, {"time": 180, "pitch": 53, "duration": 6, "velocity": 64}, {"time": 186, "pitch": 52, "duration": 3, "velocity": 64}, {"time": 189, "pitch": 50, "duration": 3, "velocity": 64}, {"time": 192, "pitch": 48, "duration": 5, "velocity": 64}, {"time": 204, "pitch": 43, "duration": 3, "velocity": 64}, {"time": 207, "pitch": 45, "duration": 3, "velocity": 64}, {"time": 210, "pitch": 47, "duration": 3, "velocity": 64}, {"time": 213, "pitch": 48, "duration": 3, "velocity": 64}, {"time": 216, "pitch": 50, "duration": 3, "velocity": 64}, {"time": 219, "pitch": 45, "duration": 3, "velocity": 64}, {"time": 222, "pitch": 50, "duration": 3, "velocity": 64}, {"time": 225, "pitch": 48, "duration": 3, "velocity": 64}, {"time": 228, "pitch": 47, "duration": 3, "velocity": 64}, {"time": 231, "pitch": 43, "duration": 3, "velocity": 64}, {"time": 234, "pitch": 55, "duration": 3, "velocity": 64}, {"time": 237, "pitch": 53, "duration": 3, "velocity": 64}, {"time": 240, "pitch": 52, "duration": 10, "velocity": 64}, {"time": 252, "pitch": 54, "duration": 10, "velocity": 64}, {"time": 264, "pitch": 55, "duration": 3, "velocity": 64}, {"time": 267, "pitch": 50, "duration": 3, "velocity": 64}, {"time": 270, "pitch": 55, "duration": 3, "velocity": 64}, {"time": 273, "pitch": 53, "duration": 3, "velocity": 64}, {"time": 276, "pitch": 52, "duration": 5, "velocity": 64}, {"time": 288, "pitch": 53, "duration": 3, "velocity": 64}, {"time": 291, "pitch": 48, "duration": 3, "velocity": 64}, {"time": 294, "pitch": 53, "duration": 3, "velocity": 64}, {"time": 297, "pitch": 52, "duration": 3, "velocity": 64}, {"time": 300, "pitch": 50, "duration": 3, "velocity": 64}, {"time": 303, "pitch": 55, "duration": 3, "velocity": 64}, {"time": 306, "pitch": 53, "duration": 3, "velocity": 64}, {"time": 309, "pitch": 55, "duration": 3, "velocity": 64}, {"time": 312, "pitch": 52, "duration": 10, "velocity": 64}, {"time": 324, "pitch": 47, "duration": 5, "velocity": 64}, {"time": 336, "pitch": 48, "duration": 3, "velocity": 64}, {"time": 339, "pitch": 50, "duration": 3, "velocity": 64}, {"time": 342, "pitch": 52, "duration": 3, "velocity": 64}, {"time": 345, "pitch": 53, "duration": 3, "velocity": 64}, {"time": 348, "pitch": 55, "duration": 3, "velocity": 64}, {"time": 351, "pitch": 50, "duration": 3, "velocity": 64}, {"time": 354, "pitch": 55, "duration": 3, "velocity": 64}, {"time": 357, "pitch": 53, "duration": 3, "velocity": 64}, {"time": 360, "pitch": 52, "duration": 10, "velocity": 64}, {"time": 372, "pitch": 50, "duration": 5, "velocity": 64}, {"time": 378, "pitch": 55, "duration": 5, "velocity": 64}, {"time": 384, "pitch": 53, "duration": 3, "velocity": 64}, {"time": 387, "pitch": 52, "duration": 3, "velocity": 64}, {"time": 390, "pitch": 53, "duration": 3, "velocity": 64}, {"time": 393, "pitch": 55, "duration": 3, "velocity": 64}, {"time": 396, "pitch": 52, "duration": 3, "velocity": 64}, {"time": 399, "pitch": 50, "duration": 3, "velocity": 64}, {"time": 402, "pitch": 52, "duration": 3, "velocity": 64}, {"time": 405, "pitch": 53, "duration": 3, "velocity": 64}, {"time": 408, "pitch": 50, "duration": 10, "velocity": 64}, {"time": 420, "pitch": 48, "duration": 5, "velocity": 64}, {"time": 426, "pitch": 60, "duration": 5, "velocity": 64}, {"time": 432, "pitch": 59, "duration": 3, "velocity": 64}, {"time": 435, "pitch": 57, "duration": 3, "velocity": 64}, {"time": 438, "pitch": 59, "duration": 3, "velocity": 64}, {"time": 441, "pitch": 60, "duration": 3, "velocity": 64}, {"time": 444, "pitch": 57, "duration": 5, "velocity": 64}, {"time": 450, "pitch": 59, "duration": 5, "velocity": 64}, {"time": 456, "pitch": 60, "duration": 3, "velocity": 64}, {"time": 459, "pitch": 48, "duration": 3, "velocity": 64}, {"time": 462, "pitch": 50, "duration": 3, "velocity": 64}, {"time": 465, "pitch": 52, "duration": 3, "velocity": 64}, {"time": 468, "pitch": 53, "duration": 5, "velocity": 64}, {"time": 474, "pitch": 52, "duration": 5, "velocity": 64}, {"time": 480, "pitch": 50, "duration": 3, "velocity": 64}, {"time": 483, "pitch": 62, "duration": 3, "velocity": 64}, {"time": 486, "pitch": 55, "duration": 3, "velocity": 64}, {"time": 489, "pitch": 57, "duration": 3, "velocity": 64}, {"time": 492, "pitch": 59, "duration": 3, "velocity": 64}, {"time": 495, "pitch": 55, "duration": 3, "velocity": 64}, {"time": 498, "pitch": 52, "duration": 3, "velocity": 64}, {"time": 501, "pitch": 57, "duration": 3, "velocity": 64}, {"time": 504, "pitch": 50, "duration": 3, "velocity": 64}, {"time": 507, "pitch": 55, "duration": 3, "velocity": 64}, {"time": 510, "pitch": 52, "duration": 3, "velocity": 64}, {"time": 513, "pitch": 53, "duration": 3, "velocity": 64}, {"time": 516, "pitch": 55, "duration": 5, "velocity": 64}, {"time": 522, "pitch": 43, "duration": 5, "velocity": 64}, {"time": 528, "pitch": 48, "duration": 21, "velocity": 64}]}]}