{"metadata": {"schema_version": "0.2"}, "resolution": 12, "tempos": [{"time": 0, "qpm": 100.0}], "tracks": [{"program": 49, "is_drum": false, "notes": [{"time": 24, "pitch": 45, "duration": 3, "velocity": 64}, {"time": 0, "pitch": 76, "duration": 3, "velocity": 64}, {"time": 0, "pitch": 62, "duration": 6, "velocity": 64}, {"time": 24, "pitch": 76, "duration": 6, "velocity": 64}, {"time": 12, "pitch": 67, "duration": 6, "velocity": 64}, {"time": 0, "pitch": 62, "duration": 5, "velocity": 64}, {"time": 42, "pitch": 50, "duration": 3, "velocity": 64}, {"time": 33, "pitch": 57, "duration": 3, "velocity": 64}, {"time": 48, "pitch": 59, "duration": 3, "velocity": 64}, {"time": 24, "pitch": 59, "duration": 3, "velocity": 64}, {"time": 48, "pitch": 52, "duration": 3, "velocity": 64}, {"time": 36, "pitch": 69, "duration": 3, "velocity": 64}, {"time": 276, "pitch": 45, "duration": 6, "velocity": 64}, {"time": 48, "pitch": 62, "duration": 3, "velocity": 64}, {"time": 168, "pitch": 69, "duration": 6, "velocity": 64}, {"time": 108, "pitch": 62, "duration": 6, "velocity": 64}, {"time": 126, "pitch": 45, "duration": 3, "velocity": 64}, {"time": 108, "pitch": 62, "duration": 3, "velocity": 64}, {"time": 96, "pitch": 45, "duration": 6, "velocity": 64}, {"time": 84, "pitch": 45, "duration": 3, "velocity": 64}, {"time": 177, "pitch": 67, "duration": 3, "velocity": 64}, {"time": 126, "pitch": 50, "duration": 5, "velocity": 64}, {"time": 219, "pitch": 69, "duration": 3, "velocity": 64}, {"time": 96, "pitch": 52, "duration": 3, "velocity": 64}, {"time": 156, "pitch": 62, "duration": 3, "velocity": 64}, {"time": 228, "pitch": 64, "duration": 3, "velocity": 64}, {"time": 84, "pitch": 50, "duration": 3, "velocity": 64}, {"time": 108, "pitch": 57, "duration": 3, "velocity": 64}, {"time": 192, "pitch": 59, "duration": 3, "velocity": 64}, {"time": 240, "pitch": 74, "duration": 3, "velocity": 64}, {"time": 132, "pitch": 50, "duration": 6, "velocity": 64}, {"time": 114, "pitch": 62, "duration": 5, "velocity": 64}, {"time": 282, "pitch": 64, "duration": 5, "velocity": 64}, {"time": 348, "pitch": 62, "duration": 3, "velocity": 64}, {"time": 144, "pitch": 64, "duration": 6, "velocity": 64}, {"time": 228, "pitch": 52, "duration": 3, "velocity": 64}, {"time": 198, "pitch": 64, "duration": 3, "velocity": 64}, {"time": 120, "pitch": 57, "duration": 1, "velocity": 64}, {"time": 150, "pitch": 54, "duration": 1, "velocity": 64}, {"time": 108, "pitch": 59, "duration": 3, "velocity": 64}, {"time": 336, "pitch": 59, "duration": 3, "velocity": 64}, {"time": 117, "pitch": 50, "duration": 6, "velocity": 64}, {"time": 270, "pitch": 74, "duration": 5, "velocity": 64}, {"time": 246, "pitch": 57, "duration": 3, "velocity": 64}, {"time": 330, "pitch": 61, "duration": 6, "velocity": 64}, {"time": 357, "pitch": 62, "duration": 3, "velocity": 64}, {"time": 276, "pitch": 74, "duration": 3, "velocity": 64}, {"time": 120, "pitch": 62, "duration": 3, "velocity": 64}, {"time": 252, "pitch": 67, "duration": 3, "velocity": 64}, {"time": 312, "pitch": 55, "duration": 5, "velocity": 64}, {"time": 312, "pitch": 57, "duration": 5, "velocity": 64}, {"time": 222, "pitch": 50, "duration": 3, "velocity": 64}, {"time": 228, "pitch": 60, "duration": 3, "velocity": 64}, {"time": 300, "pitch": 55, "duration": 1, "velocity": 64}, {"time": 270, "pitch": 69, "duration": 5, "velocity": 64}, {"time": 177, "pitch": 62, "duration": 3, "velocity": 64}, {"time": 156, "pitch": 52, "duration": 3, "velocity": 64}, {"time": 318, "pitch": 69, "duration": 3, "velocity": 64}, {"time": 324, "pitch": 55, "duration": 5, "velocity": 64}, {"time": 408, "pitch": 57, "duration": 3, "velocity": 64}, {"time": 156, "pitch": 67, "duration": 3, "velocity": 64}, {"time": 408, "pitch": 76, "duration": 3, "velocity": 64}, {"time": 264, "pitch": 50, "duration": 3, "velocity": 64}, {"time": 276, "pitch": 62, "duration": 3, "velocity": 64}, {"time": 228, "pitch": 62, "duration": 6, "velocity": 64}, {"time": 264, "pitch": 69, "duration": 5, "velocity": 64}, {"time": 318, "pitch": 59, "duration": 3, "velocity": 64}, {"time": 384, "pitch": 57, "duration": 3, "velocity": 64}, {"time": 282, "pitch": 62, "duration": 3, "velocity": 64}, {"time": 408, "pitch": 66, "duration": 3, "velocity": 64}, {"time": 384, "pitch": 62, "duration": 3, "velocity": 64}, {"time": 372, "pitch": 61, "duration": 3, "velocity": 64}, {"time": 414, "pitch": 64, "duration": 3, "velocity": 64}, {"time": 348, "pitch": 67, "duration": 3, "velocity": 64}, {"time": 282, "pitch": 69, "duration": 5, "velocity": 64}, {"time": 282, "pitch": 59, "duration": 3, "velocity": 64}, {"time": 456, "pitch": 62, "duration": 3, "velocity": 64}, {"time": 336, "pitch": 74, "duration": 3, "velocity": 64}, {"time": 396, "pitch": 50, "duration": 5, "velocity": 64}, {"time": 318, "pitch": 62, "duration": 3, "velocity": 64}, {"time": 300, "pitch": 74, "duration": 5, "velocity": 64}, {"time": 498, "pitch": 67, "duration": 3, "velocity": 64}, {"time": 234, "pitch": 59, "duration": 1, "velocity": 64}, {"time": 240, "pitch": 69, "duration": 3, "velocity": 64}, {"time": 360, "pitch": 57, "duration": 3, "velocity": 64}, {"time": 462, "pitch": 55, "duration": 3, "velocity": 64}, {"time": 246, "pitch": 64, "duration": 3, "velocity": 64}, {"time": 336, "pitch": 76, "duration": 1, "velocity": 64}, {"time": 540, "pitch": 69, "duration": 3, "velocity": 64}, {"time": 582, "pitch": 50, "duration": 3, "velocity": 64}, {"time": 276, "pitch": 64, "duration": 5, "velocity": 64}, {"time": 558, "pitch": 62, "duration": 6, "velocity": 64}, {"time": 390, "pitch": 62, "duration": 3, "velocity": 64}, {"time": 588, "pitch": 57, "duration": 6, "velocity": 64}, {"time": 276, "pitch": 69, "duration": 1, "velocity": 64}, {"time": 384, "pitch": 62, "duration": 6, "velocity": 64}, {"time": 240, "pitch": 61, "duration": 3, "velocity": 64}, {"time": 468, "pitch": 67, "duration": 3, "velocity": 64}, {"time": 318, "pitch": 59, "duration": 3, "velocity": 64}, {"time": 240, "pitch": 61, "duration": 5, "velocity": 64}, {"time": 486, "pitch": 67, "duration": 5, "velocity": 64}, {"time": 432, "pitch": 50, "duration": 3, "velocity": 64}, {"time": 510, "pitch": 74, "duration": 1, "velocity": 64}, {"time": 528, "pitch": 62, "duration": 3, "velocity": 64}, {"time": 456, "pitch": 64, "duration": 3, "velocity": 64}, {"time": 354, "pitch": 57, "duration": 5, "velocity": 64}, {"time": 360, "pitch": 62, "duration": 6, "velocity": 64}, {"time": 582, "pitch": 62, "duration": 3, "velocity": 64}, {"time": 366, "pitch": 62, "duration": 3, "velocity": 64}, {"time": 540, "pitch": 74, "duration": 3, "velocity": 64}, {"time": 744, "pitch": 57, "duration": 3, "velocity": 64}, {"time": 546, "pitch": 62, "duration": 3, "velocity": 64}, {"time": 630, "pitch": 64, "duration": 3, "velocity": 64}, {"time": 594, "pitch": 59, "duration": 3, "velocity": 64}, {"time": 348, "pitch": 59, "duration": 3, "velocity": 64}, {"time": 432, "pitch": 67, "duration": 3, "velocity": 64}, {"time": 744, "pitch": 62, "duration": 1, "velocity": 64}, {"time": 534, "pitch": 62, "duration": 3, "velocity": 64}, {"time": 576, "pitch": 69, "duration": 3, "velocity": 64}, {"time": 492, "pitch": 76, "duration": 1, "velocity": 64}, {"time": 492, "pitch": 55, "duration": 3, "velocity": 64}, {"time": 624, "pitch": 55, "duration": 6, "velocity": 64}, {"time": 384, "pitch": 50, "duration": 1, "velocity": 64}, {"time": 372, "pitch": 62, "duration": 3, "velocity": 64}, {"time": 528, "pitch": 62, "duration": 1, "velocity": 64}, {"time": 576, "pitch": 74, "duration": 3, "velocity": 64}, {"time": 432, "pitch": 55, "duration": 1, "velocity": 64}, {"time": 558, "pitch": 59, "duration": 3, "velocity": 64}, {"time": 792, "pitch": 61, "duration": 5, "velocity": 64}, {"time": 390, "pitch": 62, "duration": 5, "velocity": 64}, {"time": 576, "pitch": 61, "duration": 3, "velocity": 64}, {"time": 816, "pitch": 64, "duration": 3, "velocity": 64}, {"time": 456, "pitch": 76, "duration": 3, "velocity": 64}, {"time": 408, "pitch": 62, "duration": 3, "velocity": 64}, {"time": 726, "pitch": 62, "duration": 3, "velocity": 64}]}]}