{"metadata": {"schema_version": "0.2"}, "resolution": 12, "tempos": [{"time": 0, "qpm": 100.0}], "tracks": [{"program": 6, "is_drum": false, "notes": [{"time": 18, "pitch": 62, "duration": 3, "velocity": 64}, {"time": 12, "pitch": 69, "duration": 2, "velocity": 64}, {"time": 0, "pitch": 69, "duration": 1, "velocity": 64}, {"time": 6, "pitch": 66, "duration": 3, "velocity": 64}, {"time": 6, "pitch": 52, "duration": 3, "velocity": 64}, {"time": 6, "pitch": 66, "duration": 3, "velocity": 64}, {"time": 36, "pitch": 57, "duration": 1, "velocity": 64}, {"time": 102, "pitch": 59, "duration": 2, "velocity": 64}, {"time": 0, "pitch": 66, "duration": 1, "velocity": 64}, {"time": 12, "pitch": 71, "duration": 3, "velocity": 64}, {"time": 48, "pitch": 64, "duration": 3, "velocity": 64}, {"time": 24, "pitch": 62, "duration": 1, "velocity": 64}, {"time": 48, "pitch": 47, "duration": 3, "velocity": 64}, {"time": 42, "pitch": 71, "duration": 3, "velocity": 64}, {"time": 174, "pitch": 56, "duration": 3, "velocity": 64}, {"time": 90, "pitch": 68, "duration": 1, "velocity": 64}, {"time": 90, "pitch": 71, "duration": 1, "velocity": 64}, {"time": 66, "pitch": 57, "duration": 2, "velocity": 64}, {"time": 198, "pitch": 71, "duration": 2, "velocity": 64}, {"time": 36, "pitch": 57, "duration": 3, "velocity": 64}, {"time": 114, "pitch": 59, "duration": 1, "velocity": 64}, {"time": 216, "pitch": 52, "duration": 3, "velocity": 64}, {"time": 252, "pitch": 73, "duration": 3, "velocity": 64}, {"time": 54, "pitch": 76, "duration": 3, "velocity": 64}, {"time": 186, "pitch": 74, "duration": 3, "velocity": 64}, {"time": 120, "pitch": 56, "duration": 2, "velocity": 64}, {"time": 132, "pitch": 56, "duration": 2, "velocity": 64}, {"time": 102, "pitch": 54, "duration": 1, "velocity": 64}, {"time": 198, "pitch": 66, "duration": 2, "velocity": 64}, {"time": 126, "pitch": 69, "duration": 5, "velocity": 64}, {"time": 216, "pitch": 56, "duration": 5, "velocity": 64}, {"time": 162, "pitch": 62, "duration": 1, "velocity": 64}, {"time": 102, "pitch": 71, "duration": 3, "velocity": 64}, {"time": 108, "pitch": 57, "duration": 5, "velocity": 64}, {"time": 162, "pitch": 59, "duration": 3, "velocity": 64}, {"time": 132, "pitch": 59, "duration": 5, "velocity": 64}, {"time": 132, "pitch": 66, "duration": 2, "velocity": 64}, {"time": 174, "pitch": 64, "duration": 5, "velocity": 64}, {"time": 132, "pitch": 66, "duration": 3, "velocity": 64}, {"time": 306, "pitch": 59, "duration": 5, "velocity": 64}, {"time": 180, "pitch": 57, "duration": 3, "velocity": 64}, {"time": 210, "pitch": 71, "duration": 2, "velocity": 64}, {"time": 192, "pitch": 57, "duration": 1, "velocity": 64}, {"time": 402, "pitch": 71, "duration": 3, "velocity": 64}, {"time": 294, "pitch": 67, "duration": 6, "velocity": 64}, {"time": 138, "pitch": 76, "duration": 5, "velocity": 64}, {"time": 138, "pitch": 67, "duration": 3, "velocity": 64}, {"time": 162, "pitch": 62, "duration": 2, "velocity": 64}, {"time": 360, "pitch": 64, "duration": 5, "velocity": 64}, {"time": 318, "pitch": 67, "duration": 3, "velocity": 64}, {"time": 330, "pitch": 64, "duration": 2, "velocity": 64}, {"time": 288, "pitch": 62, "duration": 5, "velocity": 64}, {"time": 234, "pitch": 69, "duration": 3, "velocity": 64}, {"time": 216, "pitch": 59, "duration": 2, "velocity": 64}, {"time": 234, "pitch": 62, "duration": 1, "velocity": 64}, {"time": 378, "pitch": 52, "duration": 2, "velocity": 64}, {"time": 186, "pitch": 71, "duration": 3, "velocity": 64}, {"time": 240, "pitch": 66, "duration": 3, "velocity": 64}, {"time": 378, "pitch": 69, "duration": 3, "velocity": 64}, {"time": 360, "pitch": 62, "duration": 3, "velocity": 64}, {"time": 168, "pitch": 59, "duration": 2, "velocity": 64}, {"time": 306, "pitch": 69, "duration": 6, "velocity": 64}, {"time": 348, "pitch": 62, "duration": 3, "velocity": 64}, {"time": 228, "pitch": 64, "duration": 3, "velocity": 64}, {"time": 366, "pitch": 52, "duration": 6, "velocity": 64}, {"time": 228, "pitch": 52, "duration": 3, "velocity": 64}, {"time": 300, "pitch": 59, "duration": 2, "velocity": 64}, {"time": 420, "pitch": 74, "duration": 3, "velocity": 64}, {"time": 354, "pitch": 76, "duration": 2, "velocity": 64}, {"time": 252, "pitch": 76, "duration": 2, "velocity": 64}, {"time": 348, "pitch": 52, "duration": 3, "velocity": 64}, {"time": 498, "pitch": 74, "duration": 1, "velocity": 64}, {"time": 306, "pitch": 76, "duration": 3, "velocity": 64}, {"time": 510, "pitch": 64, "duration": 3, "velocity": 64}, {"time": 336, "pitch": 52, "duration": 2, "velocity": 64}, {"time": 396, "pitch": 62, "duration": 3, "velocity": 64}, {"time": 246, "pitch": 62, "duration": 2, "velocity": 64}, {"time": 348, "pitch": 50, "duration": 2, "velocity": 64}, {"time": 444, "pitch": 52, "duration": 3, "velocity": 64}, {"time": 348, "pitch": 74, "duration": 1, "velocity": 64}, {"time": 390, "pitch": 64, "duration": 1, "velocity": 64}, {"time": 276, "pitch": 55, "duration": 3, "velocity": 64}, {"time": 330, "pitch": 50, "duration": 2, "velocity": 64}, {"time": 360, "pitch": 64, "duration": 6, "velocity": 64}, {"time": 216, "pitch": 64, "duration": 3, "velocity": 64}, {"time": 300, "pitch": 64, "duration": 3, "velocity": 64}, {"time": 234, "pitch": 66, "duration": 3, "velocity": 64}, {"time": 288, "pitch": 71, "duration": 3, "velocity": 64}, {"time": 258, "pitch": 69, "duration": 3, "velocity": 64}, {"time": 420, "pitch": 69, "duration": 6, "velocity": 64}, {"time": 492, "pitch": 59, "duration": 3, "velocity": 64}, {"time": 288, "pitch": 67, "duration": 6, "velocity": 64}, {"time": 366, "pitch": 52, "duration": 3, "velocity": 64}, {"time": 504, "pitch": 59, "duration": 2, "velocity": 64}, {"time": 288, "pitch": 71, "duration": 6, "velocity": 64}, {"time": 546, "pitch": 67, "duration": 2, "velocity": 64}, {"time": 606, "pitch": 50, "duration": 2, "velocity": 64}, {"time": 516, "pitch": 64, "duration": 1, "velocity": 64}, {"time": 336, "pitch": 59, "duration": 3, "velocity": 64}, {"time": 324, "pitch": 66, "duration": 3, "velocity": 64}, {"time": 408, "pitch": 52, "duration": 3, "velocity": 64}, {"time": 432, "pitch": 52, "duration": 1, "velocity": 64}, {"time": 366, "pitch": 64, "duration": 2, "velocity": 64}, {"time": 666, "pitch": 57, "duration": 2, "velocity": 64}, {"time": 426, "pitch": 76, "duration": 6, "velocity": 64}, {"time": 324, "pitch": 71, "duration": 3, "velocity": 64}, {"time": 390, "pitch": 71, "duration": 1, "velocity": 64}, {"time": 588, "pitch": 66, "duration": 1, "velocity": 64}, {"time": 504, "pitch": 59, "duration": 3, "velocity": 64}, {"time": 504, "pitch": 66, "duration": 2, "velocity": 64}, {"time": 438, "pitch": 67, "duration": 2, "velocity": 64}, {"time": 528, "pitch": 67, "duration": 3, "velocity": 64}, {"time": 492, "pitch": 74, "duration": 6, "velocity": 64}, {"time": 360, "pitch": 64, "duration": 1, "velocity": 64}, {"time": 480, "pitch": 74, "duration": 6, "velocity": 64}, {"time": 390, "pitch": 67, "duration": 2, "velocity": 64}, {"time": 414, "pitch": 64, "duration": 2, "velocity": 64}, {"time": 432, "pitch": 62, "duration": 2, "velocity": 64}, {"time": 432, "pitch": 62, "duration": 3, "velocity": 64}, {"time": 1002, "pitch": 52, "duration": 6, "velocity": 64}, {"time": 1032, "pitch": 55, "duration": 6, "velocity": 64}, {"time": 906, "pitch": 55, "duration": 2, "velocity": 64}, {"time": 498, "pitch": 62, "duration": 6, "velocity": 64}, {"time": 594, "pitch": 71, "duration": 2, "velocity": 64}, {"time": 996, "pitch": 59, "duration": 3, "velocity": 64}, {"time": 1002, "pitch": 55, "duration": 1, "velocity": 64}, {"time": 540, "pitch": 55, "duration": 3, "velocity": 64}, {"time": 630, "pitch": 50, "duration": 2, "velocity": 64}, {"time": 720, "pitch": 64, "duration": 3, "velocity": 64}, {"time": 990, "pitch": 64, "duration": 3, "velocity": 64}, {"time": 846, "pitch": 57, "duration": 3, "velocity": 64}, {"time": 996, "pitch": 64, "duration": 2, "velocity": 64}, {"time": 954, "pitch": 62, "duration": 1, "velocity": 64}, {"time": 1398, "pitch": 57, "duration": 3, "velocity": 64}, {"time": 936, "pitch": 69, "duration": 6, "velocity": 64}, {"time": 1056, "pitch": 66, "duration": 3, "velocity": 64}, {"time": 906, "pitch": 59, "duration": 6, "velocity": 64}, {"time": 1260, "pitch": 74, "duration": 3, "velocity": 64}, {"time": 1002, "pitch": 52, "duration": 2, "velocity": 64}, {"time": 954, "pitch": 64, "duration": 2, "velocity": 64}, {"time": 1206, "pitch": 57, "duration": 1, "velocity": 64}, {"time": 1188, "pitch": 52, "duration": 3, "velocity": 64}, {"time": 1062, "pitch": 54, "duration": 3, "velocity": 64}, {"time": 3000, "pitch": 50, "duration": 2, "velocity": 64}, {"time": 1032, "pitch": 57, "duration": 2, "velocity": 64}, {"time": 1002, "pitch": 62, "duration": 6, "velocity": 64}, {"time": 1314, "pitch": 62, "duration": 3, "velocity": 64}, {"time": 852, "pitch": 74, "duration": 6, "velocity": 64}, {"time": 1266, "pitch": 74, "duration": 3, "velocity": 64}, {"time": 1032, "pitch": 69, "duration": 3, "velocity": 64}, {"time": 1410, "pitch": 76, "duration": 3, "velocity": 64}, {"time": 840, "pitch": 66, "duration": 2, "velocity": 64}, {"time": 984, "pitch": 52, "duration": 3, "velocity": 64}, {"time": 918, "pitch": 57, "duration": 3, "velocity": 64}, {"time": 1020, "pitch": 67, "duration": 6, "velocity": 64}, {"time": 876, "pitch": 67, "duration": 1, "velocity": 64}, {"time": 1002, "pitch": 50, "duration": 2, "velocity": 64}, {"time": 996, "pitch": 71, "duration": 2, "velocity": 64}, {"time": 804, "pitch": 59, "duration": 1, "velocity": 64}, {"time": 870, "pitch": 73, "duration": 1, "velocity": 64}, {"time": 804, "pitch": 73, "duration": 2, "velocity": 64}, {"time": 930, "pitch": 66, "duration": 3, "velocity": 64}, {"time": 1002, "pitch": 64, "duration": 6, "velocity": 64}, {"time": 1032, "pitch": 66, "duration": 3, "velocity": 64}, {"time": 696, "pitch": 74, "duration": 2, "velocity": 64}, {"time": 864, "pitch": 57, "duration": 3, "velocity": 64}, {"time": 918, "pitch": 62, "duration": 1, "velocity": 64}, {"time": 918, "pitch": 73, "duration": 1, "velocity": 64}, {"time": 864, "pitch": 52, "duration": 2, "velocity": 64}, {"time": 954, "pitch": 47, "duration": 2, "velocity": 64}]}]}