{"metadata": {"schema_version": "0.2"}, "resolution": 12, "tempos": [{"time": 0, "qpm": 100.0}], "tracks": [{"program": 6, "is_drum": false, "notes": [{"time": 0, "pitch": 47, "duration": 6, "velocity": 64}, {"time": 6, "pitch": 47, "duration": 3, "velocity": 64}, {"time": 9, "pitch": 49, "duration": 3, "velocity": 64}, {"time": 12, "pitch": 50, "duration": 6, "velocity": 64}, {"time": 18, "pitch": 50, "duration": 3, "velocity": 64}, {"time": 21, "pitch": 52, "duration": 3, "velocity": 64}, {"time": 24, "pitch": 54, "duration": 3, "velocity": 64}, {"time": 27, "pitch": 54, "duration": 3, "velocity": 64}, {"time": 30, "pitch": 52, "duration": 3, "velocity": 64}, {"time": 33, "pitch": 50, "duration": 3, "velocity": 64}, {"time": 36, "pitch": 49, "duration": 6, "velocity": 64}, {"time": 42, "pitch": 46, "duration": 6, "velocity": 64}, {"time": 48, "pitch": 47, "duration": 3, "velocity": 64}, {"time": 51, "pitch": 59, "duration": 3, "velocity": 64}, {"time": 54, "pitch": 57, "duration": 3, "velocity": 64}, {"time": 57, "pitch": 55, "duration": 3, "velocity": 64}, {"time": 60, "pitch": 54, "duration": 6, "velocity": 64}, {"time": 66, "pitch": 51, "duration": 6, "velocity": 64}, {"time": 72, "pitch": 52, "duration": 6, "velocity": 64}, {"time": 78, "pitch": 52, "duration": 3, "velocity": 64}, {"time": 81, "pitch": 54, "duration": 3, "velocity": 64}, {"time": 84, "pitch": 55, "duration": 9, "velocity": 64}, {"time": 93, "pitch": 56, "duration": 3, "velocity": 64}, {"time": 96, "pitch": 46, "duration": 3, "velocity": 64}, {"time": 99, "pitch": 47, "duration": 3, "velocity": 64}, {"time": 102, "pitch": 54, "duration": 3, "velocity": 64}, {"time": 105, "pitch": 42, "duration": 3, "velocity": 64}, {"time": 108, "pitch": 47, "duration": 3, "velocity": 64}, {"time": 111, "pitch": 59, "duration": 3, "velocity": 64}, {"time": 114, "pitch": 54, "duration": 3, "velocity": 64}, {"time": 117, "pitch": 59, "duration": 3, "velocity": 64}, {"time": 120, "pitch": 55, "duration": 3, "velocity": 64}, {"time": 123, "pitch": 52, "duration": 3, "velocity": 64}, {"time": 126, "pitch": 49, "duration": 3, "velocity": 64}, {"time": 129, "pitch": 45, "duration": 3, "velocity": 64}, {"time": 132, "pitch": 50, "duration": 3, "velocity": 64}, {"time": 135, "pitch": 49, "duration": 3, "velocity": 64}, {"time": 138, "pitch": 50, "duration": 3, "velocity": 64}, {"time": 141, "pitch": 45, "duration": 3, "velocity": 64}, {"time": 144, "pitch": 47, "duration": 6, "velocity": 64}, {"time": 150, "pitch": 48, "duration": 6, "velocity": 64}, {"time": 156, "pitch": 49, "duration": 3, "velocity": 64}, {"time": 159, "pitch": 61, "duration": 3, "velocity": 64}, {"time": 162, "pitch": 57, "duration": 3, "velocity": 64}, {"time": 165, "pitch": 54, "duration": 3, "velocity": 64}, {"time": 168, "pitch": 51, "duration": 6, "velocity": 64}, {"time": 174, "pitch": 47, "duration": 3, "velocity": 64}, {"time": 177, "pitch": 45, "duration": 3, "velocity": 64}, {"time": 180, "pitch": 43, "duration": 3, "velocity": 64}, {"time": 183, "pitch": 42, "duration": 3, "velocity": 64}, {"time": 186, "pitch": 40, "duration": 3, "velocity": 64}, {"time": 189, "pitch": 47, "duration": 3, "velocity": 64}, {"time": 192, "pitch": 48, "duration": 6, "velocity": 64}, {"time": 201, "pitch": 60, "duration": 3, "velocity": 64}, {"time": 204, "pitch": 51, "duration": 3, "velocity": 64}, {"time": 207, "pitch": 52, "duration": 3, "velocity": 64}, {"time": 210, "pitch": 59, "duration": 3, "velocity": 64}, {"time": 213, "pitch": 47, "duration": 3, "velocity": 64}, {"time": 216, "pitch": 52, "duration": 3, "velocity": 64}, {"time": 219, "pitch": 52, "duration": 3, "velocity": 64}, {"time": 222, "pitch": 49, "duration": 3, "velocity": 64}, {"time": 225, "pitch": 45, "duration": 3, "velocity": 64}, {"time": 228, "pitch": 50, "duration": 3, "velocity": 64}, {"time": 231, "pitch": 54, "duration": 1, "velocity": 64}, {"time": 232, "pitch": 55, "duration": 2, "velocity": 64}, {"time": 234, "pitch": 57, "duration": 3, "velocity": 64}, {"time": 237, "pitch": 45, "duration": 3, "velocity": 64}, {"time": 240, "pitch": 50, "duration": 3, "velocity": 64}, {"time": 243, "pitch": 52, "duration": 3, "velocity": 64}, {"time": 246, "pitch": 54, "duration": 3, "velocity": 64}, {"time": 249, "pitch": 42, "duration": 3, "velocity": 64}, {"time": 252, "pitch": 43, "duration": 6, "velocity": 64}, {"time": 261, "pitch": 52, "duration": 3, "velocity": 64}, {"time": 264, "pitch": 54, "duration": 3, "velocity": 64}, {"time": 267, "pitch": 54, "duration": 1, "velocity": 64}, {"time": 268, "pitch": 52, "duration": 2, "velocity": 64}, {"time": 270, "pitch": 50, "duration": 3, "velocity": 64}, {"time": 273, "pitch": 47, "duration": 3, "velocity": 64}, {"time": 276, "pitch": 52, "duration": 3, "velocity": 64}, {"time": 279, "pitch": 50, "duration": 3, "velocity": 64}, {"time": 282, "pitch": 52, "duration": 3, "velocity": 64}, {"time": 285, "pitch": 54, "duration": 3, "velocity": 64}, {"time": 288, "pitch": 55, "duration": 3, "velocity": 64}, {"time": 291, "pitch": 55, "duration": 1, "velocity": 64}, {"time": 292, "pitch": 54, "duration": 2, "velocity": 64}, {"time": 294, "pitch": 55, "duration": 3, "velocity": 64}, {"time": 297, "pitch": 52, "duration": 3, "velocity": 64}, {"time": 300, "pitch": 40, "duration": 3, "velocity": 64}, {"time": 303, "pitch": 52, "duration": 3, "velocity": 64}, {"time": 306, "pitch": 52, "duration": 3, "velocity": 64}, {"time": 309, "pitch": 50, "duration": 3, "velocity": 64}, {"time": 312, "pitch": 49, "duration": 3, "velocity": 64}, {"time": 315, "pitch": 50, "duration": 3, "velocity": 64}, {"time": 318, "pitch": 49, "duration": 3, "velocity": 64}, {"time": 321, "pitch": 47, "duration": 3, "velocity": 64}, {"time": 324, "pitch": 46, "duration": 3, "velocity": 64}, {"time": 327, "pitch": 47, "duration": 3, "velocity": 64}, {"time": 330, "pitch": 54, "duration": 3, "velocity": 64}, {"time": 333, "pitch": 42, "duration": 3, "velocity": 64}, {"time": 336, "pitch": 47, "duration": 3, "velocity": 64}, {"time": 339, "pitch": 59, "duration": 3, "velocity": 64}, {"time": 342, "pitch": 47, "duration": 6, "velocity": 64}, {"time": 351, "pitch": 59, "duration": 3, "velocity": 64}, {"time": 354, "pitch": 50, "duration": 3, "velocity": 64}, {"time": 357, "pitch": 52, "duration": 3, "velocity": 64}, {"time": 360, "pitch": 52, "duration": 3, "velocity": 64}, {"time": 363, "pitch": 54, "duration": 3, "velocity": 64}, {"time": 366, "pitch": 55, "duration": 3, "velocity": 64}, {"time": 369, "pitch": 55, "duration": 3, "velocity": 64}, {"time": 372, "pitch": 50, "duration": 3, "velocity": 64}, {"time": 375, "pitch": 52, "duration": 3, "velocity": 64}, {"time": 378, "pitch": 54, "duration": 3, "velocity": 64}, {"time": 381, "pitch": 42, "duration": 3, "velocity": 64}, {"time": 384, "pitch": 47, "duration": 24, "velocity": 64}, {"time": 471, "pitch": 54, "duration": 3, "velocity": 64}, {"time": 474, "pitch": 42, "duration": 3, "velocity": 64}, {"time": 477, "pitch": 50, "duration": 3, "velocity": 64}, {"time": 480, "pitch": 41, "duration": 3, "velocity": 64}, {"time": 483, "pitch": 49, "duration": 3, "velocity": 64}, {"time": 486, "pitch": 44, "duration": 3, "velocity": 64}, {"time": 489, "pitch": 53, "duration": 3, "velocity": 64}, {"time": 492, "pitch": 54, "duration": 3, "velocity": 64}, {"time": 495, "pitch": 49, "duration": 1, "velocity": 64}, {"time": 496, "pitch": 42, "duration": 2, "velocity": 64}, {"time": 498, "pitch": 47, "duration": 7, "velocity": 64}, {"time": 506, "pitch": 49, "duration": 1, "velocity": 64}, {"time": 507, "pitch": 45, "duration": 1, "velocity": 64}, {"time": 508, "pitch": 47, "duration": 2, "velocity": 64}, {"time": 510, "pitch": 44, "duration": 6, "velocity": 64}, {"time": 516, "pitch": 42, "duration": 6, "velocity": 64}, {"time": 524, "pitch": 50, "duration": 1, "velocity": 64}, {"time": 525, "pitch": 49, "duration": 1, "velocity": 64}, {"time": 526, "pitch": 50, "duration": 2, "velocity": 64}, {"time": 528, "pitch": 52, "duration": 6, "velocity": 64}, {"time": 536, "pitch": 49, "duration": 1, "velocity": 64}, {"time": 537, "pitch": 47, "duration": 1, "velocity": 64}, {"time": 538, "pitch": 49, "duration": 2, "velocity": 64}, {"time": 540, "pitch": 50, "duration": 6, "velocity": 64}, {"time": 548, "pitch": 47, "duration": 1, "velocity": 64}, {"time": 549, "pitch": 45, "duration": 1, "velocity": 64}, {"time": 550, "pitch": 47, "duration": 2, "velocity": 64}, {"time": 552, "pitch": 49, "duration": 6, "velocity": 64}, {"time": 560, "pitch": 46, "duration": 1, "velocity": 64}, {"time": 561, "pitch": 44, "duration": 1, "velocity": 64}, {"time": 562, "pitch": 46, "duration": 2, "velocity": 64}, {"time": 564, "pitch": 47, "duration": 1, "velocity": 64}, {"time": 566, "pitch": 46, "duration": 1, "velocity": 64}, {"time": 567, "pitch": 47, "duration": 1, "velocity": 64}, {"time": 568, "pitch": 49, "duration": 2, "velocity": 64}, {"time": 570, "pitch": 50, "duration": 1, "velocity": 64}, {"time": 572, "pitch": 49, "duration": 1, "velocity": 64}, {"time": 573, "pitch": 47, "duration": 1, "velocity": 64}, {"time": 574, "pitch": 50, "duration": 2, "velocity": 64}, {"time": 576, "pitch": 49, "duration": 1, "velocity": 64}, {"time": 578, "pitch": 47, "duration": 1, "velocity": 64}, {"time": 579, "pitch": 49, "duration": 1, "velocity": 64}, {"time": 580, "pitch": 50, "duration": 2, "velocity": 64}, {"time": 582, "pitch": 52, "duration": 1, "velocity": 64}, {"time": 584, "pitch": 50, "duration": 1, "velocity": 64}, {"time": 585, "pitch": 49, "duration": 1, "velocity": 64}, {"time": 586, "pitch": 52, "duration": 2, "velocity": 64}, {"time": 588, "pitch": 50, "duration": 1, "velocity": 64}, {"time": 590, "pitch": 49, "duration": 1, "velocity": 64}, {"time": 591, "pitch": 50, "duration": 1, "velocity": 64}, {"time": 592, "pitch": 52, "duration": 2, "velocity": 64}, {"time": 594, "pitch": 49, "duration": 1, "velocity": 64}, {"time": 596, "pitch": 50, "duration": 1, "velocity": 64}, {"time": 597, "pitch": 47, "duration": 1, "velocity": 64}, {"time": 598, "pitch": 49, "duration": 2, "velocity": 64}, {"time": 600, "pitch": 46, "duration": 3, "velocity": 64}, {"time": 603, "pitch": 47, "duration": 6, "velocity": 64}, {"time": 609, "pitch": 46, "duration": 3, "velocity": 64}, {"time": 612, "pitch": 47, "duration": 3, "velocity": 64}, {"time": 615, "pitch": 59, "duration": 3, "velocity": 64}, {"time": 618, "pitch": 58, "duration": 3, "velocity": 64}, {"time": 621, "pitch": 54, "duration": 3, "velocity": 64}, {"time": 624, "pitch": 59, "duration": 3, "velocity": 64}, {"time": 627, "pitch": 50, "duration": 3, "velocity": 64}, {"time": 630, "pitch": 49, "duration": 3, "velocity": 64}, {"time": 633, "pitch": 45, "duration": 3, "velocity": 64}, {"time": 636, "pitch": 50, "duration": 3, "velocity": 64}, {"time": 639, "pitch": 49, "duration": 3, "velocity": 64}, {"time": 642, "pitch": 47, "duration": 3, "velocity": 64}, {"time": 645, "pitch": 49, "duration": 3, "velocity": 64}, {"time": 648, "pitch": 45, "duration": 3, "velocity": 64}, {"time": 651, "pitch": 50, "duration": 3, "velocity": 64}, {"time": 654, "pitch": 55, "duration": 3, "velocity": 64}, {"time": 657, "pitch": 43, "duration": 3, "velocity": 64}, {"time": 660, "pitch": 45, "duration": 3, "velocity": 64}, {"time": 663, "pitch": 42, "duration": 3, "velocity": 64}, {"time": 666, "pitch": 43, "duration": 3, "velocity": 64}, {"time": 669, "pitch": 45, "duration": 3, "velocity": 64}, {"time": 672, "pitch": 50, "duration": 3, "velocity": 64}, {"time": 675, "pitch": 62, "duration": 3, "velocity": 64}, {"time": 678, "pitch": 50, "duration": 3, "velocity": 64}, {"time": 681, "pitch": 59, "duration": 3, "velocity": 64}, {"time": 684, "pitch": 49, "duration": 3, "velocity": 64}, {"time": 687, "pitch": 57, "duration": 3, "velocity": 64}, {"time": 690, "pitch": 52, "duration": 3, "velocity": 64}, {"time": 693, "pitch": 61, "duration": 3, "velocity": 64}, {"time": 696, "pitch": 62, "duration": 3, "velocity": 64}, {"time": 699, "pitch": 57, "duration": 1, "velocity": 64}, {"time": 700, "pitch": 50, "duration": 2, "velocity": 64}, {"time": 702, "pitch": 55, "duration": 7, "velocity": 64}, {"time": 710, "pitch": 57, "duration": 1, "velocity": 64}, {"time": 711, "pitch": 54, "duration": 1, "velocity": 64}, {"time": 712, "pitch": 55, "duration": 2, "velocity": 64}, {"time": 714, "pitch": 52, "duration": 6, "velocity": 64}, {"time": 720, "pitch": 50, "duration": 6, "velocity": 64}, {"time": 726, "pitch": 59, "duration": 6, "velocity": 64}, {"time": 732, "pitch": 61, "duration": 3, "velocity": 64}, {"time": 735, "pitch": 57, "duration": 3, "velocity": 64}, {"time": 738, "pitch": 59, "duration": 3, "velocity": 64}, {"time": 741, "pitch": 61, "duration": 3, "velocity": 64}, {"time": 744, "pitch": 54, "duration": 1, "velocity": 64}, {"time": 746, "pitch": 53, "duration": 1, "velocity": 64}, {"time": 747, "pitch": 54, "duration": 1, "velocity": 64}, {"time": 748, "pitch": 56, "duration": 2, "velocity": 64}, {"time": 750, "pitch": 57, "duration": 1, "velocity": 64}, {"time": 752, "pitch": 56, "duration": 1, "velocity": 64}, {"time": 753, "pitch": 54, "duration": 1, "velocity": 64}, {"time": 754, "pitch": 57, "duration": 2, "velocity": 64}, {"time": 756, "pitch": 56, "duration": 1, "velocity": 64}, {"time": 758, "pitch": 54, "duration": 1, "velocity": 64}, {"time": 759, "pitch": 56, "duration": 1, "velocity": 64}, {"time": 760, "pitch": 57, "duration": 2, "velocity": 64}, {"time": 762, "pitch": 59, "duration": 1, "velocity": 64}, {"time": 764, "pitch": 57, "duration": 1, "velocity": 64}, {"time": 765, "pitch": 56, "duration": 1, "velocity": 64}, {"time": 766, "pitch": 59, "duration": 2, "velocity": 64}, {"time": 768, "pitch": 57, "duration": 1, "velocity": 64}, {"time": 770, "pitch": 56, "duration": 1, "velocity": 64}, {"time": 771, "pitch": 57, "duration": 1, "velocity": 64}, {"time": 772, "pitch": 59, "duration": 2, "velocity": 64}, {"time": 774, "pitch": 56, "duration": 1, "velocity": 64}, {"time": 776, "pitch": 57, "duration": 1, "velocity": 64}, {"time": 777, "pitch": 54, "duration": 1, "velocity": 64}, {"time": 778, "pitch": 56, "duration": 2, "velocity": 64}, {"time": 780, "pitch": 53, "duration": 3, "velocity": 64}, {"time": 783, "pitch": 54, "duration": 6, "velocity": 64}, {"time": 789, "pitch": 53, "duration": 3, "velocity": 64}, {"time": 792, "pitch": 54, "duration": 6, "velocity": 64}, {"time": 800, "pitch": 50, "duration": 1, "velocity": 64}, {"time": 801, "pitch": 49, "duration": 1, "velocity": 64}, {"time": 802, "pitch": 50, "duration": 2, "velocity": 64}, {"time": 804, "pitch": 52, "duration": 6, "velocity": 64}, {"time": 812, "pitch": 49, "duration": 1, "velocity": 64}, {"time": 813, "pitch": 47, "duration": 1, "velocity": 64}, {"time": 814, "pitch": 49, "duration": 2, "velocity": 64}, {"time": 816, "pitch": 50, "duration": 6, "velocity": 64}, {"time": 824, "pitch": 47, "duration": 1, "velocity": 64}, {"time": 825, "pitch": 45, "duration": 1, "velocity": 64}, {"time": 826, "pitch": 47, "duration": 2, "velocity": 64}, {"time": 828, "pitch": 49, "duration": 6, "velocity": 64}, {"time": 836, "pitch": 46, "duration": 1, "velocity": 64}, {"time": 837, "pitch": 44, "duration": 1, "velocity": 64}, {"time": 838, "pitch": 46, "duration": 2, "velocity": 64}, {"time": 840, "pitch": 47, "duration": 1, "velocity": 64}, {"time": 842, "pitch": 50, "duration": 1, "velocity": 64}, {"time": 843, "pitch": 52, "duration": 1, "velocity": 64}, {"time": 844, "pitch": 50, "duration": 2, "velocity": 64}, {"time": 846, "pitch": 49, "duration": 1, "velocity": 64}, {"time": 848, "pitch": 50, "duration": 1, "velocity": 64}, {"time": 849, "pitch": 47, "duration": 1, "velocity": 64}, {"time": 850, "pitch": 49, "duration": 2, "velocity": 64}, {"time": 852, "pitch": 46, "duration": 3, "velocity": 64}, {"time": 855, "pitch": 47, "duration": 3, "velocity": 64}, {"time": 858, "pitch": 40, "duration": 3, "velocity": 64}, {"time": 861, "pitch": 42, "duration": 3, "velocity": 64}, {"time": 864, "pitch": 47, "duration": 3, "velocity": 64}, {"time": 867, "pitch": 59, "duration": 3, "velocity": 64}, {"time": 870, "pitch": 47, "duration": 3, "velocity": 64}, {"time": 873, "pitch": 55, "duration": 3, "velocity": 64}, {"time": 876, "pitch": 46, "duration": 3, "velocity": 64}, {"time": 879, "pitch": 54, "duration": 3, "velocity": 64}, {"time": 882, "pitch": 49, "duration": 3, "velocity": 64}, {"time": 885, "pitch": 58, "duration": 3, "velocity": 64}, {"time": 888, "pitch": 59, "duration": 3, "velocity": 64}, {"time": 891, "pitch": 54, "duration": 1, "velocity": 64}, {"time": 892, "pitch": 50, "duration": 2, "velocity": 64}, {"time": 894, "pitch": 52, "duration": 7, "velocity": 64}, {"time": 902, "pitch": 54, "duration": 1, "velocity": 64}, {"time": 903, "pitch": 50, "duration": 1, "velocity": 64}, {"time": 904, "pitch": 52, "duration": 2, "velocity": 64}, {"time": 906, "pitch": 49, "duration": 6, "velocity": 64}, {"time": 912, "pitch": 51, "duration": 3, "velocity": 64}, {"time": 915, "pitch": 52, "duration": 3, "velocity": 64}, {"time": 918, "pitch": 45, "duration": 6, "velocity": 64}, {"time": 924, "pitch": 47, "duration": 3, "velocity": 64}, {"time": 927, "pitch": 43, "duration": 3, "velocity": 64}, {"time": 930, "pitch": 48, "duration": 3, "velocity": 64}, {"time": 933, "pitch": 45, "duration": 3, "velocity": 64}, {"time": 936, "pitch": 47, "duration": 3, "velocity": 64}, {"time": 939, "pitch": 52, "duration": 3, "velocity": 64}, {"time": 942, "pitch": 59, "duration": 3, "velocity": 64}, {"time": 945, "pitch": 47, "duration": 3, "velocity": 64}, {"time": 948, "pitch": 52, "duration": 6, "velocity": 64}, {"time": 954, "pitch": 59, "duration": 1, "velocity": 64}, {"time": 956, "pitch": 57, "duration": 1, "velocity": 64}, {"time": 957, "pitch": 55, "duration": 1, "velocity": 64}, {"time": 958, "pitch": 54, "duration": 2, "velocity": 64}, {"time": 960, "pitch": 52, "duration": 6, "velocity": 64}, {"time": 966, "pitch": 59, "duration": 1, "velocity": 64}, {"time": 968, "pitch": 57, "duration": 1, "velocity": 64}, {"time": 969, "pitch": 55, "duration": 1, "velocity": 64}, {"time": 970, "pitch": 54, "duration": 2, "velocity": 64}, {"time": 972, "pitch": 52, "duration": 3, "velocity": 64}, {"time": 975, "pitch": 55, "duration": 3, "velocity": 64}, {"time": 978, "pitch": 57, "duration": 1, "velocity": 64}, {"time": 980, "pitch": 55, "duration": 1, "velocity": 64}, {"time": 981, "pitch": 54, "duration": 1, "velocity": 64}, {"time": 982, "pitch": 52, "duration": 2, "velocity": 64}, {"time": 984, "pitch": 50, "duration": 6, "velocity": 64}, {"time": 990, "pitch": 57, "duration": 1, "velocity": 64}, {"time": 992, "pitch": 55, "duration": 1, "velocity": 64}, {"time": 993, "pitch": 54, "duration": 1, "velocity": 64}, {"time": 994, "pitch": 52, "duration": 2, "velocity": 64}, {"time": 996, "pitch": 50, "duration": 3, "velocity": 64}, {"time": 999, "pitch": 52, "duration": 3, "velocity": 64}, {"time": 1002, "pitch": 54, "duration": 1, "velocity": 64}, {"time": 1004, "pitch": 52, "duration": 1, "velocity": 64}, {"time": 1005, "pitch": 50, "duration": 1, "velocity": 64}, {"time": 1006, "pitch": 49, "duration": 2, "velocity": 64}, {"time": 1008, "pitch": 47, "duration": 6, "velocity": 64}, {"time": 1014, "pitch": 54, "duration": 1, "velocity": 64}, {"time": 1016, "pitch": 52, "duration": 1, "velocity": 64}, {"time": 1017, "pitch": 50, "duration": 1, "velocity": 64}, {"time": 1018, "pitch": 49, "duration": 2, "velocity": 64}, {"time": 1020, "pitch": 47, "duration": 1, "velocity": 64}, {"time": 1022, "pitch": 45, "duration": 1, "velocity": 64}, {"time": 1023, "pitch": 47, "duration": 1, "velocity": 64}, {"time": 1024, "pitch": 49, "duration": 2, "velocity": 64}, {"time": 1026, "pitch": 50, "duration": 1, "velocity": 64}, {"time": 1028, "pitch": 49, "duration": 1, "velocity": 64}, {"time": 1029, "pitch": 47, "duration": 1, "velocity": 64}, {"time": 1030, "pitch": 50, "duration": 2, "velocity": 64}, {"time": 1032, "pitch": 49, "duration": 1, "velocity": 64}, {"time": 1034, "pitch": 47, "duration": 1, "velocity": 64}, {"time": 1035, "pitch": 49, "duration": 1, "velocity": 64}, {"time": 1036, "pitch": 50, "duration": 2, "velocity": 64}, {"time": 1038, "pitch": 52, "duration": 1, "velocity": 64}, {"time": 1040, "pitch": 50, "duration": 1, "velocity": 64}, {"time": 1041, "pitch": 49, "duration": 1, "velocity": 64}, {"time": 1042, "pitch": 52, "duration": 2, "velocity": 64}, {"time": 1044, "pitch": 50, "duration": 1, "velocity": 64}, {"time": 1046, "pitch": 49, "duration": 1, "velocity": 64}, {"time": 1047, "pitch": 50, "duration": 1, "velocity": 64}, {"time": 1048, "pitch": 52, "duration": 2, "velocity": 64}, {"time": 1050, "pitch": 49, "duration": 1, "velocity": 64}, {"time": 1052, "pitch": 50, "duration": 1, "velocity": 64}, {"time": 1053, "pitch": 47, "duration": 1, "velocity": 64}, {"time": 1054, "pitch": 49, "duration": 2, "velocity": 64}, {"time": 1056, "pitch": 46, "duration": 3, "velocity": 64}, {"time": 1059, "pitch": 47, "duration": 3, "velocity": 64}, {"time": 1062, "pitch": 52, "duration": 3, "velocity": 64}, {"time": 1065, "pitch": 54, "duration": 3, "velocity": 64}, {"time": 1068, "pitch": 47, "duration": 6, "velocity": 64}, {"time": 1083, "pitch": 54, "duration": 3, "velocity": 64}, {"time": 1086, "pitch": 42, "duration": 3, "velocity": 64}, {"time": 1089, "pitch": 50, "duration": 3, "velocity": 64}, {"time": 1092, "pitch": 41, "duration": 3, "velocity": 64}, {"time": 1095, "pitch": 49, "duration": 3, "velocity": 64}, {"time": 1098, "pitch": 44, "duration": 3, "velocity": 64}, {"time": 1101, "pitch": 53, "duration": 3, "velocity": 64}, {"time": 1104, "pitch": 54, "duration": 3, "velocity": 64}, {"time": 1107, "pitch": 49, "duration": 1, "velocity": 64}, {"time": 1108, "pitch": 42, "duration": 2, "velocity": 64}, {"time": 1110, "pitch": 47, "duration": 7, "velocity": 64}, {"time": 1118, "pitch": 49, "duration": 1, "velocity": 64}, {"time": 1119, "pitch": 45, "duration": 1, "velocity": 64}, {"time": 1120, "pitch": 47, "duration": 2, "velocity": 64}, {"time": 1122, "pitch": 44, "duration": 6, "velocity": 64}, {"time": 1128, "pitch": 42, "duration": 3, "velocity": 64}, {"time": 1131, "pitch": 47, "duration": 3, "velocity": 64}, {"time": 1134, "pitch": 52, "duration": 3, "velocity": 64}, {"time": 1137, "pitch": 40, "duration": 3, "velocity": 64}, {"time": 1140, "pitch": 45, "duration": 6, "velocity": 64}, {"time": 1146, "pitch": 47, "duration": 6, "velocity": 64}, {"time": 1152, "pitch": 52, "duration": 3, "velocity": 64}, {"time": 1155, "pitch": 45, "duration": 3, "velocity": 64}, {"time": 1158, "pitch": 50, "duration": 6, "velocity": 64}, {"time": 1164, "pitch": 43, "duration": 6, "velocity": 64}, {"time": 1170, "pitch": 45, "duration": 6, "velocity": 64}, {"time": 1176, "pitch": 50, "duration": 3, "velocity": 64}, {"time": 1179, "pitch": 49, "duration": 3, "velocity": 64}, {"time": 1182, "pitch": 50, "duration": 3, "velocity": 64}, {"time": 1185, "pitch": 47, "duration": 3, "velocity": 64}, {"time": 1188, "pitch": 55, "duration": 6, "velocity": 64}, {"time": 1197, "pitch": 52, "duration": 3, "velocity": 64}, {"time": 1200, "pitch": 42, "duration": 3, "velocity": 64}, {"time": 1203, "pitch": 54, "duration": 3, "velocity": 64}, {"time": 1206, "pitch": 50, "duration": 3, "velocity": 64}, {"time": 1209, "pitch": 47, "duration": 3, "velocity": 64}, {"time": 1212, "pitch": 52, "duration": 3, "velocity": 64}, {"time": 1215, "pitch": 52, "duration": 1, "velocity": 64}, {"time": 1216, "pitch": 50, "duration": 2, "velocity": 64}, {"time": 1218, "pitch": 52, "duration": 3, "velocity": 64}, {"time": 1221, "pitch": 40, "duration": 3, "velocity": 64}, {"time": 1224, "pitch": 45, "duration": 3, "velocity": 64}, {"time": 1227, "pitch": 57, "duration": 1, "velocity": 64}, {"time": 1228, "pitch": 55, "duration": 2, "velocity": 64}, {"time": 1230, "pitch": 57, "duration": 3, "velocity": 64}, {"time": 1233, "pitch": 45, "duration": 3, "velocity": 64}, {"time": 1236, "pitch": 50, "duration": 3, "velocity": 64}, {"time": 1239, "pitch": 50, "duration": 1, "velocity": 64}, {"time": 1240, "pitch": 49, "duration": 2, "velocity": 64}, {"time": 1242, "pitch": 50, "duration": 3, "velocity": 64}, {"time": 1245, "pitch": 38, "duration": 3, "velocity": 64}, {"time": 1248, "pitch": 43, "duration": 3, "velocity": 64}, {"time": 1251, "pitch": 55, "duration": 1, "velocity": 64}, {"time": 1252, "pitch": 54, "duration": 2, "velocity": 64}, {"time": 1254, "pitch": 55, "duration": 3, "velocity": 64}, {"time": 1257, "pitch": 43, "duration": 3, "velocity": 64}, {"time": 1260, "pitch": 49, "duration": 3, "velocity": 64}, {"time": 1263, "pitch": 47, "duration": 3, "velocity": 64}, {"time": 1266, "pitch": 49, "duration": 3, "velocity": 64}, {"time": 1269, "pitch": 47, "duration": 3, "velocity": 64}, {"time": 1272, "pitch": 46, "duration": 3, "velocity": 64}, {"time": 1275, "pitch": 44, "duration": 3, "velocity": 64}, {"time": 1278, "pitch": 46, "duration": 3, "velocity": 64}, {"time": 1281, "pitch": 42, "duration": 3, "velocity": 64}, {"time": 1284, "pitch": 47, "duration": 3, "velocity": 64}, {"time": 1287, "pitch": 50, "duration": 1, "velocity": 64}, {"time": 1288, "pitch": 52, "duration": 2, "velocity": 64}, {"time": 1290, "pitch": 54, "duration": 3, "velocity": 64}, {"time": 1293, "pitch": 42, "duration": 3, "velocity": 64}, {"time": 1296, "pitch": 47, "duration": 6, "velocity": 64}, {"time": 1304, "pitch": 50, "duration": 1, "velocity": 64}, {"time": 1305, "pitch": 52, "duration": 1, "velocity": 64}, {"time": 1306, "pitch": 54, "duration": 2, "velocity": 64}, {"time": 1308, "pitch": 55, "duration": 1, "velocity": 64}, {"time": 1310, "pitch": 54, "duration": 1, "velocity": 64}, {"time": 1311, "pitch": 55, "duration": 1, "velocity": 64}, {"time": 1312, "pitch": 54, "duration": 2, "velocity": 64}, {"time": 1314, "pitch": 55, "duration": 1, "velocity": 64}, {"time": 1316, "pitch": 54, "duration": 1, "velocity": 64}, {"time": 1317, "pitch": 52, "duration": 1, "velocity": 64}, {"time": 1318, "pitch": 50, "duration": 2, "velocity": 64}, {"time": 1320, "pitch": 49, "duration": 6, "velocity": 64}, {"time": 1328, "pitch": 49, "duration": 1, "velocity": 64}, {"time": 1329, "pitch": 50, "duration": 1, "velocity": 64}, {"time": 1330, "pitch": 52, "duration": 2, "velocity": 64}, {"time": 1332, "pitch": 54, "duration": 1, "velocity": 64}, {"time": 1334, "pitch": 52, "duration": 1, "velocity": 64}, {"time": 1335, "pitch": 54, "duration": 1, "velocity": 64}, {"time": 1336, "pitch": 52, "duration": 2, "velocity": 64}, {"time": 1338, "pitch": 54, "duration": 1, "velocity": 64}, {"time": 1340, "pitch": 52, "duration": 1, "velocity": 64}, {"time": 1341, "pitch": 50, "duration": 1, "velocity": 64}, {"time": 1342, "pitch": 49, "duration": 2, "velocity": 64}, {"time": 1344, "pitch": 47, "duration": 6, "velocity": 64}, {"time": 1353, "pitch": 52, "duration": 3, "velocity": 64}, {"time": 1356, "pitch": 54, "duration": 1, "velocity": 64}, {"time": 1358, "pitch": 52, "duration": 1, "velocity": 64}, {"time": 1359, "pitch": 50, "duration": 1, "velocity": 64}, {"time": 1360, "pitch": 49, "duration": 2, "velocity": 64}, {"time": 1362, "pitch": 47, "duration": 1, "velocity": 64}, {"time": 1364, "pitch": 50, "duration": 1, "velocity": 64}, {"time": 1365, "pitch": 49, "duration": 1, "velocity": 64}, {"time": 1366, "pitch": 47, "duration": 2, "velocity": 64}, {"time": 1368, "pitch": 46, "duration": 3, "velocity": 64}, {"time": 1371, "pitch": 47, "duration": 3, "velocity": 64}, {"time": 1374, "pitch": 54, "duration": 3, "velocity": 64}, {"time": 1377, "pitch": 42, "duration": 3, "velocity": 64}, {"time": 1380, "pitch": 47, "duration": 12, "velocity": 64}, {"time": 1392, "pitch": 55, "duration": 18, "velocity": 64}, {"time": 1410, "pitch": 54, "duration": 18, "velocity": 64}, {"time": 1428, "pitch": 55, "duration": 9, "velocity": 64}, {"time": 1437, "pitch": 57, "duration": 3, "velocity": 64}, {"time": 1440, "pitch": 59, "duration": 6, "velocity": 64}, {"time": 1446, "pitch": 60, "duration": 3, "velocity": 64}, {"time": 1449, "pitch": 59, "duration": 3, "velocity": 64}, {"time": 1452, "pitch": 57, "duration": 6, "velocity": 64}, {"time": 1458, "pitch": 62, "duration": 6, "velocity": 64}, {"time": 1464, "pitch": 55, "duration": 12, "velocity": 64}, {"time": 1476, "pitch": 54, "duration": 6, "velocity": 64}, {"time": 1482, "pitch": 52, "duration": 6, "velocity": 64}, {"time": 1488, "pitch": 57, "duration": 6, "velocity": 64}, {"time": 1494, "pitch": 45, "duration": 6, "velocity": 64}, {"time": 1500, "pitch": 50, "duration": 6, "velocity": 64}, {"time": 1506, "pitch": 50, "duration": 3, "velocity": 64}, {"time": 1509, "pitch": 48, "duration": 3, "velocity": 64}, {"time": 1512, "pitch": 47, "duration": 6, "velocity": 64}, {"time": 1518, "pitch": 48, "duration": 18, "velocity": 64}, {"time": 1536, "pitch": 50, "duration": 12, "velocity": 64}, {"time": 1548, "pitch": 52, "duration": 6, "velocity": 64}, {"time": 1554, "pitch": 48, "duration": 6, "velocity": 64}, {"time": 1560, "pitch": 45, "duration": 6, "velocity": 64}, {"time": 1566, "pitch": 50, "duration": 6, "velocity": 64}, {"time": 1572, "pitch": 43, "duration": 12, "velocity": 64}, {"time": 1584, "pitch": 48, "duration": 6, "velocity": 64}, {"time": 1590, "pitch": 45, "duration": 6, "velocity": 64}, {"time": 1596, "pitch": 47, "duration": 12, "velocity": 64}, {"time": 1608, "pitch": 44, "duration": 12, "velocity": 64}, {"time": 1620, "pitch": 45, "duration": 6, "velocity": 64}, {"time": 1626, "pitch": 50, "duration": 6, "velocity": 64}, {"time": 1632, "pitch": 52, "duration": 6, "velocity": 64}, {"time": 1638, "pitch": 40, "duration": 6, "velocity": 64}, {"time": 1644, "pitch": 45, "duration": 6, "velocity": 64}, {"time": 1650, "pitch": 57, "duration": 3, "velocity": 64}, {"time": 1653, "pitch": 55, "duration": 3, "velocity": 64}, {"time": 1656, "pitch": 57, "duration": 3, "velocity": 64}, {"time": 1659, "pitch": 55, "duration": 3, "velocity": 64}, {"time": 1662, "pitch": 54, "duration": 3, "velocity": 64}, {"time": 1665, "pitch": 52, "duration": 3, "velocity": 64}, {"time": 1668, "pitch": 54, "duration": 3, "velocity": 64}, {"time": 1671, "pitch": 52, "duration": 3, "velocity": 64}, {"time": 1674, "pitch": 54, "duration": 3, "velocity": 64}, {"time": 1677, "pitch": 50, "duration": 3, "velocity": 64}, {"time": 1680, "pitch": 55, "duration": 6, "velocity": 64}, {"time": 1686, "pitch": 55, "duration": 3, "velocity": 64}, {"time": 1689, "pitch": 54, "duration": 3, "velocity": 64}, {"time": 1692, "pitch": 55, "duration": 3, "velocity": 64}, {"time": 1695, "pitch": 54, "duration": 3, "velocity": 64}, {"time": 1698, "pitch": 52, "duration": 3, "velocity": 64}, {"time": 1701, "pitch": 50, "duration": 3, "velocity": 64}, {"time": 1704, "pitch": 52, "duration": 3, "velocity": 64}, {"time": 1707, "pitch": 50, "duration": 3, "velocity": 64}, {"time": 1710, "pitch": 52, "duration": 3, "velocity": 64}, {"time": 1713, "pitch": 49, "duration": 3, "velocity": 64}, {"time": 1716, "pitch": 50, "duration": 3, "velocity": 64}, {"time": 1719, "pitch": 48, "duration": 3, "velocity": 64}, {"time": 1722, "pitch": 50, "duration": 3, "velocity": 64}, {"time": 1725, "pitch": 47, "duration": 3, "velocity": 64}, {"time": 1728, "pitch": 52, "duration": 3, "velocity": 64}, {"time": 1731, "pitch": 47, "duration": 3, "velocity": 64}, {"time": 1734, "pitch": 48, "duration": 3, "velocity": 64}, {"time": 1737, "pitch": 45, "duration": 3, "velocity": 64}, {"time": 1740, "pitch": 50, "duration": 3, "velocity": 64}, {"time": 1743, "pitch": 48, "duration": 3, "velocity": 64}, {"time": 1746, "pitch": 50, "duration": 3, "velocity": 64}, {"time": 1749, "pitch": 38, "duration": 3, "velocity": 64}, {"time": 1752, "pitch": 43, "duration": 3, "velocity": 64}, {"time": 1755, "pitch": 42, "duration": 3, "velocity": 64}, {"time": 1758, "pitch": 43, "duration": 3, "velocity": 64}, {"time": 1761, "pitch": 45, "duration": 3, "velocity": 64}, {"time": 1764, "pitch": 47, "duration": 3, "velocity": 64}, {"time": 1767, "pitch": 43, "duration": 3, "velocity": 64}, {"time": 1770, "pitch": 48, "duration": 3, "velocity": 64}, {"time": 1773, "pitch": 47, "duration": 3, "velocity": 64}, {"time": 1776, "pitch": 45, "duration": 3, "velocity": 64}, {"time": 1779, "pitch": 47, "duration": 3, "velocity": 64}, {"time": 1782, "pitch": 48, "duration": 3, "velocity": 64}, {"time": 1785, "pitch": 45, "duration": 3, "velocity": 64}, {"time": 1788, "pitch": 50, "duration": 12, "velocity": 64}, {"time": 1800, "pitch": 47, "duration": 6, "velocity": 64}, {"time": 1806, "pitch": 48, "duration": 6, "velocity": 64}, {"time": 1812, "pitch": 50, "duration": 6, "velocity": 64}, {"time": 1818, "pitch": 38, "duration": 6, "velocity": 64}, {"time": 1824, "pitch": 43, "duration": 18, "velocity": 64}, {"time": 1860, "pitch": 47, "duration": 3, "velocity": 64}, {"time": 1863, "pitch": 49, "duration": 3, "velocity": 64}, {"time": 1866, "pitch": 50, "duration": 3, "velocity": 64}, {"time": 1869, "pitch": 49, "duration": 3, "velocity": 64}, {"time": 1872, "pitch": 50, "duration": 3, "velocity": 64}, {"time": 1875, "pitch": 52, "duration": 3, "velocity": 64}, {"time": 1878, "pitch": 50, "duration": 9, "velocity": 64}, {"time": 1887, "pitch": 46, "duration": 6, "velocity": 64}, {"time": 1896, "pitch": 47, "duration": 9, "velocity": 64}, {"time": 1905, "pitch": 52, "duration": 3, "velocity": 64}, {"time": 1908, "pitch": 50, "duration": 3, "velocity": 64}, {"time": 1911, "pitch": 52, "duration": 3, "velocity": 64}, {"time": 1914, "pitch": 45, "duration": 9, "velocity": 64}, {"time": 1923, "pitch": 50, "duration": 3, "velocity": 64}, {"time": 1926, "pitch": 49, "duration": 3, "velocity": 64}, {"time": 1929, "pitch": 50, "duration": 3, "velocity": 64}, {"time": 1932, "pitch": 43, "duration": 18, "velocity": 64}, {"time": 1950, "pitch": 42, "duration": 9, "velocity": 64}, {"time": 1959, "pitch": 47, "duration": 9, "velocity": 64}, {"time": 1968, "pitch": 46, "duration": 9, "velocity": 64}, {"time": 1977, "pitch": 47, "duration": 9, "velocity": 64}, {"time": 1986, "pitch": 42, "duration": 9, "velocity": 64}, {"time": 1995, "pitch": 47, "duration": 9, "velocity": 64}, {"time": 2004, "pitch": 46, "duration": 9, "velocity": 64}, {"time": 2013, "pitch": 47, "duration": 9, "velocity": 64}, {"time": 2022, "pitch": 54, "duration": 9, "velocity": 64}, {"time": 2031, "pitch": 47, "duration": 9, "velocity": 64}, {"time": 2040, "pitch": 46, "duration": 3, "velocity": 64}, {"time": 2043, "pitch": 47, "duration": 3, "velocity": 64}, {"time": 2046, "pitch": 49, "duration": 3, "velocity": 64}, {"time": 2049, "pitch": 50, "duration": 3, "velocity": 64}, {"time": 2052, "pitch": 49, "duration": 3, "velocity": 64}, {"time": 2055, "pitch": 47, "duration": 3, "velocity": 64}, {"time": 2058, "pitch": 42, "duration": 9, "velocity": 64}, {"time": 2076, "pitch": 42, "duration": 18, "velocity": 64}, {"time": 2112, "pitch": 54, "duration": 3, "velocity": 64}, {"time": 2115, "pitch": 56, "duration": 3, "velocity": 64}, {"time": 2118, "pitch": 57, "duration": 3, "velocity": 64}, {"time": 2121, "pitch": 56, "duration": 3, "velocity": 64}, {"time": 2124, "pitch": 57, "duration": 3, "velocity": 64}, {"time": 2127, "pitch": 59, "duration": 3, "velocity": 64}, {"time": 2130, "pitch": 57, "duration": 9, "velocity": 64}, {"time": 2139, "pitch": 59, "duration": 9, "velocity": 64}, {"time": 2148, "pitch": 61, "duration": 9, "velocity": 64}, {"time": 2157, "pitch": 63, "duration": 3, "velocity": 64}, {"time": 2160, "pitch": 61, "duration": 3, "velocity": 64}, {"time": 2163, "pitch": 63, "duration": 3, "velocity": 64}, {"time": 2166, "pitch": 65, "duration": 9, "velocity": 64}, {"time": 2181, "pitch": 53, "duration": 3, "velocity": 64}, {"time": 2184, "pitch": 54, "duration": 9, "velocity": 64}, {"time": 2193, "pitch": 61, "duration": 3, "velocity": 64}, {"time": 2196, "pitch": 59, "duration": 3, "velocity": 64}, {"time": 2199, "pitch": 61, "duration": 3, "velocity": 64}, {"time": 2202, "pitch": 63, "duration": 9, "velocity": 64}, {"time": 2217, "pitch": 51, "duration": 3, "velocity": 64}, {"time": 2220, "pitch": 52, "duration": 9, "velocity": 64}, {"time": 2229, "pitch": 59, "duration": 3, "velocity": 64}, {"time": 2232, "pitch": 61, "duration": 3, "velocity": 64}, {"time": 2235, "pitch": 59, "duration": 3, "velocity": 64}, {"time": 2238, "pitch": 61, "duration": 9, "velocity": 64}, {"time": 2253, "pitch": 61, "duration": 3, "velocity": 64}, {"time": 2256, "pitch": 62, "duration": 6, "velocity": 64}, {"time": 2262, "pitch": 55, "duration": 3, "velocity": 64}, {"time": 2265, "pitch": 57, "duration": 6, "velocity": 64}, {"time": 2271, "pitch": 45, "duration": 3, "velocity": 64}, {"time": 2274, "pitch": 50, "duration": 3, "velocity": 64}, {"time": 2277, "pitch": 49, "duration": 3, "velocity": 64}, {"time": 2280, "pitch": 50, "duration": 3, "velocity": 64}, {"time": 2283, "pitch": 47, "duration": 3, "velocity": 64}, {"time": 2286, "pitch": 49, "duration": 3, "velocity": 64}, {"time": 2289, "pitch": 50, "duration": 3, "velocity": 64}, {"time": 2292, "pitch": 55, "duration": 9, "velocity": 64}, {"time": 2307, "pitch": 52, "duration": 3, "velocity": 64}, {"time": 2310, "pitch": 54, "duration": 3, "velocity": 64}, {"time": 2313, "pitch": 52, "duration": 3, "velocity": 64}, {"time": 2316, "pitch": 54, "duration": 3, "velocity": 64}, {"time": 2319, "pitch": 50, "duration": 3, "velocity": 64}, {"time": 2322, "pitch": 49, "duration": 3, "velocity": 64}, {"time": 2325, "pitch": 50, "duration": 3, "velocity": 64}, {"time": 2328, "pitch": 52, "duration": 9, "velocity": 64}, {"time": 2346, "pitch": 57, "duration": 9, "velocity": 64}, {"time": 2364, "pitch": 50, "duration": 9, "velocity": 64}, {"time": 2382, "pitch": 55, "duration": 9, "velocity": 64}, {"time": 2400, "pitch": 49, "duration": 3, "velocity": 64}, {"time": 2403, "pitch": 50, "duration": 3, "velocity": 64}, {"time": 2406, "pitch": 52, "duration": 3, "velocity": 64}, {"time": 2409, "pitch": 49, "duration": 3, "velocity": 64}, {"time": 2412, "pitch": 50, "duration": 3, "velocity": 64}, {"time": 2415, "pitch": 52, "duration": 3, "velocity": 64}, {"time": 2418, "pitch": 54, "duration": 3, "velocity": 64}, {"time": 2421, "pitch": 52, "duration": 3, "velocity": 64}, {"time": 2424, "pitch": 54, "duration": 3, "velocity": 64}, {"time": 2427, "pitch": 46, "duration": 3, "velocity": 64}, {"time": 2430, "pitch": 43, "duration": 3, "velocity": 64}, {"time": 2433, "pitch": 46, "duration": 3, "velocity": 64}, {"time": 2436, "pitch": 47, "duration": 6, "velocity": 64}, {"time": 2442, "pitch": 47, "duration": 3, "velocity": 64}, {"time": 2445, "pitch": 54, "duration": 6, "velocity": 64}, {"time": 2451, "pitch": 42, "duration": 3, "velocity": 64}, {"time": 2454, "pitch": 47, "duration": 3, "velocity": 64}, {"time": 2457, "pitch": 49, "duration": 3, "velocity": 64}, {"time": 2460, "pitch": 50, "duration": 3, "velocity": 64}, {"time": 2463, "pitch": 47, "duration": 3, "velocity": 64}, {"time": 2466, "pitch": 49, "duration": 3, "velocity": 64}, {"time": 2469, "pitch": 50, "duration": 3, "velocity": 64}, {"time": 2472, "pitch": 52, "duration": 9, "velocity": 64}, {"time": 2490, "pitch": 57, "duration": 9, "velocity": 64}, {"time": 2508, "pitch": 50, "duration": 9, "velocity": 64}, {"time": 2526, "pitch": 55, "duration": 9, "velocity": 64}, {"time": 2544, "pitch": 49, "duration": 3, "velocity": 64}, {"time": 2547, "pitch": 50, "duration": 3, "velocity": 64}, {"time": 2550, "pitch": 52, "duration": 3, "velocity": 64}, {"time": 2553, "pitch": 49, "duration": 3, "velocity": 64}, {"time": 2556, "pitch": 50, "duration": 3, "velocity": 64}, {"time": 2559, "pitch": 52, "duration": 3, "velocity": 64}, {"time": 2562, "pitch": 54, "duration": 3, "velocity": 64}, {"time": 2565, "pitch": 52, "duration": 3, "velocity": 64}, {"time": 2568, "pitch": 54, "duration": 3, "velocity": 64}, {"time": 2571, "pitch": 46, "duration": 3, "velocity": 64}, {"time": 2574, "pitch": 43, "duration": 3, "velocity": 64}, {"time": 2577, "pitch": 46, "duration": 3, "velocity": 64}, {"time": 2580, "pitch": 47, "duration": 6, "velocity": 64}, {"time": 2586, "pitch": 47, "duration": 3, "velocity": 64}, {"time": 2589, "pitch": 54, "duration": 6, "velocity": 64}, {"time": 2595, "pitch": 42, "duration": 3, "velocity": 64}, {"time": 2598, "pitch": 47, "duration": 36, "velocity": 64}]}]}