{"metadata": {"schema_version": "0.2"}, "resolution": 12, "tempos": [{"time": 0, "qpm": 100.0}], "tracks": [{"program": 6, "is_drum": false, "notes": [{"time": 0, "pitch": 45, "duration": 3, "velocity": 64}, {"time": 3, "pitch": 57, "duration": 6, "velocity": 64}, {"time": 9, "pitch": 56, "duration": 3, "velocity": 64}, {"time": 12, "pitch": 57, "duration": 2, "velocity": 64}, {"time": 14, "pitch": 52, "duration": 1, "velocity": 64}, {"time": 15, "pitch": 57, "duration": 1, "velocity": 64}, {"time": 16, "pitch": 60, "duration": 2, "velocity": 64}, {"time": 18, "pitch": 59, "duration": 2, "velocity": 64}, {"time": 20, "pitch": 52, "duration": 1, "velocity": 64}, {"time": 21, "pitch": 59, "duration": 1, "velocity": 64}, {"time": 22, "pitch": 62, "duration": 2, "velocity": 64}, {"time": 24, "pitch": 60, "duration": 3, "velocity": 64}, {"time": 27, "pitch": 57, "duration": 3, "velocity": 64}, {"time": 30, "pitch": 56, "duration": 3, "velocity": 64}, {"time": 33, "pitch": 52, "duration": 3, "velocity": 64}, {"time": 36, "pitch": 57, "duration": 2, "velocity": 64}, {"time": 38, "pitch": 52, "duration": 1, "velocity": 64}, {"time": 39, "pitch": 57, "duration": 1, "velocity": 64}, {"time": 40, "pitch": 60, "duration": 2, "velocity": 64}, {"time": 42, "pitch": 59, "duration": 2, "velocity": 64}, {"time": 44, "pitch": 52, "duration": 1, "velocity": 64}, {"time": 45, "pitch": 59, "duration": 1, "velocity": 64}, {"time": 46, "pitch": 62, "duration": 2, "velocity": 64}, {"time": 48, "pitch": 60, "duration": 3, "velocity": 64}, {"time": 51, "pitch": 57, "duration": 3, "velocity": 64}, {"time": 54, "pitch": 60, "duration": 3, "velocity": 64}, {"time": 57, "pitch": 57, "duration": 3, "velocity": 64}, {"time": 60, "pitch": 62, "duration": 2, "velocity": 64}, {"time": 62, "pitch": 57, "duration": 1, "velocity": 64}, {"time": 63, "pitch": 53, "duration": 1, "velocity": 64}, {"time": 64, "pitch": 57, "duration": 2, "velocity": 64}, {"time": 66, "pitch": 50, "duration": 2, "velocity": 64}, {"time": 68, "pitch": 53, "duration": 1, "velocity": 64}, {"time": 69, "pitch": 45, "duration": 1, "velocity": 64}, {"time": 70, "pitch": 48, "duration": 2, "velocity": 64}, {"time": 72, "pitch": 47, "duration": 3, "velocity": 64}, {"time": 75, "pitch": 50, "duration": 3, "velocity": 64}, {"time": 78, "pitch": 55, "duration": 3, "velocity": 64}, {"time": 81, "pitch": 59, "duration": 5, "velocity": 64}, {"time": 86, "pitch": 55, "duration": 1, "velocity": 64}, {"time": 87, "pitch": 52, "duration": 1, "velocity": 64}, {"time": 88, "pitch": 55, "duration": 2, "velocity": 64}, {"time": 90, "pitch": 48, "duration": 2, "velocity": 64}, {"time": 92, "pitch": 52, "duration": 1, "velocity": 64}, {"time": 93, "pitch": 43, "duration": 1, "velocity": 64}, {"time": 94, "pitch": 47, "duration": 2, "velocity": 64}, {"time": 96, "pitch": 45, "duration": 3, "velocity": 64}, {"time": 99, "pitch": 48, "duration": 3, "velocity": 64}, {"time": 102, "pitch": 50, "duration": 2, "velocity": 64}, {"time": 104, "pitch": 53, "duration": 1, "velocity": 64}, {"time": 105, "pitch": 47, "duration": 1, "velocity": 64}, {"time": 106, "pitch": 50, "duration": 2, "velocity": 64}, {"time": 108, "pitch": 43, "duration": 3, "velocity": 64}, {"time": 111, "pitch": 47, "duration": 3, "velocity": 64}, {"time": 114, "pitch": 48, "duration": 2, "velocity": 64}, {"time": 116, "pitch": 52, "duration": 1, "velocity": 64}, {"time": 117, "pitch": 45, "duration": 1, "velocity": 64}, {"time": 118, "pitch": 48, "duration": 2, "velocity": 64}, {"time": 120, "pitch": 41, "duration": 3, "velocity": 64}, {"time": 123, "pitch": 38, "duration": 3, "velocity": 64}, {"time": 126, "pitch": 43, "duration": 2, "velocity": 64}, {"time": 128, "pitch": 55, "duration": 1, "velocity": 64}, {"time": 129, "pitch": 53, "duration": 1, "velocity": 64}, {"time": 130, "pitch": 55, "duration": 2, "velocity": 64}, {"time": 132, "pitch": 48, "duration": 2, "velocity": 64}, {"time": 134, "pitch": 55, "duration": 1, "velocity": 64}, {"time": 135, "pitch": 60, "duration": 1, "velocity": 64}, {"time": 136, "pitch": 64, "duration": 2, "velocity": 64}, {"time": 138, "pitch": 62, "duration": 2, "velocity": 64}, {"time": 140, "pitch": 55, "duration": 1, "velocity": 64}, {"time": 141, "pitch": 62, "duration": 1, "velocity": 64}, {"time": 142, "pitch": 65, "duration": 2, "velocity": 64}, {"time": 144, "pitch": 64, "duration": 3, "velocity": 64}, {"time": 147, "pitch": 60, "duration": 3, "velocity": 64}, {"time": 150, "pitch": 59, "duration": 3, "velocity": 64}, {"time": 153, "pitch": 55, "duration": 3, "velocity": 64}, {"time": 156, "pitch": 60, "duration": 2, "velocity": 64}, {"time": 158, "pitch": 55, "duration": 1, "velocity": 64}, {"time": 159, "pitch": 60, "duration": 1, "velocity": 64}, {"time": 160, "pitch": 64, "duration": 2, "velocity": 64}, {"time": 162, "pitch": 62, "duration": 2, "velocity": 64}, {"time": 164, "pitch": 55, "duration": 1, "velocity": 64}, {"time": 165, "pitch": 62, "duration": 1, "velocity": 64}, {"time": 166, "pitch": 65, "duration": 2, "velocity": 64}, {"time": 168, "pitch": 64, "duration": 3, "velocity": 64}, {"time": 171, "pitch": 60, "duration": 3, "velocity": 64}, {"time": 182, "pitch": 67, "duration": 1, "velocity": 64}, {"time": 183, "pitch": 64, "duration": 1, "velocity": 64}, {"time": 184, "pitch": 67, "duration": 2, "velocity": 64}, {"time": 186, "pitch": 60, "duration": 2, "velocity": 64}, {"time": 188, "pitch": 64, "duration": 1, "velocity": 64}, {"time": 189, "pitch": 55, "duration": 1, "velocity": 64}, {"time": 190, "pitch": 59, "duration": 2, "velocity": 64}, {"time": 192, "pitch": 57, "duration": 3, "velocity": 64}, {"time": 195, "pitch": 60, "duration": 3, "velocity": 64}, {"time": 198, "pitch": 64, "duration": 3, "velocity": 64}, {"time": 201, "pitch": 67, "duration": 3, "velocity": 64}, {"time": 204, "pitch": 66, "duration": 2, "velocity": 64}, {"time": 206, "pitch": 69, "duration": 1, "velocity": 64}, {"time": 207, "pitch": 62, "duration": 1, "velocity": 64}, {"time": 208, "pitch": 66, "duration": 2, "velocity": 64}, {"time": 210, "pitch": 57, "duration": 2, "velocity": 64}, {"time": 212, "pitch": 62, "duration": 1, "velocity": 64}, {"time": 213, "pitch": 54, "duration": 1, "velocity": 64}, {"time": 214, "pitch": 57, "duration": 2, "velocity": 64}, {"time": 216, "pitch": 55, "duration": 3, "velocity": 64}, {"time": 219, "pitch": 59, "duration": 3, "velocity": 64}, {"time": 222, "pitch": 62, "duration": 3, "velocity": 64}, {"time": 225, "pitch": 66, "duration": 3, "velocity": 64}, {"time": 228, "pitch": 64, "duration": 2, "velocity": 64}, {"time": 230, "pitch": 67, "duration": 1, "velocity": 64}, {"time": 231, "pitch": 60, "duration": 1, "velocity": 64}, {"time": 232, "pitch": 64, "duration": 2, "velocity": 64}, {"time": 234, "pitch": 55, "duration": 2, "velocity": 64}, {"time": 236, "pitch": 60, "duration": 1, "velocity": 64}, {"time": 237, "pitch": 52, "duration": 1, "velocity": 64}, {"time": 238, "pitch": 55, "duration": 2, "velocity": 64}, {"time": 240, "pitch": 54, "duration": 3, "velocity": 64}, {"time": 243, "pitch": 57, "duration": 3, "velocity": 64}, {"time": 246, "pitch": 59, "duration": 3, "velocity": 64}, {"time": 249, "pitch": 63, "duration": 3, "velocity": 64}, {"time": 254, "pitch": 64, "duration": 1, "velocity": 64}, {"time": 255, "pitch": 60, "duration": 1, "velocity": 64}, {"time": 256, "pitch": 64, "duration": 2, "velocity": 64}, {"time": 258, "pitch": 57, "duration": 2, "velocity": 64}, {"time": 260, "pitch": 60, "duration": 1, "velocity": 64}, {"time": 261, "pitch": 64, "duration": 1, "velocity": 64}, {"time": 262, "pitch": 67, "duration": 2, "velocity": 64}, {"time": 264, "pitch": 66, "duration": 2, "velocity": 64}, {"time": 266, "pitch": 62, "duration": 1, "velocity": 64}, {"time": 267, "pitch": 59, "duration": 1, "velocity": 64}, {"time": 268, "pitch": 62, "duration": 2, "velocity": 64}, {"time": 270, "pitch": 55, "duration": 2, "velocity": 64}, {"time": 272, "pitch": 59, "duration": 1, "velocity": 64}, {"time": 273, "pitch": 62, "duration": 1, "velocity": 64}, {"time": 274, "pitch": 66, "duration": 2, "velocity": 64}, {"time": 276, "pitch": 64, "duration": 2, "velocity": 64}, {"time": 278, "pitch": 60, "duration": 1, "velocity": 64}, {"time": 279, "pitch": 57, "duration": 1, "velocity": 64}, {"time": 280, "pitch": 60, "duration": 2, "velocity": 64}, {"time": 282, "pitch": 54, "duration": 2, "velocity": 64}, {"time": 284, "pitch": 57, "duration": 1, "velocity": 64}, {"time": 285, "pitch": 60, "duration": 5, "velocity": 64}, {"time": 290, "pitch": 59, "duration": 1, "velocity": 64}, {"time": 291, "pitch": 60, "duration": 1, "velocity": 64}, {"time": 292, "pitch": 57, "duration": 2, "velocity": 64}, {"time": 294, "pitch": 59, "duration": 3, "velocity": 64}, {"time": 297, "pitch": 47, "duration": 3, "velocity": 64}, {"time": 300, "pitch": 52, "duration": 2, "velocity": 64}, {"time": 302, "pitch": 64, "duration": 1, "velocity": 64}, {"time": 303, "pitch": 59, "duration": 1, "velocity": 64}, {"time": 304, "pitch": 55, "duration": 2, "velocity": 64}, {"time": 306, "pitch": 52, "duration": 2, "velocity": 64}, {"time": 308, "pitch": 47, "duration": 1, "velocity": 64}, {"time": 309, "pitch": 43, "duration": 1, "velocity": 64}, {"time": 310, "pitch": 47, "duration": 2, "velocity": 64}, {"time": 312, "pitch": 40, "duration": 3, "velocity": 64}, {"time": 315, "pitch": 52, "duration": 3, "velocity": 64}, {"time": 318, "pitch": 55, "duration": 3, "velocity": 64}, {"time": 321, "pitch": 58, "duration": 3, "velocity": 64}, {"time": 324, "pitch": 49, "duration": 3, "velocity": 64}, {"time": 332, "pitch": 67, "duration": 1, "velocity": 64}, {"time": 333, "pitch": 65, "duration": 1, "velocity": 64}, {"time": 334, "pitch": 64, "duration": 2, "velocity": 64}, {"time": 336, "pitch": 62, "duration": 3, "velocity": 64}, {"time": 339, "pitch": 50, "duration": 3, "velocity": 64}, {"time": 342, "pitch": 53, "duration": 3, "velocity": 64}, {"time": 345, "pitch": 56, "duration": 3, "velocity": 64}, {"time": 348, "pitch": 47, "duration": 3, "velocity": 64}, {"time": 356, "pitch": 65, "duration": 1, "velocity": 64}, {"time": 357, "pitch": 64, "duration": 1, "velocity": 64}, {"time": 358, "pitch": 62, "duration": 2, "velocity": 64}, {"time": 360, "pitch": 60, "duration": 3, "velocity": 64}, {"time": 363, "pitch": 48, "duration": 3, "velocity": 64}, {"time": 366, "pitch": 52, "duration": 3, "velocity": 64}, {"time": 369, "pitch": 54, "duration": 3, "velocity": 64}, {"time": 372, "pitch": 45, "duration": 3, "velocity": 64}, {"time": 380, "pitch": 64, "duration": 1, "velocity": 64}, {"time": 381, "pitch": 63, "duration": 1, "velocity": 64}, {"time": 382, "pitch": 61, "duration": 2, "velocity": 64}, {"time": 384, "pitch": 59, "duration": 3, "velocity": 64}, {"time": 387, "pitch": 47, "duration": 3, "velocity": 64}, {"time": 390, "pitch": 50, "duration": 3, "velocity": 64}, {"time": 393, "pitch": 53, "duration": 3, "velocity": 64}, {"time": 396, "pitch": 44, "duration": 3, "velocity": 64}, {"time": 404, "pitch": 62, "duration": 1, "velocity": 64}, {"time": 405, "pitch": 60, "duration": 1, "velocity": 64}, {"time": 406, "pitch": 59, "duration": 2, "velocity": 64}, {"time": 408, "pitch": 60, "duration": 3, "velocity": 64}, {"time": 411, "pitch": 57, "duration": 3, "velocity": 64}, {"time": 414, "pitch": 56, "duration": 3, "velocity": 64}, {"time": 417, "pitch": 52, "duration": 3, "velocity": 64}, {"time": 420, "pitch": 57, "duration": 2, "velocity": 64}, {"time": 422, "pitch": 52, "duration": 1, "velocity": 64}, {"time": 423, "pitch": 57, "duration": 1, "velocity": 64}, {"time": 424, "pitch": 60, "duration": 2, "velocity": 64}, {"time": 426, "pitch": 59, "duration": 2, "velocity": 64}, {"time": 428, "pitch": 52, "duration": 1, "velocity": 64}, {"time": 429, "pitch": 59, "duration": 1, "velocity": 64}, {"time": 430, "pitch": 62, "duration": 2, "velocity": 64}, {"time": 432, "pitch": 60, "duration": 2, "velocity": 64}, {"time": 434, "pitch": 64, "duration": 1, "velocity": 64}, {"time": 435, "pitch": 69, "duration": 1, "velocity": 64}, {"time": 436, "pitch": 64, "duration": 2, "velocity": 64}, {"time": 438, "pitch": 60, "duration": 2, "velocity": 64}, {"time": 440, "pitch": 64, "duration": 1, "velocity": 64}, {"time": 441, "pitch": 57, "duration": 1, "velocity": 64}, {"time": 442, "pitch": 60, "duration": 2, "velocity": 64}, {"time": 444, "pitch": 54, "duration": 2, "velocity": 64}, {"time": 446, "pitch": 57, "duration": 1, "velocity": 64}, {"time": 447, "pitch": 60, "duration": 1, "velocity": 64}, {"time": 448, "pitch": 57, "duration": 2, "velocity": 64}, {"time": 450, "pitch": 54, "duration": 2, "velocity": 64}, {"time": 452, "pitch": 57, "duration": 1, "velocity": 64}, {"time": 453, "pitch": 51, "duration": 1, "velocity": 64}, {"time": 454, "pitch": 54, "duration": 2, "velocity": 64}, {"time": 456, "pitch": 52, "duration": 3, "velocity": 64}, {"time": 459, "pitch": 56, "duration": 3, "velocity": 64}, {"time": 462, "pitch": 59, "duration": 3, "velocity": 64}, {"time": 465, "pitch": 56, "duration": 3, "velocity": 64}, {"time": 468, "pitch": 52, "duration": 3, "velocity": 64}, {"time": 471, "pitch": 47, "duration": 3, "velocity": 64}, {"time": 474, "pitch": 44, "duration": 3, "velocity": 64}, {"time": 477, "pitch": 40, "duration": 3, "velocity": 64}, {"time": 480, "pitch": 45, "duration": 3, "velocity": 64}, {"time": 483, "pitch": 48, "duration": 3, "velocity": 64}, {"time": 486, "pitch": 52, "duration": 3, "velocity": 64}, {"time": 489, "pitch": 48, "duration": 3, "velocity": 64}, {"time": 492, "pitch": 45, "duration": 3, "velocity": 64}, {"time": 495, "pitch": 48, "duration": 3, "velocity": 64}, {"time": 498, "pitch": 39, "duration": 3, "velocity": 64}, {"time": 506, "pitch": 59, "duration": 1, "velocity": 64}, {"time": 507, "pitch": 56, "duration": 1, "velocity": 64}, {"time": 508, "pitch": 52, "duration": 2, "velocity": 64}, {"time": 510, "pitch": 50, "duration": 2, "velocity": 64}, {"time": 512, "pitch": 59, "duration": 1, "velocity": 64}, {"time": 513, "pitch": 56, "duration": 1, "velocity": 64}, {"time": 514, "pitch": 50, "duration": 2, "velocity": 64}, {"time": 516, "pitch": 48, "duration": 3, "velocity": 64}, {"time": 519, "pitch": 52, "duration": 3, "velocity": 64}, {"time": 522, "pitch": 44, "duration": 3, "velocity": 64}, {"time": 525, "pitch": 52, "duration": 3, "velocity": 64}, {"time": 528, "pitch": 45, "duration": 3, "velocity": 64}, {"time": 531, "pitch": 54, "duration": 3, "velocity": 64}, {"time": 534, "pitch": 47, "duration": 3, "velocity": 64}, {"time": 537, "pitch": 56, "duration": 3, "velocity": 64}, {"time": 540, "pitch": 48, "duration": 3, "velocity": 64}, {"time": 543, "pitch": 57, "duration": 3, "velocity": 64}, {"time": 546, "pitch": 50, "duration": 3, "velocity": 64}, {"time": 549, "pitch": 58, "duration": 3, "velocity": 64}, {"time": 552, "pitch": 56, "duration": 3, "velocity": 64}, {"time": 555, "pitch": 53, "duration": 3, "velocity": 64}, {"time": 558, "pitch": 50, "duration": 3, "velocity": 64}, {"time": 561, "pitch": 47, "duration": 3, "velocity": 64}, {"time": 564, "pitch": 44, "duration": 3, "velocity": 64}, {"time": 567, "pitch": 45, "duration": 3, "velocity": 64}, {"time": 570, "pitch": 38, "duration": 3, "velocity": 64}, {"time": 573, "pitch": 40, "duration": 3, "velocity": 64}, {"time": 576, "pitch": 41, "duration": 3, "velocity": 64}, {"time": 579, "pitch": 39, "duration": 3, "velocity": 64}, {"time": 582, "pitch": 40, "duration": 3, "velocity": 64}, {"time": 585, "pitch": 52, "duration": 3, "velocity": 64}, {"time": 588, "pitch": 45, "duration": 12, "velocity": 64}]}]}