{"metadata": {"schema_version": "0.2"}, "resolution": 12, "tempos": [{"time": 0, "qpm": 100.0}], "tracks": [{"program": 6, "is_drum": false, "notes": [{"time": 0, "pitch": 47, "duration": 3, "velocity": 64}, {"time": 6, "pitch": 50, "duration": 3, "velocity": 64}, {"time": 12, "pitch": 52, "duration": 3, "velocity": 64}, {"time": 18, "pitch": 50, "duration": 3, "velocity": 64}, {"time": 24, "pitch": 49, "duration": 3, "velocity": 64}, {"time": 30, "pitch": 46, "duration": 3, "velocity": 64}, {"time": 36, "pitch": 47, "duration": 3, "velocity": 64}, {"time": 42, "pitch": 43, "duration": 3, "velocity": 64}, {"time": 48, "pitch": 42, "duration": 3, "velocity": 64}, {"time": 51, "pitch": 54, "duration": 1, "velocity": 64}, {"time": 52, "pitch": 53, "duration": 2, "velocity": 64}, {"time": 54, "pitch": 54, "duration": 3, "velocity": 64}, {"time": 57, "pitch": 49, "duration": 3, "velocity": 64}, {"time": 60, "pitch": 50, "duration": 3, "velocity": 64}, {"time": 63, "pitch": 49, "duration": 3, "velocity": 64}, {"time": 66, "pitch": 54, "duration": 3, "velocity": 64}, {"time": 69, "pitch": 49, "duration": 3, "velocity": 64}, {"time": 72, "pitch": 49, "duration": 3, "velocity": 64}, {"time": 75, "pitch": 47, "duration": 3, "velocity": 64}, {"time": 78, "pitch": 56, "duration": 3, "velocity": 64}, {"time": 81, "pitch": 47, "duration": 3, "velocity": 64}, {"time": 84, "pitch": 47, "duration": 3, "velocity": 64}, {"time": 87, "pitch": 45, "duration": 1, "velocity": 64}, {"time": 88, "pitch": 44, "duration": 2, "velocity": 64}, {"time": 90, "pitch": 45, "duration": 3, "velocity": 64}, {"time": 93, "pitch": 47, "duration": 3, "velocity": 64}, {"time": 96, "pitch": 49, "duration": 3, "velocity": 64}, {"time": 99, "pitch": 47, "duration": 3, "velocity": 64}, {"time": 102, "pitch": 49, "duration": 3, "velocity": 64}, {"time": 105, "pitch": 37, "duration": 3, "velocity": 64}, {"time": 108, "pitch": 42, "duration": 4, "velocity": 64}, {"time": 112, "pitch": 44, "duration": 2, "velocity": 64}, {"time": 114, "pitch": 45, "duration": 2, "velocity": 64}, {"time": 116, "pitch": 47, "duration": 1, "velocity": 64}, {"time": 117, "pitch": 44, "duration": 1, "velocity": 64}, {"time": 118, "pitch": 45, "duration": 2, "velocity": 64}, {"time": 120, "pitch": 47, "duration": 2, "velocity": 64}, {"time": 122, "pitch": 49, "duration": 1, "velocity": 64}, {"time": 123, "pitch": 47, "duration": 1, "velocity": 64}, {"time": 124, "pitch": 44, "duration": 2, "velocity": 64}, {"time": 126, "pitch": 45, "duration": 2, "velocity": 64}, {"time": 128, "pitch": 47, "duration": 1, "velocity": 64}, {"time": 129, "pitch": 45, "duration": 1, "velocity": 64}, {"time": 130, "pitch": 42, "duration": 2, "velocity": 64}, {"time": 132, "pitch": 44, "duration": 2, "velocity": 64}, {"time": 134, "pitch": 45, "duration": 1, "velocity": 64}, {"time": 135, "pitch": 44, "duration": 1, "velocity": 64}, {"time": 136, "pitch": 42, "duration": 2, "velocity": 64}, {"time": 138, "pitch": 41, "duration": 2, "velocity": 64}, {"time": 140, "pitch": 44, "duration": 1, "velocity": 64}, {"time": 141, "pitch": 42, "duration": 1, "velocity": 64}, {"time": 142, "pitch": 41, "duration": 2, "velocity": 64}, {"time": 144, "pitch": 42, "duration": 3, "velocity": 64}, {"time": 147, "pitch": 54, "duration": 1, "velocity": 64}, {"time": 148, "pitch": 53, "duration": 2, "velocity": 64}, {"time": 150, "pitch": 54, "duration": 3, "velocity": 64}, {"time": 153, "pitch": 49, "duration": 3, "velocity": 64}, {"time": 156, "pitch": 50, "duration": 3, "velocity": 64}, {"time": 159, "pitch": 62, "duration": 1, "velocity": 64}, {"time": 160, "pitch": 61, "duration": 2, "velocity": 64}, {"time": 162, "pitch": 62, "duration": 2, "velocity": 64}, {"time": 164, "pitch": 64, "duration": 1, "velocity": 64}, {"time": 165, "pitch": 62, "duration": 1, "velocity": 64}, {"time": 166, "pitch": 58, "duration": 2, "velocity": 64}, {"time": 168, "pitch": 59, "duration": 3, "velocity": 64}, {"time": 171, "pitch": 57, "duration": 3, "velocity": 64}, {"time": 174, "pitch": 55, "duration": 3, "velocity": 64}, {"time": 177, "pitch": 54, "duration": 3, "velocity": 64}, {"time": 180, "pitch": 52, "duration": 3, "velocity": 64}, {"time": 183, "pitch": 40, "duration": 3, "velocity": 64}, {"time": 186, "pitch": 42, "duration": 3, "velocity": 64}, {"time": 189, "pitch": 43, "duration": 3, "velocity": 64}, {"time": 192, "pitch": 45, "duration": 3, "velocity": 64}, {"time": 195, "pitch": 55, "duration": 3, "velocity": 64}, {"time": 198, "pitch": 54, "duration": 3, "velocity": 64}, {"time": 201, "pitch": 52, "duration": 3, "velocity": 64}, {"time": 204, "pitch": 50, "duration": 3, "velocity": 64}, {"time": 207, "pitch": 38, "duration": 3, "velocity": 64}, {"time": 210, "pitch": 40, "duration": 3, "velocity": 64}, {"time": 213, "pitch": 42, "duration": 3, "velocity": 64}, {"time": 216, "pitch": 43, "duration": 3, "velocity": 64}, {"time": 219, "pitch": 55, "duration": 3, "velocity": 64}, {"time": 222, "pitch": 54, "duration": 3, "velocity": 64}, {"time": 225, "pitch": 59, "duration": 3, "velocity": 64}, {"time": 228, "pitch": 52, "duration": 3, "velocity": 64}, {"time": 231, "pitch": 57, "duration": 3, "velocity": 64}, {"time": 234, "pitch": 50, "duration": 3, "velocity": 64}, {"time": 237, "pitch": 62, "duration": 5, "velocity": 64}, {"time": 242, "pitch": 64, "duration": 1, "velocity": 64}, {"time": 243, "pitch": 62, "duration": 1, "velocity": 64}, {"time": 244, "pitch": 59, "duration": 2, "velocity": 64}, {"time": 246, "pitch": 61, "duration": 2, "velocity": 64}, {"time": 248, "pitch": 62, "duration": 1, "velocity": 64}, {"time": 249, "pitch": 61, "duration": 1, "velocity": 64}, {"time": 250, "pitch": 57, "duration": 2, "velocity": 64}, {"time": 252, "pitch": 62, "duration": 2, "velocity": 64}, {"time": 254, "pitch": 61, "duration": 1, "velocity": 64}, {"time": 255, "pitch": 59, "duration": 1, "velocity": 64}, {"time": 256, "pitch": 57, "duration": 2, "velocity": 64}, {"time": 258, "pitch": 55, "duration": 2, "velocity": 64}, {"time": 260, "pitch": 54, "duration": 1, "velocity": 64}, {"time": 261, "pitch": 55, "duration": 1, "velocity": 64}, {"time": 262, "pitch": 57, "duration": 2, "velocity": 64}, {"time": 264, "pitch": 50, "duration": 3, "velocity": 64}, {"time": 267, "pitch": 62, "duration": 1, "velocity": 64}, {"time": 268, "pitch": 61, "duration": 2, "velocity": 64}, {"time": 270, "pitch": 62, "duration": 3, "velocity": 64}, {"time": 273, "pitch": 57, "duration": 3, "velocity": 64}, {"time": 276, "pitch": 59, "duration": 3, "velocity": 64}, {"time": 279, "pitch": 57, "duration": 3, "velocity": 64}, {"time": 282, "pitch": 62, "duration": 3, "velocity": 64}, {"time": 285, "pitch": 57, "duration": 3, "velocity": 64}, {"time": 288, "pitch": 57, "duration": 3, "velocity": 64}, {"time": 291, "pitch": 55, "duration": 3, "velocity": 64}, {"time": 294, "pitch": 64, "duration": 3, "velocity": 64}, {"time": 297, "pitch": 55, "duration": 3, "velocity": 64}, {"time": 300, "pitch": 55, "duration": 3, "velocity": 64}, {"time": 303, "pitch": 54, "duration": 1, "velocity": 64}, {"time": 304, "pitch": 52, "duration": 2, "velocity": 64}, {"time": 306, "pitch": 54, "duration": 2, "velocity": 64}, {"time": 308, "pitch": 56, "duration": 1, "velocity": 64}, {"time": 309, "pitch": 57, "duration": 1, "velocity": 64}, {"time": 310, "pitch": 56, "duration": 2, "velocity": 64}, {"time": 312, "pitch": 57, "duration": 3, "velocity": 64}, {"time": 315, "pitch": 52, "duration": 3, "velocity": 64}, {"time": 318, "pitch": 50, "duration": 2, "velocity": 64}, {"time": 320, "pitch": 49, "duration": 1, "velocity": 64}, {"time": 321, "pitch": 47, "duration": 1, "velocity": 64}, {"time": 322, "pitch": 45, "duration": 2, "velocity": 64}, {"time": 324, "pitch": 50, "duration": 2, "velocity": 64}, {"time": 326, "pitch": 52, "duration": 1, "velocity": 64}, {"time": 327, "pitch": 50, "duration": 1, "velocity": 64}, {"time": 328, "pitch": 47, "duration": 2, "velocity": 64}, {"time": 330, "pitch": 49, "duration": 2, "velocity": 64}, {"time": 332, "pitch": 50, "duration": 1, "velocity": 64}, {"time": 333, "pitch": 49, "duration": 1, "velocity": 64}, {"time": 334, "pitch": 45, "duration": 2, "velocity": 64}, {"time": 336, "pitch": 47, "duration": 2, "velocity": 64}, {"time": 338, "pitch": 49, "duration": 1, "velocity": 64}, {"time": 339, "pitch": 47, "duration": 1, "velocity": 64}, {"time": 340, "pitch": 45, "duration": 2, "velocity": 64}, {"time": 342, "pitch": 44, "duration": 2, "velocity": 64}, {"time": 344, "pitch": 47, "duration": 1, "velocity": 64}, {"time": 345, "pitch": 45, "duration": 1, "velocity": 64}, {"time": 346, "pitch": 44, "duration": 2, "velocity": 64}, {"time": 348, "pitch": 45, "duration": 3, "velocity": 64}, {"time": 351, "pitch": 57, "duration": 3, "velocity": 64}, {"time": 354, "pitch": 55, "duration": 3, "velocity": 64}, {"time": 357, "pitch": 54, "duration": 3, "velocity": 64}, {"time": 360, "pitch": 52, "duration": 3, "velocity": 64}, {"time": 363, "pitch": 64, "duration": 3, "velocity": 64}, {"time": 366, "pitch": 62, "duration": 3, "velocity": 64}, {"time": 369, "pitch": 61, "duration": 3, "velocity": 64}, {"time": 372, "pitch": 59, "duration": 3, "velocity": 64}, {"time": 375, "pitch": 47, "duration": 3, "velocity": 64}, {"time": 378, "pitch": 45, "duration": 3, "velocity": 64}, {"time": 381, "pitch": 44, "duration": 3, "velocity": 64}, {"time": 384, "pitch": 42, "duration": 3, "velocity": 64}, {"time": 387, "pitch": 54, "duration": 1, "velocity": 64}, {"time": 388, "pitch": 55, "duration": 2, "velocity": 64}, {"time": 390, "pitch": 57, "duration": 3, "velocity": 64}, {"time": 393, "pitch": 59, "duration": 3, "velocity": 64}, {"time": 396, "pitch": 52, "duration": 3, "velocity": 64}, {"time": 399, "pitch": 40, "duration": 1, "velocity": 64}, {"time": 400, "pitch": 42, "duration": 2, "velocity": 64}, {"time": 402, "pitch": 43, "duration": 3, "velocity": 64}, {"time": 405, "pitch": 45, "duration": 3, "velocity": 64}, {"time": 408, "pitch": 38, "duration": 3, "velocity": 64}, {"time": 411, "pitch": 59, "duration": 1, "velocity": 64}, {"time": 412, "pitch": 58, "duration": 2, "velocity": 64}, {"time": 414, "pitch": 59, "duration": 3, "velocity": 64}, {"time": 417, "pitch": 54, "duration": 3, "velocity": 64}, {"time": 420, "pitch": 55, "duration": 3, "velocity": 64}, {"time": 423, "pitch": 54, "duration": 3, "velocity": 64}, {"time": 426, "pitch": 59, "duration": 3, "velocity": 64}, {"time": 429, "pitch": 54, "duration": 3, "velocity": 64}, {"time": 432, "pitch": 54, "duration": 3, "velocity": 64}, {"time": 435, "pitch": 52, "duration": 3, "velocity": 64}, {"time": 438, "pitch": 61, "duration": 3, "velocity": 64}, {"time": 441, "pitch": 52, "duration": 3, "velocity": 64}, {"time": 444, "pitch": 52, "duration": 3, "velocity": 64}, {"time": 447, "pitch": 50, "duration": 1, "velocity": 64}, {"time": 448, "pitch": 49, "duration": 2, "velocity": 64}, {"time": 450, "pitch": 50, "duration": 2, "velocity": 64}, {"time": 452, "pitch": 47, "duration": 1, "velocity": 64}, {"time": 453, "pitch": 49, "duration": 1, "velocity": 64}, {"time": 454, "pitch": 50, "duration": 2, "velocity": 64}, {"time": 456, "pitch": 52, "duration": 2, "velocity": 64}, {"time": 458, "pitch": 54, "duration": 1, "velocity": 64}, {"time": 459, "pitch": 52, "duration": 1, "velocity": 64}, {"time": 460, "pitch": 49, "duration": 2, "velocity": 64}, {"time": 462, "pitch": 50, "duration": 2, "velocity": 64}, {"time": 464, "pitch": 52, "duration": 1, "velocity": 64}, {"time": 465, "pitch": 50, "duration": 1, "velocity": 64}, {"time": 466, "pitch": 47, "duration": 2, "velocity": 64}, {"time": 468, "pitch": 49, "duration": 2, "velocity": 64}, {"time": 470, "pitch": 50, "duration": 1, "velocity": 64}, {"time": 471, "pitch": 49, "duration": 1, "velocity": 64}, {"time": 472, "pitch": 47, "duration": 2, "velocity": 64}, {"time": 474, "pitch": 46, "duration": 2, "velocity": 64}, {"time": 476, "pitch": 49, "duration": 1, "velocity": 64}, {"time": 477, "pitch": 47, "duration": 1, "velocity": 64}, {"time": 478, "pitch": 46, "duration": 2, "velocity": 64}, {"time": 480, "pitch": 47, "duration": 3, "velocity": 64}, {"time": 483, "pitch": 59, "duration": 1, "velocity": 64}, {"time": 484, "pitch": 58, "duration": 2, "velocity": 64}, {"time": 486, "pitch": 59, "duration": 3, "velocity": 64}, {"time": 489, "pitch": 55, "duration": 3, "velocity": 64}, {"time": 492, "pitch": 50, "duration": 2, "velocity": 64}, {"time": 494, "pitch": 54, "duration": 1, "velocity": 64}, {"time": 495, "pitch": 52, "duration": 1, "velocity": 64}, {"time": 496, "pitch": 55, "duration": 2, "velocity": 64}, {"time": 498, "pitch": 54, "duration": 3, "velocity": 64}, {"time": 501, "pitch": 42, "duration": 3, "velocity": 64}, {"time": 504, "pitch": 47, "duration": 24, "velocity": 64}]}]}