{"metadata": {"schema_version": "0.2"}, "resolution": 12, "tempos": [{"time": 0, "qpm": 100.0}], "tracks": [{"program": 6, "is_drum": false, "notes": [{"time": 6, "pitch": 55, "duration": 1, "velocity": 64}, {"time": 6, "pitch": 50, "duration": 1, "velocity": 64}, {"time": 6, "pitch": 52, "duration": 3, "velocity": 64}, {"time": 12, "pitch": 55, "duration": 1, "velocity": 64}, {"time": 12, "pitch": 52, "duration": 1, "velocity": 64}, {"time": 18, "pitch": 59, "duration": 3, "velocity": 64}, {"time": 24, "pitch": 54, "duration": 6, "velocity": 64}, {"time": 12, "pitch": 62, "duration": 3, "velocity": 64}, {"time": 48, "pitch": 66, "duration": 1, "velocity": 64}, {"time": 42, "pitch": 47, "duration": 2, "velocity": 64}, {"time": 18, "pitch": 52, "duration": 3, "velocity": 64}, {"time": 36, "pitch": 62, "duration": 3, "velocity": 64}, {"time": 48, "pitch": 64, "duration": 1, "velocity": 64}, {"time": 39, "pitch": 54, "duration": 1, "velocity": 64}, {"time": 108, "pitch": 52, "duration": 3, "velocity": 64}, {"time": 36, "pitch": 69, "duration": 2, "velocity": 64}, {"time": 42, "pitch": 66, "duration": 1, "velocity": 64}, {"time": 36, "pitch": 64, "duration": 2, "velocity": 64}, {"time": 54, "pitch": 62, "duration": 2, "velocity": 64}, {"time": 54, "pitch": 69, "duration": 1, "velocity": 64}, {"time": 24, "pitch": 64, "duration": 3, "velocity": 64}, {"time": 72, "pitch": 69, "duration": 1, "velocity": 64}, {"time": 72, "pitch": 66, "duration": 2, "velocity": 64}, {"time": 54, "pitch": 71, "duration": 2, "velocity": 64}, {"time": 90, "pitch": 66, "duration": 3, "velocity": 64}, {"time": 60, "pitch": 59, "duration": 1, "velocity": 64}, {"time": 72, "pitch": 57, "duration": 2, "velocity": 64}, {"time": 54, "pitch": 59, "duration": 2, "velocity": 64}, {"time": 108, "pitch": 54, "duration": 2, "velocity": 64}, {"time": 120, "pitch": 69, "duration": 1, "velocity": 64}, {"time": 78, "pitch": 55, "duration": 1, "velocity": 64}, {"time": 138, "pitch": 59, "duration": 2, "velocity": 64}, {"time": 72, "pitch": 47, "duration": 1, "velocity": 64}, {"time": 96, "pitch": 54, "duration": 3, "velocity": 64}, {"time": 198, "pitch": 71, "duration": 3, "velocity": 64}, {"time": 120, "pitch": 52, "duration": 2, "velocity": 64}, {"time": 72, "pitch": 55, "duration": 2, "velocity": 64}, {"time": 150, "pitch": 57, "duration": 1, "velocity": 64}, {"time": 102, "pitch": 64, "duration": 2, "velocity": 64}, {"time": 120, "pitch": 62, "duration": 1, "velocity": 64}, {"time": 126, "pitch": 71, "duration": 3, "velocity": 64}, {"time": 90, "pitch": 59, "duration": 1, "velocity": 64}, {"time": 174, "pitch": 52, "duration": 2, "velocity": 64}, {"time": 132, "pitch": 54, "duration": 2, "velocity": 64}, {"time": 288, "pitch": 69, "duration": 1, "velocity": 64}, {"time": 192, "pitch": 62, "duration": 1, "velocity": 64}, {"time": 180, "pitch": 66, "duration": 1, "velocity": 64}, {"time": 60, "pitch": 66, "duration": 2, "velocity": 64}, {"time": 96, "pitch": 52, "duration": 1, "velocity": 64}, {"time": 174, "pitch": 66, "duration": 1, "velocity": 64}, {"time": 300, "pitch": 54, "duration": 2, "velocity": 64}, {"time": 252, "pitch": 67, "duration": 1, "velocity": 64}, {"time": 114, "pitch": 61, "duration": 2, "velocity": 64}, {"time": 144, "pitch": 59, "duration": 2, "velocity": 64}, {"time": 168, "pitch": 59, "duration": 2, "velocity": 64}, {"time": 126, "pitch": 57, "duration": 3, "velocity": 64}, {"time": 132, "pitch": 66, "duration": 1, "velocity": 64}, {"time": 204, "pitch": 55, "duration": 1, "velocity": 64}, {"time": 162, "pitch": 69, "duration": 1, "velocity": 64}, {"time": 192, "pitch": 59, "duration": 1, "velocity": 64}, {"time": 156, "pitch": 50, "duration": 3, "velocity": 64}, {"time": 144, "pitch": 47, "duration": 2, "velocity": 64}, {"time": 186, "pitch": 64, "duration": 1, "velocity": 64}, {"time": 198, "pitch": 67, "duration": 3, "velocity": 64}, {"time": 156, "pitch": 61, "duration": 1, "velocity": 64}, {"time": 162, "pitch": 61, "duration": 2, "velocity": 64}, {"time": 174, "pitch": 50, "duration": 1, "velocity": 64}, {"time": 168, "pitch": 52, "duration": 1, "velocity": 64}, {"time": 120, "pitch": 59, "duration": 1, "velocity": 64}, {"time": 174, "pitch": 55, "duration": 3, "velocity": 64}, {"time": 252, "pitch": 62, "duration": 2, "velocity": 64}, {"time": 222, "pitch": 69, "duration": 3, "velocity": 64}, {"time": 186, "pitch": 54, "duration": 2, "velocity": 64}, {"time": 222, "pitch": 71, "duration": 2, "velocity": 64}, {"time": 234, "pitch": 57, "duration": 2, "velocity": 64}, {"time": 159, "pitch": 59, "duration": 1, "velocity": 64}, {"time": 159, "pitch": 55, "duration": 3, "velocity": 64}, {"time": 342, "pitch": 64, "duration": 6, "velocity": 64}, {"time": 282, "pitch": 50, "duration": 3, "velocity": 64}, {"time": 288, "pitch": 55, "duration": 2, "velocity": 64}, {"time": 156, "pitch": 66, "duration": 2, "velocity": 64}, {"time": 144, "pitch": 52, "duration": 2, "velocity": 64}, {"time": 231, "pitch": 66, "duration": 1, "velocity": 64}, {"time": 192, "pitch": 62, "duration": 1, "velocity": 64}, {"time": 207, "pitch": 62, "duration": 1, "velocity": 64}, {"time": 258, "pitch": 57, "duration": 1, "velocity": 64}, {"time": 162, "pitch": 50, "duration": 2, "velocity": 64}, {"time": 270, "pitch": 59, "duration": 1, "velocity": 64}, {"time": 231, "pitch": 69, "duration": 1, "velocity": 64}, {"time": 312, "pitch": 62, "duration": 2, "velocity": 64}, {"time": 204, "pitch": 64, "duration": 1, "velocity": 64}, {"time": 216, "pitch": 71, "duration": 3, "velocity": 64}, {"time": 183, "pitch": 69, "duration": 3, "velocity": 64}, {"time": 240, "pitch": 55, "duration": 3, "velocity": 64}, {"time": 360, "pitch": 54, "duration": 1, "velocity": 64}, {"time": 270, "pitch": 66, "duration": 3, "velocity": 64}, {"time": 402, "pitch": 59, "duration": 1, "velocity": 64}, {"time": 228, "pitch": 59, "duration": 1, "velocity": 64}, {"time": 228, "pitch": 66, "duration": 2, "velocity": 64}, {"time": 306, "pitch": 66, "duration": 1, "velocity": 64}, {"time": 330, "pitch": 59, "duration": 3, "velocity": 64}, {"time": 360, "pitch": 69, "duration": 1, "velocity": 64}, {"time": 180, "pitch": 69, "duration": 2, "velocity": 64}, {"time": 291, "pitch": 64, "duration": 1, "velocity": 64}, {"time": 351, "pitch": 57, "duration": 2, "velocity": 64}, {"time": 426, "pitch": 59, "duration": 3, "velocity": 64}, {"time": 324, "pitch": 52, "duration": 1, "velocity": 64}, {"time": 231, "pitch": 52, "duration": 1, "velocity": 64}, {"time": 363, "pitch": 61, "duration": 1, "velocity": 64}, {"time": 207, "pitch": 52, "duration": 1, "velocity": 64}, {"time": 255, "pitch": 61, "duration": 1, "velocity": 64}, {"time": 339, "pitch": 71, "duration": 1, "velocity": 64}, {"time": 372, "pitch": 64, "duration": 1, "velocity": 64}, {"time": 240, "pitch": 71, "duration": 2, "velocity": 64}, {"time": 420, "pitch": 66, "duration": 2, "velocity": 64}, {"time": 243, "pitch": 47, "duration": 2, "velocity": 64}, {"time": 300, "pitch": 59, "duration": 3, "velocity": 64}, {"time": 336, "pitch": 67, "duration": 2, "velocity": 64}, {"time": 252, "pitch": 64, "duration": 2, "velocity": 64}, {"time": 354, "pitch": 55, "duration": 3, "velocity": 64}, {"time": 279, "pitch": 59, "duration": 2, "velocity": 64}, {"time": 183, "pitch": 61, "duration": 1, "velocity": 64}, {"time": 219, "pitch": 62, "duration": 3, "velocity": 64}, {"time": 360, "pitch": 59, "duration": 1, "velocity": 64}, {"time": 240, "pitch": 59, "duration": 2, "velocity": 64}, {"time": 252, "pitch": 69, "duration": 3, "velocity": 64}, {"time": 390, "pitch": 69, "duration": 1, "velocity": 64}, {"time": 435, "pitch": 66, "duration": 1, "velocity": 64}, {"time": 330, "pitch": 57, "duration": 1, "velocity": 64}, {"time": 192, "pitch": 69, "duration": 3, "velocity": 64}, {"time": 477, "pitch": 50, "duration": 2, "velocity": 64}, {"time": 216, "pitch": 57, "duration": 1, "velocity": 64}, {"time": 276, "pitch": 59, "duration": 2, "velocity": 64}, {"time": 408, "pitch": 47, "duration": 3, "velocity": 64}, {"time": 183, "pitch": 52, "duration": 3, "velocity": 64}, {"time": 408, "pitch": 66, "duration": 3, "velocity": 64}, {"time": 378, "pitch": 62, "duration": 1, "velocity": 64}, {"time": 324, "pitch": 59, "duration": 2, "velocity": 64}, {"time": 264, "pitch": 57, "duration": 3, "velocity": 64}, {"time": 261, "pitch": 50, "duration": 3, "velocity": 64}, {"time": 315, "pitch": 57, "duration": 1, "velocity": 64}, {"time": 426, "pitch": 64, "duration": 1, "velocity": 64}, {"time": 294, "pitch": 71, "duration": 2, "velocity": 64}, {"time": 348, "pitch": 71, "duration": 1, "velocity": 64}, {"time": 360, "pitch": 62, "duration": 3, "velocity": 64}, {"time": 288, "pitch": 59, "duration": 2, "velocity": 64}, {"time": 366, "pitch": 66, "duration": 2, "velocity": 64}, {"time": 324, "pitch": 59, "duration": 1, "velocity": 64}, {"time": 498, "pitch": 67, "duration": 3, "velocity": 64}, {"time": 396, "pitch": 71, "duration": 1, "velocity": 64}, {"time": 402, "pitch": 66, "duration": 1, "velocity": 64}, {"time": 474, "pitch": 52, "duration": 6, "velocity": 64}, {"time": 504, "pitch": 64, "duration": 3, "velocity": 64}, {"time": 366, "pitch": 59, "duration": 2, "velocity": 64}, {"time": 360, "pitch": 71, "duration": 3, "velocity": 64}, {"time": 387, "pitch": 66, "duration": 3, "velocity": 64}, {"time": 522, "pitch": 62, "duration": 3, "velocity": 64}, {"time": 294, "pitch": 66, "duration": 1, "velocity": 64}, {"time": 384, "pitch": 57, "duration": 2, "velocity": 64}, {"time": 498, "pitch": 57, "duration": 1, "velocity": 64}, {"time": 336, "pitch": 66, "duration": 2, "velocity": 64}, {"time": 342, "pitch": 52, "duration": 1, "velocity": 64}, {"time": 336, "pitch": 67, "duration": 2, "velocity": 64}, {"time": 318, "pitch": 52, "duration": 3, "velocity": 64}, {"time": 444, "pitch": 59, "duration": 6, "velocity": 64}, {"time": 444, "pitch": 62, "duration": 3, "velocity": 64}, {"time": 354, "pitch": 59, "duration": 3, "velocity": 64}, {"time": 432, "pitch": 54, "duration": 2, "velocity": 64}, {"time": 426, "pitch": 64, "duration": 2, "velocity": 64}, {"time": 372, "pitch": 57, "duration": 1, "velocity": 64}, {"time": 378, "pitch": 66, "duration": 2, "velocity": 64}, {"time": 351, "pitch": 64, "duration": 2, "velocity": 64}, {"time": 342, "pitch": 62, "duration": 3, "velocity": 64}, {"time": 603, "pitch": 50, "duration": 2, "velocity": 64}, {"time": 504, "pitch": 47, "duration": 1, "velocity": 64}, {"time": 450, "pitch": 54, "duration": 1, "velocity": 64}, {"time": 492, "pitch": 64, "duration": 3, "velocity": 64}, {"time": 510, "pitch": 52, "duration": 2, "velocity": 64}, {"time": 426, "pitch": 69, "duration": 1, "velocity": 64}, {"time": 480, "pitch": 50, "duration": 1, "velocity": 64}, {"time": 468, "pitch": 67, "duration": 1, "velocity": 64}, {"time": 342, "pitch": 66, "duration": 1, "velocity": 64}, {"time": 432, "pitch": 64, "duration": 3, "velocity": 64}, {"time": 330, "pitch": 69, "duration": 2, "velocity": 64}, {"time": 588, "pitch": 52, "duration": 6, "velocity": 64}, {"time": 612, "pitch": 54, "duration": 2, "velocity": 64}, {"time": 522, "pitch": 47, "duration": 2, "velocity": 64}, {"time": 354, "pitch": 50, "duration": 2, "velocity": 64}, {"time": 336, "pitch": 66, "duration": 6, "velocity": 64}, {"time": 432, "pitch": 55, "duration": 1, "velocity": 64}, {"time": 462, "pitch": 52, "duration": 2, "velocity": 64}, {"time": 462, "pitch": 52, "duration": 3, "velocity": 64}, {"time": 498, "pitch": 54, "duration": 1, "velocity": 64}, {"time": 438, "pitch": 67, "duration": 3, "velocity": 64}, {"time": 480, "pitch": 64, "duration": 1, "velocity": 64}, {"time": 552, "pitch": 52, "duration": 1, "velocity": 64}, {"time": 555, "pitch": 62, "duration": 1, "velocity": 64}, {"time": 492, "pitch": 67, "duration": 1, "velocity": 64}, {"time": 420, "pitch": 71, "duration": 3, "velocity": 64}, {"time": 426, "pitch": 50, "duration": 3, "velocity": 64}, {"time": 516, "pitch": 59, "duration": 2, "velocity": 64}, {"time": 366, "pitch": 64, "duration": 6, "velocity": 64}, {"time": 399, "pitch": 59, "duration": 1, "velocity": 64}, {"time": 474, "pitch": 57, "duration": 1, "velocity": 64}, {"time": 516, "pitch": 66, "duration": 2, "velocity": 64}, {"time": 582, "pitch": 55, "duration": 2, "velocity": 64}, {"time": 540, "pitch": 57, "duration": 3, "velocity": 64}, {"time": 594, "pitch": 59, "duration": 1, "velocity": 64}, {"time": 444, "pitch": 66, "duration": 2, "velocity": 64}, {"time": 666, "pitch": 64, "duration": 3, "velocity": 64}, {"time": 555, "pitch": 47, "duration": 2, "velocity": 64}, {"time": 510, "pitch": 66, "duration": 1, "velocity": 64}, {"time": 516, "pitch": 54, "duration": 1, "velocity": 64}, {"time": 600, "pitch": 57, "duration": 3, "velocity": 64}, {"time": 495, "pitch": 47, "duration": 2, "velocity": 64}, {"time": 495, "pitch": 54, "duration": 2, "velocity": 64}, {"time": 504, "pitch": 64, "duration": 2, "velocity": 64}, {"time": 516, "pitch": 54, "duration": 3, "velocity": 64}, {"time": 570, "pitch": 59, "duration": 3, "velocity": 64}, {"time": 606, "pitch": 54, "duration": 3, "velocity": 64}, {"time": 474, "pitch": 54, "duration": 2, "velocity": 64}, {"time": 618, "pitch": 52, "duration": 2, "velocity": 64}, {"time": 492, "pitch": 71, "duration": 2, "velocity": 64}, {"time": 483, "pitch": 52, "duration": 3, "velocity": 64}, {"time": 492, "pitch": 55, "duration": 1, "velocity": 64}, {"time": 666, "pitch": 55, "duration": 2, "velocity": 64}, {"time": 606, "pitch": 66, "duration": 3, "velocity": 64}, {"time": 594, "pitch": 64, "duration": 1, "velocity": 64}, {"time": 678, "pitch": 71, "duration": 1, "velocity": 64}, {"time": 522, "pitch": 57, "duration": 2, "velocity": 64}, {"time": 474, "pitch": 55, "duration": 1, "velocity": 64}, {"time": 588, "pitch": 69, "duration": 1, "velocity": 64}, {"time": 726, "pitch": 59, "duration": 2, "velocity": 64}, {"time": 528, "pitch": 47, "duration": 2, "velocity": 64}, {"time": 480, "pitch": 54, "duration": 2, "velocity": 64}, {"time": 570, "pitch": 71, "duration": 6, "velocity": 64}, {"time": 564, "pitch": 52, "duration": 2, "velocity": 64}, {"time": 612, "pitch": 52, "duration": 2, "velocity": 64}, {"time": 552, "pitch": 66, "duration": 2, "velocity": 64}, {"time": 612, "pitch": 66, "duration": 3, "velocity": 64}, {"time": 528, "pitch": 64, "duration": 2, "velocity": 64}, {"time": 618, "pitch": 69, "duration": 3, "velocity": 64}, {"time": 672, "pitch": 64, "duration": 1, "velocity": 64}, {"time": 495, "pitch": 54, "duration": 1, "velocity": 64}, {"time": 726, "pitch": 57, "duration": 1, "velocity": 64}, {"time": 444, "pitch": 64, "duration": 1, "velocity": 64}, {"time": 534, "pitch": 59, "duration": 2, "velocity": 64}, {"time": 714, "pitch": 71, "duration": 3, "velocity": 64}, {"time": 672, "pitch": 71, "duration": 1, "velocity": 64}, {"time": 732, "pitch": 57, "duration": 3, "velocity": 64}, {"time": 642, "pitch": 55, "duration": 1, "velocity": 64}, {"time": 474, "pitch": 55, "duration": 3, "velocity": 64}, {"time": 462, "pitch": 59, "duration": 2, "velocity": 64}, {"time": 570, "pitch": 47, "duration": 2, "velocity": 64}, {"time": 678, "pitch": 47, "duration": 1, "velocity": 64}, {"time": 618, "pitch": 52, "duration": 3, "velocity": 64}, {"time": 684, "pitch": 71, "duration": 3, "velocity": 64}, {"time": 516, "pitch": 69, "duration": 1, "velocity": 64}, {"time": 606, "pitch": 59, "duration": 2, "velocity": 64}, {"time": 468, "pitch": 59, "duration": 2, "velocity": 64}, {"time": 558, "pitch": 57, "duration": 1, "velocity": 64}, {"time": 618, "pitch": 69, "duration": 2, "velocity": 64}]}]}