{"metadata": {"schema_version": "0.2"}, "resolution": 12, "tempos": [{"time": 0, "qpm": 100.0}], "tracks": [{"program": 6, "is_drum": false, "notes": [{"time": 2, "pitch": 62, "duration": 2, "velocity": 64}, {"time": 4, "pitch": 66, "duration": 1, "velocity": 64}, {"time": 4, "pitch": 66, "duration": 2, "velocity": 64}, {"time": 6, "pitch": 69, "duration": 1, "velocity": 64}, {"time": 16, "pitch": 55, "duration": 1, "velocity": 64}, {"time": 4, "pitch": 69, "duration": 1, "velocity": 64}, {"time": 22, "pitch": 55, "duration": 2, "velocity": 64}, {"time": 18, "pitch": 62, "duration": 1, "velocity": 64}, {"time": 18, "pitch": 60, "duration": 1, "velocity": 64}, {"time": 24, "pitch": 62, "duration": 1, "velocity": 64}, {"time": 24, "pitch": 50, "duration": 1, "velocity": 64}, {"time": 24, "pitch": 64, "duration": 1, "velocity": 64}, {"time": 30, "pitch": 45, "duration": 2, "velocity": 64}, {"time": 30, "pitch": 62, "duration": 2, "velocity": 64}, {"time": 18, "pitch": 57, "duration": 1, "velocity": 64}, {"time": 24, "pitch": 60, "duration": 2, "velocity": 64}, {"time": 24, "pitch": 62, "duration": 1, "velocity": 64}, {"time": 36, "pitch": 50, "duration": 1, "velocity": 64}, {"time": 30, "pitch": 64, "duration": 2, "velocity": 64}, {"time": 36, "pitch": 48, "duration": 2, "velocity": 64}, {"time": 72, "pitch": 43, "duration": 3, "velocity": 64}, {"time": 105, "pitch": 53, "duration": 2, "velocity": 64}, {"time": 66, "pitch": 69, "duration": 2, "velocity": 64}, {"time": 48, "pitch": 67, "duration": 2, "velocity": 64}, {"time": 24, "pitch": 57, "duration": 1, "velocity": 64}, {"time": 60, "pitch": 67, "duration": 2, "velocity": 64}, {"time": 24, "pitch": 48, "duration": 1, "velocity": 64}, {"time": 36, "pitch": 57, "duration": 1, "velocity": 64}, {"time": 126, "pitch": 57, "duration": 1, "velocity": 64}, {"time": 45, "pitch": 50, "duration": 2, "velocity": 64}, {"time": 60, "pitch": 69, "duration": 2, "velocity": 64}, {"time": 60, "pitch": 55, "duration": 3, "velocity": 64}, {"time": 102, "pitch": 57, "duration": 1, "velocity": 64}, {"time": 66, "pitch": 48, "duration": 1, "velocity": 64}, {"time": 66, "pitch": 67, "duration": 2, "velocity": 64}, {"time": 54, "pitch": 67, "duration": 2, "velocity": 64}, {"time": 72, "pitch": 67, "duration": 2, "velocity": 64}, {"time": 84, "pitch": 57, "duration": 1, "velocity": 64}, {"time": 54, "pitch": 60, "duration": 1, "velocity": 64}, {"time": 93, "pitch": 65, "duration": 2, "velocity": 64}, {"time": 72, "pitch": 62, "duration": 2, "velocity": 64}, {"time": 168, "pitch": 67, "duration": 2, "velocity": 64}, {"time": 93, "pitch": 65, "duration": 2, "velocity": 64}, {"time": 120, "pitch": 53, "duration": 1, "velocity": 64}, {"time": 111, "pitch": 60, "duration": 2, "velocity": 64}, {"time": 111, "pitch": 62, "duration": 3, "velocity": 64}, {"time": 144, "pitch": 55, "duration": 3, "velocity": 64}, {"time": 129, "pitch": 57, "duration": 1, "velocity": 64}, {"time": 156, "pitch": 50, "duration": 2, "velocity": 64}, {"time": 168, "pitch": 57, "duration": 1, "velocity": 64}, {"time": 120, "pitch": 60, "duration": 2, "velocity": 64}, {"time": 192, "pitch": 58, "duration": 1, "velocity": 64}, {"time": 171, "pitch": 50, "duration": 1, "velocity": 64}, {"time": 162, "pitch": 60, "duration": 2, "velocity": 64}, {"time": 96, "pitch": 48, "duration": 2, "velocity": 64}, {"time": 144, "pitch": 67, "duration": 2, "velocity": 64}, {"time": 156, "pitch": 57, "duration": 1, "velocity": 64}, {"time": 231, "pitch": 65, "duration": 1, "velocity": 64}, {"time": 105, "pitch": 52, "duration": 1, "velocity": 64}, {"time": 120, "pitch": 53, "duration": 1, "velocity": 64}, {"time": 180, "pitch": 48, "duration": 3, "velocity": 64}, {"time": 171, "pitch": 41, "duration": 2, "velocity": 64}, {"time": 69, "pitch": 46, "duration": 2, "velocity": 64}, {"time": 141, "pitch": 50, "duration": 2, "velocity": 64}, {"time": 135, "pitch": 58, "duration": 2, "velocity": 64}, {"time": 204, "pitch": 65, "duration": 2, "velocity": 64}, {"time": 144, "pitch": 55, "duration": 2, "velocity": 64}, {"time": 144, "pitch": 51, "duration": 1, "velocity": 64}, {"time": 183, "pitch": 52, "duration": 2, "velocity": 64}, {"time": 213, "pitch": 60, "duration": 2, "velocity": 64}, {"time": 204, "pitch": 65, "duration": 2, "velocity": 64}, {"time": 69, "pitch": 55, "duration": 3, "velocity": 64}, {"time": 147, "pitch": 52, "duration": 2, "velocity": 64}, {"time": 132, "pitch": 53, "duration": 3, "velocity": 64}, {"time": 189, "pitch": 65, "duration": 2, "velocity": 64}, {"time": 192, "pitch": 62, "duration": 1, "velocity": 64}, {"time": 159, "pitch": 65, "duration": 3, "velocity": 64}, {"time": 171, "pitch": 58, "duration": 2, "velocity": 64}, {"time": 216, "pitch": 65, "duration": 6, "velocity": 64}, {"time": 129, "pitch": 41, "duration": 2, "velocity": 64}, {"time": 183, "pitch": 46, "duration": 1, "velocity": 64}, {"time": 285, "pitch": 48, "duration": 2, "velocity": 64}, {"time": 177, "pitch": 60, "duration": 2, "velocity": 64}, {"time": 147, "pitch": 65, "duration": 6, "velocity": 64}, {"time": 159, "pitch": 65, "duration": 2, "velocity": 64}, {"time": 231, "pitch": 41, "duration": 3, "velocity": 64}, {"time": 204, "pitch": 62, "duration": 1, "velocity": 64}, {"time": 168, "pitch": 55, "duration": 1, "velocity": 64}, {"time": 123, "pitch": 55, "duration": 2, "velocity": 64}, {"time": 255, "pitch": 46, "duration": 3, "velocity": 64}, {"time": 204, "pitch": 53, "duration": 2, "velocity": 64}, {"time": 192, "pitch": 46, "duration": 2, "velocity": 64}, {"time": 264, "pitch": 53, "duration": 2, "velocity": 64}, {"time": 219, "pitch": 58, "duration": 2, "velocity": 64}, {"time": 189, "pitch": 53, "duration": 3, "velocity": 64}, {"time": 168, "pitch": 48, "duration": 3, "velocity": 64}, {"time": 216, "pitch": 62, "duration": 2, "velocity": 64}, {"time": 219, "pitch": 60, "duration": 1, "velocity": 64}, {"time": 144, "pitch": 52, "duration": 3, "velocity": 64}, {"time": 255, "pitch": 65, "duration": 1, "velocity": 64}, {"time": 231, "pitch": 41, "duration": 3, "velocity": 64}, {"time": 222, "pitch": 50, "duration": 1, "velocity": 64}, {"time": 156, "pitch": 62, "duration": 2, "velocity": 64}, {"time": 279, "pitch": 60, "duration": 1, "velocity": 64}, {"time": 228, "pitch": 48, "duration": 3, "velocity": 64}, {"time": 198, "pitch": 53, "duration": 1, "velocity": 64}, {"time": 255, "pitch": 67, "duration": 2, "velocity": 64}, {"time": 135, "pitch": 53, "duration": 6, "velocity": 64}, {"time": 258, "pitch": 67, "duration": 2, "velocity": 64}, {"time": 264, "pitch": 55, "duration": 3, "velocity": 64}, {"time": 192, "pitch": 53, "duration": 2, "velocity": 64}, {"time": 192, "pitch": 64, "duration": 1, "velocity": 64}, {"time": 267, "pitch": 55, "duration": 3, "velocity": 64}, {"time": 327, "pitch": 55, "duration": 3, "velocity": 64}, {"time": 420, "pitch": 53, "duration": 2, "velocity": 64}, {"time": 378, "pitch": 52, "duration": 6, "velocity": 64}, {"time": 216, "pitch": 60, "duration": 1, "velocity": 64}, {"time": 336, "pitch": 48, "duration": 1, "velocity": 64}, {"time": 312, "pitch": 67, "duration": 2, "velocity": 64}, {"time": 255, "pitch": 62, "duration": 2, "velocity": 64}, {"time": 237, "pitch": 57, "duration": 2, "velocity": 64}, {"time": 375, "pitch": 60, "duration": 3, "velocity": 64}, {"time": 231, "pitch": 57, "duration": 1, "velocity": 64}, {"time": 255, "pitch": 50, "duration": 3, "velocity": 64}, {"time": 228, "pitch": 48, "duration": 1, "velocity": 64}, {"time": 375, "pitch": 55, "duration": 1, "velocity": 64}, {"time": 288, "pitch": 48, "duration": 2, "velocity": 64}, {"time": 324, "pitch": 52, "duration": 2, "velocity": 64}, {"time": 396, "pitch": 57, "duration": 2, "velocity": 64}, {"time": 363, "pitch": 57, "duration": 2, "velocity": 64}, {"time": 246, "pitch": 60, "duration": 1, "velocity": 64}, {"time": 306, "pitch": 64, "duration": 1, "velocity": 64}, {"time": 405, "pitch": 62, "duration": 1, "velocity": 64}, {"time": 420, "pitch": 57, "duration": 2, "velocity": 64}, {"time": 321, "pitch": 53, "duration": 2, "velocity": 64}, {"time": 282, "pitch": 65, "duration": 2, "velocity": 64}, {"time": 240, "pitch": 67, "duration": 3, "velocity": 64}, {"time": 252, "pitch": 53, "duration": 2, "velocity": 64}, {"time": 492, "pitch": 65, "duration": 2, "velocity": 64}, {"time": 288, "pitch": 55, "duration": 1, "velocity": 64}, {"time": 348, "pitch": 55, "duration": 2, "velocity": 64}, {"time": 324, "pitch": 55, "duration": 2, "velocity": 64}, {"time": 270, "pitch": 62, "duration": 2, "velocity": 64}, {"time": 252, "pitch": 62, "duration": 6, "velocity": 64}, {"time": 336, "pitch": 50, "duration": 2, "velocity": 64}, {"time": 360, "pitch": 62, "duration": 1, "velocity": 64}, {"time": 288, "pitch": 52, "duration": 2, "velocity": 64}, {"time": 264, "pitch": 62, "duration": 1, "velocity": 64}, {"time": 336, "pitch": 67, "duration": 2, "velocity": 64}, {"time": 435, "pitch": 52, "duration": 2, "velocity": 64}, {"time": 312, "pitch": 48, "duration": 3, "velocity": 64}, {"time": 372, "pitch": 48, "duration": 3, "velocity": 64}, {"time": 288, "pitch": 67, "duration": 2, "velocity": 64}, {"time": 432, "pitch": 65, "duration": 3, "velocity": 64}, {"time": 372, "pitch": 65, "duration": 2, "velocity": 64}, {"time": 336, "pitch": 67, "duration": 2, "velocity": 64}, {"time": 300, "pitch": 58, "duration": 1, "velocity": 64}, {"time": 285, "pitch": 50, "duration": 2, "velocity": 64}, {"time": 438, "pitch": 48, "duration": 2, "velocity": 64}, {"time": 240, "pitch": 55, "duration": 2, "velocity": 64}, {"time": 291, "pitch": 52, "duration": 1, "velocity": 64}, {"time": 252, "pitch": 62, "duration": 2, "velocity": 64}, {"time": 450, "pitch": 43, "duration": 2, "velocity": 64}, {"time": 534, "pitch": 55, "duration": 2, "velocity": 64}, {"time": 372, "pitch": 55, "duration": 2, "velocity": 64}, {"time": 252, "pitch": 62, "duration": 2, "velocity": 64}, {"time": 408, "pitch": 48, "duration": 2, "velocity": 64}, {"time": 504, "pitch": 48, "duration": 2, "velocity": 64}, {"time": 348, "pitch": 52, "duration": 1, "velocity": 64}, {"time": 336, "pitch": 53, "duration": 1, "velocity": 64}, {"time": 360, "pitch": 50, "duration": 3, "velocity": 64}, {"time": 426, "pitch": 50, "duration": 2, "velocity": 64}, {"time": 522, "pitch": 58, "duration": 1, "velocity": 64}, {"time": 552, "pitch": 62, "duration": 2, "velocity": 64}, {"time": 396, "pitch": 43, "duration": 1, "velocity": 64}, {"time": 372, "pitch": 46, "duration": 1, "velocity": 64}, {"time": 348, "pitch": 65, "duration": 3, "velocity": 64}, {"time": 342, "pitch": 51, "duration": 2, "velocity": 64}, {"time": 546, "pitch": 58, "duration": 2, "velocity": 64}, {"time": 456, "pitch": 57, "duration": 1, "velocity": 64}, {"time": 432, "pitch": 46, "duration": 6, "velocity": 64}, {"time": 336, "pitch": 55, "duration": 2, "velocity": 64}, {"time": 330, "pitch": 52, "duration": 2, "velocity": 64}, {"time": 378, "pitch": 55, "duration": 2, "velocity": 64}, {"time": 438, "pitch": 48, "duration": 3, "velocity": 64}, {"time": 384, "pitch": 48, "duration": 3, "velocity": 64}, {"time": 402, "pitch": 53, "duration": 3, "velocity": 64}, {"time": 498, "pitch": 58, "duration": 2, "velocity": 64}, {"time": 396, "pitch": 48, "duration": 1, "velocity": 64}, {"time": 606, "pitch": 55, "duration": 2, "velocity": 64}, {"time": 336, "pitch": 64, "duration": 1, "velocity": 64}, {"time": 408, "pitch": 53, "duration": 1, "velocity": 64}, {"time": 327, "pitch": 58, "duration": 3, "velocity": 64}, {"time": 300, "pitch": 60, "duration": 2, "velocity": 64}, {"time": 528, "pitch": 43, "duration": 6, "velocity": 64}, {"time": 468, "pitch": 55, "duration": 1, "velocity": 64}, {"time": 390, "pitch": 50, "duration": 1, "velocity": 64}, {"time": 396, "pitch": 55, "duration": 3, "velocity": 64}, {"time": 414, "pitch": 50, "duration": 6, "velocity": 64}, {"time": 399, "pitch": 53, "duration": 3, "velocity": 64}, {"time": 528, "pitch": 55, "duration": 1, "velocity": 64}, {"time": 402, "pitch": 67, "duration": 1, "velocity": 64}, {"time": 462, "pitch": 53, "duration": 2, "velocity": 64}, {"time": 558, "pitch": 55, "duration": 2, "velocity": 64}, {"time": 522, "pitch": 52, "duration": 2, "velocity": 64}, {"time": 351, "pitch": 67, "duration": 2, "velocity": 64}, {"time": 516, "pitch": 53, "duration": 2, "velocity": 64}, {"time": 456, "pitch": 52, "duration": 2, "velocity": 64}, {"time": 396, "pitch": 46, "duration": 2, "velocity": 64}, {"time": 522, "pitch": 65, "duration": 6, "velocity": 64}, {"time": 366, "pitch": 48, "duration": 2, "velocity": 64}, {"time": 534, "pitch": 62, "duration": 2, "velocity": 64}, {"time": 399, "pitch": 48, "duration": 1, "velocity": 64}, {"time": 522, "pitch": 57, "duration": 3, "velocity": 64}, {"time": 372, "pitch": 55, "duration": 1, "velocity": 64}, {"time": 366, "pitch": 57, "duration": 2, "velocity": 64}, {"time": 558, "pitch": 58, "duration": 1, "velocity": 64}, {"time": 411, "pitch": 65, "duration": 2, "velocity": 64}, {"time": 636, "pitch": 57, "duration": 1, "velocity": 64}, {"time": 540, "pitch": 55, "duration": 1, "velocity": 64}, {"time": 486, "pitch": 50, "duration": 3, "velocity": 64}, {"time": 582, "pitch": 46, "duration": 1, "velocity": 64}, {"time": 642, "pitch": 57, "duration": 2, "velocity": 64}, {"time": 492, "pitch": 58, "duration": 2, "velocity": 64}, {"time": 534, "pitch": 58, "duration": 3, "velocity": 64}, {"time": 432, "pitch": 50, "duration": 1, "velocity": 64}, {"time": 504, "pitch": 46, "duration": 2, "velocity": 64}, {"time": 492, "pitch": 55, "duration": 1, "velocity": 64}, {"time": 588, "pitch": 50, "duration": 3, "velocity": 64}, {"time": 504, "pitch": 48, "duration": 1, "velocity": 64}, {"time": 558, "pitch": 58, "duration": 2, "velocity": 64}, {"time": 534, "pitch": 62, "duration": 2, "velocity": 64}, {"time": 492, "pitch": 46, "duration": 2, "velocity": 64}, {"time": 540, "pitch": 53, "duration": 2, "velocity": 64}, {"time": 606, "pitch": 60, "duration": 2, "velocity": 64}, {"time": 648, "pitch": 43, "duration": 2, "velocity": 64}, {"time": 666, "pitch": 48, "duration": 2, "velocity": 64}, {"time": 591, "pitch": 60, "duration": 2, "velocity": 64}, {"time": 546, "pitch": 52, "duration": 1, "velocity": 64}, {"time": 522, "pitch": 55, "duration": 2, "velocity": 64}, {"time": 492, "pitch": 55, "duration": 3, "velocity": 64}, {"time": 579, "pitch": 48, "duration": 1, "velocity": 64}, {"time": 450, "pitch": 48, "duration": 6, "velocity": 64}, {"time": 480, "pitch": 50, "duration": 2, "velocity": 64}, {"time": 675, "pitch": 58, "duration": 1, "velocity": 64}, {"time": 696, "pitch": 43, "duration": 2, "velocity": 64}, {"time": 672, "pitch": 50, "duration": 2, "velocity": 64}, {"time": 504, "pitch": 62, "duration": 1, "velocity": 64}, {"time": 672, "pitch": 43, "duration": 1, "velocity": 64}, {"time": 543, "pitch": 43, "duration": 3, "velocity": 64}, {"time": 570, "pitch": 48, "duration": 3, "velocity": 64}, {"time": 582, "pitch": 67, "duration": 3, "velocity": 64}, {"time": 516, "pitch": 60, "duration": 2, "velocity": 64}, {"time": 624, "pitch": 62, "duration": 2, "velocity": 64}, {"time": 600, "pitch": 58, "duration": 1, "velocity": 64}, {"time": 576, "pitch": 41, "duration": 1, "velocity": 64}, {"time": 510, "pitch": 50, "duration": 1, "velocity": 64}, {"time": 495, "pitch": 53, "duration": 1, "velocity": 64}, {"time": 516, "pitch": 57, "duration": 3, "velocity": 64}, {"time": 456, "pitch": 57, "duration": 2, "velocity": 64}, {"time": 636, "pitch": 65, "duration": 1, "velocity": 64}, {"time": 690, "pitch": 46, "duration": 2, "velocity": 64}, {"time": 624, "pitch": 57, "duration": 2, "velocity": 64}, {"time": 738, "pitch": 57, "duration": 1, "velocity": 64}, {"time": 651, "pitch": 51, "duration": 3, "velocity": 64}, {"time": 543, "pitch": 67, "duration": 2, "velocity": 64}, {"time": 582, "pitch": 67, "duration": 4, "velocity": 64}, {"time": 648, "pitch": 55, "duration": 1, "velocity": 64}, {"time": 645, "pitch": 60, "duration": 1, "velocity": 64}, {"time": 729, "pitch": 50, "duration": 2, "velocity": 64}, {"time": 636, "pitch": 43, "duration": 2, "velocity": 64}, {"time": 624, "pitch": 55, "duration": 3, "velocity": 64}, {"time": 831, "pitch": 60, "duration": 3, "velocity": 64}, {"time": 711, "pitch": 62, "duration": 2, "velocity": 64}, {"time": 522, "pitch": 43, "duration": 2, "velocity": 64}, {"time": 612, "pitch": 60, "duration": 2, "velocity": 64}, {"time": 804, "pitch": 62, "duration": 2, "velocity": 64}, {"time": 633, "pitch": 43, "duration": 3, "velocity": 64}, {"time": 660, "pitch": 52, "duration": 2, "velocity": 64}, {"time": 540, "pitch": 53, "duration": 1, "velocity": 64}, {"time": 600, "pitch": 60, "duration": 3, "velocity": 64}, {"time": 567, "pitch": 62, "duration": 1, "velocity": 64}, {"time": 459, "pitch": 46, "duration": 2, "velocity": 64}, {"time": 792, "pitch": 46, "duration": 1, "velocity": 64}, {"time": 543, "pitch": 67, "duration": 1, "velocity": 64}, {"time": 609, "pitch": 60, "duration": 1, "velocity": 64}, {"time": 615, "pitch": 62, "duration": 2, "velocity": 64}, {"time": 762, "pitch": 43, "duration": 1, "velocity": 64}]}]}