{"metadata": {"schema_version": "0.2"}, "resolution": 12, "tempos": [{"time": 0, "qpm": 100.0}], "tracks": [{"program": 6, "is_drum": false, "notes": [{"time": 2, "pitch": 69, "duration": 1, "velocity": 64}, {"time": 2, "pitch": 57, "duration": 2, "velocity": 64}, {"time": 6, "pitch": 50, "duration": 3, "velocity": 64}, {"time": 6, "pitch": 60, "duration": 2, "velocity": 64}, {"time": 18, "pitch": 62, "duration": 3, "velocity": 64}, {"time": 30, "pitch": 72, "duration": 2, "velocity": 64}, {"time": 26, "pitch": 48, "duration": 2, "velocity": 64}, {"time": 18, "pitch": 60, "duration": 1, "velocity": 64}, {"time": 15, "pitch": 72, "duration": 3, "velocity": 64}, {"time": 18, "pitch": 64, "duration": 3, "velocity": 64}, {"time": 12, "pitch": 47, "duration": 3, "velocity": 64}, {"time": 60, "pitch": 64, "duration": 2, "velocity": 64}, {"time": 14, "pitch": 67, "duration": 1, "velocity": 64}, {"time": 36, "pitch": 64, "duration": 1, "velocity": 64}, {"time": 24, "pitch": 55, "duration": 3, "velocity": 64}, {"time": 42, "pitch": 55, "duration": 2, "velocity": 64}, {"time": 12, "pitch": 69, "duration": 2, "velocity": 64}, {"time": 24, "pitch": 64, "duration": 1, "velocity": 64}, {"time": 54, "pitch": 48, "duration": 1, "velocity": 64}, {"time": 54, "pitch": 59, "duration": 3, "velocity": 64}, {"time": 48, "pitch": 48, "duration": 3, "velocity": 64}, {"time": 24, "pitch": 60, "duration": 1, "velocity": 64}, {"time": 48, "pitch": 48, "duration": 3, "velocity": 64}, {"time": 72, "pitch": 55, "duration": 1, "velocity": 64}, {"time": 66, "pitch": 57, "duration": 3, "velocity": 64}, {"time": 12, "pitch": 67, "duration": 1, "velocity": 64}, {"time": 30, "pitch": 64, "duration": 3, "velocity": 64}, {"time": 78, "pitch": 66, "duration": 3, "velocity": 64}, {"time": 78, "pitch": 64, "duration": 2, "velocity": 64}, {"time": 60, "pitch": 65, "duration": 1, "velocity": 64}, {"time": 63, "pitch": 62, "duration": 2, "velocity": 64}, {"time": 186, "pitch": 50, "duration": 6, "velocity": 64}, {"time": 66, "pitch": 55, "duration": 2, "velocity": 64}, {"time": 63, "pitch": 64, "duration": 2, "velocity": 64}, {"time": 114, "pitch": 62, "duration": 2, "velocity": 64}, {"time": 84, "pitch": 64, "duration": 2, "velocity": 64}, {"time": 129, "pitch": 62, "duration": 1, "velocity": 64}, {"time": 48, "pitch": 71, "duration": 2, "velocity": 64}, {"time": 144, "pitch": 60, "duration": 2, "velocity": 64}, {"time": 72, "pitch": 59, "duration": 2, "velocity": 64}, {"time": 96, "pitch": 55, "duration": 2, "velocity": 64}, {"time": 90, "pitch": 55, "duration": 2, "velocity": 64}, {"time": 90, "pitch": 67, "duration": 6, "velocity": 64}, {"time": 114, "pitch": 55, "duration": 1, "velocity": 64}, {"time": 84, "pitch": 67, "duration": 2, "velocity": 64}, {"time": 132, "pitch": 55, "duration": 3, "velocity": 64}, {"time": 156, "pitch": 55, "duration": 2, "velocity": 64}, {"time": 168, "pitch": 55, "duration": 6, "velocity": 64}, {"time": 132, "pitch": 57, "duration": 1, "velocity": 64}, {"time": 84, "pitch": 62, "duration": 2, "velocity": 64}, {"time": 96, "pitch": 55, "duration": 1, "velocity": 64}, {"time": 96, "pitch": 55, "duration": 3, "velocity": 64}, {"time": 126, "pitch": 52, "duration": 3, "velocity": 64}, {"time": 162, "pitch": 69, "duration": 3, "velocity": 64}, {"time": 138, "pitch": 48, "duration": 2, "velocity": 64}, {"time": 186, "pitch": 45, "duration": 2, "velocity": 64}, {"time": 204, "pitch": 60, "duration": 2, "velocity": 64}, {"time": 156, "pitch": 64, "duration": 2, "velocity": 64}, {"time": 234, "pitch": 67, "duration": 3, "velocity": 64}, {"time": 180, "pitch": 60, "duration": 3, "velocity": 64}, {"time": 186, "pitch": 50, "duration": 1, "velocity": 64}, {"time": 258, "pitch": 59, "duration": 2, "velocity": 64}, {"time": 186, "pitch": 43, "duration": 1, "velocity": 64}, {"time": 144, "pitch": 66, "duration": 6, "velocity": 64}, {"time": 138, "pitch": 43, "duration": 1, "velocity": 64}, {"time": 174, "pitch": 50, "duration": 2, "velocity": 64}, {"time": 168, "pitch": 62, "duration": 3, "velocity": 64}, {"time": 156, "pitch": 55, "duration": 3, "velocity": 64}, {"time": 156, "pitch": 69, "duration": 1, "velocity": 64}, {"time": 270, "pitch": 67, "duration": 3, "velocity": 64}, {"time": 168, "pitch": 62, "duration": 2, "velocity": 64}, {"time": 192, "pitch": 59, "duration": 1, "velocity": 64}, {"time": 204, "pitch": 48, "duration": 3, "velocity": 64}, {"time": 192, "pitch": 57, "duration": 1, "velocity": 64}, {"time": 156, "pitch": 48, "duration": 2, "velocity": 64}, {"time": 147, "pitch": 45, "duration": 1, "velocity": 64}, {"time": 168, "pitch": 62, "duration": 2, "velocity": 64}, {"time": 186, "pitch": 45, "duration": 3, "velocity": 64}, {"time": 186, "pitch": 69, "duration": 2, "velocity": 64}, {"time": 243, "pitch": 43, "duration": 2, "velocity": 64}, {"time": 192, "pitch": 59, "duration": 1, "velocity": 64}, {"time": 132, "pitch": 64, "duration": 2, "velocity": 64}, {"time": 186, "pitch": 48, "duration": 3, "velocity": 64}, {"time": 240, "pitch": 67, "duration": 3, "velocity": 64}, {"time": 279, "pitch": 52, "duration": 3, "velocity": 64}, {"time": 192, "pitch": 55, "duration": 3, "velocity": 64}, {"time": 138, "pitch": 55, "duration": 1, "velocity": 64}, {"time": 216, "pitch": 57, "duration": 2, "velocity": 64}, {"time": 264, "pitch": 45, "duration": 1, "velocity": 64}, {"time": 192, "pitch": 55, "duration": 2, "velocity": 64}, {"time": 210, "pitch": 50, "duration": 1, "velocity": 64}, {"time": 192, "pitch": 50, "duration": 1, "velocity": 64}, {"time": 324, "pitch": 69, "duration": 1, "velocity": 64}, {"time": 360, "pitch": 48, "duration": 3, "velocity": 64}, {"time": 156, "pitch": 67, "duration": 6, "velocity": 64}, {"time": 204, "pitch": 62, "duration": 2, "velocity": 64}, {"time": 282, "pitch": 60, "duration": 2, "velocity": 64}, {"time": 198, "pitch": 45, "duration": 1, "velocity": 64}, {"time": 171, "pitch": 52, "duration": 2, "velocity": 64}, {"time": 243, "pitch": 52, "duration": 1, "velocity": 64}, {"time": 207, "pitch": 60, "duration": 3, "velocity": 64}, {"time": 258, "pitch": 55, "duration": 1, "velocity": 64}, {"time": 219, "pitch": 57, "duration": 1, "velocity": 64}, {"time": 213, "pitch": 50, "duration": 2, "velocity": 64}, {"time": 279, "pitch": 72, "duration": 1, "velocity": 64}, {"time": 195, "pitch": 50, "duration": 3, "velocity": 64}, {"time": 246, "pitch": 50, "duration": 1, "velocity": 64}, {"time": 195, "pitch": 57, "duration": 1, "velocity": 64}, {"time": 132, "pitch": 60, "duration": 3, "velocity": 64}, {"time": 162, "pitch": 64, "duration": 1, "velocity": 64}, {"time": 252, "pitch": 67, "duration": 1, "velocity": 64}, {"time": 288, "pitch": 67, "duration": 1, "velocity": 64}, {"time": 255, "pitch": 57, "duration": 1, "velocity": 64}, {"time": 336, "pitch": 62, "duration": 2, "velocity": 64}, {"time": 204, "pitch": 60, "duration": 2, "velocity": 64}, {"time": 216, "pitch": 52, "duration": 2, "velocity": 64}, {"time": 252, "pitch": 59, "duration": 2, "velocity": 64}, {"time": 252, "pitch": 48, "duration": 1, "velocity": 64}, {"time": 222, "pitch": 48, "duration": 1, "velocity": 64}, {"time": 192, "pitch": 55, "duration": 2, "velocity": 64}, {"time": 240, "pitch": 57, "duration": 3, "velocity": 64}, {"time": 360, "pitch": 50, "duration": 2, "velocity": 64}, {"time": 270, "pitch": 59, "duration": 2, "velocity": 64}, {"time": 330, "pitch": 67, "duration": 3, "velocity": 64}, {"time": 264, "pitch": 64, "duration": 3, "velocity": 64}, {"time": 300, "pitch": 57, "duration": 3, "velocity": 64}, {"time": 384, "pitch": 55, "duration": 3, "velocity": 64}, {"time": 240, "pitch": 64, "duration": 2, "velocity": 64}, {"time": 414, "pitch": 48, "duration": 3, "velocity": 64}, {"time": 216, "pitch": 54, "duration": 1, "velocity": 64}, {"time": 408, "pitch": 69, "duration": 3, "velocity": 64}, {"time": 252, "pitch": 64, "duration": 3, "velocity": 64}, {"time": 408, "pitch": 60, "duration": 3, "velocity": 64}, {"time": 342, "pitch": 54, "duration": 3, "velocity": 64}, {"time": 240, "pitch": 55, "duration": 2, "velocity": 64}, {"time": 288, "pitch": 54, "duration": 2, "velocity": 64}, {"time": 360, "pitch": 64, "duration": 1, "velocity": 64}, {"time": 312, "pitch": 57, "duration": 2, "velocity": 64}, {"time": 390, "pitch": 52, "duration": 2, "velocity": 64}, {"time": 411, "pitch": 60, "duration": 3, "velocity": 64}, {"time": 255, "pitch": 52, "duration": 2, "velocity": 64}, {"time": 264, "pitch": 62, "duration": 1, "velocity": 64}, {"time": 258, "pitch": 64, "duration": 3, "velocity": 64}, {"time": 360, "pitch": 50, "duration": 1, "velocity": 64}, {"time": 282, "pitch": 59, "duration": 2, "velocity": 64}, {"time": 402, "pitch": 55, "duration": 1, "velocity": 64}, {"time": 264, "pitch": 55, "duration": 3, "velocity": 64}, {"time": 330, "pitch": 43, "duration": 2, "velocity": 64}, {"time": 288, "pitch": 55, "duration": 2, "velocity": 64}, {"time": 318, "pitch": 62, "duration": 3, "velocity": 64}, {"time": 342, "pitch": 54, "duration": 2, "velocity": 64}, {"time": 438, "pitch": 59, "duration": 3, "velocity": 64}, {"time": 420, "pitch": 55, "duration": 3, "velocity": 64}, {"time": 498, "pitch": 67, "duration": 1, "velocity": 64}, {"time": 462, "pitch": 62, "duration": 1, "velocity": 64}, {"time": 504, "pitch": 64, "duration": 6, "velocity": 64}, {"time": 516, "pitch": 64, "duration": 3, "velocity": 64}, {"time": 342, "pitch": 55, "duration": 2, "velocity": 64}, {"time": 438, "pitch": 60, "duration": 3, "velocity": 64}, {"time": 564, "pitch": 57, "duration": 1, "velocity": 64}, {"time": 360, "pitch": 62, "duration": 1, "velocity": 64}, {"time": 327, "pitch": 50, "duration": 3, "velocity": 64}, {"time": 291, "pitch": 52, "duration": 3, "velocity": 64}, {"time": 486, "pitch": 55, "duration": 2, "velocity": 64}, {"time": 420, "pitch": 66, "duration": 1, "velocity": 64}, {"time": 378, "pitch": 62, "duration": 1, "velocity": 64}, {"time": 546, "pitch": 62, "duration": 2, "velocity": 64}, {"time": 330, "pitch": 57, "duration": 2, "velocity": 64}, {"time": 462, "pitch": 62, "duration": 2, "velocity": 64}, {"time": 384, "pitch": 50, "duration": 3, "velocity": 64}, {"time": 588, "pitch": 48, "duration": 1, "velocity": 64}, {"time": 327, "pitch": 52, "duration": 1, "velocity": 64}, {"time": 408, "pitch": 67, "duration": 2, "velocity": 64}, {"time": 435, "pitch": 55, "duration": 1, "velocity": 64}, {"time": 546, "pitch": 59, "duration": 1, "velocity": 64}, {"time": 498, "pitch": 47, "duration": 1, "velocity": 64}, {"time": 516, "pitch": 52, "duration": 2, "velocity": 64}, {"time": 480, "pitch": 62, "duration": 2, "velocity": 64}, {"time": 402, "pitch": 69, "duration": 2, "velocity": 64}, {"time": 459, "pitch": 55, "duration": 3, "velocity": 64}, {"time": 420, "pitch": 57, "duration": 1, "velocity": 64}, {"time": 414, "pitch": 62, "duration": 1, "velocity": 64}, {"time": 570, "pitch": 66, "duration": 2, "velocity": 64}, {"time": 534, "pitch": 48, "duration": 1, "velocity": 64}, {"time": 447, "pitch": 52, "duration": 3, "velocity": 64}, {"time": 546, "pitch": 52, "duration": 2, "velocity": 64}, {"time": 570, "pitch": 47, "duration": 1, "velocity": 64}, {"time": 438, "pitch": 48, "duration": 2, "velocity": 64}, {"time": 570, "pitch": 62, "duration": 3, "velocity": 64}, {"time": 462, "pitch": 71, "duration": 2, "velocity": 64}, {"time": 414, "pitch": 62, "duration": 3, "velocity": 64}, {"time": 447, "pitch": 57, "duration": 3, "velocity": 64}, {"time": 468, "pitch": 43, "duration": 3, "velocity": 64}, {"time": 558, "pitch": 62, "duration": 3, "velocity": 64}, {"time": 393, "pitch": 62, "duration": 2, "velocity": 64}, {"time": 531, "pitch": 52, "duration": 2, "velocity": 64}, {"time": 477, "pitch": 60, "duration": 1, "velocity": 64}, {"time": 438, "pitch": 69, "duration": 2, "velocity": 64}, {"time": 450, "pitch": 57, "duration": 2, "velocity": 64}, {"time": 591, "pitch": 69, "duration": 1, "velocity": 64}, {"time": 456, "pitch": 47, "duration": 2, "velocity": 64}, {"time": 606, "pitch": 57, "duration": 3, "velocity": 64}, {"time": 444, "pitch": 53, "duration": 2, "velocity": 64}, {"time": 543, "pitch": 69, "duration": 3, "velocity": 64}, {"time": 540, "pitch": 55, "duration": 6, "velocity": 64}, {"time": 522, "pitch": 48, "duration": 2, "velocity": 64}, {"time": 432, "pitch": 55, "duration": 2, "velocity": 64}, {"time": 615, "pitch": 55, "duration": 1, "velocity": 64}, {"time": 576, "pitch": 50, "duration": 1, "velocity": 64}, {"time": 522, "pitch": 57, "duration": 1, "velocity": 64}, {"time": 624, "pitch": 51, "duration": 1, "velocity": 64}, {"time": 582, "pitch": 60, "duration": 6, "velocity": 64}, {"time": 468, "pitch": 50, "duration": 2, "velocity": 64}, {"time": 528, "pitch": 67, "duration": 2, "velocity": 64}, {"time": 528, "pitch": 60, "duration": 2, "velocity": 64}, {"time": 444, "pitch": 57, "duration": 1, "velocity": 64}, {"time": 684, "pitch": 55, "duration": 2, "velocity": 64}, {"time": 630, "pitch": 57, "duration": 1, "velocity": 64}, {"time": 486, "pitch": 54, "duration": 1, "velocity": 64}, {"time": 570, "pitch": 52, "duration": 2, "velocity": 64}, {"time": 612, "pitch": 67, "duration": 1, "velocity": 64}, {"time": 546, "pitch": 62, "duration": 2, "velocity": 64}, {"time": 480, "pitch": 62, "duration": 2, "velocity": 64}, {"time": 498, "pitch": 57, "duration": 3, "velocity": 64}, {"time": 492, "pitch": 62, "duration": 2, "velocity": 64}, {"time": 492, "pitch": 60, "duration": 2, "velocity": 64}, {"time": 630, "pitch": 59, "duration": 3, "velocity": 64}, {"time": 450, "pitch": 60, "duration": 2, "velocity": 64}, {"time": 630, "pitch": 55, "duration": 2, "velocity": 64}, {"time": 552, "pitch": 60, "duration": 2, "velocity": 64}, {"time": 462, "pitch": 57, "duration": 1, "velocity": 64}, {"time": 558, "pitch": 50, "duration": 3, "velocity": 64}, {"time": 666, "pitch": 50, "duration": 2, "velocity": 64}, {"time": 552, "pitch": 50, "duration": 2, "velocity": 64}, {"time": 588, "pitch": 66, "duration": 1, "velocity": 64}, {"time": 690, "pitch": 59, "duration": 2, "velocity": 64}, {"time": 582, "pitch": 57, "duration": 1, "velocity": 64}, {"time": 618, "pitch": 52, "duration": 2, "velocity": 64}, {"time": 588, "pitch": 67, "duration": 2, "velocity": 64}, {"time": 750, "pitch": 67, "duration": 2, "velocity": 64}, {"time": 498, "pitch": 55, "duration": 2, "velocity": 64}, {"time": 708, "pitch": 62, "duration": 6, "velocity": 64}, {"time": 600, "pitch": 64, "duration": 2, "velocity": 64}, {"time": 675, "pitch": 47, "duration": 3, "velocity": 64}, {"time": 654, "pitch": 47, "duration": 1, "velocity": 64}, {"time": 618, "pitch": 48, "duration": 6, "velocity": 64}, {"time": 510, "pitch": 52, "duration": 3, "velocity": 64}, {"time": 510, "pitch": 64, "duration": 1, "velocity": 64}, {"time": 603, "pitch": 52, "duration": 2, "velocity": 64}, {"time": 710, "pitch": 54, "duration": 1, "velocity": 64}, {"time": 543, "pitch": 64, "duration": 1, "velocity": 64}, {"time": 618, "pitch": 47, "duration": 1, "velocity": 64}, {"time": 738, "pitch": 60, "duration": 2, "velocity": 64}, {"time": 500, "pitch": 50, "duration": 3, "velocity": 64}, {"time": 591, "pitch": 52, "duration": 6, "velocity": 64}, {"time": 480, "pitch": 60, "duration": 2, "velocity": 64}, {"time": 492, "pitch": 52, "duration": 3, "velocity": 64}, {"time": 579, "pitch": 57, "duration": 2, "velocity": 64}, {"time": 471, "pitch": 57, "duration": 2, "velocity": 64}, {"time": 746, "pitch": 48, "duration": 3, "velocity": 64}, {"time": 606, "pitch": 57, "duration": 2, "velocity": 64}, {"time": 636, "pitch": 59, "duration": 1, "velocity": 64}, {"time": 558, "pitch": 47, "duration": 1, "velocity": 64}, {"time": 687, "pitch": 59, "duration": 3, "velocity": 64}, {"time": 624, "pitch": 64, "duration": 1, "velocity": 64}, {"time": 636, "pitch": 48, "duration": 3, "velocity": 64}, {"time": 639, "pitch": 48, "duration": 2, "velocity": 64}, {"time": 756, "pitch": 47, "duration": 2, "velocity": 64}, {"time": 603, "pitch": 67, "duration": 2, "velocity": 64}, {"time": 638, "pitch": 55, "duration": 6, "velocity": 64}, {"time": 495, "pitch": 67, "duration": 1, "velocity": 64}, {"time": 672, "pitch": 66, "duration": 6, "velocity": 64}, {"time": 834, "pitch": 52, "duration": 1, "velocity": 64}, {"time": 750, "pitch": 48, "duration": 1, "velocity": 64}, {"time": 591, "pitch": 62, "duration": 1, "velocity": 64}, {"time": 627, "pitch": 57, "duration": 1, "velocity": 64}, {"time": 756, "pitch": 47, "duration": 3, "velocity": 64}, {"time": 642, "pitch": 47, "duration": 1, "velocity": 64}, {"time": 759, "pitch": 47, "duration": 2, "velocity": 64}, {"time": 636, "pitch": 60, "duration": 1, "velocity": 64}, {"time": 564, "pitch": 47, "duration": 2, "velocity": 64}, {"time": 542, "pitch": 67, "duration": 2, "velocity": 64}, {"time": 672, "pitch": 57, "duration": 2, "velocity": 64}, {"time": 600, "pitch": 59, "duration": 2, "velocity": 64}, {"time": 675, "pitch": 48, "duration": 3, "velocity": 64}, {"time": 714, "pitch": 57, "duration": 3, "velocity": 64}, {"time": 786, "pitch": 55, "duration": 1, "velocity": 64}, {"time": 828, "pitch": 52, "duration": 1, "velocity": 64}, {"time": 708, "pitch": 64, "duration": 3, "velocity": 64}, {"time": 771, "pitch": 48, "duration": 3, "velocity": 64}, {"time": 681, "pitch": 47, "duration": 6, "velocity": 64}, {"time": 699, "pitch": 66, "duration": 1, "velocity": 64}, {"time": 738, "pitch": 54, "duration": 3, "velocity": 64}, {"time": 741, "pitch": 54, "duration": 1, "velocity": 64}, {"time": 645, "pitch": 55, "duration": 1, "velocity": 64}, {"time": 786, "pitch": 57, "duration": 1, "velocity": 64}, {"time": 726, "pitch": 45, "duration": 2, "velocity": 64}, {"time": 579, "pitch": 60, "duration": 1, "velocity": 64}, {"time": 564, "pitch": 62, "duration": 2, "velocity": 64}, {"time": 714, "pitch": 59, "duration": 2, "velocity": 64}, {"time": 840, "pitch": 60, "duration": 2, "velocity": 64}]}]}