{"metadata": {"schema_version": "0.2"}, "resolution": 12, "tempos": [{"time": 0, "qpm": 100.0}], "tracks": [{"program": 6, "is_drum": false, "notes": [{"time": 0, "pitch": 55, "duration": 3, "velocity": 64}, {"time": 3, "pitch": 54, "duration": 3, "velocity": 64}, {"time": 6, "pitch": 55, "duration": 3, "velocity": 64}, {"time": 9, "pitch": 57, "duration": 3, "velocity": 64}, {"time": 12, "pitch": 58, "duration": 3, "velocity": 64}, {"time": 15, "pitch": 60, "duration": 3, "velocity": 64}, {"time": 18, "pitch": 62, "duration": 3, "velocity": 64}, {"time": 21, "pitch": 63, "duration": 3, "velocity": 64}, {"time": 24, "pitch": 62, "duration": 3, "velocity": 64}, {"time": 27, "pitch": 60, "duration": 3, "velocity": 64}, {"time": 30, "pitch": 58, "duration": 3, "velocity": 64}, {"time": 33, "pitch": 55, "duration": 3, "velocity": 64}, {"time": 36, "pitch": 60, "duration": 3, "velocity": 64}, {"time": 39, "pitch": 57, "duration": 3, "velocity": 64}, {"time": 42, "pitch": 62, "duration": 6, "velocity": 64}, {"time": 48, "pitch": 50, "duration": 6, "velocity": 64}, {"time": 54, "pitch": 55, "duration": 3, "velocity": 64}, {"time": 57, "pitch": 50, "duration": 3, "velocity": 64}, {"time": 60, "pitch": 55, "duration": 3, "velocity": 64}, {"time": 63, "pitch": 54, "duration": 3, "velocity": 64}, {"time": 66, "pitch": 55, "duration": 3, "velocity": 64}, {"time": 69, "pitch": 57, "duration": 3, "velocity": 64}, {"time": 72, "pitch": 58, "duration": 2, "velocity": 64}, {"time": 74, "pitch": 60, "duration": 1, "velocity": 64}, {"time": 75, "pitch": 62, "duration": 1, "velocity": 64}, {"time": 76, "pitch": 60, "duration": 2, "velocity": 64}, {"time": 78, "pitch": 58, "duration": 2, "velocity": 64}, {"time": 80, "pitch": 60, "duration": 1, "velocity": 64}, {"time": 81, "pitch": 57, "duration": 1, "velocity": 64}, {"time": 82, "pitch": 58, "duration": 2, "velocity": 64}, {"time": 84, "pitch": 55, "duration": 2, "velocity": 64}, {"time": 86, "pitch": 57, "duration": 1, "velocity": 64}, {"time": 87, "pitch": 53, "duration": 1, "velocity": 64}, {"time": 88, "pitch": 55, "duration": 2, "velocity": 64}, {"time": 90, "pitch": 51, "duration": 6, "velocity": 64}, {"time": 96, "pitch": 63, "duration": 6, "velocity": 64}, {"time": 108, "pitch": 57, "duration": 2, "velocity": 64}, {"time": 110, "pitch": 58, "duration": 1, "velocity": 64}, {"time": 111, "pitch": 60, "duration": 1, "velocity": 64}, {"time": 112, "pitch": 58, "duration": 2, "velocity": 64}, {"time": 114, "pitch": 57, "duration": 2, "velocity": 64}, {"time": 116, "pitch": 58, "duration": 1, "velocity": 64}, {"time": 117, "pitch": 55, "duration": 1, "velocity": 64}, {"time": 118, "pitch": 57, "duration": 2, "velocity": 64}, {"time": 120, "pitch": 53, "duration": 2, "velocity": 64}, {"time": 122, "pitch": 55, "duration": 1, "velocity": 64}, {"time": 123, "pitch": 51, "duration": 1, "velocity": 64}, {"time": 124, "pitch": 53, "duration": 2, "velocity": 64}, {"time": 126, "pitch": 50, "duration": 6, "velocity": 64}, {"time": 132, "pitch": 62, "duration": 6, "velocity": 64}, {"time": 144, "pitch": 55, "duration": 2, "velocity": 64}, {"time": 146, "pitch": 57, "duration": 1, "velocity": 64}, {"time": 147, "pitch": 58, "duration": 1, "velocity": 64}, {"time": 148, "pitch": 57, "duration": 2, "velocity": 64}, {"time": 150, "pitch": 55, "duration": 2, "velocity": 64}, {"time": 152, "pitch": 57, "duration": 1, "velocity": 64}, {"time": 153, "pitch": 53, "duration": 1, "velocity": 64}, {"time": 154, "pitch": 55, "duration": 2, "velocity": 64}, {"time": 156, "pitch": 51, "duration": 2, "velocity": 64}, {"time": 158, "pitch": 53, "duration": 1, "velocity": 64}, {"time": 159, "pitch": 50, "duration": 1, "velocity": 64}, {"time": 160, "pitch": 51, "duration": 2, "velocity": 64}, {"time": 162, "pitch": 48, "duration": 6, "velocity": 64}, {"time": 168, "pitch": 60, "duration": 6, "velocity": 64}, {"time": 180, "pitch": 53, "duration": 2, "velocity": 64}, {"time": 182, "pitch": 55, "duration": 1, "velocity": 64}, {"time": 183, "pitch": 57, "duration": 1, "velocity": 64}, {"time": 184, "pitch": 55, "duration": 2, "velocity": 64}, {"time": 186, "pitch": 53, "duration": 2, "velocity": 64}, {"time": 188, "pitch": 55, "duration": 1, "velocity": 64}, {"time": 189, "pitch": 51, "duration": 1, "velocity": 64}, {"time": 190, "pitch": 53, "duration": 2, "velocity": 64}, {"time": 192, "pitch": 50, "duration": 2, "velocity": 64}, {"time": 194, "pitch": 51, "duration": 1, "velocity": 64}, {"time": 195, "pitch": 48, "duration": 1, "velocity": 64}, {"time": 196, "pitch": 50, "duration": 2, "velocity": 64}, {"time": 198, "pitch": 46, "duration": 6, "velocity": 64}, {"time": 204, "pitch": 58, "duration": 6, "velocity": 64}, {"time": 216, "pitch": 51, "duration": 2, "velocity": 64}, {"time": 218, "pitch": 53, "duration": 1, "velocity": 64}, {"time": 219, "pitch": 55, "duration": 1, "velocity": 64}, {"time": 220, "pitch": 53, "duration": 2, "velocity": 64}, {"time": 222, "pitch": 51, "duration": 2, "velocity": 64}, {"time": 224, "pitch": 53, "duration": 1, "velocity": 64}, {"time": 225, "pitch": 50, "duration": 1, "velocity": 64}, {"time": 226, "pitch": 51, "duration": 2, "velocity": 64}, {"time": 228, "pitch": 48, "duration": 2, "velocity": 64}, {"time": 230, "pitch": 50, "duration": 1, "velocity": 64}, {"time": 231, "pitch": 46, "duration": 1, "velocity": 64}, {"time": 232, "pitch": 48, "duration": 2, "velocity": 64}, {"time": 234, "pitch": 45, "duration": 6, "velocity": 64}, {"time": 240, "pitch": 57, "duration": 6, "velocity": 64}, {"time": 252, "pitch": 50, "duration": 6, "velocity": 64}, {"time": 258, "pitch": 46, "duration": 6, "velocity": 64}, {"time": 264, "pitch": 43, "duration": 6, "velocity": 64}, {"time": 270, "pitch": 50, "duration": 6, "velocity": 64}, {"time": 276, "pitch": 54, "duration": 6, "velocity": 64}, {"time": 282, "pitch": 50, "duration": 6, "velocity": 64}, {"time": 288, "pitch": 55, "duration": 6, "velocity": 64}, {"time": 294, "pitch": 58, "duration": 6, "velocity": 64}, {"time": 300, "pitch": 60, "duration": 6, "velocity": 64}, {"time": 306, "pitch": 53, "duration": 6, "velocity": 64}, {"time": 312, "pitch": 57, "duration": 6, "velocity": 64}, {"time": 318, "pitch": 58, "duration": 6, "velocity": 64}, {"time": 324, "pitch": 52, "duration": 6, "velocity": 64}, {"time": 330, "pitch": 55, "duration": 6, "velocity": 64}, {"time": 336, "pitch": 57, "duration": 6, "velocity": 64}, {"time": 342, "pitch": 50, "duration": 6, "velocity": 64}, {"time": 348, "pitch": 52, "duration": 6, "velocity": 64}, {"time": 354, "pitch": 53, "duration": 6, "velocity": 64}, {"time": 360, "pitch": 55, "duration": 6, "velocity": 64}, {"time": 366, "pitch": 58, "duration": 6, "velocity": 64}, {"time": 372, "pitch": 55, "duration": 6, "velocity": 64}, {"time": 378, "pitch": 45, "duration": 3, "velocity": 64}, {"time": 381, "pitch": 57, "duration": 1, "velocity": 64}, {"time": 382, "pitch": 55, "duration": 2, "velocity": 64}, {"time": 384, "pitch": 53, "duration": 2, "velocity": 64}, {"time": 386, "pitch": 55, "duration": 1, "velocity": 64}, {"time": 387, "pitch": 52, "duration": 1, "velocity": 64}, {"time": 388, "pitch": 53, "duration": 2, "velocity": 64}, {"time": 390, "pitch": 50, "duration": 2, "velocity": 64}, {"time": 392, "pitch": 52, "duration": 1, "velocity": 64}, {"time": 393, "pitch": 48, "duration": 1, "velocity": 64}, {"time": 394, "pitch": 50, "duration": 2, "velocity": 64}, {"time": 396, "pitch": 46, "duration": 3, "velocity": 64}, {"time": 399, "pitch": 58, "duration": 1, "velocity": 64}, {"time": 400, "pitch": 57, "duration": 2, "velocity": 64}, {"time": 402, "pitch": 55, "duration": 2, "velocity": 64}, {"time": 404, "pitch": 57, "duration": 1, "velocity": 64}, {"time": 405, "pitch": 53, "duration": 1, "velocity": 64}, {"time": 406, "pitch": 55, "duration": 2, "velocity": 64}, {"time": 408, "pitch": 52, "duration": 2, "velocity": 64}, {"time": 410, "pitch": 53, "duration": 1, "velocity": 64}, {"time": 411, "pitch": 50, "duration": 1, "velocity": 64}, {"time": 412, "pitch": 52, "duration": 2, "velocity": 64}, {"time": 414, "pitch": 49, "duration": 6, "velocity": 64}, {"time": 420, "pitch": 61, "duration": 6, "velocity": 64}, {"time": 426, "pitch": 62, "duration": 6, "velocity": 64}, {"time": 432, "pitch": 55, "duration": 6, "velocity": 64}, {"time": 438, "pitch": 57, "duration": 6, "velocity": 64}, {"time": 444, "pitch": 45, "duration": 6, "velocity": 64}, {"time": 450, "pitch": 50, "duration": 3, "velocity": 64}, {"time": 453, "pitch": 57, "duration": 1, "velocity": 64}, {"time": 454, "pitch": 55, "duration": 2, "velocity": 64}, {"time": 456, "pitch": 53, "duration": 2, "velocity": 64}, {"time": 458, "pitch": 55, "duration": 1, "velocity": 64}, {"time": 459, "pitch": 52, "duration": 1, "velocity": 64}, {"time": 460, "pitch": 53, "duration": 2, "velocity": 64}, {"time": 462, "pitch": 50, "duration": 2, "velocity": 64}, {"time": 464, "pitch": 52, "duration": 1, "velocity": 64}, {"time": 465, "pitch": 48, "duration": 1, "velocity": 64}, {"time": 466, "pitch": 50, "duration": 2, "velocity": 64}, {"time": 468, "pitch": 46, "duration": 3, "velocity": 64}, {"time": 471, "pitch": 58, "duration": 1, "velocity": 64}, {"time": 472, "pitch": 57, "duration": 2, "velocity": 64}, {"time": 474, "pitch": 55, "duration": 2, "velocity": 64}, {"time": 476, "pitch": 57, "duration": 1, "velocity": 64}, {"time": 477, "pitch": 53, "duration": 1, "velocity": 64}, {"time": 478, "pitch": 55, "duration": 2, "velocity": 64}, {"time": 480, "pitch": 52, "duration": 2, "velocity": 64}, {"time": 482, "pitch": 53, "duration": 1, "velocity": 64}, {"time": 483, "pitch": 50, "duration": 1, "velocity": 64}, {"time": 484, "pitch": 52, "duration": 2, "velocity": 64}, {"time": 486, "pitch": 49, "duration": 6, "velocity": 64}, {"time": 492, "pitch": 45, "duration": 6, "velocity": 64}, {"time": 498, "pitch": 50, "duration": 6, "velocity": 64}, {"time": 504, "pitch": 43, "duration": 6, "velocity": 64}, {"time": 510, "pitch": 45, "duration": 12, "velocity": 64}, {"time": 522, "pitch": 50, "duration": 3, "velocity": 64}, {"time": 525, "pitch": 51, "duration": 3, "velocity": 64}, {"time": 528, "pitch": 50, "duration": 3, "velocity": 64}, {"time": 531, "pitch": 48, "duration": 3, "velocity": 64}, {"time": 534, "pitch": 46, "duration": 3, "velocity": 64}, {"time": 537, "pitch": 45, "duration": 3, "velocity": 64}, {"time": 540, "pitch": 46, "duration": 3, "velocity": 64}, {"time": 543, "pitch": 45, "duration": 3, "velocity": 64}, {"time": 546, "pitch": 46, "duration": 3, "velocity": 64}, {"time": 549, "pitch": 48, "duration": 3, "velocity": 64}, {"time": 552, "pitch": 50, "duration": 3, "velocity": 64}, {"time": 555, "pitch": 51, "duration": 3, "velocity": 64}, {"time": 558, "pitch": 53, "duration": 3, "velocity": 64}, {"time": 561, "pitch": 55, "duration": 3, "velocity": 64}, {"time": 564, "pitch": 53, "duration": 3, "velocity": 64}, {"time": 567, "pitch": 51, "duration": 3, "velocity": 64}, {"time": 570, "pitch": 50, "duration": 3, "velocity": 64}, {"time": 573, "pitch": 46, "duration": 3, "velocity": 64}, {"time": 576, "pitch": 51, "duration": 3, "velocity": 64}, {"time": 579, "pitch": 48, "duration": 3, "velocity": 64}, {"time": 582, "pitch": 53, "duration": 3, "velocity": 64}, {"time": 585, "pitch": 51, "duration": 3, "velocity": 64}, {"time": 588, "pitch": 53, "duration": 3, "velocity": 64}, {"time": 591, "pitch": 41, "duration": 3, "velocity": 64}, {"time": 594, "pitch": 46, "duration": 3, "velocity": 64}, {"time": 597, "pitch": 57, "duration": 3, "velocity": 64}, {"time": 600, "pitch": 58, "duration": 3, "velocity": 64}, {"time": 603, "pitch": 60, "duration": 3, "velocity": 64}, {"time": 606, "pitch": 62, "duration": 3, "velocity": 64}, {"time": 609, "pitch": 60, "duration": 3, "velocity": 64}, {"time": 612, "pitch": 58, "duration": 3, "velocity": 64}, {"time": 615, "pitch": 55, "duration": 3, "velocity": 64}, {"time": 618, "pitch": 60, "duration": 3, "velocity": 64}, {"time": 621, "pitch": 58, "duration": 3, "velocity": 64}, {"time": 624, "pitch": 60, "duration": 3, "velocity": 64}, {"time": 627, "pitch": 48, "duration": 3, "velocity": 64}, {"time": 630, "pitch": 53, "duration": 3, "velocity": 64}, {"time": 633, "pitch": 52, "duration": 3, "velocity": 64}, {"time": 636, "pitch": 53, "duration": 3, "velocity": 64}, {"time": 639, "pitch": 55, "duration": 3, "velocity": 64}, {"time": 642, "pitch": 57, "duration": 3, "velocity": 64}, {"time": 645, "pitch": 53, "duration": 3, "velocity": 64}, {"time": 648, "pitch": 62, "duration": 2, "velocity": 64}, {"time": 650, "pitch": 63, "duration": 1, "velocity": 64}, {"time": 651, "pitch": 65, "duration": 1, "velocity": 64}, {"time": 652, "pitch": 63, "duration": 2, "velocity": 64}, {"time": 654, "pitch": 62, "duration": 2, "velocity": 64}, {"time": 656, "pitch": 63, "duration": 1, "velocity": 64}, {"time": 657, "pitch": 60, "duration": 1, "velocity": 64}, {"time": 658, "pitch": 62, "duration": 2, "velocity": 64}, {"time": 660, "pitch": 59, "duration": 2, "velocity": 64}, {"time": 662, "pitch": 60, "duration": 1, "velocity": 64}, {"time": 663, "pitch": 57, "duration": 1, "velocity": 64}, {"time": 664, "pitch": 59, "duration": 2, "velocity": 64}, {"time": 666, "pitch": 55, "duration": 3, "velocity": 64}, {"time": 669, "pitch": 57, "duration": 3, "velocity": 64}, {"time": 672, "pitch": 59, "duration": 3, "velocity": 64}, {"time": 675, "pitch": 55, "duration": 3, "velocity": 64}, {"time": 678, "pitch": 60, "duration": 6, "velocity": 64}, {"time": 684, "pitch": 53, "duration": 6, "velocity": 64}, {"time": 690, "pitch": 55, "duration": 6, "velocity": 64}, {"time": 696, "pitch": 43, "duration": 6, "velocity": 64}, {"time": 702, "pitch": 60, "duration": 2, "velocity": 64}, {"time": 704, "pitch": 62, "duration": 1, "velocity": 64}, {"time": 705, "pitch": 63, "duration": 1, "velocity": 64}, {"time": 706, "pitch": 62, "duration": 2, "velocity": 64}, {"time": 708, "pitch": 60, "duration": 2, "velocity": 64}, {"time": 710, "pitch": 62, "duration": 1, "velocity": 64}, {"time": 711, "pitch": 58, "duration": 1, "velocity": 64}, {"time": 712, "pitch": 60, "duration": 2, "velocity": 64}, {"time": 714, "pitch": 57, "duration": 2, "velocity": 64}, {"time": 716, "pitch": 58, "duration": 1, "velocity": 64}, {"time": 717, "pitch": 55, "duration": 1, "velocity": 64}, {"time": 718, "pitch": 57, "duration": 2, "velocity": 64}, {"time": 720, "pitch": 53, "duration": 3, "velocity": 64}, {"time": 723, "pitch": 55, "duration": 3, "velocity": 64}, {"time": 726, "pitch": 57, "duration": 3, "velocity": 64}, {"time": 729, "pitch": 53, "duration": 3, "velocity": 64}, {"time": 732, "pitch": 55, "duration": 6, "velocity": 64}, {"time": 738, "pitch": 50, "duration": 3, "velocity": 64}, {"time": 741, "pitch": 51, "duration": 3, "velocity": 64}, {"time": 744, "pitch": 53, "duration": 6, "velocity": 64}, {"time": 750, "pitch": 41, "duration": 6, "velocity": 64}, {"time": 756, "pitch": 46, "duration": 6, "velocity": 64}, {"time": 762, "pitch": 43, "duration": 6, "velocity": 64}, {"time": 768, "pitch": 46, "duration": 6, "velocity": 64}, {"time": 774, "pitch": 48, "duration": 6, "velocity": 64}, {"time": 780, "pitch": 45, "duration": 6, "velocity": 64}, {"time": 786, "pitch": 48, "duration": 6, "velocity": 64}, {"time": 792, "pitch": 50, "duration": 6, "velocity": 64}, {"time": 798, "pitch": 46, "duration": 6, "velocity": 64}, {"time": 804, "pitch": 43, "duration": 6, "velocity": 64}, {"time": 810, "pitch": 51, "duration": 6, "velocity": 64}, {"time": 816, "pitch": 55, "duration": 6, "velocity": 64}, {"time": 822, "pitch": 51, "duration": 6, "velocity": 64}, {"time": 828, "pitch": 48, "duration": 6, "velocity": 64}, {"time": 834, "pitch": 45, "duration": 6, "velocity": 64}, {"time": 840, "pitch": 48, "duration": 6, "velocity": 64}, {"time": 846, "pitch": 50, "duration": 6, "velocity": 64}, {"time": 852, "pitch": 54, "duration": 6, "velocity": 64}, {"time": 858, "pitch": 50, "duration": 6, "velocity": 64}, {"time": 864, "pitch": 55, "duration": 6, "velocity": 64}, {"time": 870, "pitch": 53, "duration": 6, "velocity": 64}, {"time": 876, "pitch": 51, "duration": 6, "velocity": 64}, {"time": 882, "pitch": 50, "duration": 6, "velocity": 64}, {"time": 888, "pitch": 52, "duration": 6, "velocity": 64}, {"time": 894, "pitch": 54, "duration": 6, "velocity": 64}, {"time": 900, "pitch": 55, "duration": 6, "velocity": 64}, {"time": 906, "pitch": 53, "duration": 6, "velocity": 64}, {"time": 912, "pitch": 51, "duration": 6, "velocity": 64}, {"time": 918, "pitch": 50, "duration": 3, "velocity": 64}, {"time": 921, "pitch": 62, "duration": 1, "velocity": 64}, {"time": 922, "pitch": 60, "duration": 2, "velocity": 64}, {"time": 924, "pitch": 58, "duration": 2, "velocity": 64}, {"time": 926, "pitch": 60, "duration": 1, "velocity": 64}, {"time": 927, "pitch": 57, "duration": 1, "velocity": 64}, {"time": 928, "pitch": 58, "duration": 2, "velocity": 64}, {"time": 930, "pitch": 55, "duration": 2, "velocity": 64}, {"time": 932, "pitch": 57, "duration": 1, "velocity": 64}, {"time": 933, "pitch": 53, "duration": 1, "velocity": 64}, {"time": 934, "pitch": 55, "duration": 2, "velocity": 64}, {"time": 936, "pitch": 51, "duration": 3, "velocity": 64}, {"time": 939, "pitch": 63, "duration": 1, "velocity": 64}, {"time": 940, "pitch": 62, "duration": 2, "velocity": 64}, {"time": 942, "pitch": 60, "duration": 2, "velocity": 64}, {"time": 944, "pitch": 62, "duration": 1, "velocity": 64}, {"time": 945, "pitch": 58, "duration": 1, "velocity": 64}, {"time": 946, "pitch": 60, "duration": 2, "velocity": 64}, {"time": 948, "pitch": 57, "duration": 2, "velocity": 64}, {"time": 950, "pitch": 58, "duration": 1, "velocity": 64}, {"time": 951, "pitch": 55, "duration": 1, "velocity": 64}, {"time": 952, "pitch": 57, "duration": 2, "velocity": 64}, {"time": 954, "pitch": 54, "duration": 6, "velocity": 64}, {"time": 960, "pitch": 50, "duration": 6, "velocity": 64}, {"time": 966, "pitch": 55, "duration": 6, "velocity": 64}, {"time": 972, "pitch": 48, "duration": 6, "velocity": 64}, {"time": 978, "pitch": 50, "duration": 6, "velocity": 64}, {"time": 984, "pitch": 38, "duration": 6, "velocity": 64}, {"time": 990, "pitch": 43, "duration": 3, "velocity": 64}, {"time": 993, "pitch": 50, "duration": 1, "velocity": 64}, {"time": 994, "pitch": 48, "duration": 2, "velocity": 64}, {"time": 996, "pitch": 46, "duration": 2, "velocity": 64}, {"time": 998, "pitch": 48, "duration": 1, "velocity": 64}, {"time": 999, "pitch": 45, "duration": 1, "velocity": 64}, {"time": 1000, "pitch": 46, "duration": 2, "velocity": 64}, {"time": 1002, "pitch": 43, "duration": 2, "velocity": 64}, {"time": 1004, "pitch": 45, "duration": 1, "velocity": 64}, {"time": 1005, "pitch": 41, "duration": 1, "velocity": 64}, {"time": 1006, "pitch": 43, "duration": 2, "velocity": 64}, {"time": 1008, "pitch": 39, "duration": 3, "velocity": 64}, {"time": 1011, "pitch": 51, "duration": 1, "velocity": 64}, {"time": 1012, "pitch": 50, "duration": 2, "velocity": 64}, {"time": 1014, "pitch": 48, "duration": 2, "velocity": 64}, {"time": 1016, "pitch": 50, "duration": 1, "velocity": 64}, {"time": 1017, "pitch": 46, "duration": 1, "velocity": 64}, {"time": 1018, "pitch": 48, "duration": 2, "velocity": 64}, {"time": 1020, "pitch": 45, "duration": 2, "velocity": 64}, {"time": 1022, "pitch": 46, "duration": 1, "velocity": 64}, {"time": 1023, "pitch": 43, "duration": 1, "velocity": 64}, {"time": 1024, "pitch": 45, "duration": 2, "velocity": 64}, {"time": 1026, "pitch": 42, "duration": 6, "velocity": 64}, {"time": 1032, "pitch": 50, "duration": 6, "velocity": 64}, {"time": 1038, "pitch": 51, "duration": 6, "velocity": 64}, {"time": 1044, "pitch": 48, "duration": 6, "velocity": 64}, {"time": 1050, "pitch": 50, "duration": 6, "velocity": 64}, {"time": 1056, "pitch": 38, "duration": 6, "velocity": 64}, {"time": 1062, "pitch": 43, "duration": 18, "velocity": 64}]}]}