{"metadata": {"schema_version": "0.2"}, "resolution": 12, "tempos": [{"time": 0, "qpm": 100.0}], "tracks": [{"program": 74, "is_drum": false, "notes": [{"time": 0, "pitch": 57, "duration": 2, "velocity": 64}, {"time": 6, "pitch": 65, "duration": 6, "velocity": 64}, {"time": 18, "pitch": 50, "duration": 2, "velocity": 64}, {"time": 18, "pitch": 67, "duration": 2, "velocity": 64}, {"time": 12, "pitch": 48, "duration": 3, "velocity": 64}, {"time": 0, "pitch": 65, "duration": 5, "velocity": 64}, {"time": 12, "pitch": 65, "duration": 1, "velocity": 64}, {"time": 66, "pitch": 72, "duration": 2, "velocity": 64}, {"time": 54, "pitch": 52, "duration": 3, "velocity": 64}, {"time": 42, "pitch": 74, "duration": 2, "velocity": 64}, {"time": 30, "pitch": 65, "duration": 3, "velocity": 64}, {"time": 246, "pitch": 52, "duration": 3, "velocity": 64}, {"time": 60, "pitch": 76, "duration": 1, "velocity": 64}, {"time": 36, "pitch": 53, "duration": 3, "velocity": 64}, {"time": 36, "pitch": 69, "duration": 2, "velocity": 64}, {"time": 72, "pitch": 55, "duration": 5, "velocity": 64}, {"time": 24, "pitch": 52, "duration": 1, "velocity": 64}, {"time": 39, "pitch": 77, "duration": 1, "velocity": 64}, {"time": 39, "pitch": 72, "duration": 1, "velocity": 64}, {"time": 48, "pitch": 72, "duration": 1, "velocity": 64}, {"time": 72, "pitch": 77, "duration": 3, "velocity": 64}, {"time": 66, "pitch": 72, "duration": 2, "velocity": 64}, {"time": 36, "pitch": 77, "duration": 2, "velocity": 64}, {"time": 84, "pitch": 65, "duration": 3, "velocity": 64}, {"time": 54, "pitch": 48, "duration": 3, "velocity": 64}, {"time": 96, "pitch": 60, "duration": 3, "velocity": 64}, {"time": 102, "pitch": 65, "duration": 3, "velocity": 64}, {"time": 72, "pitch": 53, "duration": 2, "velocity": 64}, {"time": 144, "pitch": 53, "duration": 1, "velocity": 64}, {"time": 108, "pitch": 74, "duration": 2, "velocity": 64}, {"time": 126, "pitch": 48, "duration": 5, "velocity": 64}, {"time": 120, "pitch": 77, "duration": 3, "velocity": 64}, {"time": 84, "pitch": 72, "duration": 2, "velocity": 64}, {"time": 78, "pitch": 48, "duration": 3, "velocity": 64}, {"time": 120, "pitch": 76, "duration": 3, "velocity": 64}, {"time": 114, "pitch": 53, "duration": 3, "velocity": 64}, {"time": 144, "pitch": 48, "duration": 2, "velocity": 64}, {"time": 138, "pitch": 60, "duration": 3, "velocity": 64}, {"time": 84, "pitch": 74, "duration": 3, "velocity": 64}, {"time": 132, "pitch": 77, "duration": 2, "velocity": 64}, {"time": 132, "pitch": 77, "duration": 2, "velocity": 64}, {"time": 234, "pitch": 77, "duration": 1, "velocity": 64}, {"time": 84, "pitch": 71, "duration": 1, "velocity": 64}, {"time": 243, "pitch": 79, "duration": 3, "velocity": 64}, {"time": 114, "pitch": 60, "duration": 2, "velocity": 64}, {"time": 207, "pitch": 52, "duration": 3, "velocity": 64}, {"time": 102, "pitch": 60, "duration": 2, "velocity": 64}, {"time": 123, "pitch": 69, "duration": 1, "velocity": 64}, {"time": 72, "pitch": 48, "duration": 3, "velocity": 64}, {"time": 216, "pitch": 69, "duration": 3, "velocity": 64}, {"time": 156, "pitch": 79, "duration": 2, "velocity": 64}, {"time": 132, "pitch": 67, "duration": 3, "velocity": 64}, {"time": 204, "pitch": 53, "duration": 2, "velocity": 64}, {"time": 114, "pitch": 60, "duration": 3, "velocity": 64}, {"time": 186, "pitch": 67, "duration": 2, "velocity": 64}, {"time": 150, "pitch": 76, "duration": 3, "velocity": 64}, {"time": 288, "pitch": 67, "duration": 3, "velocity": 64}, {"time": 186, "pitch": 72, "duration": 3, "velocity": 64}, {"time": 168, "pitch": 72, "duration": 1, "velocity": 64}, {"time": 168, "pitch": 77, "duration": 2, "velocity": 64}, {"time": 192, "pitch": 48, "duration": 1, "velocity": 64}, {"time": 168, "pitch": 79, "duration": 3, "velocity": 64}, {"time": 234, "pitch": 77, "duration": 1, "velocity": 64}, {"time": 258, "pitch": 65, "duration": 3, "velocity": 64}, {"time": 294, "pitch": 67, "duration": 1, "velocity": 64}, {"time": 228, "pitch": 50, "duration": 2, "velocity": 64}, {"time": 258, "pitch": 55, "duration": 3, "velocity": 64}, {"time": 291, "pitch": 69, "duration": 3, "velocity": 64}, {"time": 192, "pitch": 67, "duration": 3, "velocity": 64}, {"time": 240, "pitch": 79, "duration": 3, "velocity": 64}, {"time": 300, "pitch": 74, "duration": 3, "velocity": 64}, {"time": 324, "pitch": 72, "duration": 3, "velocity": 64}, {"time": 336, "pitch": 72, "duration": 5, "velocity": 64}, {"time": 381, "pitch": 76, "duration": 2, "velocity": 64}, {"time": 402, "pitch": 60, "duration": 3, "velocity": 64}, {"time": 306, "pitch": 72, "duration": 3, "velocity": 64}, {"time": 276, "pitch": 76, "duration": 1, "velocity": 64}, {"time": 216, "pitch": 67, "duration": 3, "velocity": 64}, {"time": 234, "pitch": 74, "duration": 1, "velocity": 64}, {"time": 306, "pitch": 67, "duration": 3, "velocity": 64}, {"time": 450, "pitch": 77, "duration": 2, "velocity": 64}, {"time": 294, "pitch": 60, "duration": 3, "velocity": 64}, {"time": 312, "pitch": 67, "duration": 1, "velocity": 64}, {"time": 312, "pitch": 60, "duration": 1, "velocity": 64}, {"time": 267, "pitch": 76, "duration": 2, "velocity": 64}, {"time": 315, "pitch": 72, "duration": 5, "velocity": 64}, {"time": 240, "pitch": 64, "duration": 3, "velocity": 64}, {"time": 255, "pitch": 71, "duration": 1, "velocity": 64}, {"time": 318, "pitch": 72, "duration": 1, "velocity": 64}, {"time": 378, "pitch": 74, "duration": 3, "velocity": 64}, {"time": 474, "pitch": 74, "duration": 3, "velocity": 64}, {"time": 351, "pitch": 74, "duration": 3, "velocity": 64}, {"time": 432, "pitch": 74, "duration": 3, "velocity": 64}, {"time": 552, "pitch": 67, "duration": 3, "velocity": 64}, {"time": 498, "pitch": 64, "duration": 3, "velocity": 64}, {"time": 342, "pitch": 64, "duration": 3, "velocity": 64}, {"time": 546, "pitch": 72, "duration": 3, "velocity": 64}, {"time": 279, "pitch": 62, "duration": 2, "velocity": 64}, {"time": 330, "pitch": 60, "duration": 1, "velocity": 64}, {"time": 366, "pitch": 69, "duration": 1, "velocity": 64}, {"time": 507, "pitch": 60, "duration": 5, "velocity": 64}, {"time": 495, "pitch": 72, "duration": 5, "velocity": 64}, {"time": 348, "pitch": 67, "duration": 1, "velocity": 64}, {"time": 315, "pitch": 64, "duration": 1, "velocity": 64}, {"time": 303, "pitch": 72, "duration": 3, "velocity": 64}, {"time": 522, "pitch": 64, "duration": 3, "velocity": 64}, {"time": 423, "pitch": 74, "duration": 3, "velocity": 64}, {"time": 411, "pitch": 69, "duration": 3, "velocity": 64}, {"time": 471, "pitch": 69, "duration": 3, "velocity": 64}, {"time": 498, "pitch": 71, "duration": 3, "velocity": 64}, {"time": 552, "pitch": 77, "duration": 3, "velocity": 64}, {"time": 459, "pitch": 79, "duration": 3, "velocity": 64}, {"time": 498, "pitch": 65, "duration": 3, "velocity": 64}, {"time": 534, "pitch": 71, "duration": 3, "velocity": 64}, {"time": 483, "pitch": 69, "duration": 3, "velocity": 64}, {"time": 606, "pitch": 71, "duration": 2, "velocity": 64}, {"time": 591, "pitch": 64, "duration": 1, "velocity": 64}, {"time": 450, "pitch": 69, "duration": 1, "velocity": 64}, {"time": 387, "pitch": 69, "duration": 1, "velocity": 64}, {"time": 510, "pitch": 53, "duration": 2, "velocity": 64}, {"time": 387, "pitch": 69, "duration": 3, "velocity": 64}, {"time": 618, "pitch": 74, "duration": 3, "velocity": 64}, {"time": 552, "pitch": 64, "duration": 5, "velocity": 64}, {"time": 438, "pitch": 71, "duration": 3, "velocity": 64}, {"time": 630, "pitch": 71, "duration": 3, "velocity": 64}, {"time": 588, "pitch": 69, "duration": 1, "velocity": 64}, {"time": 486, "pitch": 72, "duration": 3, "velocity": 64}, {"time": 369, "pitch": 71, "duration": 3, "velocity": 64}, {"time": 411, "pitch": 72, "duration": 1, "velocity": 64}, {"time": 618, "pitch": 69, "duration": 3, "velocity": 64}, {"time": 594, "pitch": 74, "duration": 2, "velocity": 64}, {"time": 492, "pitch": 72, "duration": 1, "velocity": 64}, {"time": 354, "pitch": 77, "duration": 1, "velocity": 64}, {"time": 570, "pitch": 69, "duration": 5, "velocity": 64}, {"time": 438, "pitch": 76, "duration": 1, "velocity": 64}, {"time": 399, "pitch": 62, "duration": 2, "velocity": 64}, {"time": 519, "pitch": 76, "duration": 1, "velocity": 64}, {"time": 552, "pitch": 67, "duration": 3, "velocity": 64}, {"time": 387, "pitch": 69, "duration": 1, "velocity": 64}, {"time": 591, "pitch": 74, "duration": 1, "velocity": 64}, {"time": 543, "pitch": 79, "duration": 3, "velocity": 64}, {"time": 435, "pitch": 65, "duration": 3, "velocity": 64}, {"time": 657, "pitch": 65, "duration": 3, "velocity": 64}, {"time": 615, "pitch": 69, "duration": 3, "velocity": 64}, {"time": 429, "pitch": 74, "duration": 2, "velocity": 64}, {"time": 714, "pitch": 74, "duration": 1, "velocity": 64}, {"time": 435, "pitch": 64, "duration": 3, "velocity": 64}, {"time": 450, "pitch": 60, "duration": 2, "velocity": 64}, {"time": 594, "pitch": 72, "duration": 3, "velocity": 64}, {"time": 594, "pitch": 71, "duration": 5, "velocity": 64}, {"time": 387, "pitch": 74, "duration": 1, "velocity": 64}, {"time": 702, "pitch": 69, "duration": 3, "velocity": 64}, {"time": 510, "pitch": 77, "duration": 3, "velocity": 64}, {"time": 540, "pitch": 74, "duration": 3, "velocity": 64}, {"time": 444, "pitch": 71, "duration": 3, "velocity": 64}, {"time": 654, "pitch": 69, "duration": 1, "velocity": 64}, {"time": 627, "pitch": 60, "duration": 1, "velocity": 64}, {"time": 540, "pitch": 72, "duration": 3, "velocity": 64}, {"time": 492, "pitch": 65, "duration": 3, "velocity": 64}, {"time": 606, "pitch": 74, "duration": 1, "velocity": 64}, {"time": 498, "pitch": 76, "duration": 3, "velocity": 64}, {"time": 750, "pitch": 72, "duration": 3, "velocity": 64}, {"time": 486, "pitch": 70, "duration": 1, "velocity": 64}, {"time": 699, "pitch": 74, "duration": 3, "velocity": 64}, {"time": 522, "pitch": 70, "duration": 1, "velocity": 64}, {"time": 660, "pitch": 74, "duration": 3, "velocity": 64}, {"time": 552, "pitch": 64, "duration": 5, "velocity": 64}, {"time": 606, "pitch": 77, "duration": 3, "velocity": 64}, {"time": 531, "pitch": 71, "duration": 3, "velocity": 64}, {"time": 744, "pitch": 76, "duration": 3, "velocity": 64}, {"time": 477, "pitch": 74, "duration": 3, "velocity": 64}, {"time": 582, "pitch": 64, "duration": 1, "velocity": 64}, {"time": 639, "pitch": 74, "duration": 3, "velocity": 64}, {"time": 531, "pitch": 69, "duration": 1, "velocity": 64}, {"time": 555, "pitch": 77, "duration": 3, "velocity": 64}, {"time": 798, "pitch": 76, "duration": 3, "velocity": 64}, {"time": 558, "pitch": 67, "duration": 1, "velocity": 64}, {"time": 834, "pitch": 74, "duration": 1, "velocity": 64}, {"time": 834, "pitch": 81, "duration": 3, "velocity": 64}, {"time": 786, "pitch": 64, "duration": 3, "velocity": 64}, {"time": 738, "pitch": 72, "duration": 3, "velocity": 64}, {"time": 627, "pitch": 67, "duration": 3, "velocity": 64}, {"time": 810, "pitch": 81, "duration": 3, "velocity": 64}, {"time": 747, "pitch": 64, "duration": 1, "velocity": 64}, {"time": 615, "pitch": 72, "duration": 3, "velocity": 64}, {"time": 534, "pitch": 67, "duration": 3, "velocity": 64}, {"time": 579, "pitch": 60, "duration": 2, "velocity": 64}, {"time": 738, "pitch": 74, "duration": 3, "velocity": 64}, {"time": 843, "pitch": 71, "duration": 3, "velocity": 64}, {"time": 843, "pitch": 79, "duration": 1, "velocity": 64}, {"time": 738, "pitch": 74, "duration": 3, "velocity": 64}, {"time": 522, "pitch": 65, "duration": 1, "velocity": 64}, {"time": 687, "pitch": 79, "duration": 3, "velocity": 64}, {"time": 594, "pitch": 69, "duration": 1, "velocity": 64}]}]}