{"metadata": {"schema_version": "0.2"}, "resolution": 12, "tempos": [{"time": 0, "qpm": 100.0}], "tracks": [{"program": 74, "is_drum": false, "notes": [{"time": 0, "pitch": 69, "duration": 3, "velocity": 64}, {"time": 0, "pitch": 55, "duration": 12, "velocity": 64}, {"time": 0, "pitch": 62, "duration": 6, "velocity": 64}, {"time": 66, "pitch": 67, "duration": 3, "velocity": 64}, {"time": 36, "pitch": 72, "duration": 12, "velocity": 64}, {"time": 48, "pitch": 76, "duration": 12, "velocity": 64}, {"time": 90, "pitch": 59, "duration": 12, "velocity": 64}, {"time": 66, "pitch": 57, "duration": 12, "velocity": 64}, {"time": 108, "pitch": 62, "duration": 3, "velocity": 64}, {"time": 72, "pitch": 64, "duration": 12, "velocity": 64}, {"time": 108, "pitch": 52, "duration": 12, "velocity": 64}, {"time": 132, "pitch": 67, "duration": 6, "velocity": 64}, {"time": 180, "pitch": 67, "duration": 6, "velocity": 64}, {"time": 96, "pitch": 67, "duration": 6, "velocity": 64}, {"time": 276, "pitch": 52, "duration": 12, "velocity": 64}, {"time": 156, "pitch": 67, "duration": 12, "velocity": 64}, {"time": 150, "pitch": 67, "duration": 18, "velocity": 64}, {"time": 84, "pitch": 55, "duration": 3, "velocity": 64}, {"time": 192, "pitch": 69, "duration": 6, "velocity": 64}, {"time": 204, "pitch": 55, "duration": 6, "velocity": 64}, {"time": 216, "pitch": 60, "duration": 6, "velocity": 64}, {"time": 186, "pitch": 67, "duration": 12, "velocity": 64}, {"time": 162, "pitch": 60, "duration": 12, "velocity": 64}, {"time": 342, "pitch": 57, "duration": 12, "velocity": 64}, {"time": 468, "pitch": 67, "duration": 6, "velocity": 64}, {"time": 438, "pitch": 60, "duration": 6, "velocity": 64}, {"time": 318, "pitch": 69, "duration": 12, "velocity": 64}, {"time": 198, "pitch": 67, "duration": 6, "velocity": 64}, {"time": 240, "pitch": 59, "duration": 6, "velocity": 64}, {"time": 282, "pitch": 64, "duration": 6, "velocity": 64}, {"time": 342, "pitch": 55, "duration": 6, "velocity": 64}, {"time": 402, "pitch": 67, "duration": 12, "velocity": 64}, {"time": 312, "pitch": 60, "duration": 12, "velocity": 64}, {"time": 318, "pitch": 59, "duration": 6, "velocity": 64}, {"time": 444, "pitch": 74, "duration": 6, "velocity": 64}, {"time": 444, "pitch": 55, "duration": 24, "velocity": 64}, {"time": 534, "pitch": 72, "duration": 6, "velocity": 64}, {"time": 384, "pitch": 59, "duration": 12, "velocity": 64}, {"time": 546, "pitch": 55, "duration": 12, "velocity": 64}, {"time": 366, "pitch": 52, "duration": 6, "velocity": 64}, {"time": 468, "pitch": 69, "duration": 12, "velocity": 64}, {"time": 408, "pitch": 60, "duration": 3, "velocity": 64}, {"time": 306, "pitch": 72, "duration": 6, "velocity": 64}, {"time": 348, "pitch": 71, "duration": 12, "velocity": 64}, {"time": 480, "pitch": 55, "duration": 6, "velocity": 64}, {"time": 474, "pitch": 67, "duration": 6, "velocity": 64}, {"time": 468, "pitch": 52, "duration": 6, "velocity": 64}, {"time": 534, "pitch": 69, "duration": 6, "velocity": 64}, {"time": 510, "pitch": 52, "duration": 6, "velocity": 64}, {"time": 522, "pitch": 72, "duration": 12, "velocity": 64}, {"time": 480, "pitch": 67, "duration": 6, "velocity": 64}, {"time": 552, "pitch": 62, "duration": 24, "velocity": 64}, {"time": 504, "pitch": 76, "duration": 6, "velocity": 64}, {"time": 582, "pitch": 59, "duration": 6, "velocity": 64}, {"time": 600, "pitch": 62, "duration": 12, "velocity": 64}, {"time": 468, "pitch": 55, "duration": 12, "velocity": 64}, {"time": 564, "pitch": 59, "duration": 6, "velocity": 64}, {"time": 456, "pitch": 69, "duration": 6, "velocity": 64}, {"time": 636, "pitch": 55, "duration": 3, "velocity": 64}, {"time": 636, "pitch": 52, "duration": 6, "velocity": 64}, {"time": 672, "pitch": 60, "duration": 3, "velocity": 64}, {"time": 582, "pitch": 50, "duration": 3, "velocity": 64}, {"time": 582, "pitch": 69, "duration": 6, "velocity": 64}, {"time": 504, "pitch": 62, "duration": 6, "velocity": 64}, {"time": 504, "pitch": 67, "duration": 6, "velocity": 64}, {"time": 588, "pitch": 67, "duration": 6, "velocity": 64}, {"time": 522, "pitch": 67, "duration": 6, "velocity": 64}, {"time": 636, "pitch": 64, "duration": 6, "velocity": 64}, {"time": 582, "pitch": 62, "duration": 6, "velocity": 64}, {"time": 618, "pitch": 62, "duration": 6, "velocity": 64}, {"time": 732, "pitch": 72, "duration": 12, "velocity": 64}, {"time": 678, "pitch": 72, "duration": 12, "velocity": 64}, {"time": 738, "pitch": 62, "duration": 6, "velocity": 64}, {"time": 666, "pitch": 74, "duration": 12, "velocity": 64}, {"time": 816, "pitch": 57, "duration": 6, "velocity": 64}, {"time": 612, "pitch": 60, "duration": 6, "velocity": 64}, {"time": 618, "pitch": 59, "duration": 3, "velocity": 64}, {"time": 816, "pitch": 57, "duration": 24, "velocity": 64}, {"time": 726, "pitch": 60, "duration": 3, "velocity": 64}, {"time": 768, "pitch": 60, "duration": 12, "velocity": 64}, {"time": 624, "pitch": 62, "duration": 6, "velocity": 64}, {"time": 672, "pitch": 43, "duration": 3, "velocity": 64}, {"time": 720, "pitch": 62, "duration": 6, "velocity": 64}]}]}