{"metadata": {"schema_version": "0.2"}, "resolution": 12, "tempos": [{"time": 0, "qpm": 100.0}], "tracks": [{"program": 6, "is_drum": false, "notes": [{"time": 0, "pitch": 43, "duration": 3, "velocity": 64}, {"time": 3, "pitch": 45, "duration": 3, "velocity": 64}, {"time": 6, "pitch": 46, "duration": 3, "velocity": 64}, {"time": 9, "pitch": 48, "duration": 3, "velocity": 64}, {"time": 12, "pitch": 50, "duration": 3, "velocity": 64}, {"time": 15, "pitch": 45, "duration": 3, "velocity": 64}, {"time": 18, "pitch": 50, "duration": 3, "velocity": 64}, {"time": 21, "pitch": 48, "duration": 3, "velocity": 64}, {"time": 24, "pitch": 46, "duration": 3, "velocity": 64}, {"time": 27, "pitch": 55, "duration": 3, "velocity": 64}, {"time": 30, "pitch": 54, "duration": 3, "velocity": 64}, {"time": 33, "pitch": 50, "duration": 3, "velocity": 64}, {"time": 36, "pitch": 55, "duration": 3, "velocity": 64}, {"time": 39, "pitch": 50, "duration": 3, "velocity": 64}, {"time": 42, "pitch": 43, "duration": 3, "velocity": 64}, {"time": 45, "pitch": 55, "duration": 3, "velocity": 64}, {"time": 48, "pitch": 54, "duration": 3, "velocity": 64}, {"time": 51, "pitch": 52, "duration": 3, "velocity": 64}, {"time": 54, "pitch": 54, "duration": 3, "velocity": 64}, {"time": 57, "pitch": 50, "duration": 3, "velocity": 64}, {"time": 60, "pitch": 55, "duration": 3, "velocity": 64}, {"time": 63, "pitch": 43, "duration": 3, "velocity": 64}, {"time": 66, "pitch": 55, "duration": 3, "velocity": 64}, {"time": 69, "pitch": 53, "duration": 3, "velocity": 64}, {"time": 72, "pitch": 52, "duration": 3, "velocity": 64}, {"time": 75, "pitch": 50, "duration": 3, "velocity": 64}, {"time": 78, "pitch": 52, "duration": 3, "velocity": 64}, {"time": 81, "pitch": 48, "duration": 3, "velocity": 64}, {"time": 84, "pitch": 53, "duration": 3, "velocity": 64}, {"time": 87, "pitch": 41, "duration": 3, "velocity": 64}, {"time": 90, "pitch": 53, "duration": 3, "velocity": 64}, {"time": 93, "pitch": 51, "duration": 3, "velocity": 64}, {"time": 96, "pitch": 50, "duration": 3, "velocity": 64}, {"time": 99, "pitch": 48, "duration": 3, "velocity": 64}, {"time": 102, "pitch": 50, "duration": 3, "velocity": 64}, {"time": 105, "pitch": 46, "duration": 3, "velocity": 64}, {"time": 108, "pitch": 51, "duration": 3, "velocity": 64}, {"time": 111, "pitch": 46, "duration": 3, "velocity": 64}, {"time": 114, "pitch": 51, "duration": 3, "velocity": 64}, {"time": 117, "pitch": 50, "duration": 3, "velocity": 64}, {"time": 120, "pitch": 48, "duration": 3, "velocity": 64}, {"time": 123, "pitch": 46, "duration": 3, "velocity": 64}, {"time": 126, "pitch": 48, "duration": 3, "velocity": 64}, {"time": 129, "pitch": 45, "duration": 3, "velocity": 64}, {"time": 132, "pitch": 50, "duration": 3, "velocity": 64}, {"time": 135, "pitch": 57, "duration": 3, "velocity": 64}, {"time": 138, "pitch": 62, "duration": 3, "velocity": 64}, {"time": 141, "pitch": 60, "duration": 3, "velocity": 64}, {"time": 144, "pitch": 58, "duration": 3, "velocity": 64}, {"time": 147, "pitch": 57, "duration": 3, "velocity": 64}, {"time": 150, "pitch": 58, "duration": 3, "velocity": 64}, {"time": 153, "pitch": 55, "duration": 3, "velocity": 64}, {"time": 156, "pitch": 60, "duration": 3, "velocity": 64}, {"time": 159, "pitch": 48, "duration": 3, "velocity": 64}, {"time": 162, "pitch": 60, "duration": 3, "velocity": 64}, {"time": 165, "pitch": 58, "duration": 3, "velocity": 64}, {"time": 168, "pitch": 57, "duration": 3, "velocity": 64}, {"time": 171, "pitch": 55, "duration": 3, "velocity": 64}, {"time": 174, "pitch": 57, "duration": 3, "velocity": 64}, {"time": 177, "pitch": 53, "duration": 3, "velocity": 64}, {"time": 180, "pitch": 58, "duration": 3, "velocity": 64}, {"time": 183, "pitch": 46, "duration": 3, "velocity": 64}, {"time": 186, "pitch": 58, "duration": 3, "velocity": 64}, {"time": 189, "pitch": 57, "duration": 3, "velocity": 64}, {"time": 192, "pitch": 55, "duration": 3, "velocity": 64}, {"time": 195, "pitch": 53, "duration": 3, "velocity": 64}, {"time": 198, "pitch": 52, "duration": 3, "velocity": 64}, {"time": 201, "pitch": 48, "duration": 3, "velocity": 64}, {"time": 204, "pitch": 53, "duration": 3, "velocity": 64}, {"time": 207, "pitch": 48, "duration": 3, "velocity": 64}, {"time": 210, "pitch": 53, "duration": 3, "velocity": 64}, {"time": 213, "pitch": 51, "duration": 3, "velocity": 64}, {"time": 216, "pitch": 50, "duration": 3, "velocity": 64}, {"time": 219, "pitch": 48, "duration": 3, "velocity": 64}, {"time": 222, "pitch": 50, "duration": 3, "velocity": 64}, {"time": 225, "pitch": 46, "duration": 3, "velocity": 64}, {"time": 228, "pitch": 51, "duration": 3, "velocity": 64}, {"time": 231, "pitch": 53, "duration": 3, "velocity": 64}, {"time": 234, "pitch": 55, "duration": 3, "velocity": 64}, {"time": 237, "pitch": 50, "duration": 3, "velocity": 64}, {"time": 240, "pitch": 51, "duration": 3, "velocity": 64}, {"time": 243, "pitch": 48, "duration": 3, "velocity": 64}, {"time": 246, "pitch": 53, "duration": 3, "velocity": 64}, {"time": 249, "pitch": 41, "duration": 3, "velocity": 64}, {"time": 252, "pitch": 46, "duration": 3, "velocity": 64}, {"time": 255, "pitch": 45, "duration": 3, "velocity": 64}, {"time": 258, "pitch": 46, "duration": 3, "velocity": 64}, {"time": 261, "pitch": 48, "duration": 3, "velocity": 64}, {"time": 264, "pitch": 50, "duration": 3, "velocity": 64}, {"time": 267, "pitch": 48, "duration": 3, "velocity": 64}, {"time": 270, "pitch": 50, "duration": 3, "velocity": 64}, {"time": 273, "pitch": 46, "duration": 3, "velocity": 64}, {"time": 276, "pitch": 51, "duration": 3, "velocity": 64}, {"time": 279, "pitch": 53, "duration": 3, "velocity": 64}, {"time": 282, "pitch": 55, "duration": 3, "velocity": 64}, {"time": 285, "pitch": 50, "duration": 3, "velocity": 64}, {"time": 288, "pitch": 51, "duration": 3, "velocity": 64}, {"time": 291, "pitch": 48, "duration": 3, "velocity": 64}, {"time": 294, "pitch": 53, "duration": 3, "velocity": 64}, {"time": 297, "pitch": 41, "duration": 3, "velocity": 64}, {"time": 300, "pitch": 46, "duration": 12, "velocity": 64}, {"time": 312, "pitch": 46, "duration": 3, "velocity": 64}, {"time": 315, "pitch": 58, "duration": 3, "velocity": 64}, {"time": 318, "pitch": 57, "duration": 3, "velocity": 64}, {"time": 321, "pitch": 53, "duration": 3, "velocity": 64}, {"time": 324, "pitch": 46, "duration": 3, "velocity": 64}, {"time": 327, "pitch": 58, "duration": 3, "velocity": 64}, {"time": 330, "pitch": 57, "duration": 3, "velocity": 64}, {"time": 333, "pitch": 53, "duration": 3, "velocity": 64}, {"time": 336, "pitch": 46, "duration": 3, "velocity": 64}, {"time": 339, "pitch": 58, "duration": 3, "velocity": 64}, {"time": 342, "pitch": 57, "duration": 3, "velocity": 64}, {"time": 345, "pitch": 53, "duration": 3, "velocity": 64}, {"time": 348, "pitch": 58, "duration": 3, "velocity": 64}, {"time": 351, "pitch": 46, "duration": 3, "velocity": 64}, {"time": 354, "pitch": 50, "duration": 3, "velocity": 64}, {"time": 357, "pitch": 46, "duration": 3, "velocity": 64}, {"time": 360, "pitch": 48, "duration": 3, "velocity": 64}, {"time": 363, "pitch": 60, "duration": 3, "velocity": 64}, {"time": 366, "pitch": 59, "duration": 3, "velocity": 64}, {"time": 369, "pitch": 55, "duration": 3, "velocity": 64}, {"time": 372, "pitch": 48, "duration": 3, "velocity": 64}, {"time": 375, "pitch": 60, "duration": 3, "velocity": 64}, {"time": 378, "pitch": 59, "duration": 3, "velocity": 64}, {"time": 381, "pitch": 55, "duration": 3, "velocity": 64}, {"time": 384, "pitch": 48, "duration": 3, "velocity": 64}, {"time": 387, "pitch": 60, "duration": 3, "velocity": 64}, {"time": 390, "pitch": 59, "duration": 3, "velocity": 64}, {"time": 393, "pitch": 55, "duration": 3, "velocity": 64}, {"time": 396, "pitch": 60, "duration": 3, "velocity": 64}, {"time": 399, "pitch": 48, "duration": 3, "velocity": 64}, {"time": 402, "pitch": 51, "duration": 3, "velocity": 64}, {"time": 405, "pitch": 48, "duration": 3, "velocity": 64}, {"time": 408, "pitch": 56, "duration": 3, "velocity": 64}, {"time": 411, "pitch": 55, "duration": 3, "velocity": 64}, {"time": 414, "pitch": 56, "duration": 3, "velocity": 64}, {"time": 417, "pitch": 53, "duration": 3, "velocity": 64}, {"time": 420, "pitch": 59, "duration": 3, "velocity": 64}, {"time": 423, "pitch": 55, "duration": 3, "velocity": 64}, {"time": 426, "pitch": 60, "duration": 3, "velocity": 64}, {"time": 429, "pitch": 53, "duration": 3, "velocity": 64}, {"time": 432, "pitch": 55, "duration": 3, "velocity": 64}, {"time": 435, "pitch": 53, "duration": 3, "velocity": 64}, {"time": 438, "pitch": 55, "duration": 3, "velocity": 64}, {"time": 441, "pitch": 43, "duration": 3, "velocity": 64}, {"time": 444, "pitch": 48, "duration": 3, "velocity": 64}, {"time": 447, "pitch": 55, "duration": 3, "velocity": 64}, {"time": 450, "pitch": 60, "duration": 3, "velocity": 64}, {"time": 453, "pitch": 58, "duration": 3, "velocity": 64}, {"time": 456, "pitch": 57, "duration": 3, "velocity": 64}, {"time": 459, "pitch": 55, "duration": 3, "velocity": 64}, {"time": 462, "pitch": 57, "duration": 3, "velocity": 64}, {"time": 465, "pitch": 53, "duration": 3, "velocity": 64}, {"time": 468, "pitch": 58, "duration": 3, "velocity": 64}, {"time": 471, "pitch": 60, "duration": 3, "velocity": 64}, {"time": 474, "pitch": 58, "duration": 3, "velocity": 64}, {"time": 477, "pitch": 57, "duration": 3, "velocity": 64}, {"time": 480, "pitch": 55, "duration": 3, "velocity": 64}, {"time": 483, "pitch": 57, "duration": 3, "velocity": 64}, {"time": 486, "pitch": 58, "duration": 3, "velocity": 64}, {"time": 489, "pitch": 55, "duration": 3, "velocity": 64}, {"time": 492, "pitch": 60, "duration": 3, "velocity": 64}, {"time": 495, "pitch": 62, "duration": 3, "velocity": 64}, {"time": 498, "pitch": 60, "duration": 3, "velocity": 64}, {"time": 501, "pitch": 58, "duration": 3, "velocity": 64}, {"time": 504, "pitch": 57, "duration": 3, "velocity": 64}, {"time": 507, "pitch": 58, "duration": 3, "velocity": 64}, {"time": 510, "pitch": 60, "duration": 3, "velocity": 64}, {"time": 513, "pitch": 57, "duration": 3, "velocity": 64}, {"time": 516, "pitch": 62, "duration": 3, "velocity": 64}, {"time": 519, "pitch": 57, "duration": 3, "velocity": 64}, {"time": 522, "pitch": 50, "duration": 3, "velocity": 64}, {"time": 525, "pitch": 52, "duration": 3, "velocity": 64}, {"time": 528, "pitch": 54, "duration": 3, "velocity": 64}, {"time": 531, "pitch": 52, "duration": 3, "velocity": 64}, {"time": 534, "pitch": 54, "duration": 3, "velocity": 64}, {"time": 537, "pitch": 50, "duration": 3, "velocity": 64}, {"time": 540, "pitch": 55, "duration": 3, "velocity": 64}, {"time": 543, "pitch": 54, "duration": 3, "velocity": 64}, {"time": 546, "pitch": 55, "duration": 3, "velocity": 64}, {"time": 549, "pitch": 57, "duration": 3, "velocity": 64}, {"time": 552, "pitch": 58, "duration": 3, "velocity": 64}, {"time": 555, "pitch": 55, "duration": 3, "velocity": 64}, {"time": 558, "pitch": 57, "duration": 3, "velocity": 64}, {"time": 561, "pitch": 58, "duration": 3, "velocity": 64}, {"time": 564, "pitch": 60, "duration": 3, "velocity": 64}, {"time": 567, "pitch": 48, "duration": 3, "velocity": 64}, {"time": 570, "pitch": 50, "duration": 3, "velocity": 64}, {"time": 573, "pitch": 62, "duration": 3, "velocity": 64}, {"time": 576, "pitch": 63, "duration": 3, "velocity": 64}, {"time": 579, "pitch": 62, "duration": 3, "velocity": 64}, {"time": 582, "pitch": 63, "duration": 3, "velocity": 64}, {"time": 585, "pitch": 51, "duration": 3, "velocity": 64}, {"time": 588, "pitch": 50, "duration": 3, "velocity": 64}, {"time": 591, "pitch": 52, "duration": 3, "velocity": 64}, {"time": 594, "pitch": 54, "duration": 3, "velocity": 64}, {"time": 597, "pitch": 50, "duration": 3, "velocity": 64}, {"time": 600, "pitch": 55, "duration": 3, "velocity": 64}, {"time": 603, "pitch": 57, "duration": 3, "velocity": 64}, {"time": 606, "pitch": 58, "duration": 3, "velocity": 64}, {"time": 609, "pitch": 60, "duration": 3, "velocity": 64}, {"time": 612, "pitch": 62, "duration": 3, "velocity": 64}, {"time": 615, "pitch": 57, "duration": 3, "velocity": 64}, {"time": 618, "pitch": 62, "duration": 3, "velocity": 64}, {"time": 621, "pitch": 60, "duration": 3, "velocity": 64}, {"time": 624, "pitch": 58, "duration": 3, "velocity": 64}, {"time": 627, "pitch": 55, "duration": 3, "velocity": 64}, {"time": 630, "pitch": 54, "duration": 3, "velocity": 64}, {"time": 633, "pitch": 50, "duration": 3, "velocity": 64}, {"time": 636, "pitch": 55, "duration": 3, "velocity": 64}, {"time": 639, "pitch": 43, "duration": 3, "velocity": 64}, {"time": 642, "pitch": 46, "duration": 3, "velocity": 64}, {"time": 645, "pitch": 50, "duration": 3, "velocity": 64}, {"time": 648, "pitch": 55, "duration": 3, "velocity": 64}, {"time": 651, "pitch": 43, "duration": 3, "velocity": 64}, {"time": 654, "pitch": 54, "duration": 3, "velocity": 64}, {"time": 657, "pitch": 50, "duration": 3, "velocity": 64}, {"time": 660, "pitch": 55, "duration": 3, "velocity": 64}, {"time": 663, "pitch": 43, "duration": 3, "velocity": 64}, {"time": 666, "pitch": 54, "duration": 3, "velocity": 64}, {"time": 669, "pitch": 50, "duration": 3, "velocity": 64}, {"time": 672, "pitch": 55, "duration": 3, "velocity": 64}, {"time": 675, "pitch": 58, "duration": 3, "velocity": 64}, {"time": 678, "pitch": 62, "duration": 3, "velocity": 64}, {"time": 681, "pitch": 50, "duration": 3, "velocity": 64}, {"time": 684, "pitch": 51, "duration": 3, "velocity": 64}, {"time": 687, "pitch": 53, "duration": 3, "velocity": 64}, {"time": 690, "pitch": 51, "duration": 3, "velocity": 64}, {"time": 693, "pitch": 50, "duration": 3, "velocity": 64}, {"time": 696, "pitch": 48, "duration": 3, "velocity": 64}, {"time": 699, "pitch": 55, "duration": 3, "velocity": 64}, {"time": 702, "pitch": 60, "duration": 3, "velocity": 64}, {"time": 705, "pitch": 57, "duration": 3, "velocity": 64}, {"time": 708, "pitch": 62, "duration": 3, "velocity": 64}, {"time": 711, "pitch": 50, "duration": 3, "velocity": 64}, {"time": 714, "pitch": 51, "duration": 3, "velocity": 64}, {"time": 717, "pitch": 48, "duration": 3, "velocity": 64}, {"time": 720, "pitch": 50, "duration": 3, "velocity": 64}, {"time": 723, "pitch": 48, "duration": 3, "velocity": 64}, {"time": 726, "pitch": 50, "duration": 3, "velocity": 64}, {"time": 729, "pitch": 38, "duration": 3, "velocity": 64}, {"time": 732, "pitch": 43, "duration": 3, "velocity": 64}, {"time": 735, "pitch": 45, "duration": 3, "velocity": 64}, {"time": 738, "pitch": 46, "duration": 3, "velocity": 64}, {"time": 741, "pitch": 43, "duration": 3, "velocity": 64}, {"time": 744, "pitch": 48, "duration": 3, "velocity": 64}, {"time": 747, "pitch": 50, "duration": 3, "velocity": 64}, {"time": 750, "pitch": 51, "duration": 3, "velocity": 64}, {"time": 753, "pitch": 48, "duration": 3, "velocity": 64}, {"time": 756, "pitch": 54, "duration": 3, "velocity": 64}, {"time": 759, "pitch": 50, "duration": 3, "velocity": 64}, {"time": 762, "pitch": 55, "duration": 3, "velocity": 64}, {"time": 765, "pitch": 48, "duration": 3, "velocity": 64}, {"time": 768, "pitch": 50, "duration": 3, "velocity": 64}, {"time": 771, "pitch": 48, "duration": 3, "velocity": 64}, {"time": 774, "pitch": 50, "duration": 3, "velocity": 64}, {"time": 777, "pitch": 38, "duration": 3, "velocity": 64}, {"time": 780, "pitch": 43, "duration": 12, "velocity": 64}]}]}