{"metadata": {"schema_version": "0.2"}, "resolution": 12, "tempos": [{"time": 0, "qpm": 100.0}], "tracks": [{"program": 74, "is_drum": false, "notes": [{"time": 0, "pitch": 62, "duration": 12, "velocity": 64}, {"time": 12, "pitch": 72, "duration": 3, "velocity": 64}, {"time": 18, "pitch": 74, "duration": 3, "velocity": 64}, {"time": 24, "pitch": 77, "duration": 8, "velocity": 64}, {"time": 21, "pitch": 76, "duration": 1, "velocity": 64}, {"time": 18, "pitch": 76, "duration": 3, "velocity": 64}, {"time": 57, "pitch": 76, "duration": 3, "velocity": 64}, {"time": 72, "pitch": 62, "duration": 3, "velocity": 64}, {"time": 84, "pitch": 72, "duration": 1, "velocity": 64}, {"time": 36, "pitch": 69, "duration": 2, "velocity": 64}, {"time": 54, "pitch": 50, "duration": 3, "velocity": 64}, {"time": 126, "pitch": 76, "duration": 3, "velocity": 64}, {"time": 93, "pitch": 74, "duration": 6, "velocity": 64}, {"time": 45, "pitch": 55, "duration": 2, "velocity": 64}, {"time": 90, "pitch": 60, "duration": 3, "velocity": 64}, {"time": 36, "pitch": 71, "duration": 3, "velocity": 64}, {"time": 30, "pitch": 72, "duration": 3, "velocity": 64}, {"time": 60, "pitch": 74, "duration": 2, "velocity": 64}, {"time": 72, "pitch": 67, "duration": 2, "velocity": 64}, {"time": 216, "pitch": 72, "duration": 3, "velocity": 64}, {"time": 60, "pitch": 74, "duration": 3, "velocity": 64}, {"time": 96, "pitch": 69, "duration": 6, "velocity": 64}, {"time": 126, "pitch": 77, "duration": 4, "velocity": 64}, {"time": 120, "pitch": 67, "duration": 3, "velocity": 64}, {"time": 66, "pitch": 64, "duration": 6, "velocity": 64}, {"time": 84, "pitch": 62, "duration": 3, "velocity": 64}, {"time": 204, "pitch": 53, "duration": 3, "velocity": 64}, {"time": 144, "pitch": 67, "duration": 3, "velocity": 64}, {"time": 156, "pitch": 64, "duration": 3, "velocity": 64}, {"time": 333, "pitch": 69, "duration": 3, "velocity": 64}, {"time": 84, "pitch": 67, "duration": 3, "velocity": 64}, {"time": 120, "pitch": 79, "duration": 3, "velocity": 64}, {"time": 150, "pitch": 74, "duration": 3, "velocity": 64}, {"time": 162, "pitch": 65, "duration": 2, "velocity": 64}, {"time": 192, "pitch": 79, "duration": 6, "velocity": 64}, {"time": 126, "pitch": 69, "duration": 3, "velocity": 64}, {"time": 132, "pitch": 69, "duration": 3, "velocity": 64}, {"time": 144, "pitch": 65, "duration": 3, "velocity": 64}, {"time": 348, "pitch": 65, "duration": 6, "velocity": 64}, {"time": 120, "pitch": 67, "duration": 3, "velocity": 64}, {"time": 132, "pitch": 69, "duration": 3, "velocity": 64}, {"time": 180, "pitch": 69, "duration": 1, "velocity": 64}, {"time": 174, "pitch": 72, "duration": 6, "velocity": 64}, {"time": 156, "pitch": 70, "duration": 2, "velocity": 64}, {"time": 258, "pitch": 65, "duration": 3, "velocity": 64}, {"time": 294, "pitch": 64, "duration": 3, "velocity": 64}, {"time": 210, "pitch": 65, "duration": 3, "velocity": 64}, {"time": 246, "pitch": 72, "duration": 6, "velocity": 64}, {"time": 240, "pitch": 65, "duration": 2, "velocity": 64}, {"time": 174, "pitch": 60, "duration": 3, "velocity": 64}, {"time": 216, "pitch": 74, "duration": 2, "velocity": 64}, {"time": 174, "pitch": 62, "duration": 3, "velocity": 64}, {"time": 252, "pitch": 62, "duration": 3, "velocity": 64}, {"time": 198, "pitch": 62, "duration": 1, "velocity": 64}, {"time": 198, "pitch": 74, "duration": 1, "velocity": 64}, {"time": 441, "pitch": 72, "duration": 1, "velocity": 64}, {"time": 267, "pitch": 64, "duration": 3, "velocity": 64}, {"time": 216, "pitch": 69, "duration": 2, "velocity": 64}, {"time": 216, "pitch": 53, "duration": 6, "velocity": 64}, {"time": 252, "pitch": 65, "duration": 6, "velocity": 64}, {"time": 219, "pitch": 60, "duration": 6, "velocity": 64}, {"time": 348, "pitch": 67, "duration": 3, "velocity": 64}, {"time": 264, "pitch": 70, "duration": 3, "velocity": 64}, {"time": 351, "pitch": 67, "duration": 1, "velocity": 64}, {"time": 351, "pitch": 60, "duration": 3, "velocity": 64}, {"time": 288, "pitch": 77, "duration": 1, "velocity": 64}, {"time": 228, "pitch": 55, "duration": 2, "velocity": 64}, {"time": 255, "pitch": 60, "duration": 3, "velocity": 64}, {"time": 291, "pitch": 64, "duration": 3, "velocity": 64}, {"time": 291, "pitch": 67, "duration": 6, "velocity": 64}, {"time": 267, "pitch": 72, "duration": 6, "velocity": 64}, {"time": 267, "pitch": 72, "duration": 1, "velocity": 64}, {"time": 396, "pitch": 62, "duration": 3, "velocity": 64}, {"time": 483, "pitch": 69, "duration": 3, "velocity": 64}, {"time": 264, "pitch": 67, "duration": 3, "velocity": 64}, {"time": 264, "pitch": 77, "duration": 6, "velocity": 64}, {"time": 360, "pitch": 67, "duration": 4, "velocity": 64}, {"time": 339, "pitch": 67, "duration": 3, "velocity": 64}, {"time": 285, "pitch": 55, "duration": 3, "velocity": 64}, {"time": 300, "pitch": 74, "duration": 3, "velocity": 64}, {"time": 411, "pitch": 72, "duration": 3, "velocity": 64}, {"time": 483, "pitch": 64, "duration": 3, "velocity": 64}, {"time": 315, "pitch": 70, "duration": 3, "velocity": 64}, {"time": 333, "pitch": 74, "duration": 1, "velocity": 64}, {"time": 348, "pitch": 74, "duration": 3, "velocity": 64}, {"time": 267, "pitch": 62, "duration": 3, "velocity": 64}, {"time": 285, "pitch": 72, "duration": 3, "velocity": 64}, {"time": 471, "pitch": 69, "duration": 3, "velocity": 64}, {"time": 387, "pitch": 65, "duration": 1, "velocity": 64}, {"time": 531, "pitch": 74, "duration": 3, "velocity": 64}, {"time": 351, "pitch": 69, "duration": 1, "velocity": 64}, {"time": 381, "pitch": 55, "duration": 3, "velocity": 64}, {"time": 471, "pitch": 67, "duration": 3, "velocity": 64}, {"time": 408, "pitch": 60, "duration": 3, "velocity": 64}, {"time": 408, "pitch": 60, "duration": 3, "velocity": 64}, {"time": 435, "pitch": 79, "duration": 3, "velocity": 64}, {"time": 447, "pitch": 72, "duration": 6, "velocity": 64}, {"time": 456, "pitch": 77, "duration": 2, "velocity": 64}, {"time": 336, "pitch": 69, "duration": 6, "velocity": 64}, {"time": 291, "pitch": 69, "duration": 2, "velocity": 64}, {"time": 576, "pitch": 69, "duration": 2, "velocity": 64}, {"time": 408, "pitch": 77, "duration": 6, "velocity": 64}, {"time": 423, "pitch": 64, "duration": 3, "velocity": 64}, {"time": 336, "pitch": 79, "duration": 3, "velocity": 64}, {"time": 480, "pitch": 69, "duration": 3, "velocity": 64}, {"time": 411, "pitch": 62, "duration": 6, "velocity": 64}, {"time": 372, "pitch": 79, "duration": 3, "velocity": 64}, {"time": 555, "pitch": 60, "duration": 3, "velocity": 64}, {"time": 456, "pitch": 76, "duration": 3, "velocity": 64}, {"time": 372, "pitch": 64, "duration": 1, "velocity": 64}, {"time": 531, "pitch": 69, "duration": 2, "velocity": 64}, {"time": 372, "pitch": 67, "duration": 2, "velocity": 64}, {"time": 615, "pitch": 74, "duration": 3, "velocity": 64}, {"time": 567, "pitch": 69, "duration": 6, "velocity": 64}, {"time": 495, "pitch": 69, "duration": 3, "velocity": 64}, {"time": 372, "pitch": 77, "duration": 2, "velocity": 64}, {"time": 474, "pitch": 69, "duration": 3, "velocity": 64}, {"time": 495, "pitch": 67, "duration": 3, "velocity": 64}, {"time": 615, "pitch": 62, "duration": 3, "velocity": 64}, {"time": 480, "pitch": 64, "duration": 3, "velocity": 64}, {"time": 591, "pitch": 53, "duration": 1, "velocity": 64}, {"time": 627, "pitch": 65, "duration": 3, "velocity": 64}, {"time": 450, "pitch": 76, "duration": 3, "velocity": 64}, {"time": 648, "pitch": 70, "duration": 3, "velocity": 64}, {"time": 372, "pitch": 69, "duration": 2, "velocity": 64}, {"time": 612, "pitch": 53, "duration": 3, "velocity": 64}, {"time": 555, "pitch": 62, "duration": 6, "velocity": 64}, {"time": 588, "pitch": 65, "duration": 1, "velocity": 64}, {"time": 576, "pitch": 60, "duration": 3, "velocity": 64}, {"time": 519, "pitch": 65, "duration": 3, "velocity": 64}, {"time": 483, "pitch": 70, "duration": 3, "velocity": 64}, {"time": 522, "pitch": 69, "duration": 6, "velocity": 64}, {"time": 507, "pitch": 69, "duration": 3, "velocity": 64}, {"time": 660, "pitch": 77, "duration": 6, "velocity": 64}, {"time": 483, "pitch": 79, "duration": 1, "velocity": 64}, {"time": 528, "pitch": 62, "duration": 2, "velocity": 64}]}]}