{"metadata": {"schema_version": "0.2"}, "resolution": 12, "tempos": [{"time": 0, "qpm": 100.0}], "tracks": [{"program": 6, "is_drum": false, "notes": [{"time": 0, "pitch": 55, "duration": 3, "velocity": 64}, {"time": 3, "pitch": 57, "duration": 3, "velocity": 64}, {"time": 6, "pitch": 58, "duration": 3, "velocity": 64}, {"time": 9, "pitch": 55, "duration": 3, "velocity": 64}, {"time": 12, "pitch": 60, "duration": 3, "velocity": 64}, {"time": 15, "pitch": 57, "duration": 3, "velocity": 64}, {"time": 18, "pitch": 62, "duration": 3, "velocity": 64}, {"time": 21, "pitch": 50, "duration": 3, "velocity": 64}, {"time": 24, "pitch": 55, "duration": 3, "velocity": 64}, {"time": 27, "pitch": 58, "duration": 3, "velocity": 64}, {"time": 30, "pitch": 57, "duration": 3, "velocity": 64}, {"time": 33, "pitch": 55, "duration": 3, "velocity": 64}, {"time": 36, "pitch": 50, "duration": 3, "velocity": 64}, {"time": 39, "pitch": 52, "duration": 3, "velocity": 64}, {"time": 42, "pitch": 54, "duration": 3, "velocity": 64}, {"time": 45, "pitch": 50, "duration": 3, "velocity": 64}, {"time": 48, "pitch": 55, "duration": 3, "velocity": 64}, {"time": 51, "pitch": 58, "duration": 3, "velocity": 64}, {"time": 54, "pitch": 57, "duration": 3, "velocity": 64}, {"time": 57, "pitch": 53, "duration": 3, "velocity": 64}, {"time": 60, "pitch": 58, "duration": 3, "velocity": 64}, {"time": 63, "pitch": 46, "duration": 3, "velocity": 64}, {"time": 69, "pitch": 57, "duration": 3, "velocity": 64}, {"time": 72, "pitch": 55, "duration": 3, "velocity": 64}, {"time": 75, "pitch": 43, "duration": 3, "velocity": 64}, {"time": 81, "pitch": 53, "duration": 3, "velocity": 64}, {"time": 84, "pitch": 51, "duration": 3, "velocity": 64}, {"time": 87, "pitch": 39, "duration": 3, "velocity": 64}, {"time": 90, "pitch": 38, "duration": 3, "velocity": 64}, {"time": 93, "pitch": 50, "duration": 3, "velocity": 64}, {"time": 96, "pitch": 51, "duration": 3, "velocity": 64}, {"time": 99, "pitch": 46, "duration": 3, "velocity": 64}, {"time": 102, "pitch": 53, "duration": 3, "velocity": 64}, {"time": 105, "pitch": 41, "duration": 3, "velocity": 64}, {"time": 108, "pitch": 46, "duration": 3, "velocity": 64}, {"time": 111, "pitch": 50, "duration": 2, "velocity": 64}, {"time": 113, "pitch": 48, "duration": 1, "velocity": 64}, {"time": 114, "pitch": 46, "duration": 3, "velocity": 64}, {"time": 117, "pitch": 45, "duration": 3, "velocity": 64}, {"time": 120, "pitch": 43, "duration": 3, "velocity": 64}, {"time": 123, "pitch": 55, "duration": 3, "velocity": 64}, {"time": 126, "pitch": 58, "duration": 3, "velocity": 64}, {"time": 129, "pitch": 55, "duration": 3, "velocity": 64}, {"time": 132, "pitch": 60, "duration": 3, "velocity": 64}, {"time": 135, "pitch": 58, "duration": 3, "velocity": 64}, {"time": 138, "pitch": 57, "duration": 3, "velocity": 64}, {"time": 141, "pitch": 55, "duration": 3, "velocity": 64}, {"time": 144, "pitch": 54, "duration": 3, "velocity": 64}, {"time": 147, "pitch": 54, "duration": 1, "velocity": 64}, {"time": 148, "pitch": 52, "duration": 2, "velocity": 64}, {"time": 150, "pitch": 54, "duration": 3, "velocity": 64}, {"time": 153, "pitch": 50, "duration": 3, "velocity": 64}, {"time": 156, "pitch": 55, "duration": 3, "velocity": 64}, {"time": 159, "pitch": 57, "duration": 3, "velocity": 64}, {"time": 162, "pitch": 58, "duration": 3, "velocity": 64}, {"time": 165, "pitch": 55, "duration": 3, "velocity": 64}, {"time": 168, "pitch": 57, "duration": 3, "velocity": 64}, {"time": 171, "pitch": 61, "duration": 3, "velocity": 64}, {"time": 174, "pitch": 62, "duration": 3, "velocity": 64}, {"time": 177, "pitch": 57, "duration": 3, "velocity": 64}, {"time": 183, "pitch": 50, "duration": 3, "velocity": 64}, {"time": 186, "pitch": 58, "duration": 3, "velocity": 64}, {"time": 189, "pitch": 57, "duration": 3, "velocity": 64}, {"time": 195, "pitch": 57, "duration": 3, "velocity": 64}, {"time": 198, "pitch": 55, "duration": 3, "velocity": 64}, {"time": 201, "pitch": 53, "duration": 3, "velocity": 64}, {"time": 204, "pitch": 55, "duration": 3, "velocity": 64}, {"time": 207, "pitch": 53, "duration": 3, "velocity": 64}, {"time": 210, "pitch": 52, "duration": 3, "velocity": 64}, {"time": 213, "pitch": 50, "duration": 3, "velocity": 64}, {"time": 216, "pitch": 49, "duration": 3, "velocity": 64}, {"time": 219, "pitch": 45, "duration": 3, "velocity": 64}, {"time": 222, "pitch": 50, "duration": 3, "velocity": 64}, {"time": 225, "pitch": 55, "duration": 3, "velocity": 64}, {"time": 228, "pitch": 57, "duration": 3, "velocity": 64}, {"time": 231, "pitch": 55, "duration": 3, "velocity": 64}, {"time": 234, "pitch": 57, "duration": 3, "velocity": 64}, {"time": 237, "pitch": 45, "duration": 3, "velocity": 64}, {"time": 240, "pitch": 50, "duration": 3, "velocity": 64}, {"time": 243, "pitch": 53, "duration": 1, "velocity": 64}, {"time": 244, "pitch": 51, "duration": 2, "velocity": 64}, {"time": 246, "pitch": 50, "duration": 3, "velocity": 64}, {"time": 249, "pitch": 48, "duration": 3, "velocity": 64}, {"time": 252, "pitch": 47, "duration": 3, "velocity": 64}, {"time": 255, "pitch": 45, "duration": 3, "velocity": 64}, {"time": 258, "pitch": 47, "duration": 3, "velocity": 64}, {"time": 261, "pitch": 43, "duration": 3, "velocity": 64}, {"time": 264, "pitch": 48, "duration": 3, "velocity": 64}, {"time": 267, "pitch": 51, "duration": 3, "velocity": 64}, {"time": 270, "pitch": 53, "duration": 3, "velocity": 64}, {"time": 273, "pitch": 55, "duration": 3, "velocity": 64}, {"time": 276, "pitch": 51, "duration": 3, "velocity": 64}, {"time": 279, "pitch": 48, "duration": 3, "velocity": 64}, {"time": 282, "pitch": 53, "duration": 3, "velocity": 64}, {"time": 285, "pitch": 57, "duration": 3, "velocity": 64}, {"time": 288, "pitch": 58, "duration": 3, "velocity": 64}, {"time": 291, "pitch": 55, "duration": 3, "velocity": 64}, {"time": 294, "pitch": 51, "duration": 3, "velocity": 64}, {"time": 297, "pitch": 53, "duration": 3, "velocity": 64}, {"time": 300, "pitch": 46, "duration": 9, "velocity": 64}, {"time": 309, "pitch": 43, "duration": 3, "velocity": 64}, {"time": 312, "pitch": 48, "duration": 9, "velocity": 64}, {"time": 321, "pitch": 45, "duration": 3, "velocity": 64}, {"time": 324, "pitch": 50, "duration": 6, "velocity": 64}, {"time": 333, "pitch": 50, "duration": 3, "velocity": 64}, {"time": 336, "pitch": 55, "duration": 3, "velocity": 64}, {"time": 339, "pitch": 53, "duration": 3, "velocity": 64}, {"time": 342, "pitch": 51, "duration": 3, "velocity": 64}, {"time": 345, "pitch": 50, "duration": 3, "velocity": 64}, {"time": 348, "pitch": 48, "duration": 3, "velocity": 64}, {"time": 351, "pitch": 46, "duration": 3, "velocity": 64}, {"time": 354, "pitch": 45, "duration": 3, "velocity": 64}, {"time": 357, "pitch": 43, "duration": 3, "velocity": 64}, {"time": 360, "pitch": 50, "duration": 3, "velocity": 64}, {"time": 363, "pitch": 54, "duration": 3, "velocity": 64}, {"time": 366, "pitch": 55, "duration": 3, "velocity": 64}, {"time": 369, "pitch": 54, "duration": 3, "velocity": 64}, {"time": 375, "pitch": 54, "duration": 3, "velocity": 64}, {"time": 378, "pitch": 55, "duration": 3, "velocity": 64}, {"time": 381, "pitch": 50, "duration": 3, "velocity": 64}, {"time": 387, "pitch": 50, "duration": 3, "velocity": 64}, {"time": 390, "pitch": 51, "duration": 3, "velocity": 64}, {"time": 393, "pitch": 48, "duration": 3, "velocity": 64}, {"time": 396, "pitch": 50, "duration": 3, "velocity": 64}, {"time": 399, "pitch": 38, "duration": 3, "velocity": 64}, {"time": 402, "pitch": 43, "duration": 3, "velocity": 64}, {"time": 405, "pitch": 48, "duration": 3, "velocity": 64}, {"time": 408, "pitch": 50, "duration": 3, "velocity": 64}, {"time": 411, "pitch": 48, "duration": 3, "velocity": 64}, {"time": 414, "pitch": 50, "duration": 3, "velocity": 64}, {"time": 417, "pitch": 38, "duration": 3, "velocity": 64}, {"time": 420, "pitch": 43, "duration": 9, "velocity": 64}, {"time": 429, "pitch": 55, "duration": 3, "velocity": 64}, {"time": 432, "pitch": 53, "duration": 9, "velocity": 64}, {"time": 441, "pitch": 46, "duration": 3, "velocity": 64}, {"time": 444, "pitch": 51, "duration": 12, "velocity": 64}, {"time": 456, "pitch": 50, "duration": 24, "velocity": 64}]}]}