{"metadata": {"schema_version": "0.2"}, "resolution": 12, "tempos": [{"time": 0, "qpm": 100.0}], "tracks": [{"program": 6, "is_drum": false, "notes": [{"time": 3, "pitch": 64, "duration": 3, "velocity": 64}, {"time": 6, "pitch": 62, "duration": 3, "velocity": 64}, {"time": 9, "pitch": 60, "duration": 3, "velocity": 64}, {"time": 12, "pitch": 65, "duration": 2, "velocity": 64}, {"time": 14, "pitch": 64, "duration": 1, "velocity": 64}, {"time": 15, "pitch": 62, "duration": 1, "velocity": 64}, {"time": 16, "pitch": 60, "duration": 2, "velocity": 64}, {"time": 18, "pitch": 62, "duration": 2, "velocity": 64}, {"time": 20, "pitch": 55, "duration": 1, "velocity": 64}, {"time": 21, "pitch": 67, "duration": 1, "velocity": 64}, {"time": 22, "pitch": 65, "duration": 2, "velocity": 64}, {"time": 24, "pitch": 64, "duration": 2, "velocity": 64}, {"time": 26, "pitch": 62, "duration": 1, "velocity": 64}, {"time": 27, "pitch": 64, "duration": 3, "velocity": 64}, {"time": 30, "pitch": 69, "duration": 3, "velocity": 64}, {"time": 33, "pitch": 67, "duration": 3, "velocity": 64}, {"time": 36, "pitch": 65, "duration": 3, "velocity": 64}, {"time": 39, "pitch": 67, "duration": 3, "velocity": 64}, {"time": 42, "pitch": 55, "duration": 3, "velocity": 64}, {"time": 45, "pitch": 60, "duration": 3, "velocity": 64}, {"time": 48, "pitch": 57, "duration": 3, "velocity": 64}, {"time": 51, "pitch": 62, "duration": 3, "velocity": 64}, {"time": 54, "pitch": 55, "duration": 3, "velocity": 64}, {"time": 57, "pitch": 60, "duration": 3, "velocity": 64}, {"time": 60, "pitch": 65, "duration": 3, "velocity": 64}, {"time": 63, "pitch": 67, "duration": 3, "velocity": 64}, {"time": 66, "pitch": 52, "duration": 3, "velocity": 64}, {"time": 69, "pitch": 53, "duration": 3, "velocity": 64}, {"time": 72, "pitch": 48, "duration": 9, "velocity": 64}, {"time": 81, "pitch": 52, "duration": 9, "velocity": 64}, {"time": 90, "pitch": 54, "duration": 9, "velocity": 64}, {"time": 99, "pitch": 55, "duration": 3, "velocity": 64}, {"time": 102, "pitch": 43, "duration": 3, "velocity": 64}, {"time": 105, "pitch": 43, "duration": 3, "velocity": 64}, {"time": 108, "pitch": 45, "duration": 3, "velocity": 64}, {"time": 111, "pitch": 45, "duration": 5, "velocity": 64}, {"time": 116, "pitch": 43, "duration": 1, "velocity": 64}, {"time": 116, "pitch": 45, "duration": 1, "velocity": 64}, {"time": 117, "pitch": 47, "duration": 3, "velocity": 64}, {"time": 120, "pitch": 43, "duration": 3, "velocity": 64}, {"time": 123, "pitch": 48, "duration": 3, "velocity": 64}, {"time": 126, "pitch": 48, "duration": 6, "velocity": 64}, {"time": 132, "pitch": 47, "duration": 3, "velocity": 64}, {"time": 135, "pitch": 45, "duration": 3, "velocity": 64}, {"time": 138, "pitch": 50, "duration": 3, "velocity": 64}, {"time": 141, "pitch": 55, "duration": 3, "velocity": 64}, {"time": 144, "pitch": 48, "duration": 3, "velocity": 64}, {"time": 147, "pitch": 50, "duration": 3, "velocity": 64}, {"time": 150, "pitch": 38, "duration": 3, "velocity": 64}, {"time": 153, "pitch": 43, "duration": 3, "velocity": 64}, {"time": 156, "pitch": 55, "duration": 3, "velocity": 64}, {"time": 159, "pitch": 55, "duration": 3, "velocity": 64}, {"time": 162, "pitch": 55, "duration": 3, "velocity": 64}, {"time": 165, "pitch": 53, "duration": 3, "velocity": 64}, {"time": 168, "pitch": 53, "duration": 3, "velocity": 64}, {"time": 171, "pitch": 53, "duration": 6, "velocity": 64}, {"time": 177, "pitch": 52, "duration": 3, "velocity": 64}, {"time": 180, "pitch": 50, "duration": 3, "velocity": 64}, {"time": 183, "pitch": 55, "duration": 3, "velocity": 64}, {"time": 186, "pitch": 43, "duration": 3, "velocity": 64}, {"time": 189, "pitch": 48, "duration": 3, "velocity": 64}, {"time": 192, "pitch": 50, "duration": 3, "velocity": 64}, {"time": 195, "pitch": 52, "duration": 3, "velocity": 64}, {"time": 198, "pitch": 53, "duration": 3, "velocity": 64}, {"time": 201, "pitch": 55, "duration": 3, "velocity": 64}, {"time": 204, "pitch": 57, "duration": 3, "velocity": 64}, {"time": 207, "pitch": 55, "duration": 9, "velocity": 64}, {"time": 216, "pitch": 57, "duration": 9, "velocity": 64}, {"time": 225, "pitch": 59, "duration": 9, "velocity": 64}, {"time": 234, "pitch": 60, "duration": 3, "velocity": 64}, {"time": 237, "pitch": 48, "duration": 3, "velocity": 64}, {"time": 240, "pitch": 48, "duration": 3, "velocity": 64}, {"time": 243, "pitch": 50, "duration": 3, "velocity": 64}, {"time": 246, "pitch": 50, "duration": 4, "velocity": 64}, {"time": 250, "pitch": 48, "duration": 1, "velocity": 64}, {"time": 251, "pitch": 50, "duration": 1, "velocity": 64}, {"time": 252, "pitch": 52, "duration": 3, "velocity": 64}, {"time": 255, "pitch": 48, "duration": 3, "velocity": 64}, {"time": 258, "pitch": 52, "duration": 3, "velocity": 64}, {"time": 261, "pitch": 53, "duration": 6, "velocity": 64}, {"time": 267, "pitch": 52, "duration": 3, "velocity": 64}, {"time": 270, "pitch": 50, "duration": 3, "velocity": 64}, {"time": 273, "pitch": 55, "duration": 3, "velocity": 64}, {"time": 276, "pitch": 60, "duration": 3, "velocity": 64}, {"time": 279, "pitch": 53, "duration": 3, "velocity": 64}, {"time": 282, "pitch": 55, "duration": 3, "velocity": 64}, {"time": 285, "pitch": 43, "duration": 3, "velocity": 64}, {"time": 288, "pitch": 48, "duration": 9, "velocity": 64}, {"time": 297, "pitch": 53, "duration": 3, "velocity": 64}, {"time": 300, "pitch": 65, "duration": 3, "velocity": 64}, {"time": 303, "pitch": 64, "duration": 3, "velocity": 64}, {"time": 306, "pitch": 62, "duration": 6, "velocity": 64}, {"time": 312, "pitch": 50, "duration": 3, "velocity": 64}, {"time": 315, "pitch": 52, "duration": 3, "velocity": 64}, {"time": 318, "pitch": 64, "duration": 3, "velocity": 64}, {"time": 321, "pitch": 62, "duration": 3, "velocity": 64}, {"time": 324, "pitch": 60, "duration": 6, "velocity": 64}, {"time": 330, "pitch": 59, "duration": 3, "velocity": 64}, {"time": 333, "pitch": 57, "duration": 6, "velocity": 64}, {"time": 339, "pitch": 55, "duration": 3, "velocity": 64}, {"time": 342, "pitch": 53, "duration": 6, "velocity": 64}, {"time": 348, "pitch": 65, "duration": 3, "velocity": 64}, {"time": 351, "pitch": 64, "duration": 3, "velocity": 64}, {"time": 354, "pitch": 62, "duration": 2, "velocity": 64}, {"time": 356, "pitch": 60, "duration": 1, "velocity": 64}, {"time": 357, "pitch": 59, "duration": 1, "velocity": 64}, {"time": 358, "pitch": 57, "duration": 2, "velocity": 64}, {"time": 360, "pitch": 56, "duration": 3, "velocity": 64}, {"time": 363, "pitch": 52, "duration": 6, "velocity": 64}, {"time": 369, "pitch": 54, "duration": 9, "velocity": 64}, {"time": 378, "pitch": 56, "duration": 9, "velocity": 64}, {"time": 387, "pitch": 57, "duration": 3, "velocity": 64}, {"time": 390, "pitch": 45, "duration": 3, "velocity": 64}, {"time": 393, "pitch": 45, "duration": 3, "velocity": 64}, {"time": 396, "pitch": 47, "duration": 3, "velocity": 64}, {"time": 399, "pitch": 47, "duration": 5, "velocity": 64}, {"time": 404, "pitch": 45, "duration": 1, "velocity": 64}, {"time": 404, "pitch": 47, "duration": 1, "velocity": 64}, {"time": 405, "pitch": 49, "duration": 3, "velocity": 64}, {"time": 408, "pitch": 45, "duration": 3, "velocity": 64}, {"time": 411, "pitch": 50, "duration": 3, "velocity": 64}, {"time": 414, "pitch": 55, "duration": 3, "velocity": 64}, {"time": 417, "pitch": 57, "duration": 3, "velocity": 64}, {"time": 420, "pitch": 45, "duration": 3, "velocity": 64}, {"time": 423, "pitch": 50, "duration": 3, "velocity": 64}, {"time": 426, "pitch": 62, "duration": 2, "velocity": 64}, {"time": 428, "pitch": 65, "duration": 1, "velocity": 64}, {"time": 429, "pitch": 64, "duration": 1, "velocity": 64}, {"time": 430, "pitch": 67, "duration": 2, "velocity": 64}, {"time": 432, "pitch": 65, "duration": 2, "velocity": 64}, {"time": 434, "pitch": 57, "duration": 1, "velocity": 64}, {"time": 435, "pitch": 62, "duration": 1, "velocity": 64}, {"time": 436, "pitch": 65, "duration": 2, "velocity": 64}, {"time": 438, "pitch": 64, "duration": 2, "velocity": 64}, {"time": 440, "pitch": 67, "duration": 1, "velocity": 64}, {"time": 441, "pitch": 65, "duration": 1, "velocity": 64}, {"time": 442, "pitch": 57, "duration": 2, "velocity": 64}, {"time": 444, "pitch": 62, "duration": 2, "velocity": 64}, {"time": 446, "pitch": 65, "duration": 1, "velocity": 64}, {"time": 447, "pitch": 64, "duration": 1, "velocity": 64}, {"time": 448, "pitch": 67, "duration": 2, "velocity": 64}, {"time": 450, "pitch": 65, "duration": 2, "velocity": 64}, {"time": 452, "pitch": 62, "duration": 1, "velocity": 64}, {"time": 453, "pitch": 59, "duration": 1, "velocity": 64}, {"time": 454, "pitch": 62, "duration": 2, "velocity": 64}, {"time": 456, "pitch": 55, "duration": 2, "velocity": 64}, {"time": 458, "pitch": 59, "duration": 1, "velocity": 64}, {"time": 459, "pitch": 60, "duration": 1, "velocity": 64}, {"time": 460, "pitch": 55, "duration": 2, "velocity": 64}, {"time": 462, "pitch": 60, "duration": 2, "velocity": 64}, {"time": 464, "pitch": 64, "duration": 1, "velocity": 64}, {"time": 465, "pitch": 62, "duration": 1, "velocity": 64}, {"time": 466, "pitch": 65, "duration": 2, "velocity": 64}, {"time": 468, "pitch": 64, "duration": 2, "velocity": 64}, {"time": 470, "pitch": 55, "duration": 1, "velocity": 64}, {"time": 471, "pitch": 60, "duration": 1, "velocity": 64}, {"time": 472, "pitch": 64, "duration": 2, "velocity": 64}, {"time": 474, "pitch": 62, "duration": 2, "velocity": 64}, {"time": 476, "pitch": 65, "duration": 1, "velocity": 64}, {"time": 477, "pitch": 64, "duration": 3, "velocity": 64}, {"time": 480, "pitch": 52, "duration": 3, "velocity": 64}, {"time": 483, "pitch": 50, "duration": 3, "velocity": 64}, {"time": 486, "pitch": 48, "duration": 3, "velocity": 64}, {"time": 489, "pitch": 60, "duration": 3, "velocity": 64}, {"time": 492, "pitch": 59, "duration": 3, "velocity": 64}, {"time": 495, "pitch": 57, "duration": 3, "velocity": 64}, {"time": 498, "pitch": 60, "duration": 3, "velocity": 64}, {"time": 501, "pitch": 57, "duration": 3, "velocity": 64}, {"time": 504, "pitch": 59, "duration": 3, "velocity": 64}, {"time": 507, "pitch": 47, "duration": 6, "velocity": 64}, {"time": 513, "pitch": 49, "duration": 9, "velocity": 64}, {"time": 522, "pitch": 51, "duration": 9, "velocity": 64}, {"time": 531, "pitch": 52, "duration": 3, "velocity": 64}, {"time": 534, "pitch": 64, "duration": 6, "velocity": 64}, {"time": 540, "pitch": 62, "duration": 9, "velocity": 64}, {"time": 549, "pitch": 60, "duration": 9, "velocity": 64}, {"time": 558, "pitch": 59, "duration": 3, "velocity": 64}, {"time": 561, "pitch": 57, "duration": 3, "velocity": 64}, {"time": 564, "pitch": 55, "duration": 3, "velocity": 64}, {"time": 567, "pitch": 57, "duration": 3, "velocity": 64}, {"time": 570, "pitch": 59, "duration": 3, "velocity": 64}, {"time": 573, "pitch": 47, "duration": 3, "velocity": 64}, {"time": 576, "pitch": 52, "duration": 3, "velocity": 64}, {"time": 579, "pitch": 64, "duration": 3, "velocity": 64}, {"time": 582, "pitch": 59, "duration": 3, "velocity": 64}, {"time": 585, "pitch": 60, "duration": 3, "velocity": 64}, {"time": 588, "pitch": 62, "duration": 3, "velocity": 64}, {"time": 591, "pitch": 50, "duration": 3, "velocity": 64}, {"time": 594, "pitch": 55, "duration": 3, "velocity": 64}, {"time": 597, "pitch": 59, "duration": 3, "velocity": 64}, {"time": 600, "pitch": 55, "duration": 3, "velocity": 64}, {"time": 603, "pitch": 48, "duration": 3, "velocity": 64}, {"time": 606, "pitch": 60, "duration": 2, "velocity": 64}, {"time": 608, "pitch": 59, "duration": 1, "velocity": 64}, {"time": 609, "pitch": 57, "duration": 1, "velocity": 64}, {"time": 610, "pitch": 55, "duration": 2, "velocity": 64}, {"time": 612, "pitch": 57, "duration": 2, "velocity": 64}, {"time": 614, "pitch": 50, "duration": 1, "velocity": 64}, {"time": 615, "pitch": 62, "duration": 1, "velocity": 64}, {"time": 616, "pitch": 60, "duration": 2, "velocity": 64}, {"time": 618, "pitch": 59, "duration": 2, "velocity": 64}, {"time": 620, "pitch": 57, "duration": 1, "velocity": 64}, {"time": 621, "pitch": 59, "duration": 1, "velocity": 64}, {"time": 622, "pitch": 57, "duration": 2, "velocity": 64}, {"time": 624, "pitch": 55, "duration": 2, "velocity": 64}, {"time": 626, "pitch": 54, "duration": 1, "velocity": 64}, {"time": 627, "pitch": 52, "duration": 1, "velocity": 64}, {"time": 628, "pitch": 50, "duration": 2, "velocity": 64}, {"time": 630, "pitch": 48, "duration": 3, "velocity": 64}, {"time": 633, "pitch": 50, "duration": 3, "velocity": 64}, {"time": 636, "pitch": 38, "duration": 3, "velocity": 64}, {"time": 639, "pitch": 43, "duration": 3, "velocity": 64}, {"time": 642, "pitch": 48, "duration": 3, "velocity": 64}, {"time": 645, "pitch": 45, "duration": 3, "velocity": 64}, {"time": 648, "pitch": 50, "duration": 3, "velocity": 64}, {"time": 651, "pitch": 55, "duration": 3, "velocity": 64}, {"time": 654, "pitch": 43, "duration": 3, "velocity": 64}, {"time": 657, "pitch": 50, "duration": 1, "velocity": 64}, {"time": 658, "pitch": 48, "duration": 2, "velocity": 64}, {"time": 660, "pitch": 50, "duration": 2, "velocity": 64}, {"time": 662, "pitch": 52, "duration": 1, "velocity": 64}, {"time": 663, "pitch": 54, "duration": 1, "velocity": 64}, {"time": 664, "pitch": 50, "duration": 2, "velocity": 64}, {"time": 666, "pitch": 55, "duration": 2, "velocity": 64}, {"time": 668, "pitch": 50, "duration": 1, "velocity": 64}, {"time": 669, "pitch": 55, "duration": 1, "velocity": 64}, {"time": 670, "pitch": 59, "duration": 2, "velocity": 64}, {"time": 672, "pitch": 57, "duration": 2, "velocity": 64}, {"time": 674, "pitch": 60, "duration": 1, "velocity": 64}, {"time": 675, "pitch": 59, "duration": 1, "velocity": 64}, {"time": 676, "pitch": 50, "duration": 2, "velocity": 64}, {"time": 678, "pitch": 55, "duration": 2, "velocity": 64}, {"time": 680, "pitch": 59, "duration": 1, "velocity": 64}, {"time": 681, "pitch": 57, "duration": 1, "velocity": 64}, {"time": 682, "pitch": 60, "duration": 2, "velocity": 64}, {"time": 684, "pitch": 59, "duration": 2, "velocity": 64}, {"time": 686, "pitch": 57, "duration": 1, "velocity": 64}, {"time": 687, "pitch": 55, "duration": 1, "velocity": 64}, {"time": 688, "pitch": 57, "duration": 2, "velocity": 64}, {"time": 690, "pitch": 59, "duration": 2, "velocity": 64}, {"time": 692, "pitch": 55, "duration": 1, "velocity": 64}, {"time": 693, "pitch": 60, "duration": 1, "velocity": 64}, {"time": 694, "pitch": 55, "duration": 2, "velocity": 64}, {"time": 696, "pitch": 60, "duration": 2, "velocity": 64}, {"time": 698, "pitch": 64, "duration": 1, "velocity": 64}, {"time": 699, "pitch": 62, "duration": 1, "velocity": 64}, {"time": 700, "pitch": 65, "duration": 2, "velocity": 64}, {"time": 702, "pitch": 64, "duration": 2, "velocity": 64}, {"time": 704, "pitch": 55, "duration": 1, "velocity": 64}, {"time": 705, "pitch": 60, "duration": 1, "velocity": 64}, {"time": 706, "pitch": 64, "duration": 2, "velocity": 64}, {"time": 708, "pitch": 62, "duration": 2, "velocity": 64}, {"time": 710, "pitch": 65, "duration": 1, "velocity": 64}, {"time": 711, "pitch": 64, "duration": 1, "velocity": 64}, {"time": 712, "pitch": 62, "duration": 2, "velocity": 64}, {"time": 714, "pitch": 60, "duration": 2, "velocity": 64}, {"time": 716, "pitch": 62, "duration": 1, "velocity": 64}, {"time": 717, "pitch": 64, "duration": 1, "velocity": 64}, {"time": 718, "pitch": 60, "duration": 2, "velocity": 64}, {"time": 720, "pitch": 65, "duration": 2, "velocity": 64}, {"time": 722, "pitch": 60, "duration": 1, "velocity": 64}, {"time": 723, "pitch": 65, "duration": 1, "velocity": 64}, {"time": 724, "pitch": 69, "duration": 2, "velocity": 64}, {"time": 726, "pitch": 67, "duration": 2, "velocity": 64}, {"time": 728, "pitch": 70, "duration": 1, "velocity": 64}, {"time": 729, "pitch": 69, "duration": 1, "velocity": 64}, {"time": 730, "pitch": 60, "duration": 2, "velocity": 64}, {"time": 732, "pitch": 65, "duration": 2, "velocity": 64}, {"time": 734, "pitch": 69, "duration": 1, "velocity": 64}, {"time": 735, "pitch": 67, "duration": 1, "velocity": 64}, {"time": 736, "pitch": 70, "duration": 2, "velocity": 64}, {"time": 738, "pitch": 69, "duration": 3, "velocity": 64}, {"time": 741, "pitch": 65, "duration": 3, "velocity": 64}, {"time": 744, "pitch": 57, "duration": 3, "velocity": 64}, {"time": 747, "pitch": 58, "duration": 3, "velocity": 64}, {"time": 750, "pitch": 55, "duration": 3, "velocity": 64}, {"time": 753, "pitch": 58, "duration": 3, "velocity": 64}, {"time": 756, "pitch": 60, "duration": 3, "velocity": 64}, {"time": 759, "pitch": 48, "duration": 3, "velocity": 64}, {"time": 762, "pitch": 48, "duration": 3, "velocity": 64}, {"time": 765, "pitch": 50, "duration": 3, "velocity": 64}, {"time": 768, "pitch": 50, "duration": 4, "velocity": 64}, {"time": 772, "pitch": 48, "duration": 1, "velocity": 64}, {"time": 773, "pitch": 50, "duration": 1, "velocity": 64}, {"time": 774, "pitch": 52, "duration": 3, "velocity": 64}, {"time": 777, "pitch": 48, "duration": 3, "velocity": 64}, {"time": 780, "pitch": 53, "duration": 3, "velocity": 64}, {"time": 783, "pitch": 58, "duration": 3, "velocity": 64}, {"time": 786, "pitch": 60, "duration": 3, "velocity": 64}, {"time": 789, "pitch": 48, "duration": 3, "velocity": 64}, {"time": 792, "pitch": 53, "duration": 2, "velocity": 64}, {"time": 794, "pitch": 48, "duration": 1, "velocity": 64}, {"time": 795, "pitch": 53, "duration": 1, "velocity": 64}, {"time": 796, "pitch": 57, "duration": 2, "velocity": 64}, {"time": 798, "pitch": 55, "duration": 2, "velocity": 64}, {"time": 800, "pitch": 58, "duration": 1, "velocity": 64}, {"time": 801, "pitch": 57, "duration": 1, "velocity": 64}, {"time": 802, "pitch": 48, "duration": 2, "velocity": 64}, {"time": 804, "pitch": 53, "duration": 2, "velocity": 64}, {"time": 806, "pitch": 57, "duration": 1, "velocity": 64}, {"time": 807, "pitch": 55, "duration": 1, "velocity": 64}, {"time": 808, "pitch": 58, "duration": 2, "velocity": 64}, {"time": 810, "pitch": 57, "duration": 2, "velocity": 64}, {"time": 812, "pitch": 48, "duration": 1, "velocity": 64}, {"time": 813, "pitch": 53, "duration": 1, "velocity": 64}, {"time": 814, "pitch": 57, "duration": 2, "velocity": 64}, {"time": 816, "pitch": 55, "duration": 2, "velocity": 64}, {"time": 818, "pitch": 58, "duration": 1, "velocity": 64}, {"time": 819, "pitch": 57, "duration": 1, "velocity": 64}, {"time": 820, "pitch": 55, "duration": 2, "velocity": 64}, {"time": 822, "pitch": 53, "duration": 2, "velocity": 64}, {"time": 824, "pitch": 55, "duration": 1, "velocity": 64}, {"time": 825, "pitch": 57, "duration": 1, "velocity": 64}, {"time": 826, "pitch": 53, "duration": 2, "velocity": 64}, {"time": 828, "pitch": 58, "duration": 2, "velocity": 64}, {"time": 830, "pitch": 53, "duration": 1, "velocity": 64}, {"time": 831, "pitch": 58, "duration": 1, "velocity": 64}, {"time": 832, "pitch": 57, "duration": 2, "velocity": 64}, {"time": 834, "pitch": 55, "duration": 2, "velocity": 64}, {"time": 836, "pitch": 53, "duration": 1, "velocity": 64}, {"time": 837, "pitch": 55, "duration": 1, "velocity": 64}, {"time": 838, "pitch": 48, "duration": 2, "velocity": 64}, {"time": 840, "pitch": 60, "duration": 2, "velocity": 64}, {"time": 842, "pitch": 58, "duration": 1, "velocity": 64}, {"time": 843, "pitch": 57, "duration": 1, "velocity": 64}, {"time": 844, "pitch": 55, "duration": 2, "velocity": 64}, {"time": 846, "pitch": 57, "duration": 2, "velocity": 64}, {"time": 848, "pitch": 55, "duration": 1, "velocity": 64}, {"time": 849, "pitch": 53, "duration": 1, "velocity": 64}, {"time": 850, "pitch": 52, "duration": 2, "velocity": 64}, {"time": 852, "pitch": 50, "duration": 2, "velocity": 64}, {"time": 854, "pitch": 48, "duration": 1, "velocity": 64}, {"time": 855, "pitch": 46, "duration": 1, "velocity": 64}, {"time": 856, "pitch": 43, "duration": 2, "velocity": 64}, {"time": 858, "pitch": 48, "duration": 2, "velocity": 64}, {"time": 860, "pitch": 46, "duration": 1, "velocity": 64}, {"time": 861, "pitch": 48, "duration": 1, "velocity": 64}, {"time": 862, "pitch": 36, "duration": 2, "velocity": 64}, {"time": 864, "pitch": 41, "duration": 2, "velocity": 64}, {"time": 866, "pitch": 48, "duration": 1, "velocity": 64}, {"time": 867, "pitch": 53, "duration": 1, "velocity": 64}, {"time": 868, "pitch": 52, "duration": 2, "velocity": 64}, {"time": 870, "pitch": 50, "duration": 2, "velocity": 64}, {"time": 872, "pitch": 48, "duration": 1, "velocity": 64}, {"time": 873, "pitch": 50, "duration": 1, "velocity": 64}, {"time": 874, "pitch": 43, "duration": 2, "velocity": 64}, {"time": 876, "pitch": 55, "duration": 2, "velocity": 64}, {"time": 878, "pitch": 53, "duration": 1, "velocity": 64}, {"time": 879, "pitch": 52, "duration": 1, "velocity": 64}, {"time": 880, "pitch": 50, "duration": 2, "velocity": 64}, {"time": 882, "pitch": 52, "duration": 2, "velocity": 64}, {"time": 884, "pitch": 48, "duration": 1, "velocity": 64}, {"time": 885, "pitch": 57, "duration": 1, "velocity": 64}, {"time": 886, "pitch": 55, "duration": 2, "velocity": 64}, {"time": 888, "pitch": 53, "duration": 2, "velocity": 64}, {"time": 890, "pitch": 52, "duration": 1, "velocity": 64}, {"time": 891, "pitch": 53, "duration": 1, "velocity": 64}, {"time": 892, "pitch": 50, "duration": 2, "velocity": 64}, {"time": 894, "pitch": 55, "duration": 3, "velocity": 64}, {"time": 897, "pitch": 43, "duration": 3, "velocity": 64}, {"time": 900, "pitch": 48, "duration": 3, "velocity": 64}, {"time": 903, "pitch": 53, "duration": 3, "velocity": 64}, {"time": 906, "pitch": 50, "duration": 3, "velocity": 64}, {"time": 909, "pitch": 55, "duration": 3, "velocity": 64}, {"time": 912, "pitch": 60, "duration": 3, "velocity": 64}, {"time": 915, "pitch": 48, "duration": 3, "velocity": 64}, {"time": 918, "pitch": 55, "duration": 3, "velocity": 64}, {"time": 921, "pitch": 47, "duration": 1, "velocity": 64}, {"time": 922, "pitch": 48, "duration": 2, "velocity": 64}, {"time": 924, "pitch": 50, "duration": 2, "velocity": 64}, {"time": 926, "pitch": 47, "duration": 1, "velocity": 64}, {"time": 927, "pitch": 52, "duration": 3, "velocity": 64}, {"time": 930, "pitch": 52, "duration": 4, "velocity": 64}, {"time": 934, "pitch": 50, "duration": 1, "velocity": 64}, {"time": 935, "pitch": 52, "duration": 1, "velocity": 64}, {"time": 936, "pitch": 54, "duration": 3, "velocity": 64}, {"time": 939, "pitch": 50, "duration": 3, "velocity": 64}, {"time": 942, "pitch": 55, "duration": 3, "velocity": 64}, {"time": 945, "pitch": 48, "duration": 3, "velocity": 64}, {"time": 948, "pitch": 50, "duration": 3, "velocity": 64}, {"time": 951, "pitch": 38, "duration": 3, "velocity": 64}, {"time": 954, "pitch": 43, "duration": 3, "velocity": 64}, {"time": 957, "pitch": 55, "duration": 9, "velocity": 64}, {"time": 966, "pitch": 53, "duration": 9, "velocity": 64}, {"time": 975, "pitch": 52, "duration": 6, "velocity": 64}, {"time": 981, "pitch": 50, "duration": 3, "velocity": 64}, {"time": 984, "pitch": 55, "duration": 3, "velocity": 64}, {"time": 987, "pitch": 43, "duration": 3, "velocity": 64}, {"time": 990, "pitch": 48, "duration": 2, "velocity": 64}, {"time": 992, "pitch": 47, "duration": 1, "velocity": 64}, {"time": 993, "pitch": 48, "duration": 1, "velocity": 64}, {"time": 994, "pitch": 50, "duration": 2, "velocity": 64}, {"time": 996, "pitch": 52, "duration": 2, "velocity": 64}, {"time": 998, "pitch": 53, "duration": 1, "velocity": 64}, {"time": 999, "pitch": 55, "duration": 1, "velocity": 64}, {"time": 1000, "pitch": 53, "duration": 2, "velocity": 64}, {"time": 1002, "pitch": 55, "duration": 2, "velocity": 64}, {"time": 1004, "pitch": 57, "duration": 1, "velocity": 64}, {"time": 1005, "pitch": 59, "duration": 1, "velocity": 64}, {"time": 1006, "pitch": 55, "duration": 2, "velocity": 64}, {"time": 1008, "pitch": 57, "duration": 2, "velocity": 64}, {"time": 1010, "pitch": 45, "duration": 1, "velocity": 64}, {"time": 1011, "pitch": 48, "duration": 1, "velocity": 64}, {"time": 1012, "pitch": 47, "duration": 2, "velocity": 64}, {"time": 1014, "pitch": 48, "duration": 2, "velocity": 64}, {"time": 1016, "pitch": 50, "duration": 1, "velocity": 64}, {"time": 1017, "pitch": 52, "duration": 1, "velocity": 64}, {"time": 1018, "pitch": 50, "duration": 2, "velocity": 64}, {"time": 1020, "pitch": 52, "duration": 2, "velocity": 64}, {"time": 1022, "pitch": 53, "duration": 1, "velocity": 64}, {"time": 1023, "pitch": 55, "duration": 1, "velocity": 64}, {"time": 1024, "pitch": 52, "duration": 2, "velocity": 64}, {"time": 1026, "pitch": 53, "duration": 2, "velocity": 64}, {"time": 1028, "pitch": 52, "duration": 1, "velocity": 64}, {"time": 1029, "pitch": 53, "duration": 1, "velocity": 64}, {"time": 1030, "pitch": 55, "duration": 2, "velocity": 64}, {"time": 1032, "pitch": 57, "duration": 2, "velocity": 64}, {"time": 1034, "pitch": 59, "duration": 1, "velocity": 64}, {"time": 1035, "pitch": 60, "duration": 1, "velocity": 64}, {"time": 1036, "pitch": 59, "duration": 2, "velocity": 64}, {"time": 1038, "pitch": 60, "duration": 2, "velocity": 64}, {"time": 1040, "pitch": 48, "duration": 1, "velocity": 64}, {"time": 1041, "pitch": 50, "duration": 1, "velocity": 64}, {"time": 1042, "pitch": 52, "duration": 2, "velocity": 64}, {"time": 1044, "pitch": 53, "duration": 3, "velocity": 64}, {"time": 1047, "pitch": 41, "duration": 3, "velocity": 64}, {"time": 1050, "pitch": 45, "duration": 3, "velocity": 64}, {"time": 1053, "pitch": 43, "duration": 3, "velocity": 64}, {"time": 1056, "pitch": 55, "duration": 6, "velocity": 64}, {"time": 1062, "pitch": 57, "duration": 9, "velocity": 64}, {"time": 1071, "pitch": 59, "duration": 9, "velocity": 64}, {"time": 1080, "pitch": 60, "duration": 3, "velocity": 64}, {"time": 1083, "pitch": 64, "duration": 1, "velocity": 64}, {"time": 1084, "pitch": 62, "duration": 2, "velocity": 64}, {"time": 1086, "pitch": 60, "duration": 2, "velocity": 64}, {"time": 1088, "pitch": 59, "duration": 1, "velocity": 64}, {"time": 1089, "pitch": 60, "duration": 3, "velocity": 64}, {"time": 1092, "pitch": 65, "duration": 2, "velocity": 64}, {"time": 1094, "pitch": 64, "duration": 1, "velocity": 64}, {"time": 1095, "pitch": 62, "duration": 1, "velocity": 64}, {"time": 1096, "pitch": 60, "duration": 2, "velocity": 64}, {"time": 1098, "pitch": 62, "duration": 2, "velocity": 64}, {"time": 1100, "pitch": 55, "duration": 1, "velocity": 64}, {"time": 1101, "pitch": 67, "duration": 1, "velocity": 64}, {"time": 1102, "pitch": 65, "duration": 2, "velocity": 64}, {"time": 1104, "pitch": 64, "duration": 2, "velocity": 64}, {"time": 1106, "pitch": 62, "duration": 1, "velocity": 64}, {"time": 1107, "pitch": 64, "duration": 3, "velocity": 64}, {"time": 1110, "pitch": 60, "duration": 3, "velocity": 64}, {"time": 1113, "pitch": 52, "duration": 3, "velocity": 64}, {"time": 1116, "pitch": 53, "duration": 3, "velocity": 64}, {"time": 1119, "pitch": 55, "duration": 3, "velocity": 64}, {"time": 1122, "pitch": 57, "duration": 3, "velocity": 64}, {"time": 1125, "pitch": 55, "duration": 3, "velocity": 64}, {"time": 1128, "pitch": 53, "duration": 3, "velocity": 64}, {"time": 1131, "pitch": 52, "duration": 3, "velocity": 64}, {"time": 1134, "pitch": 53, "duration": 3, "velocity": 64}, {"time": 1137, "pitch": 55, "duration": 3, "velocity": 64}, {"time": 1140, "pitch": 43, "duration": 3, "velocity": 64}, {"time": 1143, "pitch": 45, "duration": 3, "velocity": 64}, {"time": 1146, "pitch": 40, "duration": 3, "velocity": 64}, {"time": 1149, "pitch": 48, "duration": 3, "velocity": 64}, {"time": 1152, "pitch": 53, "duration": 3, "velocity": 64}, {"time": 1155, "pitch": 50, "duration": 3, "velocity": 64}, {"time": 1158, "pitch": 53, "duration": 3, "velocity": 64}, {"time": 1161, "pitch": 43, "duration": 6, "velocity": 64}, {"time": 1167, "pitch": 48, "duration": 3, "velocity": 64}, {"time": 1170, "pitch": 53, "duration": 3, "velocity": 64}, {"time": 1173, "pitch": 55, "duration": 3, "velocity": 64}, {"time": 1176, "pitch": 43, "duration": 3, "velocity": 64}, {"time": 1179, "pitch": 48, "duration": 9, "velocity": 64}]}]}