{"metadata": {"schema_version": "0.2"}, "resolution": 12, "tempos": [{"time": 0, "qpm": 100.0}], "tracks": [{"program": 6, "is_drum": false, "notes": [{"time": 0, "pitch": 60, "duration": 12, "velocity": 64}, {"time": 12, "pitch": 48, "duration": 3, "velocity": 64}, {"time": 15, "pitch": 50, "duration": 3, "velocity": 64}, {"time": 18, "pitch": 52, "duration": 3, "velocity": 64}, {"time": 21, "pitch": 53, "duration": 3, "velocity": 64}, {"time": 24, "pitch": 55, "duration": 6, "velocity": 64}, {"time": 30, "pitch": 60, "duration": 6, "velocity": 64}, {"time": 36, "pitch": 59, "duration": 6, "velocity": 64}, {"time": 42, "pitch": 57, "duration": 6, "velocity": 64}, {"time": 48, "pitch": 55, "duration": 6, "velocity": 64}, {"time": 54, "pitch": 53, "duration": 6, "velocity": 64}, {"time": 60, "pitch": 52, "duration": 6, "velocity": 64}, {"time": 66, "pitch": 57, "duration": 6, "velocity": 64}, {"time": 72, "pitch": 50, "duration": 6, "velocity": 64}, {"time": 78, "pitch": 48, "duration": 6, "velocity": 64}, {"time": 84, "pitch": 55, "duration": 3, "velocity": 64}, {"time": 87, "pitch": 57, "duration": 3, "velocity": 64}, {"time": 90, "pitch": 59, "duration": 3, "velocity": 64}, {"time": 93, "pitch": 55, "duration": 3, "velocity": 64}, {"time": 96, "pitch": 52, "duration": 12, "velocity": 64}, {"time": 108, "pitch": 53, "duration": 6, "velocity": 64}, {"time": 114, "pitch": 50, "duration": 6, "velocity": 64}, {"time": 120, "pitch": 55, "duration": 6, "velocity": 64}, {"time": 126, "pitch": 52, "duration": 6, "velocity": 64}, {"time": 132, "pitch": 57, "duration": 6, "velocity": 64}, {"time": 138, "pitch": 45, "duration": 6, "velocity": 64}, {"time": 144, "pitch": 47, "duration": 6, "velocity": 64}, {"time": 150, "pitch": 43, "duration": 6, "velocity": 64}, {"time": 156, "pitch": 48, "duration": 6, "velocity": 64}, {"time": 162, "pitch": 55, "duration": 6, "velocity": 64}, {"time": 168, "pitch": 57, "duration": 6, "velocity": 64}, {"time": 174, "pitch": 53, "duration": 6, "velocity": 64}, {"time": 180, "pitch": 55, "duration": 6, "velocity": 64}, {"time": 186, "pitch": 52, "duration": 6, "velocity": 64}, {"time": 192, "pitch": 50, "duration": 6, "velocity": 64}, {"time": 198, "pitch": 48, "duration": 6, "velocity": 64}, {"time": 204, "pitch": 53, "duration": 6, "velocity": 64}, {"time": 210, "pitch": 52, "duration": 6, "velocity": 64}, {"time": 216, "pitch": 50, "duration": 6, "velocity": 64}, {"time": 222, "pitch": 48, "duration": 6, "velocity": 64}, {"time": 228, "pitch": 47, "duration": 12, "velocity": 64}, {"time": 240, "pitch": 59, "duration": 6, "velocity": 64}, {"time": 246, "pitch": 55, "duration": 6, "velocity": 64}, {"time": 252, "pitch": 60, "duration": 6, "velocity": 64}, {"time": 258, "pitch": 53, "duration": 6, "velocity": 64}, {"time": 264, "pitch": 55, "duration": 6, "velocity": 64}, {"time": 270, "pitch": 43, "duration": 6, "velocity": 64}, {"time": 276, "pitch": 48, "duration": 12, "velocity": 64}, {"time": 300, "pitch": 45, "duration": 3, "velocity": 64}, {"time": 303, "pitch": 47, "duration": 3, "velocity": 64}, {"time": 306, "pitch": 48, "duration": 3, "velocity": 64}, {"time": 309, "pitch": 50, "duration": 3, "velocity": 64}, {"time": 312, "pitch": 52, "duration": 6, "velocity": 64}, {"time": 318, "pitch": 57, "duration": 6, "velocity": 64}, {"time": 324, "pitch": 56, "duration": 6, "velocity": 64}, {"time": 330, "pitch": 57, "duration": 6, "velocity": 64}, {"time": 336, "pitch": 59, "duration": 6, "velocity": 64}, {"time": 342, "pitch": 52, "duration": 6, "velocity": 64}, {"time": 348, "pitch": 57, "duration": 6, "velocity": 64}, {"time": 354, "pitch": 55, "duration": 6, "velocity": 64}, {"time": 360, "pitch": 53, "duration": 12, "velocity": 64}, {"time": 372, "pitch": 52, "duration": 6, "velocity": 64}, {"time": 378, "pitch": 56, "duration": 6, "velocity": 64}, {"time": 384, "pitch": 57, "duration": 6, "velocity": 64}, {"time": 396, "pitch": 54, "duration": 6, "velocity": 64}, {"time": 408, "pitch": 56, "duration": 6, "velocity": 64}, {"time": 420, "pitch": 57, "duration": 6, "velocity": 64}, {"time": 432, "pitch": 48, "duration": 6, "velocity": 64}, {"time": 444, "pitch": 50, "duration": 6, "velocity": 64}, {"time": 456, "pitch": 53, "duration": 6, "velocity": 64}, {"time": 468, "pitch": 52, "duration": 6, "velocity": 64}, {"time": 474, "pitch": 54, "duration": 6, "velocity": 64}, {"time": 480, "pitch": 56, "duration": 6, "velocity": 64}, {"time": 486, "pitch": 52, "duration": 6, "velocity": 64}, {"time": 492, "pitch": 57, "duration": 6, "velocity": 64}, {"time": 498, "pitch": 50, "duration": 6, "velocity": 64}, {"time": 504, "pitch": 52, "duration": 6, "velocity": 64}, {"time": 510, "pitch": 40, "duration": 6, "velocity": 64}, {"time": 516, "pitch": 45, "duration": 3, "velocity": 64}, {"time": 519, "pitch": 57, "duration": 3, "velocity": 64}, {"time": 522, "pitch": 55, "duration": 3, "velocity": 64}, {"time": 525, "pitch": 57, "duration": 3, "velocity": 64}, {"time": 528, "pitch": 54, "duration": 6, "velocity": 64}, {"time": 534, "pitch": 50, "duration": 6, "velocity": 64}, {"time": 540, "pitch": 55, "duration": 6, "velocity": 64}, {"time": 546, "pitch": 48, "duration": 6, "velocity": 64}, {"time": 552, "pitch": 50, "duration": 6, "velocity": 64}, {"time": 558, "pitch": 38, "duration": 6, "velocity": 64}, {"time": 564, "pitch": 43, "duration": 6, "velocity": 64}, {"time": 570, "pitch": 50, "duration": 6, "velocity": 64}, {"time": 576, "pitch": 55, "duration": 6, "velocity": 64}, {"time": 582, "pitch": 43, "duration": 6, "velocity": 64}, {"time": 588, "pitch": 45, "duration": 6, "velocity": 64}, {"time": 600, "pitch": 43, "duration": 6, "velocity": 64}, {"time": 612, "pitch": 45, "duration": 6, "velocity": 64}, {"time": 624, "pitch": 43, "duration": 6, "velocity": 64}, {"time": 636, "pitch": 45, "duration": 6, "velocity": 64}, {"time": 642, "pitch": 52, "duration": 6, "velocity": 64}, {"time": 648, "pitch": 57, "duration": 6, "velocity": 64}, {"time": 654, "pitch": 45, "duration": 6, "velocity": 64}, {"time": 660, "pitch": 47, "duration": 12, "velocity": 64}, {"time": 672, "pitch": 54, "duration": 6, "velocity": 64}, {"time": 678, "pitch": 51, "duration": 6, "velocity": 64}, {"time": 684, "pitch": 52, "duration": 6, "velocity": 64}, {"time": 690, "pitch": 57, "duration": 6, "velocity": 64}, {"time": 696, "pitch": 59, "duration": 6, "velocity": 64}, {"time": 702, "pitch": 47, "duration": 6, "velocity": 64}, {"time": 708, "pitch": 52, "duration": 12, "velocity": 64}, {"time": 732, "pitch": 48, "duration": 3, "velocity": 64}, {"time": 735, "pitch": 50, "duration": 3, "velocity": 64}, {"time": 738, "pitch": 52, "duration": 3, "velocity": 64}, {"time": 741, "pitch": 53, "duration": 3, "velocity": 64}, {"time": 744, "pitch": 55, "duration": 6, "velocity": 64}, {"time": 750, "pitch": 60, "duration": 6, "velocity": 64}, {"time": 756, "pitch": 59, "duration": 6, "velocity": 64}, {"time": 762, "pitch": 57, "duration": 6, "velocity": 64}, {"time": 768, "pitch": 55, "duration": 6, "velocity": 64}, {"time": 774, "pitch": 53, "duration": 6, "velocity": 64}, {"time": 780, "pitch": 52, "duration": 6, "velocity": 64}, {"time": 786, "pitch": 57, "duration": 6, "velocity": 64}, {"time": 792, "pitch": 50, "duration": 6, "velocity": 64}, {"time": 798, "pitch": 48, "duration": 6, "velocity": 64}, {"time": 804, "pitch": 55, "duration": 3, "velocity": 64}, {"time": 807, "pitch": 43, "duration": 3, "velocity": 64}, {"time": 810, "pitch": 55, "duration": 3, "velocity": 64}, {"time": 813, "pitch": 53, "duration": 3, "velocity": 64}, {"time": 816, "pitch": 52, "duration": 9, "velocity": 64}, {"time": 825, "pitch": 52, "duration": 3, "velocity": 64}, {"time": 828, "pitch": 53, "duration": 6, "velocity": 64}, {"time": 834, "pitch": 50, "duration": 6, "velocity": 64}, {"time": 840, "pitch": 55, "duration": 6, "velocity": 64}, {"time": 846, "pitch": 52, "duration": 6, "velocity": 64}, {"time": 852, "pitch": 57, "duration": 6, "velocity": 64}, {"time": 858, "pitch": 45, "duration": 6, "velocity": 64}, {"time": 864, "pitch": 47, "duration": 6, "velocity": 64}, {"time": 870, "pitch": 43, "duration": 6, "velocity": 64}, {"time": 876, "pitch": 48, "duration": 6, "velocity": 64}, {"time": 882, "pitch": 55, "duration": 6, "velocity": 64}, {"time": 888, "pitch": 57, "duration": 6, "velocity": 64}, {"time": 894, "pitch": 53, "duration": 6, "velocity": 64}, {"time": 900, "pitch": 55, "duration": 6, "velocity": 64}, {"time": 906, "pitch": 53, "duration": 6, "velocity": 64}, {"time": 912, "pitch": 52, "duration": 6, "velocity": 64}, {"time": 918, "pitch": 48, "duration": 6, "velocity": 64}, {"time": 924, "pitch": 53, "duration": 6, "velocity": 64}, {"time": 930, "pitch": 52, "duration": 6, "velocity": 64}, {"time": 936, "pitch": 50, "duration": 6, "velocity": 64}, {"time": 942, "pitch": 48, "duration": 6, "velocity": 64}, {"time": 948, "pitch": 47, "duration": 12, "velocity": 64}, {"time": 960, "pitch": 59, "duration": 6, "velocity": 64}, {"time": 966, "pitch": 55, "duration": 6, "velocity": 64}, {"time": 972, "pitch": 60, "duration": 6, "velocity": 64}, {"time": 978, "pitch": 53, "duration": 6, "velocity": 64}, {"time": 984, "pitch": 55, "duration": 6, "velocity": 64}, {"time": 990, "pitch": 43, "duration": 6, "velocity": 64}, {"time": 996, "pitch": 48, "duration": 12, "velocity": 64}, {"time": 1008, "pitch": 52, "duration": 6, "velocity": 64}, {"time": 1014, "pitch": 48, "duration": 6, "velocity": 64}, {"time": 1020, "pitch": 53, "duration": 6, "velocity": 64}, {"time": 1026, "pitch": 52, "duration": 6, "velocity": 64}, {"time": 1032, "pitch": 50, "duration": 6, "velocity": 64}, {"time": 1038, "pitch": 48, "duration": 6, "velocity": 64}, {"time": 1044, "pitch": 47, "duration": 12, "velocity": 64}, {"time": 1056, "pitch": 59, "duration": 6, "velocity": 64}, {"time": 1062, "pitch": 55, "duration": 6, "velocity": 64}, {"time": 1068, "pitch": 60, "duration": 6, "velocity": 64}, {"time": 1074, "pitch": 53, "duration": 6, "velocity": 64}, {"time": 1080, "pitch": 55, "duration": 6, "velocity": 64}, {"time": 1086, "pitch": 43, "duration": 6, "velocity": 64}, {"time": 1092, "pitch": 48, "duration": 12, "velocity": 64}]}]}