{"metadata": {"schema_version": "0.2"}, "resolution": 12, "tempos": [{"time": 0, "qpm": 100.0}], "tracks": [{"program": 6, "is_drum": false, "notes": [{"time": 0, "pitch": 57, "duration": 6, "velocity": 64}, {"time": 6, "pitch": 60, "duration": 6, "velocity": 64}, {"time": 12, "pitch": 59, "duration": 6, "velocity": 64}, {"time": 18, "pitch": 57, "duration": 6, "velocity": 64}, {"time": 24, "pitch": 55, "duration": 6, "velocity": 64}, {"time": 30, "pitch": 53, "duration": 6, "velocity": 64}, {"time": 36, "pitch": 52, "duration": 6, "velocity": 64}, {"time": 42, "pitch": 50, "duration": 6, "velocity": 64}, {"time": 48, "pitch": 48, "duration": 6, "velocity": 64}, {"time": 54, "pitch": 50, "duration": 6, "velocity": 64}, {"time": 60, "pitch": 52, "duration": 6, "velocity": 64}, {"time": 66, "pitch": 40, "duration": 6, "velocity": 64}, {"time": 72, "pitch": 45, "duration": 6, "velocity": 64}, {"time": 78, "pitch": 60, "duration": 6, "velocity": 64}, {"time": 84, "pitch": 59, "duration": 6, "velocity": 64}, {"time": 90, "pitch": 57, "duration": 6, "velocity": 64}, {"time": 96, "pitch": 55, "duration": 6, "velocity": 64}, {"time": 102, "pitch": 53, "duration": 6, "velocity": 64}, {"time": 108, "pitch": 52, "duration": 6, "velocity": 64}, {"time": 114, "pitch": 50, "duration": 6, "velocity": 64}, {"time": 120, "pitch": 48, "duration": 6, "velocity": 64}, {"time": 126, "pitch": 50, "duration": 6, "velocity": 64}, {"time": 132, "pitch": 52, "duration": 6, "velocity": 64}, {"time": 138, "pitch": 40, "duration": 6, "velocity": 64}, {"time": 144, "pitch": 45, "duration": 6, "velocity": 64}, {"time": 150, "pitch": 60, "duration": 6, "velocity": 64}, {"time": 156, "pitch": 59, "duration": 6, "velocity": 64}, {"time": 162, "pitch": 57, "duration": 6, "velocity": 64}, {"time": 168, "pitch": 55, "duration": 6, "velocity": 64}, {"time": 174, "pitch": 53, "duration": 6, "velocity": 64}, {"time": 180, "pitch": 52, "duration": 6, "velocity": 64}, {"time": 186, "pitch": 64, "duration": 6, "velocity": 64}, {"time": 192, "pitch": 62, "duration": 6, "velocity": 64}, {"time": 198, "pitch": 60, "duration": 6, "velocity": 64}, {"time": 204, "pitch": 59, "duration": 6, "velocity": 64}, {"time": 210, "pitch": 57, "duration": 6, "velocity": 64}, {"time": 216, "pitch": 55, "duration": 6, "velocity": 64}, {"time": 222, "pitch": 53, "duration": 6, "velocity": 64}, {"time": 228, "pitch": 52, "duration": 6, "velocity": 64}, {"time": 234, "pitch": 53, "duration": 6, "velocity": 64}, {"time": 240, "pitch": 55, "duration": 6, "velocity": 64}, {"time": 246, "pitch": 43, "duration": 6, "velocity": 64}, {"time": 252, "pitch": 48, "duration": 6, "velocity": 64}, {"time": 258, "pitch": 52, "duration": 6, "velocity": 64}, {"time": 264, "pitch": 50, "duration": 6, "velocity": 64}, {"time": 270, "pitch": 48, "duration": 6, "velocity": 64}, {"time": 276, "pitch": 47, "duration": 6, "velocity": 64}, {"time": 282, "pitch": 45, "duration": 6, "velocity": 64}, {"time": 288, "pitch": 43, "duration": 6, "velocity": 64}, {"time": 294, "pitch": 55, "duration": 6, "velocity": 64}, {"time": 300, "pitch": 53, "duration": 6, "velocity": 64}, {"time": 306, "pitch": 52, "duration": 6, "velocity": 64}, {"time": 312, "pitch": 64, "duration": 6, "velocity": 64}, {"time": 318, "pitch": 62, "duration": 6, "velocity": 64}, {"time": 324, "pitch": 60, "duration": 6, "velocity": 64}, {"time": 330, "pitch": 59, "duration": 6, "velocity": 64}, {"time": 336, "pitch": 57, "duration": 6, "velocity": 64}, {"time": 342, "pitch": 56, "duration": 6, "velocity": 64}, {"time": 348, "pitch": 54, "duration": 6, "velocity": 64}, {"time": 354, "pitch": 52, "duration": 6, "velocity": 64}, {"time": 360, "pitch": 57, "duration": 6, "velocity": 64}, {"time": 366, "pitch": 54, "duration": 6, "velocity": 64}, {"time": 372, "pitch": 55, "duration": 6, "velocity": 64}, {"time": 378, "pitch": 60, "duration": 6, "velocity": 64}, {"time": 384, "pitch": 59, "duration": 6, "velocity": 64}, {"time": 390, "pitch": 57, "duration": 6, "velocity": 64}, {"time": 396, "pitch": 59, "duration": 6, "velocity": 64}, {"time": 402, "pitch": 47, "duration": 6, "velocity": 64}, {"time": 408, "pitch": 45, "duration": 6, "velocity": 64}, {"time": 414, "pitch": 43, "duration": 6, "velocity": 64}, {"time": 420, "pitch": 55, "duration": 6, "velocity": 64}, {"time": 426, "pitch": 54, "duration": 6, "velocity": 64}, {"time": 432, "pitch": 52, "duration": 6, "velocity": 64}, {"time": 438, "pitch": 64, "duration": 6, "velocity": 64}, {"time": 444, "pitch": 62, "duration": 6, "velocity": 64}, {"time": 450, "pitch": 60, "duration": 6, "velocity": 64}, {"time": 456, "pitch": 57, "duration": 6, "velocity": 64}, {"time": 462, "pitch": 60, "duration": 6, "velocity": 64}, {"time": 468, "pitch": 51, "duration": 6, "velocity": 64}, {"time": 474, "pitch": 47, "duration": 6, "velocity": 64}, {"time": 480, "pitch": 52, "duration": 6, "velocity": 64}, {"time": 486, "pitch": 57, "duration": 6, "velocity": 64}, {"time": 492, "pitch": 59, "duration": 6, "velocity": 64}, {"time": 498, "pitch": 47, "duration": 6, "velocity": 64}, {"time": 504, "pitch": 52, "duration": 6, "velocity": 64}, {"time": 510, "pitch": 60, "duration": 6, "velocity": 64}, {"time": 516, "pitch": 59, "duration": 6, "velocity": 64}, {"time": 522, "pitch": 57, "duration": 6, "velocity": 64}, {"time": 528, "pitch": 55, "duration": 6, "velocity": 64}, {"time": 534, "pitch": 53, "duration": 6, "velocity": 64}, {"time": 540, "pitch": 52, "duration": 6, "velocity": 64}, {"time": 546, "pitch": 50, "duration": 6, "velocity": 64}, {"time": 552, "pitch": 48, "duration": 6, "velocity": 64}, {"time": 558, "pitch": 50, "duration": 6, "velocity": 64}, {"time": 564, "pitch": 52, "duration": 6, "velocity": 64}, {"time": 570, "pitch": 40, "duration": 6, "velocity": 64}, {"time": 576, "pitch": 45, "duration": 6, "velocity": 64}, {"time": 582, "pitch": 43, "duration": 6, "velocity": 64}, {"time": 588, "pitch": 41, "duration": 6, "velocity": 64}, {"time": 594, "pitch": 40, "duration": 6, "velocity": 64}, {"time": 600, "pitch": 49, "duration": 6, "velocity": 64}, {"time": 606, "pitch": 45, "duration": 6, "velocity": 64}, {"time": 612, "pitch": 50, "duration": 6, "velocity": 64}, {"time": 618, "pitch": 52, "duration": 6, "velocity": 64}, {"time": 624, "pitch": 53, "duration": 6, "velocity": 64}, {"time": 630, "pitch": 44, "duration": 12, "velocity": 64}, {"time": 642, "pitch": 56, "duration": 6, "velocity": 64}, {"time": 648, "pitch": 57, "duration": 6, "velocity": 64}, {"time": 654, "pitch": 52, "duration": 6, "velocity": 64}, {"time": 660, "pitch": 53, "duration": 6, "velocity": 64}, {"time": 666, "pitch": 50, "duration": 6, "velocity": 64}, {"time": 672, "pitch": 52, "duration": 6, "velocity": 64}, {"time": 678, "pitch": 40, "duration": 6, "velocity": 64}, {"time": 690, "pitch": 53, "duration": 6, "velocity": 64}, {"time": 696, "pitch": 50, "duration": 6, "velocity": 64}, {"time": 702, "pitch": 44, "duration": 12, "velocity": 64}, {"time": 714, "pitch": 56, "duration": 6, "velocity": 64}, {"time": 720, "pitch": 57, "duration": 6, "velocity": 64}, {"time": 726, "pitch": 45, "duration": 6, "velocity": 64}, {"time": 732, "pitch": 55, "duration": 6, "velocity": 64}, {"time": 738, "pitch": 53, "duration": 18, "velocity": 64}, {"time": 756, "pitch": 52, "duration": 18, "velocity": 64}]}]}