{"metadata": {"schema_version": "0.2"}, "resolution": 12, "tempos": [{"time": 0, "qpm": 100.0}], "tracks": [{"program": 74, "is_drum": false, "notes": [{"time": 18, "pitch": 72, "duration": 6, "velocity": 64}, {"time": 12, "pitch": 67, "duration": 6, "velocity": 64}, {"time": 12, "pitch": 69, "duration": 6, "velocity": 64}, {"time": 42, "pitch": 72, "duration": 12, "velocity": 64}, {"time": 18, "pitch": 72, "duration": 9, "velocity": 64}, {"time": 48, "pitch": 48, "duration": 6, "velocity": 64}, {"time": 78, "pitch": 72, "duration": 6, "velocity": 64}, {"time": 18, "pitch": 55, "duration": 6, "velocity": 64}, {"time": 48, "pitch": 55, "duration": 5, "velocity": 64}, {"time": 78, "pitch": 72, "duration": 6, "velocity": 64}, {"time": 60, "pitch": 71, "duration": 3, "velocity": 64}, {"time": 42, "pitch": 72, "duration": 3, "velocity": 64}, {"time": 84, "pitch": 62, "duration": 6, "velocity": 64}, {"time": 72, "pitch": 74, "duration": 3, "velocity": 64}, {"time": 84, "pitch": 55, "duration": 6, "velocity": 64}, {"time": 90, "pitch": 76, "duration": 5, "velocity": 64}, {"time": 132, "pitch": 55, "duration": 6, "velocity": 64}, {"time": 102, "pitch": 76, "duration": 3, "velocity": 64}, {"time": 84, "pitch": 70, "duration": 2, "velocity": 64}, {"time": 228, "pitch": 71, "duration": 6, "velocity": 64}, {"time": 114, "pitch": 65, "duration": 3, "velocity": 64}, {"time": 126, "pitch": 70, "duration": 6, "velocity": 64}, {"time": 126, "pitch": 55, "duration": 3, "velocity": 64}, {"time": 192, "pitch": 74, "duration": 6, "velocity": 64}, {"time": 96, "pitch": 62, "duration": 3, "velocity": 64}, {"time": 192, "pitch": 62, "duration": 3, "velocity": 64}, {"time": 264, "pitch": 64, "duration": 6, "velocity": 64}, {"time": 132, "pitch": 72, "duration": 6, "velocity": 64}, {"time": 222, "pitch": 74, "duration": 6, "velocity": 64}, {"time": 168, "pitch": 67, "duration": 6, "velocity": 64}, {"time": 150, "pitch": 67, "duration": 2, "velocity": 64}, {"time": 144, "pitch": 55, "duration": 3, "velocity": 64}, {"time": 150, "pitch": 55, "duration": 6, "velocity": 64}, {"time": 264, "pitch": 65, "duration": 3, "velocity": 64}, {"time": 138, "pitch": 48, "duration": 6, "velocity": 64}, {"time": 204, "pitch": 65, "duration": 6, "velocity": 64}, {"time": 168, "pitch": 60, "duration": 1, "velocity": 64}, {"time": 222, "pitch": 64, "duration": 3, "velocity": 64}, {"time": 132, "pitch": 65, "duration": 6, "velocity": 64}, {"time": 186, "pitch": 55, "duration": 6, "velocity": 64}, {"time": 270, "pitch": 67, "duration": 3, "velocity": 64}, {"time": 246, "pitch": 53, "duration": 6, "velocity": 64}, {"time": 198, "pitch": 65, "duration": 3, "velocity": 64}, {"time": 288, "pitch": 62, "duration": 3, "velocity": 64}, {"time": 228, "pitch": 72, "duration": 12, "velocity": 64}, {"time": 228, "pitch": 65, "duration": 3, "velocity": 64}, {"time": 168, "pitch": 76, "duration": 6, "velocity": 64}, {"time": 300, "pitch": 70, "duration": 3, "velocity": 64}, {"time": 330, "pitch": 69, "duration": 6, "velocity": 64}, {"time": 210, "pitch": 50, "duration": 6, "velocity": 64}, {"time": 258, "pitch": 67, "duration": 12, "velocity": 64}, {"time": 318, "pitch": 62, "duration": 12, "velocity": 64}, {"time": 330, "pitch": 65, "duration": 6, "velocity": 64}, {"time": 186, "pitch": 69, "duration": 6, "velocity": 64}, {"time": 348, "pitch": 72, "duration": 6, "velocity": 64}, {"time": 276, "pitch": 67, "duration": 12, "velocity": 64}, {"time": 324, "pitch": 50, "duration": 2, "velocity": 64}, {"time": 456, "pitch": 65, "duration": 6, "velocity": 64}, {"time": 258, "pitch": 72, "duration": 3, "velocity": 64}, {"time": 282, "pitch": 64, "duration": 6, "velocity": 64}, {"time": 420, "pitch": 70, "duration": 3, "velocity": 64}, {"time": 204, "pitch": 55, "duration": 2, "velocity": 64}, {"time": 396, "pitch": 67, "duration": 3, "velocity": 64}, {"time": 360, "pitch": 69, "duration": 3, "velocity": 64}, {"time": 318, "pitch": 74, "duration": 3, "velocity": 64}, {"time": 378, "pitch": 53, "duration": 6, "velocity": 64}, {"time": 204, "pitch": 76, "duration": 6, "velocity": 64}, {"time": 456, "pitch": 74, "duration": 6, "velocity": 64}, {"time": 372, "pitch": 67, "duration": 2, "velocity": 64}, {"time": 264, "pitch": 70, "duration": 2, "velocity": 64}, {"time": 402, "pitch": 72, "duration": 6, "velocity": 64}, {"time": 300, "pitch": 69, "duration": 3, "velocity": 64}, {"time": 414, "pitch": 65, "duration": 2, "velocity": 64}, {"time": 360, "pitch": 74, "duration": 6, "velocity": 64}, {"time": 216, "pitch": 60, "duration": 6, "velocity": 64}, {"time": 330, "pitch": 74, "duration": 3, "velocity": 64}, {"time": 282, "pitch": 69, "duration": 2, "velocity": 64}, {"time": 498, "pitch": 60, "duration": 3, "velocity": 64}, {"time": 330, "pitch": 65, "duration": 6, "velocity": 64}, {"time": 384, "pitch": 65, "duration": 6, "velocity": 64}, {"time": 396, "pitch": 76, "duration": 3, "velocity": 64}, {"time": 558, "pitch": 64, "duration": 6, "velocity": 64}, {"time": 396, "pitch": 60, "duration": 3, "velocity": 64}, {"time": 264, "pitch": 69, "duration": 2, "velocity": 64}, {"time": 381, "pitch": 60, "duration": 3, "velocity": 64}, {"time": 462, "pitch": 53, "duration": 2, "velocity": 64}, {"time": 396, "pitch": 60, "duration": 2, "velocity": 64}, {"time": 384, "pitch": 55, "duration": 3, "velocity": 64}, {"time": 372, "pitch": 72, "duration": 2, "velocity": 64}, {"time": 312, "pitch": 72, "duration": 3, "velocity": 64}, {"time": 360, "pitch": 55, "duration": 2, "velocity": 64}, {"time": 450, "pitch": 65, "duration": 3, "velocity": 64}, {"time": 390, "pitch": 69, "duration": 3, "velocity": 64}, {"time": 558, "pitch": 69, "duration": 2, "velocity": 64}, {"time": 390, "pitch": 76, "duration": 2, "velocity": 64}, {"time": 540, "pitch": 67, "duration": 6, "velocity": 64}, {"time": 384, "pitch": 72, "duration": 2, "velocity": 64}, {"time": 480, "pitch": 69, "duration": 2, "velocity": 64}, {"time": 396, "pitch": 55, "duration": 6, "velocity": 64}, {"time": 594, "pitch": 65, "duration": 3, "velocity": 64}, {"time": 444, "pitch": 74, "duration": 6, "velocity": 64}, {"time": 360, "pitch": 72, "duration": 2, "velocity": 64}, {"time": 312, "pitch": 50, "duration": 2, "velocity": 64}, {"time": 372, "pitch": 62, "duration": 3, "velocity": 64}, {"time": 510, "pitch": 74, "duration": 2, "velocity": 64}, {"time": 480, "pitch": 53, "duration": 3, "velocity": 64}, {"time": 438, "pitch": 74, "duration": 3, "velocity": 64}, {"time": 408, "pitch": 69, "duration": 6, "velocity": 64}, {"time": 348, "pitch": 70, "duration": 3, "velocity": 64}, {"time": 402, "pitch": 55, "duration": 2, "velocity": 64}, {"time": 378, "pitch": 72, "duration": 6, "velocity": 64}, {"time": 510, "pitch": 74, "duration": 1, "velocity": 64}, {"time": 558, "pitch": 79, "duration": 3, "velocity": 64}, {"time": 492, "pitch": 62, "duration": 2, "velocity": 64}, {"time": 480, "pitch": 72, "duration": 1, "velocity": 64}, {"time": 573, "pitch": 62, "duration": 3, "velocity": 64}, {"time": 522, "pitch": 71, "duration": 3, "velocity": 64}, {"time": 402, "pitch": 67, "duration": 2, "velocity": 64}, {"time": 408, "pitch": 72, "duration": 2, "velocity": 64}, {"time": 468, "pitch": 69, "duration": 6, "velocity": 64}, {"time": 564, "pitch": 74, "duration": 6, "velocity": 64}, {"time": 576, "pitch": 72, "duration": 3, "velocity": 64}, {"time": 438, "pitch": 74, "duration": 3, "velocity": 64}, {"time": 576, "pitch": 74, "duration": 2, "velocity": 64}, {"time": 672, "pitch": 72, "duration": 2, "velocity": 64}, {"time": 630, "pitch": 62, "duration": 6, "velocity": 64}, {"time": 582, "pitch": 55, "duration": 1, "velocity": 64}, {"time": 558, "pitch": 69, "duration": 2, "velocity": 64}, {"time": 570, "pitch": 64, "duration": 2, "velocity": 64}, {"time": 624, "pitch": 55, "duration": 3, "velocity": 64}, {"time": 588, "pitch": 55, "duration": 2, "velocity": 64}, {"time": 540, "pitch": 55, "duration": 3, "velocity": 64}, {"time": 600, "pitch": 62, "duration": 3, "velocity": 64}, {"time": 552, "pitch": 69, "duration": 1, "velocity": 64}, {"time": 582, "pitch": 74, "duration": 2, "velocity": 64}, {"time": 480, "pitch": 55, "duration": 6, "velocity": 64}, {"time": 708, "pitch": 69, "duration": 2, "velocity": 64}, {"time": 726, "pitch": 67, "duration": 11, "velocity": 64}, {"time": 642, "pitch": 67, "duration": 1, "velocity": 64}, {"time": 726, "pitch": 50, "duration": 6, "velocity": 64}, {"time": 600, "pitch": 55, "duration": 2, "velocity": 64}, {"time": 792, "pitch": 76, "duration": 3, "velocity": 64}, {"time": 654, "pitch": 52, "duration": 3, "velocity": 64}, {"time": 804, "pitch": 55, "duration": 2, "velocity": 64}, {"time": 594, "pitch": 72, "duration": 1, "velocity": 64}, {"time": 684, "pitch": 67, "duration": 3, "velocity": 64}, {"time": 744, "pitch": 69, "duration": 1, "velocity": 64}, {"time": 792, "pitch": 69, "duration": 3, "velocity": 64}, {"time": 660, "pitch": 72, "duration": 3, "velocity": 64}, {"time": 546, "pitch": 76, "duration": 2, "velocity": 64}, {"time": 798, "pitch": 72, "duration": 2, "velocity": 64}, {"time": 714, "pitch": 74, "duration": 2, "velocity": 64}, {"time": 714, "pitch": 67, "duration": 3, "velocity": 64}, {"time": 786, "pitch": 76, "duration": 1, "velocity": 64}, {"time": 708, "pitch": 60, "duration": 6, "velocity": 64}, {"time": 792, "pitch": 64, "duration": 2, "velocity": 64}, {"time": 648, "pitch": 55, "duration": 3, "velocity": 64}, {"time": 630, "pitch": 67, "duration": 3, "velocity": 64}, {"time": 600, "pitch": 72, "duration": 3, "velocity": 64}, {"time": 822, "pitch": 60, "duration": 11, "velocity": 64}, {"time": 678, "pitch": 67, "duration": 3, "velocity": 64}, {"time": 876, "pitch": 52, "duration": 6, "velocity": 64}, {"time": 744, "pitch": 76, "duration": 2, "velocity": 64}, {"time": 828, "pitch": 60, "duration": 3, "velocity": 64}, {"time": 918, "pitch": 67, "duration": 6, "velocity": 64}, {"time": 780, "pitch": 64, "duration": 6, "velocity": 64}, {"time": 900, "pitch": 74, "duration": 2, "velocity": 64}, {"time": 822, "pitch": 69, "duration": 3, "velocity": 64}, {"time": 870, "pitch": 65, "duration": 3, "velocity": 64}, {"time": 870, "pitch": 55, "duration": 3, "velocity": 64}, {"time": 888, "pitch": 72, "duration": 2, "velocity": 64}, {"time": 762, "pitch": 72, "duration": 6, "velocity": 64}, {"time": 870, "pitch": 67, "duration": 3, "velocity": 64}, {"time": 810, "pitch": 65, "duration": 6, "velocity": 64}, {"time": 828, "pitch": 64, "duration": 6, "velocity": 64}, {"time": 702, "pitch": 77, "duration": 2, "velocity": 64}, {"time": 792, "pitch": 77, "duration": 6, "velocity": 64}, {"time": 978, "pitch": 65, "duration": 3, "velocity": 64}, {"time": 768, "pitch": 67, "duration": 6, "velocity": 64}, {"time": 846, "pitch": 65, "duration": 3, "velocity": 64}, {"time": 888, "pitch": 67, "duration": 2, "velocity": 64}, {"time": 780, "pitch": 77, "duration": 3, "velocity": 64}, {"time": 792, "pitch": 60, "duration": 6, "velocity": 64}, {"time": 1026, "pitch": 67, "duration": 3, "velocity": 64}, {"time": 750, "pitch": 62, "duration": 2, "velocity": 64}, {"time": 756, "pitch": 62, "duration": 1, "velocity": 64}, {"time": 684, "pitch": 76, "duration": 1, "velocity": 64}, {"time": 888, "pitch": 70, "duration": 6, "velocity": 64}, {"time": 942, "pitch": 67, "duration": 1, "velocity": 64}, {"time": 1056, "pitch": 53, "duration": 1, "velocity": 64}, {"time": 780, "pitch": 69, "duration": 2, "velocity": 64}, {"time": 864, "pitch": 60, "duration": 3, "velocity": 64}, {"time": 1020, "pitch": 70, "duration": 6, "velocity": 64}, {"time": 966, "pitch": 72, "duration": 1, "velocity": 64}, {"time": 876, "pitch": 65, "duration": 3, "velocity": 64}, {"time": 1020, "pitch": 70, "duration": 3, "velocity": 64}, {"time": 828, "pitch": 77, "duration": 3, "velocity": 64}, {"time": 936, "pitch": 62, "duration": 2, "velocity": 64}, {"time": 912, "pitch": 60, "duration": 2, "velocity": 64}, {"time": 822, "pitch": 60, "duration": 6, "velocity": 64}, {"time": 804, "pitch": 79, "duration": 2, "velocity": 64}, {"time": 870, "pitch": 74, "duration": 3, "velocity": 64}, {"time": 1020, "pitch": 55, "duration": 3, "velocity": 64}, {"time": 990, "pitch": 69, "duration": 1, "velocity": 64}, {"time": 864, "pitch": 65, "duration": 2, "velocity": 64}, {"time": 858, "pitch": 74, "duration": 2, "velocity": 64}, {"time": 858, "pitch": 70, "duration": 3, "velocity": 64}, {"time": 894, "pitch": 77, "duration": 3, "velocity": 64}, {"time": 1074, "pitch": 76, "duration": 2, "velocity": 64}, {"time": 798, "pitch": 67, "duration": 2, "velocity": 64}, {"time": 1032, "pitch": 60, "duration": 2, "velocity": 64}, {"time": 930, "pitch": 69, "duration": 3, "velocity": 64}, {"time": 936, "pitch": 74, "duration": 3, "velocity": 64}, {"time": 840, "pitch": 60, "duration": 6, "velocity": 64}, {"time": 846, "pitch": 67, "duration": 3, "velocity": 64}, {"time": 1104, "pitch": 70, "duration": 1, "velocity": 64}, {"time": 930, "pitch": 74, "duration": 2, "velocity": 64}, {"time": 1008, "pitch": 67, "duration": 2, "velocity": 64}, {"time": 1056, "pitch": 74, "duration": 6, "velocity": 64}, {"time": 1032, "pitch": 69, "duration": 2, "velocity": 64}, {"time": 1074, "pitch": 74, "duration": 2, "velocity": 64}, {"time": 1086, "pitch": 69, "duration": 3, "velocity": 64}, {"time": 1074, "pitch": 65, "duration": 3, "velocity": 64}, {"time": 810, "pitch": 74, "duration": 1, "velocity": 64}, {"time": 996, "pitch": 67, "duration": 3, "velocity": 64}, {"time": 1050, "pitch": 55, "duration": 2, "velocity": 64}, {"time": 1134, "pitch": 76, "duration": 3, "velocity": 64}, {"time": 960, "pitch": 69, "duration": 2, "velocity": 64}, {"time": 930, "pitch": 69, "duration": 3, "velocity": 64}, {"time": 984, "pitch": 67, "duration": 2, "velocity": 64}, {"time": 882, "pitch": 64, "duration": 2, "velocity": 64}, {"time": 1164, "pitch": 65, "duration": 3, "velocity": 64}, {"time": 930, "pitch": 74, "duration": 6, "velocity": 64}, {"time": 1002, "pitch": 70, "duration": 6, "velocity": 64}, {"time": 894, "pitch": 62, "duration": 3, "velocity": 64}, {"time": 1032, "pitch": 65, "duration": 1, "velocity": 64}, {"time": 1167, "pitch": 72, "duration": 3, "velocity": 64}, {"time": 936, "pitch": 74, "duration": 6, "velocity": 64}, {"time": 936, "pitch": 60, "duration": 3, "velocity": 64}, {"time": 1050, "pitch": 72, "duration": 3, "velocity": 64}, {"time": 1074, "pitch": 74, "duration": 2, "velocity": 64}, {"time": 1020, "pitch": 69, "duration": 1, "velocity": 64}, {"time": 1224, "pitch": 79, "duration": 2, "velocity": 64}, {"time": 960, "pitch": 69, "duration": 1, "velocity": 64}, {"time": 1068, "pitch": 70, "duration": 6, "velocity": 64}, {"time": 1044, "pitch": 72, "duration": 2, "velocity": 64}, {"time": 1056, "pitch": 74, "duration": 2, "velocity": 64}, {"time": 1110, "pitch": 74, "duration": 6, "velocity": 64}, {"time": 1182, "pitch": 70, "duration": 2, "velocity": 64}, {"time": 954, "pitch": 79, "duration": 6, "velocity": 64}, {"time": 1134, "pitch": 81, "duration": 3, "velocity": 64}, {"time": 1152, "pitch": 76, "duration": 6, "velocity": 64}, {"time": 1086, "pitch": 60, "duration": 1, "velocity": 64}, {"time": 1182, "pitch": 55, "duration": 3, "velocity": 64}, {"time": 1158, "pitch": 55, "duration": 2, "velocity": 64}, {"time": 1050, "pitch": 65, "duration": 3, "velocity": 64}, {"time": 1080, "pitch": 69, "duration": 3, "velocity": 64}, {"time": 1152, "pitch": 76, "duration": 3, "velocity": 64}, {"time": 1170, "pitch": 74, "duration": 3, "velocity": 64}, {"time": 1176, "pitch": 76, "duration": 6, "velocity": 64}, {"time": 1236, "pitch": 77, "duration": 3, "velocity": 64}, {"time": 1104, "pitch": 69, "duration": 3, "velocity": 64}, {"time": 1128, "pitch": 77, "duration": 3, "velocity": 64}, {"time": 1308, "pitch": 74, "duration": 6, "velocity": 64}, {"time": 1194, "pitch": 62, "duration": 3, "velocity": 64}, {"time": 1284, "pitch": 70, "duration": 2, "velocity": 64}, {"time": 1098, "pitch": 76, "duration": 3, "velocity": 64}, {"time": 1320, "pitch": 70, "duration": 3, "velocity": 64}, {"time": 1230, "pitch": 77, "duration": 3, "velocity": 64}, {"time": 1224, "pitch": 55, "duration": 2, "velocity": 64}, {"time": 1200, "pitch": 81, "duration": 1, "velocity": 64}, {"time": 1278, "pitch": 64, "duration": 6, "velocity": 64}, {"time": 1278, "pitch": 70, "duration": 3, "velocity": 64}, {"time": 1080, "pitch": 65, "duration": 6, "velocity": 64}, {"time": 1326, "pitch": 60, "duration": 3, "velocity": 64}, {"time": 1128, "pitch": 62, "duration": 3, "velocity": 64}, {"time": 1086, "pitch": 60, "duration": 3, "velocity": 64}, {"time": 1194, "pitch": 69, "duration": 3, "velocity": 64}, {"time": 1236, "pitch": 72, "duration": 6, "velocity": 64}, {"time": 1332, "pitch": 74, "duration": 2, "velocity": 64}, {"time": 1356, "pitch": 55, "duration": 2, "velocity": 64}, {"time": 1326, "pitch": 69, "duration": 2, "velocity": 64}, {"time": 1272, "pitch": 74, "duration": 3, "velocity": 64}, {"time": 1092, "pitch": 74, "duration": 6, "velocity": 64}, {"time": 1098, "pitch": 74, "duration": 3, "velocity": 64}, {"time": 1230, "pitch": 69, "duration": 1, "velocity": 64}, {"time": 1194, "pitch": 69, "duration": 6, "velocity": 64}, {"time": 1140, "pitch": 74, "duration": 2, "velocity": 64}, {"time": 1098, "pitch": 55, "duration": 1, "velocity": 64}, {"time": 1098, "pitch": 67, "duration": 3, "velocity": 64}, {"time": 1386, "pitch": 64, "duration": 1, "velocity": 64}]}]}