{"metadata": {"schema_version": "0.2"}, "resolution": 12, "tempos": [{"time": 0, "qpm": 100.0}], "tracks": [{"program": 74, "is_drum": false, "notes": [{"time": 9, "pitch": 65, "duration": 12, "velocity": 64}, {"time": 0, "pitch": 50, "duration": 9, "velocity": 64}, {"time": 12, "pitch": 55, "duration": 6, "velocity": 64}, {"time": 21, "pitch": 55, "duration": 9, "velocity": 64}, {"time": 18, "pitch": 64, "duration": 3, "velocity": 64}, {"time": 21, "pitch": 65, "duration": 12, "velocity": 64}, {"time": 36, "pitch": 50, "duration": 3, "velocity": 64}, {"time": 48, "pitch": 67, "duration": 3, "velocity": 64}, {"time": 60, "pitch": 72, "duration": 1, "velocity": 64}, {"time": 54, "pitch": 74, "duration": 3, "velocity": 64}, {"time": 120, "pitch": 67, "duration": 9, "velocity": 64}, {"time": 60, "pitch": 72, "duration": 3, "velocity": 64}, {"time": 96, "pitch": 77, "duration": 6, "velocity": 64}, {"time": 66, "pitch": 71, "duration": 3, "velocity": 64}, {"time": 108, "pitch": 69, "duration": 9, "velocity": 64}, {"time": 90, "pitch": 67, "duration": 3, "velocity": 64}, {"time": 93, "pitch": 76, "duration": 5, "velocity": 64}, {"time": 186, "pitch": 77, "duration": 3, "velocity": 64}, {"time": 120, "pitch": 50, "duration": 3, "velocity": 64}, {"time": 72, "pitch": 72, "duration": 3, "velocity": 64}, {"time": 135, "pitch": 55, "duration": 3, "velocity": 64}, {"time": 78, "pitch": 71, "duration": 2, "velocity": 64}, {"time": 126, "pitch": 72, "duration": 2, "velocity": 64}, {"time": 111, "pitch": 71, "duration": 3, "velocity": 64}, {"time": 210, "pitch": 74, "duration": 2, "velocity": 64}, {"time": 156, "pitch": 72, "duration": 1, "velocity": 64}, {"time": 132, "pitch": 64, "duration": 6, "velocity": 64}, {"time": 90, "pitch": 55, "duration": 2, "velocity": 64}, {"time": 126, "pitch": 62, "duration": 3, "velocity": 64}, {"time": 108, "pitch": 67, "duration": 2, "velocity": 64}, {"time": 366, "pitch": 67, "duration": 2, "velocity": 64}, {"time": 138, "pitch": 67, "duration": 2, "velocity": 64}, {"time": 132, "pitch": 69, "duration": 1, "velocity": 64}, {"time": 120, "pitch": 76, "duration": 1, "velocity": 64}, {"time": 168, "pitch": 74, "duration": 2, "velocity": 64}, {"time": 180, "pitch": 72, "duration": 3, "velocity": 64}, {"time": 132, "pitch": 67, "duration": 1, "velocity": 64}, {"time": 240, "pitch": 64, "duration": 2, "velocity": 64}, {"time": 198, "pitch": 72, "duration": 6, "velocity": 64}, {"time": 123, "pitch": 74, "duration": 3, "velocity": 64}, {"time": 192, "pitch": 74, "duration": 3, "velocity": 64}, {"time": 162, "pitch": 76, "duration": 3, "velocity": 64}, {"time": 102, "pitch": 55, "duration": 3, "velocity": 64}, {"time": 168, "pitch": 67, "duration": 3, "velocity": 64}, {"time": 162, "pitch": 48, "duration": 3, "velocity": 64}, {"time": 102, "pitch": 71, "duration": 3, "velocity": 64}, {"time": 180, "pitch": 72, "duration": 2, "velocity": 64}, {"time": 138, "pitch": 64, "duration": 3, "velocity": 64}, {"time": 114, "pitch": 69, "duration": 2, "velocity": 64}, {"time": 228, "pitch": 55, "duration": 2, "velocity": 64}, {"time": 306, "pitch": 72, "duration": 2, "velocity": 64}, {"time": 132, "pitch": 69, "duration": 3, "velocity": 64}, {"time": 300, "pitch": 69, "duration": 3, "velocity": 64}, {"time": 126, "pitch": 72, "duration": 3, "velocity": 64}, {"time": 192, "pitch": 76, "duration": 3, "velocity": 64}, {"time": 174, "pitch": 67, "duration": 1, "velocity": 64}, {"time": 138, "pitch": 60, "duration": 3, "velocity": 64}, {"time": 204, "pitch": 55, "duration": 1, "velocity": 64}, {"time": 216, "pitch": 69, "duration": 1, "velocity": 64}, {"time": 174, "pitch": 72, "duration": 3, "velocity": 64}, {"time": 264, "pitch": 64, "duration": 3, "velocity": 64}, {"time": 210, "pitch": 69, "duration": 1, "velocity": 64}, {"time": 294, "pitch": 71, "duration": 1, "velocity": 64}, {"time": 372, "pitch": 69, "duration": 6, "velocity": 64}, {"time": 282, "pitch": 60, "duration": 1, "velocity": 64}, {"time": 258, "pitch": 74, "duration": 1, "velocity": 64}, {"time": 264, "pitch": 67, "duration": 2, "velocity": 64}, {"time": 180, "pitch": 65, "duration": 2, "velocity": 64}, {"time": 210, "pitch": 74, "duration": 2, "velocity": 64}, {"time": 276, "pitch": 69, "duration": 6, "velocity": 64}, {"time": 210, "pitch": 69, "duration": 3, "velocity": 64}, {"time": 336, "pitch": 69, "duration": 1, "velocity": 64}, {"time": 186, "pitch": 65, "duration": 2, "velocity": 64}, {"time": 360, "pitch": 64, "duration": 3, "velocity": 64}, {"time": 360, "pitch": 67, "duration": 1, "velocity": 64}, {"time": 288, "pitch": 69, "duration": 6, "velocity": 64}, {"time": 198, "pitch": 69, "duration": 3, "velocity": 64}, {"time": 276, "pitch": 65, "duration": 6, "velocity": 64}, {"time": 228, "pitch": 72, "duration": 1, "velocity": 64}, {"time": 180, "pitch": 50, "duration": 3, "velocity": 64}, {"time": 288, "pitch": 72, "duration": 1, "velocity": 64}, {"time": 342, "pitch": 77, "duration": 2, "velocity": 64}, {"time": 222, "pitch": 50, "duration": 3, "velocity": 64}, {"time": 348, "pitch": 64, "duration": 1, "velocity": 64}, {"time": 270, "pitch": 74, "duration": 3, "velocity": 64}, {"time": 402, "pitch": 69, "duration": 3, "velocity": 64}, {"time": 339, "pitch": 55, "duration": 3, "velocity": 64}, {"time": 267, "pitch": 72, "duration": 3, "velocity": 64}, {"time": 276, "pitch": 69, "duration": 3, "velocity": 64}, {"time": 384, "pitch": 72, "duration": 3, "velocity": 64}, {"time": 243, "pitch": 69, "duration": 2, "velocity": 64}, {"time": 537, "pitch": 65, "duration": 1, "velocity": 64}, {"time": 318, "pitch": 72, "duration": 2, "velocity": 64}, {"time": 270, "pitch": 74, "duration": 3, "velocity": 64}, {"time": 444, "pitch": 50, "duration": 1, "velocity": 64}, {"time": 318, "pitch": 50, "duration": 2, "velocity": 64}, {"time": 492, "pitch": 76, "duration": 3, "velocity": 64}, {"time": 504, "pitch": 74, "duration": 1, "velocity": 64}, {"time": 381, "pitch": 62, "duration": 3, "velocity": 64}, {"time": 411, "pitch": 71, "duration": 3, "velocity": 64}, {"time": 567, "pitch": 69, "duration": 3, "velocity": 64}, {"time": 444, "pitch": 77, "duration": 3, "velocity": 64}, {"time": 465, "pitch": 69, "duration": 2, "velocity": 64}, {"time": 588, "pitch": 64, "duration": 3, "velocity": 64}, {"time": 372, "pitch": 77, "duration": 1, "velocity": 64}, {"time": 402, "pitch": 67, "duration": 3, "velocity": 64}, {"time": 609, "pitch": 72, "duration": 2, "velocity": 64}, {"time": 549, "pitch": 76, "duration": 2, "velocity": 64}, {"time": 552, "pitch": 69, "duration": 3, "velocity": 64}, {"time": 549, "pitch": 57, "duration": 1, "velocity": 64}, {"time": 552, "pitch": 69, "duration": 3, "velocity": 64}, {"time": 498, "pitch": 72, "duration": 6, "velocity": 64}, {"time": 573, "pitch": 69, "duration": 6, "velocity": 64}, {"time": 576, "pitch": 71, "duration": 3, "velocity": 64}, {"time": 381, "pitch": 62, "duration": 2, "velocity": 64}, {"time": 543, "pitch": 67, "duration": 6, "velocity": 64}, {"time": 606, "pitch": 52, "duration": 1, "velocity": 64}, {"time": 471, "pitch": 69, "duration": 3, "velocity": 64}, {"time": 420, "pitch": 60, "duration": 3, "velocity": 64}, {"time": 552, "pitch": 74, "duration": 3, "velocity": 64}, {"time": 348, "pitch": 76, "duration": 3, "velocity": 64}, {"time": 399, "pitch": 69, "duration": 3, "velocity": 64}, {"time": 375, "pitch": 65, "duration": 3, "velocity": 64}, {"time": 594, "pitch": 72, "duration": 3, "velocity": 64}, {"time": 657, "pitch": 64, "duration": 6, "velocity": 64}, {"time": 465, "pitch": 50, "duration": 3, "velocity": 64}, {"time": 375, "pitch": 60, "duration": 2, "velocity": 64}, {"time": 615, "pitch": 74, "duration": 3, "velocity": 64}, {"time": 615, "pitch": 74, "duration": 3, "velocity": 64}, {"time": 540, "pitch": 74, "duration": 3, "velocity": 64}, {"time": 579, "pitch": 50, "duration": 3, "velocity": 64}, {"time": 627, "pitch": 74, "duration": 3, "velocity": 64}, {"time": 495, "pitch": 76, "duration": 3, "velocity": 64}, {"time": 519, "pitch": 72, "duration": 3, "velocity": 64}, {"time": 573, "pitch": 60, "duration": 1, "velocity": 64}, {"time": 567, "pitch": 65, "duration": 3, "velocity": 64}, {"time": 411, "pitch": 74, "duration": 2, "velocity": 64}, {"time": 603, "pitch": 69, "duration": 1, "velocity": 64}, {"time": 603, "pitch": 79, "duration": 3, "velocity": 64}, {"time": 609, "pitch": 72, "duration": 3, "velocity": 64}, {"time": 507, "pitch": 67, "duration": 2, "velocity": 64}, {"time": 525, "pitch": 50, "duration": 3, "velocity": 64}, {"time": 495, "pitch": 62, "duration": 1, "velocity": 64}, {"time": 477, "pitch": 71, "duration": 3, "velocity": 64}, {"time": 645, "pitch": 55, "duration": 1, "velocity": 64}, {"time": 561, "pitch": 72, "duration": 3, "velocity": 64}, {"time": 579, "pitch": 50, "duration": 3, "velocity": 64}, {"time": 609, "pitch": 55, "duration": 3, "velocity": 64}, {"time": 483, "pitch": 64, "duration": 2, "velocity": 64}, {"time": 516, "pitch": 69, "duration": 3, "velocity": 64}, {"time": 651, "pitch": 69, "duration": 3, "velocity": 64}, {"time": 609, "pitch": 72, "duration": 2, "velocity": 64}, {"time": 585, "pitch": 74, "duration": 3, "velocity": 64}, {"time": 552, "pitch": 69, "duration": 2, "velocity": 64}, {"time": 519, "pitch": 67, "duration": 1, "velocity": 64}, {"time": 741, "pitch": 60, "duration": 6, "velocity": 64}, {"time": 639, "pitch": 77, "duration": 3, "velocity": 64}, {"time": 525, "pitch": 64, "duration": 3, "velocity": 64}, {"time": 543, "pitch": 69, "duration": 1, "velocity": 64}, {"time": 546, "pitch": 77, "duration": 1, "velocity": 64}, {"time": 837, "pitch": 76, "duration": 3, "velocity": 64}, {"time": 663, "pitch": 62, "duration": 3, "velocity": 64}, {"time": 831, "pitch": 74, "duration": 3, "velocity": 64}, {"time": 783, "pitch": 69, "duration": 6, "velocity": 64}, {"time": 693, "pitch": 72, "duration": 2, "velocity": 64}, {"time": 789, "pitch": 71, "duration": 3, "velocity": 64}, {"time": 675, "pitch": 57, "duration": 3, "velocity": 64}, {"time": 861, "pitch": 69, "duration": 6, "velocity": 64}, {"time": 654, "pitch": 69, "duration": 3, "velocity": 64}, {"time": 573, "pitch": 50, "duration": 3, "velocity": 64}, {"time": 783, "pitch": 74, "duration": 3, "velocity": 64}, {"time": 621, "pitch": 71, "duration": 2, "velocity": 64}, {"time": 876, "pitch": 69, "duration": 3, "velocity": 64}, {"time": 855, "pitch": 67, "duration": 1, "velocity": 64}, {"time": 741, "pitch": 76, "duration": 3, "velocity": 64}, {"time": 831, "pitch": 62, "duration": 3, "velocity": 64}, {"time": 609, "pitch": 69, "duration": 3, "velocity": 64}, {"time": 648, "pitch": 72, "duration": 1, "velocity": 64}, {"time": 837, "pitch": 69, "duration": 3, "velocity": 64}, {"time": 648, "pitch": 52, "duration": 2, "velocity": 64}, {"time": 852, "pitch": 74, "duration": 3, "velocity": 64}, {"time": 831, "pitch": 60, "duration": 2, "velocity": 64}, {"time": 759, "pitch": 67, "duration": 3, "velocity": 64}, {"time": 903, "pitch": 72, "duration": 2, "velocity": 64}, {"time": 795, "pitch": 69, "duration": 3, "velocity": 64}, {"time": 903, "pitch": 74, "duration": 1, "velocity": 64}, {"time": 969, "pitch": 69, "duration": 3, "velocity": 64}, {"time": 876, "pitch": 67, "duration": 2, "velocity": 64}, {"time": 855, "pitch": 72, "duration": 3, "velocity": 64}, {"time": 879, "pitch": 74, "duration": 3, "velocity": 64}, {"time": 723, "pitch": 62, "duration": 3, "velocity": 64}, {"time": 1047, "pitch": 76, "duration": 3, "velocity": 64}, {"time": 897, "pitch": 72, "duration": 3, "velocity": 64}, {"time": 873, "pitch": 69, "duration": 3, "velocity": 64}, {"time": 963, "pitch": 69, "duration": 3, "velocity": 64}, {"time": 783, "pitch": 81, "duration": 2, "velocity": 64}, {"time": 753, "pitch": 79, "duration": 2, "velocity": 64}, {"time": 951, "pitch": 79, "duration": 3, "velocity": 64}, {"time": 735, "pitch": 60, "duration": 6, "velocity": 64}, {"time": 963, "pitch": 71, "duration": 3, "velocity": 64}, {"time": 921, "pitch": 79, "duration": 2, "velocity": 64}, {"time": 807, "pitch": 74, "duration": 2, "velocity": 64}, {"time": 861, "pitch": 79, "duration": 3, "velocity": 64}, {"time": 825, "pitch": 76, "duration": 3, "velocity": 64}, {"time": 1074, "pitch": 69, "duration": 3, "velocity": 64}, {"time": 822, "pitch": 55, "duration": 2, "velocity": 64}, {"time": 927, "pitch": 79, "duration": 1, "velocity": 64}, {"time": 831, "pitch": 71, "duration": 3, "velocity": 64}, {"time": 867, "pitch": 62, "duration": 3, "velocity": 64}, {"time": 969, "pitch": 69, "duration": 6, "velocity": 64}, {"time": 969, "pitch": 71, "duration": 3, "velocity": 64}, {"time": 783, "pitch": 71, "duration": 3, "velocity": 64}, {"time": 1071, "pitch": 76, "duration": 3, "velocity": 64}, {"time": 828, "pitch": 62, "duration": 3, "velocity": 64}, {"time": 981, "pitch": 55, "duration": 6, "velocity": 64}, {"time": 867, "pitch": 79, "duration": 1, "velocity": 64}, {"time": 903, "pitch": 72, "duration": 2, "velocity": 64}, {"time": 969, "pitch": 79, "duration": 6, "velocity": 64}, {"time": 885, "pitch": 62, "duration": 3, "velocity": 64}, {"time": 996, "pitch": 67, "duration": 6, "velocity": 64}, {"time": 1053, "pitch": 60, "duration": 3, "velocity": 64}, {"time": 873, "pitch": 67, "duration": 2, "velocity": 64}, {"time": 1077, "pitch": 72, "duration": 6, "velocity": 64}, {"time": 987, "pitch": 71, "duration": 3, "velocity": 64}, {"time": 1029, "pitch": 55, "duration": 3, "velocity": 64}, {"time": 915, "pitch": 76, "duration": 2, "velocity": 64}, {"time": 927, "pitch": 72, "duration": 2, "velocity": 64}, {"time": 891, "pitch": 72, "duration": 6, "velocity": 64}, {"time": 939, "pitch": 71, "duration": 3, "velocity": 64}, {"time": 972, "pitch": 72, "duration": 3, "velocity": 64}, {"time": 987, "pitch": 50, "duration": 3, "velocity": 64}, {"time": 903, "pitch": 74, "duration": 1, "velocity": 64}, {"time": 1107, "pitch": 76, "duration": 1, "velocity": 64}, {"time": 861, "pitch": 69, "duration": 3, "velocity": 64}, {"time": 1185, "pitch": 69, "duration": 2, "velocity": 64}, {"time": 915, "pitch": 69, "duration": 3, "velocity": 64}, {"time": 1161, "pitch": 67, "duration": 3, "velocity": 64}, {"time": 1071, "pitch": 65, "duration": 1, "velocity": 64}, {"time": 861, "pitch": 69, "duration": 3, "velocity": 64}, {"time": 978, "pitch": 67, "duration": 3, "velocity": 64}, {"time": 987, "pitch": 74, "duration": 6, "velocity": 64}, {"time": 999, "pitch": 50, "duration": 3, "velocity": 64}, {"time": 993, "pitch": 72, "duration": 3, "velocity": 64}, {"time": 1005, "pitch": 71, "duration": 2, "velocity": 64}, {"time": 948, "pitch": 81, "duration": 3, "velocity": 64}, {"time": 1179, "pitch": 76, "duration": 3, "velocity": 64}, {"time": 867, "pitch": 65, "duration": 6, "velocity": 64}, {"time": 1245, "pitch": 67, "duration": 3, "velocity": 64}, {"time": 1263, "pitch": 57, "duration": 3, "velocity": 64}, {"time": 1089, "pitch": 67, "duration": 3, "velocity": 64}, {"time": 1050, "pitch": 67, "duration": 3, "velocity": 64}, {"time": 1095, "pitch": 71, "duration": 2, "velocity": 64}, {"time": 1104, "pitch": 67, "duration": 1, "velocity": 64}, {"time": 1215, "pitch": 72, "duration": 1, "velocity": 64}, {"time": 1014, "pitch": 55, "duration": 2, "velocity": 64}, {"time": 975, "pitch": 71, "duration": 1, "velocity": 64}, {"time": 1176, "pitch": 60, "duration": 2, "velocity": 64}, {"time": 1155, "pitch": 65, "duration": 3, "velocity": 64}, {"time": 993, "pitch": 69, "duration": 3, "velocity": 64}, {"time": 1032, "pitch": 71, "duration": 2, "velocity": 64}, {"time": 1320, "pitch": 64, "duration": 3, "velocity": 64}, {"time": 1254, "pitch": 55, "duration": 3, "velocity": 64}, {"time": 1086, "pitch": 76, "duration": 3, "velocity": 64}, {"time": 1116, "pitch": 67, "duration": 6, "velocity": 64}, {"time": 963, "pitch": 77, "duration": 2, "velocity": 64}, {"time": 1191, "pitch": 76, "duration": 2, "velocity": 64}, {"time": 1071, "pitch": 72, "duration": 2, "velocity": 64}, {"time": 1143, "pitch": 64, "duration": 3, "velocity": 64}, {"time": 1272, "pitch": 72, "duration": 3, "velocity": 64}, {"time": 1239, "pitch": 72, "duration": 3, "velocity": 64}, {"time": 996, "pitch": 67, "duration": 1, "velocity": 64}, {"time": 1179, "pitch": 67, "duration": 1, "velocity": 64}, {"time": 1191, "pitch": 67, "duration": 2, "velocity": 64}, {"time": 1140, "pitch": 74, "duration": 1, "velocity": 64}, {"time": 1251, "pitch": 69, "duration": 2, "velocity": 64}, {"time": 1023, "pitch": 69, "duration": 3, "velocity": 64}, {"time": 918, "pitch": 71, "duration": 3, "velocity": 64}, {"time": 1011, "pitch": 50, "duration": 3, "velocity": 64}, {"time": 1065, "pitch": 79, "duration": 2, "velocity": 64}, {"time": 1248, "pitch": 69, "duration": 6, "velocity": 64}, {"time": 1173, "pitch": 76, "duration": 3, "velocity": 64}, {"time": 1023, "pitch": 74, "duration": 2, "velocity": 64}, {"time": 1323, "pitch": 72, "duration": 2, "velocity": 64}, {"time": 1305, "pitch": 76, "duration": 3, "velocity": 64}, {"time": 1029, "pitch": 69, "duration": 3, "velocity": 64}, {"time": 1071, "pitch": 74, "duration": 6, "velocity": 64}, {"time": 1071, "pitch": 65, "duration": 6, "velocity": 64}, {"time": 1089, "pitch": 72, "duration": 6, "velocity": 64}, {"time": 1347, "pitch": 72, "duration": 3, "velocity": 64}, {"time": 1371, "pitch": 72, "duration": 1, "velocity": 64}, {"time": 1035, "pitch": 71, "duration": 6, "velocity": 64}, {"time": 1188, "pitch": 81, "duration": 3, "velocity": 64}, {"time": 1275, "pitch": 72, "duration": 1, "velocity": 64}, {"time": 1152, "pitch": 79, "duration": 3, "velocity": 64}, {"time": 1041, "pitch": 79, "duration": 3, "velocity": 64}, {"time": 1257, "pitch": 81, "duration": 3, "velocity": 64}, {"time": 1269, "pitch": 76, "duration": 2, "velocity": 64}, {"time": 1215, "pitch": 69, "duration": 1, "velocity": 64}, {"time": 1212, "pitch": 71, "duration": 1, "velocity": 64}, {"time": 1323, "pitch": 79, "duration": 1, "velocity": 64}, {"time": 1281, "pitch": 72, "duration": 3, "velocity": 64}, {"time": 1185, "pitch": 55, "duration": 3, "velocity": 64}, {"time": 1335, "pitch": 76, "duration": 3, "velocity": 64}, {"time": 1371, "pitch": 64, "duration": 1, "velocity": 64}, {"time": 1371, "pitch": 64, "duration": 3, "velocity": 64}, {"time": 1272, "pitch": 79, "duration": 3, "velocity": 64}, {"time": 1569, "pitch": 65, "duration": 3, "velocity": 64}, {"time": 1269, "pitch": 71, "duration": 2, "velocity": 64}, {"time": 1257, "pitch": 60, "duration": 3, "velocity": 64}, {"time": 1209, "pitch": 67, "duration": 6, "velocity": 64}, {"time": 1203, "pitch": 76, "duration": 6, "velocity": 64}, {"time": 1278, "pitch": 81, "duration": 6, "velocity": 64}, {"time": 1257, "pitch": 69, "duration": 3, "velocity": 64}, {"time": 1161, "pitch": 72, "duration": 2, "velocity": 64}, {"time": 1227, "pitch": 71, "duration": 2, "velocity": 64}, {"time": 1332, "pitch": 74, "duration": 2, "velocity": 64}, {"time": 1497, "pitch": 67, "duration": 2, "velocity": 64}, {"time": 1533, "pitch": 69, "duration": 3, "velocity": 64}, {"time": 1299, "pitch": 71, "duration": 1, "velocity": 64}, {"time": 1269, "pitch": 72, "duration": 2, "velocity": 64}, {"time": 1341, "pitch": 71, "duration": 3, "velocity": 64}, {"time": 1356, "pitch": 74, "duration": 2, "velocity": 64}, {"time": 1587, "pitch": 69, "duration": 3, "velocity": 64}, {"time": 1341, "pitch": 67, "duration": 1, "velocity": 64}, {"time": 1347, "pitch": 76, "duration": 1, "velocity": 64}, {"time": 1341, "pitch": 62, "duration": 3, "velocity": 64}, {"time": 1635, "pitch": 65, "duration": 1, "velocity": 64}, {"time": 1467, "pitch": 71, "duration": 2, "velocity": 64}, {"time": 1299, "pitch": 79, "duration": 1, "velocity": 64}, {"time": 1371, "pitch": 67, "duration": 6, "velocity": 64}, {"time": 1377, "pitch": 64, "duration": 3, "velocity": 64}, {"time": 1296, "pitch": 69, "duration": 2, "velocity": 64}, {"time": 1317, "pitch": 69, "duration": 2, "velocity": 64}, {"time": 1260, "pitch": 67, "duration": 3, "velocity": 64}, {"time": 1527, "pitch": 72, "duration": 3, "velocity": 64}, {"time": 1230, "pitch": 79, "duration": 2, "velocity": 64}, {"time": 1407, "pitch": 81, "duration": 3, "velocity": 64}, {"time": 1467, "pitch": 62, "duration": 2, "velocity": 64}, {"time": 1242, "pitch": 67, "duration": 6, "velocity": 64}, {"time": 1455, "pitch": 74, "duration": 6, "velocity": 64}, {"time": 1617, "pitch": 60, "duration": 3, "velocity": 64}, {"time": 1542, "pitch": 64, "duration": 1, "velocity": 64}, {"time": 1467, "pitch": 67, "duration": 1, "velocity": 64}, {"time": 1305, "pitch": 65, "duration": 3, "velocity": 64}, {"time": 1590, "pitch": 76, "duration": 2, "velocity": 64}, {"time": 1659, "pitch": 69, "duration": 3, "velocity": 64}, {"time": 1407, "pitch": 74, "duration": 1, "velocity": 64}, {"time": 1695, "pitch": 76, "duration": 1, "velocity": 64}, {"time": 1665, "pitch": 72, "duration": 1, "velocity": 64}, {"time": 1563, "pitch": 62, "duration": 2, "velocity": 64}, {"time": 1251, "pitch": 72, "duration": 3, "velocity": 64}, {"time": 1629, "pitch": 71, "duration": 3, "velocity": 64}, {"time": 1587, "pitch": 76, "duration": 3, "velocity": 64}, {"time": 1497, "pitch": 76, "duration": 3, "velocity": 64}, {"time": 1395, "pitch": 67, "duration": 3, "velocity": 64}, {"time": 1602, "pitch": 64, "duration": 2, "velocity": 64}, {"time": 1539, "pitch": 72, "duration": 3, "velocity": 64}, {"time": 1458, "pitch": 67, "duration": 3, "velocity": 64}, {"time": 1371, "pitch": 60, "duration": 1, "velocity": 64}, {"time": 1599, "pitch": 76, "duration": 3, "velocity": 64}, {"time": 1602, "pitch": 67, "duration": 1, "velocity": 64}, {"time": 1413, "pitch": 79, "duration": 1, "velocity": 64}, {"time": 1569, "pitch": 64, "duration": 3, "velocity": 64}, {"time": 1446, "pitch": 81, "duration": 3, "velocity": 64}, {"time": 1530, "pitch": 72, "duration": 6, "velocity": 64}, {"time": 1602, "pitch": 76, "duration": 3, "velocity": 64}, {"time": 1341, "pitch": 76, "duration": 1, "velocity": 64}, {"time": 1362, "pitch": 62, "duration": 6, "velocity": 64}, {"time": 1296, "pitch": 71, "duration": 2, "velocity": 64}, {"time": 1443, "pitch": 65, "duration": 3, "velocity": 64}, {"time": 1623, "pitch": 62, "duration": 3, "velocity": 64}, {"time": 1647, "pitch": 67, "duration": 1, "velocity": 64}, {"time": 1650, "pitch": 76, "duration": 3, "velocity": 64}, {"time": 1323, "pitch": 74, "duration": 1, "velocity": 64}, {"time": 1638, "pitch": 62, "duration": 3, "velocity": 64}, {"time": 1698, "pitch": 76, "duration": 3, "velocity": 64}, {"time": 1314, "pitch": 76, "duration": 3, "velocity": 64}, {"time": 1491, "pitch": 76, "duration": 1, "velocity": 64}, {"time": 1611, "pitch": 69, "duration": 3, "velocity": 64}, {"time": 1578, "pitch": 76, "duration": 2, "velocity": 64}, {"time": 1599, "pitch": 65, "duration": 3, "velocity": 64}, {"time": 1725, "pitch": 55, "duration": 3, "velocity": 64}, {"time": 1449, "pitch": 71, "duration": 2, "velocity": 64}, {"time": 1698, "pitch": 74, "duration": 1, "velocity": 64}, {"time": 1527, "pitch": 71, "duration": 3, "velocity": 64}, {"time": 1521, "pitch": 69, "duration": 3, "velocity": 64}, {"time": 1491, "pitch": 60, "duration": 2, "velocity": 64}, {"time": 1557, "pitch": 72, "duration": 3, "velocity": 64}, {"time": 1551, "pitch": 64, "duration": 6, "velocity": 64}, {"time": 1614, "pitch": 62, "duration": 2, "velocity": 64}, {"time": 1557, "pitch": 60, "duration": 3, "velocity": 64}, {"time": 1470, "pitch": 69, "duration": 1, "velocity": 64}, {"time": 1530, "pitch": 69, "duration": 1, "velocity": 64}, {"time": 1446, "pitch": 62, "duration": 3, "velocity": 64}, {"time": 1713, "pitch": 71, "duration": 2, "velocity": 64}, {"time": 1671, "pitch": 81, "duration": 3, "velocity": 64}, {"time": 1623, "pitch": 62, "duration": 3, "velocity": 64}, {"time": 1587, "pitch": 60, "duration": 2, "velocity": 64}, {"time": 1638, "pitch": 65, "duration": 3, "velocity": 64}, {"time": 1698, "pitch": 76, "duration": 6, "velocity": 64}, {"time": 1551, "pitch": 72, "duration": 3, "velocity": 64}, {"time": 1695, "pitch": 60, "duration": 3, "velocity": 64}, {"time": 1482, "pitch": 74, "duration": 1, "velocity": 64}, {"time": 1623, "pitch": 74, "duration": 3, "velocity": 64}, {"time": 1575, "pitch": 69, "duration": 1, "velocity": 64}, {"time": 1626, "pitch": 71, "duration": 1, "velocity": 64}, {"time": 1701, "pitch": 69, "duration": 2, "velocity": 64}]}]}