{"metadata": {"schema_version": "0.2"}, "resolution": 12, "tempos": [{"time": 0, "qpm": 100.0}], "tracks": [{"program": 6, "is_drum": false, "notes": [{"time": 0, "pitch": 60, "duration": 3, "velocity": 64}, {"time": 3, "pitch": 59, "duration": 3, "velocity": 64}, {"time": 6, "pitch": 60, "duration": 3, "velocity": 64}, {"time": 9, "pitch": 55, "duration": 3, "velocity": 64}, {"time": 12, "pitch": 57, "duration": 3, "velocity": 64}, {"time": 15, "pitch": 55, "duration": 3, "velocity": 64}, {"time": 18, "pitch": 57, "duration": 3, "velocity": 64}, {"time": 21, "pitch": 52, "duration": 3, "velocity": 64}, {"time": 24, "pitch": 53, "duration": 3, "velocity": 64}, {"time": 27, "pitch": 52, "duration": 3, "velocity": 64}, {"time": 30, "pitch": 50, "duration": 3, "velocity": 64}, {"time": 33, "pitch": 48, "duration": 3, "velocity": 64}, {"time": 36, "pitch": 55, "duration": 3, "velocity": 64}, {"time": 39, "pitch": 57, "duration": 3, "velocity": 64}, {"time": 42, "pitch": 59, "duration": 3, "velocity": 64}, {"time": 45, "pitch": 55, "duration": 3, "velocity": 64}, {"time": 48, "pitch": 60, "duration": 3, "velocity": 64}, {"time": 51, "pitch": 59, "duration": 3, "velocity": 64}, {"time": 54, "pitch": 60, "duration": 3, "velocity": 64}, {"time": 57, "pitch": 55, "duration": 3, "velocity": 64}, {"time": 60, "pitch": 57, "duration": 3, "velocity": 64}, {"time": 63, "pitch": 55, "duration": 3, "velocity": 64}, {"time": 66, "pitch": 57, "duration": 3, "velocity": 64}, {"time": 69, "pitch": 52, "duration": 3, "velocity": 64}, {"time": 72, "pitch": 53, "duration": 3, "velocity": 64}, {"time": 75, "pitch": 52, "duration": 3, "velocity": 64}, {"time": 78, "pitch": 50, "duration": 3, "velocity": 64}, {"time": 81, "pitch": 48, "duration": 3, "velocity": 64}, {"time": 84, "pitch": 55, "duration": 3, "velocity": 64}, {"time": 87, "pitch": 57, "duration": 3, "velocity": 64}, {"time": 90, "pitch": 59, "duration": 3, "velocity": 64}, {"time": 93, "pitch": 55, "duration": 3, "velocity": 64}, {"time": 96, "pitch": 57, "duration": 3, "velocity": 64}, {"time": 99, "pitch": 62, "duration": 3, "velocity": 64}, {"time": 102, "pitch": 59, "duration": 3, "velocity": 64}, {"time": 105, "pitch": 55, "duration": 3, "velocity": 64}, {"time": 108, "pitch": 60, "duration": 3, "velocity": 64}, {"time": 111, "pitch": 48, "duration": 3, "velocity": 64}, {"time": 114, "pitch": 41, "duration": 3, "velocity": 64}, {"time": 117, "pitch": 53, "duration": 6, "velocity": 64}, {"time": 123, "pitch": 52, "duration": 2, "velocity": 64}, {"time": 125, "pitch": 53, "duration": 1, "velocity": 64}, {"time": 126, "pitch": 55, "duration": 3, "velocity": 64}, {"time": 129, "pitch": 43, "duration": 3, "velocity": 64}, {"time": 132, "pitch": 48, "duration": 3, "velocity": 64}, {"time": 135, "pitch": 50, "duration": 3, "velocity": 64}, {"time": 138, "pitch": 52, "duration": 3, "velocity": 64}, {"time": 141, "pitch": 48, "duration": 3, "velocity": 64}, {"time": 144, "pitch": 50, "duration": 3, "velocity": 64}, {"time": 147, "pitch": 55, "duration": 3, "velocity": 64}, {"time": 150, "pitch": 52, "duration": 3, "velocity": 64}, {"time": 153, "pitch": 48, "duration": 3, "velocity": 64}, {"time": 156, "pitch": 41, "duration": 3, "velocity": 64}, {"time": 159, "pitch": 53, "duration": 3, "velocity": 64}, {"time": 162, "pitch": 47, "duration": 6, "velocity": 64}, {"time": 168, "pitch": 48, "duration": 3, "velocity": 64}, {"time": 171, "pitch": 53, "duration": 3, "velocity": 64}, {"time": 174, "pitch": 55, "duration": 3, "velocity": 64}, {"time": 177, "pitch": 43, "duration": 3, "velocity": 64}, {"time": 180, "pitch": 48, "duration": 6, "velocity": 64}, {"time": 189, "pitch": 59, "duration": 3, "velocity": 64}, {"time": 192, "pitch": 57, "duration": 3, "velocity": 64}, {"time": 195, "pitch": 50, "duration": 3, "velocity": 64}, {"time": 198, "pitch": 52, "duration": 3, "velocity": 64}, {"time": 201, "pitch": 54, "duration": 3, "velocity": 64}, {"time": 204, "pitch": 55, "duration": 3, "velocity": 64}, {"time": 207, "pitch": 43, "duration": 3, "velocity": 64}, {"time": 210, "pitch": 47, "duration": 3, "velocity": 64}, {"time": 213, "pitch": 43, "duration": 3, "velocity": 64}, {"time": 216, "pitch": 48, "duration": 6, "velocity": 64}, {"time": 225, "pitch": 49, "duration": 3, "velocity": 64}, {"time": 228, "pitch": 50, "duration": 6, "velocity": 64}, {"time": 237, "pitch": 47, "duration": 3, "velocity": 64}, {"time": 240, "pitch": 52, "duration": 6, "velocity": 64}, {"time": 246, "pitch": 54, "duration": 3, "velocity": 64}, {"time": 249, "pitch": 55, "duration": 3, "velocity": 64}, {"time": 252, "pitch": 50, "duration": 6, "velocity": 64}, {"time": 258, "pitch": 47, "duration": 3, "velocity": 64}, {"time": 261, "pitch": 43, "duration": 3, "velocity": 64}, {"time": 264, "pitch": 52, "duration": 4, "velocity": 64}, {"time": 268, "pitch": 50, "duration": 2, "velocity": 64}, {"time": 270, "pitch": 48, "duration": 3, "velocity": 64}, {"time": 273, "pitch": 47, "duration": 3, "velocity": 64}, {"time": 276, "pitch": 45, "duration": 3, "velocity": 64}, {"time": 279, "pitch": 50, "duration": 3, "velocity": 64}, {"time": 282, "pitch": 52, "duration": 3, "velocity": 64}, {"time": 285, "pitch": 48, "duration": 3, "velocity": 64}, {"time": 288, "pitch": 50, "duration": 3, "velocity": 64}, {"time": 291, "pitch": 48, "duration": 3, "velocity": 64}, {"time": 294, "pitch": 50, "duration": 3, "velocity": 64}, {"time": 297, "pitch": 38, "duration": 3, "velocity": 64}, {"time": 300, "pitch": 43, "duration": 6, "velocity": 64}, {"time": 309, "pitch": 53, "duration": 3, "velocity": 64}, {"time": 312, "pitch": 52, "duration": 3, "velocity": 64}, {"time": 315, "pitch": 54, "duration": 3, "velocity": 64}, {"time": 318, "pitch": 56, "duration": 3, "velocity": 64}, {"time": 321, "pitch": 52, "duration": 3, "velocity": 64}, {"time": 324, "pitch": 57, "duration": 3, "velocity": 64}, {"time": 327, "pitch": 45, "duration": 3, "velocity": 64}, {"time": 333, "pitch": 57, "duration": 3, "velocity": 64}, {"time": 336, "pitch": 54, "duration": 3, "velocity": 64}, {"time": 339, "pitch": 47, "duration": 3, "velocity": 64}, {"time": 342, "pitch": 51, "duration": 3, "velocity": 64}, {"time": 345, "pitch": 47, "duration": 3, "velocity": 64}, {"time": 348, "pitch": 52, "duration": 9, "velocity": 64}, {"time": 357, "pitch": 55, "duration": 3, "velocity": 64}, {"time": 360, "pitch": 52, "duration": 3, "velocity": 64}, {"time": 363, "pitch": 45, "duration": 3, "velocity": 64}, {"time": 366, "pitch": 49, "duration": 3, "velocity": 64}, {"time": 369, "pitch": 45, "duration": 3, "velocity": 64}, {"time": 372, "pitch": 50, "duration": 9, "velocity": 64}, {"time": 381, "pitch": 48, "duration": 3, "velocity": 64}, {"time": 384, "pitch": 47, "duration": 6, "velocity": 64}, {"time": 390, "pitch": 46, "duration": 12, "velocity": 64}, {"time": 402, "pitch": 45, "duration": 3, "velocity": 64}, {"time": 405, "pitch": 57, "duration": 3, "velocity": 64}, {"time": 408, "pitch": 55, "duration": 3, "velocity": 64}, {"time": 411, "pitch": 57, "duration": 2, "velocity": 64}, {"time": 413, "pitch": 58, "duration": 1, "velocity": 64}, {"time": 414, "pitch": 60, "duration": 3, "velocity": 64}, {"time": 417, "pitch": 48, "duration": 3, "velocity": 64}, {"time": 420, "pitch": 53, "duration": 3, "velocity": 64}, {"time": 423, "pitch": 52, "duration": 3, "velocity": 64}, {"time": 426, "pitch": 50, "duration": 3, "velocity": 64}, {"time": 429, "pitch": 48, "duration": 3, "velocity": 64}, {"time": 432, "pitch": 47, "duration": 3, "velocity": 64}, {"time": 435, "pitch": 43, "duration": 3, "velocity": 64}, {"time": 438, "pitch": 48, "duration": 3, "velocity": 64}, {"time": 441, "pitch": 45, "duration": 3, "velocity": 64}, {"time": 444, "pitch": 43, "duration": 6, "velocity": 64}, {"time": 453, "pitch": 53, "duration": 3, "velocity": 64}, {"time": 456, "pitch": 52, "duration": 3, "velocity": 64}, {"time": 459, "pitch": 57, "duration": 3, "velocity": 64}, {"time": 462, "pitch": 50, "duration": 3, "velocity": 64}, {"time": 465, "pitch": 55, "duration": 3, "velocity": 64}, {"time": 468, "pitch": 48, "duration": 6, "velocity": 64}, {"time": 477, "pitch": 46, "duration": 3, "velocity": 64}, {"time": 480, "pitch": 45, "duration": 3, "velocity": 64}, {"time": 483, "pitch": 50, "duration": 3, "velocity": 64}, {"time": 486, "pitch": 43, "duration": 3, "velocity": 64}, {"time": 489, "pitch": 48, "duration": 3, "velocity": 64}, {"time": 492, "pitch": 53, "duration": 3, "velocity": 64}, {"time": 495, "pitch": 50, "duration": 3, "velocity": 64}, {"time": 498, "pitch": 52, "duration": 3, "velocity": 64}, {"time": 501, "pitch": 53, "duration": 3, "velocity": 64}, {"time": 504, "pitch": 55, "duration": 3, "velocity": 64}, {"time": 507, "pitch": 57, "duration": 3, "velocity": 64}, {"time": 510, "pitch": 55, "duration": 3, "velocity": 64}, {"time": 513, "pitch": 43, "duration": 3, "velocity": 64}, {"time": 516, "pitch": 48, "duration": 6, "velocity": 64}, {"time": 525, "pitch": 50, "duration": 3, "velocity": 64}, {"time": 528, "pitch": 52, "duration": 6, "velocity": 64}, {"time": 537, "pitch": 53, "duration": 3, "velocity": 64}, {"time": 540, "pitch": 55, "duration": 6, "velocity": 64}, {"time": 549, "pitch": 52, "duration": 3, "velocity": 64}, {"time": 552, "pitch": 57, "duration": 12, "velocity": 64}, {"time": 564, "pitch": 55, "duration": 12, "velocity": 64}]}]}