{"metadata": {"schema_version": "0.2"}, "resolution": 12, "tempos": [{"time": 0, "qpm": 100.0}], "tracks": [{"program": 74, "is_drum": false, "notes": [{"time": 0, "pitch": 53, "duration": 6, "velocity": 64}, {"time": 0, "pitch": 62, "duration": 3, "velocity": 64}, {"time": 6, "pitch": 53, "duration": 6, "velocity": 64}, {"time": 0, "pitch": 60, "duration": 3, "velocity": 64}, {"time": 12, "pitch": 72, "duration": 2, "velocity": 64}, {"time": 24, "pitch": 69, "duration": 3, "velocity": 64}, {"time": 60, "pitch": 72, "duration": 3, "velocity": 64}, {"time": 24, "pitch": 67, "duration": 6, "velocity": 64}, {"time": 30, "pitch": 69, "duration": 2, "velocity": 64}, {"time": 54, "pitch": 65, "duration": 2, "velocity": 64}, {"time": 48, "pitch": 64, "duration": 3, "velocity": 64}, {"time": 54, "pitch": 76, "duration": 6, "velocity": 64}, {"time": 96, "pitch": 60, "duration": 6, "velocity": 64}, {"time": 54, "pitch": 67, "duration": 5, "velocity": 64}, {"time": 54, "pitch": 57, "duration": 6, "velocity": 64}, {"time": 156, "pitch": 52, "duration": 3, "velocity": 64}, {"time": 96, "pitch": 57, "duration": 3, "velocity": 64}, {"time": 84, "pitch": 53, "duration": 3, "velocity": 64}, {"time": 72, "pitch": 74, "duration": 6, "velocity": 64}, {"time": 54, "pitch": 69, "duration": 6, "velocity": 64}, {"time": 96, "pitch": 62, "duration": 6, "velocity": 64}, {"time": 144, "pitch": 69, "duration": 6, "velocity": 64}, {"time": 120, "pitch": 67, "duration": 6, "velocity": 64}, {"time": 114, "pitch": 64, "duration": 3, "velocity": 64}, {"time": 102, "pitch": 60, "duration": 3, "velocity": 64}, {"time": 168, "pitch": 72, "duration": 3, "velocity": 64}, {"time": 108, "pitch": 67, "duration": 6, "velocity": 64}, {"time": 198, "pitch": 74, "duration": 3, "velocity": 64}, {"time": 192, "pitch": 76, "duration": 3, "velocity": 64}, {"time": 168, "pitch": 55, "duration": 3, "velocity": 64}, {"time": 150, "pitch": 60, "duration": 6, "velocity": 64}, {"time": 108, "pitch": 74, "duration": 3, "velocity": 64}, {"time": 240, "pitch": 69, "duration": 6, "velocity": 64}, {"time": 246, "pitch": 55, "duration": 3, "velocity": 64}, {"time": 168, "pitch": 76, "duration": 6, "velocity": 64}, {"time": 144, "pitch": 67, "duration": 6, "velocity": 64}, {"time": 180, "pitch": 67, "duration": 6, "velocity": 64}, {"time": 216, "pitch": 60, "duration": 3, "velocity": 64}, {"time": 180, "pitch": 60, "duration": 3, "velocity": 64}, {"time": 240, "pitch": 48, "duration": 3, "velocity": 64}, {"time": 222, "pitch": 48, "duration": 6, "velocity": 64}, {"time": 288, "pitch": 71, "duration": 3, "velocity": 64}, {"time": 168, "pitch": 67, "duration": 6, "velocity": 64}, {"time": 276, "pitch": 60, "duration": 3, "velocity": 64}, {"time": 288, "pitch": 67, "duration": 3, "velocity": 64}, {"time": 264, "pitch": 60, "duration": 3, "velocity": 64}, {"time": 204, "pitch": 69, "duration": 3, "velocity": 64}, {"time": 138, "pitch": 76, "duration": 3, "velocity": 64}, {"time": 150, "pitch": 72, "duration": 6, "velocity": 64}, {"time": 264, "pitch": 76, "duration": 3, "velocity": 64}, {"time": 354, "pitch": 65, "duration": 3, "velocity": 64}, {"time": 366, "pitch": 69, "duration": 3, "velocity": 64}, {"time": 288, "pitch": 69, "duration": 6, "velocity": 64}, {"time": 294, "pitch": 72, "duration": 6, "velocity": 64}, {"time": 234, "pitch": 60, "duration": 6, "velocity": 64}, {"time": 270, "pitch": 57, "duration": 3, "velocity": 64}, {"time": 294, "pitch": 60, "duration": 6, "velocity": 64}, {"time": 228, "pitch": 62, "duration": 3, "velocity": 64}, {"time": 282, "pitch": 60, "duration": 6, "velocity": 64}, {"time": 312, "pitch": 69, "duration": 3, "velocity": 64}, {"time": 192, "pitch": 65, "duration": 6, "velocity": 64}, {"time": 468, "pitch": 74, "duration": 3, "velocity": 64}, {"time": 258, "pitch": 60, "duration": 6, "velocity": 64}, {"time": 294, "pitch": 71, "duration": 3, "velocity": 64}, {"time": 486, "pitch": 69, "duration": 3, "velocity": 64}, {"time": 264, "pitch": 55, "duration": 6, "velocity": 64}, {"time": 318, "pitch": 65, "duration": 6, "velocity": 64}, {"time": 240, "pitch": 50, "duration": 6, "velocity": 64}, {"time": 462, "pitch": 67, "duration": 6, "velocity": 64}, {"time": 348, "pitch": 72, "duration": 3, "velocity": 64}, {"time": 444, "pitch": 64, "duration": 6, "velocity": 64}, {"time": 384, "pitch": 71, "duration": 3, "velocity": 64}, {"time": 246, "pitch": 55, "duration": 6, "velocity": 64}, {"time": 438, "pitch": 50, "duration": 3, "velocity": 64}, {"time": 294, "pitch": 67, "duration": 6, "velocity": 64}, {"time": 294, "pitch": 60, "duration": 6, "velocity": 64}, {"time": 324, "pitch": 65, "duration": 3, "velocity": 64}, {"time": 474, "pitch": 67, "duration": 3, "velocity": 64}, {"time": 432, "pitch": 62, "duration": 6, "velocity": 64}, {"time": 492, "pitch": 60, "duration": 18, "velocity": 64}, {"time": 492, "pitch": 69, "duration": 6, "velocity": 64}, {"time": 312, "pitch": 55, "duration": 3, "velocity": 64}, {"time": 390, "pitch": 69, "duration": 3, "velocity": 64}, {"time": 300, "pitch": 67, "duration": 3, "velocity": 64}, {"time": 462, "pitch": 55, "duration": 3, "velocity": 64}, {"time": 378, "pitch": 71, "duration": 6, "velocity": 64}, {"time": 360, "pitch": 71, "duration": 6, "velocity": 64}, {"time": 528, "pitch": 60, "duration": 6, "velocity": 64}, {"time": 492, "pitch": 60, "duration": 3, "velocity": 64}, {"time": 426, "pitch": 50, "duration": 3, "velocity": 64}, {"time": 498, "pitch": 65, "duration": 6, "velocity": 64}, {"time": 528, "pitch": 74, "duration": 6, "velocity": 64}, {"time": 600, "pitch": 62, "duration": 3, "velocity": 64}, {"time": 546, "pitch": 74, "duration": 6, "velocity": 64}, {"time": 414, "pitch": 71, "duration": 12, "velocity": 64}, {"time": 576, "pitch": 72, "duration": 6, "velocity": 64}, {"time": 510, "pitch": 72, "duration": 3, "velocity": 64}, {"time": 546, "pitch": 72, "duration": 3, "velocity": 64}, {"time": 588, "pitch": 69, "duration": 3, "velocity": 64}, {"time": 528, "pitch": 72, "duration": 3, "velocity": 64}, {"time": 522, "pitch": 67, "duration": 12, "velocity": 64}, {"time": 498, "pitch": 60, "duration": 6, "velocity": 64}, {"time": 540, "pitch": 62, "duration": 3, "velocity": 64}, {"time": 402, "pitch": 74, "duration": 3, "velocity": 64}, {"time": 618, "pitch": 72, "duration": 6, "velocity": 64}, {"time": 450, "pitch": 62, "duration": 3, "velocity": 64}, {"time": 432, "pitch": 69, "duration": 3, "velocity": 64}, {"time": 588, "pitch": 60, "duration": 6, "velocity": 64}, {"time": 522, "pitch": 55, "duration": 6, "velocity": 64}, {"time": 384, "pitch": 57, "duration": 3, "velocity": 64}, {"time": 552, "pitch": 72, "duration": 6, "velocity": 64}, {"time": 690, "pitch": 55, "duration": 3, "velocity": 64}, {"time": 498, "pitch": 71, "duration": 3, "velocity": 64}, {"time": 552, "pitch": 57, "duration": 3, "velocity": 64}, {"time": 528, "pitch": 69, "duration": 6, "velocity": 64}, {"time": 582, "pitch": 64, "duration": 6, "velocity": 64}, {"time": 618, "pitch": 55, "duration": 3, "velocity": 64}, {"time": 558, "pitch": 50, "duration": 6, "velocity": 64}, {"time": 438, "pitch": 69, "duration": 6, "velocity": 64}, {"time": 576, "pitch": 65, "duration": 6, "velocity": 64}, {"time": 522, "pitch": 67, "duration": 6, "velocity": 64}, {"time": 570, "pitch": 55, "duration": 3, "velocity": 64}, {"time": 594, "pitch": 62, "duration": 6, "velocity": 64}, {"time": 522, "pitch": 76, "duration": 6, "velocity": 64}, {"time": 666, "pitch": 67, "duration": 12, "velocity": 64}, {"time": 582, "pitch": 69, "duration": 3, "velocity": 64}, {"time": 492, "pitch": 72, "duration": 6, "velocity": 64}, {"time": 714, "pitch": 67, "duration": 3, "velocity": 64}, {"time": 774, "pitch": 72, "duration": 3, "velocity": 64}, {"time": 738, "pitch": 74, "duration": 3, "velocity": 64}, {"time": 690, "pitch": 64, "duration": 6, "velocity": 64}, {"time": 576, "pitch": 55, "duration": 3, "velocity": 64}, {"time": 738, "pitch": 60, "duration": 6, "velocity": 64}, {"time": 636, "pitch": 62, "duration": 6, "velocity": 64}, {"time": 594, "pitch": 65, "duration": 6, "velocity": 64}, {"time": 564, "pitch": 74, "duration": 3, "velocity": 64}, {"time": 576, "pitch": 72, "duration": 3, "velocity": 64}, {"time": 750, "pitch": 57, "duration": 6, "velocity": 64}, {"time": 696, "pitch": 64, "duration": 3, "velocity": 64}, {"time": 630, "pitch": 74, "duration": 6, "velocity": 64}, {"time": 528, "pitch": 65, "duration": 3, "velocity": 64}, {"time": 606, "pitch": 67, "duration": 12, "velocity": 64}, {"time": 624, "pitch": 72, "duration": 6, "velocity": 64}, {"time": 810, "pitch": 69, "duration": 6, "velocity": 64}, {"time": 798, "pitch": 64, "duration": 3, "velocity": 64}, {"time": 600, "pitch": 72, "duration": 3, "velocity": 64}, {"time": 744, "pitch": 65, "duration": 3, "velocity": 64}, {"time": 720, "pitch": 65, "duration": 3, "velocity": 64}, {"time": 756, "pitch": 72, "duration": 3, "velocity": 64}, {"time": 690, "pitch": 50, "duration": 3, "velocity": 64}, {"time": 600, "pitch": 76, "duration": 3, "velocity": 64}, {"time": 804, "pitch": 74, "duration": 3, "velocity": 64}, {"time": 702, "pitch": 71, "duration": 3, "velocity": 64}, {"time": 816, "pitch": 72, "duration": 12, "velocity": 64}, {"time": 786, "pitch": 71, "duration": 3, "velocity": 64}, {"time": 666, "pitch": 74, "duration": 3, "velocity": 64}, {"time": 792, "pitch": 65, "duration": 6, "velocity": 64}, {"time": 834, "pitch": 64, "duration": 6, "velocity": 64}, {"time": 564, "pitch": 71, "duration": 3, "velocity": 64}, {"time": 540, "pitch": 72, "duration": 3, "velocity": 64}, {"time": 672, "pitch": 60, "duration": 3, "velocity": 64}, {"time": 804, "pitch": 55, "duration": 3, "velocity": 64}, {"time": 852, "pitch": 67, "duration": 3, "velocity": 64}, {"time": 732, "pitch": 67, "duration": 3, "velocity": 64}, {"time": 810, "pitch": 72, "duration": 3, "velocity": 64}, {"time": 876, "pitch": 69, "duration": 3, "velocity": 64}, {"time": 690, "pitch": 72, "duration": 6, "velocity": 64}, {"time": 918, "pitch": 60, "duration": 9, "velocity": 64}, {"time": 720, "pitch": 62, "duration": 6, "velocity": 64}, {"time": 870, "pitch": 70, "duration": 6, "velocity": 64}, {"time": 624, "pitch": 62, "duration": 3, "velocity": 64}, {"time": 804, "pitch": 70, "duration": 12, "velocity": 64}, {"time": 834, "pitch": 55, "duration": 3, "velocity": 64}, {"time": 630, "pitch": 60, "duration": 3, "velocity": 64}, {"time": 810, "pitch": 60, "duration": 3, "velocity": 64}, {"time": 720, "pitch": 65, "duration": 6, "velocity": 64}, {"time": 690, "pitch": 67, "duration": 3, "velocity": 64}, {"time": 888, "pitch": 72, "duration": 3, "velocity": 64}, {"time": 912, "pitch": 60, "duration": 6, "velocity": 64}, {"time": 918, "pitch": 69, "duration": 9, "velocity": 64}, {"time": 876, "pitch": 62, "duration": 3, "velocity": 64}, {"time": 690, "pitch": 65, "duration": 3, "velocity": 64}, {"time": 954, "pitch": 71, "duration": 12, "velocity": 64}, {"time": 828, "pitch": 71, "duration": 3, "velocity": 64}, {"time": 948, "pitch": 74, "duration": 3, "velocity": 64}, {"time": 888, "pitch": 69, "duration": 12, "velocity": 64}, {"time": 810, "pitch": 74, "duration": 3, "velocity": 64}, {"time": 858, "pitch": 57, "duration": 12, "velocity": 64}, {"time": 936, "pitch": 72, "duration": 3, "velocity": 64}, {"time": 966, "pitch": 69, "duration": 3, "velocity": 64}, {"time": 894, "pitch": 67, "duration": 3, "velocity": 64}, {"time": 786, "pitch": 57, "duration": 6, "velocity": 64}, {"time": 906, "pitch": 74, "duration": 3, "velocity": 64}, {"time": 996, "pitch": 65, "duration": 3, "velocity": 64}, {"time": 750, "pitch": 72, "duration": 3, "velocity": 64}, {"time": 942, "pitch": 67, "duration": 6, "velocity": 64}, {"time": 876, "pitch": 50, "duration": 3, "velocity": 64}, {"time": 924, "pitch": 67, "duration": 9, "velocity": 64}, {"time": 918, "pitch": 71, "duration": 6, "velocity": 64}, {"time": 966, "pitch": 69, "duration": 3, "velocity": 64}, {"time": 1056, "pitch": 72, "duration": 3, "velocity": 64}, {"time": 1038, "pitch": 60, "duration": 6, "velocity": 64}, {"time": 798, "pitch": 65, "duration": 12, "velocity": 64}, {"time": 978, "pitch": 72, "duration": 3, "velocity": 64}, {"time": 1068, "pitch": 60, "duration": 3, "velocity": 64}, {"time": 942, "pitch": 62, "duration": 6, "velocity": 64}, {"time": 1110, "pitch": 74, "duration": 12, "velocity": 64}, {"time": 828, "pitch": 67, "duration": 3, "velocity": 64}, {"time": 1044, "pitch": 64, "duration": 12, "velocity": 64}, {"time": 1014, "pitch": 55, "duration": 3, "velocity": 64}, {"time": 936, "pitch": 71, "duration": 6, "velocity": 64}, {"time": 762, "pitch": 64, "duration": 6, "velocity": 64}, {"time": 1092, "pitch": 67, "duration": 3, "velocity": 64}, {"time": 1050, "pitch": 72, "duration": 6, "velocity": 64}, {"time": 918, "pitch": 69, "duration": 6, "velocity": 64}, {"time": 912, "pitch": 76, "duration": 6, "velocity": 64}, {"time": 900, "pitch": 62, "duration": 3, "velocity": 64}, {"time": 846, "pitch": 67, "duration": 3, "velocity": 64}, {"time": 1092, "pitch": 72, "duration": 3, "velocity": 64}, {"time": 1158, "pitch": 64, "duration": 12, "velocity": 64}, {"time": 1110, "pitch": 72, "duration": 3, "velocity": 64}, {"time": 1086, "pitch": 67, "duration": 3, "velocity": 64}, {"time": 1068, "pitch": 74, "duration": 3, "velocity": 64}, {"time": 984, "pitch": 69, "duration": 6, "velocity": 64}, {"time": 966, "pitch": 62, "duration": 3, "velocity": 64}, {"time": 960, "pitch": 69, "duration": 6, "velocity": 64}, {"time": 990, "pitch": 57, "duration": 6, "velocity": 64}, {"time": 972, "pitch": 57, "duration": 3, "velocity": 64}, {"time": 1230, "pitch": 67, "duration": 6, "velocity": 64}, {"time": 1008, "pitch": 57, "duration": 6, "velocity": 64}, {"time": 930, "pitch": 72, "duration": 6, "velocity": 64}, {"time": 906, "pitch": 76, "duration": 3, "velocity": 64}, {"time": 1026, "pitch": 67, "duration": 12, "velocity": 64}, {"time": 864, "pitch": 76, "duration": 9, "velocity": 64}, {"time": 996, "pitch": 69, "duration": 12, "velocity": 64}, {"time": 876, "pitch": 67, "duration": 6, "velocity": 64}, {"time": 1230, "pitch": 62, "duration": 6, "velocity": 64}, {"time": 1098, "pitch": 67, "duration": 3, "velocity": 64}, {"time": 1038, "pitch": 57, "duration": 6, "velocity": 64}, {"time": 1086, "pitch": 72, "duration": 3, "velocity": 64}, {"time": 1320, "pitch": 67, "duration": 6, "velocity": 64}, {"time": 1092, "pitch": 62, "duration": 3, "velocity": 64}, {"time": 1266, "pitch": 65, "duration": 6, "velocity": 64}, {"time": 1236, "pitch": 72, "duration": 3, "velocity": 64}, {"time": 1122, "pitch": 65, "duration": 6, "velocity": 64}, {"time": 978, "pitch": 76, "duration": 6, "velocity": 64}, {"time": 1038, "pitch": 55, "duration": 3, "velocity": 64}, {"time": 1074, "pitch": 67, "duration": 6, "velocity": 64}, {"time": 936, "pitch": 60, "duration": 12, "velocity": 64}, {"time": 1104, "pitch": 60, "duration": 6, "velocity": 64}, {"time": 1302, "pitch": 67, "duration": 12, "velocity": 64}, {"time": 1092, "pitch": 65, "duration": 6, "velocity": 64}, {"time": 1236, "pitch": 50, "duration": 6, "velocity": 64}, {"time": 1338, "pitch": 50, "duration": 6, "velocity": 64}, {"time": 1296, "pitch": 69, "duration": 6, "velocity": 64}, {"time": 972, "pitch": 72, "duration": 6, "velocity": 64}, {"time": 960, "pitch": 67, "duration": 3, "velocity": 64}, {"time": 1152, "pitch": 67, "duration": 3, "velocity": 64}, {"time": 966, "pitch": 69, "duration": 3, "velocity": 64}, {"time": 1086, "pitch": 67, "duration": 6, "velocity": 64}, {"time": 1104, "pitch": 55, "duration": 3, "velocity": 64}, {"time": 1410, "pitch": 65, "duration": 6, "velocity": 64}, {"time": 1122, "pitch": 74, "duration": 6, "velocity": 64}, {"time": 1464, "pitch": 57, "duration": 6, "velocity": 64}, {"time": 1278, "pitch": 57, "duration": 6, "velocity": 64}, {"time": 1302, "pitch": 60, "duration": 6, "velocity": 64}, {"time": 1098, "pitch": 64, "duration": 12, "velocity": 64}, {"time": 1416, "pitch": 74, "duration": 6, "velocity": 64}, {"time": 1164, "pitch": 64, "duration": 6, "velocity": 64}, {"time": 1326, "pitch": 67, "duration": 3, "velocity": 64}, {"time": 1158, "pitch": 60, "duration": 3, "velocity": 64}, {"time": 978, "pitch": 69, "duration": 3, "velocity": 64}, {"time": 1422, "pitch": 50, "duration": 6, "velocity": 64}, {"time": 1410, "pitch": 72, "duration": 3, "velocity": 64}, {"time": 1374, "pitch": 71, "duration": 9, "velocity": 64}, {"time": 1422, "pitch": 67, "duration": 6, "velocity": 64}, {"time": 1242, "pitch": 67, "duration": 3, "velocity": 64}, {"time": 1446, "pitch": 74, "duration": 3, "velocity": 64}, {"time": 1302, "pitch": 67, "duration": 9, "velocity": 64}, {"time": 1320, "pitch": 72, "duration": 3, "velocity": 64}, {"time": 1050, "pitch": 74, "duration": 12, "velocity": 64}, {"time": 1320, "pitch": 67, "duration": 6, "velocity": 64}, {"time": 1362, "pitch": 55, "duration": 3, "velocity": 64}, {"time": 1086, "pitch": 62, "duration": 3, "velocity": 64}, {"time": 1260, "pitch": 74, "duration": 6, "velocity": 64}, {"time": 1164, "pitch": 64, "duration": 6, "velocity": 64}, {"time": 1164, "pitch": 69, "duration": 6, "velocity": 64}, {"time": 1302, "pitch": 62, "duration": 3, "velocity": 64}, {"time": 1470, "pitch": 64, "duration": 6, "velocity": 64}, {"time": 1362, "pitch": 55, "duration": 6, "velocity": 64}, {"time": 1428, "pitch": 60, "duration": 9, "velocity": 64}]}]}