{"metadata": {"schema_version": "0.2"}, "resolution": 12, "tempos": [{"time": 0, "qpm": 100.0}], "tracks": [{"program": 74, "is_drum": false, "notes": [{"time": 0, "pitch": 67, "duration": 6, "velocity": 64}, {"time": 18, "pitch": 72, "duration": 6, "velocity": 64}, {"time": 24, "pitch": 67, "duration": 6, "velocity": 64}, {"time": 12, "pitch": 72, "duration": 2, "velocity": 64}, {"time": 18, "pitch": 72, "duration": 3, "velocity": 64}, {"time": 24, "pitch": 67, "duration": 3, "velocity": 64}, {"time": 24, "pitch": 52, "duration": 3, "velocity": 64}, {"time": 24, "pitch": 64, "duration": 6, "velocity": 64}, {"time": 36, "pitch": 55, "duration": 6, "velocity": 64}, {"time": 60, "pitch": 74, "duration": 9, "velocity": 64}, {"time": 96, "pitch": 72, "duration": 3, "velocity": 64}, {"time": 42, "pitch": 72, "duration": 2, "velocity": 64}, {"time": 84, "pitch": 50, "duration": 6, "velocity": 64}, {"time": 96, "pitch": 57, "duration": 3, "velocity": 64}, {"time": 114, "pitch": 55, "duration": 3, "velocity": 64}, {"time": 84, "pitch": 72, "duration": 6, "velocity": 64}, {"time": 90, "pitch": 69, "duration": 6, "velocity": 64}, {"time": 102, "pitch": 69, "duration": 12, "velocity": 64}, {"time": 96, "pitch": 74, "duration": 6, "velocity": 64}, {"time": 138, "pitch": 65, "duration": 6, "velocity": 64}, {"time": 114, "pitch": 71, "duration": 3, "velocity": 64}, {"time": 60, "pitch": 60, "duration": 12, "velocity": 64}, {"time": 192, "pitch": 67, "duration": 3, "velocity": 64}, {"time": 144, "pitch": 57, "duration": 6, "velocity": 64}, {"time": 180, "pitch": 53, "duration": 12, "velocity": 64}, {"time": 138, "pitch": 50, "duration": 6, "velocity": 64}, {"time": 192, "pitch": 65, "duration": 6, "velocity": 64}, {"time": 174, "pitch": 67, "duration": 6, "velocity": 64}, {"time": 156, "pitch": 60, "duration": 12, "velocity": 64}, {"time": 108, "pitch": 57, "duration": 6, "velocity": 64}, {"time": 108, "pitch": 55, "duration": 12, "velocity": 64}, {"time": 240, "pitch": 67, "duration": 6, "velocity": 64}, {"time": 216, "pitch": 64, "duration": 3, "velocity": 64}, {"time": 210, "pitch": 72, "duration": 6, "velocity": 64}, {"time": 258, "pitch": 69, "duration": 3, "velocity": 64}, {"time": 222, "pitch": 67, "duration": 6, "velocity": 64}, {"time": 156, "pitch": 62, "duration": 3, "velocity": 64}, {"time": 192, "pitch": 74, "duration": 12, "velocity": 64}, {"time": 258, "pitch": 69, "duration": 3, "velocity": 64}, {"time": 174, "pitch": 64, "duration": 9, "velocity": 64}, {"time": 222, "pitch": 72, "duration": 12, "velocity": 64}, {"time": 300, "pitch": 50, "duration": 3, "velocity": 64}, {"time": 330, "pitch": 53, "duration": 12, "velocity": 64}, {"time": 414, "pitch": 55, "duration": 6, "velocity": 64}, {"time": 408, "pitch": 60, "duration": 9, "velocity": 64}, {"time": 228, "pitch": 67, "duration": 9, "velocity": 64}, {"time": 282, "pitch": 72, "duration": 6, "velocity": 64}, {"time": 192, "pitch": 62, "duration": 3, "velocity": 64}, {"time": 180, "pitch": 69, "duration": 3, "velocity": 64}, {"time": 252, "pitch": 62, "duration": 6, "velocity": 64}, {"time": 372, "pitch": 70, "duration": 3, "velocity": 64}, {"time": 456, "pitch": 58, "duration": 3, "velocity": 64}, {"time": 306, "pitch": 58, "duration": 3, "velocity": 64}, {"time": 294, "pitch": 60, "duration": 3, "velocity": 64}, {"time": 264, "pitch": 53, "duration": 12, "velocity": 64}, {"time": 336, "pitch": 53, "duration": 6, "velocity": 64}, {"time": 468, "pitch": 67, "duration": 12, "velocity": 64}, {"time": 288, "pitch": 74, "duration": 3, "velocity": 64}, {"time": 510, "pitch": 62, "duration": 3, "velocity": 64}, {"time": 396, "pitch": 53, "duration": 6, "velocity": 64}, {"time": 402, "pitch": 67, "duration": 6, "velocity": 64}, {"time": 444, "pitch": 70, "duration": 6, "velocity": 64}, {"time": 522, "pitch": 65, "duration": 3, "velocity": 64}, {"time": 258, "pitch": 53, "duration": 6, "velocity": 64}, {"time": 336, "pitch": 55, "duration": 6, "velocity": 64}, {"time": 426, "pitch": 62, "duration": 3, "velocity": 64}, {"time": 444, "pitch": 65, "duration": 6, "velocity": 64}, {"time": 342, "pitch": 53, "duration": 9, "velocity": 64}, {"time": 414, "pitch": 65, "duration": 3, "velocity": 64}, {"time": 504, "pitch": 57, "duration": 3, "velocity": 64}, {"time": 354, "pitch": 60, "duration": 3, "velocity": 64}, {"time": 384, "pitch": 64, "duration": 3, "velocity": 64}, {"time": 420, "pitch": 67, "duration": 3, "velocity": 64}, {"time": 480, "pitch": 57, "duration": 6, "velocity": 64}, {"time": 438, "pitch": 72, "duration": 6, "velocity": 64}, {"time": 576, "pitch": 55, "duration": 6, "velocity": 64}, {"time": 402, "pitch": 74, "duration": 12, "velocity": 64}, {"time": 432, "pitch": 70, "duration": 3, "velocity": 64}, {"time": 486, "pitch": 74, "duration": 6, "velocity": 64}, {"time": 528, "pitch": 50, "duration": 3, "velocity": 64}, {"time": 480, "pitch": 67, "duration": 3, "velocity": 64}, {"time": 582, "pitch": 60, "duration": 6, "velocity": 64}, {"time": 582, "pitch": 62, "duration": 12, "velocity": 64}, {"time": 444, "pitch": 62, "duration": 3, "velocity": 64}, {"time": 504, "pitch": 65, "duration": 3, "velocity": 64}, {"time": 618, "pitch": 69, "duration": 9, "velocity": 64}, {"time": 420, "pitch": 72, "duration": 3, "velocity": 64}, {"time": 456, "pitch": 74, "duration": 3, "velocity": 64}, {"time": 600, "pitch": 70, "duration": 3, "velocity": 64}, {"time": 708, "pitch": 67, "duration": 3, "velocity": 64}, {"time": 636, "pitch": 50, "duration": 3, "velocity": 64}, {"time": 642, "pitch": 67, "duration": 6, "velocity": 64}, {"time": 738, "pitch": 67, "duration": 6, "velocity": 64}, {"time": 672, "pitch": 69, "duration": 3, "velocity": 64}, {"time": 636, "pitch": 58, "duration": 3, "velocity": 64}, {"time": 594, "pitch": 55, "duration": 3, "velocity": 64}, {"time": 732, "pitch": 64, "duration": 12, "velocity": 64}, {"time": 684, "pitch": 55, "duration": 6, "velocity": 64}, {"time": 594, "pitch": 55, "duration": 3, "velocity": 64}, {"time": 558, "pitch": 55, "duration": 3, "velocity": 64}, {"time": 780, "pitch": 67, "duration": 3, "velocity": 64}, {"time": 762, "pitch": 65, "duration": 3, "velocity": 64}, {"time": 804, "pitch": 50, "duration": 3, "velocity": 64}, {"time": 792, "pitch": 53, "duration": 6, "velocity": 64}, {"time": 744, "pitch": 55, "duration": 3, "velocity": 64}, {"time": 690, "pitch": 57, "duration": 12, "velocity": 64}, {"time": 726, "pitch": 62, "duration": 6, "velocity": 64}, {"time": 672, "pitch": 58, "duration": 9, "velocity": 64}, {"time": 684, "pitch": 58, "duration": 3, "velocity": 64}, {"time": 822, "pitch": 65, "duration": 3, "velocity": 64}, {"time": 720, "pitch": 70, "duration": 3, "velocity": 64}, {"time": 840, "pitch": 67, "duration": 6, "velocity": 64}, {"time": 672, "pitch": 72, "duration": 6, "velocity": 64}, {"time": 738, "pitch": 60, "duration": 6, "velocity": 64}, {"time": 900, "pitch": 53, "duration": 6, "velocity": 64}, {"time": 858, "pitch": 64, "duration": 3, "velocity": 64}, {"time": 972, "pitch": 57, "duration": 9, "velocity": 64}, {"time": 720, "pitch": 70, "duration": 6, "velocity": 64}, {"time": 744, "pitch": 62, "duration": 6, "velocity": 64}, {"time": 696, "pitch": 74, "duration": 6, "velocity": 64}, {"time": 780, "pitch": 67, "duration": 3, "velocity": 64}, {"time": 918, "pitch": 70, "duration": 3, "velocity": 64}, {"time": 720, "pitch": 67, "duration": 9, "velocity": 64}, {"time": 816, "pitch": 67, "duration": 9, "velocity": 64}, {"time": 744, "pitch": 64, "duration": 9, "velocity": 64}, {"time": 816, "pitch": 65, "duration": 12, "velocity": 64}, {"time": 792, "pitch": 60, "duration": 3, "velocity": 64}, {"time": 978, "pitch": 67, "duration": 6, "velocity": 64}, {"time": 990, "pitch": 62, "duration": 3, "velocity": 64}, {"time": 768, "pitch": 62, "duration": 3, "velocity": 64}, {"time": 930, "pitch": 57, "duration": 6, "velocity": 64}, {"time": 804, "pitch": 69, "duration": 6, "velocity": 64}, {"time": 900, "pitch": 57, "duration": 6, "velocity": 64}, {"time": 1014, "pitch": 60, "duration": 3, "velocity": 64}, {"time": 900, "pitch": 55, "duration": 9, "velocity": 64}, {"time": 732, "pitch": 69, "duration": 3, "velocity": 64}, {"time": 882, "pitch": 65, "duration": 12, "velocity": 64}, {"time": 816, "pitch": 55, "duration": 9, "velocity": 64}, {"time": 834, "pitch": 55, "duration": 9, "velocity": 64}, {"time": 1080, "pitch": 67, "duration": 3, "velocity": 64}, {"time": 942, "pitch": 74, "duration": 3, "velocity": 64}, {"time": 864, "pitch": 74, "duration": 6, "velocity": 64}, {"time": 966, "pitch": 58, "duration": 6, "velocity": 64}, {"time": 798, "pitch": 53, "duration": 6, "velocity": 64}, {"time": 834, "pitch": 65, "duration": 3, "velocity": 64}, {"time": 1086, "pitch": 50, "duration": 12, "velocity": 64}, {"time": 930, "pitch": 55, "duration": 9, "velocity": 64}, {"time": 918, "pitch": 60, "duration": 3, "velocity": 64}, {"time": 972, "pitch": 74, "duration": 3, "velocity": 64}, {"time": 744, "pitch": 67, "duration": 3, "velocity": 64}, {"time": 1032, "pitch": 57, "duration": 12, "velocity": 64}, {"time": 1044, "pitch": 65, "duration": 3, "velocity": 64}, {"time": 972, "pitch": 53, "duration": 3, "velocity": 64}, {"time": 1008, "pitch": 60, "duration": 3, "velocity": 64}, {"time": 1026, "pitch": 70, "duration": 3, "velocity": 64}, {"time": 1020, "pitch": 62, "duration": 6, "velocity": 64}, {"time": 1038, "pitch": 60, "duration": 3, "velocity": 64}, {"time": 810, "pitch": 74, "duration": 6, "velocity": 64}, {"time": 1146, "pitch": 55, "duration": 6, "velocity": 64}, {"time": 888, "pitch": 57, "duration": 12, "velocity": 64}]}]}