{"metadata": {"schema_version": "0.2"}, "resolution": 12, "tempos": [{"time": 0, "qpm": 100.0}], "tracks": [{"program": 6, "is_drum": false, "notes": [{"time": 0, "pitch": 60, "duration": 3, "velocity": 64}, {"time": 3, "pitch": 62, "duration": 3, "velocity": 64}, {"time": 6, "pitch": 55, "duration": 3, "velocity": 64}, {"time": 9, "pitch": 64, "duration": 3, "velocity": 64}, {"time": 12, "pitch": 52, "duration": 3, "velocity": 64}, {"time": 18, "pitch": 53, "duration": 3, "velocity": 64}, {"time": 21, "pitch": 50, "duration": 3, "velocity": 64}, {"time": 24, "pitch": 55, "duration": 3, "velocity": 64}, {"time": 27, "pitch": 52, "duration": 3, "velocity": 64}, {"time": 30, "pitch": 48, "duration": 3, "velocity": 64}, {"time": 36, "pitch": 57, "duration": 3, "velocity": 64}, {"time": 39, "pitch": 55, "duration": 3, "velocity": 64}, {"time": 45, "pitch": 53, "duration": 3, "velocity": 64}, {"time": 48, "pitch": 52, "duration": 3, "velocity": 64}, {"time": 54, "pitch": 50, "duration": 3, "velocity": 64}, {"time": 57, "pitch": 52, "duration": 3, "velocity": 64}, {"time": 60, "pitch": 48, "duration": 3, "velocity": 64}, {"time": 63, "pitch": 55, "duration": 1, "velocity": 64}, {"time": 64, "pitch": 54, "duration": 2, "velocity": 64}, {"time": 66, "pitch": 55, "duration": 2, "velocity": 64}, {"time": 68, "pitch": 57, "duration": 1, "velocity": 64}, {"time": 69, "pitch": 59, "duration": 1, "velocity": 64}, {"time": 70, "pitch": 55, "duration": 2, "velocity": 64}, {"time": 72, "pitch": 60, "duration": 2, "velocity": 64}, {"time": 74, "pitch": 55, "duration": 1, "velocity": 64}, {"time": 75, "pitch": 62, "duration": 1, "velocity": 64}, {"time": 76, "pitch": 60, "duration": 2, "velocity": 64}, {"time": 78, "pitch": 62, "duration": 2, "velocity": 64}, {"time": 80, "pitch": 55, "duration": 1, "velocity": 64}, {"time": 81, "pitch": 64, "duration": 1, "velocity": 64}, {"time": 82, "pitch": 62, "duration": 2, "velocity": 64}, {"time": 84, "pitch": 60, "duration": 2, "velocity": 64}, {"time": 86, "pitch": 62, "duration": 1, "velocity": 64}, {"time": 87, "pitch": 64, "duration": 1, "velocity": 64}, {"time": 88, "pitch": 60, "duration": 2, "velocity": 64}, {"time": 90, "pitch": 65, "duration": 2, "velocity": 64}, {"time": 92, "pitch": 62, "duration": 1, "velocity": 64}, {"time": 93, "pitch": 67, "duration": 1, "velocity": 64}, {"time": 94, "pitch": 65, "duration": 2, "velocity": 64}, {"time": 96, "pitch": 64, "duration": 2, "velocity": 64}, {"time": 98, "pitch": 62, "duration": 1, "velocity": 64}, {"time": 99, "pitch": 64, "duration": 1, "velocity": 64}, {"time": 100, "pitch": 62, "duration": 2, "velocity": 64}, {"time": 102, "pitch": 60, "duration": 2, "velocity": 64}, {"time": 104, "pitch": 59, "duration": 1, "velocity": 64}, {"time": 105, "pitch": 57, "duration": 1, "velocity": 64}, {"time": 106, "pitch": 55, "duration": 2, "velocity": 64}, {"time": 108, "pitch": 57, "duration": 2, "velocity": 64}, {"time": 110, "pitch": 55, "duration": 1, "velocity": 64}, {"time": 111, "pitch": 53, "duration": 1, "velocity": 64}, {"time": 112, "pitch": 52, "duration": 2, "velocity": 64}, {"time": 114, "pitch": 50, "duration": 2, "velocity": 64}, {"time": 116, "pitch": 48, "duration": 1, "velocity": 64}, {"time": 117, "pitch": 50, "duration": 3, "velocity": 64}, {"time": 120, "pitch": 55, "duration": 3, "velocity": 64}, {"time": 123, "pitch": 60, "duration": 3, "velocity": 64}, {"time": 126, "pitch": 53, "duration": 3, "velocity": 64}, {"time": 129, "pitch": 55, "duration": 3, "velocity": 64}, {"time": 132, "pitch": 43, "duration": 3, "velocity": 64}, {"time": 135, "pitch": 48, "duration": 9, "velocity": 64}, {"time": 144, "pitch": 45, "duration": 2, "velocity": 64}, {"time": 146, "pitch": 57, "duration": 1, "velocity": 64}, {"time": 147, "pitch": 56, "duration": 1, "velocity": 64}, {"time": 148, "pitch": 54, "duration": 2, "velocity": 64}, {"time": 150, "pitch": 56, "duration": 2, "velocity": 64}, {"time": 152, "pitch": 52, "duration": 1, "velocity": 64}, {"time": 153, "pitch": 45, "duration": 1, "velocity": 64}, {"time": 154, "pitch": 57, "duration": 2, "velocity": 64}, {"time": 156, "pitch": 56, "duration": 2, "velocity": 64}, {"time": 158, "pitch": 54, "duration": 1, "velocity": 64}, {"time": 159, "pitch": 56, "duration": 1, "velocity": 64}, {"time": 160, "pitch": 52, "duration": 2, "velocity": 64}, {"time": 162, "pitch": 45, "duration": 2, "velocity": 64}, {"time": 164, "pitch": 57, "duration": 1, "velocity": 64}, {"time": 165, "pitch": 56, "duration": 1, "velocity": 64}, {"time": 166, "pitch": 54, "duration": 2, "velocity": 64}, {"time": 168, "pitch": 56, "duration": 2, "velocity": 64}, {"time": 170, "pitch": 52, "duration": 1, "velocity": 64}, {"time": 171, "pitch": 57, "duration": 1, "velocity": 64}, {"time": 172, "pitch": 56, "duration": 2, "velocity": 64}, {"time": 174, "pitch": 57, "duration": 2, "velocity": 64}, {"time": 176, "pitch": 59, "duration": 1, "velocity": 64}, {"time": 177, "pitch": 60, "duration": 1, "velocity": 64}, {"time": 178, "pitch": 57, "duration": 2, "velocity": 64}, {"time": 180, "pitch": 50, "duration": 2, "velocity": 64}, {"time": 182, "pitch": 62, "duration": 1, "velocity": 64}, {"time": 183, "pitch": 61, "duration": 1, "velocity": 64}, {"time": 184, "pitch": 59, "duration": 2, "velocity": 64}, {"time": 186, "pitch": 61, "duration": 2, "velocity": 64}, {"time": 188, "pitch": 57, "duration": 1, "velocity": 64}, {"time": 189, "pitch": 50, "duration": 1, "velocity": 64}, {"time": 190, "pitch": 62, "duration": 2, "velocity": 64}, {"time": 192, "pitch": 61, "duration": 2, "velocity": 64}, {"time": 194, "pitch": 59, "duration": 1, "velocity": 64}, {"time": 195, "pitch": 61, "duration": 1, "velocity": 64}, {"time": 196, "pitch": 57, "duration": 2, "velocity": 64}, {"time": 198, "pitch": 50, "duration": 2, "velocity": 64}, {"time": 200, "pitch": 62, "duration": 1, "velocity": 64}, {"time": 201, "pitch": 61, "duration": 1, "velocity": 64}, {"time": 202, "pitch": 59, "duration": 2, "velocity": 64}, {"time": 204, "pitch": 61, "duration": 2, "velocity": 64}, {"time": 206, "pitch": 57, "duration": 1, "velocity": 64}, {"time": 207, "pitch": 62, "duration": 1, "velocity": 64}, {"time": 208, "pitch": 57, "duration": 2, "velocity": 64}, {"time": 210, "pitch": 62, "duration": 2, "velocity": 64}, {"time": 212, "pitch": 60, "duration": 1, "velocity": 64}, {"time": 213, "pitch": 59, "duration": 1, "velocity": 64}, {"time": 214, "pitch": 57, "duration": 2, "velocity": 64}, {"time": 216, "pitch": 55, "duration": 2, "velocity": 64}, {"time": 218, "pitch": 54, "duration": 1, "velocity": 64}, {"time": 219, "pitch": 55, "duration": 1, "velocity": 64}, {"time": 220, "pitch": 57, "duration": 2, "velocity": 64}, {"time": 222, "pitch": 59, "duration": 2, "velocity": 64}, {"time": 224, "pitch": 55, "duration": 1, "velocity": 64}, {"time": 225, "pitch": 60, "duration": 1, "velocity": 64}, {"time": 226, "pitch": 55, "duration": 2, "velocity": 64}, {"time": 228, "pitch": 60, "duration": 2, "velocity": 64}, {"time": 230, "pitch": 59, "duration": 1, "velocity": 64}, {"time": 231, "pitch": 57, "duration": 1, "velocity": 64}, {"time": 232, "pitch": 55, "duration": 2, "velocity": 64}, {"time": 234, "pitch": 54, "duration": 2, "velocity": 64}, {"time": 236, "pitch": 52, "duration": 1, "velocity": 64}, {"time": 237, "pitch": 54, "duration": 1, "velocity": 64}, {"time": 238, "pitch": 55, "duration": 2, "velocity": 64}, {"time": 240, "pitch": 57, "duration": 2, "velocity": 64}, {"time": 242, "pitch": 54, "duration": 1, "velocity": 64}, {"time": 243, "pitch": 59, "duration": 1, "velocity": 64}, {"time": 244, "pitch": 54, "duration": 2, "velocity": 64}, {"time": 246, "pitch": 59, "duration": 2, "velocity": 64}, {"time": 248, "pitch": 57, "duration": 1, "velocity": 64}, {"time": 249, "pitch": 55, "duration": 1, "velocity": 64}, {"time": 250, "pitch": 54, "duration": 2, "velocity": 64}, {"time": 252, "pitch": 52, "duration": 2, "velocity": 64}, {"time": 254, "pitch": 64, "duration": 1, "velocity": 64}, {"time": 255, "pitch": 63, "duration": 1, "velocity": 64}, {"time": 256, "pitch": 61, "duration": 2, "velocity": 64}, {"time": 258, "pitch": 63, "duration": 2, "velocity": 64}, {"time": 260, "pitch": 59, "duration": 1, "velocity": 64}, {"time": 261, "pitch": 52, "duration": 1, "velocity": 64}, {"time": 262, "pitch": 64, "duration": 2, "velocity": 64}, {"time": 264, "pitch": 63, "duration": 2, "velocity": 64}, {"time": 266, "pitch": 61, "duration": 1, "velocity": 64}, {"time": 267, "pitch": 63, "duration": 1, "velocity": 64}, {"time": 268, "pitch": 59, "duration": 2, "velocity": 64}, {"time": 270, "pitch": 52, "duration": 2, "velocity": 64}, {"time": 272, "pitch": 64, "duration": 1, "velocity": 64}, {"time": 273, "pitch": 63, "duration": 1, "velocity": 64}, {"time": 274, "pitch": 61, "duration": 2, "velocity": 64}, {"time": 276, "pitch": 63, "duration": 2, "velocity": 64}, {"time": 278, "pitch": 59, "duration": 1, "velocity": 64}, {"time": 279, "pitch": 52, "duration": 1, "velocity": 64}, {"time": 280, "pitch": 64, "duration": 2, "velocity": 64}, {"time": 282, "pitch": 63, "duration": 2, "velocity": 64}, {"time": 284, "pitch": 61, "duration": 1, "velocity": 64}, {"time": 285, "pitch": 63, "duration": 1, "velocity": 64}, {"time": 286, "pitch": 59, "duration": 2, "velocity": 64}, {"time": 288, "pitch": 52, "duration": 2, "velocity": 64}, {"time": 290, "pitch": 55, "duration": 1, "velocity": 64}, {"time": 291, "pitch": 59, "duration": 1, "velocity": 64}, {"time": 292, "pitch": 64, "duration": 2, "velocity": 64}, {"time": 294, "pitch": 60, "duration": 2, "velocity": 64}, {"time": 296, "pitch": 57, "duration": 1, "velocity": 64}, {"time": 297, "pitch": 50, "duration": 1, "velocity": 64}, {"time": 298, "pitch": 54, "duration": 2, "velocity": 64}, {"time": 300, "pitch": 57, "duration": 2, "velocity": 64}, {"time": 302, "pitch": 62, "duration": 1, "velocity": 64}, {"time": 303, "pitch": 59, "duration": 1, "velocity": 64}, {"time": 304, "pitch": 55, "duration": 2, "velocity": 64}, {"time": 306, "pitch": 48, "duration": 2, "velocity": 64}, {"time": 308, "pitch": 52, "duration": 1, "velocity": 64}, {"time": 309, "pitch": 55, "duration": 1, "velocity": 64}, {"time": 310, "pitch": 60, "duration": 2, "velocity": 64}, {"time": 312, "pitch": 57, "duration": 2, "velocity": 64}, {"time": 314, "pitch": 54, "duration": 1, "velocity": 64}, {"time": 315, "pitch": 47, "duration": 1, "velocity": 64}, {"time": 316, "pitch": 51, "duration": 2, "velocity": 64}, {"time": 318, "pitch": 54, "duration": 2, "velocity": 64}, {"time": 320, "pitch": 59, "duration": 1, "velocity": 64}, {"time": 321, "pitch": 55, "duration": 1, "velocity": 64}, {"time": 322, "pitch": 52, "duration": 2, "velocity": 64}, {"time": 324, "pitch": 47, "duration": 2, "velocity": 64}, {"time": 326, "pitch": 51, "duration": 1, "velocity": 64}, {"time": 327, "pitch": 54, "duration": 1, "velocity": 64}, {"time": 328, "pitch": 59, "duration": 2, "velocity": 64}, {"time": 330, "pitch": 55, "duration": 2, "velocity": 64}, {"time": 332, "pitch": 52, "duration": 1, "velocity": 64}, {"time": 333, "pitch": 47, "duration": 1, "velocity": 64}, {"time": 334, "pitch": 51, "duration": 2, "velocity": 64}, {"time": 336, "pitch": 54, "duration": 2, "velocity": 64}, {"time": 338, "pitch": 51, "duration": 1, "velocity": 64}, {"time": 339, "pitch": 52, "duration": 3, "velocity": 64}, {"time": 342, "pitch": 57, "duration": 3, "velocity": 64}, {"time": 345, "pitch": 59, "duration": 3, "velocity": 64}, {"time": 348, "pitch": 47, "duration": 3, "velocity": 64}, {"time": 351, "pitch": 52, "duration": 1, "velocity": 64}, {"time": 352, "pitch": 55, "duration": 2, "velocity": 64}, {"time": 354, "pitch": 59, "duration": 2, "velocity": 64}, {"time": 356, "pitch": 64, "duration": 1, "velocity": 64}, {"time": 357, "pitch": 63, "duration": 1, "velocity": 64}, {"time": 358, "pitch": 59, "duration": 2, "velocity": 64}, {"time": 360, "pitch": 52, "duration": 2, "velocity": 64}, {"time": 362, "pitch": 55, "duration": 1, "velocity": 64}, {"time": 363, "pitch": 59, "duration": 1, "velocity": 64}, {"time": 364, "pitch": 64, "duration": 2, "velocity": 64}, {"time": 366, "pitch": 60, "duration": 2, "velocity": 64}, {"time": 368, "pitch": 57, "duration": 1, "velocity": 64}, {"time": 369, "pitch": 50, "duration": 1, "velocity": 64}, {"time": 370, "pitch": 54, "duration": 2, "velocity": 64}, {"time": 372, "pitch": 57, "duration": 2, "velocity": 64}, {"time": 374, "pitch": 62, "duration": 1, "velocity": 64}, {"time": 375, "pitch": 59, "duration": 1, "velocity": 64}, {"time": 376, "pitch": 55, "duration": 2, "velocity": 64}, {"time": 378, "pitch": 48, "duration": 2, "velocity": 64}, {"time": 380, "pitch": 52, "duration": 1, "velocity": 64}, {"time": 381, "pitch": 55, "duration": 1, "velocity": 64}, {"time": 382, "pitch": 60, "duration": 2, "velocity": 64}, {"time": 384, "pitch": 57, "duration": 2, "velocity": 64}, {"time": 386, "pitch": 54, "duration": 1, "velocity": 64}, {"time": 387, "pitch": 47, "duration": 1, "velocity": 64}, {"time": 388, "pitch": 51, "duration": 2, "velocity": 64}, {"time": 390, "pitch": 54, "duration": 2, "velocity": 64}, {"time": 392, "pitch": 59, "duration": 1, "velocity": 64}, {"time": 393, "pitch": 55, "duration": 1, "velocity": 64}, {"time": 394, "pitch": 52, "duration": 2, "velocity": 64}, {"time": 396, "pitch": 45, "duration": 2, "velocity": 64}, {"time": 398, "pitch": 48, "duration": 1, "velocity": 64}, {"time": 399, "pitch": 52, "duration": 1, "velocity": 64}, {"time": 400, "pitch": 57, "duration": 2, "velocity": 64}, {"time": 402, "pitch": 54, "duration": 2, "velocity": 64}, {"time": 404, "pitch": 50, "duration": 1, "velocity": 64}, {"time": 405, "pitch": 55, "duration": 1, "velocity": 64}, {"time": 406, "pitch": 54, "duration": 2, "velocity": 64}, {"time": 408, "pitch": 55, "duration": 2, "velocity": 64}, {"time": 410, "pitch": 52, "duration": 1, "velocity": 64}, {"time": 411, "pitch": 60, "duration": 3, "velocity": 64}, {"time": 414, "pitch": 57, "duration": 3, "velocity": 64}, {"time": 417, "pitch": 59, "duration": 3, "velocity": 64}, {"time": 420, "pitch": 47, "duration": 3, "velocity": 64}, {"time": 423, "pitch": 52, "duration": 3, "velocity": 64}, {"time": 426, "pitch": 55, "duration": 2, "velocity": 64}, {"time": 428, "pitch": 53, "duration": 1, "velocity": 64}, {"time": 429, "pitch": 52, "duration": 1, "velocity": 64}, {"time": 430, "pitch": 50, "duration": 2, "velocity": 64}, {"time": 432, "pitch": 48, "duration": 3, "velocity": 64}, {"time": 435, "pitch": 50, "duration": 3, "velocity": 64}, {"time": 438, "pitch": 43, "duration": 3, "velocity": 64}, {"time": 441, "pitch": 52, "duration": 3, "velocity": 64}, {"time": 444, "pitch": 40, "duration": 3, "velocity": 64}, {"time": 450, "pitch": 53, "duration": 3, "velocity": 64}, {"time": 453, "pitch": 50, "duration": 3, "velocity": 64}, {"time": 456, "pitch": 55, "duration": 3, "velocity": 64}, {"time": 459, "pitch": 52, "duration": 3, "velocity": 64}, {"time": 462, "pitch": 48, "duration": 3, "velocity": 64}, {"time": 468, "pitch": 57, "duration": 3, "velocity": 64}, {"time": 471, "pitch": 55, "duration": 3, "velocity": 64}, {"time": 477, "pitch": 53, "duration": 3, "velocity": 64}, {"time": 480, "pitch": 52, "duration": 3, "velocity": 64}, {"time": 486, "pitch": 50, "duration": 3, "velocity": 64}, {"time": 489, "pitch": 52, "duration": 3, "velocity": 64}, {"time": 492, "pitch": 48, "duration": 3, "velocity": 64}, {"time": 495, "pitch": 55, "duration": 1, "velocity": 64}, {"time": 496, "pitch": 54, "duration": 2, "velocity": 64}, {"time": 498, "pitch": 55, "duration": 2, "velocity": 64}, {"time": 500, "pitch": 57, "duration": 1, "velocity": 64}, {"time": 501, "pitch": 59, "duration": 1, "velocity": 64}, {"time": 502, "pitch": 55, "duration": 2, "velocity": 64}, {"time": 504, "pitch": 60, "duration": 2, "velocity": 64}, {"time": 506, "pitch": 55, "duration": 1, "velocity": 64}, {"time": 507, "pitch": 62, "duration": 1, "velocity": 64}, {"time": 508, "pitch": 60, "duration": 2, "velocity": 64}, {"time": 510, "pitch": 62, "duration": 2, "velocity": 64}, {"time": 512, "pitch": 55, "duration": 1, "velocity": 64}, {"time": 513, "pitch": 64, "duration": 1, "velocity": 64}, {"time": 514, "pitch": 62, "duration": 2, "velocity": 64}, {"time": 516, "pitch": 60, "duration": 2, "velocity": 64}, {"time": 518, "pitch": 62, "duration": 1, "velocity": 64}, {"time": 519, "pitch": 64, "duration": 1, "velocity": 64}, {"time": 520, "pitch": 60, "duration": 2, "velocity": 64}, {"time": 522, "pitch": 65, "duration": 2, "velocity": 64}, {"time": 524, "pitch": 62, "duration": 1, "velocity": 64}, {"time": 525, "pitch": 67, "duration": 1, "velocity": 64}, {"time": 526, "pitch": 65, "duration": 2, "velocity": 64}, {"time": 528, "pitch": 64, "duration": 2, "velocity": 64}, {"time": 530, "pitch": 62, "duration": 1, "velocity": 64}, {"time": 531, "pitch": 64, "duration": 1, "velocity": 64}, {"time": 532, "pitch": 62, "duration": 2, "velocity": 64}, {"time": 534, "pitch": 60, "duration": 2, "velocity": 64}, {"time": 536, "pitch": 59, "duration": 1, "velocity": 64}, {"time": 537, "pitch": 57, "duration": 1, "velocity": 64}, {"time": 538, "pitch": 55, "duration": 2, "velocity": 64}, {"time": 540, "pitch": 57, "duration": 2, "velocity": 64}, {"time": 542, "pitch": 55, "duration": 1, "velocity": 64}, {"time": 543, "pitch": 53, "duration": 1, "velocity": 64}, {"time": 544, "pitch": 52, "duration": 2, "velocity": 64}, {"time": 546, "pitch": 50, "duration": 2, "velocity": 64}, {"time": 548, "pitch": 48, "duration": 1, "velocity": 64}, {"time": 549, "pitch": 50, "duration": 3, "velocity": 64}, {"time": 552, "pitch": 55, "duration": 3, "velocity": 64}, {"time": 555, "pitch": 60, "duration": 3, "velocity": 64}, {"time": 558, "pitch": 53, "duration": 3, "velocity": 64}, {"time": 561, "pitch": 55, "duration": 3, "velocity": 64}, {"time": 564, "pitch": 43, "duration": 3, "velocity": 64}, {"time": 567, "pitch": 48, "duration": 9, "velocity": 64}]}]}