{"metadata": {"schema_version": "0.2"}, "resolution": 12, "tempos": [{"time": 0, "qpm": 100.0}], "tracks": [{"program": 74, "is_drum": false, "notes": [{"time": 0, "pitch": 41, "duration": 10, "velocity": 64}, {"time": 0, "pitch": 48, "duration": 8, "velocity": 64}, {"time": 24, "pitch": 50, "duration": 5, "velocity": 64}, {"time": 12, "pitch": 50, "duration": 5, "velocity": 64}, {"time": 36, "pitch": 55, "duration": 8, "velocity": 64}, {"time": 60, "pitch": 77, "duration": 2, "velocity": 64}, {"time": 12, "pitch": 72, "duration": 8, "velocity": 64}, {"time": 66, "pitch": 60, "duration": 2, "velocity": 64}, {"time": 60, "pitch": 72, "duration": 8, "velocity": 64}, {"time": 48, "pitch": 55, "duration": 3, "velocity": 64}, {"time": 93, "pitch": 72, "duration": 3, "velocity": 64}, {"time": 36, "pitch": 72, "duration": 2, "velocity": 64}, {"time": 45, "pitch": 74, "duration": 5, "velocity": 64}, {"time": 72, "pitch": 71, "duration": 8, "velocity": 64}, {"time": 90, "pitch": 76, "duration": 8, "velocity": 64}, {"time": 90, "pitch": 52, "duration": 5, "velocity": 64}, {"time": 60, "pitch": 67, "duration": 5, "velocity": 64}, {"time": 96, "pitch": 48, "duration": 8, "velocity": 64}, {"time": 72, "pitch": 79, "duration": 3, "velocity": 64}, {"time": 126, "pitch": 72, "duration": 3, "velocity": 64}, {"time": 126, "pitch": 53, "duration": 5, "velocity": 64}, {"time": 84, "pitch": 55, "duration": 3, "velocity": 64}, {"time": 96, "pitch": 77, "duration": 3, "velocity": 64}, {"time": 90, "pitch": 71, "duration": 3, "velocity": 64}, {"time": 186, "pitch": 67, "duration": 8, "velocity": 64}, {"time": 168, "pitch": 55, "duration": 5, "velocity": 64}, {"time": 72, "pitch": 48, "duration": 8, "velocity": 64}, {"time": 84, "pitch": 72, "duration": 3, "velocity": 64}, {"time": 180, "pitch": 72, "duration": 2, "velocity": 64}, {"time": 138, "pitch": 69, "duration": 5, "velocity": 64}, {"time": 156, "pitch": 74, "duration": 8, "velocity": 64}, {"time": 138, "pitch": 50, "duration": 2, "velocity": 64}, {"time": 162, "pitch": 55, "duration": 3, "velocity": 64}, {"time": 144, "pitch": 72, "duration": 3, "velocity": 64}, {"time": 114, "pitch": 67, "duration": 3, "velocity": 64}, {"time": 114, "pitch": 76, "duration": 3, "velocity": 64}, {"time": 120, "pitch": 77, "duration": 3, "velocity": 64}, {"time": 192, "pitch": 72, "duration": 2, "velocity": 64}, {"time": 156, "pitch": 50, "duration": 3, "velocity": 64}, {"time": 240, "pitch": 60, "duration": 2, "velocity": 64}, {"time": 216, "pitch": 50, "duration": 3, "velocity": 64}, {"time": 192, "pitch": 60, "duration": 3, "velocity": 64}, {"time": 144, "pitch": 50, "duration": 8, "velocity": 64}, {"time": 168, "pitch": 55, "duration": 3, "velocity": 64}, {"time": 144, "pitch": 74, "duration": 3, "velocity": 64}, {"time": 168, "pitch": 60, "duration": 2, "velocity": 64}, {"time": 324, "pitch": 60, "duration": 2, "velocity": 64}, {"time": 168, "pitch": 77, "duration": 8, "velocity": 64}, {"time": 204, "pitch": 53, "duration": 3, "velocity": 64}, {"time": 264, "pitch": 60, "duration": 3, "velocity": 64}, {"time": 222, "pitch": 76, "duration": 5, "velocity": 64}, {"time": 180, "pitch": 74, "duration": 3, "velocity": 64}, {"time": 264, "pitch": 48, "duration": 5, "velocity": 64}, {"time": 204, "pitch": 76, "duration": 2, "velocity": 64}, {"time": 180, "pitch": 48, "duration": 8, "velocity": 64}, {"time": 300, "pitch": 79, "duration": 3, "velocity": 64}, {"time": 282, "pitch": 55, "duration": 2, "velocity": 64}, {"time": 204, "pitch": 74, "duration": 8, "velocity": 64}, {"time": 210, "pitch": 48, "duration": 3, "velocity": 64}, {"time": 180, "pitch": 72, "duration": 5, "velocity": 64}, {"time": 306, "pitch": 79, "duration": 3, "velocity": 64}, {"time": 216, "pitch": 50, "duration": 2, "velocity": 64}, {"time": 276, "pitch": 53, "duration": 2, "velocity": 64}, {"time": 228, "pitch": 50, "duration": 5, "velocity": 64}, {"time": 228, "pitch": 79, "duration": 3, "velocity": 64}, {"time": 216, "pitch": 74, "duration": 3, "velocity": 64}, {"time": 228, "pitch": 77, "duration": 1, "velocity": 64}, {"time": 240, "pitch": 67, "duration": 2, "velocity": 64}, {"time": 321, "pitch": 67, "duration": 3, "velocity": 64}, {"time": 240, "pitch": 50, "duration": 8, "velocity": 64}, {"time": 393, "pitch": 72, "duration": 3, "velocity": 64}, {"time": 204, "pitch": 72, "duration": 3, "velocity": 64}, {"time": 216, "pitch": 74, "duration": 3, "velocity": 64}, {"time": 213, "pitch": 74, "duration": 8, "velocity": 64}, {"time": 252, "pitch": 72, "duration": 2, "velocity": 64}, {"time": 264, "pitch": 74, "duration": 3, "velocity": 64}, {"time": 348, "pitch": 69, "duration": 8, "velocity": 64}, {"time": 432, "pitch": 79, "duration": 3, "velocity": 64}, {"time": 276, "pitch": 48, "duration": 3, "velocity": 64}, {"time": 348, "pitch": 65, "duration": 3, "velocity": 64}, {"time": 312, "pitch": 72, "duration": 8, "velocity": 64}, {"time": 333, "pitch": 55, "duration": 3, "velocity": 64}, {"time": 312, "pitch": 74, "duration": 5, "velocity": 64}, {"time": 345, "pitch": 77, "duration": 5, "velocity": 64}, {"time": 288, "pitch": 74, "duration": 8, "velocity": 64}, {"time": 336, "pitch": 69, "duration": 5, "velocity": 64}, {"time": 300, "pitch": 72, "duration": 1, "velocity": 64}, {"time": 273, "pitch": 74, "duration": 5, "velocity": 64}, {"time": 264, "pitch": 65, "duration": 3, "velocity": 64}, {"time": 336, "pitch": 74, "duration": 8, "velocity": 64}, {"time": 420, "pitch": 48, "duration": 2, "velocity": 64}, {"time": 345, "pitch": 72, "duration": 2, "velocity": 64}, {"time": 345, "pitch": 74, "duration": 3, "velocity": 64}, {"time": 420, "pitch": 74, "duration": 3, "velocity": 64}, {"time": 357, "pitch": 53, "duration": 8, "velocity": 64}, {"time": 264, "pitch": 74, "duration": 8, "velocity": 64}, {"time": 264, "pitch": 72, "duration": 5, "velocity": 64}, {"time": 309, "pitch": 79, "duration": 8, "velocity": 64}, {"time": 366, "pitch": 67, "duration": 5, "velocity": 64}, {"time": 444, "pitch": 72, "duration": 8, "velocity": 64}, {"time": 273, "pitch": 67, "duration": 3, "velocity": 64}, {"time": 420, "pitch": 67, "duration": 5, "velocity": 64}, {"time": 405, "pitch": 72, "duration": 8, "velocity": 64}, {"time": 552, "pitch": 77, "duration": 3, "velocity": 64}, {"time": 396, "pitch": 48, "duration": 3, "velocity": 64}, {"time": 360, "pitch": 69, "duration": 3, "velocity": 64}, {"time": 372, "pitch": 81, "duration": 3, "velocity": 64}, {"time": 552, "pitch": 69, "duration": 3, "velocity": 64}, {"time": 306, "pitch": 72, "duration": 3, "velocity": 64}, {"time": 300, "pitch": 74, "duration": 5, "velocity": 64}, {"time": 465, "pitch": 74, "duration": 3, "velocity": 64}, {"time": 486, "pitch": 70, "duration": 2, "velocity": 64}, {"time": 468, "pitch": 74, "duration": 5, "velocity": 64}, {"time": 486, "pitch": 79, "duration": 2, "velocity": 64}, {"time": 498, "pitch": 65, "duration": 3, "velocity": 64}, {"time": 414, "pitch": 55, "duration": 3, "velocity": 64}, {"time": 474, "pitch": 74, "duration": 8, "velocity": 64}, {"time": 408, "pitch": 72, "duration": 5, "velocity": 64}, {"time": 444, "pitch": 74, "duration": 3, "velocity": 64}, {"time": 546, "pitch": 71, "duration": 3, "velocity": 64}, {"time": 465, "pitch": 79, "duration": 5, "velocity": 64}, {"time": 420, "pitch": 74, "duration": 2, "velocity": 64}, {"time": 480, "pitch": 60, "duration": 3, "velocity": 64}, {"time": 606, "pitch": 67, "duration": 3, "velocity": 64}, {"time": 540, "pitch": 70, "duration": 3, "velocity": 64}, {"time": 486, "pitch": 74, "duration": 3, "velocity": 64}, {"time": 396, "pitch": 72, "duration": 3, "velocity": 64}, {"time": 360, "pitch": 67, "duration": 5, "velocity": 64}, {"time": 645, "pitch": 69, "duration": 3, "velocity": 64}, {"time": 504, "pitch": 67, "duration": 3, "velocity": 64}, {"time": 486, "pitch": 69, "duration": 8, "velocity": 64}, {"time": 522, "pitch": 69, "duration": 3, "velocity": 64}, {"time": 456, "pitch": 65, "duration": 3, "velocity": 64}, {"time": 660, "pitch": 72, "duration": 2, "velocity": 64}, {"time": 522, "pitch": 77, "duration": 3, "velocity": 64}, {"time": 564, "pitch": 69, "duration": 8, "velocity": 64}, {"time": 642, "pitch": 67, "duration": 5, "velocity": 64}, {"time": 630, "pitch": 69, "duration": 3, "velocity": 64}, {"time": 696, "pitch": 74, "duration": 2, "velocity": 64}, {"time": 462, "pitch": 69, "duration": 3, "velocity": 64}, {"time": 480, "pitch": 74, "duration": 5, "velocity": 64}, {"time": 630, "pitch": 67, "duration": 2, "velocity": 64}, {"time": 498, "pitch": 72, "duration": 3, "velocity": 64}, {"time": 492, "pitch": 81, "duration": 3, "velocity": 64}, {"time": 630, "pitch": 70, "duration": 3, "velocity": 64}, {"time": 468, "pitch": 69, "duration": 8, "velocity": 64}, {"time": 588, "pitch": 74, "duration": 3, "velocity": 64}, {"time": 576, "pitch": 76, "duration": 2, "velocity": 64}, {"time": 564, "pitch": 60, "duration": 1, "velocity": 64}, {"time": 486, "pitch": 74, "duration": 3, "velocity": 64}, {"time": 471, "pitch": 60, "duration": 3, "velocity": 64}, {"time": 612, "pitch": 72, "duration": 2, "velocity": 64}, {"time": 438, "pitch": 81, "duration": 3, "velocity": 64}, {"time": 630, "pitch": 72, "duration": 3, "velocity": 64}, {"time": 621, "pitch": 67, "duration": 3, "velocity": 64}, {"time": 594, "pitch": 74, "duration": 2, "velocity": 64}, {"time": 504, "pitch": 77, "duration": 3, "velocity": 64}, {"time": 504, "pitch": 71, "duration": 8, "velocity": 64}, {"time": 582, "pitch": 81, "duration": 1, "velocity": 64}, {"time": 516, "pitch": 77, "duration": 5, "velocity": 64}, {"time": 690, "pitch": 79, "duration": 5, "velocity": 64}, {"time": 480, "pitch": 62, "duration": 3, "velocity": 64}, {"time": 708, "pitch": 79, "duration": 2, "velocity": 64}, {"time": 624, "pitch": 62, "duration": 3, "velocity": 64}, {"time": 726, "pitch": 67, "duration": 8, "velocity": 64}, {"time": 504, "pitch": 55, "duration": 3, "velocity": 64}, {"time": 654, "pitch": 74, "duration": 2, "velocity": 64}, {"time": 492, "pitch": 76, "duration": 3, "velocity": 64}, {"time": 540, "pitch": 74, "duration": 2, "velocity": 64}, {"time": 675, "pitch": 79, "duration": 3, "velocity": 64}, {"time": 834, "pitch": 74, "duration": 3, "velocity": 64}, {"time": 630, "pitch": 67, "duration": 5, "velocity": 64}, {"time": 783, "pitch": 74, "duration": 2, "velocity": 64}, {"time": 600, "pitch": 67, "duration": 3, "velocity": 64}, {"time": 642, "pitch": 76, "duration": 3, "velocity": 64}, {"time": 684, "pitch": 65, "duration": 1, "velocity": 64}, {"time": 564, "pitch": 74, "duration": 3, "velocity": 64}, {"time": 672, "pitch": 65, "duration": 3, "velocity": 64}, {"time": 708, "pitch": 74, "duration": 3, "velocity": 64}, {"time": 600, "pitch": 60, "duration": 3, "velocity": 64}, {"time": 666, "pitch": 69, "duration": 2, "velocity": 64}, {"time": 636, "pitch": 65, "duration": 3, "velocity": 64}, {"time": 621, "pitch": 79, "duration": 3, "velocity": 64}, {"time": 762, "pitch": 74, "duration": 2, "velocity": 64}, {"time": 738, "pitch": 77, "duration": 2, "velocity": 64}, {"time": 708, "pitch": 60, "duration": 3, "velocity": 64}, {"time": 618, "pitch": 77, "duration": 8, "velocity": 64}, {"time": 786, "pitch": 74, "duration": 2, "velocity": 64}, {"time": 624, "pitch": 76, "duration": 1, "velocity": 64}, {"time": 837, "pitch": 81, "duration": 8, "velocity": 64}, {"time": 786, "pitch": 79, "duration": 2, "velocity": 64}, {"time": 756, "pitch": 69, "duration": 2, "velocity": 64}, {"time": 810, "pitch": 60, "duration": 1, "velocity": 64}, {"time": 747, "pitch": 74, "duration": 2, "velocity": 64}, {"time": 867, "pitch": 74, "duration": 2, "velocity": 64}, {"time": 756, "pitch": 67, "duration": 3, "velocity": 64}, {"time": 588, "pitch": 64, "duration": 3, "velocity": 64}, {"time": 882, "pitch": 60, "duration": 3, "velocity": 64}, {"time": 846, "pitch": 77, "duration": 3, "velocity": 64}, {"time": 783, "pitch": 72, "duration": 5, "velocity": 64}, {"time": 747, "pitch": 67, "duration": 3, "velocity": 64}]}]}