{"metadata": {"schema_version": "0.2"}, "resolution": 12, "tempos": [{"time": 0, "qpm": 100.0}], "tracks": [{"program": 49, "is_drum": false, "notes": [{"time": 6, "pitch": 62, "duration": 3, "velocity": 64}, {"time": 0, "pitch": 60, "duration": 3, "velocity": 64}, {"time": 6, "pitch": 60, "duration": 3, "velocity": 64}, {"time": 3, "pitch": 57, "duration": 3, "velocity": 64}, {"time": 15, "pitch": 48, "duration": 3, "velocity": 64}, {"time": 21, "pitch": 60, "duration": 3, "velocity": 64}, {"time": 33, "pitch": 55, "duration": 3, "velocity": 64}, {"time": 69, "pitch": 41, "duration": 3, "velocity": 64}, {"time": 39, "pitch": 41, "duration": 3, "velocity": 64}, {"time": 48, "pitch": 65, "duration": 3, "velocity": 64}, {"time": 69, "pitch": 55, "duration": 2, "velocity": 64}, {"time": 84, "pitch": 53, "duration": 3, "velocity": 64}, {"time": 60, "pitch": 38, "duration": 2, "velocity": 64}, {"time": 42, "pitch": 41, "duration": 3, "velocity": 64}, {"time": 42, "pitch": 41, "duration": 3, "velocity": 64}, {"time": 60, "pitch": 45, "duration": 3, "velocity": 64}, {"time": 84, "pitch": 55, "duration": 3, "velocity": 64}, {"time": 72, "pitch": 48, "duration": 3, "velocity": 64}, {"time": 90, "pitch": 48, "duration": 5, "velocity": 64}, {"time": 72, "pitch": 60, "duration": 5, "velocity": 64}, {"time": 84, "pitch": 62, "duration": 3, "velocity": 64}, {"time": 102, "pitch": 36, "duration": 5, "velocity": 64}, {"time": 84, "pitch": 45, "duration": 3, "velocity": 64}, {"time": 60, "pitch": 48, "duration": 6, "velocity": 64}, {"time": 144, "pitch": 45, "duration": 3, "velocity": 64}, {"time": 204, "pitch": 40, "duration": 3, "velocity": 64}, {"time": 120, "pitch": 52, "duration": 3, "velocity": 64}, {"time": 126, "pitch": 43, "duration": 3, "velocity": 64}, {"time": 138, "pitch": 43, "duration": 3, "velocity": 64}, {"time": 156, "pitch": 62, "duration": 3, "velocity": 64}, {"time": 204, "pitch": 45, "duration": 3, "velocity": 64}, {"time": 132, "pitch": 62, "duration": 3, "velocity": 64}, {"time": 192, "pitch": 57, "duration": 5, "velocity": 64}, {"time": 192, "pitch": 62, "duration": 3, "velocity": 64}, {"time": 198, "pitch": 57, "duration": 3, "velocity": 64}, {"time": 258, "pitch": 60, "duration": 3, "velocity": 64}, {"time": 396, "pitch": 45, "duration": 3, "velocity": 64}, {"time": 228, "pitch": 36, "duration": 3, "velocity": 64}, {"time": 156, "pitch": 50, "duration": 3, "velocity": 64}, {"time": 180, "pitch": 55, "duration": 5, "velocity": 64}, {"time": 180, "pitch": 43, "duration": 6, "velocity": 64}, {"time": 294, "pitch": 55, "duration": 3, "velocity": 64}, {"time": 336, "pitch": 45, "duration": 3, "velocity": 64}, {"time": 156, "pitch": 72, "duration": 3, "velocity": 64}, {"time": 276, "pitch": 43, "duration": 3, "velocity": 64}, {"time": 414, "pitch": 45, "duration": 3, "velocity": 64}, {"time": 258, "pitch": 60, "duration": 3, "velocity": 64}, {"time": 252, "pitch": 60, "duration": 3, "velocity": 64}, {"time": 306, "pitch": 50, "duration": 3, "velocity": 64}, {"time": 246, "pitch": 64, "duration": 3, "velocity": 64}, {"time": 258, "pitch": 55, "duration": 10, "velocity": 64}, {"time": 360, "pitch": 55, "duration": 3, "velocity": 64}, {"time": 432, "pitch": 55, "duration": 3, "velocity": 64}, {"time": 462, "pitch": 43, "duration": 3, "velocity": 64}, {"time": 258, "pitch": 40, "duration": 5, "velocity": 64}, {"time": 324, "pitch": 55, "duration": 3, "velocity": 64}, {"time": 240, "pitch": 36, "duration": 3, "velocity": 64}, {"time": 252, "pitch": 60, "duration": 3, "velocity": 64}, {"time": 258, "pitch": 38, "duration": 5, "velocity": 64}, {"time": 468, "pitch": 64, "duration": 6, "velocity": 64}, {"time": 312, "pitch": 55, "duration": 3, "velocity": 64}, {"time": 372, "pitch": 38, "duration": 6, "velocity": 64}, {"time": 282, "pitch": 55, "duration": 3, "velocity": 64}, {"time": 312, "pitch": 67, "duration": 3, "velocity": 64}, {"time": 324, "pitch": 38, "duration": 3, "velocity": 64}, {"time": 486, "pitch": 62, "duration": 3, "velocity": 64}, {"time": 354, "pitch": 43, "duration": 5, "velocity": 64}, {"time": 300, "pitch": 62, "duration": 3, "velocity": 64}, {"time": 426, "pitch": 72, "duration": 3, "velocity": 64}, {"time": 576, "pitch": 55, "duration": 3, "velocity": 64}, {"time": 510, "pitch": 45, "duration": 3, "velocity": 64}, {"time": 540, "pitch": 43, "duration": 3, "velocity": 64}, {"time": 378, "pitch": 60, "duration": 5, "velocity": 64}, {"time": 372, "pitch": 36, "duration": 5, "velocity": 64}, {"time": 360, "pitch": 40, "duration": 6, "velocity": 64}, {"time": 534, "pitch": 48, "duration": 3, "velocity": 64}, {"time": 534, "pitch": 67, "duration": 6, "velocity": 64}, {"time": 582, "pitch": 48, "duration": 6, "velocity": 64}, {"time": 600, "pitch": 38, "duration": 3, "velocity": 64}, {"time": 582, "pitch": 62, "duration": 10, "velocity": 64}, {"time": 516, "pitch": 67, "duration": 5, "velocity": 64}, {"time": 498, "pitch": 36, "duration": 5, "velocity": 64}, {"time": 492, "pitch": 60, "duration": 6, "velocity": 64}, {"time": 390, "pitch": 45, "duration": 3, "velocity": 64}, {"time": 564, "pitch": 69, "duration": 3, "velocity": 64}, {"time": 684, "pitch": 67, "duration": 3, "velocity": 64}, {"time": 618, "pitch": 62, "duration": 6, "velocity": 64}, {"time": 624, "pitch": 43, "duration": 6, "velocity": 64}, {"time": 732, "pitch": 36, "duration": 5, "velocity": 64}, {"time": 570, "pitch": 67, "duration": 5, "velocity": 64}, {"time": 684, "pitch": 38, "duration": 5, "velocity": 64}, {"time": 708, "pitch": 60, "duration": 5, "velocity": 64}, {"time": 774, "pitch": 67, "duration": 3, "velocity": 64}, {"time": 660, "pitch": 55, "duration": 5, "velocity": 64}, {"time": 648, "pitch": 45, "duration": 3, "velocity": 64}, {"time": 528, "pitch": 45, "duration": 3, "velocity": 64}, {"time": 708, "pitch": 36, "duration": 6, "velocity": 64}, {"time": 582, "pitch": 36, "duration": 6, "velocity": 64}, {"time": 714, "pitch": 36, "duration": 10, "velocity": 64}, {"time": 636, "pitch": 60, "duration": 3, "velocity": 64}, {"time": 600, "pitch": 45, "duration": 3, "velocity": 64}, {"time": 528, "pitch": 40, "duration": 10, "velocity": 64}, {"time": 672, "pitch": 60, "duration": 10, "velocity": 64}, {"time": 732, "pitch": 43, "duration": 3, "velocity": 64}, {"time": 738, "pitch": 60, "duration": 5, "velocity": 64}, {"time": 648, "pitch": 38, "duration": 3, "velocity": 64}, {"time": 600, "pitch": 36, "duration": 5, "velocity": 64}, {"time": 564, "pitch": 40, "duration": 3, "velocity": 64}, {"time": 696, "pitch": 43, "duration": 3, "velocity": 64}, {"time": 696, "pitch": 48, "duration": 6, "velocity": 64}, {"time": 654, "pitch": 62, "duration": 3, "velocity": 64}, {"time": 726, "pitch": 43, "duration": 6, "velocity": 64}, {"time": 882, "pitch": 38, "duration": 5, "velocity": 64}, {"time": 780, "pitch": 43, "duration": 3, "velocity": 64}, {"time": 612, "pitch": 62, "duration": 3, "velocity": 64}, {"time": 870, "pitch": 48, "duration": 3, "velocity": 64}, {"time": 858, "pitch": 43, "duration": 5, "velocity": 64}, {"time": 660, "pitch": 50, "duration": 3, "velocity": 64}, {"time": 732, "pitch": 50, "duration": 3, "velocity": 64}, {"time": 786, "pitch": 40, "duration": 3, "velocity": 64}, {"time": 792, "pitch": 62, "duration": 3, "velocity": 64}, {"time": 864, "pitch": 45, "duration": 3, "velocity": 64}, {"time": 828, "pitch": 50, "duration": 3, "velocity": 64}, {"time": 864, "pitch": 55, "duration": 3, "velocity": 64}, {"time": 636, "pitch": 38, "duration": 5, "velocity": 64}, {"time": 666, "pitch": 36, "duration": 3, "velocity": 64}, {"time": 852, "pitch": 38, "duration": 3, "velocity": 64}, {"time": 858, "pitch": 36, "duration": 3, "velocity": 64}, {"time": 702, "pitch": 60, "duration": 3, "velocity": 64}, {"time": 738, "pitch": 45, "duration": 3, "velocity": 64}, {"time": 852, "pitch": 48, "duration": 1, "velocity": 64}, {"time": 684, "pitch": 55, "duration": 5, "velocity": 64}, {"time": 618, "pitch": 55, "duration": 5, "velocity": 64}, {"time": 702, "pitch": 41, "duration": 6, "velocity": 64}]}]}