{"metadata": {"schema_version": "0.2"}, "resolution": 12, "tempos": [{"time": 0, "qpm": 100.0}], "tracks": [{"program": 42, "is_drum": false, "notes": [{"time": 3, "pitch": 57, "duration": 3, "velocity": 64}, {"time": 6, "pitch": 56, "duration": 3, "velocity": 64}, {"time": 9, "pitch": 52, "duration": 3, "velocity": 64}, {"time": 12, "pitch": 57, "duration": 3, "velocity": 64}, {"time": 15, "pitch": 45, "duration": 3, "velocity": 64}, {"time": 18, "pitch": 52, "duration": 3, "velocity": 64}, {"time": 21, "pitch": 50, "duration": 3, "velocity": 64}, {"time": 24, "pitch": 49, "duration": 3, "velocity": 64}, {"time": 27, "pitch": 57, "duration": 3, "velocity": 64}, {"time": 30, "pitch": 56, "duration": 3, "velocity": 64}, {"time": 33, "pitch": 52, "duration": 3, "velocity": 64}, {"time": 36, "pitch": 57, "duration": 3, "velocity": 64}, {"time": 39, "pitch": 45, "duration": 3, "velocity": 64}, {"time": 42, "pitch": 52, "duration": 3, "velocity": 64}, {"time": 45, "pitch": 50, "duration": 3, "velocity": 64}, {"time": 48, "pitch": 49, "duration": 3, "velocity": 64}, {"time": 51, "pitch": 45, "duration": 3, "velocity": 64}, {"time": 54, "pitch": 50, "duration": 3, "velocity": 64}, {"time": 57, "pitch": 47, "duration": 3, "velocity": 64}, {"time": 60, "pitch": 52, "duration": 3, "velocity": 64}, {"time": 63, "pitch": 49, "duration": 3, "velocity": 64}, {"time": 66, "pitch": 54, "duration": 3, "velocity": 64}, {"time": 69, "pitch": 50, "duration": 3, "velocity": 64}, {"time": 72, "pitch": 49, "duration": 3, "velocity": 64}, {"time": 75, "pitch": 45, "duration": 3, "velocity": 64}, {"time": 78, "pitch": 50, "duration": 3, "velocity": 64}, {"time": 81, "pitch": 47, "duration": 3, "velocity": 64}, {"time": 84, "pitch": 52, "duration": 3, "velocity": 64}, {"time": 87, "pitch": 40, "duration": 3, "velocity": 64}, {"time": 90, "pitch": 45, "duration": 3, "velocity": 64}, {"time": 93, "pitch": 57, "duration": 6, "velocity": 64}, {"time": 99, "pitch": 56, "duration": 3, "velocity": 64}, {"time": 102, "pitch": 57, "duration": 3, "velocity": 64}, {"time": 105, "pitch": 59, "duration": 3, "velocity": 64}, {"time": 108, "pitch": 61, "duration": 3, "velocity": 64}, {"time": 111, "pitch": 56, "duration": 3, "velocity": 64}, {"time": 114, "pitch": 57, "duration": 3, "velocity": 64}, {"time": 117, "pitch": 59, "duration": 3, "velocity": 64}, {"time": 120, "pitch": 61, "duration": 3, "velocity": 64}, {"time": 123, "pitch": 56, "duration": 3, "velocity": 64}, {"time": 126, "pitch": 57, "duration": 3, "velocity": 64}, {"time": 129, "pitch": 54, "duration": 3, "velocity": 64}, {"time": 132, "pitch": 56, "duration": 3, "velocity": 64}, {"time": 135, "pitch": 58, "duration": 3, "velocity": 64}, {"time": 138, "pitch": 59, "duration": 2, "velocity": 64}, {"time": 140, "pitch": 71, "duration": 1, "velocity": 64}, {"time": 141, "pitch": 70, "duration": 1, "velocity": 64}, {"time": 142, "pitch": 71, "duration": 2, "velocity": 64}, {"time": 144, "pitch": 68, "duration": 2, "velocity": 64}, {"time": 146, "pitch": 71, "duration": 1, "velocity": 64}, {"time": 147, "pitch": 64, "duration": 1, "velocity": 64}, {"time": 148, "pitch": 68, "duration": 2, "velocity": 64}, {"time": 150, "pitch": 61, "duration": 2, "velocity": 64}, {"time": 152, "pitch": 69, "duration": 1, "velocity": 64}, {"time": 153, "pitch": 68, "duration": 1, "velocity": 64}, {"time": 154, "pitch": 69, "duration": 2, "velocity": 64}, {"time": 156, "pitch": 66, "duration": 2, "velocity": 64}, {"time": 158, "pitch": 69, "duration": 1, "velocity": 64}, {"time": 159, "pitch": 63, "duration": 1, "velocity": 64}, {"time": 160, "pitch": 66, "duration": 2, "velocity": 64}, {"time": 162, "pitch": 59, "duration": 2, "velocity": 64}, {"time": 164, "pitch": 68, "duration": 1, "velocity": 64}, {"time": 165, "pitch": 66, "duration": 1, "velocity": 64}, {"time": 166, "pitch": 68, "duration": 2, "velocity": 64}, {"time": 168, "pitch": 64, "duration": 2, "velocity": 64}, {"time": 170, "pitch": 68, "duration": 1, "velocity": 64}, {"time": 171, "pitch": 61, "duration": 1, "velocity": 64}, {"time": 172, "pitch": 64, "duration": 2, "velocity": 64}, {"time": 174, "pitch": 57, "duration": 2, "velocity": 64}, {"time": 176, "pitch": 66, "duration": 1, "velocity": 64}, {"time": 177, "pitch": 64, "duration": 1, "velocity": 64}, {"time": 178, "pitch": 66, "duration": 2, "velocity": 64}, {"time": 180, "pitch": 63, "duration": 2, "velocity": 64}, {"time": 182, "pitch": 66, "duration": 1, "velocity": 64}, {"time": 183, "pitch": 59, "duration": 1, "velocity": 64}, {"time": 184, "pitch": 63, "duration": 2, "velocity": 64}, {"time": 186, "pitch": 56, "duration": 6, "velocity": 64}, {"time": 192, "pitch": 64, "duration": 3, "velocity": 64}, {"time": 195, "pitch": 68, "duration": 3, "velocity": 64}, {"time": 198, "pitch": 69, "duration": 3, "velocity": 64}, {"time": 201, "pitch": 61, "duration": 3, "velocity": 64}, {"time": 204, "pitch": 63, "duration": 3, "velocity": 64}, {"time": 207, "pitch": 66, "duration": 3, "velocity": 64}, {"time": 210, "pitch": 68, "duration": 3, "velocity": 64}, {"time": 213, "pitch": 59, "duration": 3, "velocity": 64}, {"time": 216, "pitch": 61, "duration": 3, "velocity": 64}, {"time": 219, "pitch": 64, "duration": 3, "velocity": 64}, {"time": 222, "pitch": 66, "duration": 3, "velocity": 64}, {"time": 225, "pitch": 57, "duration": 3, "velocity": 64}, {"time": 228, "pitch": 59, "duration": 3, "velocity": 64}, {"time": 231, "pitch": 63, "duration": 3, "velocity": 64}, {"time": 234, "pitch": 64, "duration": 3, "velocity": 64}, {"time": 237, "pitch": 56, "duration": 3, "velocity": 64}, {"time": 240, "pitch": 57, "duration": 3, "velocity": 64}, {"time": 243, "pitch": 59, "duration": 3, "velocity": 64}, {"time": 246, "pitch": 56, "duration": 3, "velocity": 64}, {"time": 249, "pitch": 61, "duration": 3, "velocity": 64}, {"time": 252, "pitch": 57, "duration": 3, "velocity": 64}, {"time": 255, "pitch": 59, "duration": 3, "velocity": 64}, {"time": 258, "pitch": 56, "duration": 3, "velocity": 64}, {"time": 261, "pitch": 61, "duration": 3, "velocity": 64}, {"time": 264, "pitch": 57, "duration": 3, "velocity": 64}, {"time": 267, "pitch": 59, "duration": 3, "velocity": 64}, {"time": 270, "pitch": 56, "duration": 3, "velocity": 64}, {"time": 273, "pitch": 57, "duration": 3, "velocity": 64}, {"time": 276, "pitch": 59, "duration": 3, "velocity": 64}, {"time": 279, "pitch": 47, "duration": 3, "velocity": 64}, {"time": 282, "pitch": 40, "duration": 3, "velocity": 64}, {"time": 285, "pitch": 52, "duration": 3, "velocity": 64}, {"time": 288, "pitch": 45, "duration": 3, "velocity": 64}, {"time": 291, "pitch": 47, "duration": 3, "velocity": 64}, {"time": 294, "pitch": 44, "duration": 3, "velocity": 64}, {"time": 297, "pitch": 49, "duration": 3, "velocity": 64}, {"time": 300, "pitch": 45, "duration": 3, "velocity": 64}, {"time": 303, "pitch": 47, "duration": 3, "velocity": 64}, {"time": 306, "pitch": 44, "duration": 3, "velocity": 64}, {"time": 309, "pitch": 49, "duration": 3, "velocity": 64}, {"time": 312, "pitch": 45, "duration": 3, "velocity": 64}, {"time": 315, "pitch": 47, "duration": 3, "velocity": 64}, {"time": 318, "pitch": 44, "duration": 3, "velocity": 64}, {"time": 321, "pitch": 45, "duration": 3, "velocity": 64}, {"time": 324, "pitch": 47, "duration": 3, "velocity": 64}, {"time": 327, "pitch": 47, "duration": 3, "velocity": 64}, {"time": 330, "pitch": 40, "duration": 6, "velocity": 64}, {"time": 339, "pitch": 52, "duration": 3, "velocity": 64}, {"time": 342, "pitch": 51, "duration": 3, "velocity": 64}, {"time": 345, "pitch": 47, "duration": 3, "velocity": 64}, {"time": 348, "pitch": 52, "duration": 3, "velocity": 64}, {"time": 351, "pitch": 40, "duration": 3, "velocity": 64}, {"time": 354, "pitch": 47, "duration": 3, "velocity": 64}, {"time": 357, "pitch": 45, "duration": 3, "velocity": 64}, {"time": 360, "pitch": 44, "duration": 3, "velocity": 64}, {"time": 363, "pitch": 52, "duration": 3, "velocity": 64}, {"time": 366, "pitch": 51, "duration": 3, "velocity": 64}, {"time": 369, "pitch": 47, "duration": 3, "velocity": 64}, {"time": 372, "pitch": 52, "duration": 3, "velocity": 64}, {"time": 375, "pitch": 40, "duration": 3, "velocity": 64}, {"time": 378, "pitch": 47, "duration": 3, "velocity": 64}, {"time": 381, "pitch": 57, "duration": 3, "velocity": 64}, {"time": 384, "pitch": 56, "duration": 3, "velocity": 64}, {"time": 387, "pitch": 52, "duration": 3, "velocity": 64}, {"time": 390, "pitch": 57, "duration": 3, "velocity": 64}, {"time": 393, "pitch": 54, "duration": 3, "velocity": 64}, {"time": 396, "pitch": 59, "duration": 3, "velocity": 64}, {"time": 399, "pitch": 56, "duration": 3, "velocity": 64}, {"time": 402, "pitch": 61, "duration": 3, "velocity": 64}, {"time": 405, "pitch": 57, "duration": 3, "velocity": 64}, {"time": 408, "pitch": 56, "duration": 3, "velocity": 64}, {"time": 411, "pitch": 52, "duration": 3, "velocity": 64}, {"time": 414, "pitch": 57, "duration": 3, "velocity": 64}, {"time": 417, "pitch": 54, "duration": 3, "velocity": 64}, {"time": 420, "pitch": 59, "duration": 3, "velocity": 64}, {"time": 423, "pitch": 47, "duration": 3, "velocity": 64}, {"time": 426, "pitch": 40, "duration": 3, "velocity": 64}, {"time": 429, "pitch": 52, "duration": 6, "velocity": 64}, {"time": 435, "pitch": 51, "duration": 3, "velocity": 64}, {"time": 438, "pitch": 52, "duration": 3, "velocity": 64}, {"time": 441, "pitch": 49, "duration": 3, "velocity": 64}, {"time": 444, "pitch": 50, "duration": 3, "velocity": 64}, {"time": 447, "pitch": 46, "duration": 3, "velocity": 64}, {"time": 450, "pitch": 47, "duration": 3, "velocity": 64}, {"time": 453, "pitch": 59, "duration": 6, "velocity": 64}, {"time": 459, "pitch": 58, "duration": 3, "velocity": 64}, {"time": 462, "pitch": 59, "duration": 3, "velocity": 64}, {"time": 465, "pitch": 56, "duration": 3, "velocity": 64}, {"time": 468, "pitch": 57, "duration": 3, "velocity": 64}, {"time": 471, "pitch": 53, "duration": 3, "velocity": 64}, {"time": 474, "pitch": 54, "duration": 9, "velocity": 64}, {"time": 483, "pitch": 57, "duration": 3, "velocity": 64}, {"time": 486, "pitch": 59, "duration": 3, "velocity": 64}, {"time": 489, "pitch": 62, "duration": 3, "velocity": 64}, {"time": 492, "pitch": 64, "duration": 3, "velocity": 64}, {"time": 495, "pitch": 56, "duration": 3, "velocity": 64}, {"time": 498, "pitch": 57, "duration": 3, "velocity": 64}, {"time": 501, "pitch": 61, "duration": 3, "velocity": 64}, {"time": 504, "pitch": 62, "duration": 3, "velocity": 64}, {"time": 507, "pitch": 54, "duration": 3, "velocity": 64}, {"time": 510, "pitch": 56, "duration": 3, "velocity": 64}, {"time": 513, "pitch": 59, "duration": 3, "velocity": 64}, {"time": 516, "pitch": 61, "duration": 3, "velocity": 64}, {"time": 519, "pitch": 53, "duration": 3, "velocity": 64}, {"time": 522, "pitch": 54, "duration": 3, "velocity": 64}, {"time": 525, "pitch": 61, "duration": 3, "velocity": 64}, {"time": 528, "pitch": 57, "duration": 2, "velocity": 64}, {"time": 530, "pitch": 61, "duration": 1, "velocity": 64}, {"time": 531, "pitch": 66, "duration": 1, "velocity": 64}, {"time": 532, "pitch": 64, "duration": 2, "velocity": 64}, {"time": 534, "pitch": 62, "duration": 2, "velocity": 64}, {"time": 536, "pitch": 66, "duration": 1, "velocity": 64}, {"time": 537, "pitch": 59, "duration": 1, "velocity": 64}, {"time": 538, "pitch": 62, "duration": 2, "velocity": 64}, {"time": 540, "pitch": 56, "duration": 2, "velocity": 64}, {"time": 542, "pitch": 59, "duration": 1, "velocity": 64}, {"time": 543, "pitch": 64, "duration": 1, "velocity": 64}, {"time": 544, "pitch": 62, "duration": 2, "velocity": 64}, {"time": 546, "pitch": 61, "duration": 2, "velocity": 64}, {"time": 548, "pitch": 64, "duration": 1, "velocity": 64}, {"time": 549, "pitch": 57, "duration": 1, "velocity": 64}, {"time": 550, "pitch": 61, "duration": 2, "velocity": 64}, {"time": 552, "pitch": 54, "duration": 2, "velocity": 64}, {"time": 554, "pitch": 57, "duration": 1, "velocity": 64}, {"time": 555, "pitch": 62, "duration": 1, "velocity": 64}, {"time": 556, "pitch": 61, "duration": 2, "velocity": 64}, {"time": 558, "pitch": 59, "duration": 2, "velocity": 64}, {"time": 560, "pitch": 62, "duration": 1, "velocity": 64}, {"time": 561, "pitch": 56, "duration": 1, "velocity": 64}, {"time": 562, "pitch": 59, "duration": 2, "velocity": 64}, {"time": 564, "pitch": 53, "duration": 2, "velocity": 64}, {"time": 566, "pitch": 56, "duration": 1, "velocity": 64}, {"time": 567, "pitch": 61, "duration": 1, "velocity": 64}, {"time": 568, "pitch": 59, "duration": 2, "velocity": 64}, {"time": 570, "pitch": 57, "duration": 3, "velocity": 64}, {"time": 573, "pitch": 54, "duration": 3, "velocity": 64}, {"time": 576, "pitch": 59, "duration": 3, "velocity": 64}, {"time": 579, "pitch": 61, "duration": 3, "velocity": 64}, {"time": 582, "pitch": 57, "duration": 3, "velocity": 64}, {"time": 585, "pitch": 62, "duration": 3, "velocity": 64}, {"time": 588, "pitch": 59, "duration": 3, "velocity": 64}, {"time": 591, "pitch": 61, "duration": 3, "velocity": 64}, {"time": 594, "pitch": 57, "duration": 3, "velocity": 64}, {"time": 597, "pitch": 62, "duration": 3, "velocity": 64}, {"time": 600, "pitch": 59, "duration": 3, "velocity": 64}, {"time": 603, "pitch": 61, "duration": 3, "velocity": 64}, {"time": 606, "pitch": 57, "duration": 3, "velocity": 64}, {"time": 609, "pitch": 59, "duration": 3, "velocity": 64}, {"time": 612, "pitch": 61, "duration": 3, "velocity": 64}, {"time": 615, "pitch": 49, "duration": 3, "velocity": 64}, {"time": 618, "pitch": 42, "duration": 3, "velocity": 64}, {"time": 621, "pitch": 54, "duration": 3, "velocity": 64}, {"time": 624, "pitch": 47, "duration": 3, "velocity": 64}, {"time": 627, "pitch": 49, "duration": 3, "velocity": 64}, {"time": 630, "pitch": 45, "duration": 3, "velocity": 64}, {"time": 633, "pitch": 50, "duration": 3, "velocity": 64}, {"time": 636, "pitch": 47, "duration": 3, "velocity": 64}, {"time": 639, "pitch": 49, "duration": 3, "velocity": 64}, {"time": 642, "pitch": 45, "duration": 3, "velocity": 64}, {"time": 645, "pitch": 50, "duration": 3, "velocity": 64}, {"time": 648, "pitch": 47, "duration": 3, "velocity": 64}, {"time": 651, "pitch": 49, "duration": 3, "velocity": 64}, {"time": 654, "pitch": 45, "duration": 3, "velocity": 64}, {"time": 657, "pitch": 47, "duration": 3, "velocity": 64}, {"time": 660, "pitch": 49, "duration": 3, "velocity": 64}, {"time": 663, "pitch": 49, "duration": 3, "velocity": 64}, {"time": 666, "pitch": 42, "duration": 2, "velocity": 64}, {"time": 668, "pitch": 54, "duration": 1, "velocity": 64}, {"time": 669, "pitch": 52, "duration": 1, "velocity": 64}, {"time": 670, "pitch": 50, "duration": 2, "velocity": 64}, {"time": 672, "pitch": 49, "duration": 3, "velocity": 64}, {"time": 675, "pitch": 57, "duration": 3, "velocity": 64}, {"time": 678, "pitch": 56, "duration": 3, "velocity": 64}, {"time": 681, "pitch": 52, "duration": 3, "velocity": 64}, {"time": 684, "pitch": 57, "duration": 3, "velocity": 64}, {"time": 687, "pitch": 45, "duration": 3, "velocity": 64}, {"time": 690, "pitch": 52, "duration": 3, "velocity": 64}, {"time": 693, "pitch": 50, "duration": 3, "velocity": 64}, {"time": 696, "pitch": 49, "duration": 3, "velocity": 64}, {"time": 699, "pitch": 57, "duration": 3, "velocity": 64}, {"time": 702, "pitch": 56, "duration": 3, "velocity": 64}, {"time": 705, "pitch": 52, "duration": 3, "velocity": 64}, {"time": 708, "pitch": 57, "duration": 3, "velocity": 64}, {"time": 711, "pitch": 45, "duration": 3, "velocity": 64}, {"time": 714, "pitch": 52, "duration": 3, "velocity": 64}, {"time": 717, "pitch": 62, "duration": 3, "velocity": 64}, {"time": 720, "pitch": 61, "duration": 3, "velocity": 64}, {"time": 723, "pitch": 57, "duration": 3, "velocity": 64}, {"time": 726, "pitch": 62, "duration": 3, "velocity": 64}, {"time": 729, "pitch": 66, "duration": 3, "velocity": 64}, {"time": 732, "pitch": 61, "duration": 3, "velocity": 64}, {"time": 735, "pitch": 57, "duration": 3, "velocity": 64}, {"time": 738, "pitch": 62, "duration": 3, "velocity": 64}, {"time": 741, "pitch": 66, "duration": 3, "velocity": 64}, {"time": 744, "pitch": 63, "duration": 3, "velocity": 64}, {"time": 747, "pitch": 59, "duration": 3, "velocity": 64}, {"time": 750, "pitch": 64, "duration": 3, "velocity": 64}, {"time": 753, "pitch": 68, "duration": 3, "velocity": 64}, {"time": 756, "pitch": 63, "duration": 3, "velocity": 64}, {"time": 759, "pitch": 59, "duration": 3, "velocity": 64}, {"time": 762, "pitch": 52, "duration": 6, "velocity": 64}, {"time": 768, "pitch": 57, "duration": 3, "velocity": 64}, {"time": 771, "pitch": 61, "duration": 3, "velocity": 64}, {"time": 774, "pitch": 62, "duration": 3, "velocity": 64}, {"time": 777, "pitch": 54, "duration": 3, "velocity": 64}, {"time": 780, "pitch": 56, "duration": 3, "velocity": 64}, {"time": 783, "pitch": 59, "duration": 3, "velocity": 64}, {"time": 786, "pitch": 61, "duration": 3, "velocity": 64}, {"time": 789, "pitch": 52, "duration": 3, "velocity": 64}, {"time": 792, "pitch": 54, "duration": 3, "velocity": 64}, {"time": 795, "pitch": 57, "duration": 3, "velocity": 64}, {"time": 798, "pitch": 59, "duration": 3, "velocity": 64}, {"time": 801, "pitch": 50, "duration": 3, "velocity": 64}, {"time": 804, "pitch": 52, "duration": 3, "velocity": 64}, {"time": 807, "pitch": 56, "duration": 3, "velocity": 64}, {"time": 810, "pitch": 57, "duration": 2, "velocity": 64}, {"time": 812, "pitch": 64, "duration": 1, "velocity": 64}, {"time": 813, "pitch": 63, "duration": 1, "velocity": 64}, {"time": 814, "pitch": 64, "duration": 2, "velocity": 64}, {"time": 816, "pitch": 61, "duration": 2, "velocity": 64}, {"time": 818, "pitch": 64, "duration": 1, "velocity": 64}, {"time": 819, "pitch": 57, "duration": 1, "velocity": 64}, {"time": 820, "pitch": 61, "duration": 2, "velocity": 64}, {"time": 822, "pitch": 54, "duration": 2, "velocity": 64}, {"time": 824, "pitch": 62, "duration": 1, "velocity": 64}, {"time": 825, "pitch": 61, "duration": 1, "velocity": 64}, {"time": 826, "pitch": 62, "duration": 2, "velocity": 64}, {"time": 828, "pitch": 59, "duration": 2, "velocity": 64}, {"time": 830, "pitch": 62, "duration": 1, "velocity": 64}, {"time": 831, "pitch": 56, "duration": 1, "velocity": 64}, {"time": 832, "pitch": 59, "duration": 2, "velocity": 64}, {"time": 834, "pitch": 52, "duration": 2, "velocity": 64}, {"time": 836, "pitch": 61, "duration": 1, "velocity": 64}, {"time": 837, "pitch": 59, "duration": 1, "velocity": 64}, {"time": 838, "pitch": 61, "duration": 2, "velocity": 64}, {"time": 840, "pitch": 57, "duration": 2, "velocity": 64}, {"time": 842, "pitch": 61, "duration": 1, "velocity": 64}, {"time": 843, "pitch": 54, "duration": 1, "velocity": 64}, {"time": 844, "pitch": 57, "duration": 2, "velocity": 64}, {"time": 846, "pitch": 50, "duration": 2, "velocity": 64}, {"time": 848, "pitch": 59, "duration": 1, "velocity": 64}, {"time": 849, "pitch": 57, "duration": 1, "velocity": 64}, {"time": 850, "pitch": 59, "duration": 2, "velocity": 64}, {"time": 852, "pitch": 56, "duration": 2, "velocity": 64}, {"time": 854, "pitch": 59, "duration": 1, "velocity": 64}, {"time": 855, "pitch": 52, "duration": 1, "velocity": 64}, {"time": 856, "pitch": 56, "duration": 2, "velocity": 64}, {"time": 858, "pitch": 49, "duration": 3, "velocity": 64}, {"time": 861, "pitch": 57, "duration": 3, "velocity": 64}, {"time": 864, "pitch": 62, "duration": 3, "velocity": 64}, {"time": 867, "pitch": 64, "duration": 3, "velocity": 64}, {"time": 870, "pitch": 61, "duration": 3, "velocity": 64}, {"time": 873, "pitch": 66, "duration": 3, "velocity": 64}, {"time": 876, "pitch": 62, "duration": 3, "velocity": 64}, {"time": 879, "pitch": 64, "duration": 3, "velocity": 64}, {"time": 882, "pitch": 61, "duration": 3, "velocity": 64}, {"time": 885, "pitch": 66, "duration": 3, "velocity": 64}, {"time": 888, "pitch": 62, "duration": 3, "velocity": 64}, {"time": 891, "pitch": 64, "duration": 3, "velocity": 64}, {"time": 894, "pitch": 61, "duration": 3, "velocity": 64}, {"time": 897, "pitch": 62, "duration": 3, "velocity": 64}, {"time": 900, "pitch": 64, "duration": 3, "velocity": 64}, {"time": 903, "pitch": 52, "duration": 3, "velocity": 64}, {"time": 906, "pitch": 45, "duration": 3, "velocity": 64}, {"time": 909, "pitch": 57, "duration": 3, "velocity": 64}, {"time": 912, "pitch": 50, "duration": 3, "velocity": 64}, {"time": 915, "pitch": 52, "duration": 3, "velocity": 64}, {"time": 918, "pitch": 49, "duration": 3, "velocity": 64}, {"time": 921, "pitch": 54, "duration": 3, "velocity": 64}, {"time": 924, "pitch": 50, "duration": 3, "velocity": 64}, {"time": 927, "pitch": 52, "duration": 3, "velocity": 64}, {"time": 930, "pitch": 49, "duration": 3, "velocity": 64}, {"time": 933, "pitch": 54, "duration": 3, "velocity": 64}, {"time": 936, "pitch": 50, "duration": 3, "velocity": 64}, {"time": 939, "pitch": 52, "duration": 3, "velocity": 64}, {"time": 942, "pitch": 49, "duration": 3, "velocity": 64}, {"time": 945, "pitch": 50, "duration": 3, "velocity": 64}, {"time": 948, "pitch": 52, "duration": 3, "velocity": 64}, {"time": 951, "pitch": 52, "duration": 3, "velocity": 64}, {"time": 954, "pitch": 45, "duration": 6, "velocity": 64}, {"time": 963, "pitch": 52, "duration": 3, "velocity": 64}, {"time": 966, "pitch": 51, "duration": 3, "velocity": 64}, {"time": 969, "pitch": 47, "duration": 3, "velocity": 64}, {"time": 972, "pitch": 52, "duration": 3, "velocity": 64}, {"time": 975, "pitch": 40, "duration": 3, "velocity": 64}, {"time": 978, "pitch": 47, "duration": 3, "velocity": 64}, {"time": 981, "pitch": 45, "duration": 3, "velocity": 64}, {"time": 984, "pitch": 44, "duration": 3, "velocity": 64}, {"time": 987, "pitch": 52, "duration": 3, "velocity": 64}, {"time": 990, "pitch": 51, "duration": 3, "velocity": 64}, {"time": 993, "pitch": 47, "duration": 3, "velocity": 64}, {"time": 996, "pitch": 52, "duration": 3, "velocity": 64}, {"time": 999, "pitch": 40, "duration": 3, "velocity": 64}, {"time": 1002, "pitch": 47, "duration": 3, "velocity": 64}, {"time": 1005, "pitch": 57, "duration": 3, "velocity": 64}, {"time": 1008, "pitch": 56, "duration": 3, "velocity": 64}, {"time": 1011, "pitch": 52, "duration": 3, "velocity": 64}, {"time": 1014, "pitch": 57, "duration": 3, "velocity": 64}, {"time": 1017, "pitch": 54, "duration": 3, "velocity": 64}, {"time": 1020, "pitch": 59, "duration": 3, "velocity": 64}, {"time": 1023, "pitch": 56, "duration": 3, "velocity": 64}, {"time": 1026, "pitch": 61, "duration": 3, "velocity": 64}, {"time": 1029, "pitch": 57, "duration": 3, "velocity": 64}, {"time": 1032, "pitch": 56, "duration": 3, "velocity": 64}, {"time": 1035, "pitch": 52, "duration": 3, "velocity": 64}, {"time": 1038, "pitch": 57, "duration": 3, "velocity": 64}, {"time": 1041, "pitch": 54, "duration": 3, "velocity": 64}, {"time": 1044, "pitch": 59, "duration": 3, "velocity": 64}, {"time": 1047, "pitch": 47, "duration": 3, "velocity": 64}, {"time": 1050, "pitch": 40, "duration": 3, "velocity": 64}, {"time": 1053, "pitch": 52, "duration": 6, "velocity": 64}, {"time": 1059, "pitch": 51, "duration": 3, "velocity": 64}, {"time": 1062, "pitch": 52, "duration": 3, "velocity": 64}, {"time": 1065, "pitch": 49, "duration": 3, "velocity": 64}, {"time": 1068, "pitch": 50, "duration": 3, "velocity": 64}, {"time": 1071, "pitch": 46, "duration": 3, "velocity": 64}, {"time": 1074, "pitch": 47, "duration": 3, "velocity": 64}, {"time": 1077, "pitch": 59, "duration": 6, "velocity": 64}, {"time": 1083, "pitch": 58, "duration": 3, "velocity": 64}, {"time": 1086, "pitch": 59, "duration": 3, "velocity": 64}, {"time": 1089, "pitch": 56, "duration": 3, "velocity": 64}, {"time": 1092, "pitch": 57, "duration": 3, "velocity": 64}, {"time": 1095, "pitch": 53, "duration": 3, "velocity": 64}, {"time": 1098, "pitch": 54, "duration": 9, "velocity": 64}, {"time": 1107, "pitch": 57, "duration": 3, "velocity": 64}, {"time": 1110, "pitch": 59, "duration": 3, "velocity": 64}, {"time": 1113, "pitch": 62, "duration": 3, "velocity": 64}, {"time": 1116, "pitch": 64, "duration": 3, "velocity": 64}, {"time": 1119, "pitch": 56, "duration": 3, "velocity": 64}, {"time": 1122, "pitch": 57, "duration": 3, "velocity": 64}, {"time": 1125, "pitch": 61, "duration": 3, "velocity": 64}, {"time": 1128, "pitch": 62, "duration": 3, "velocity": 64}, {"time": 1131, "pitch": 54, "duration": 3, "velocity": 64}, {"time": 1134, "pitch": 56, "duration": 3, "velocity": 64}, {"time": 1137, "pitch": 59, "duration": 3, "velocity": 64}, {"time": 1140, "pitch": 61, "duration": 3, "velocity": 64}, {"time": 1143, "pitch": 53, "duration": 3, "velocity": 64}, {"time": 1146, "pitch": 54, "duration": 3, "velocity": 64}, {"time": 1149, "pitch": 61, "duration": 3, "velocity": 64}, {"time": 1152, "pitch": 57, "duration": 2, "velocity": 64}, {"time": 1154, "pitch": 61, "duration": 1, "velocity": 64}, {"time": 1155, "pitch": 66, "duration": 1, "velocity": 64}, {"time": 1156, "pitch": 64, "duration": 2, "velocity": 64}, {"time": 1158, "pitch": 62, "duration": 2, "velocity": 64}, {"time": 1160, "pitch": 66, "duration": 1, "velocity": 64}, {"time": 1161, "pitch": 59, "duration": 1, "velocity": 64}, {"time": 1162, "pitch": 62, "duration": 2, "velocity": 64}, {"time": 1164, "pitch": 56, "duration": 2, "velocity": 64}, {"time": 1166, "pitch": 59, "duration": 1, "velocity": 64}, {"time": 1167, "pitch": 64, "duration": 1, "velocity": 64}, {"time": 1168, "pitch": 62, "duration": 2, "velocity": 64}, {"time": 1170, "pitch": 61, "duration": 2, "velocity": 64}, {"time": 1172, "pitch": 64, "duration": 1, "velocity": 64}, {"time": 1173, "pitch": 57, "duration": 1, "velocity": 64}, {"time": 1174, "pitch": 61, "duration": 2, "velocity": 64}, {"time": 1176, "pitch": 54, "duration": 2, "velocity": 64}, {"time": 1178, "pitch": 57, "duration": 1, "velocity": 64}, {"time": 1179, "pitch": 62, "duration": 1, "velocity": 64}, {"time": 1180, "pitch": 61, "duration": 2, "velocity": 64}, {"time": 1182, "pitch": 59, "duration": 2, "velocity": 64}, {"time": 1184, "pitch": 62, "duration": 1, "velocity": 64}, {"time": 1185, "pitch": 56, "duration": 1, "velocity": 64}, {"time": 1186, "pitch": 59, "duration": 2, "velocity": 64}, {"time": 1188, "pitch": 53, "duration": 2, "velocity": 64}, {"time": 1190, "pitch": 56, "duration": 1, "velocity": 64}, {"time": 1191, "pitch": 61, "duration": 1, "velocity": 64}, {"time": 1192, "pitch": 59, "duration": 2, "velocity": 64}, {"time": 1194, "pitch": 57, "duration": 3, "velocity": 64}, {"time": 1197, "pitch": 54, "duration": 3, "velocity": 64}, {"time": 1200, "pitch": 59, "duration": 3, "velocity": 64}, {"time": 1203, "pitch": 61, "duration": 3, "velocity": 64}, {"time": 1206, "pitch": 57, "duration": 3, "velocity": 64}, {"time": 1209, "pitch": 62, "duration": 3, "velocity": 64}, {"time": 1212, "pitch": 59, "duration": 3, "velocity": 64}, {"time": 1215, "pitch": 61, "duration": 3, "velocity": 64}, {"time": 1218, "pitch": 57, "duration": 3, "velocity": 64}, {"time": 1221, "pitch": 62, "duration": 3, "velocity": 64}, {"time": 1224, "pitch": 59, "duration": 3, "velocity": 64}, {"time": 1227, "pitch": 61, "duration": 3, "velocity": 64}, {"time": 1230, "pitch": 57, "duration": 3, "velocity": 64}, {"time": 1233, "pitch": 59, "duration": 3, "velocity": 64}, {"time": 1236, "pitch": 61, "duration": 3, "velocity": 64}, {"time": 1239, "pitch": 49, "duration": 3, "velocity": 64}, {"time": 1242, "pitch": 42, "duration": 3, "velocity": 64}, {"time": 1245, "pitch": 54, "duration": 3, "velocity": 64}, {"time": 1248, "pitch": 47, "duration": 3, "velocity": 64}, {"time": 1251, "pitch": 49, "duration": 3, "velocity": 64}, {"time": 1254, "pitch": 45, "duration": 3, "velocity": 64}, {"time": 1257, "pitch": 50, "duration": 3, "velocity": 64}, {"time": 1260, "pitch": 47, "duration": 3, "velocity": 64}, {"time": 1263, "pitch": 49, "duration": 3, "velocity": 64}, {"time": 1266, "pitch": 45, "duration": 3, "velocity": 64}, {"time": 1269, "pitch": 50, "duration": 3, "velocity": 64}, {"time": 1272, "pitch": 47, "duration": 3, "velocity": 64}, {"time": 1275, "pitch": 49, "duration": 3, "velocity": 64}, {"time": 1278, "pitch": 45, "duration": 3, "velocity": 64}, {"time": 1281, "pitch": 47, "duration": 3, "velocity": 64}, {"time": 1284, "pitch": 49, "duration": 3, "velocity": 64}, {"time": 1287, "pitch": 49, "duration": 3, "velocity": 64}, {"time": 1290, "pitch": 42, "duration": 2, "velocity": 64}, {"time": 1292, "pitch": 54, "duration": 1, "velocity": 64}, {"time": 1293, "pitch": 52, "duration": 1, "velocity": 64}, {"time": 1294, "pitch": 50, "duration": 2, "velocity": 64}, {"time": 1296, "pitch": 49, "duration": 3, "velocity": 64}, {"time": 1299, "pitch": 57, "duration": 3, "velocity": 64}, {"time": 1302, "pitch": 56, "duration": 3, "velocity": 64}, {"time": 1305, "pitch": 52, "duration": 3, "velocity": 64}, {"time": 1308, "pitch": 57, "duration": 3, "velocity": 64}, {"time": 1311, "pitch": 45, "duration": 3, "velocity": 64}, {"time": 1314, "pitch": 52, "duration": 3, "velocity": 64}, {"time": 1317, "pitch": 50, "duration": 3, "velocity": 64}, {"time": 1320, "pitch": 49, "duration": 3, "velocity": 64}, {"time": 1323, "pitch": 57, "duration": 3, "velocity": 64}, {"time": 1326, "pitch": 56, "duration": 3, "velocity": 64}, {"time": 1329, "pitch": 52, "duration": 3, "velocity": 64}, {"time": 1332, "pitch": 57, "duration": 3, "velocity": 64}, {"time": 1335, "pitch": 45, "duration": 3, "velocity": 64}, {"time": 1338, "pitch": 52, "duration": 3, "velocity": 64}, {"time": 1341, "pitch": 62, "duration": 3, "velocity": 64}, {"time": 1344, "pitch": 61, "duration": 3, "velocity": 64}, {"time": 1347, "pitch": 57, "duration": 3, "velocity": 64}, {"time": 1350, "pitch": 62, "duration": 3, "velocity": 64}, {"time": 1353, "pitch": 66, "duration": 3, "velocity": 64}, {"time": 1356, "pitch": 61, "duration": 3, "velocity": 64}, {"time": 1359, "pitch": 57, "duration": 3, "velocity": 64}, {"time": 1362, "pitch": 62, "duration": 3, "velocity": 64}, {"time": 1365, "pitch": 66, "duration": 3, "velocity": 64}, {"time": 1368, "pitch": 63, "duration": 3, "velocity": 64}, {"time": 1371, "pitch": 59, "duration": 3, "velocity": 64}, {"time": 1374, "pitch": 64, "duration": 3, "velocity": 64}, {"time": 1377, "pitch": 68, "duration": 3, "velocity": 64}, {"time": 1380, "pitch": 63, "duration": 3, "velocity": 64}, {"time": 1383, "pitch": 59, "duration": 3, "velocity": 64}, {"time": 1386, "pitch": 52, "duration": 6, "velocity": 64}, {"time": 1392, "pitch": 57, "duration": 3, "velocity": 64}, {"time": 1395, "pitch": 61, "duration": 3, "velocity": 64}, {"time": 1398, "pitch": 62, "duration": 3, "velocity": 64}, {"time": 1401, "pitch": 54, "duration": 3, "velocity": 64}, {"time": 1404, "pitch": 56, "duration": 3, "velocity": 64}, {"time": 1407, "pitch": 59, "duration": 3, "velocity": 64}, {"time": 1410, "pitch": 61, "duration": 3, "velocity": 64}, {"time": 1413, "pitch": 52, "duration": 3, "velocity": 64}, {"time": 1416, "pitch": 54, "duration": 3, "velocity": 64}, {"time": 1419, "pitch": 57, "duration": 3, "velocity": 64}, {"time": 1422, "pitch": 59, "duration": 3, "velocity": 64}, {"time": 1425, "pitch": 50, "duration": 3, "velocity": 64}, {"time": 1428, "pitch": 52, "duration": 3, "velocity": 64}, {"time": 1431, "pitch": 56, "duration": 3, "velocity": 64}, {"time": 1434, "pitch": 57, "duration": 2, "velocity": 64}, {"time": 1436, "pitch": 64, "duration": 1, "velocity": 64}, {"time": 1437, "pitch": 63, "duration": 1, "velocity": 64}, {"time": 1438, "pitch": 64, "duration": 2, "velocity": 64}, {"time": 1440, "pitch": 61, "duration": 2, "velocity": 64}, {"time": 1442, "pitch": 64, "duration": 1, "velocity": 64}, {"time": 1443, "pitch": 57, "duration": 1, "velocity": 64}, {"time": 1444, "pitch": 61, "duration": 2, "velocity": 64}, {"time": 1446, "pitch": 54, "duration": 2, "velocity": 64}, {"time": 1448, "pitch": 62, "duration": 1, "velocity": 64}, {"time": 1449, "pitch": 61, "duration": 1, "velocity": 64}, {"time": 1450, "pitch": 62, "duration": 2, "velocity": 64}, {"time": 1452, "pitch": 59, "duration": 2, "velocity": 64}, {"time": 1454, "pitch": 62, "duration": 1, "velocity": 64}, {"time": 1455, "pitch": 56, "duration": 1, "velocity": 64}, {"time": 1456, "pitch": 59, "duration": 2, "velocity": 64}, {"time": 1458, "pitch": 52, "duration": 2, "velocity": 64}, {"time": 1460, "pitch": 61, "duration": 1, "velocity": 64}, {"time": 1461, "pitch": 59, "duration": 1, "velocity": 64}, {"time": 1462, "pitch": 61, "duration": 2, "velocity": 64}, {"time": 1464, "pitch": 57, "duration": 2, "velocity": 64}, {"time": 1466, "pitch": 61, "duration": 1, "velocity": 64}, {"time": 1467, "pitch": 54, "duration": 1, "velocity": 64}, {"time": 1468, "pitch": 57, "duration": 2, "velocity": 64}, {"time": 1470, "pitch": 50, "duration": 2, "velocity": 64}, {"time": 1472, "pitch": 59, "duration": 1, "velocity": 64}, {"time": 1473, "pitch": 57, "duration": 1, "velocity": 64}, {"time": 1474, "pitch": 59, "duration": 2, "velocity": 64}, {"time": 1476, "pitch": 56, "duration": 2, "velocity": 64}, {"time": 1478, "pitch": 59, "duration": 1, "velocity": 64}, {"time": 1479, "pitch": 52, "duration": 1, "velocity": 64}, {"time": 1480, "pitch": 56, "duration": 2, "velocity": 64}, {"time": 1482, "pitch": 49, "duration": 3, "velocity": 64}, {"time": 1485, "pitch": 57, "duration": 3, "velocity": 64}, {"time": 1488, "pitch": 62, "duration": 3, "velocity": 64}, {"time": 1491, "pitch": 64, "duration": 3, "velocity": 64}, {"time": 1494, "pitch": 61, "duration": 3, "velocity": 64}, {"time": 1497, "pitch": 66, "duration": 3, "velocity": 64}, {"time": 1500, "pitch": 62, "duration": 3, "velocity": 64}, {"time": 1503, "pitch": 64, "duration": 3, "velocity": 64}, {"time": 1506, "pitch": 61, "duration": 3, "velocity": 64}, {"time": 1509, "pitch": 66, "duration": 3, "velocity": 64}, {"time": 1512, "pitch": 62, "duration": 3, "velocity": 64}, {"time": 1515, "pitch": 64, "duration": 3, "velocity": 64}, {"time": 1518, "pitch": 61, "duration": 3, "velocity": 64}, {"time": 1521, "pitch": 62, "duration": 3, "velocity": 64}, {"time": 1524, "pitch": 64, "duration": 3, "velocity": 64}, {"time": 1527, "pitch": 52, "duration": 3, "velocity": 64}, {"time": 1530, "pitch": 45, "duration": 3, "velocity": 64}, {"time": 1533, "pitch": 57, "duration": 3, "velocity": 64}, {"time": 1536, "pitch": 50, "duration": 3, "velocity": 64}, {"time": 1539, "pitch": 52, "duration": 3, "velocity": 64}, {"time": 1542, "pitch": 49, "duration": 3, "velocity": 64}, {"time": 1545, "pitch": 54, "duration": 3, "velocity": 64}, {"time": 1548, "pitch": 50, "duration": 3, "velocity": 64}, {"time": 1551, "pitch": 52, "duration": 3, "velocity": 64}, {"time": 1554, "pitch": 49, "duration": 3, "velocity": 64}, {"time": 1557, "pitch": 54, "duration": 3, "velocity": 64}, {"time": 1560, "pitch": 50, "duration": 3, "velocity": 64}, {"time": 1563, "pitch": 52, "duration": 3, "velocity": 64}, {"time": 1566, "pitch": 49, "duration": 3, "velocity": 64}, {"time": 1569, "pitch": 50, "duration": 3, "velocity": 64}, {"time": 1572, "pitch": 52, "duration": 3, "velocity": 64}, {"time": 1575, "pitch": 52, "duration": 3, "velocity": 64}, {"time": 1578, "pitch": 45, "duration": 6, "velocity": 64}]}]}