{"metadata": {"schema_version": "0.2"}, "resolution": 12, "tempos": [{"time": 0, "qpm": 100.0}], "tracks": [{"program": 40, "is_drum": false, "notes": [{"time": 0, "pitch": 74, "duration": 2, "velocity": 64}, {"time": 12, "pitch": 74, "duration": 2, "velocity": 64}, {"time": 18, "pitch": 67, "duration": 2, "velocity": 64}, {"time": 12, "pitch": 62, "duration": 2, "velocity": 64}, {"time": 18, "pitch": 71, "duration": 3, "velocity": 64}, {"time": 18, "pitch": 69, "duration": 1, "velocity": 64}, {"time": 24, "pitch": 66, "duration": 2, "velocity": 64}, {"time": 0, "pitch": 74, "duration": 1, "velocity": 64}, {"time": 30, "pitch": 76, "duration": 3, "velocity": 64}, {"time": 24, "pitch": 50, "duration": 2, "velocity": 64}, {"time": 36, "pitch": 62, "duration": 1, "velocity": 64}, {"time": 21, "pitch": 73, "duration": 3, "velocity": 64}, {"time": 144, "pitch": 55, "duration": 2, "velocity": 64}, {"time": 66, "pitch": 52, "duration": 2, "velocity": 64}, {"time": 30, "pitch": 62, "duration": 3, "velocity": 64}, {"time": 30, "pitch": 69, "duration": 1, "velocity": 64}, {"time": 33, "pitch": 55, "duration": 2, "velocity": 64}, {"time": 93, "pitch": 55, "duration": 1, "velocity": 64}, {"time": 141, "pitch": 59, "duration": 1, "velocity": 64}, {"time": 168, "pitch": 69, "duration": 2, "velocity": 64}, {"time": 72, "pitch": 62, "duration": 2, "velocity": 64}, {"time": 189, "pitch": 62, "duration": 3, "velocity": 64}, {"time": 36, "pitch": 66, "duration": 2, "velocity": 64}, {"time": 294, "pitch": 59, "duration": 1, "velocity": 64}, {"time": 60, "pitch": 59, "duration": 1, "velocity": 64}, {"time": 132, "pitch": 73, "duration": 3, "velocity": 64}, {"time": 117, "pitch": 69, "duration": 2, "velocity": 64}, {"time": 240, "pitch": 59, "duration": 1, "velocity": 64}, {"time": 132, "pitch": 64, "duration": 2, "velocity": 64}, {"time": 105, "pitch": 52, "duration": 2, "velocity": 64}, {"time": 36, "pitch": 69, "duration": 1, "velocity": 64}, {"time": 93, "pitch": 57, "duration": 2, "velocity": 64}, {"time": 156, "pitch": 62, "duration": 2, "velocity": 64}, {"time": 177, "pitch": 71, "duration": 2, "velocity": 64}, {"time": 120, "pitch": 62, "duration": 1, "velocity": 64}, {"time": 120, "pitch": 59, "duration": 2, "velocity": 64}, {"time": 177, "pitch": 76, "duration": 1, "velocity": 64}, {"time": 144, "pitch": 62, "duration": 1, "velocity": 64}, {"time": 282, "pitch": 55, "duration": 1, "velocity": 64}, {"time": 162, "pitch": 73, "duration": 2, "velocity": 64}, {"time": 204, "pitch": 61, "duration": 2, "velocity": 64}, {"time": 96, "pitch": 74, "duration": 1, "velocity": 64}, {"time": 120, "pitch": 54, "duration": 2, "velocity": 64}, {"time": 87, "pitch": 74, "duration": 2, "velocity": 64}, {"time": 72, "pitch": 64, "duration": 2, "velocity": 64}, {"time": 309, "pitch": 74, "duration": 3, "velocity": 64}, {"time": 141, "pitch": 62, "duration": 1, "velocity": 64}, {"time": 306, "pitch": 69, "duration": 2, "velocity": 64}, {"time": 132, "pitch": 69, "duration": 1, "velocity": 64}, {"time": 372, "pitch": 61, "duration": 2, "velocity": 64}, {"time": 237, "pitch": 73, "duration": 2, "velocity": 64}, {"time": 300, "pitch": 61, "duration": 1, "velocity": 64}, {"time": 150, "pitch": 66, "duration": 2, "velocity": 64}, {"time": 114, "pitch": 64, "duration": 6, "velocity": 64}, {"time": 276, "pitch": 76, "duration": 3, "velocity": 64}, {"time": 168, "pitch": 64, "duration": 1, "velocity": 64}, {"time": 264, "pitch": 64, "duration": 2, "velocity": 64}, {"time": 108, "pitch": 61, "duration": 2, "velocity": 64}, {"time": 108, "pitch": 64, "duration": 1, "velocity": 64}, {"time": 237, "pitch": 71, "duration": 2, "velocity": 64}, {"time": 270, "pitch": 64, "duration": 1, "velocity": 64}, {"time": 282, "pitch": 59, "duration": 3, "velocity": 64}, {"time": 186, "pitch": 73, "duration": 2, "velocity": 64}, {"time": 396, "pitch": 66, "duration": 3, "velocity": 64}, {"time": 426, "pitch": 64, "duration": 3, "velocity": 64}, {"time": 324, "pitch": 64, "duration": 1, "velocity": 64}, {"time": 354, "pitch": 68, "duration": 2, "velocity": 64}, {"time": 210, "pitch": 73, "duration": 2, "velocity": 64}, {"time": 366, "pitch": 71, "duration": 3, "velocity": 64}, {"time": 162, "pitch": 59, "duration": 2, "velocity": 64}, {"time": 426, "pitch": 73, "duration": 2, "velocity": 64}, {"time": 180, "pitch": 74, "duration": 1, "velocity": 64}, {"time": 270, "pitch": 59, "duration": 2, "velocity": 64}, {"time": 246, "pitch": 57, "duration": 3, "velocity": 64}, {"time": 396, "pitch": 59, "duration": 1, "velocity": 64}, {"time": 240, "pitch": 59, "duration": 3, "velocity": 64}, {"time": 282, "pitch": 71, "duration": 3, "velocity": 64}, {"time": 162, "pitch": 74, "duration": 2, "velocity": 64}, {"time": 402, "pitch": 66, "duration": 2, "velocity": 64}, {"time": 168, "pitch": 66, "duration": 3, "velocity": 64}, {"time": 282, "pitch": 64, "duration": 1, "velocity": 64}, {"time": 234, "pitch": 69, "duration": 1, "velocity": 64}, {"time": 528, "pitch": 69, "duration": 1, "velocity": 64}, {"time": 294, "pitch": 64, "duration": 2, "velocity": 64}, {"time": 246, "pitch": 61, "duration": 2, "velocity": 64}, {"time": 369, "pitch": 62, "duration": 3, "velocity": 64}, {"time": 240, "pitch": 54, "duration": 2, "velocity": 64}, {"time": 522, "pitch": 76, "duration": 1, "velocity": 64}, {"time": 288, "pitch": 69, "duration": 2, "velocity": 64}, {"time": 168, "pitch": 66, "duration": 2, "velocity": 64}, {"time": 330, "pitch": 76, "duration": 3, "velocity": 64}, {"time": 234, "pitch": 74, "duration": 2, "velocity": 64}, {"time": 252, "pitch": 73, "duration": 2, "velocity": 64}, {"time": 270, "pitch": 57, "duration": 1, "velocity": 64}, {"time": 180, "pitch": 61, "duration": 2, "velocity": 64}, {"time": 192, "pitch": 66, "duration": 1, "velocity": 64}, {"time": 252, "pitch": 71, "duration": 2, "velocity": 64}, {"time": 432, "pitch": 64, "duration": 3, "velocity": 64}, {"time": 240, "pitch": 54, "duration": 6, "velocity": 64}, {"time": 420, "pitch": 57, "duration": 3, "velocity": 64}, {"time": 312, "pitch": 64, "duration": 3, "velocity": 64}, {"time": 186, "pitch": 55, "duration": 3, "velocity": 64}, {"time": 306, "pitch": 66, "duration": 1, "velocity": 64}, {"time": 294, "pitch": 66, "duration": 3, "velocity": 64}, {"time": 180, "pitch": 66, "duration": 1, "velocity": 64}, {"time": 207, "pitch": 47, "duration": 3, "velocity": 64}, {"time": 324, "pitch": 74, "duration": 1, "velocity": 64}, {"time": 294, "pitch": 52, "duration": 2, "velocity": 64}, {"time": 342, "pitch": 55, "duration": 2, "velocity": 64}, {"time": 336, "pitch": 50, "duration": 3, "velocity": 64}, {"time": 468, "pitch": 66, "duration": 3, "velocity": 64}, {"time": 300, "pitch": 59, "duration": 3, "velocity": 64}, {"time": 396, "pitch": 64, "duration": 3, "velocity": 64}, {"time": 300, "pitch": 71, "duration": 3, "velocity": 64}, {"time": 252, "pitch": 57, "duration": 3, "velocity": 64}, {"time": 426, "pitch": 59, "duration": 1, "velocity": 64}, {"time": 330, "pitch": 64, "duration": 3, "velocity": 64}, {"time": 258, "pitch": 71, "duration": 1, "velocity": 64}, {"time": 474, "pitch": 74, "duration": 2, "velocity": 64}, {"time": 291, "pitch": 66, "duration": 1, "velocity": 64}, {"time": 318, "pitch": 62, "duration": 1, "velocity": 64}, {"time": 462, "pitch": 61, "duration": 3, "velocity": 64}, {"time": 318, "pitch": 64, "duration": 3, "velocity": 64}, {"time": 342, "pitch": 73, "duration": 3, "velocity": 64}, {"time": 396, "pitch": 73, "duration": 6, "velocity": 64}, {"time": 432, "pitch": 54, "duration": 3, "velocity": 64}, {"time": 330, "pitch": 71, "duration": 3, "velocity": 64}, {"time": 312, "pitch": 74, "duration": 3, "velocity": 64}, {"time": 414, "pitch": 47, "duration": 3, "velocity": 64}, {"time": 516, "pitch": 74, "duration": 3, "velocity": 64}, {"time": 294, "pitch": 61, "duration": 3, "velocity": 64}, {"time": 462, "pitch": 52, "duration": 6, "velocity": 64}, {"time": 216, "pitch": 71, "duration": 3, "velocity": 64}, {"time": 480, "pitch": 52, "duration": 3, "velocity": 64}, {"time": 552, "pitch": 62, "duration": 2, "velocity": 64}, {"time": 468, "pitch": 61, "duration": 3, "velocity": 64}, {"time": 378, "pitch": 69, "duration": 2, "velocity": 64}, {"time": 414, "pitch": 71, "duration": 2, "velocity": 64}, {"time": 372, "pitch": 61, "duration": 2, "velocity": 64}, {"time": 396, "pitch": 66, "duration": 3, "velocity": 64}, {"time": 264, "pitch": 59, "duration": 6, "velocity": 64}, {"time": 336, "pitch": 62, "duration": 3, "velocity": 64}, {"time": 366, "pitch": 71, "duration": 2, "velocity": 64}, {"time": 336, "pitch": 54, "duration": 2, "velocity": 64}, {"time": 288, "pitch": 52, "duration": 2, "velocity": 64}, {"time": 348, "pitch": 76, "duration": 2, "velocity": 64}, {"time": 276, "pitch": 57, "duration": 1, "velocity": 64}, {"time": 480, "pitch": 66, "duration": 1, "velocity": 64}, {"time": 408, "pitch": 64, "duration": 3, "velocity": 64}, {"time": 264, "pitch": 61, "duration": 3, "velocity": 64}, {"time": 504, "pitch": 71, "duration": 2, "velocity": 64}, {"time": 504, "pitch": 69, "duration": 2, "velocity": 64}, {"time": 528, "pitch": 73, "duration": 2, "velocity": 64}, {"time": 540, "pitch": 66, "duration": 3, "velocity": 64}, {"time": 450, "pitch": 69, "duration": 1, "velocity": 64}, {"time": 486, "pitch": 57, "duration": 2, "velocity": 64}, {"time": 336, "pitch": 50, "duration": 3, "velocity": 64}, {"time": 438, "pitch": 69, "duration": 1, "velocity": 64}, {"time": 498, "pitch": 71, "duration": 1, "velocity": 64}, {"time": 348, "pitch": 73, "duration": 3, "velocity": 64}, {"time": 414, "pitch": 69, "duration": 3, "velocity": 64}, {"time": 450, "pitch": 61, "duration": 2, "velocity": 64}, {"time": 630, "pitch": 69, "duration": 2, "velocity": 64}, {"time": 468, "pitch": 52, "duration": 1, "velocity": 64}, {"time": 564, "pitch": 69, "duration": 3, "velocity": 64}, {"time": 336, "pitch": 74, "duration": 2, "velocity": 64}, {"time": 474, "pitch": 68, "duration": 2, "velocity": 64}, {"time": 618, "pitch": 64, "duration": 1, "velocity": 64}, {"time": 531, "pitch": 71, "duration": 1, "velocity": 64}, {"time": 558, "pitch": 71, "duration": 2, "velocity": 64}, {"time": 462, "pitch": 61, "duration": 2, "velocity": 64}, {"time": 438, "pitch": 73, "duration": 2, "velocity": 64}, {"time": 420, "pitch": 54, "duration": 2, "velocity": 64}, {"time": 474, "pitch": 52, "duration": 3, "velocity": 64}, {"time": 522, "pitch": 69, "duration": 1, "velocity": 64}, {"time": 534, "pitch": 69, "duration": 2, "velocity": 64}, {"time": 498, "pitch": 64, "duration": 3, "velocity": 64}, {"time": 600, "pitch": 47, "duration": 2, "velocity": 64}, {"time": 510, "pitch": 64, "duration": 3, "velocity": 64}, {"time": 456, "pitch": 66, "duration": 3, "velocity": 64}, {"time": 543, "pitch": 59, "duration": 1, "velocity": 64}, {"time": 504, "pitch": 71, "duration": 3, "velocity": 64}, {"time": 456, "pitch": 73, "duration": 2, "velocity": 64}, {"time": 582, "pitch": 74, "duration": 3, "velocity": 64}, {"time": 588, "pitch": 69, "duration": 3, "velocity": 64}, {"time": 420, "pitch": 64, "duration": 6, "velocity": 64}, {"time": 738, "pitch": 64, "duration": 1, "velocity": 64}, {"time": 648, "pitch": 69, "duration": 2, "velocity": 64}, {"time": 534, "pitch": 73, "duration": 2, "velocity": 64}, {"time": 372, "pitch": 73, "duration": 2, "velocity": 64}, {"time": 543, "pitch": 54, "duration": 1, "velocity": 64}, {"time": 660, "pitch": 73, "duration": 3, "velocity": 64}, {"time": 507, "pitch": 52, "duration": 2, "velocity": 64}, {"time": 549, "pitch": 71, "duration": 3, "velocity": 64}, {"time": 570, "pitch": 57, "duration": 1, "velocity": 64}, {"time": 507, "pitch": 59, "duration": 2, "velocity": 64}, {"time": 477, "pitch": 54, "duration": 2, "velocity": 64}, {"time": 420, "pitch": 71, "duration": 3, "velocity": 64}, {"time": 630, "pitch": 59, "duration": 1, "velocity": 64}, {"time": 894, "pitch": 59, "duration": 1, "velocity": 64}, {"time": 651, "pitch": 61, "duration": 2, "velocity": 64}, {"time": 792, "pitch": 52, "duration": 2, "velocity": 64}, {"time": 522, "pitch": 69, "duration": 1, "velocity": 64}, {"time": 552, "pitch": 59, "duration": 3, "velocity": 64}, {"time": 672, "pitch": 52, "duration": 1, "velocity": 64}, {"time": 468, "pitch": 59, "duration": 3, "velocity": 64}, {"time": 759, "pitch": 47, "duration": 1, "velocity": 64}, {"time": 690, "pitch": 47, "duration": 2, "velocity": 64}, {"time": 600, "pitch": 74, "duration": 3, "velocity": 64}, {"time": 513, "pitch": 54, "duration": 3, "velocity": 64}, {"time": 654, "pitch": 59, "duration": 1, "velocity": 64}, {"time": 540, "pitch": 54, "duration": 3, "velocity": 64}, {"time": 594, "pitch": 52, "duration": 2, "velocity": 64}, {"time": 594, "pitch": 54, "duration": 1, "velocity": 64}, {"time": 594, "pitch": 71, "duration": 2, "velocity": 64}, {"time": 660, "pitch": 73, "duration": 2, "velocity": 64}, {"time": 966, "pitch": 66, "duration": 3, "velocity": 64}, {"time": 789, "pitch": 52, "duration": 3, "velocity": 64}, {"time": 594, "pitch": 57, "duration": 6, "velocity": 64}, {"time": 1002, "pitch": 73, "duration": 2, "velocity": 64}, {"time": 540, "pitch": 69, "duration": 3, "velocity": 64}, {"time": 576, "pitch": 64, "duration": 3, "velocity": 64}, {"time": 528, "pitch": 69, "duration": 3, "velocity": 64}, {"time": 522, "pitch": 74, "duration": 3, "velocity": 64}, {"time": 528, "pitch": 69, "duration": 2, "velocity": 64}, {"time": 666, "pitch": 73, "duration": 3, "velocity": 64}, {"time": 534, "pitch": 74, "duration": 3, "velocity": 64}, {"time": 786, "pitch": 74, "duration": 3, "velocity": 64}, {"time": 864, "pitch": 73, "duration": 2, "velocity": 64}, {"time": 1017, "pitch": 64, "duration": 1, "velocity": 64}, {"time": 753, "pitch": 69, "duration": 1, "velocity": 64}, {"time": 690, "pitch": 71, "duration": 3, "velocity": 64}, {"time": 618, "pitch": 50, "duration": 1, "velocity": 64}, {"time": 1230, "pitch": 47, "duration": 3, "velocity": 64}, {"time": 552, "pitch": 69, "duration": 3, "velocity": 64}, {"time": 942, "pitch": 47, "duration": 2, "velocity": 64}, {"time": 1014, "pitch": 73, "duration": 1, "velocity": 64}, {"time": 912, "pitch": 71, "duration": 2, "velocity": 64}, {"time": 1122, "pitch": 52, "duration": 1, "velocity": 64}, {"time": 522, "pitch": 47, "duration": 2, "velocity": 64}, {"time": 666, "pitch": 71, "duration": 1, "velocity": 64}, {"time": 870, "pitch": 47, "duration": 3, "velocity": 64}, {"time": 654, "pitch": 57, "duration": 2, "velocity": 64}, {"time": 1224, "pitch": 66, "duration": 2, "velocity": 64}, {"time": 888, "pitch": 54, "duration": 1, "velocity": 64}, {"time": 906, "pitch": 54, "duration": 2, "velocity": 64}, {"time": 1278, "pitch": 68, "duration": 1, "velocity": 64}, {"time": 1020, "pitch": 73, "duration": 2, "velocity": 64}, {"time": 876, "pitch": 68, "duration": 2, "velocity": 64}, {"time": 1260, "pitch": 50, "duration": 3, "velocity": 64}, {"time": 1032, "pitch": 66, "duration": 2, "velocity": 64}, {"time": 936, "pitch": 61, "duration": 2, "velocity": 64}, {"time": 936, "pitch": 66, "duration": 2, "velocity": 64}, {"time": 744, "pitch": 57, "duration": 1, "velocity": 64}, {"time": 1104, "pitch": 61, "duration": 1, "velocity": 64}, {"time": 918, "pitch": 71, "duration": 3, "velocity": 64}, {"time": 906, "pitch": 61, "duration": 2, "velocity": 64}, {"time": 906, "pitch": 73, "duration": 3, "velocity": 64}, {"time": 1008, "pitch": 52, "duration": 2, "velocity": 64}, {"time": 1170, "pitch": 54, "duration": 2, "velocity": 64}, {"time": 972, "pitch": 69, "duration": 2, "velocity": 64}, {"time": 906, "pitch": 73, "duration": 2, "velocity": 64}, {"time": 906, "pitch": 64, "duration": 3, "velocity": 64}, {"time": 1278, "pitch": 54, "duration": 6, "velocity": 64}, {"time": 1185, "pitch": 62, "duration": 3, "velocity": 64}, {"time": 1146, "pitch": 59, "duration": 3, "velocity": 64}, {"time": 930, "pitch": 62, "duration": 2, "velocity": 64}, {"time": 876, "pitch": 54, "duration": 1, "velocity": 64}, {"time": 912, "pitch": 66, "duration": 2, "velocity": 64}, {"time": 960, "pitch": 71, "duration": 3, "velocity": 64}, {"time": 1014, "pitch": 57, "duration": 3, "velocity": 64}, {"time": 948, "pitch": 64, "duration": 3, "velocity": 64}, {"time": 996, "pitch": 69, "duration": 3, "velocity": 64}, {"time": 1002, "pitch": 61, "duration": 2, "velocity": 64}, {"time": 1152, "pitch": 50, "duration": 3, "velocity": 64}, {"time": 1116, "pitch": 69, "duration": 3, "velocity": 64}, {"time": 1140, "pitch": 71, "duration": 1, "velocity": 64}, {"time": 918, "pitch": 71, "duration": 2, "velocity": 64}, {"time": 1032, "pitch": 64, "duration": 3, "velocity": 64}, {"time": 1002, "pitch": 66, "duration": 3, "velocity": 64}, {"time": 1104, "pitch": 62, "duration": 1, "velocity": 64}, {"time": 996, "pitch": 55, "duration": 1, "velocity": 64}, {"time": 1212, "pitch": 71, "duration": 2, "velocity": 64}, {"time": 960, "pitch": 61, "duration": 3, "velocity": 64}, {"time": 954, "pitch": 66, "duration": 2, "velocity": 64}, {"time": 1038, "pitch": 71, "duration": 1, "velocity": 64}, {"time": 1278, "pitch": 66, "duration": 1, "velocity": 64}, {"time": 1176, "pitch": 64, "duration": 3, "velocity": 64}, {"time": 1020, "pitch": 47, "duration": 2, "velocity": 64}, {"time": 1092, "pitch": 55, "duration": 2, "velocity": 64}, {"time": 1092, "pitch": 52, "duration": 1, "velocity": 64}, {"time": 1110, "pitch": 61, "duration": 1, "velocity": 64}, {"time": 924, "pitch": 69, "duration": 3, "velocity": 64}, {"time": 906, "pitch": 57, "duration": 3, "velocity": 64}, {"time": 1050, "pitch": 69, "duration": 1, "velocity": 64}, {"time": 1242, "pitch": 71, "duration": 3, "velocity": 64}, {"time": 1152, "pitch": 69, "duration": 1, "velocity": 64}, {"time": 996, "pitch": 66, "duration": 2, "velocity": 64}, {"time": 906, "pitch": 61, "duration": 3, "velocity": 64}, {"time": 918, "pitch": 64, "duration": 2, "velocity": 64}, {"time": 1314, "pitch": 74, "duration": 1, "velocity": 64}, {"time": 1230, "pitch": 57, "duration": 3, "velocity": 64}, {"time": 864, "pitch": 74, "duration": 1, "velocity": 64}, {"time": 1230, "pitch": 62, "duration": 3, "velocity": 64}, {"time": 1170, "pitch": 59, "duration": 3, "velocity": 64}, {"time": 1008, "pitch": 71, "duration": 1, "velocity": 64}, {"time": 996, "pitch": 64, "duration": 2, "velocity": 64}, {"time": 1056, "pitch": 52, "duration": 2, "velocity": 64}, {"time": 1062, "pitch": 71, "duration": 3, "velocity": 64}, {"time": 1008, "pitch": 66, "duration": 2, "velocity": 64}, {"time": 1176, "pitch": 62, "duration": 2, "velocity": 64}, {"time": 1140, "pitch": 73, "duration": 1, "velocity": 64}, {"time": 1002, "pitch": 71, "duration": 3, "velocity": 64}, {"time": 1110, "pitch": 57, "duration": 3, "velocity": 64}, {"time": 864, "pitch": 57, "duration": 1, "velocity": 64}, {"time": 1182, "pitch": 66, "duration": 2, "velocity": 64}, {"time": 1038, "pitch": 66, "duration": 3, "velocity": 64}, {"time": 936, "pitch": 47, "duration": 2, "velocity": 64}, {"time": 1272, "pitch": 64, "duration": 2, "velocity": 64}, {"time": 1182, "pitch": 71, "duration": 6, "velocity": 64}, {"time": 960, "pitch": 69, "duration": 3, "velocity": 64}, {"time": 1218, "pitch": 50, "duration": 3, "velocity": 64}, {"time": 948, "pitch": 69, "duration": 3, "velocity": 64}, {"time": 1092, "pitch": 66, "duration": 3, "velocity": 64}, {"time": 1128, "pitch": 64, "duration": 3, "velocity": 64}, {"time": 1368, "pitch": 62, "duration": 3, "velocity": 64}, {"time": 1062, "pitch": 66, "duration": 2, "velocity": 64}, {"time": 1236, "pitch": 47, "duration": 1, "velocity": 64}, {"time": 1080, "pitch": 47, "duration": 1, "velocity": 64}, {"time": 1122, "pitch": 47, "duration": 2, "velocity": 64}, {"time": 1350, "pitch": 71, "duration": 3, "velocity": 64}, {"time": 1158, "pitch": 52, "duration": 2, "velocity": 64}, {"time": 1164, "pitch": 57, "duration": 2, "velocity": 64}, {"time": 1350, "pitch": 47, "duration": 2, "velocity": 64}, {"time": 1356, "pitch": 71, "duration": 3, "velocity": 64}, {"time": 1146, "pitch": 64, "duration": 3, "velocity": 64}, {"time": 1254, "pitch": 61, "duration": 3, "velocity": 64}, {"time": 1212, "pitch": 66, "duration": 3, "velocity": 64}, {"time": 1290, "pitch": 54, "duration": 1, "velocity": 64}, {"time": 1056, "pitch": 73, "duration": 2, "velocity": 64}, {"time": 1110, "pitch": 66, "duration": 2, "velocity": 64}, {"time": 1032, "pitch": 64, "duration": 1, "velocity": 64}, {"time": 1140, "pitch": 59, "duration": 2, "velocity": 64}, {"time": 948, "pitch": 73, "duration": 1, "velocity": 64}, {"time": 1266, "pitch": 47, "duration": 1, "velocity": 64}, {"time": 1254, "pitch": 50, "duration": 2, "velocity": 64}, {"time": 1146, "pitch": 59, "duration": 2, "velocity": 64}, {"time": 1212, "pitch": 69, "duration": 3, "velocity": 64}, {"time": 1212, "pitch": 73, "duration": 3, "velocity": 64}, {"time": 1236, "pitch": 47, "duration": 1, "velocity": 64}, {"time": 1290, "pitch": 71, "duration": 3, "velocity": 64}, {"time": 1092, "pitch": 52, "duration": 3, "velocity": 64}, {"time": 1308, "pitch": 52, "duration": 2, "velocity": 64}, {"time": 1146, "pitch": 74, "duration": 2, "velocity": 64}, {"time": 1110, "pitch": 66, "duration": 1, "velocity": 64}, {"time": 1128, "pitch": 74, "duration": 3, "velocity": 64}, {"time": 900, "pitch": 71, "duration": 3, "velocity": 64}, {"time": 1230, "pitch": 76, "duration": 2, "velocity": 64}, {"time": 1344, "pitch": 64, "duration": 3, "velocity": 64}, {"time": 1272, "pitch": 66, "duration": 3, "velocity": 64}, {"time": 1290, "pitch": 73, "duration": 1, "velocity": 64}, {"time": 1116, "pitch": 74, "duration": 3, "velocity": 64}, {"time": 1380, "pitch": 62, "duration": 3, "velocity": 64}, {"time": 1368, "pitch": 59, "duration": 2, "velocity": 64}, {"time": 1116, "pitch": 69, "duration": 2, "velocity": 64}, {"time": 1146, "pitch": 59, "duration": 1, "velocity": 64}, {"time": 1344, "pitch": 66, "duration": 2, "velocity": 64}, {"time": 1266, "pitch": 66, "duration": 1, "velocity": 64}, {"time": 1206, "pitch": 74, "duration": 2, "velocity": 64}, {"time": 1212, "pitch": 66, "duration": 2, "velocity": 64}, {"time": 1122, "pitch": 74, "duration": 2, "velocity": 64}, {"time": 1110, "pitch": 64, "duration": 3, "velocity": 64}, {"time": 1296, "pitch": 69, "duration": 1, "velocity": 64}, {"time": 1092, "pitch": 61, "duration": 2, "velocity": 64}, {"time": 1293, "pitch": 74, "duration": 2, "velocity": 64}, {"time": 1122, "pitch": 69, "duration": 1, "velocity": 64}, {"time": 1164, "pitch": 66, "duration": 3, "velocity": 64}, {"time": 1410, "pitch": 54, "duration": 1, "velocity": 64}, {"time": 1224, "pitch": 52, "duration": 2, "velocity": 64}, {"time": 1134, "pitch": 74, "duration": 3, "velocity": 64}, {"time": 1410, "pitch": 62, "duration": 1, "velocity": 64}, {"time": 1374, "pitch": 78, "duration": 3, "velocity": 64}, {"time": 1104, "pitch": 73, "duration": 3, "velocity": 64}, {"time": 1308, "pitch": 52, "duration": 3, "velocity": 64}, {"time": 1176, "pitch": 64, "duration": 1, "velocity": 64}, {"time": 1404, "pitch": 64, "duration": 3, "velocity": 64}, {"time": 1278, "pitch": 54, "duration": 1, "velocity": 64}, {"time": 1296, "pitch": 74, "duration": 1, "velocity": 64}, {"time": 1254, "pitch": 73, "duration": 2, "velocity": 64}, {"time": 1470, "pitch": 76, "duration": 2, "velocity": 64}, {"time": 1122, "pitch": 73, "duration": 3, "velocity": 64}, {"time": 1464, "pitch": 74, "duration": 6, "velocity": 64}, {"time": 1104, "pitch": 74, "duration": 2, "velocity": 64}, {"time": 1248, "pitch": 76, "duration": 2, "velocity": 64}, {"time": 1158, "pitch": 66, "duration": 2, "velocity": 64}]}]}