{"metadata": {"schema_version": "0.2"}, "resolution": 12, "tempos": [{"time": 0, "qpm": 100.0}], "tracks": [{"program": 74, "is_drum": false, "notes": [{"time": 0, "pitch": 67, "duration": 3, "velocity": 64}, {"time": 3, "pitch": 69, "duration": 3, "velocity": 64}, {"time": 6, "pitch": 70, "duration": 6, "velocity": 64}, {"time": 18, "pitch": 70, "duration": 3, "velocity": 64}, {"time": 21, "pitch": 69, "duration": 3, "velocity": 64}, {"time": 24, "pitch": 67, "duration": 3, "velocity": 64}, {"time": 27, "pitch": 69, "duration": 3, "velocity": 64}, {"time": 30, "pitch": 69, "duration": 4, "velocity": 64}, {"time": 34, "pitch": 67, "duration": 1, "velocity": 64}, {"time": 35, "pitch": 69, "duration": 1, "velocity": 64}, {"time": 36, "pitch": 70, "duration": 2, "velocity": 64}, {"time": 38, "pitch": 67, "duration": 2, "velocity": 64}, {"time": 40, "pitch": 69, "duration": 2, "velocity": 64}, {"time": 42, "pitch": 70, "duration": 6, "velocity": 64}, {"time": 60, "pitch": 70, "duration": 3, "velocity": 64}, {"time": 63, "pitch": 69, "duration": 3, "velocity": 64}, {"time": 66, "pitch": 70, "duration": 3, "velocity": 64}, {"time": 69, "pitch": 72, "duration": 3, "velocity": 64}, {"time": 72, "pitch": 69, "duration": 6, "velocity": 64}, {"time": 78, "pitch": 74, "duration": 6, "velocity": 64}, {"time": 90, "pitch": 79, "duration": 6, "velocity": 64}, {"time": 96, "pitch": 79, "duration": 6, "velocity": 64}, {"time": 102, "pitch": 79, "duration": 6, "velocity": 64}, {"time": 108, "pitch": 79, "duration": 6, "velocity": 64}, {"time": 114, "pitch": 78, "duration": 6, "velocity": 64}, {"time": 120, "pitch": 79, "duration": 3, "velocity": 64}, {"time": 123, "pitch": 81, "duration": 3, "velocity": 64}, {"time": 126, "pitch": 82, "duration": 6, "velocity": 64}, {"time": 132, "pitch": 75, "duration": 6, "velocity": 64}, {"time": 138, "pitch": 75, "duration": 6, "velocity": 64}, {"time": 144, "pitch": 75, "duration": 6, "velocity": 64}, {"time": 150, "pitch": 74, "duration": 6, "velocity": 64}, {"time": 156, "pitch": 75, "duration": 3, "velocity": 64}, {"time": 159, "pitch": 77, "duration": 3, "velocity": 64}, {"time": 162, "pitch": 79, "duration": 6, "velocity": 64}, {"time": 168, "pitch": 72, "duration": 6, "velocity": 64}, {"time": 174, "pitch": 72, "duration": 6, "velocity": 64}, {"time": 180, "pitch": 72, "duration": 6, "velocity": 64}, {"time": 186, "pitch": 70, "duration": 3, "velocity": 64}, {"time": 189, "pitch": 69, "duration": 3, "velocity": 64}, {"time": 192, "pitch": 70, "duration": 3, "velocity": 64}, {"time": 195, "pitch": 67, "duration": 3, "velocity": 64}, {"time": 198, "pitch": 69, "duration": 6, "velocity": 64}, {"time": 204, "pitch": 71, "duration": 6, "velocity": 64}, {"time": 210, "pitch": 67, "duration": 6, "velocity": 64}, {"time": 216, "pitch": 72, "duration": 6, "velocity": 64}, {"time": 222, "pitch": 84, "duration": 3, "velocity": 64}, {"time": 225, "pitch": 82, "duration": 3, "velocity": 64}, {"time": 228, "pitch": 81, "duration": 3, "velocity": 64}, {"time": 231, "pitch": 79, "duration": 3, "velocity": 64}, {"time": 234, "pitch": 78, "duration": 9, "velocity": 64}, {"time": 252, "pitch": 79, "duration": 3, "velocity": 64}, {"time": 255, "pitch": 81, "duration": 3, "velocity": 64}, {"time": 258, "pitch": 81, "duration": 9, "velocity": 64}, {"time": 267, "pitch": 79, "duration": 3, "velocity": 64}, {"time": 270, "pitch": 78, "duration": 18, "velocity": 64}, {"time": 288, "pitch": 74, "duration": 3, "velocity": 64}, {"time": 291, "pitch": 75, "duration": 3, "velocity": 64}, {"time": 294, "pitch": 77, "duration": 6, "velocity": 64}, {"time": 306, "pitch": 74, "duration": 3, "velocity": 64}, {"time": 309, "pitch": 72, "duration": 3, "velocity": 64}, {"time": 312, "pitch": 70, "duration": 3, "velocity": 64}, {"time": 315, "pitch": 72, "duration": 3, "velocity": 64}, {"time": 318, "pitch": 72, "duration": 4, "velocity": 64}, {"time": 322, "pitch": 70, "duration": 1, "velocity": 64}, {"time": 323, "pitch": 72, "duration": 1, "velocity": 64}, {"time": 324, "pitch": 74, "duration": 2, "velocity": 64}, {"time": 326, "pitch": 70, "duration": 2, "velocity": 64}, {"time": 328, "pitch": 72, "duration": 2, "velocity": 64}, {"time": 330, "pitch": 74, "duration": 6, "velocity": 64}, {"time": 348, "pitch": 74, "duration": 3, "velocity": 64}, {"time": 351, "pitch": 72, "duration": 3, "velocity": 64}, {"time": 354, "pitch": 74, "duration": 3, "velocity": 64}, {"time": 357, "pitch": 75, "duration": 3, "velocity": 64}, {"time": 360, "pitch": 72, "duration": 6, "velocity": 64}, {"time": 366, "pitch": 77, "duration": 6, "velocity": 64}, {"time": 378, "pitch": 70, "duration": 6, "velocity": 64}, {"time": 384, "pitch": 70, "duration": 6, "velocity": 64}, {"time": 390, "pitch": 70, "duration": 6, "velocity": 64}, {"time": 396, "pitch": 70, "duration": 6, "velocity": 64}, {"time": 402, "pitch": 69, "duration": 6, "velocity": 64}, {"time": 408, "pitch": 70, "duration": 3, "velocity": 64}, {"time": 411, "pitch": 72, "duration": 3, "velocity": 64}, {"time": 414, "pitch": 74, "duration": 6, "velocity": 64}, {"time": 420, "pitch": 72, "duration": 6, "velocity": 64}, {"time": 432, "pitch": 72, "duration": 6, "velocity": 64}, {"time": 438, "pitch": 70, "duration": 3, "velocity": 64}, {"time": 441, "pitch": 69, "duration": 3, "velocity": 64}, {"time": 444, "pitch": 70, "duration": 3, "velocity": 64}, {"time": 447, "pitch": 72, "duration": 3, "velocity": 64}, {"time": 450, "pitch": 69, "duration": 6, "velocity": 64}, {"time": 456, "pitch": 74, "duration": 6, "velocity": 64}, {"time": 468, "pitch": 74, "duration": 6, "velocity": 64}, {"time": 474, "pitch": 72, "duration": 3, "velocity": 64}, {"time": 477, "pitch": 70, "duration": 3, "velocity": 64}, {"time": 480, "pitch": 72, "duration": 3, "velocity": 64}, {"time": 483, "pitch": 74, "duration": 3, "velocity": 64}, {"time": 486, "pitch": 70, "duration": 6, "velocity": 64}, {"time": 492, "pitch": 75, "duration": 6, "velocity": 64}, {"time": 504, "pitch": 74, "duration": 6, "velocity": 64}, {"time": 510, "pitch": 81, "duration": 3, "velocity": 64}, {"time": 513, "pitch": 82, "duration": 3, "velocity": 64}, {"time": 516, "pitch": 84, "duration": 6, "velocity": 64}, {"time": 522, "pitch": 78, "duration": 9, "velocity": 64}, {"time": 531, "pitch": 79, "duration": 3, "velocity": 64}, {"time": 534, "pitch": 81, "duration": 3, "velocity": 64}, {"time": 537, "pitch": 78, "duration": 3, "velocity": 64}, {"time": 540, "pitch": 79, "duration": 3, "velocity": 64}, {"time": 543, "pitch": 81, "duration": 3, "velocity": 64}, {"time": 546, "pitch": 78, "duration": 9, "velocity": 64}, {"time": 555, "pitch": 79, "duration": 3, "velocity": 64}, {"time": 558, "pitch": 79, "duration": 18, "velocity": 64}]}]}