{"metadata": {"schema_version": "0.2"}, "resolution": 12, "tempos": [{"time": 0, "qpm": 100.0}], "tracks": [{"program": 74, "is_drum": false, "notes": [{"time": 0, "pitch": 70, "duration": 6, "velocity": 64}, {"time": 6, "pitch": 72, "duration": 6, "velocity": 64}, {"time": 12, "pitch": 74, "duration": 6, "velocity": 64}, {"time": 18, "pitch": 70, "duration": 6, "velocity": 64}, {"time": 24, "pitch": 77, "duration": 6, "velocity": 64}, {"time": 30, "pitch": 65, "duration": 6, "velocity": 64}, {"time": 36, "pitch": 77, "duration": 6, "velocity": 64}, {"time": 42, "pitch": 75, "duration": 6, "velocity": 64}, {"time": 48, "pitch": 74, "duration": 6, "velocity": 64}, {"time": 54, "pitch": 70, "duration": 6, "velocity": 64}, {"time": 60, "pitch": 72, "duration": 6, "velocity": 64}, {"time": 66, "pitch": 69, "duration": 6, "velocity": 64}, {"time": 72, "pitch": 70, "duration": 6, "velocity": 64}, {"time": 78, "pitch": 65, "duration": 6, "velocity": 64}, {"time": 84, "pitch": 69, "duration": 6, "velocity": 64}, {"time": 90, "pitch": 65, "duration": 6, "velocity": 64}, {"time": 108, "pitch": 69, "duration": 9, "velocity": 64}, {"time": 117, "pitch": 70, "duration": 1, "velocity": 64}, {"time": 118, "pitch": 72, "duration": 2, "velocity": 64}, {"time": 120, "pitch": 70, "duration": 12, "velocity": 64}, {"time": 132, "pitch": 69, "duration": 12, "velocity": 64}, {"time": 156, "pitch": 69, "duration": 9, "velocity": 64}, {"time": 165, "pitch": 70, "duration": 1, "velocity": 64}, {"time": 166, "pitch": 72, "duration": 2, "velocity": 64}, {"time": 168, "pitch": 70, "duration": 6, "velocity": 64}, {"time": 174, "pitch": 65, "duration": 6, "velocity": 64}, {"time": 180, "pitch": 69, "duration": 6, "velocity": 64}, {"time": 186, "pitch": 65, "duration": 6, "velocity": 64}, {"time": 192, "pitch": 77, "duration": 12, "velocity": 64}, {"time": 204, "pitch": 82, "duration": 12, "velocity": 64}, {"time": 216, "pitch": 81, "duration": 12, "velocity": 64}, {"time": 234, "pitch": 79, "duration": 6, "velocity": 64}, {"time": 240, "pitch": 77, "duration": 6, "velocity": 64}, {"time": 246, "pitch": 74, "duration": 6, "velocity": 64}, {"time": 252, "pitch": 75, "duration": 9, "velocity": 64}, {"time": 261, "pitch": 77, "duration": 3, "velocity": 64}, {"time": 264, "pitch": 74, "duration": 12, "velocity": 64}, {"time": 276, "pitch": 72, "duration": 12, "velocity": 64}, {"time": 288, "pitch": 77, "duration": 6, "velocity": 64}, {"time": 294, "pitch": 70, "duration": 6, "velocity": 64}, {"time": 300, "pitch": 77, "duration": 6, "velocity": 64}, {"time": 306, "pitch": 70, "duration": 6, "velocity": 64}, {"time": 312, "pitch": 75, "duration": 6, "velocity": 64}, {"time": 318, "pitch": 74, "duration": 3, "velocity": 64}, {"time": 321, "pitch": 72, "duration": 3, "velocity": 64}, {"time": 324, "pitch": 74, "duration": 12, "velocity": 64}, {"time": 336, "pitch": 79, "duration": 6, "velocity": 64}, {"time": 342, "pitch": 70, "duration": 6, "velocity": 64}, {"time": 348, "pitch": 77, "duration": 6, "velocity": 64}, {"time": 354, "pitch": 70, "duration": 6, "velocity": 64}, {"time": 360, "pitch": 75, "duration": 6, "velocity": 64}, {"time": 366, "pitch": 74, "duration": 3, "velocity": 64}, {"time": 369, "pitch": 72, "duration": 3, "velocity": 64}, {"time": 372, "pitch": 74, "duration": 12, "velocity": 64}, {"time": 384, "pitch": 72, "duration": 6, "velocity": 64}, {"time": 390, "pitch": 75, "duration": 6, "velocity": 64}, {"time": 396, "pitch": 79, "duration": 6, "velocity": 64}, {"time": 402, "pitch": 70, "duration": 6, "velocity": 64}, {"time": 408, "pitch": 69, "duration": 6, "velocity": 64}, {"time": 414, "pitch": 72, "duration": 6, "velocity": 64}, {"time": 420, "pitch": 65, "duration": 6, "velocity": 64}, {"time": 426, "pitch": 69, "duration": 6, "velocity": 64}, {"time": 432, "pitch": 70, "duration": 6, "velocity": 64}, {"time": 438, "pitch": 74, "duration": 6, "velocity": 64}, {"time": 444, "pitch": 72, "duration": 6, "velocity": 64}, {"time": 450, "pitch": 81, "duration": 6, "velocity": 64}, {"time": 456, "pitch": 82, "duration": 12, "velocity": 64}, {"time": 480, "pitch": 74, "duration": 12, "velocity": 64}, {"time": 492, "pitch": 76, "duration": 12, "velocity": 64}, {"time": 504, "pitch": 77, "duration": 12, "velocity": 64}, {"time": 522, "pitch": 74, "duration": 6, "velocity": 64}, {"time": 528, "pitch": 79, "duration": 12, "velocity": 64}, {"time": 540, "pitch": 81, "duration": 12, "velocity": 64}, {"time": 552, "pitch": 82, "duration": 12, "velocity": 64}, {"time": 570, "pitch": 81, "duration": 6, "velocity": 64}, {"time": 576, "pitch": 81, "duration": 12, "velocity": 64}, {"time": 588, "pitch": 79, "duration": 6, "velocity": 64}, {"time": 594, "pitch": 78, "duration": 6, "velocity": 64}, {"time": 600, "pitch": 79, "duration": 12, "velocity": 64}, {"time": 612, "pitch": 81, "duration": 6, "velocity": 64}, {"time": 618, "pitch": 82, "duration": 4, "velocity": 64}, {"time": 622, "pitch": 81, "duration": 2, "velocity": 64}, {"time": 624, "pitch": 79, "duration": 18, "velocity": 64}, {"time": 642, "pitch": 77, "duration": 6, "velocity": 64}, {"time": 648, "pitch": 76, "duration": 9, "velocity": 64}, {"time": 657, "pitch": 74, "duration": 3, "velocity": 64}, {"time": 660, "pitch": 72, "duration": 6, "velocity": 64}, {"time": 666, "pitch": 70, "duration": 6, "velocity": 64}, {"time": 672, "pitch": 69, "duration": 3, "velocity": 64}, {"time": 675, "pitch": 72, "duration": 3, "velocity": 64}, {"time": 678, "pitch": 70, "duration": 3, "velocity": 64}, {"time": 681, "pitch": 72, "duration": 3, "velocity": 64}, {"time": 684, "pitch": 77, "duration": 3, "velocity": 64}, {"time": 687, "pitch": 72, "duration": 3, "velocity": 64}, {"time": 690, "pitch": 70, "duration": 3, "velocity": 64}, {"time": 693, "pitch": 72, "duration": 3, "velocity": 64}, {"time": 696, "pitch": 69, "duration": 3, "velocity": 64}, {"time": 699, "pitch": 72, "duration": 3, "velocity": 64}, {"time": 702, "pitch": 70, "duration": 3, "velocity": 64}, {"time": 705, "pitch": 72, "duration": 3, "velocity": 64}, {"time": 708, "pitch": 65, "duration": 3, "velocity": 64}, {"time": 711, "pitch": 72, "duration": 3, "velocity": 64}, {"time": 714, "pitch": 70, "duration": 3, "velocity": 64}, {"time": 717, "pitch": 72, "duration": 3, "velocity": 64}, {"time": 720, "pitch": 69, "duration": 3, "velocity": 64}, {"time": 723, "pitch": 72, "duration": 3, "velocity": 64}, {"time": 726, "pitch": 70, "duration": 3, "velocity": 64}, {"time": 729, "pitch": 72, "duration": 3, "velocity": 64}, {"time": 732, "pitch": 77, "duration": 3, "velocity": 64}, {"time": 735, "pitch": 72, "duration": 3, "velocity": 64}, {"time": 738, "pitch": 70, "duration": 3, "velocity": 64}, {"time": 741, "pitch": 72, "duration": 3, "velocity": 64}, {"time": 744, "pitch": 69, "duration": 3, "velocity": 64}, {"time": 747, "pitch": 72, "duration": 3, "velocity": 64}, {"time": 750, "pitch": 70, "duration": 3, "velocity": 64}, {"time": 753, "pitch": 72, "duration": 3, "velocity": 64}, {"time": 756, "pitch": 65, "duration": 3, "velocity": 64}, {"time": 759, "pitch": 72, "duration": 3, "velocity": 64}, {"time": 762, "pitch": 70, "duration": 3, "velocity": 64}, {"time": 765, "pitch": 72, "duration": 3, "velocity": 64}, {"time": 768, "pitch": 77, "duration": 3, "velocity": 64}, {"time": 771, "pitch": 72, "duration": 3, "velocity": 64}, {"time": 774, "pitch": 79, "duration": 3, "velocity": 64}, {"time": 777, "pitch": 72, "duration": 3, "velocity": 64}, {"time": 780, "pitch": 81, "duration": 3, "velocity": 64}, {"time": 783, "pitch": 72, "duration": 3, "velocity": 64}, {"time": 786, "pitch": 81, "duration": 3, "velocity": 64}, {"time": 789, "pitch": 72, "duration": 3, "velocity": 64}, {"time": 792, "pitch": 75, "duration": 3, "velocity": 64}, {"time": 795, "pitch": 72, "duration": 3, "velocity": 64}, {"time": 798, "pitch": 77, "duration": 3, "velocity": 64}, {"time": 801, "pitch": 72, "duration": 3, "velocity": 64}, {"time": 804, "pitch": 79, "duration": 3, "velocity": 64}, {"time": 807, "pitch": 72, "duration": 3, "velocity": 64}, {"time": 810, "pitch": 79, "duration": 3, "velocity": 64}, {"time": 813, "pitch": 72, "duration": 3, "velocity": 64}, {"time": 816, "pitch": 77, "duration": 3, "velocity": 64}, {"time": 819, "pitch": 72, "duration": 3, "velocity": 64}, {"time": 822, "pitch": 79, "duration": 3, "velocity": 64}, {"time": 825, "pitch": 72, "duration": 3, "velocity": 64}, {"time": 828, "pitch": 81, "duration": 3, "velocity": 64}, {"time": 831, "pitch": 72, "duration": 3, "velocity": 64}, {"time": 834, "pitch": 79, "duration": 3, "velocity": 64}, {"time": 837, "pitch": 72, "duration": 3, "velocity": 64}, {"time": 840, "pitch": 77, "duration": 3, "velocity": 64}, {"time": 843, "pitch": 72, "duration": 3, "velocity": 64}, {"time": 846, "pitch": 77, "duration": 3, "velocity": 64}, {"time": 849, "pitch": 72, "duration": 3, "velocity": 64}, {"time": 852, "pitch": 76, "duration": 3, "velocity": 64}, {"time": 855, "pitch": 72, "duration": 3, "velocity": 64}, {"time": 858, "pitch": 76, "duration": 3, "velocity": 64}, {"time": 861, "pitch": 72, "duration": 3, "velocity": 64}, {"time": 864, "pitch": 69, "duration": 3, "velocity": 64}, {"time": 867, "pitch": 69, "duration": 3, "velocity": 64}, {"time": 870, "pitch": 70, "duration": 3, "velocity": 64}, {"time": 873, "pitch": 72, "duration": 3, "velocity": 64}, {"time": 876, "pitch": 74, "duration": 3, "velocity": 64}, {"time": 879, "pitch": 74, "duration": 3, "velocity": 64}, {"time": 882, "pitch": 72, "duration": 3, "velocity": 64}, {"time": 885, "pitch": 74, "duration": 3, "velocity": 64}, {"time": 888, "pitch": 67, "duration": 3, "velocity": 64}, {"time": 891, "pitch": 67, "duration": 3, "velocity": 64}, {"time": 894, "pitch": 69, "duration": 3, "velocity": 64}, {"time": 897, "pitch": 70, "duration": 3, "velocity": 64}, {"time": 900, "pitch": 72, "duration": 3, "velocity": 64}, {"time": 903, "pitch": 72, "duration": 3, "velocity": 64}, {"time": 906, "pitch": 74, "duration": 3, "velocity": 64}, {"time": 909, "pitch": 76, "duration": 3, "velocity": 64}, {"time": 912, "pitch": 77, "duration": 3, "velocity": 64}, {"time": 915, "pitch": 76, "duration": 3, "velocity": 64}, {"time": 918, "pitch": 77, "duration": 3, "velocity": 64}, {"time": 921, "pitch": 74, "duration": 3, "velocity": 64}, {"time": 924, "pitch": 70, "duration": 6, "velocity": 64}, {"time": 930, "pitch": 72, "duration": 6, "velocity": 64}, {"time": 936, "pitch": 65, "duration": 12, "velocity": 64}, {"time": 960, "pitch": 77, "duration": 12, "velocity": 64}, {"time": 972, "pitch": 82, "duration": 12, "velocity": 64}, {"time": 984, "pitch": 81, "duration": 12, "velocity": 64}, {"time": 1002, "pitch": 79, "duration": 6, "velocity": 64}, {"time": 1008, "pitch": 77, "duration": 6, "velocity": 64}, {"time": 1014, "pitch": 74, "duration": 6, "velocity": 64}, {"time": 1020, "pitch": 75, "duration": 9, "velocity": 64}, {"time": 1029, "pitch": 77, "duration": 3, "velocity": 64}, {"time": 1032, "pitch": 74, "duration": 12, "velocity": 64}, {"time": 1044, "pitch": 72, "duration": 12, "velocity": 64}, {"time": 1056, "pitch": 70, "duration": 6, "velocity": 64}, {"time": 1062, "pitch": 74, "duration": 6, "velocity": 64}, {"time": 1068, "pitch": 72, "duration": 6, "velocity": 64}, {"time": 1074, "pitch": 75, "duration": 6, "velocity": 64}, {"time": 1080, "pitch": 74, "duration": 9, "velocity": 64}, {"time": 1089, "pitch": 75, "duration": 1, "velocity": 64}, {"time": 1090, "pitch": 77, "duration": 2, "velocity": 64}, {"time": 1092, "pitch": 72, "duration": 6, "velocity": 64}, {"time": 1098, "pitch": 65, "duration": 6, "velocity": 64}, {"time": 1104, "pitch": 70, "duration": 6, "velocity": 64}, {"time": 1110, "pitch": 74, "duration": 6, "velocity": 64}, {"time": 1116, "pitch": 72, "duration": 6, "velocity": 64}, {"time": 1122, "pitch": 75, "duration": 6, "velocity": 64}, {"time": 1128, "pitch": 74, "duration": 12, "velocity": 64}, {"time": 1140, "pitch": 72, "duration": 12, "velocity": 64}, {"time": 1152, "pitch": 70, "duration": 6, "velocity": 64}, {"time": 1158, "pitch": 72, "duration": 6, "velocity": 64}, {"time": 1164, "pitch": 74, "duration": 6, "velocity": 64}, {"time": 1170, "pitch": 70, "duration": 6, "velocity": 64}, {"time": 1176, "pitch": 77, "duration": 6, "velocity": 64}, {"time": 1182, "pitch": 65, "duration": 6, "velocity": 64}, {"time": 1188, "pitch": 77, "duration": 6, "velocity": 64}, {"time": 1194, "pitch": 75, "duration": 6, "velocity": 64}, {"time": 1200, "pitch": 74, "duration": 6, "velocity": 64}, {"time": 1206, "pitch": 70, "duration": 6, "velocity": 64}, {"time": 1212, "pitch": 72, "duration": 6, "velocity": 64}, {"time": 1218, "pitch": 69, "duration": 6, "velocity": 64}, {"time": 1224, "pitch": 70, "duration": 6, "velocity": 64}, {"time": 1230, "pitch": 65, "duration": 6, "velocity": 64}, {"time": 1236, "pitch": 69, "duration": 6, "velocity": 64}, {"time": 1242, "pitch": 65, "duration": 6, "velocity": 64}, {"time": 1248, "pitch": 75, "duration": 6, "velocity": 64}, {"time": 1254, "pitch": 74, "duration": 3, "velocity": 64}, {"time": 1257, "pitch": 72, "duration": 3, "velocity": 64}, {"time": 1260, "pitch": 74, "duration": 12, "velocity": 64}, {"time": 1272, "pitch": 79, "duration": 6, "velocity": 64}, {"time": 1278, "pitch": 70, "duration": 6, "velocity": 64}, {"time": 1284, "pitch": 77, "duration": 6, "velocity": 64}, {"time": 1290, "pitch": 70, "duration": 6, "velocity": 64}, {"time": 1296, "pitch": 75, "duration": 6, "velocity": 64}, {"time": 1302, "pitch": 74, "duration": 3, "velocity": 64}, {"time": 1305, "pitch": 72, "duration": 3, "velocity": 64}, {"time": 1308, "pitch": 74, "duration": 12, "velocity": 64}, {"time": 1320, "pitch": 79, "duration": 6, "velocity": 64}, {"time": 1326, "pitch": 70, "duration": 6, "velocity": 64}, {"time": 1332, "pitch": 77, "duration": 6, "velocity": 64}, {"time": 1338, "pitch": 70, "duration": 6, "velocity": 64}, {"time": 1344, "pitch": 75, "duration": 12, "velocity": 64}, {"time": 1356, "pitch": 75, "duration": 12, "velocity": 64}, {"time": 1368, "pitch": 75, "duration": 18, "velocity": 64}, {"time": 1386, "pitch": 74, "duration": 3, "velocity": 64}, {"time": 1389, "pitch": 72, "duration": 3, "velocity": 64}, {"time": 1392, "pitch": 74, "duration": 6, "velocity": 64}, {"time": 1398, "pitch": 70, "duration": 6, "velocity": 64}, {"time": 1404, "pitch": 65, "duration": 6, "velocity": 64}, {"time": 1410, "pitch": 77, "duration": 6, "velocity": 64}, {"time": 1416, "pitch": 70, "duration": 12, "velocity": 64}, {"time": 1440, "pitch": 71, "duration": 3, "velocity": 64}, {"time": 1443, "pitch": 74, "duration": 3, "velocity": 64}, {"time": 1446, "pitch": 72, "duration": 3, "velocity": 64}, {"time": 1449, "pitch": 74, "duration": 3, "velocity": 64}, {"time": 1452, "pitch": 71, "duration": 3, "velocity": 64}, {"time": 1455, "pitch": 74, "duration": 3, "velocity": 64}, {"time": 1458, "pitch": 72, "duration": 3, "velocity": 64}, {"time": 1461, "pitch": 71, "duration": 3, "velocity": 64}, {"time": 1464, "pitch": 72, "duration": 3, "velocity": 64}, {"time": 1467, "pitch": 75, "duration": 3, "velocity": 64}, {"time": 1470, "pitch": 74, "duration": 3, "velocity": 64}, {"time": 1473, "pitch": 75, "duration": 3, "velocity": 64}, {"time": 1476, "pitch": 72, "duration": 3, "velocity": 64}, {"time": 1479, "pitch": 75, "duration": 3, "velocity": 64}, {"time": 1482, "pitch": 74, "duration": 3, "velocity": 64}, {"time": 1485, "pitch": 72, "duration": 3, "velocity": 64}, {"time": 1488, "pitch": 71, "duration": 3, "velocity": 64}, {"time": 1491, "pitch": 74, "duration": 3, "velocity": 64}, {"time": 1494, "pitch": 72, "duration": 3, "velocity": 64}, {"time": 1497, "pitch": 74, "duration": 3, "velocity": 64}, {"time": 1500, "pitch": 71, "duration": 3, "velocity": 64}, {"time": 1503, "pitch": 74, "duration": 3, "velocity": 64}, {"time": 1506, "pitch": 72, "duration": 3, "velocity": 64}, {"time": 1509, "pitch": 71, "duration": 3, "velocity": 64}, {"time": 1512, "pitch": 72, "duration": 3, "velocity": 64}, {"time": 1515, "pitch": 75, "duration": 3, "velocity": 64}, {"time": 1518, "pitch": 74, "duration": 3, "velocity": 64}, {"time": 1521, "pitch": 75, "duration": 3, "velocity": 64}, {"time": 1524, "pitch": 72, "duration": 3, "velocity": 64}, {"time": 1527, "pitch": 75, "duration": 3, "velocity": 64}, {"time": 1530, "pitch": 74, "duration": 3, "velocity": 64}, {"time": 1533, "pitch": 75, "duration": 3, "velocity": 64}, {"time": 1536, "pitch": 77, "duration": 3, "velocity": 64}, {"time": 1539, "pitch": 80, "duration": 3, "velocity": 64}, {"time": 1542, "pitch": 80, "duration": 3, "velocity": 64}, {"time": 1545, "pitch": 80, "duration": 3, "velocity": 64}, {"time": 1548, "pitch": 77, "duration": 3, "velocity": 64}, {"time": 1551, "pitch": 80, "duration": 3, "velocity": 64}, {"time": 1554, "pitch": 80, "duration": 3, "velocity": 64}, {"time": 1557, "pitch": 80, "duration": 3, "velocity": 64}, {"time": 1560, "pitch": 70, "duration": 3, "velocity": 64}, {"time": 1563, "pitch": 74, "duration": 3, "velocity": 64}, {"time": 1566, "pitch": 72, "duration": 3, "velocity": 64}, {"time": 1569, "pitch": 74, "duration": 3, "velocity": 64}, {"time": 1572, "pitch": 70, "duration": 3, "velocity": 64}, {"time": 1575, "pitch": 74, "duration": 3, "velocity": 64}, {"time": 1578, "pitch": 72, "duration": 3, "velocity": 64}, {"time": 1581, "pitch": 74, "duration": 3, "velocity": 64}, {"time": 1584, "pitch": 75, "duration": 3, "velocity": 64}, {"time": 1587, "pitch": 79, "duration": 3, "velocity": 64}, {"time": 1590, "pitch": 79, "duration": 3, "velocity": 64}, {"time": 1593, "pitch": 79, "duration": 3, "velocity": 64}, {"time": 1596, "pitch": 75, "duration": 3, "velocity": 64}, {"time": 1599, "pitch": 79, "duration": 3, "velocity": 64}, {"time": 1602, "pitch": 79, "duration": 3, "velocity": 64}, {"time": 1605, "pitch": 79, "duration": 3, "velocity": 64}, {"time": 1608, "pitch": 69, "duration": 3, "velocity": 64}, {"time": 1611, "pitch": 72, "duration": 3, "velocity": 64}, {"time": 1614, "pitch": 70, "duration": 3, "velocity": 64}, {"time": 1617, "pitch": 72, "duration": 3, "velocity": 64}, {"time": 1620, "pitch": 69, "duration": 3, "velocity": 64}, {"time": 1623, "pitch": 72, "duration": 3, "velocity": 64}, {"time": 1626, "pitch": 70, "duration": 3, "velocity": 64}, {"time": 1629, "pitch": 72, "duration": 3, "velocity": 64}, {"time": 1632, "pitch": 74, "duration": 3, "velocity": 64}, {"time": 1635, "pitch": 77, "duration": 3, "velocity": 64}, {"time": 1638, "pitch": 77, "duration": 3, "velocity": 64}, {"time": 1641, "pitch": 77, "duration": 3, "velocity": 64}, {"time": 1644, "pitch": 74, "duration": 3, "velocity": 64}, {"time": 1647, "pitch": 77, "duration": 3, "velocity": 64}, {"time": 1650, "pitch": 77, "duration": 3, "velocity": 64}, {"time": 1653, "pitch": 77, "duration": 3, "velocity": 64}, {"time": 1656, "pitch": 67, "duration": 3, "velocity": 64}, {"time": 1659, "pitch": 69, "duration": 3, "velocity": 64}, {"time": 1662, "pitch": 71, "duration": 3, "velocity": 64}, {"time": 1665, "pitch": 72, "duration": 3, "velocity": 64}, {"time": 1668, "pitch": 74, "duration": 3, "velocity": 64}, {"time": 1671, "pitch": 75, "duration": 3, "velocity": 64}, {"time": 1674, "pitch": 77, "duration": 6, "velocity": 64}, {"time": 1686, "pitch": 75, "duration": 3, "velocity": 64}, {"time": 1689, "pitch": 74, "duration": 3, "velocity": 64}, {"time": 1692, "pitch": 72, "duration": 6, "velocity": 64}, {"time": 1698, "pitch": 71, "duration": 6, "velocity": 64}, {"time": 1704, "pitch": 72, "duration": 12, "velocity": 64}, {"time": 1728, "pitch": 72, "duration": 3, "velocity": 64}, {"time": 1731, "pitch": 74, "duration": 3, "velocity": 64}, {"time": 1734, "pitch": 75, "duration": 3, "velocity": 64}, {"time": 1737, "pitch": 77, "duration": 3, "velocity": 64}, {"time": 1740, "pitch": 79, "duration": 3, "velocity": 64}, {"time": 1743, "pitch": 75, "duration": 3, "velocity": 64}, {"time": 1746, "pitch": 77, "duration": 3, "velocity": 64}, {"time": 1749, "pitch": 79, "duration": 3, "velocity": 64}, {"time": 1752, "pitch": 72, "duration": 12, "velocity": 64}, {"time": 1764, "pitch": 79, "duration": 3, "velocity": 64}, {"time": 1767, "pitch": 77, "duration": 3, "velocity": 64}, {"time": 1770, "pitch": 75, "duration": 6, "velocity": 64}, {"time": 1788, "pitch": 75, "duration": 3, "velocity": 64}, {"time": 1791, "pitch": 74, "duration": 3, "velocity": 64}, {"time": 1794, "pitch": 72, "duration": 6, "velocity": 64}, {"time": 1812, "pitch": 79, "duration": 3, "velocity": 64}, {"time": 1815, "pitch": 77, "duration": 3, "velocity": 64}, {"time": 1818, "pitch": 75, "duration": 6, "velocity": 64}, {"time": 1824, "pitch": 75, "duration": 3, "velocity": 64}, {"time": 1827, "pitch": 74, "duration": 3, "velocity": 64}, {"time": 1830, "pitch": 72, "duration": 6, "velocity": 64}, {"time": 1836, "pitch": 72, "duration": 3, "velocity": 64}, {"time": 1839, "pitch": 70, "duration": 3, "velocity": 64}, {"time": 1842, "pitch": 69, "duration": 6, "velocity": 64}, {"time": 1848, "pitch": 69, "duration": 3, "velocity": 64}, {"time": 1851, "pitch": 67, "duration": 3, "velocity": 64}, {"time": 1854, "pitch": 65, "duration": 6, "velocity": 64}, {"time": 1860, "pitch": 72, "duration": 3, "velocity": 64}, {"time": 1863, "pitch": 70, "duration": 3, "velocity": 64}, {"time": 1866, "pitch": 69, "duration": 6, "velocity": 64}, {"time": 1872, "pitch": 70, "duration": 3, "velocity": 64}, {"time": 1875, "pitch": 69, "duration": 3, "velocity": 64}, {"time": 1878, "pitch": 70, "duration": 3, "velocity": 64}, {"time": 1881, "pitch": 72, "duration": 3, "velocity": 64}, {"time": 1884, "pitch": 70, "duration": 3, "velocity": 64}, {"time": 1887, "pitch": 74, "duration": 3, "velocity": 64}, {"time": 1890, "pitch": 72, "duration": 3, "velocity": 64}, {"time": 1893, "pitch": 70, "duration": 3, "velocity": 64}, {"time": 1896, "pitch": 69, "duration": 3, "velocity": 64}, {"time": 1899, "pitch": 70, "duration": 3, "velocity": 64}, {"time": 1902, "pitch": 72, "duration": 3, "velocity": 64}, {"time": 1905, "pitch": 70, "duration": 3, "velocity": 64}, {"time": 1908, "pitch": 69, "duration": 3, "velocity": 64}, {"time": 1911, "pitch": 65, "duration": 3, "velocity": 64}, {"time": 1914, "pitch": 67, "duration": 3, "velocity": 64}, {"time": 1917, "pitch": 69, "duration": 3, "velocity": 64}]}]}