{"metadata": {"schema_version": "0.2"}, "resolution": 12, "tempos": [{"time": 0, "qpm": 100.0}], "tracks": [{"program": 32, "is_drum": false, "notes": [{"time": 0, "pitch": 58, "duration": 6, "velocity": 64}, {"time": 6, "pitch": 53, "duration": 2, "velocity": 64}, {"time": 18, "pitch": 77, "duration": 1, "velocity": 64}, {"time": 24, "pitch": 60, "duration": 3, "velocity": 64}, {"time": 18, "pitch": 64, "duration": 2, "velocity": 64}, {"time": 21, "pitch": 72, "duration": 3, "velocity": 64}, {"time": 12, "pitch": 65, "duration": 2, "velocity": 64}, {"time": 18, "pitch": 69, "duration": 6, "velocity": 64}, {"time": 69, "pitch": 60, "duration": 3, "velocity": 64}, {"time": 24, "pitch": 76, "duration": 3, "velocity": 64}, {"time": 42, "pitch": 71, "duration": 3, "velocity": 64}, {"time": 66, "pitch": 72, "duration": 3, "velocity": 64}, {"time": 120, "pitch": 67, "duration": 1, "velocity": 64}, {"time": 24, "pitch": 76, "duration": 3, "velocity": 64}, {"time": 102, "pitch": 76, "duration": 3, "velocity": 64}, {"time": 51, "pitch": 55, "duration": 3, "velocity": 64}, {"time": 42, "pitch": 64, "duration": 3, "velocity": 64}, {"time": 60, "pitch": 74, "duration": 3, "velocity": 64}, {"time": 63, "pitch": 57, "duration": 2, "velocity": 64}, {"time": 24, "pitch": 69, "duration": 2, "velocity": 64}, {"time": 60, "pitch": 77, "duration": 2, "velocity": 64}, {"time": 48, "pitch": 70, "duration": 1, "velocity": 64}, {"time": 72, "pitch": 67, "duration": 3, "velocity": 64}, {"time": 96, "pitch": 67, "duration": 3, "velocity": 64}, {"time": 90, "pitch": 70, "duration": 2, "velocity": 64}, {"time": 48, "pitch": 65, "duration": 2, "velocity": 64}, {"time": 84, "pitch": 65, "duration": 1, "velocity": 64}, {"time": 78, "pitch": 67, "duration": 2, "velocity": 64}, {"time": 51, "pitch": 74, "duration": 3, "velocity": 64}, {"time": 126, "pitch": 74, "duration": 1, "velocity": 64}, {"time": 84, "pitch": 65, "duration": 3, "velocity": 64}, {"time": 39, "pitch": 71, "duration": 3, "velocity": 64}, {"time": 66, "pitch": 71, "duration": 2, "velocity": 64}, {"time": 132, "pitch": 77, "duration": 3, "velocity": 64}, {"time": 90, "pitch": 62, "duration": 3, "velocity": 64}, {"time": 75, "pitch": 64, "duration": 6, "velocity": 64}, {"time": 90, "pitch": 77, "duration": 3, "velocity": 64}, {"time": 102, "pitch": 77, "duration": 3, "velocity": 64}, {"time": 132, "pitch": 67, "duration": 3, "velocity": 64}, {"time": 90, "pitch": 69, "duration": 3, "velocity": 64}, {"time": 72, "pitch": 77, "duration": 3, "velocity": 64}, {"time": 72, "pitch": 60, "duration": 1, "velocity": 64}, {"time": 132, "pitch": 60, "duration": 3, "velocity": 64}, {"time": 156, "pitch": 62, "duration": 3, "velocity": 64}, {"time": 150, "pitch": 70, "duration": 3, "velocity": 64}, {"time": 54, "pitch": 74, "duration": 3, "velocity": 64}, {"time": 90, "pitch": 65, "duration": 2, "velocity": 64}, {"time": 108, "pitch": 67, "duration": 2, "velocity": 64}, {"time": 135, "pitch": 67, "duration": 3, "velocity": 64}, {"time": 162, "pitch": 76, "duration": 3, "velocity": 64}, {"time": 174, "pitch": 72, "duration": 2, "velocity": 64}, {"time": 150, "pitch": 76, "duration": 1, "velocity": 64}, {"time": 168, "pitch": 79, "duration": 3, "velocity": 64}, {"time": 132, "pitch": 74, "duration": 1, "velocity": 64}, {"time": 120, "pitch": 69, "duration": 3, "velocity": 64}, {"time": 114, "pitch": 62, "duration": 3, "velocity": 64}, {"time": 114, "pitch": 60, "duration": 3, "velocity": 64}, {"time": 156, "pitch": 69, "duration": 2, "velocity": 64}, {"time": 180, "pitch": 69, "duration": 3, "velocity": 64}, {"time": 114, "pitch": 79, "duration": 2, "velocity": 64}, {"time": 156, "pitch": 69, "duration": 2, "velocity": 64}, {"time": 90, "pitch": 65, "duration": 1, "velocity": 64}, {"time": 132, "pitch": 72, "duration": 6, "velocity": 64}, {"time": 156, "pitch": 72, "duration": 3, "velocity": 64}, {"time": 120, "pitch": 74, "duration": 2, "velocity": 64}, {"time": 120, "pitch": 72, "duration": 3, "velocity": 64}, {"time": 132, "pitch": 72, "duration": 1, "velocity": 64}, {"time": 138, "pitch": 64, "duration": 1, "velocity": 64}, {"time": 138, "pitch": 76, "duration": 2, "velocity": 64}, {"time": 102, "pitch": 67, "duration": 2, "velocity": 64}, {"time": 126, "pitch": 43, "duration": 3, "velocity": 64}, {"time": 138, "pitch": 60, "duration": 2, "velocity": 64}, {"time": 150, "pitch": 64, "duration": 3, "velocity": 64}, {"time": 252, "pitch": 60, "duration": 2, "velocity": 64}, {"time": 84, "pitch": 76, "duration": 3, "velocity": 64}, {"time": 186, "pitch": 65, "duration": 3, "velocity": 64}, {"time": 264, "pitch": 65, "duration": 3, "velocity": 64}, {"time": 126, "pitch": 65, "duration": 3, "velocity": 64}, {"time": 192, "pitch": 60, "duration": 3, "velocity": 64}, {"time": 198, "pitch": 53, "duration": 3, "velocity": 64}, {"time": 216, "pitch": 65, "duration": 3, "velocity": 64}, {"time": 150, "pitch": 72, "duration": 3, "velocity": 64}, {"time": 162, "pitch": 77, "duration": 2, "velocity": 64}, {"time": 288, "pitch": 74, "duration": 2, "velocity": 64}, {"time": 138, "pitch": 72, "duration": 1, "velocity": 64}, {"time": 330, "pitch": 64, "duration": 2, "velocity": 64}, {"time": 396, "pitch": 74, "duration": 3, "velocity": 64}, {"time": 138, "pitch": 72, "duration": 2, "velocity": 64}, {"time": 168, "pitch": 65, "duration": 1, "velocity": 64}, {"time": 138, "pitch": 69, "duration": 2, "velocity": 64}, {"time": 174, "pitch": 69, "duration": 3, "velocity": 64}, {"time": 138, "pitch": 67, "duration": 2, "velocity": 64}, {"time": 402, "pitch": 71, "duration": 1, "velocity": 64}, {"time": 312, "pitch": 72, "duration": 3, "velocity": 64}, {"time": 207, "pitch": 72, "duration": 1, "velocity": 64}, {"time": 144, "pitch": 74, "duration": 3, "velocity": 64}, {"time": 156, "pitch": 62, "duration": 3, "velocity": 64}, {"time": 138, "pitch": 67, "duration": 2, "velocity": 64}, {"time": 291, "pitch": 65, "duration": 1, "velocity": 64}, {"time": 252, "pitch": 71, "duration": 2, "velocity": 64}, {"time": 312, "pitch": 67, "duration": 2, "velocity": 64}, {"time": 186, "pitch": 71, "duration": 3, "velocity": 64}, {"time": 150, "pitch": 67, "duration": 6, "velocity": 64}, {"time": 228, "pitch": 69, "duration": 3, "velocity": 64}, {"time": 234, "pitch": 72, "duration": 3, "velocity": 64}, {"time": 270, "pitch": 72, "duration": 2, "velocity": 64}, {"time": 228, "pitch": 74, "duration": 3, "velocity": 64}, {"time": 252, "pitch": 71, "duration": 1, "velocity": 64}, {"time": 396, "pitch": 79, "duration": 2, "velocity": 64}, {"time": 240, "pitch": 72, "duration": 1, "velocity": 64}, {"time": 228, "pitch": 77, "duration": 2, "velocity": 64}, {"time": 162, "pitch": 76, "duration": 3, "velocity": 64}, {"time": 240, "pitch": 79, "duration": 2, "velocity": 64}, {"time": 138, "pitch": 53, "duration": 3, "velocity": 64}, {"time": 168, "pitch": 74, "duration": 2, "velocity": 64}, {"time": 303, "pitch": 70, "duration": 2, "velocity": 64}, {"time": 276, "pitch": 64, "duration": 3, "velocity": 64}, {"time": 138, "pitch": 77, "duration": 3, "velocity": 64}, {"time": 318, "pitch": 69, "duration": 1, "velocity": 64}, {"time": 162, "pitch": 69, "duration": 2, "velocity": 64}, {"time": 144, "pitch": 65, "duration": 3, "velocity": 64}, {"time": 204, "pitch": 69, "duration": 3, "velocity": 64}, {"time": 198, "pitch": 71, "duration": 1, "velocity": 64}, {"time": 282, "pitch": 65, "duration": 1, "velocity": 64}, {"time": 270, "pitch": 60, "duration": 2, "velocity": 64}, {"time": 270, "pitch": 74, "duration": 6, "velocity": 64}, {"time": 240, "pitch": 72, "duration": 3, "velocity": 64}, {"time": 438, "pitch": 62, "duration": 2, "velocity": 64}, {"time": 423, "pitch": 64, "duration": 2, "velocity": 64}, {"time": 276, "pitch": 71, "duration": 2, "velocity": 64}, {"time": 342, "pitch": 67, "duration": 2, "velocity": 64}, {"time": 444, "pitch": 72, "duration": 1, "velocity": 64}, {"time": 210, "pitch": 69, "duration": 2, "velocity": 64}, {"time": 264, "pitch": 57, "duration": 3, "velocity": 64}, {"time": 384, "pitch": 76, "duration": 3, "velocity": 64}, {"time": 294, "pitch": 76, "duration": 1, "velocity": 64}, {"time": 174, "pitch": 60, "duration": 3, "velocity": 64}, {"time": 246, "pitch": 65, "duration": 3, "velocity": 64}, {"time": 294, "pitch": 62, "duration": 1, "velocity": 64}, {"time": 264, "pitch": 71, "duration": 1, "velocity": 64}, {"time": 294, "pitch": 52, "duration": 1, "velocity": 64}, {"time": 342, "pitch": 77, "duration": 6, "velocity": 64}, {"time": 270, "pitch": 65, "duration": 3, "velocity": 64}, {"time": 198, "pitch": 74, "duration": 6, "velocity": 64}, {"time": 384, "pitch": 65, "duration": 3, "velocity": 64}, {"time": 420, "pitch": 69, "duration": 3, "velocity": 64}, {"time": 486, "pitch": 71, "duration": 1, "velocity": 64}, {"time": 306, "pitch": 76, "duration": 1, "velocity": 64}, {"time": 450, "pitch": 79, "duration": 1, "velocity": 64}, {"time": 294, "pitch": 65, "duration": 3, "velocity": 64}, {"time": 276, "pitch": 79, "duration": 3, "velocity": 64}, {"time": 276, "pitch": 72, "duration": 3, "velocity": 64}, {"time": 519, "pitch": 67, "duration": 3, "velocity": 64}, {"time": 282, "pitch": 72, "duration": 3, "velocity": 64}, {"time": 399, "pitch": 79, "duration": 1, "velocity": 64}, {"time": 360, "pitch": 65, "duration": 1, "velocity": 64}, {"time": 351, "pitch": 72, "duration": 2, "velocity": 64}, {"time": 558, "pitch": 72, "duration": 2, "velocity": 64}, {"time": 348, "pitch": 74, "duration": 1, "velocity": 64}, {"time": 462, "pitch": 71, "duration": 3, "velocity": 64}, {"time": 423, "pitch": 74, "duration": 3, "velocity": 64}, {"time": 438, "pitch": 60, "duration": 3, "velocity": 64}, {"time": 486, "pitch": 76, "duration": 2, "velocity": 64}, {"time": 522, "pitch": 74, "duration": 3, "velocity": 64}, {"time": 390, "pitch": 65, "duration": 3, "velocity": 64}, {"time": 438, "pitch": 72, "duration": 1, "velocity": 64}, {"time": 390, "pitch": 79, "duration": 1, "velocity": 64}, {"time": 366, "pitch": 69, "duration": 3, "velocity": 64}, {"time": 570, "pitch": 79, "duration": 1, "velocity": 64}, {"time": 432, "pitch": 74, "duration": 6, "velocity": 64}, {"time": 570, "pitch": 77, "duration": 1, "velocity": 64}, {"time": 516, "pitch": 69, "duration": 2, "velocity": 64}, {"time": 492, "pitch": 67, "duration": 2, "velocity": 64}, {"time": 552, "pitch": 72, "duration": 3, "velocity": 64}, {"time": 468, "pitch": 76, "duration": 3, "velocity": 64}, {"time": 630, "pitch": 57, "duration": 3, "velocity": 64}, {"time": 582, "pitch": 79, "duration": 1, "velocity": 64}, {"time": 432, "pitch": 79, "duration": 1, "velocity": 64}, {"time": 378, "pitch": 69, "duration": 3, "velocity": 64}, {"time": 552, "pitch": 71, "duration": 1, "velocity": 64}, {"time": 366, "pitch": 62, "duration": 3, "velocity": 64}, {"time": 510, "pitch": 67, "duration": 3, "velocity": 64}, {"time": 564, "pitch": 74, "duration": 1, "velocity": 64}, {"time": 396, "pitch": 70, "duration": 3, "velocity": 64}, {"time": 552, "pitch": 62, "duration": 2, "velocity": 64}, {"time": 486, "pitch": 76, "duration": 1, "velocity": 64}, {"time": 498, "pitch": 74, "duration": 2, "velocity": 64}, {"time": 438, "pitch": 60, "duration": 3, "velocity": 64}, {"time": 636, "pitch": 74, "duration": 2, "velocity": 64}, {"time": 372, "pitch": 64, "duration": 3, "velocity": 64}, {"time": 450, "pitch": 70, "duration": 3, "velocity": 64}, {"time": 522, "pitch": 69, "duration": 3, "velocity": 64}, {"time": 426, "pitch": 72, "duration": 3, "velocity": 64}, {"time": 552, "pitch": 65, "duration": 1, "velocity": 64}, {"time": 354, "pitch": 67, "duration": 2, "velocity": 64}, {"time": 612, "pitch": 74, "duration": 1, "velocity": 64}, {"time": 594, "pitch": 69, "duration": 3, "velocity": 64}, {"time": 522, "pitch": 62, "duration": 3, "velocity": 64}, {"time": 660, "pitch": 79, "duration": 2, "velocity": 64}, {"time": 528, "pitch": 67, "duration": 3, "velocity": 64}, {"time": 576, "pitch": 77, "duration": 3, "velocity": 64}, {"time": 636, "pitch": 77, "duration": 3, "velocity": 64}, {"time": 432, "pitch": 71, "duration": 1, "velocity": 64}, {"time": 546, "pitch": 64, "duration": 3, "velocity": 64}, {"time": 540, "pitch": 72, "duration": 6, "velocity": 64}, {"time": 528, "pitch": 65, "duration": 2, "velocity": 64}, {"time": 552, "pitch": 76, "duration": 1, "velocity": 64}, {"time": 492, "pitch": 64, "duration": 2, "velocity": 64}, {"time": 504, "pitch": 71, "duration": 2, "velocity": 64}, {"time": 594, "pitch": 72, "duration": 3, "velocity": 64}, {"time": 402, "pitch": 76, "duration": 2, "velocity": 64}, {"time": 690, "pitch": 74, "duration": 6, "velocity": 64}, {"time": 498, "pitch": 53, "duration": 2, "velocity": 64}, {"time": 594, "pitch": 74, "duration": 2, "velocity": 64}, {"time": 642, "pitch": 67, "duration": 1, "velocity": 64}, {"time": 480, "pitch": 60, "duration": 2, "velocity": 64}, {"time": 450, "pitch": 74, "duration": 3, "velocity": 64}, {"time": 690, "pitch": 74, "duration": 1, "velocity": 64}, {"time": 522, "pitch": 65, "duration": 3, "velocity": 64}, {"time": 618, "pitch": 64, "duration": 1, "velocity": 64}, {"time": 666, "pitch": 74, "duration": 6, "velocity": 64}, {"time": 576, "pitch": 60, "duration": 1, "velocity": 64}, {"time": 510, "pitch": 77, "duration": 3, "velocity": 64}, {"time": 474, "pitch": 62, "duration": 2, "velocity": 64}, {"time": 672, "pitch": 74, "duration": 3, "velocity": 64}, {"time": 498, "pitch": 76, "duration": 2, "velocity": 64}, {"time": 486, "pitch": 69, "duration": 1, "velocity": 64}, {"time": 552, "pitch": 60, "duration": 3, "velocity": 64}, {"time": 504, "pitch": 70, "duration": 3, "velocity": 64}, {"time": 642, "pitch": 74, "duration": 1, "velocity": 64}, {"time": 612, "pitch": 69, "duration": 3, "velocity": 64}, {"time": 468, "pitch": 72, "duration": 1, "velocity": 64}, {"time": 570, "pitch": 76, "duration": 3, "velocity": 64}, {"time": 654, "pitch": 64, "duration": 3, "velocity": 64}, {"time": 564, "pitch": 79, "duration": 1, "velocity": 64}, {"time": 780, "pitch": 69, "duration": 1, "velocity": 64}, {"time": 654, "pitch": 72, "duration": 2, "velocity": 64}, {"time": 684, "pitch": 53, "duration": 3, "velocity": 64}, {"time": 630, "pitch": 67, "duration": 3, "velocity": 64}, {"time": 648, "pitch": 79, "duration": 3, "velocity": 64}, {"time": 750, "pitch": 67, "duration": 1, "velocity": 64}, {"time": 498, "pitch": 76, "duration": 1, "velocity": 64}, {"time": 486, "pitch": 72, "duration": 3, "velocity": 64}, {"time": 570, "pitch": 67, "duration": 2, "velocity": 64}, {"time": 666, "pitch": 62, "duration": 1, "velocity": 64}, {"time": 612, "pitch": 77, "duration": 1, "velocity": 64}, {"time": 720, "pitch": 69, "duration": 1, "velocity": 64}, {"time": 570, "pitch": 69, "duration": 3, "velocity": 64}, {"time": 492, "pitch": 77, "duration": 3, "velocity": 64}, {"time": 696, "pitch": 70, "duration": 3, "velocity": 64}, {"time": 582, "pitch": 65, "duration": 3, "velocity": 64}, {"time": 552, "pitch": 67, "duration": 3, "velocity": 64}, {"time": 690, "pitch": 74, "duration": 2, "velocity": 64}, {"time": 810, "pitch": 70, "duration": 2, "velocity": 64}, {"time": 696, "pitch": 69, "duration": 3, "velocity": 64}, {"time": 588, "pitch": 74, "duration": 1, "velocity": 64}, {"time": 552, "pitch": 72, "duration": 3, "velocity": 64}, {"time": 612, "pitch": 64, "duration": 2, "velocity": 64}, {"time": 876, "pitch": 72, "duration": 3, "velocity": 64}, {"time": 660, "pitch": 62, "duration": 2, "velocity": 64}, {"time": 600, "pitch": 69, "duration": 3, "velocity": 64}, {"time": 810, "pitch": 74, "duration": 1, "velocity": 64}, {"time": 648, "pitch": 76, "duration": 1, "velocity": 64}, {"time": 672, "pitch": 65, "duration": 1, "velocity": 64}, {"time": 624, "pitch": 70, "duration": 1, "velocity": 64}, {"time": 606, "pitch": 65, "duration": 3, "velocity": 64}, {"time": 834, "pitch": 70, "duration": 3, "velocity": 64}, {"time": 642, "pitch": 72, "duration": 6, "velocity": 64}, {"time": 636, "pitch": 70, "duration": 3, "velocity": 64}, {"time": 636, "pitch": 69, "duration": 3, "velocity": 64}, {"time": 672, "pitch": 70, "duration": 3, "velocity": 64}, {"time": 792, "pitch": 74, "duration": 3, "velocity": 64}, {"time": 828, "pitch": 69, "duration": 1, "velocity": 64}, {"time": 864, "pitch": 77, "duration": 2, "velocity": 64}, {"time": 759, "pitch": 72, "duration": 3, "velocity": 64}, {"time": 720, "pitch": 69, "duration": 3, "velocity": 64}, {"time": 816, "pitch": 62, "duration": 2, "velocity": 64}, {"time": 900, "pitch": 65, "duration": 1, "velocity": 64}, {"time": 684, "pitch": 53, "duration": 3, "velocity": 64}, {"time": 648, "pitch": 72, "duration": 2, "velocity": 64}, {"time": 732, "pitch": 72, "duration": 3, "velocity": 64}, {"time": 600, "pitch": 67, "duration": 2, "velocity": 64}, {"time": 792, "pitch": 67, "duration": 1, "velocity": 64}, {"time": 606, "pitch": 65, "duration": 1, "velocity": 64}, {"time": 792, "pitch": 69, "duration": 1, "velocity": 64}, {"time": 750, "pitch": 62, "duration": 1, "velocity": 64}, {"time": 618, "pitch": 69, "duration": 3, "velocity": 64}, {"time": 816, "pitch": 76, "duration": 1, "velocity": 64}, {"time": 708, "pitch": 60, "duration": 3, "velocity": 64}, {"time": 894, "pitch": 62, "duration": 2, "velocity": 64}, {"time": 612, "pitch": 65, "duration": 2, "velocity": 64}, {"time": 840, "pitch": 60, "duration": 1, "velocity": 64}, {"time": 882, "pitch": 67, "duration": 3, "velocity": 64}, {"time": 954, "pitch": 65, "duration": 3, "velocity": 64}, {"time": 756, "pitch": 76, "duration": 3, "velocity": 64}, {"time": 792, "pitch": 65, "duration": 1, "velocity": 64}, {"time": 636, "pitch": 67, "duration": 1, "velocity": 64}, {"time": 996, "pitch": 72, "duration": 2, "velocity": 64}, {"time": 654, "pitch": 77, "duration": 3, "velocity": 64}, {"time": 828, "pitch": 64, "duration": 3, "velocity": 64}, {"time": 990, "pitch": 77, "duration": 2, "velocity": 64}, {"time": 768, "pitch": 53, "duration": 2, "velocity": 64}, {"time": 852, "pitch": 67, "duration": 1, "velocity": 64}, {"time": 774, "pitch": 74, "duration": 3, "velocity": 64}, {"time": 828, "pitch": 74, "duration": 1, "velocity": 64}, {"time": 834, "pitch": 76, "duration": 6, "velocity": 64}, {"time": 654, "pitch": 74, "duration": 1, "velocity": 64}, {"time": 1050, "pitch": 60, "duration": 2, "velocity": 64}, {"time": 774, "pitch": 64, "duration": 2, "velocity": 64}, {"time": 876, "pitch": 70, "duration": 1, "velocity": 64}, {"time": 984, "pitch": 67, "duration": 2, "velocity": 64}, {"time": 840, "pitch": 79, "duration": 3, "velocity": 64}, {"time": 1032, "pitch": 72, "duration": 3, "velocity": 64}, {"time": 660, "pitch": 74, "duration": 1, "velocity": 64}, {"time": 750, "pitch": 74, "duration": 1, "velocity": 64}, {"time": 900, "pitch": 79, "duration": 2, "velocity": 64}, {"time": 870, "pitch": 69, "duration": 3, "velocity": 64}, {"time": 1008, "pitch": 64, "duration": 3, "velocity": 64}, {"time": 804, "pitch": 69, "duration": 1, "velocity": 64}]}]}