{"metadata": {"schema_version": "0.2"}, "resolution": 12, "tempos": [{"time": 0, "qpm": 100.0}], "tracks": [{"program": 41, "is_drum": false, "notes": [{"time": 0, "pitch": 62, "duration": 3, "velocity": 64}, {"time": 3, "pitch": 67, "duration": 6, "velocity": 64}, {"time": 9, "pitch": 66, "duration": 3, "velocity": 64}, {"time": 12, "pitch": 59, "duration": 3, "velocity": 64}, {"time": 15, "pitch": 64, "duration": 6, "velocity": 64}, {"time": 21, "pitch": 62, "duration": 3, "velocity": 64}, {"time": 24, "pitch": 55, "duration": 3, "velocity": 64}, {"time": 27, "pitch": 60, "duration": 6, "velocity": 64}, {"time": 33, "pitch": 59, "duration": 3, "velocity": 64}, {"time": 36, "pitch": 64, "duration": 6, "velocity": 64}, {"time": 42, "pitch": 62, "duration": 6, "velocity": 64}, {"time": 48, "pitch": 60, "duration": 3, "velocity": 64}, {"time": 51, "pitch": 59, "duration": 1, "velocity": 64}, {"time": 52, "pitch": 57, "duration": 2, "velocity": 64}, {"time": 54, "pitch": 59, "duration": 3, "velocity": 64}, {"time": 57, "pitch": 55, "duration": 3, "velocity": 64}, {"time": 60, "pitch": 54, "duration": 6, "velocity": 64}, {"time": 66, "pitch": 55, "duration": 6, "velocity": 64}, {"time": 72, "pitch": 57, "duration": 3, "velocity": 64}, {"time": 75, "pitch": 62, "duration": 3, "velocity": 64}, {"time": 78, "pitch": 59, "duration": 3, "velocity": 64}, {"time": 81, "pitch": 55, "duration": 3, "velocity": 64}, {"time": 84, "pitch": 50, "duration": 6, "velocity": 64}, {"time": 96, "pitch": 62, "duration": 3, "velocity": 64}, {"time": 99, "pitch": 67, "duration": 6, "velocity": 64}, {"time": 105, "pitch": 66, "duration": 3, "velocity": 64}, {"time": 108, "pitch": 59, "duration": 3, "velocity": 64}, {"time": 111, "pitch": 64, "duration": 6, "velocity": 64}, {"time": 117, "pitch": 62, "duration": 3, "velocity": 64}, {"time": 120, "pitch": 62, "duration": 3, "velocity": 64}, {"time": 123, "pitch": 60, "duration": 6, "velocity": 64}, {"time": 129, "pitch": 59, "duration": 3, "velocity": 64}, {"time": 132, "pitch": 64, "duration": 6, "velocity": 64}, {"time": 138, "pitch": 62, "duration": 6, "velocity": 64}, {"time": 144, "pitch": 60, "duration": 3, "velocity": 64}, {"time": 147, "pitch": 59, "duration": 1, "velocity": 64}, {"time": 148, "pitch": 57, "duration": 2, "velocity": 64}, {"time": 150, "pitch": 59, "duration": 3, "velocity": 64}, {"time": 153, "pitch": 55, "duration": 3, "velocity": 64}, {"time": 156, "pitch": 54, "duration": 6, "velocity": 64}, {"time": 162, "pitch": 55, "duration": 6, "velocity": 64}, {"time": 168, "pitch": 57, "duration": 3, "velocity": 64}, {"time": 171, "pitch": 62, "duration": 3, "velocity": 64}, {"time": 174, "pitch": 59, "duration": 3, "velocity": 64}, {"time": 177, "pitch": 55, "duration": 3, "velocity": 64}, {"time": 180, "pitch": 50, "duration": 6, "velocity": 64}, {"time": 186, "pitch": 62, "duration": 6, "velocity": 64}, {"time": 192, "pitch": 62, "duration": 3, "velocity": 64}, {"time": 195, "pitch": 60, "duration": 1, "velocity": 64}, {"time": 196, "pitch": 59, "duration": 2, "velocity": 64}, {"time": 198, "pitch": 60, "duration": 3, "velocity": 64}, {"time": 201, "pitch": 59, "duration": 1, "velocity": 64}, {"time": 202, "pitch": 57, "duration": 2, "velocity": 64}, {"time": 204, "pitch": 59, "duration": 3, "velocity": 64}, {"time": 207, "pitch": 57, "duration": 1, "velocity": 64}, {"time": 208, "pitch": 55, "duration": 2, "velocity": 64}, {"time": 210, "pitch": 57, "duration": 3, "velocity": 64}, {"time": 213, "pitch": 55, "duration": 1, "velocity": 64}, {"time": 214, "pitch": 54, "duration": 2, "velocity": 64}, {"time": 216, "pitch": 55, "duration": 3, "velocity": 64}, {"time": 219, "pitch": 59, "duration": 3, "velocity": 64}, {"time": 222, "pitch": 60, "duration": 3, "velocity": 64}, {"time": 225, "pitch": 62, "duration": 3, "velocity": 64}, {"time": 228, "pitch": 55, "duration": 6, "velocity": 64}, {"time": 240, "pitch": 55, "duration": 2, "velocity": 64}, {"time": 242, "pitch": 57, "duration": 1, "velocity": 64}, {"time": 243, "pitch": 59, "duration": 3, "velocity": 64}, {"time": 246, "pitch": 59, "duration": 2, "velocity": 64}, {"time": 248, "pitch": 57, "duration": 1, "velocity": 64}, {"time": 249, "pitch": 55, "duration": 3, "velocity": 64}, {"time": 252, "pitch": 62, "duration": 3, "velocity": 64}, {"time": 255, "pitch": 62, "duration": 3, "velocity": 64}, {"time": 258, "pitch": 62, "duration": 3, "velocity": 64}, {"time": 261, "pitch": 67, "duration": 3, "velocity": 64}, {"time": 264, "pitch": 66, "duration": 2, "velocity": 64}, {"time": 266, "pitch": 67, "duration": 1, "velocity": 64}, {"time": 267, "pitch": 69, "duration": 3, "velocity": 64}, {"time": 270, "pitch": 71, "duration": 2, "velocity": 64}, {"time": 272, "pitch": 69, "duration": 1, "velocity": 64}, {"time": 273, "pitch": 67, "duration": 3, "velocity": 64}, {"time": 276, "pitch": 69, "duration": 3, "velocity": 64}, {"time": 279, "pitch": 62, "duration": 3, "velocity": 64}, {"time": 282, "pitch": 62, "duration": 3, "velocity": 64}, {"time": 285, "pitch": 64, "duration": 3, "velocity": 64}, {"time": 288, "pitch": 66, "duration": 2, "velocity": 64}, {"time": 290, "pitch": 67, "duration": 1, "velocity": 64}, {"time": 291, "pitch": 66, "duration": 3, "velocity": 64}, {"time": 294, "pitch": 66, "duration": 3, "velocity": 64}, {"time": 297, "pitch": 67, "duration": 3, "velocity": 64}, {"time": 300, "pitch": 69, "duration": 2, "velocity": 64}, {"time": 302, "pitch": 71, "duration": 1, "velocity": 64}, {"time": 303, "pitch": 69, "duration": 3, "velocity": 64}, {"time": 306, "pitch": 69, "duration": 3, "velocity": 64}, {"time": 309, "pitch": 71, "duration": 3, "velocity": 64}, {"time": 312, "pitch": 61, "duration": 6, "velocity": 64}, {"time": 318, "pitch": 62, "duration": 6, "velocity": 64}, {"time": 324, "pitch": 64, "duration": 3, "velocity": 64}, {"time": 327, "pitch": 57, "duration": 3, "velocity": 64}, {"time": 330, "pitch": 66, "duration": 3, "velocity": 64}, {"time": 333, "pitch": 57, "duration": 3, "velocity": 64}, {"time": 336, "pitch": 67, "duration": 6, "velocity": 64}, {"time": 342, "pitch": 69, "duration": 3, "velocity": 64}, {"time": 345, "pitch": 67, "duration": 1, "velocity": 64}, {"time": 346, "pitch": 66, "duration": 2, "velocity": 64}, {"time": 348, "pitch": 71, "duration": 3, "velocity": 64}, {"time": 351, "pitch": 59, "duration": 3, "velocity": 64}, {"time": 354, "pitch": 69, "duration": 6, "velocity": 64}, {"time": 360, "pitch": 67, "duration": 3, "velocity": 64}, {"time": 363, "pitch": 66, "duration": 1, "velocity": 64}, {"time": 364, "pitch": 64, "duration": 2, "velocity": 64}, {"time": 366, "pitch": 66, "duration": 3, "velocity": 64}, {"time": 369, "pitch": 62, "duration": 3, "velocity": 64}, {"time": 372, "pitch": 61, "duration": 6, "velocity": 64}, {"time": 378, "pitch": 62, "duration": 6, "velocity": 64}, {"time": 384, "pitch": 64, "duration": 3, "velocity": 64}, {"time": 387, "pitch": 69, "duration": 3, "velocity": 64}, {"time": 390, "pitch": 66, "duration": 3, "velocity": 64}, {"time": 393, "pitch": 62, "duration": 3, "velocity": 64}, {"time": 396, "pitch": 57, "duration": 6, "velocity": 64}, {"time": 402, "pitch": 69, "duration": 6, "velocity": 64}, {"time": 408, "pitch": 69, "duration": 3, "velocity": 64}, {"time": 411, "pitch": 67, "duration": 1, "velocity": 64}, {"time": 412, "pitch": 66, "duration": 2, "velocity": 64}, {"time": 414, "pitch": 67, "duration": 3, "velocity": 64}, {"time": 417, "pitch": 66, "duration": 1, "velocity": 64}, {"time": 418, "pitch": 64, "duration": 2, "velocity": 64}, {"time": 420, "pitch": 66, "duration": 3, "velocity": 64}, {"time": 423, "pitch": 64, "duration": 1, "velocity": 64}, {"time": 424, "pitch": 62, "duration": 2, "velocity": 64}, {"time": 426, "pitch": 64, "duration": 3, "velocity": 64}, {"time": 429, "pitch": 62, "duration": 1, "velocity": 64}, {"time": 430, "pitch": 61, "duration": 2, "velocity": 64}, {"time": 432, "pitch": 62, "duration": 3, "velocity": 64}, {"time": 435, "pitch": 54, "duration": 3, "velocity": 64}, {"time": 438, "pitch": 55, "duration": 3, "velocity": 64}, {"time": 441, "pitch": 57, "duration": 3, "velocity": 64}, {"time": 444, "pitch": 50, "duration": 6, "velocity": 64}, {"time": 456, "pitch": 62, "duration": 3, "velocity": 64}, {"time": 459, "pitch": 67, "duration": 6, "velocity": 64}, {"time": 465, "pitch": 66, "duration": 3, "velocity": 64}, {"time": 468, "pitch": 59, "duration": 3, "velocity": 64}, {"time": 471, "pitch": 64, "duration": 6, "velocity": 64}, {"time": 477, "pitch": 62, "duration": 3, "velocity": 64}, {"time": 480, "pitch": 55, "duration": 3, "velocity": 64}, {"time": 483, "pitch": 60, "duration": 6, "velocity": 64}, {"time": 489, "pitch": 59, "duration": 3, "velocity": 64}, {"time": 492, "pitch": 64, "duration": 6, "velocity": 64}, {"time": 498, "pitch": 62, "duration": 6, "velocity": 64}, {"time": 504, "pitch": 60, "duration": 3, "velocity": 64}, {"time": 507, "pitch": 59, "duration": 1, "velocity": 64}, {"time": 508, "pitch": 57, "duration": 2, "velocity": 64}, {"time": 510, "pitch": 59, "duration": 3, "velocity": 64}, {"time": 513, "pitch": 55, "duration": 3, "velocity": 64}, {"time": 516, "pitch": 54, "duration": 6, "velocity": 64}, {"time": 522, "pitch": 55, "duration": 6, "velocity": 64}, {"time": 528, "pitch": 57, "duration": 3, "velocity": 64}, {"time": 531, "pitch": 62, "duration": 3, "velocity": 64}, {"time": 534, "pitch": 59, "duration": 3, "velocity": 64}, {"time": 537, "pitch": 55, "duration": 3, "velocity": 64}, {"time": 540, "pitch": 50, "duration": 6, "velocity": 64}, {"time": 552, "pitch": 62, "duration": 3, "velocity": 64}, {"time": 555, "pitch": 67, "duration": 6, "velocity": 64}, {"time": 561, "pitch": 66, "duration": 3, "velocity": 64}, {"time": 564, "pitch": 59, "duration": 3, "velocity": 64}, {"time": 567, "pitch": 64, "duration": 6, "velocity": 64}, {"time": 573, "pitch": 62, "duration": 3, "velocity": 64}, {"time": 576, "pitch": 55, "duration": 3, "velocity": 64}, {"time": 579, "pitch": 60, "duration": 6, "velocity": 64}, {"time": 585, "pitch": 59, "duration": 3, "velocity": 64}, {"time": 588, "pitch": 64, "duration": 6, "velocity": 64}, {"time": 594, "pitch": 62, "duration": 6, "velocity": 64}, {"time": 600, "pitch": 60, "duration": 3, "velocity": 64}, {"time": 603, "pitch": 59, "duration": 1, "velocity": 64}, {"time": 604, "pitch": 57, "duration": 2, "velocity": 64}, {"time": 606, "pitch": 59, "duration": 3, "velocity": 64}, {"time": 609, "pitch": 55, "duration": 3, "velocity": 64}, {"time": 612, "pitch": 54, "duration": 6, "velocity": 64}, {"time": 618, "pitch": 55, "duration": 6, "velocity": 64}, {"time": 624, "pitch": 57, "duration": 3, "velocity": 64}, {"time": 627, "pitch": 62, "duration": 3, "velocity": 64}, {"time": 630, "pitch": 59, "duration": 3, "velocity": 64}, {"time": 633, "pitch": 55, "duration": 3, "velocity": 64}, {"time": 636, "pitch": 50, "duration": 6, "velocity": 64}, {"time": 642, "pitch": 62, "duration": 6, "velocity": 64}, {"time": 648, "pitch": 62, "duration": 3, "velocity": 64}, {"time": 651, "pitch": 60, "duration": 1, "velocity": 64}, {"time": 652, "pitch": 59, "duration": 2, "velocity": 64}, {"time": 654, "pitch": 60, "duration": 3, "velocity": 64}, {"time": 657, "pitch": 59, "duration": 1, "velocity": 64}, {"time": 658, "pitch": 57, "duration": 2, "velocity": 64}, {"time": 660, "pitch": 59, "duration": 3, "velocity": 64}, {"time": 663, "pitch": 57, "duration": 1, "velocity": 64}, {"time": 664, "pitch": 55, "duration": 2, "velocity": 64}, {"time": 666, "pitch": 57, "duration": 3, "velocity": 64}, {"time": 669, "pitch": 55, "duration": 1, "velocity": 64}, {"time": 670, "pitch": 54, "duration": 2, "velocity": 64}, {"time": 672, "pitch": 55, "duration": 3, "velocity": 64}, {"time": 675, "pitch": 59, "duration": 3, "velocity": 64}, {"time": 678, "pitch": 60, "duration": 3, "velocity": 64}, {"time": 681, "pitch": 62, "duration": 3, "velocity": 64}, {"time": 684, "pitch": 55, "duration": 6, "velocity": 64}, {"time": 696, "pitch": 67, "duration": 3, "velocity": 64}, {"time": 699, "pitch": 67, "duration": 1, "velocity": 64}, {"time": 700, "pitch": 66, "duration": 2, "velocity": 64}, {"time": 702, "pitch": 67, "duration": 3, "velocity": 64}, {"time": 705, "pitch": 69, "duration": 3, "velocity": 64}, {"time": 708, "pitch": 71, "duration": 6, "velocity": 64}, {"time": 714, "pitch": 64, "duration": 6, "velocity": 64}, {"time": 720, "pitch": 63, "duration": 3, "velocity": 64}, {"time": 723, "pitch": 59, "duration": 3, "velocity": 64}, {"time": 726, "pitch": 67, "duration": 3, "velocity": 64}, {"time": 729, "pitch": 64, "duration": 3, "velocity": 64}, {"time": 732, "pitch": 71, "duration": 6, "velocity": 64}, {"time": 738, "pitch": 64, "duration": 6, "velocity": 64}, {"time": 744, "pitch": 63, "duration": 3, "velocity": 64}, {"time": 747, "pitch": 59, "duration": 3, "velocity": 64}, {"time": 750, "pitch": 67, "duration": 6, "velocity": 64}, {"time": 756, "pitch": 66, "duration": 6, "velocity": 64}, {"time": 762, "pitch": 59, "duration": 3, "velocity": 64}, {"time": 765, "pitch": 61, "duration": 1, "velocity": 64}, {"time": 766, "pitch": 59, "duration": 2, "velocity": 64}, {"time": 768, "pitch": 58, "duration": 3, "velocity": 64}, {"time": 771, "pitch": 54, "duration": 3, "velocity": 64}, {"time": 774, "pitch": 62, "duration": 6, "velocity": 64}, {"time": 780, "pitch": 61, "duration": 6, "velocity": 64}, {"time": 786, "pitch": 59, "duration": 3, "velocity": 64}, {"time": 789, "pitch": 61, "duration": 1, "velocity": 64}, {"time": 790, "pitch": 59, "duration": 2, "velocity": 64}, {"time": 792, "pitch": 58, "duration": 3, "velocity": 64}, {"time": 795, "pitch": 54, "duration": 3, "velocity": 64}, {"time": 798, "pitch": 62, "duration": 6, "velocity": 64}, {"time": 804, "pitch": 61, "duration": 6, "velocity": 64}, {"time": 810, "pitch": 59, "duration": 3, "velocity": 64}, {"time": 813, "pitch": 61, "duration": 1, "velocity": 64}, {"time": 814, "pitch": 62, "duration": 2, "velocity": 64}, {"time": 816, "pitch": 64, "duration": 3, "velocity": 64}, {"time": 819, "pitch": 62, "duration": 1, "velocity": 64}, {"time": 820, "pitch": 61, "duration": 2, "velocity": 64}, {"time": 822, "pitch": 62, "duration": 3, "velocity": 64}, {"time": 825, "pitch": 64, "duration": 1, "velocity": 64}, {"time": 826, "pitch": 66, "duration": 2, "velocity": 64}, {"time": 828, "pitch": 67, "duration": 6, "velocity": 64}, {"time": 834, "pitch": 66, "duration": 6, "velocity": 64}, {"time": 840, "pitch": 64, "duration": 3, "velocity": 64}, {"time": 843, "pitch": 71, "duration": 3, "velocity": 64}, {"time": 846, "pitch": 70, "duration": 3, "velocity": 64}, {"time": 849, "pitch": 69, "duration": 3, "velocity": 64}, {"time": 852, "pitch": 68, "duration": 3, "velocity": 64}, {"time": 855, "pitch": 67, "duration": 3, "velocity": 64}, {"time": 858, "pitch": 66, "duration": 3, "velocity": 64}, {"time": 861, "pitch": 59, "duration": 3, "velocity": 64}, {"time": 864, "pitch": 64, "duration": 6, "velocity": 64}, {"time": 870, "pitch": 62, "duration": 6, "velocity": 64}, {"time": 876, "pitch": 61, "duration": 3, "velocity": 64}, {"time": 879, "pitch": 59, "duration": 1, "velocity": 64}, {"time": 880, "pitch": 58, "duration": 2, "velocity": 64}, {"time": 882, "pitch": 59, "duration": 3, "velocity": 64}, {"time": 885, "pitch": 66, "duration": 3, "velocity": 64}, {"time": 888, "pitch": 54, "duration": 3, "velocity": 64}, {"time": 891, "pitch": 66, "duration": 3, "velocity": 64}, {"time": 894, "pitch": 54, "duration": 3, "velocity": 64}, {"time": 897, "pitch": 66, "duration": 3, "velocity": 64}, {"time": 900, "pitch": 66, "duration": 3, "velocity": 64}, {"time": 903, "pitch": 64, "duration": 1, "velocity": 64}, {"time": 904, "pitch": 62, "duration": 2, "velocity": 64}, {"time": 906, "pitch": 64, "duration": 3, "velocity": 64}, {"time": 909, "pitch": 62, "duration": 1, "velocity": 64}, {"time": 910, "pitch": 61, "duration": 2, "velocity": 64}, {"time": 912, "pitch": 62, "duration": 3, "velocity": 64}, {"time": 915, "pitch": 61, "duration": 1, "velocity": 64}, {"time": 916, "pitch": 59, "duration": 2, "velocity": 64}, {"time": 918, "pitch": 61, "duration": 3, "velocity": 64}, {"time": 921, "pitch": 59, "duration": 1, "velocity": 64}, {"time": 922, "pitch": 58, "duration": 2, "velocity": 64}, {"time": 924, "pitch": 59, "duration": 3, "velocity": 64}, {"time": 927, "pitch": 50, "duration": 3, "velocity": 64}, {"time": 930, "pitch": 52, "duration": 3, "velocity": 64}, {"time": 933, "pitch": 54, "duration": 3, "velocity": 64}, {"time": 936, "pitch": 59, "duration": 6, "velocity": 64}, {"time": 945, "pitch": 57, "duration": 3, "velocity": 64}, {"time": 948, "pitch": 55, "duration": 3, "velocity": 64}, {"time": 951, "pitch": 57, "duration": 1, "velocity": 64}, {"time": 952, "pitch": 59, "duration": 2, "velocity": 64}, {"time": 954, "pitch": 60, "duration": 2, "velocity": 64}, {"time": 956, "pitch": 64, "duration": 1, "velocity": 64}, {"time": 957, "pitch": 62, "duration": 1, "velocity": 64}, {"time": 958, "pitch": 60, "duration": 2, "velocity": 64}, {"time": 960, "pitch": 62, "duration": 3, "velocity": 64}, {"time": 963, "pitch": 67, "duration": 6, "velocity": 64}, {"time": 969, "pitch": 66, "duration": 3, "velocity": 64}, {"time": 972, "pitch": 59, "duration": 3, "velocity": 64}, {"time": 975, "pitch": 64, "duration": 6, "velocity": 64}, {"time": 981, "pitch": 62, "duration": 3, "velocity": 64}, {"time": 984, "pitch": 55, "duration": 3, "velocity": 64}, {"time": 987, "pitch": 60, "duration": 6, "velocity": 64}, {"time": 993, "pitch": 59, "duration": 3, "velocity": 64}, {"time": 996, "pitch": 64, "duration": 6, "velocity": 64}, {"time": 1002, "pitch": 62, "duration": 6, "velocity": 64}, {"time": 1008, "pitch": 60, "duration": 3, "velocity": 64}, {"time": 1011, "pitch": 59, "duration": 1, "velocity": 64}, {"time": 1012, "pitch": 57, "duration": 2, "velocity": 64}, {"time": 1014, "pitch": 59, "duration": 3, "velocity": 64}, {"time": 1017, "pitch": 55, "duration": 3, "velocity": 64}, {"time": 1020, "pitch": 54, "duration": 6, "velocity": 64}, {"time": 1026, "pitch": 55, "duration": 6, "velocity": 64}, {"time": 1032, "pitch": 57, "duration": 3, "velocity": 64}, {"time": 1035, "pitch": 62, "duration": 3, "velocity": 64}, {"time": 1038, "pitch": 59, "duration": 3, "velocity": 64}, {"time": 1041, "pitch": 55, "duration": 3, "velocity": 64}, {"time": 1044, "pitch": 50, "duration": 6, "velocity": 64}, {"time": 1056, "pitch": 62, "duration": 3, "velocity": 64}, {"time": 1059, "pitch": 67, "duration": 6, "velocity": 64}, {"time": 1065, "pitch": 66, "duration": 3, "velocity": 64}, {"time": 1068, "pitch": 59, "duration": 3, "velocity": 64}, {"time": 1071, "pitch": 64, "duration": 6, "velocity": 64}, {"time": 1077, "pitch": 62, "duration": 3, "velocity": 64}, {"time": 1080, "pitch": 55, "duration": 3, "velocity": 64}, {"time": 1083, "pitch": 60, "duration": 6, "velocity": 64}, {"time": 1089, "pitch": 59, "duration": 3, "velocity": 64}, {"time": 1092, "pitch": 64, "duration": 6, "velocity": 64}, {"time": 1098, "pitch": 62, "duration": 6, "velocity": 64}, {"time": 1104, "pitch": 60, "duration": 3, "velocity": 64}, {"time": 1107, "pitch": 59, "duration": 1, "velocity": 64}, {"time": 1108, "pitch": 57, "duration": 2, "velocity": 64}, {"time": 1110, "pitch": 59, "duration": 3, "velocity": 64}, {"time": 1113, "pitch": 55, "duration": 3, "velocity": 64}, {"time": 1116, "pitch": 54, "duration": 6, "velocity": 64}, {"time": 1122, "pitch": 55, "duration": 6, "velocity": 64}, {"time": 1128, "pitch": 57, "duration": 3, "velocity": 64}, {"time": 1131, "pitch": 62, "duration": 3, "velocity": 64}, {"time": 1134, "pitch": 59, "duration": 3, "velocity": 64}, {"time": 1137, "pitch": 55, "duration": 3, "velocity": 64}, {"time": 1140, "pitch": 55, "duration": 6, "velocity": 64}, {"time": 1146, "pitch": 62, "duration": 6, "velocity": 64}, {"time": 1152, "pitch": 62, "duration": 3, "velocity": 64}, {"time": 1155, "pitch": 60, "duration": 1, "velocity": 64}, {"time": 1156, "pitch": 59, "duration": 2, "velocity": 64}, {"time": 1158, "pitch": 60, "duration": 3, "velocity": 64}, {"time": 1161, "pitch": 59, "duration": 1, "velocity": 64}, {"time": 1162, "pitch": 57, "duration": 2, "velocity": 64}, {"time": 1164, "pitch": 59, "duration": 3, "velocity": 64}, {"time": 1167, "pitch": 57, "duration": 1, "velocity": 64}, {"time": 1168, "pitch": 55, "duration": 2, "velocity": 64}, {"time": 1170, "pitch": 57, "duration": 3, "velocity": 64}, {"time": 1173, "pitch": 55, "duration": 1, "velocity": 64}, {"time": 1174, "pitch": 54, "duration": 2, "velocity": 64}, {"time": 1176, "pitch": 55, "duration": 3, "velocity": 64}, {"time": 1179, "pitch": 59, "duration": 3, "velocity": 64}, {"time": 1182, "pitch": 60, "duration": 3, "velocity": 64}, {"time": 1185, "pitch": 62, "duration": 3, "velocity": 64}, {"time": 1188, "pitch": 55, "duration": 6, "velocity": 64}]}]}