{"metadata": {"schema_version": "0.2"}, "resolution": 12, "tempos": [{"time": 0, "qpm": 100.0}], "tracks": [{"program": 74, "is_drum": false, "notes": [{"time": 0, "pitch": 50, "duration": 12, "velocity": 64}, {"time": 12, "pitch": 46, "duration": 12, "velocity": 64}, {"time": 24, "pitch": 65, "duration": 6, "velocity": 64}, {"time": 36, "pitch": 69, "duration": 12, "velocity": 64}, {"time": 30, "pitch": 70, "duration": 6, "velocity": 64}, {"time": 42, "pitch": 74, "duration": 3, "velocity": 64}, {"time": 102, "pitch": 62, "duration": 12, "velocity": 64}, {"time": 60, "pitch": 67, "duration": 9, "velocity": 64}, {"time": 96, "pitch": 60, "duration": 24, "velocity": 64}, {"time": 84, "pitch": 62, "duration": 3, "velocity": 64}, {"time": 126, "pitch": 67, "duration": 12, "velocity": 64}, {"time": 216, "pitch": 58, "duration": 6, "velocity": 64}, {"time": 96, "pitch": 60, "duration": 18, "velocity": 64}, {"time": 114, "pitch": 65, "duration": 3, "velocity": 64}, {"time": 186, "pitch": 65, "duration": 12, "velocity": 64}, {"time": 108, "pitch": 65, "duration": 6, "velocity": 64}, {"time": 156, "pitch": 63, "duration": 6, "velocity": 64}, {"time": 156, "pitch": 60, "duration": 3, "velocity": 64}, {"time": 156, "pitch": 67, "duration": 6, "velocity": 64}, {"time": 156, "pitch": 53, "duration": 12, "velocity": 64}, {"time": 282, "pitch": 53, "duration": 6, "velocity": 64}, {"time": 120, "pitch": 69, "duration": 18, "velocity": 64}, {"time": 192, "pitch": 74, "duration": 6, "velocity": 64}, {"time": 126, "pitch": 69, "duration": 6, "velocity": 64}, {"time": 174, "pitch": 57, "duration": 6, "velocity": 64}, {"time": 144, "pitch": 57, "duration": 3, "velocity": 64}, {"time": 228, "pitch": 63, "duration": 6, "velocity": 64}, {"time": 132, "pitch": 60, "duration": 6, "velocity": 64}, {"time": 222, "pitch": 69, "duration": 6, "velocity": 64}, {"time": 210, "pitch": 65, "duration": 6, "velocity": 64}, {"time": 222, "pitch": 70, "duration": 6, "velocity": 64}, {"time": 282, "pitch": 65, "duration": 3, "velocity": 64}, {"time": 300, "pitch": 60, "duration": 6, "velocity": 64}, {"time": 174, "pitch": 69, "duration": 3, "velocity": 64}, {"time": 282, "pitch": 55, "duration": 6, "velocity": 64}, {"time": 276, "pitch": 74, "duration": 6, "velocity": 64}, {"time": 372, "pitch": 74, "duration": 6, "velocity": 64}, {"time": 324, "pitch": 65, "duration": 2, "velocity": 64}, {"time": 210, "pitch": 55, "duration": 3, "velocity": 64}, {"time": 372, "pitch": 62, "duration": 6, "velocity": 64}, {"time": 312, "pitch": 65, "duration": 6, "velocity": 64}, {"time": 264, "pitch": 65, "duration": 3, "velocity": 64}, {"time": 264, "pitch": 65, "duration": 2, "velocity": 64}, {"time": 294, "pitch": 65, "duration": 6, "velocity": 64}, {"time": 312, "pitch": 65, "duration": 12, "velocity": 64}, {"time": 348, "pitch": 67, "duration": 3, "velocity": 64}, {"time": 312, "pitch": 67, "duration": 6, "velocity": 64}, {"time": 288, "pitch": 60, "duration": 6, "velocity": 64}, {"time": 270, "pitch": 69, "duration": 6, "velocity": 64}, {"time": 498, "pitch": 67, "duration": 6, "velocity": 64}, {"time": 264, "pitch": 65, "duration": 12, "velocity": 64}, {"time": 360, "pitch": 53, "duration": 3, "velocity": 64}, {"time": 342, "pitch": 65, "duration": 12, "velocity": 64}, {"time": 384, "pitch": 58, "duration": 6, "velocity": 64}, {"time": 366, "pitch": 53, "duration": 12, "velocity": 64}, {"time": 378, "pitch": 65, "duration": 6, "velocity": 64}, {"time": 402, "pitch": 65, "duration": 5, "velocity": 64}, {"time": 402, "pitch": 70, "duration": 6, "velocity": 64}, {"time": 318, "pitch": 53, "duration": 6, "velocity": 64}, {"time": 414, "pitch": 62, "duration": 12, "velocity": 64}, {"time": 312, "pitch": 69, "duration": 6, "velocity": 64}, {"time": 354, "pitch": 65, "duration": 3, "velocity": 64}, {"time": 288, "pitch": 70, "duration": 6, "velocity": 64}, {"time": 414, "pitch": 67, "duration": 6, "velocity": 64}, {"time": 516, "pitch": 70, "duration": 6, "velocity": 64}, {"time": 474, "pitch": 60, "duration": 6, "velocity": 64}, {"time": 492, "pitch": 65, "duration": 3, "velocity": 64}, {"time": 498, "pitch": 65, "duration": 3, "velocity": 64}, {"time": 390, "pitch": 60, "duration": 6, "velocity": 64}, {"time": 480, "pitch": 69, "duration": 12, "velocity": 64}, {"time": 516, "pitch": 65, "duration": 12, "velocity": 64}, {"time": 444, "pitch": 65, "duration": 6, "velocity": 64}, {"time": 474, "pitch": 69, "duration": 12, "velocity": 64}, {"time": 456, "pitch": 60, "duration": 3, "velocity": 64}, {"time": 450, "pitch": 58, "duration": 6, "velocity": 64}, {"time": 498, "pitch": 65, "duration": 3, "velocity": 64}, {"time": 444, "pitch": 70, "duration": 6, "velocity": 64}, {"time": 522, "pitch": 62, "duration": 18, "velocity": 64}, {"time": 606, "pitch": 65, "duration": 6, "velocity": 64}, {"time": 426, "pitch": 65, "duration": 6, "velocity": 64}, {"time": 642, "pitch": 65, "duration": 3, "velocity": 64}, {"time": 552, "pitch": 69, "duration": 6, "velocity": 64}, {"time": 588, "pitch": 60, "duration": 3, "velocity": 64}, {"time": 372, "pitch": 70, "duration": 6, "velocity": 64}, {"time": 552, "pitch": 69, "duration": 3, "velocity": 64}, {"time": 450, "pitch": 64, "duration": 6, "velocity": 64}, {"time": 612, "pitch": 60, "duration": 6, "velocity": 64}, {"time": 630, "pitch": 67, "duration": 12, "velocity": 64}, {"time": 654, "pitch": 69, "duration": 3, "velocity": 64}, {"time": 486, "pitch": 74, "duration": 6, "velocity": 64}, {"time": 534, "pitch": 69, "duration": 6, "velocity": 64}, {"time": 474, "pitch": 72, "duration": 6, "velocity": 64}, {"time": 600, "pitch": 70, "duration": 3, "velocity": 64}, {"time": 504, "pitch": 74, "duration": 12, "velocity": 64}, {"time": 666, "pitch": 70, "duration": 12, "velocity": 64}, {"time": 456, "pitch": 57, "duration": 6, "velocity": 64}, {"time": 624, "pitch": 64, "duration": 3, "velocity": 64}, {"time": 552, "pitch": 72, "duration": 3, "velocity": 64}, {"time": 522, "pitch": 67, "duration": 3, "velocity": 64}, {"time": 486, "pitch": 74, "duration": 3, "velocity": 64}, {"time": 522, "pitch": 57, "duration": 3, "velocity": 64}, {"time": 792, "pitch": 70, "duration": 6, "velocity": 64}, {"time": 576, "pitch": 65, "duration": 12, "velocity": 64}, {"time": 804, "pitch": 69, "duration": 6, "velocity": 64}, {"time": 606, "pitch": 55, "duration": 6, "velocity": 64}, {"time": 552, "pitch": 69, "duration": 6, "velocity": 64}, {"time": 534, "pitch": 69, "duration": 6, "velocity": 64}, {"time": 780, "pitch": 62, "duration": 6, "velocity": 64}, {"time": 744, "pitch": 74, "duration": 6, "velocity": 64}, {"time": 582, "pitch": 70, "duration": 6, "velocity": 64}, {"time": 588, "pitch": 62, "duration": 3, "velocity": 64}, {"time": 612, "pitch": 65, "duration": 6, "velocity": 64}, {"time": 798, "pitch": 67, "duration": 6, "velocity": 64}, {"time": 798, "pitch": 67, "duration": 12, "velocity": 64}, {"time": 828, "pitch": 65, "duration": 6, "velocity": 64}, {"time": 834, "pitch": 72, "duration": 3, "velocity": 64}, {"time": 768, "pitch": 67, "duration": 18, "velocity": 64}, {"time": 684, "pitch": 55, "duration": 6, "velocity": 64}, {"time": 834, "pitch": 57, "duration": 6, "velocity": 64}, {"time": 558, "pitch": 53, "duration": 6, "velocity": 64}, {"time": 792, "pitch": 62, "duration": 6, "velocity": 64}, {"time": 762, "pitch": 74, "duration": 3, "velocity": 64}, {"time": 738, "pitch": 70, "duration": 6, "velocity": 64}, {"time": 792, "pitch": 69, "duration": 3, "velocity": 64}, {"time": 780, "pitch": 57, "duration": 6, "velocity": 64}, {"time": 618, "pitch": 57, "duration": 6, "velocity": 64}, {"time": 864, "pitch": 65, "duration": 6, "velocity": 64}, {"time": 702, "pitch": 57, "duration": 3, "velocity": 64}, {"time": 948, "pitch": 72, "duration": 6, "velocity": 64}, {"time": 762, "pitch": 69, "duration": 6, "velocity": 64}, {"time": 846, "pitch": 70, "duration": 12, "velocity": 64}, {"time": 756, "pitch": 67, "duration": 3, "velocity": 64}, {"time": 846, "pitch": 72, "duration": 3, "velocity": 64}, {"time": 918, "pitch": 64, "duration": 6, "velocity": 64}, {"time": 912, "pitch": 74, "duration": 12, "velocity": 64}, {"time": 966, "pitch": 65, "duration": 6, "velocity": 64}, {"time": 888, "pitch": 55, "duration": 3, "velocity": 64}, {"time": 1008, "pitch": 58, "duration": 6, "velocity": 64}, {"time": 858, "pitch": 53, "duration": 3, "velocity": 64}, {"time": 876, "pitch": 72, "duration": 6, "velocity": 64}, {"time": 744, "pitch": 60, "duration": 6, "velocity": 64}, {"time": 876, "pitch": 58, "duration": 12, "velocity": 64}, {"time": 828, "pitch": 60, "duration": 6, "velocity": 64}, {"time": 912, "pitch": 69, "duration": 3, "velocity": 64}, {"time": 876, "pitch": 70, "duration": 12, "velocity": 64}, {"time": 792, "pitch": 69, "duration": 6, "velocity": 64}, {"time": 762, "pitch": 72, "duration": 6, "velocity": 64}, {"time": 918, "pitch": 60, "duration": 18, "velocity": 64}, {"time": 1110, "pitch": 58, "duration": 12, "velocity": 64}, {"time": 924, "pitch": 65, "duration": 12, "velocity": 64}, {"time": 924, "pitch": 60, "duration": 18, "velocity": 64}, {"time": 960, "pitch": 50, "duration": 6, "velocity": 64}, {"time": 882, "pitch": 62, "duration": 3, "velocity": 64}, {"time": 816, "pitch": 63, "duration": 12, "velocity": 64}, {"time": 1026, "pitch": 74, "duration": 6, "velocity": 64}, {"time": 768, "pitch": 74, "duration": 3, "velocity": 64}, {"time": 984, "pitch": 65, "duration": 3, "velocity": 64}, {"time": 1056, "pitch": 74, "duration": 6, "velocity": 64}, {"time": 1038, "pitch": 72, "duration": 6, "velocity": 64}, {"time": 888, "pitch": 58, "duration": 18, "velocity": 64}, {"time": 936, "pitch": 58, "duration": 6, "velocity": 64}, {"time": 894, "pitch": 70, "duration": 18, "velocity": 64}, {"time": 936, "pitch": 67, "duration": 3, "velocity": 64}, {"time": 984, "pitch": 69, "duration": 6, "velocity": 64}, {"time": 1020, "pitch": 74, "duration": 3, "velocity": 64}, {"time": 1140, "pitch": 57, "duration": 3, "velocity": 64}, {"time": 1080, "pitch": 53, "duration": 6, "velocity": 64}, {"time": 1020, "pitch": 60, "duration": 3, "velocity": 64}, {"time": 1020, "pitch": 55, "duration": 3, "velocity": 64}, {"time": 1104, "pitch": 60, "duration": 6, "velocity": 64}, {"time": 1170, "pitch": 65, "duration": 6, "velocity": 64}, {"time": 864, "pitch": 60, "duration": 3, "velocity": 64}, {"time": 942, "pitch": 69, "duration": 6, "velocity": 64}, {"time": 1002, "pitch": 69, "duration": 6, "velocity": 64}, {"time": 1098, "pitch": 62, "duration": 6, "velocity": 64}, {"time": 1170, "pitch": 60, "duration": 6, "velocity": 64}, {"time": 1284, "pitch": 72, "duration": 12, "velocity": 64}, {"time": 936, "pitch": 67, "duration": 3, "velocity": 64}, {"time": 930, "pitch": 69, "duration": 6, "velocity": 64}, {"time": 1248, "pitch": 67, "duration": 6, "velocity": 64}, {"time": 1290, "pitch": 62, "duration": 6, "velocity": 64}, {"time": 1044, "pitch": 69, "duration": 6, "velocity": 64}, {"time": 942, "pitch": 62, "duration": 6, "velocity": 64}, {"time": 1284, "pitch": 69, "duration": 6, "velocity": 64}, {"time": 930, "pitch": 67, "duration": 12, "velocity": 64}, {"time": 1110, "pitch": 53, "duration": 6, "velocity": 64}, {"time": 1008, "pitch": 74, "duration": 12, "velocity": 64}, {"time": 1092, "pitch": 55, "duration": 6, "velocity": 64}, {"time": 960, "pitch": 60, "duration": 3, "velocity": 64}, {"time": 1158, "pitch": 74, "duration": 6, "velocity": 64}, {"time": 1020, "pitch": 60, "duration": 3, "velocity": 64}, {"time": 1104, "pitch": 74, "duration": 6, "velocity": 64}, {"time": 1266, "pitch": 70, "duration": 6, "velocity": 64}, {"time": 1008, "pitch": 67, "duration": 12, "velocity": 64}, {"time": 1188, "pitch": 72, "duration": 6, "velocity": 64}, {"time": 1098, "pitch": 69, "duration": 12, "velocity": 64}, {"time": 1050, "pitch": 70, "duration": 6, "velocity": 64}, {"time": 1092, "pitch": 70, "duration": 6, "velocity": 64}, {"time": 1290, "pitch": 70, "duration": 3, "velocity": 64}, {"time": 1272, "pitch": 67, "duration": 6, "velocity": 64}, {"time": 1254, "pitch": 69, "duration": 6, "velocity": 64}, {"time": 1326, "pitch": 55, "duration": 6, "velocity": 64}, {"time": 1098, "pitch": 70, "duration": 6, "velocity": 64}, {"time": 1392, "pitch": 74, "duration": 12, "velocity": 64}, {"time": 1308, "pitch": 67, "duration": 12, "velocity": 64}, {"time": 1176, "pitch": 70, "duration": 3, "velocity": 64}, {"time": 1176, "pitch": 72, "duration": 6, "velocity": 64}, {"time": 1476, "pitch": 72, "duration": 12, "velocity": 64}, {"time": 1314, "pitch": 62, "duration": 3, "velocity": 64}, {"time": 1164, "pitch": 50, "duration": 12, "velocity": 64}, {"time": 1260, "pitch": 67, "duration": 12, "velocity": 64}, {"time": 1260, "pitch": 65, "duration": 3, "velocity": 64}, {"time": 1374, "pitch": 60, "duration": 6, "velocity": 64}, {"time": 1134, "pitch": 58, "duration": 6, "velocity": 64}, {"time": 1260, "pitch": 69, "duration": 6, "velocity": 64}, {"time": 1146, "pitch": 55, "duration": 6, "velocity": 64}, {"time": 1290, "pitch": 70, "duration": 6, "velocity": 64}, {"time": 1482, "pitch": 62, "duration": 12, "velocity": 64}, {"time": 1482, "pitch": 69, "duration": 6, "velocity": 64}, {"time": 1350, "pitch": 70, "duration": 3, "velocity": 64}, {"time": 1314, "pitch": 70, "duration": 6, "velocity": 64}, {"time": 1314, "pitch": 74, "duration": 12, "velocity": 64}, {"time": 1080, "pitch": 65, "duration": 12, "velocity": 64}, {"time": 1278, "pitch": 62, "duration": 9, "velocity": 64}, {"time": 1356, "pitch": 65, "duration": 3, "velocity": 64}, {"time": 1548, "pitch": 69, "duration": 3, "velocity": 64}, {"time": 1470, "pitch": 67, "duration": 3, "velocity": 64}, {"time": 1482, "pitch": 70, "duration": 6, "velocity": 64}, {"time": 1512, "pitch": 62, "duration": 3, "velocity": 64}, {"time": 1494, "pitch": 74, "duration": 3, "velocity": 64}, {"time": 1380, "pitch": 67, "duration": 12, "velocity": 64}, {"time": 1332, "pitch": 70, "duration": 3, "velocity": 64}, {"time": 1272, "pitch": 57, "duration": 3, "velocity": 64}, {"time": 1320, "pitch": 60, "duration": 3, "velocity": 64}, {"time": 1296, "pitch": 70, "duration": 6, "velocity": 64}, {"time": 1458, "pitch": 60, "duration": 12, "velocity": 64}, {"time": 1356, "pitch": 60, "duration": 6, "velocity": 64}, {"time": 1326, "pitch": 62, "duration": 3, "velocity": 64}, {"time": 1320, "pitch": 74, "duration": 12, "velocity": 64}, {"time": 1410, "pitch": 64, "duration": 12, "velocity": 64}, {"time": 1308, "pitch": 67, "duration": 18, "velocity": 64}, {"time": 1332, "pitch": 60, "duration": 12, "velocity": 64}, {"time": 1488, "pitch": 57, "duration": 3, "velocity": 64}, {"time": 1398, "pitch": 55, "duration": 12, "velocity": 64}, {"time": 1296, "pitch": 64, "duration": 6, "velocity": 64}, {"time": 1794, "pitch": 57, "duration": 18, "velocity": 64}, {"time": 1506, "pitch": 70, "duration": 3, "velocity": 64}, {"time": 1740, "pitch": 67, "duration": 6, "velocity": 64}, {"time": 1368, "pitch": 62, "duration": 18, "velocity": 64}, {"time": 1326, "pitch": 72, "duration": 3, "velocity": 64}, {"time": 1278, "pitch": 65, "duration": 3, "velocity": 64}, {"time": 1494, "pitch": 62, "duration": 6, "velocity": 64}, {"time": 1776, "pitch": 65, "duration": 3, "velocity": 64}, {"time": 1584, "pitch": 65, "duration": 3, "velocity": 64}, {"time": 1662, "pitch": 74, "duration": 12, "velocity": 64}, {"time": 1350, "pitch": 67, "duration": 6, "velocity": 64}, {"time": 1266, "pitch": 65, "duration": 3, "velocity": 64}, {"time": 1524, "pitch": 69, "duration": 6, "velocity": 64}, {"time": 1524, "pitch": 72, "duration": 6, "velocity": 64}, {"time": 1440, "pitch": 53, "duration": 6, "velocity": 64}, {"time": 1908, "pitch": 57, "duration": 3, "velocity": 64}, {"time": 1854, "pitch": 60, "duration": 12, "velocity": 64}, {"time": 1794, "pitch": 65, "duration": 6, "velocity": 64}, {"time": 1776, "pitch": 72, "duration": 6, "velocity": 64}, {"time": 1854, "pitch": 67, "duration": 12, "velocity": 64}, {"time": 1524, "pitch": 69, "duration": 6, "velocity": 64}, {"time": 1662, "pitch": 60, "duration": 3, "velocity": 64}, {"time": 1908, "pitch": 67, "duration": 12, "velocity": 64}, {"time": 1572, "pitch": 72, "duration": 3, "velocity": 64}, {"time": 1884, "pitch": 65, "duration": 6, "velocity": 64}, {"time": 1794, "pitch": 57, "duration": 6, "velocity": 64}, {"time": 1338, "pitch": 67, "duration": 6, "velocity": 64}, {"time": 2022, "pitch": 72, "duration": 6, "velocity": 64}, {"time": 1548, "pitch": 64, "duration": 3, "velocity": 64}, {"time": 1752, "pitch": 72, "duration": 12, "velocity": 64}, {"time": 1938, "pitch": 55, "duration": 3, "velocity": 64}, {"time": 1926, "pitch": 53, "duration": 6, "velocity": 64}, {"time": 1932, "pitch": 67, "duration": 3, "velocity": 64}, {"time": 1872, "pitch": 65, "duration": 12, "velocity": 64}, {"time": 1512, "pitch": 57, "duration": 3, "velocity": 64}, {"time": 1908, "pitch": 70, "duration": 3, "velocity": 64}, {"time": 1944, "pitch": 74, "duration": 6, "velocity": 64}, {"time": 1884, "pitch": 72, "duration": 12, "velocity": 64}, {"time": 1986, "pitch": 72, "duration": 6, "velocity": 64}, {"time": 2082, "pitch": 69, "duration": 3, "velocity": 64}, {"time": 1890, "pitch": 69, "duration": 6, "velocity": 64}, {"time": 1908, "pitch": 70, "duration": 12, "velocity": 64}, {"time": 2196, "pitch": 69, "duration": 3, "velocity": 64}, {"time": 1776, "pitch": 67, "duration": 6, "velocity": 64}, {"time": 2016, "pitch": 53, "duration": 3, "velocity": 64}, {"time": 2046, "pitch": 74, "duration": 3, "velocity": 64}, {"time": 1950, "pitch": 72, "duration": 6, "velocity": 64}, {"time": 2052, "pitch": 60, "duration": 6, "velocity": 64}, {"time": 1998, "pitch": 70, "duration": 6, "velocity": 64}, {"time": 2028, "pitch": 70, "duration": 3, "velocity": 64}, {"time": 1548, "pitch": 62, "duration": 3, "velocity": 64}, {"time": 2010, "pitch": 67, "duration": 3, "velocity": 64}, {"time": 2034, "pitch": 67, "duration": 6, "velocity": 64}, {"time": 1980, "pitch": 77, "duration": 6, "velocity": 64}, {"time": 1758, "pitch": 70, "duration": 3, "velocity": 64}, {"time": 1854, "pitch": 60, "duration": 3, "velocity": 64}, {"time": 1842, "pitch": 60, "duration": 3, "velocity": 64}, {"time": 2202, "pitch": 77, "duration": 6, "velocity": 64}, {"time": 1794, "pitch": 70, "duration": 6, "velocity": 64}, {"time": 2004, "pitch": 69, "duration": 6, "velocity": 64}, {"time": 1776, "pitch": 67, "duration": 6, "velocity": 64}, {"time": 1896, "pitch": 58, "duration": 18, "velocity": 64}, {"time": 2022, "pitch": 77, "duration": 18, "velocity": 64}, {"time": 1920, "pitch": 70, "duration": 6, "velocity": 64}, {"time": 1782, "pitch": 74, "duration": 18, "velocity": 64}, {"time": 2130, "pitch": 65, "duration": 6, "velocity": 64}, {"time": 2052, "pitch": 67, "duration": 6, "velocity": 64}, {"time": 2052, "pitch": 74, "duration": 6, "velocity": 64}, {"time": 2016, "pitch": 65, "duration": 6, "velocity": 64}, {"time": 2202, "pitch": 70, "duration": 6, "velocity": 64}, {"time": 2268, "pitch": 65, "duration": 12, "velocity": 64}, {"time": 1944, "pitch": 74, "duration": 3, "velocity": 64}, {"time": 1986, "pitch": 72, "duration": 3, "velocity": 64}, {"time": 2040, "pitch": 58, "duration": 3, "velocity": 64}, {"time": 1932, "pitch": 58, "duration": 3, "velocity": 64}, {"time": 2328, "pitch": 70, "duration": 12, "velocity": 64}, {"time": 1836, "pitch": 74, "duration": 6, "velocity": 64}, {"time": 1956, "pitch": 69, "duration": 18, "velocity": 64}, {"time": 2028, "pitch": 69, "duration": 6, "velocity": 64}, {"time": 1944, "pitch": 77, "duration": 3, "velocity": 64}, {"time": 1974, "pitch": 53, "duration": 3, "velocity": 64}, {"time": 1836, "pitch": 60, "duration": 6, "velocity": 64}, {"time": 1848, "pitch": 62, "duration": 6, "velocity": 64}, {"time": 1992, "pitch": 67, "duration": 3, "velocity": 64}, {"time": 1920, "pitch": 65, "duration": 12, "velocity": 64}, {"time": 2058, "pitch": 55, "duration": 18, "velocity": 64}, {"time": 2292, "pitch": 70, "duration": 6, "velocity": 64}, {"time": 2232, "pitch": 67, "duration": 3, "velocity": 64}, {"time": 2292, "pitch": 67, "duration": 6, "velocity": 64}, {"time": 2064, "pitch": 58, "duration": 3, "velocity": 64}, {"time": 1884, "pitch": 60, "duration": 6, "velocity": 64}, {"time": 2298, "pitch": 74, "duration": 3, "velocity": 64}, {"time": 1926, "pitch": 74, "duration": 3, "velocity": 64}, {"time": 1932, "pitch": 70, "duration": 18, "velocity": 64}, {"time": 2172, "pitch": 74, "duration": 6, "velocity": 64}, {"time": 2304, "pitch": 69, "duration": 6, "velocity": 64}, {"time": 2064, "pitch": 53, "duration": 12, "velocity": 64}, {"time": 2232, "pitch": 62, "duration": 6, "velocity": 64}, {"time": 1896, "pitch": 69, "duration": 12, "velocity": 64}, {"time": 2034, "pitch": 60, "duration": 12, "velocity": 64}, {"time": 1914, "pitch": 69, "duration": 6, "velocity": 64}, {"time": 2244, "pitch": 67, "duration": 12, "velocity": 64}, {"time": 2028, "pitch": 53, "duration": 3, "velocity": 64}, {"time": 2190, "pitch": 53, "duration": 12, "velocity": 64}, {"time": 2334, "pitch": 62, "duration": 6, "velocity": 64}, {"time": 2274, "pitch": 72, "duration": 3, "velocity": 64}, {"time": 2388, "pitch": 53, "duration": 6, "velocity": 64}, {"time": 2064, "pitch": 65, "duration": 12, "velocity": 64}, {"time": 2388, "pitch": 53, "duration": 6, "velocity": 64}, {"time": 1890, "pitch": 74, "duration": 6, "velocity": 64}, {"time": 2184, "pitch": 70, "duration": 12, "velocity": 64}, {"time": 2292, "pitch": 65, "duration": 6, "velocity": 64}, {"time": 1884, "pitch": 63, "duration": 3, "velocity": 64}, {"time": 2280, "pitch": 67, "duration": 18, "velocity": 64}, {"time": 2250, "pitch": 58, "duration": 3, "velocity": 64}, {"time": 2202, "pitch": 67, "duration": 12, "velocity": 64}, {"time": 2382, "pitch": 69, "duration": 6, "velocity": 64}, {"time": 2250, "pitch": 70, "duration": 6, "velocity": 64}, {"time": 1908, "pitch": 74, "duration": 6, "velocity": 64}, {"time": 2466, "pitch": 72, "duration": 12, "velocity": 64}, {"time": 2058, "pitch": 60, "duration": 3, "velocity": 64}, {"time": 2274, "pitch": 60, "duration": 6, "velocity": 64}, {"time": 2352, "pitch": 65, "duration": 6, "velocity": 64}, {"time": 2220, "pitch": 60, "duration": 18, "velocity": 64}, {"time": 2028, "pitch": 74, "duration": 3, "velocity": 64}, {"time": 2076, "pitch": 77, "duration": 3, "velocity": 64}, {"time": 2076, "pitch": 65, "duration": 3, "velocity": 64}, {"time": 1992, "pitch": 65, "duration": 12, "velocity": 64}, {"time": 1920, "pitch": 77, "duration": 3, "velocity": 64}]}]}