{"metadata": {"schema_version": "0.2"}, "resolution": 12, "tempos": [{"time": 0, "qpm": 100.0}], "tracks": [{"program": 74, "is_drum": false, "notes": [{"time": 0, "pitch": 65, "duration": 6, "velocity": 64}, {"time": 0, "pitch": 58, "duration": 3, "velocity": 64}, {"time": 6, "pitch": 67, "duration": 3, "velocity": 64}, {"time": 18, "pitch": 74, "duration": 3, "velocity": 64}, {"time": 12, "pitch": 60, "duration": 3, "velocity": 64}, {"time": 24, "pitch": 74, "duration": 3, "velocity": 64}, {"time": 24, "pitch": 65, "duration": 3, "velocity": 64}, {"time": 18, "pitch": 58, "duration": 9, "velocity": 64}, {"time": 48, "pitch": 46, "duration": 6, "velocity": 64}, {"time": 24, "pitch": 53, "duration": 3, "velocity": 64}, {"time": 36, "pitch": 53, "duration": 3, "velocity": 64}, {"time": 36, "pitch": 65, "duration": 3, "velocity": 64}, {"time": 39, "pitch": 65, "duration": 1, "velocity": 64}, {"time": 36, "pitch": 74, "duration": 3, "velocity": 64}, {"time": 51, "pitch": 65, "duration": 2, "velocity": 64}, {"time": 66, "pitch": 69, "duration": 3, "velocity": 64}, {"time": 78, "pitch": 60, "duration": 3, "velocity": 64}, {"time": 60, "pitch": 58, "duration": 3, "velocity": 64}, {"time": 132, "pitch": 70, "duration": 1, "velocity": 64}, {"time": 84, "pitch": 72, "duration": 3, "velocity": 64}, {"time": 75, "pitch": 55, "duration": 3, "velocity": 64}, {"time": 126, "pitch": 65, "duration": 3, "velocity": 64}, {"time": 72, "pitch": 55, "duration": 1, "velocity": 64}, {"time": 150, "pitch": 72, "duration": 3, "velocity": 64}, {"time": 162, "pitch": 55, "duration": 3, "velocity": 64}, {"time": 90, "pitch": 74, "duration": 3, "velocity": 64}, {"time": 72, "pitch": 67, "duration": 3, "velocity": 64}, {"time": 222, "pitch": 65, "duration": 3, "velocity": 64}, {"time": 162, "pitch": 62, "duration": 3, "velocity": 64}, {"time": 150, "pitch": 72, "duration": 3, "velocity": 64}, {"time": 147, "pitch": 53, "duration": 3, "velocity": 64}, {"time": 210, "pitch": 69, "duration": 3, "velocity": 64}, {"time": 210, "pitch": 65, "duration": 6, "velocity": 64}, {"time": 228, "pitch": 53, "duration": 3, "velocity": 64}, {"time": 276, "pitch": 74, "duration": 3, "velocity": 64}, {"time": 168, "pitch": 58, "duration": 3, "velocity": 64}, {"time": 132, "pitch": 55, "duration": 3, "velocity": 64}, {"time": 174, "pitch": 62, "duration": 3, "velocity": 64}, {"time": 234, "pitch": 58, "duration": 2, "velocity": 64}, {"time": 180, "pitch": 58, "duration": 3, "velocity": 64}, {"time": 150, "pitch": 77, "duration": 6, "velocity": 64}, {"time": 252, "pitch": 62, "duration": 6, "velocity": 64}, {"time": 240, "pitch": 69, "duration": 2, "velocity": 64}, {"time": 198, "pitch": 53, "duration": 3, "velocity": 64}, {"time": 210, "pitch": 72, "duration": 6, "velocity": 64}, {"time": 204, "pitch": 67, "duration": 3, "velocity": 64}, {"time": 210, "pitch": 65, "duration": 6, "velocity": 64}, {"time": 216, "pitch": 67, "duration": 6, "velocity": 64}, {"time": 318, "pitch": 72, "duration": 3, "velocity": 64}, {"time": 216, "pitch": 74, "duration": 3, "velocity": 64}, {"time": 222, "pitch": 72, "duration": 12, "velocity": 64}, {"time": 174, "pitch": 58, "duration": 6, "velocity": 64}, {"time": 198, "pitch": 69, "duration": 3, "velocity": 64}, {"time": 336, "pitch": 60, "duration": 9, "velocity": 64}, {"time": 246, "pitch": 53, "duration": 3, "velocity": 64}, {"time": 294, "pitch": 62, "duration": 6, "velocity": 64}, {"time": 210, "pitch": 60, "duration": 6, "velocity": 64}, {"time": 306, "pitch": 69, "duration": 3, "velocity": 64}, {"time": 228, "pitch": 77, "duration": 6, "velocity": 64}, {"time": 414, "pitch": 70, "duration": 3, "velocity": 64}, {"time": 276, "pitch": 65, "duration": 6, "velocity": 64}, {"time": 432, "pitch": 46, "duration": 3, "velocity": 64}, {"time": 306, "pitch": 58, "duration": 3, "velocity": 64}, {"time": 330, "pitch": 69, "duration": 6, "velocity": 64}, {"time": 186, "pitch": 67, "duration": 3, "velocity": 64}, {"time": 429, "pitch": 67, "duration": 3, "velocity": 64}, {"time": 243, "pitch": 60, "duration": 3, "velocity": 64}, {"time": 462, "pitch": 53, "duration": 3, "velocity": 64}, {"time": 282, "pitch": 69, "duration": 12, "velocity": 64}, {"time": 396, "pitch": 55, "duration": 3, "velocity": 64}, {"time": 252, "pitch": 58, "duration": 3, "velocity": 64}, {"time": 450, "pitch": 58, "duration": 2, "velocity": 64}, {"time": 303, "pitch": 60, "duration": 3, "velocity": 64}, {"time": 360, "pitch": 58, "duration": 6, "velocity": 64}, {"time": 258, "pitch": 58, "duration": 6, "velocity": 64}, {"time": 486, "pitch": 65, "duration": 3, "velocity": 64}, {"time": 432, "pitch": 75, "duration": 3, "velocity": 64}, {"time": 282, "pitch": 58, "duration": 6, "velocity": 64}, {"time": 480, "pitch": 58, "duration": 3, "velocity": 64}, {"time": 228, "pitch": 70, "duration": 6, "velocity": 64}, {"time": 315, "pitch": 65, "duration": 6, "velocity": 64}, {"time": 462, "pitch": 75, "duration": 3, "velocity": 64}, {"time": 495, "pitch": 74, "duration": 3, "velocity": 64}, {"time": 411, "pitch": 60, "duration": 3, "velocity": 64}, {"time": 414, "pitch": 58, "duration": 3, "velocity": 64}, {"time": 414, "pitch": 65, "duration": 3, "velocity": 64}, {"time": 387, "pitch": 70, "duration": 3, "velocity": 64}, {"time": 300, "pitch": 65, "duration": 3, "velocity": 64}, {"time": 324, "pitch": 63, "duration": 3, "velocity": 64}, {"time": 492, "pitch": 65, "duration": 3, "velocity": 64}, {"time": 564, "pitch": 53, "duration": 3, "velocity": 64}, {"time": 516, "pitch": 72, "duration": 3, "velocity": 64}, {"time": 528, "pitch": 67, "duration": 6, "velocity": 64}, {"time": 396, "pitch": 65, "duration": 6, "velocity": 64}, {"time": 492, "pitch": 55, "duration": 3, "velocity": 64}, {"time": 546, "pitch": 70, "duration": 6, "velocity": 64}, {"time": 444, "pitch": 58, "duration": 3, "velocity": 64}, {"time": 408, "pitch": 74, "duration": 6, "velocity": 64}, {"time": 570, "pitch": 72, "duration": 6, "velocity": 64}, {"time": 642, "pitch": 58, "duration": 6, "velocity": 64}, {"time": 507, "pitch": 72, "duration": 3, "velocity": 64}, {"time": 648, "pitch": 72, "duration": 3, "velocity": 64}, {"time": 414, "pitch": 53, "duration": 3, "velocity": 64}, {"time": 420, "pitch": 75, "duration": 6, "velocity": 64}, {"time": 552, "pitch": 72, "duration": 3, "velocity": 64}, {"time": 498, "pitch": 69, "duration": 3, "velocity": 64}, {"time": 612, "pitch": 53, "duration": 6, "velocity": 64}, {"time": 372, "pitch": 75, "duration": 1, "velocity": 64}, {"time": 438, "pitch": 77, "duration": 3, "velocity": 64}, {"time": 528, "pitch": 60, "duration": 2, "velocity": 64}, {"time": 558, "pitch": 62, "duration": 3, "velocity": 64}, {"time": 462, "pitch": 67, "duration": 6, "velocity": 64}, {"time": 552, "pitch": 55, "duration": 6, "velocity": 64}, {"time": 498, "pitch": 62, "duration": 3, "velocity": 64}, {"time": 498, "pitch": 77, "duration": 6, "velocity": 64}, {"time": 498, "pitch": 60, "duration": 3, "velocity": 64}, {"time": 684, "pitch": 74, "duration": 3, "velocity": 64}, {"time": 492, "pitch": 77, "duration": 3, "velocity": 64}, {"time": 510, "pitch": 60, "duration": 3, "velocity": 64}, {"time": 564, "pitch": 70, "duration": 3, "velocity": 64}, {"time": 528, "pitch": 67, "duration": 2, "velocity": 64}]}]}