{"metadata": {"schema_version": "0.2"}, "resolution": 12, "tempos": [{"time": 0, "qpm": 100.0}], "tracks": [{"program": 41, "is_drum": false, "notes": [{"time": 6, "pitch": 70, "duration": 2, "velocity": 64}, {"time": 8, "pitch": 67, "duration": 1, "velocity": 64}, {"time": 9, "pitch": 66, "duration": 6, "velocity": 64}, {"time": 15, "pitch": 67, "duration": 6, "velocity": 64}, {"time": 21, "pitch": 62, "duration": 3, "velocity": 64}, {"time": 24, "pitch": 55, "duration": 2, "velocity": 64}, {"time": 26, "pitch": 58, "duration": 1, "velocity": 64}, {"time": 27, "pitch": 62, "duration": 3, "velocity": 64}, {"time": 30, "pitch": 60, "duration": 3, "velocity": 64}, {"time": 33, "pitch": 58, "duration": 3, "velocity": 64}, {"time": 36, "pitch": 57, "duration": 2, "velocity": 64}, {"time": 38, "pitch": 58, "duration": 1, "velocity": 64}, {"time": 39, "pitch": 55, "duration": 3, "velocity": 64}, {"time": 45, "pitch": 58, "duration": 1, "velocity": 64}, {"time": 46, "pitch": 60, "duration": 2, "velocity": 64}, {"time": 48, "pitch": 57, "duration": 3, "velocity": 64}, {"time": 54, "pitch": 60, "duration": 2, "velocity": 64}, {"time": 56, "pitch": 62, "duration": 1, "velocity": 64}, {"time": 57, "pitch": 58, "duration": 3, "velocity": 64}, {"time": 60, "pitch": 63, "duration": 3, "velocity": 64}, {"time": 63, "pitch": 62, "duration": 3, "velocity": 64}, {"time": 66, "pitch": 60, "duration": 3, "velocity": 64}, {"time": 69, "pitch": 58, "duration": 3, "velocity": 64}, {"time": 72, "pitch": 57, "duration": 3, "velocity": 64}, {"time": 75, "pitch": 55, "duration": 3, "velocity": 64}, {"time": 78, "pitch": 54, "duration": 3, "velocity": 64}, {"time": 81, "pitch": 54, "duration": 1, "velocity": 64}, {"time": 82, "pitch": 55, "duration": 2, "velocity": 64}, {"time": 84, "pitch": 57, "duration": 3, "velocity": 64}, {"time": 87, "pitch": 50, "duration": 6, "velocity": 64}, {"time": 96, "pitch": 62, "duration": 3, "velocity": 64}, {"time": 99, "pitch": 60, "duration": 1, "velocity": 64}, {"time": 100, "pitch": 58, "duration": 2, "velocity": 64}, {"time": 102, "pitch": 57, "duration": 2, "velocity": 64}, {"time": 104, "pitch": 60, "duration": 1, "velocity": 64}, {"time": 105, "pitch": 58, "duration": 1, "velocity": 64}, {"time": 106, "pitch": 62, "duration": 2, "velocity": 64}, {"time": 108, "pitch": 64, "duration": 2, "velocity": 64}, {"time": 110, "pitch": 66, "duration": 1, "velocity": 64}, {"time": 111, "pitch": 67, "duration": 1, "velocity": 64}, {"time": 112, "pitch": 69, "duration": 2, "velocity": 64}, {"time": 114, "pitch": 70, "duration": 2, "velocity": 64}, {"time": 116, "pitch": 67, "duration": 1, "velocity": 64}, {"time": 117, "pitch": 66, "duration": 6, "velocity": 64}, {"time": 123, "pitch": 67, "duration": 6, "velocity": 64}, {"time": 129, "pitch": 62, "duration": 3, "velocity": 64}, {"time": 132, "pitch": 55, "duration": 2, "velocity": 64}, {"time": 134, "pitch": 58, "duration": 1, "velocity": 64}, {"time": 135, "pitch": 62, "duration": 3, "velocity": 64}, {"time": 138, "pitch": 60, "duration": 3, "velocity": 64}, {"time": 141, "pitch": 58, "duration": 3, "velocity": 64}, {"time": 144, "pitch": 57, "duration": 2, "velocity": 64}, {"time": 146, "pitch": 58, "duration": 1, "velocity": 64}, {"time": 147, "pitch": 55, "duration": 3, "velocity": 64}, {"time": 153, "pitch": 58, "duration": 1, "velocity": 64}, {"time": 154, "pitch": 60, "duration": 2, "velocity": 64}, {"time": 156, "pitch": 57, "duration": 3, "velocity": 64}, {"time": 162, "pitch": 60, "duration": 2, "velocity": 64}, {"time": 164, "pitch": 62, "duration": 1, "velocity": 64}, {"time": 165, "pitch": 58, "duration": 3, "velocity": 64}, {"time": 168, "pitch": 63, "duration": 3, "velocity": 64}, {"time": 171, "pitch": 62, "duration": 3, "velocity": 64}, {"time": 174, "pitch": 60, "duration": 3, "velocity": 64}, {"time": 177, "pitch": 58, "duration": 3, "velocity": 64}, {"time": 180, "pitch": 57, "duration": 3, "velocity": 64}, {"time": 183, "pitch": 55, "duration": 3, "velocity": 64}, {"time": 186, "pitch": 54, "duration": 2, "velocity": 64}, {"time": 188, "pitch": 60, "duration": 1, "velocity": 64}, {"time": 189, "pitch": 58, "duration": 1, "velocity": 64}, {"time": 190, "pitch": 57, "duration": 2, "velocity": 64}, {"time": 192, "pitch": 55, "duration": 2, "velocity": 64}, {"time": 194, "pitch": 54, "duration": 1, "velocity": 64}, {"time": 195, "pitch": 55, "duration": 3, "velocity": 64}, {"time": 198, "pitch": 60, "duration": 4, "velocity": 64}, {"time": 202, "pitch": 62, "duration": 1, "velocity": 64}, {"time": 203, "pitch": 63, "duration": 1, "velocity": 64}, {"time": 204, "pitch": 62, "duration": 3, "velocity": 64}, {"time": 207, "pitch": 62, "duration": 1, "velocity": 64}, {"time": 208, "pitch": 60, "duration": 2, "velocity": 64}, {"time": 210, "pitch": 58, "duration": 2, "velocity": 64}, {"time": 212, "pitch": 57, "duration": 1, "velocity": 64}, {"time": 213, "pitch": 55, "duration": 3, "velocity": 64}, {"time": 222, "pitch": 66, "duration": 3, "velocity": 64}, {"time": 225, "pitch": 67, "duration": 1, "velocity": 64}, {"time": 226, "pitch": 66, "duration": 2, "velocity": 64}, {"time": 228, "pitch": 67, "duration": 2, "velocity": 64}, {"time": 230, "pitch": 69, "duration": 1, "velocity": 64}, {"time": 230, "pitch": 69, "duration": 1, "velocity": 64}, {"time": 231, "pitch": 70, "duration": 6, "velocity": 64}, {"time": 237, "pitch": 67, "duration": 3, "velocity": 64}, {"time": 240, "pitch": 69, "duration": 3, "velocity": 64}, {"time": 243, "pitch": 62, "duration": 3, "velocity": 64}, {"time": 246, "pitch": 62, "duration": 3, "velocity": 64}, {"time": 249, "pitch": 67, "duration": 3, "velocity": 64}, {"time": 252, "pitch": 60, "duration": 3, "velocity": 64}, {"time": 255, "pitch": 60, "duration": 3, "velocity": 64}, {"time": 258, "pitch": 65, "duration": 6, "velocity": 64}, {"time": 267, "pitch": 63, "duration": 6, "velocity": 64}, {"time": 276, "pitch": 62, "duration": 2, "velocity": 64}, {"time": 278, "pitch": 65, "duration": 1, "velocity": 64}, {"time": 279, "pitch": 63, "duration": 1, "velocity": 64}, {"time": 280, "pitch": 62, "duration": 2, "velocity": 64}, {"time": 282, "pitch": 60, "duration": 2, "velocity": 64}, {"time": 284, "pitch": 58, "duration": 1, "velocity": 64}, {"time": 285, "pitch": 60, "duration": 1, "velocity": 64}, {"time": 286, "pitch": 63, "duration": 2, "velocity": 64}, {"time": 288, "pitch": 62, "duration": 2, "velocity": 64}, {"time": 290, "pitch": 60, "duration": 1, "velocity": 64}, {"time": 291, "pitch": 58, "duration": 1, "velocity": 64}, {"time": 292, "pitch": 57, "duration": 2, "velocity": 64}, {"time": 294, "pitch": 58, "duration": 2, "velocity": 64}, {"time": 296, "pitch": 62, "duration": 1, "velocity": 64}, {"time": 297, "pitch": 60, "duration": 1, "velocity": 64}, {"time": 298, "pitch": 58, "duration": 2, "velocity": 64}, {"time": 300, "pitch": 57, "duration": 2, "velocity": 64}, {"time": 302, "pitch": 55, "duration": 1, "velocity": 64}, {"time": 303, "pitch": 53, "duration": 3, "velocity": 64}, {"time": 306, "pitch": 65, "duration": 3, "velocity": 64}, {"time": 309, "pitch": 53, "duration": 3, "velocity": 64}, {"time": 312, "pitch": 62, "duration": 2, "velocity": 64}, {"time": 314, "pitch": 58, "duration": 1, "velocity": 64}, {"time": 315, "pitch": 57, "duration": 1, "velocity": 64}, {"time": 316, "pitch": 58, "duration": 2, "velocity": 64}, {"time": 318, "pitch": 63, "duration": 6, "velocity": 64}, {"time": 324, "pitch": 62, "duration": 2, "velocity": 64}, {"time": 326, "pitch": 60, "duration": 1, "velocity": 64}, {"time": 327, "pitch": 58, "duration": 1, "velocity": 64}, {"time": 328, "pitch": 57, "duration": 2, "velocity": 64}, {"time": 330, "pitch": 58, "duration": 3, "velocity": 64}, {"time": 333, "pitch": 53, "duration": 3, "velocity": 64}, {"time": 336, "pitch": 57, "duration": 3, "velocity": 64}, {"time": 339, "pitch": 58, "duration": 5, "velocity": 64}, {"time": 344, "pitch": 60, "duration": 1, "velocity": 64}, {"time": 345, "pitch": 62, "duration": 1, "velocity": 64}, {"time": 346, "pitch": 63, "duration": 2, "velocity": 64}, {"time": 348, "pitch": 62, "duration": 2, "velocity": 64}, {"time": 350, "pitch": 58, "duration": 1, "velocity": 64}, {"time": 351, "pitch": 57, "duration": 1, "velocity": 64}, {"time": 352, "pitch": 58, "duration": 2, "velocity": 64}, {"time": 354, "pitch": 63, "duration": 6, "velocity": 64}, {"time": 360, "pitch": 62, "duration": 2, "velocity": 64}, {"time": 362, "pitch": 60, "duration": 1, "velocity": 64}, {"time": 363, "pitch": 58, "duration": 1, "velocity": 64}, {"time": 364, "pitch": 57, "duration": 2, "velocity": 64}, {"time": 366, "pitch": 58, "duration": 3, "velocity": 64}, {"time": 369, "pitch": 53, "duration": 3, "velocity": 64}, {"time": 372, "pitch": 57, "duration": 3, "velocity": 64}, {"time": 375, "pitch": 58, "duration": 6, "velocity": 64}, {"time": 384, "pitch": 65, "duration": 3, "velocity": 64}, {"time": 387, "pitch": 63, "duration": 1, "velocity": 64}, {"time": 388, "pitch": 62, "duration": 2, "velocity": 64}, {"time": 390, "pitch": 63, "duration": 3, "velocity": 64}, {"time": 393, "pitch": 62, "duration": 3, "velocity": 64}, {"time": 396, "pitch": 62, "duration": 3, "velocity": 64}, {"time": 399, "pitch": 70, "duration": 3, "velocity": 64}, {"time": 402, "pitch": 69, "duration": 3, "velocity": 64}, {"time": 405, "pitch": 67, "duration": 1, "velocity": 64}, {"time": 406, "pitch": 66, "duration": 2, "velocity": 64}, {"time": 408, "pitch": 67, "duration": 2, "velocity": 64}, {"time": 410, "pitch": 67, "duration": 1, "velocity": 64}, {"time": 411, "pitch": 66, "duration": 6, "velocity": 64}, {"time": 417, "pitch": 67, "duration": 3, "velocity": 64}, {"time": 420, "pitch": 62, "duration": 3, "velocity": 64}, {"time": 423, "pitch": 63, "duration": 1, "velocity": 64}, {"time": 424, "pitch": 62, "duration": 2, "velocity": 64}, {"time": 426, "pitch": 63, "duration": 2, "velocity": 64}, {"time": 428, "pitch": 60, "duration": 1, "velocity": 64}, {"time": 429, "pitch": 62, "duration": 6, "velocity": 64}, {"time": 438, "pitch": 62, "duration": 6, "velocity": 64}, {"time": 444, "pitch": 60, "duration": 3, "velocity": 64}, {"time": 447, "pitch": 58, "duration": 1, "velocity": 64}, {"time": 448, "pitch": 57, "duration": 2, "velocity": 64}, {"time": 450, "pitch": 55, "duration": 3, "velocity": 64}, {"time": 453, "pitch": 69, "duration": 3, "velocity": 64}, {"time": 456, "pitch": 70, "duration": 2, "velocity": 64}, {"time": 458, "pitch": 67, "duration": 1, "velocity": 64}, {"time": 459, "pitch": 66, "duration": 6, "velocity": 64}, {"time": 465, "pitch": 67, "duration": 6, "velocity": 64}, {"time": 471, "pitch": 62, "duration": 3, "velocity": 64}, {"time": 474, "pitch": 55, "duration": 2, "velocity": 64}, {"time": 476, "pitch": 58, "duration": 1, "velocity": 64}, {"time": 477, "pitch": 62, "duration": 3, "velocity": 64}, {"time": 480, "pitch": 60, "duration": 3, "velocity": 64}, {"time": 483, "pitch": 58, "duration": 3, "velocity": 64}, {"time": 486, "pitch": 57, "duration": 2, "velocity": 64}, {"time": 488, "pitch": 58, "duration": 1, "velocity": 64}, {"time": 489, "pitch": 55, "duration": 3, "velocity": 64}, {"time": 495, "pitch": 58, "duration": 1, "velocity": 64}, {"time": 496, "pitch": 60, "duration": 2, "velocity": 64}, {"time": 498, "pitch": 57, "duration": 3, "velocity": 64}, {"time": 504, "pitch": 60, "duration": 2, "velocity": 64}, {"time": 506, "pitch": 62, "duration": 1, "velocity": 64}, {"time": 507, "pitch": 58, "duration": 3, "velocity": 64}, {"time": 510, "pitch": 63, "duration": 3, "velocity": 64}, {"time": 513, "pitch": 62, "duration": 3, "velocity": 64}, {"time": 516, "pitch": 60, "duration": 3, "velocity": 64}, {"time": 519, "pitch": 58, "duration": 3, "velocity": 64}, {"time": 522, "pitch": 57, "duration": 3, "velocity": 64}, {"time": 525, "pitch": 55, "duration": 3, "velocity": 64}, {"time": 528, "pitch": 54, "duration": 3, "velocity": 64}, {"time": 531, "pitch": 54, "duration": 1, "velocity": 64}, {"time": 532, "pitch": 55, "duration": 2, "velocity": 64}, {"time": 534, "pitch": 57, "duration": 3, "velocity": 64}, {"time": 537, "pitch": 50, "duration": 6, "velocity": 64}, {"time": 546, "pitch": 62, "duration": 3, "velocity": 64}, {"time": 549, "pitch": 60, "duration": 1, "velocity": 64}, {"time": 550, "pitch": 58, "duration": 2, "velocity": 64}, {"time": 552, "pitch": 57, "duration": 2, "velocity": 64}, {"time": 554, "pitch": 60, "duration": 1, "velocity": 64}, {"time": 555, "pitch": 58, "duration": 1, "velocity": 64}, {"time": 556, "pitch": 62, "duration": 2, "velocity": 64}, {"time": 558, "pitch": 64, "duration": 2, "velocity": 64}, {"time": 560, "pitch": 66, "duration": 1, "velocity": 64}, {"time": 561, "pitch": 67, "duration": 1, "velocity": 64}, {"time": 562, "pitch": 69, "duration": 2, "velocity": 64}, {"time": 564, "pitch": 70, "duration": 2, "velocity": 64}, {"time": 566, "pitch": 67, "duration": 1, "velocity": 64}, {"time": 567, "pitch": 66, "duration": 6, "velocity": 64}, {"time": 573, "pitch": 67, "duration": 6, "velocity": 64}, {"time": 579, "pitch": 62, "duration": 3, "velocity": 64}, {"time": 582, "pitch": 55, "duration": 2, "velocity": 64}, {"time": 584, "pitch": 58, "duration": 1, "velocity": 64}, {"time": 585, "pitch": 62, "duration": 3, "velocity": 64}, {"time": 588, "pitch": 60, "duration": 3, "velocity": 64}, {"time": 591, "pitch": 58, "duration": 3, "velocity": 64}, {"time": 594, "pitch": 57, "duration": 2, "velocity": 64}, {"time": 596, "pitch": 58, "duration": 1, "velocity": 64}, {"time": 597, "pitch": 55, "duration": 3, "velocity": 64}, {"time": 603, "pitch": 58, "duration": 1, "velocity": 64}, {"time": 604, "pitch": 60, "duration": 2, "velocity": 64}, {"time": 606, "pitch": 57, "duration": 3, "velocity": 64}, {"time": 612, "pitch": 60, "duration": 2, "velocity": 64}, {"time": 614, "pitch": 62, "duration": 1, "velocity": 64}, {"time": 615, "pitch": 58, "duration": 3, "velocity": 64}, {"time": 618, "pitch": 63, "duration": 3, "velocity": 64}, {"time": 621, "pitch": 62, "duration": 3, "velocity": 64}, {"time": 624, "pitch": 60, "duration": 3, "velocity": 64}, {"time": 627, "pitch": 58, "duration": 3, "velocity": 64}, {"time": 630, "pitch": 57, "duration": 3, "velocity": 64}, {"time": 633, "pitch": 55, "duration": 3, "velocity": 64}, {"time": 636, "pitch": 54, "duration": 2, "velocity": 64}, {"time": 638, "pitch": 60, "duration": 1, "velocity": 64}, {"time": 639, "pitch": 58, "duration": 1, "velocity": 64}, {"time": 640, "pitch": 57, "duration": 2, "velocity": 64}, {"time": 642, "pitch": 55, "duration": 2, "velocity": 64}, {"time": 644, "pitch": 54, "duration": 1, "velocity": 64}, {"time": 645, "pitch": 55, "duration": 3, "velocity": 64}, {"time": 648, "pitch": 60, "duration": 4, "velocity": 64}, {"time": 652, "pitch": 62, "duration": 1, "velocity": 64}, {"time": 653, "pitch": 63, "duration": 1, "velocity": 64}, {"time": 654, "pitch": 62, "duration": 3, "velocity": 64}, {"time": 657, "pitch": 62, "duration": 1, "velocity": 64}, {"time": 658, "pitch": 60, "duration": 2, "velocity": 64}, {"time": 660, "pitch": 58, "duration": 2, "velocity": 64}, {"time": 662, "pitch": 57, "duration": 1, "velocity": 64}, {"time": 663, "pitch": 55, "duration": 6, "velocity": 64}]}]}