{"metadata": {"schema_version": "0.2"}, "resolution": 12, "tempos": [{"time": 0, "qpm": 100.0}], "tracks": [{"program": 42, "is_drum": false, "notes": [{"time": 6, "pitch": 54, "duration": 3, "velocity": 64}, {"time": 3, "pitch": 48, "duration": 6, "velocity": 64}, {"time": 0, "pitch": 45, "duration": 3, "velocity": 64}, {"time": 15, "pitch": 57, "duration": 3, "velocity": 64}, {"time": 24, "pitch": 59, "duration": 6, "velocity": 64}, {"time": 12, "pitch": 59, "duration": 6, "velocity": 64}, {"time": 27, "pitch": 52, "duration": 6, "velocity": 64}, {"time": 39, "pitch": 55, "duration": 3, "velocity": 64}, {"time": 39, "pitch": 55, "duration": 3, "velocity": 64}, {"time": 84, "pitch": 47, "duration": 6, "velocity": 64}, {"time": 36, "pitch": 52, "duration": 6, "velocity": 64}, {"time": 84, "pitch": 47, "duration": 6, "velocity": 64}, {"time": 36, "pitch": 55, "duration": 3, "velocity": 64}, {"time": 39, "pitch": 45, "duration": 2, "velocity": 64}, {"time": 51, "pitch": 55, "duration": 3, "velocity": 64}, {"time": 72, "pitch": 59, "duration": 2, "velocity": 64}, {"time": 72, "pitch": 55, "duration": 3, "velocity": 64}, {"time": 84, "pitch": 50, "duration": 3, "velocity": 64}, {"time": 72, "pitch": 64, "duration": 3, "velocity": 64}, {"time": 87, "pitch": 57, "duration": 3, "velocity": 64}, {"time": 102, "pitch": 57, "duration": 6, "velocity": 64}, {"time": 60, "pitch": 50, "duration": 1, "velocity": 64}, {"time": 78, "pitch": 43, "duration": 3, "velocity": 64}, {"time": 114, "pitch": 62, "duration": 3, "velocity": 64}, {"time": 156, "pitch": 50, "duration": 3, "velocity": 64}, {"time": 78, "pitch": 55, "duration": 3, "velocity": 64}, {"time": 168, "pitch": 62, "duration": 3, "velocity": 64}, {"time": 120, "pitch": 50, "duration": 3, "velocity": 64}, {"time": 204, "pitch": 47, "duration": 3, "velocity": 64}, {"time": 180, "pitch": 62, "duration": 2, "velocity": 64}, {"time": 114, "pitch": 52, "duration": 3, "velocity": 64}, {"time": 96, "pitch": 47, "duration": 6, "velocity": 64}, {"time": 156, "pitch": 55, "duration": 6, "velocity": 64}, {"time": 132, "pitch": 43, "duration": 1, "velocity": 64}, {"time": 84, "pitch": 47, "duration": 3, "velocity": 64}, {"time": 114, "pitch": 55, "duration": 3, "velocity": 64}, {"time": 210, "pitch": 52, "duration": 3, "velocity": 64}, {"time": 114, "pitch": 59, "duration": 3, "velocity": 64}, {"time": 156, "pitch": 50, "duration": 3, "velocity": 64}, {"time": 174, "pitch": 47, "duration": 3, "velocity": 64}, {"time": 156, "pitch": 50, "duration": 6, "velocity": 64}, {"time": 204, "pitch": 47, "duration": 6, "velocity": 64}, {"time": 144, "pitch": 50, "duration": 3, "velocity": 64}, {"time": 270, "pitch": 55, "duration": 2, "velocity": 64}, {"time": 234, "pitch": 50, "duration": 3, "velocity": 64}, {"time": 126, "pitch": 50, "duration": 6, "velocity": 64}, {"time": 270, "pitch": 43, "duration": 3, "velocity": 64}, {"time": 204, "pitch": 59, "duration": 3, "velocity": 64}, {"time": 252, "pitch": 59, "duration": 3, "velocity": 64}, {"time": 108, "pitch": 47, "duration": 3, "velocity": 64}, {"time": 228, "pitch": 52, "duration": 3, "velocity": 64}, {"time": 198, "pitch": 62, "duration": 3, "velocity": 64}, {"time": 264, "pitch": 50, "duration": 3, "velocity": 64}, {"time": 186, "pitch": 54, "duration": 3, "velocity": 64}, {"time": 210, "pitch": 55, "duration": 2, "velocity": 64}, {"time": 258, "pitch": 55, "duration": 3, "velocity": 64}, {"time": 288, "pitch": 50, "duration": 3, "velocity": 64}, {"time": 213, "pitch": 55, "duration": 3, "velocity": 64}, {"time": 192, "pitch": 38, "duration": 3, "velocity": 64}, {"time": 222, "pitch": 52, "duration": 3, "velocity": 64}, {"time": 234, "pitch": 52, "duration": 3, "velocity": 64}, {"time": 300, "pitch": 55, "duration": 3, "velocity": 64}, {"time": 216, "pitch": 45, "duration": 3, "velocity": 64}, {"time": 216, "pitch": 50, "duration": 3, "velocity": 64}, {"time": 246, "pitch": 59, "duration": 1, "velocity": 64}, {"time": 204, "pitch": 47, "duration": 2, "velocity": 64}, {"time": 312, "pitch": 55, "duration": 3, "velocity": 64}, {"time": 258, "pitch": 52, "duration": 3, "velocity": 64}, {"time": 216, "pitch": 45, "duration": 1, "velocity": 64}, {"time": 180, "pitch": 55, "duration": 1, "velocity": 64}, {"time": 246, "pitch": 43, "duration": 1, "velocity": 64}, {"time": 186, "pitch": 45, "duration": 3, "velocity": 64}, {"time": 240, "pitch": 48, "duration": 3, "velocity": 64}, {"time": 261, "pitch": 47, "duration": 3, "velocity": 64}, {"time": 306, "pitch": 62, "duration": 6, "velocity": 64}, {"time": 228, "pitch": 52, "duration": 3, "velocity": 64}, {"time": 261, "pitch": 62, "duration": 6, "velocity": 64}, {"time": 330, "pitch": 50, "duration": 3, "velocity": 64}, {"time": 318, "pitch": 55, "duration": 6, "velocity": 64}, {"time": 405, "pitch": 62, "duration": 3, "velocity": 64}, {"time": 417, "pitch": 55, "duration": 3, "velocity": 64}, {"time": 396, "pitch": 45, "duration": 1, "velocity": 64}, {"time": 345, "pitch": 50, "duration": 3, "velocity": 64}, {"time": 252, "pitch": 57, "duration": 3, "velocity": 64}, {"time": 240, "pitch": 40, "duration": 3, "velocity": 64}, {"time": 441, "pitch": 62, "duration": 3, "velocity": 64}, {"time": 372, "pitch": 43, "duration": 1, "velocity": 64}, {"time": 396, "pitch": 57, "duration": 3, "velocity": 64}, {"time": 357, "pitch": 50, "duration": 3, "velocity": 64}, {"time": 402, "pitch": 52, "duration": 3, "velocity": 64}, {"time": 360, "pitch": 64, "duration": 3, "velocity": 64}, {"time": 240, "pitch": 50, "duration": 1, "velocity": 64}, {"time": 357, "pitch": 50, "duration": 3, "velocity": 64}, {"time": 405, "pitch": 64, "duration": 3, "velocity": 64}, {"time": 264, "pitch": 52, "duration": 1, "velocity": 64}, {"time": 276, "pitch": 38, "duration": 3, "velocity": 64}, {"time": 345, "pitch": 54, "duration": 3, "velocity": 64}, {"time": 477, "pitch": 45, "duration": 3, "velocity": 64}, {"time": 432, "pitch": 45, "duration": 3, "velocity": 64}, {"time": 288, "pitch": 62, "duration": 1, "velocity": 64}, {"time": 345, "pitch": 45, "duration": 1, "velocity": 64}, {"time": 429, "pitch": 45, "duration": 3, "velocity": 64}, {"time": 501, "pitch": 55, "duration": 3, "velocity": 64}, {"time": 393, "pitch": 47, "duration": 1, "velocity": 64}, {"time": 288, "pitch": 57, "duration": 3, "velocity": 64}, {"time": 453, "pitch": 50, "duration": 3, "velocity": 64}, {"time": 405, "pitch": 50, "duration": 3, "velocity": 64}, {"time": 513, "pitch": 52, "duration": 6, "velocity": 64}, {"time": 414, "pitch": 54, "duration": 2, "velocity": 64}, {"time": 432, "pitch": 47, "duration": 6, "velocity": 64}, {"time": 318, "pitch": 52, "duration": 3, "velocity": 64}, {"time": 327, "pitch": 52, "duration": 3, "velocity": 64}, {"time": 360, "pitch": 52, "duration": 3, "velocity": 64}, {"time": 408, "pitch": 55, "duration": 3, "velocity": 64}, {"time": 441, "pitch": 52, "duration": 3, "velocity": 64}, {"time": 444, "pitch": 57, "duration": 1, "velocity": 64}, {"time": 420, "pitch": 40, "duration": 1, "velocity": 64}, {"time": 525, "pitch": 48, "duration": 6, "velocity": 64}, {"time": 465, "pitch": 62, "duration": 1, "velocity": 64}, {"time": 489, "pitch": 47, "duration": 3, "velocity": 64}, {"time": 528, "pitch": 47, "duration": 3, "velocity": 64}, {"time": 516, "pitch": 43, "duration": 2, "velocity": 64}, {"time": 528, "pitch": 55, "duration": 3, "velocity": 64}, {"time": 561, "pitch": 45, "duration": 3, "velocity": 64}, {"time": 390, "pitch": 54, "duration": 1, "velocity": 64}, {"time": 417, "pitch": 48, "duration": 3, "velocity": 64}, {"time": 420, "pitch": 45, "duration": 3, "velocity": 64}, {"time": 537, "pitch": 59, "duration": 3, "velocity": 64}, {"time": 420, "pitch": 38, "duration": 1, "velocity": 64}, {"time": 468, "pitch": 38, "duration": 3, "velocity": 64}, {"time": 405, "pitch": 57, "duration": 1, "velocity": 64}, {"time": 420, "pitch": 59, "duration": 3, "velocity": 64}, {"time": 444, "pitch": 50, "duration": 3, "velocity": 64}, {"time": 393, "pitch": 45, "duration": 3, "velocity": 64}, {"time": 522, "pitch": 47, "duration": 3, "velocity": 64}, {"time": 444, "pitch": 52, "duration": 2, "velocity": 64}, {"time": 396, "pitch": 52, "duration": 1, "velocity": 64}, {"time": 441, "pitch": 52, "duration": 2, "velocity": 64}, {"time": 528, "pitch": 54, "duration": 2, "velocity": 64}, {"time": 444, "pitch": 50, "duration": 3, "velocity": 64}, {"time": 492, "pitch": 62, "duration": 3, "velocity": 64}, {"time": 408, "pitch": 47, "duration": 3, "velocity": 64}, {"time": 471, "pitch": 52, "duration": 3, "velocity": 64}, {"time": 504, "pitch": 62, "duration": 1, "velocity": 64}, {"time": 444, "pitch": 57, "duration": 6, "velocity": 64}, {"time": 612, "pitch": 54, "duration": 2, "velocity": 64}, {"time": 582, "pitch": 55, "duration": 3, "velocity": 64}, {"time": 432, "pitch": 45, "duration": 3, "velocity": 64}, {"time": 537, "pitch": 47, "duration": 1, "velocity": 64}, {"time": 549, "pitch": 47, "duration": 2, "velocity": 64}, {"time": 456, "pitch": 55, "duration": 6, "velocity": 64}, {"time": 540, "pitch": 50, "duration": 2, "velocity": 64}, {"time": 396, "pitch": 57, "duration": 3, "velocity": 64}, {"time": 561, "pitch": 55, "duration": 1, "velocity": 64}, {"time": 558, "pitch": 62, "duration": 1, "velocity": 64}, {"time": 420, "pitch": 43, "duration": 6, "velocity": 64}, {"time": 480, "pitch": 47, "duration": 3, "velocity": 64}, {"time": 456, "pitch": 40, "duration": 3, "velocity": 64}, {"time": 609, "pitch": 55, "duration": 3, "velocity": 64}, {"time": 444, "pitch": 55, "duration": 1, "velocity": 64}, {"time": 648, "pitch": 55, "duration": 2, "velocity": 64}, {"time": 492, "pitch": 54, "duration": 3, "velocity": 64}, {"time": 684, "pitch": 55, "duration": 1, "velocity": 64}, {"time": 585, "pitch": 62, "duration": 3, "velocity": 64}, {"time": 564, "pitch": 52, "duration": 1, "velocity": 64}, {"time": 633, "pitch": 57, "duration": 2, "velocity": 64}, {"time": 516, "pitch": 62, "duration": 3, "velocity": 64}, {"time": 729, "pitch": 48, "duration": 3, "velocity": 64}, {"time": 549, "pitch": 50, "duration": 3, "velocity": 64}, {"time": 600, "pitch": 55, "duration": 1, "velocity": 64}, {"time": 600, "pitch": 48, "duration": 3, "velocity": 64}, {"time": 693, "pitch": 50, "duration": 3, "velocity": 64}, {"time": 513, "pitch": 57, "duration": 1, "velocity": 64}, {"time": 540, "pitch": 47, "duration": 2, "velocity": 64}, {"time": 564, "pitch": 57, "duration": 3, "velocity": 64}, {"time": 459, "pitch": 64, "duration": 3, "velocity": 64}, {"time": 645, "pitch": 49, "duration": 3, "velocity": 64}, {"time": 600, "pitch": 55, "duration": 2, "velocity": 64}, {"time": 648, "pitch": 48, "duration": 6, "velocity": 64}, {"time": 741, "pitch": 62, "duration": 6, "velocity": 64}, {"time": 489, "pitch": 50, "duration": 3, "velocity": 64}, {"time": 489, "pitch": 57, "duration": 3, "velocity": 64}, {"time": 528, "pitch": 54, "duration": 1, "velocity": 64}, {"time": 696, "pitch": 62, "duration": 3, "velocity": 64}, {"time": 501, "pitch": 62, "duration": 2, "velocity": 64}, {"time": 528, "pitch": 45, "duration": 1, "velocity": 64}, {"time": 594, "pitch": 47, "duration": 2, "velocity": 64}, {"time": 597, "pitch": 47, "duration": 6, "velocity": 64}, {"time": 684, "pitch": 57, "duration": 2, "velocity": 64}, {"time": 618, "pitch": 49, "duration": 1, "velocity": 64}, {"time": 588, "pitch": 62, "duration": 3, "velocity": 64}, {"time": 675, "pitch": 59, "duration": 1, "velocity": 64}, {"time": 480, "pitch": 52, "duration": 6, "velocity": 64}, {"time": 609, "pitch": 62, "duration": 3, "velocity": 64}, {"time": 684, "pitch": 71, "duration": 3, "velocity": 64}, {"time": 534, "pitch": 64, "duration": 3, "velocity": 64}, {"time": 612, "pitch": 43, "duration": 3, "velocity": 64}, {"time": 804, "pitch": 43, "duration": 2, "velocity": 64}, {"time": 660, "pitch": 48, "duration": 3, "velocity": 64}, {"time": 657, "pitch": 69, "duration": 3, "velocity": 64}, {"time": 576, "pitch": 62, "duration": 6, "velocity": 64}, {"time": 729, "pitch": 59, "duration": 1, "velocity": 64}, {"time": 696, "pitch": 57, "duration": 3, "velocity": 64}, {"time": 798, "pitch": 52, "duration": 3, "velocity": 64}, {"time": 777, "pitch": 47, "duration": 1, "velocity": 64}, {"time": 657, "pitch": 45, "duration": 3, "velocity": 64}, {"time": 672, "pitch": 55, "duration": 3, "velocity": 64}, {"time": 534, "pitch": 50, "duration": 3, "velocity": 64}, {"time": 618, "pitch": 47, "duration": 1, "velocity": 64}, {"time": 600, "pitch": 54, "duration": 3, "velocity": 64}, {"time": 666, "pitch": 47, "duration": 3, "velocity": 64}, {"time": 750, "pitch": 43, "duration": 3, "velocity": 64}, {"time": 612, "pitch": 50, "duration": 6, "velocity": 64}, {"time": 810, "pitch": 57, "duration": 1, "velocity": 64}, {"time": 612, "pitch": 48, "duration": 2, "velocity": 64}, {"time": 624, "pitch": 54, "duration": 1, "velocity": 64}, {"time": 717, "pitch": 50, "duration": 3, "velocity": 64}, {"time": 642, "pitch": 50, "duration": 3, "velocity": 64}, {"time": 798, "pitch": 54, "duration": 6, "velocity": 64}, {"time": 798, "pitch": 42, "duration": 3, "velocity": 64}, {"time": 888, "pitch": 50, "duration": 6, "velocity": 64}, {"time": 552, "pitch": 50, "duration": 3, "velocity": 64}, {"time": 645, "pitch": 54, "duration": 3, "velocity": 64}, {"time": 669, "pitch": 55, "duration": 3, "velocity": 64}, {"time": 768, "pitch": 50, "duration": 1, "velocity": 64}, {"time": 648, "pitch": 50, "duration": 3, "velocity": 64}, {"time": 960, "pitch": 59, "duration": 3, "velocity": 64}, {"time": 768, "pitch": 45, "duration": 3, "velocity": 64}, {"time": 861, "pitch": 55, "duration": 2, "velocity": 64}, {"time": 840, "pitch": 50, "duration": 3, "velocity": 64}, {"time": 714, "pitch": 45, "duration": 6, "velocity": 64}, {"time": 717, "pitch": 54, "duration": 3, "velocity": 64}, {"time": 840, "pitch": 52, "duration": 3, "velocity": 64}, {"time": 819, "pitch": 57, "duration": 6, "velocity": 64}, {"time": 732, "pitch": 50, "duration": 1, "velocity": 64}, {"time": 909, "pitch": 48, "duration": 1, "velocity": 64}, {"time": 888, "pitch": 50, "duration": 2, "velocity": 64}, {"time": 816, "pitch": 57, "duration": 3, "velocity": 64}, {"time": 756, "pitch": 47, "duration": 3, "velocity": 64}, {"time": 915, "pitch": 49, "duration": 2, "velocity": 64}, {"time": 978, "pitch": 49, "duration": 3, "velocity": 64}, {"time": 708, "pitch": 59, "duration": 1, "velocity": 64}, {"time": 768, "pitch": 55, "duration": 6, "velocity": 64}, {"time": 699, "pitch": 52, "duration": 3, "velocity": 64}, {"time": 864, "pitch": 50, "duration": 3, "velocity": 64}, {"time": 714, "pitch": 52, "duration": 3, "velocity": 64}, {"time": 975, "pitch": 59, "duration": 3, "velocity": 64}, {"time": 936, "pitch": 52, "duration": 3, "velocity": 64}, {"time": 870, "pitch": 59, "duration": 3, "velocity": 64}, {"time": 852, "pitch": 57, "duration": 2, "velocity": 64}, {"time": 849, "pitch": 52, "duration": 2, "velocity": 64}, {"time": 921, "pitch": 59, "duration": 3, "velocity": 64}, {"time": 933, "pitch": 40, "duration": 2, "velocity": 64}, {"time": 708, "pitch": 64, "duration": 3, "velocity": 64}, {"time": 972, "pitch": 54, "duration": 3, "velocity": 64}, {"time": 942, "pitch": 64, "duration": 2, "velocity": 64}, {"time": 873, "pitch": 59, "duration": 3, "velocity": 64}, {"time": 972, "pitch": 64, "duration": 3, "velocity": 64}, {"time": 708, "pitch": 59, "duration": 3, "velocity": 64}, {"time": 954, "pitch": 57, "duration": 3, "velocity": 64}, {"time": 948, "pitch": 59, "duration": 3, "velocity": 64}, {"time": 960, "pitch": 62, "duration": 1, "velocity": 64}, {"time": 915, "pitch": 52, "duration": 3, "velocity": 64}, {"time": 1008, "pitch": 47, "duration": 3, "velocity": 64}, {"time": 1032, "pitch": 48, "duration": 6, "velocity": 64}, {"time": 975, "pitch": 45, "duration": 2, "velocity": 64}, {"time": 1083, "pitch": 57, "duration": 2, "velocity": 64}, {"time": 903, "pitch": 64, "duration": 6, "velocity": 64}, {"time": 912, "pitch": 45, "duration": 1, "velocity": 64}, {"time": 999, "pitch": 54, "duration": 1, "velocity": 64}, {"time": 915, "pitch": 48, "duration": 2, "velocity": 64}, {"time": 885, "pitch": 45, "duration": 3, "velocity": 64}, {"time": 831, "pitch": 42, "duration": 1, "velocity": 64}, {"time": 1026, "pitch": 50, "duration": 6, "velocity": 64}, {"time": 1011, "pitch": 52, "duration": 3, "velocity": 64}, {"time": 984, "pitch": 52, "duration": 1, "velocity": 64}, {"time": 1032, "pitch": 59, "duration": 3, "velocity": 64}, {"time": 963, "pitch": 45, "duration": 2, "velocity": 64}, {"time": 1080, "pitch": 57, "duration": 1, "velocity": 64}, {"time": 900, "pitch": 49, "duration": 1, "velocity": 64}, {"time": 900, "pitch": 55, "duration": 3, "velocity": 64}, {"time": 960, "pitch": 45, "duration": 1, "velocity": 64}, {"time": 924, "pitch": 57, "duration": 3, "velocity": 64}, {"time": 972, "pitch": 50, "duration": 3, "velocity": 64}, {"time": 840, "pitch": 52, "duration": 3, "velocity": 64}, {"time": 1131, "pitch": 50, "duration": 1, "velocity": 64}, {"time": 948, "pitch": 50, "duration": 3, "velocity": 64}, {"time": 891, "pitch": 52, "duration": 1, "velocity": 64}, {"time": 948, "pitch": 48, "duration": 3, "velocity": 64}, {"time": 924, "pitch": 62, "duration": 3, "velocity": 64}, {"time": 1095, "pitch": 52, "duration": 3, "velocity": 64}, {"time": 963, "pitch": 47, "duration": 3, "velocity": 64}, {"time": 864, "pitch": 54, "duration": 1, "velocity": 64}, {"time": 975, "pitch": 43, "duration": 1, "velocity": 64}, {"time": 1131, "pitch": 52, "duration": 3, "velocity": 64}, {"time": 927, "pitch": 52, "duration": 3, "velocity": 64}, {"time": 1065, "pitch": 55, "duration": 1, "velocity": 64}, {"time": 984, "pitch": 57, "duration": 3, "velocity": 64}, {"time": 936, "pitch": 40, "duration": 3, "velocity": 64}, {"time": 963, "pitch": 47, "duration": 3, "velocity": 64}, {"time": 960, "pitch": 54, "duration": 3, "velocity": 64}, {"time": 903, "pitch": 59, "duration": 1, "velocity": 64}, {"time": 915, "pitch": 50, "duration": 1, "velocity": 64}, {"time": 1068, "pitch": 47, "duration": 3, "velocity": 64}, {"time": 1161, "pitch": 55, "duration": 3, "velocity": 64}, {"time": 939, "pitch": 57, "duration": 3, "velocity": 64}, {"time": 1020, "pitch": 45, "duration": 1, "velocity": 64}, {"time": 1188, "pitch": 49, "duration": 3, "velocity": 64}, {"time": 912, "pitch": 62, "duration": 3, "velocity": 64}, {"time": 888, "pitch": 45, "duration": 3, "velocity": 64}, {"time": 1143, "pitch": 57, "duration": 2, "velocity": 64}, {"time": 1092, "pitch": 43, "duration": 3, "velocity": 64}, {"time": 1191, "pitch": 52, "duration": 3, "velocity": 64}, {"time": 924, "pitch": 55, "duration": 3, "velocity": 64}, {"time": 1011, "pitch": 43, "duration": 3, "velocity": 64}, {"time": 912, "pitch": 49, "duration": 3, "velocity": 64}, {"time": 1095, "pitch": 49, "duration": 3, "velocity": 64}, {"time": 1251, "pitch": 52, "duration": 1, "velocity": 64}, {"time": 1011, "pitch": 59, "duration": 2, "velocity": 64}, {"time": 1107, "pitch": 62, "duration": 3, "velocity": 64}, {"time": 1179, "pitch": 64, "duration": 2, "velocity": 64}, {"time": 1176, "pitch": 59, "duration": 2, "velocity": 64}, {"time": 948, "pitch": 55, "duration": 3, "velocity": 64}, {"time": 1041, "pitch": 57, "duration": 1, "velocity": 64}, {"time": 1071, "pitch": 45, "duration": 2, "velocity": 64}, {"time": 888, "pitch": 50, "duration": 3, "velocity": 64}, {"time": 1245, "pitch": 57, "duration": 2, "velocity": 64}, {"time": 1002, "pitch": 43, "duration": 6, "velocity": 64}, {"time": 1188, "pitch": 52, "duration": 3, "velocity": 64}, {"time": 936, "pitch": 59, "duration": 3, "velocity": 64}, {"time": 1035, "pitch": 50, "duration": 1, "velocity": 64}, {"time": 1035, "pitch": 52, "duration": 2, "velocity": 64}, {"time": 972, "pitch": 59, "duration": 3, "velocity": 64}, {"time": 1023, "pitch": 50, "duration": 3, "velocity": 64}, {"time": 1083, "pitch": 55, "duration": 1, "velocity": 64}, {"time": 978, "pitch": 48, "duration": 3, "velocity": 64}, {"time": 996, "pitch": 52, "duration": 3, "velocity": 64}, {"time": 948, "pitch": 50, "duration": 3, "velocity": 64}, {"time": 957, "pitch": 43, "duration": 3, "velocity": 64}, {"time": 1224, "pitch": 59, "duration": 1, "velocity": 64}, {"time": 1155, "pitch": 52, "duration": 3, "velocity": 64}, {"time": 978, "pitch": 54, "duration": 6, "velocity": 64}, {"time": 954, "pitch": 52, "duration": 3, "velocity": 64}, {"time": 936, "pitch": 55, "duration": 3, "velocity": 64}, {"time": 1080, "pitch": 54, "duration": 3, "velocity": 64}, {"time": 1350, "pitch": 62, "duration": 3, "velocity": 64}, {"time": 1212, "pitch": 54, "duration": 3, "velocity": 64}, {"time": 1017, "pitch": 55, "duration": 3, "velocity": 64}, {"time": 1344, "pitch": 57, "duration": 3, "velocity": 64}, {"time": 1179, "pitch": 57, "duration": 2, "velocity": 64}, {"time": 1368, "pitch": 42, "duration": 6, "velocity": 64}, {"time": 1077, "pitch": 57, "duration": 3, "velocity": 64}]}]}