{"metadata": {"schema_version": "0.2"}, "resolution": 12, "tempos": [{"time": 0, "qpm": 100.0}], "tracks": [{"program": 74, "is_drum": false, "notes": [{"time": 0, "pitch": 77, "duration": 2, "velocity": 64}, {"time": 2, "pitch": 79, "duration": 1, "velocity": 64}, {"time": 3, "pitch": 79, "duration": 6, "velocity": 64}, {"time": 9, "pitch": 81, "duration": 3, "velocity": 64}, {"time": 18, "pitch": 82, "duration": 3, "velocity": 64}, {"time": 21, "pitch": 79, "duration": 6, "velocity": 64}, {"time": 27, "pitch": 76, "duration": 1, "velocity": 64}, {"time": 28, "pitch": 77, "duration": 1, "velocity": 64}, {"time": 29, "pitch": 79, "duration": 1, "velocity": 64}, {"time": 30, "pitch": 77, "duration": 1, "velocity": 64}, {"time": 31, "pitch": 76, "duration": 1, "velocity": 64}, {"time": 32, "pitch": 72, "duration": 1, "velocity": 64}, {"time": 32, "pitch": 74, "duration": 1, "velocity": 64}, {"time": 33, "pitch": 79, "duration": 1, "velocity": 64}, {"time": 34, "pitch": 72, "duration": 2, "velocity": 64}, {"time": 36, "pitch": 69, "duration": 3, "velocity": 64}, {"time": 39, "pitch": 77, "duration": 3, "velocity": 64}, {"time": 42, "pitch": 69, "duration": 3, "velocity": 64}, {"time": 45, "pitch": 76, "duration": 3, "velocity": 64}, {"time": 48, "pitch": 79, "duration": 3, "velocity": 64}, {"time": 51, "pitch": 76, "duration": 3, "velocity": 64}, {"time": 54, "pitch": 77, "duration": 3, "velocity": 64}, {"time": 57, "pitch": 81, "duration": 3, "velocity": 64}, {"time": 60, "pitch": 79, "duration": 3, "velocity": 64}, {"time": 63, "pitch": 77, "duration": 1, "velocity": 64}, {"time": 64, "pitch": 69, "duration": 2, "velocity": 64}, {"time": 66, "pitch": 70, "duration": 2, "velocity": 64}, {"time": 68, "pitch": 67, "duration": 1, "velocity": 64}, {"time": 69, "pitch": 69, "duration": 1, "velocity": 64}, {"time": 70, "pitch": 72, "duration": 2, "velocity": 64}, {"time": 72, "pitch": 77, "duration": 2, "velocity": 64}, {"time": 74, "pitch": 79, "duration": 1, "velocity": 64}, {"time": 75, "pitch": 79, "duration": 6, "velocity": 64}, {"time": 81, "pitch": 81, "duration": 3, "velocity": 64}, {"time": 90, "pitch": 82, "duration": 3, "velocity": 64}, {"time": 93, "pitch": 79, "duration": 6, "velocity": 64}, {"time": 99, "pitch": 76, "duration": 1, "velocity": 64}, {"time": 100, "pitch": 77, "duration": 1, "velocity": 64}, {"time": 101, "pitch": 79, "duration": 1, "velocity": 64}, {"time": 102, "pitch": 77, "duration": 1, "velocity": 64}, {"time": 103, "pitch": 76, "duration": 1, "velocity": 64}, {"time": 104, "pitch": 72, "duration": 1, "velocity": 64}, {"time": 104, "pitch": 74, "duration": 1, "velocity": 64}, {"time": 105, "pitch": 79, "duration": 1, "velocity": 64}, {"time": 106, "pitch": 72, "duration": 2, "velocity": 64}, {"time": 108, "pitch": 76, "duration": 1, "velocity": 64}, {"time": 109, "pitch": 77, "duration": 1, "velocity": 64}, {"time": 110, "pitch": 79, "duration": 1, "velocity": 64}, {"time": 111, "pitch": 77, "duration": 1, "velocity": 64}, {"time": 112, "pitch": 79, "duration": 1, "velocity": 64}, {"time": 113, "pitch": 81, "duration": 1, "velocity": 64}, {"time": 114, "pitch": 79, "duration": 1, "velocity": 64}, {"time": 115, "pitch": 81, "duration": 1, "velocity": 64}, {"time": 116, "pitch": 82, "duration": 1, "velocity": 64}, {"time": 117, "pitch": 81, "duration": 1, "velocity": 64}, {"time": 118, "pitch": 82, "duration": 1, "velocity": 64}, {"time": 119, "pitch": 79, "duration": 1, "velocity": 64}, {"time": 120, "pitch": 81, "duration": 1, "velocity": 64}, {"time": 121, "pitch": 82, "duration": 1, "velocity": 64}, {"time": 122, "pitch": 79, "duration": 1, "velocity": 64}, {"time": 123, "pitch": 81, "duration": 1, "velocity": 64}, {"time": 124, "pitch": 79, "duration": 1, "velocity": 64}, {"time": 125, "pitch": 81, "duration": 1, "velocity": 64}, {"time": 126, "pitch": 72, "duration": 3, "velocity": 64}, {"time": 129, "pitch": 74, "duration": 3, "velocity": 64}, {"time": 132, "pitch": 76, "duration": 3, "velocity": 64}, {"time": 135, "pitch": 77, "duration": 3, "velocity": 64}, {"time": 144, "pitch": 76, "duration": 1, "velocity": 64}, {"time": 145, "pitch": 77, "duration": 1, "velocity": 64}, {"time": 146, "pitch": 79, "duration": 1, "velocity": 64}, {"time": 147, "pitch": 77, "duration": 1, "velocity": 64}, {"time": 148, "pitch": 79, "duration": 1, "velocity": 64}, {"time": 149, "pitch": 81, "duration": 1, "velocity": 64}, {"time": 150, "pitch": 74, "duration": 1, "velocity": 64}, {"time": 151, "pitch": 76, "duration": 1, "velocity": 64}, {"time": 152, "pitch": 77, "duration": 1, "velocity": 64}, {"time": 153, "pitch": 76, "duration": 1, "velocity": 64}, {"time": 154, "pitch": 77, "duration": 1, "velocity": 64}, {"time": 155, "pitch": 74, "duration": 1, "velocity": 64}, {"time": 156, "pitch": 76, "duration": 1, "velocity": 64}, {"time": 157, "pitch": 77, "duration": 1, "velocity": 64}, {"time": 158, "pitch": 74, "duration": 1, "velocity": 64}, {"time": 159, "pitch": 76, "duration": 1, "velocity": 64}, {"time": 160, "pitch": 74, "duration": 1, "velocity": 64}, {"time": 161, "pitch": 76, "duration": 1, "velocity": 64}, {"time": 162, "pitch": 77, "duration": 3, "velocity": 64}, {"time": 171, "pitch": 76, "duration": 3, "velocity": 64}, {"time": 180, "pitch": 81, "duration": 2, "velocity": 64}, {"time": 182, "pitch": 79, "duration": 1, "velocity": 64}, {"time": 183, "pitch": 77, "duration": 1, "velocity": 64}, {"time": 184, "pitch": 76, "duration": 2, "velocity": 64}, {"time": 186, "pitch": 74, "duration": 2, "velocity": 64}, {"time": 188, "pitch": 72, "duration": 1, "velocity": 64}, {"time": 189, "pitch": 79, "duration": 1, "velocity": 64}, {"time": 190, "pitch": 77, "duration": 2, "velocity": 64}, {"time": 192, "pitch": 76, "duration": 2, "velocity": 64}, {"time": 194, "pitch": 74, "duration": 1, "velocity": 64}, {"time": 195, "pitch": 72, "duration": 1, "velocity": 64}, {"time": 196, "pitch": 71, "duration": 2, "velocity": 64}, {"time": 198, "pitch": 77, "duration": 2, "velocity": 64}, {"time": 200, "pitch": 76, "duration": 1, "velocity": 64}, {"time": 201, "pitch": 74, "duration": 1, "velocity": 64}, {"time": 202, "pitch": 72, "duration": 2, "velocity": 64}, {"time": 204, "pitch": 77, "duration": 2, "velocity": 64}, {"time": 206, "pitch": 76, "duration": 1, "velocity": 64}, {"time": 207, "pitch": 77, "duration": 5, "velocity": 64}, {"time": 212, "pitch": 74, "duration": 1, "velocity": 64}, {"time": 213, "pitch": 76, "duration": 3, "velocity": 64}, {"time": 216, "pitch": 76, "duration": 2, "velocity": 64}, {"time": 218, "pitch": 77, "duration": 1, "velocity": 64}, {"time": 219, "pitch": 74, "duration": 5, "velocity": 64}, {"time": 224, "pitch": 72, "duration": 1, "velocity": 64}, {"time": 225, "pitch": 72, "duration": 1, "velocity": 64}, {"time": 226, "pitch": 79, "duration": 2, "velocity": 64}, {"time": 228, "pitch": 76, "duration": 2, "velocity": 64}, {"time": 230, "pitch": 79, "duration": 1, "velocity": 64}, {"time": 231, "pitch": 76, "duration": 1, "velocity": 64}, {"time": 232, "pitch": 79, "duration": 2, "velocity": 64}, {"time": 234, "pitch": 84, "duration": 2, "velocity": 64}, {"time": 236, "pitch": 81, "duration": 1, "velocity": 64}, {"time": 236, "pitch": 83, "duration": 1, "velocity": 64}, {"time": 237, "pitch": 79, "duration": 1, "velocity": 64}, {"time": 238, "pitch": 76, "duration": 1, "velocity": 64}, {"time": 238, "pitch": 77, "duration": 1, "velocity": 64}, {"time": 239, "pitch": 74, "duration": 1, "velocity": 64}, {"time": 240, "pitch": 79, "duration": 1, "velocity": 64}, {"time": 241, "pitch": 77, "duration": 1, "velocity": 64}, {"time": 242, "pitch": 74, "duration": 1, "velocity": 64}, {"time": 242, "pitch": 76, "duration": 1, "velocity": 64}, {"time": 243, "pitch": 76, "duration": 1, "velocity": 64}, {"time": 244, "pitch": 79, "duration": 2, "velocity": 64}, {"time": 246, "pitch": 76, "duration": 2, "velocity": 64}, {"time": 248, "pitch": 79, "duration": 1, "velocity": 64}, {"time": 249, "pitch": 76, "duration": 1, "velocity": 64}, {"time": 250, "pitch": 79, "duration": 2, "velocity": 64}, {"time": 252, "pitch": 84, "duration": 2, "velocity": 64}, {"time": 254, "pitch": 72, "duration": 1, "velocity": 64}, {"time": 255, "pitch": 71, "duration": 5, "velocity": 64}, {"time": 260, "pitch": 72, "duration": 1, "velocity": 64}, {"time": 261, "pitch": 72, "duration": 9, "velocity": 64}, {"time": 270, "pitch": 72, "duration": 2, "velocity": 64}, {"time": 272, "pitch": 74, "duration": 1, "velocity": 64}, {"time": 273, "pitch": 74, "duration": 6, "velocity": 64}, {"time": 279, "pitch": 76, "duration": 3, "velocity": 64}, {"time": 288, "pitch": 74, "duration": 2, "velocity": 64}, {"time": 290, "pitch": 76, "duration": 1, "velocity": 64}, {"time": 291, "pitch": 76, "duration": 6, "velocity": 64}, {"time": 297, "pitch": 77, "duration": 1, "velocity": 64}, {"time": 298, "pitch": 79, "duration": 1, "velocity": 64}, {"time": 299, "pitch": 81, "duration": 1, "velocity": 64}, {"time": 300, "pitch": 79, "duration": 1, "velocity": 64}, {"time": 301, "pitch": 77, "duration": 1, "velocity": 64}, {"time": 302, "pitch": 74, "duration": 1, "velocity": 64}, {"time": 302, "pitch": 76, "duration": 1, "velocity": 64}, {"time": 303, "pitch": 81, "duration": 1, "velocity": 64}, {"time": 304, "pitch": 74, "duration": 2, "velocity": 64}, {"time": 306, "pitch": 78, "duration": 3, "velocity": 64}, {"time": 309, "pitch": 74, "duration": 3, "velocity": 64}, {"time": 312, "pitch": 78, "duration": 3, "velocity": 64}, {"time": 315, "pitch": 79, "duration": 1, "velocity": 64}, {"time": 316, "pitch": 74, "duration": 2, "velocity": 64}, {"time": 318, "pitch": 82, "duration": 2, "velocity": 64}, {"time": 320, "pitch": 74, "duration": 1, "velocity": 64}, {"time": 321, "pitch": 84, "duration": 1, "velocity": 64}, {"time": 322, "pitch": 74, "duration": 2, "velocity": 64}, {"time": 324, "pitch": 78, "duration": 3, "velocity": 64}, {"time": 327, "pitch": 74, "duration": 3, "velocity": 64}, {"time": 330, "pitch": 78, "duration": 3, "velocity": 64}, {"time": 333, "pitch": 79, "duration": 1, "velocity": 64}, {"time": 334, "pitch": 74, "duration": 2, "velocity": 64}, {"time": 336, "pitch": 82, "duration": 2, "velocity": 64}, {"time": 338, "pitch": 74, "duration": 1, "velocity": 64}, {"time": 339, "pitch": 79, "duration": 1, "velocity": 64}, {"time": 340, "pitch": 74, "duration": 2, "velocity": 64}, {"time": 342, "pitch": 84, "duration": 2, "velocity": 64}, {"time": 344, "pitch": 82, "duration": 1, "velocity": 64}, {"time": 345, "pitch": 81, "duration": 1, "velocity": 64}, {"time": 346, "pitch": 79, "duration": 2, "velocity": 64}, {"time": 348, "pitch": 78, "duration": 2, "velocity": 64}, {"time": 350, "pitch": 76, "duration": 1, "velocity": 64}, {"time": 351, "pitch": 74, "duration": 1, "velocity": 64}, {"time": 352, "pitch": 76, "duration": 2, "velocity": 64}, {"time": 354, "pitch": 78, "duration": 2, "velocity": 64}, {"time": 356, "pitch": 74, "duration": 1, "velocity": 64}, {"time": 357, "pitch": 79, "duration": 1, "velocity": 64}, {"time": 358, "pitch": 67, "duration": 2, "velocity": 64}, {"time": 360, "pitch": 70, "duration": 2, "velocity": 64}, {"time": 362, "pitch": 72, "duration": 1, "velocity": 64}, {"time": 363, "pitch": 74, "duration": 1, "velocity": 64}, {"time": 364, "pitch": 72, "duration": 2, "velocity": 64}, {"time": 366, "pitch": 74, "duration": 2, "velocity": 64}, {"time": 368, "pitch": 70, "duration": 1, "velocity": 64}, {"time": 369, "pitch": 76, "duration": 1, "velocity": 64}, {"time": 370, "pitch": 74, "duration": 2, "velocity": 64}, {"time": 372, "pitch": 73, "duration": 2, "velocity": 64}, {"time": 374, "pitch": 74, "duration": 1, "velocity": 64}, {"time": 375, "pitch": 73, "duration": 1, "velocity": 64}, {"time": 376, "pitch": 76, "duration": 2, "velocity": 64}, {"time": 378, "pitch": 82, "duration": 2, "velocity": 64}, {"time": 380, "pitch": 81, "duration": 1, "velocity": 64}, {"time": 381, "pitch": 79, "duration": 1, "velocity": 64}, {"time": 382, "pitch": 77, "duration": 2, "velocity": 64}, {"time": 384, "pitch": 76, "duration": 2, "velocity": 64}, {"time": 386, "pitch": 74, "duration": 1, "velocity": 64}, {"time": 387, "pitch": 79, "duration": 5, "velocity": 64}, {"time": 392, "pitch": 81, "duration": 1, "velocity": 64}, {"time": 393, "pitch": 77, "duration": 3, "velocity": 64}, {"time": 396, "pitch": 79, "duration": 2, "velocity": 64}, {"time": 398, "pitch": 79, "duration": 1, "velocity": 64}, {"time": 399, "pitch": 76, "duration": 5, "velocity": 64}, {"time": 404, "pitch": 74, "duration": 1, "velocity": 64}, {"time": 405, "pitch": 74, "duration": 3, "velocity": 64}, {"time": 414, "pitch": 79, "duration": 2, "velocity": 64}, {"time": 416, "pitch": 76, "duration": 1, "velocity": 64}, {"time": 416, "pitch": 77, "duration": 1, "velocity": 64}, {"time": 417, "pitch": 74, "duration": 1, "velocity": 64}, {"time": 418, "pitch": 71, "duration": 1, "velocity": 64}, {"time": 418, "pitch": 72, "duration": 1, "velocity": 64}, {"time": 419, "pitch": 69, "duration": 1, "velocity": 64}, {"time": 420, "pitch": 79, "duration": 1, "velocity": 64}, {"time": 421, "pitch": 77, "duration": 1, "velocity": 64}, {"time": 422, "pitch": 76, "duration": 1, "velocity": 64}, {"time": 422, "pitch": 77, "duration": 1, "velocity": 64}, {"time": 423, "pitch": 76, "duration": 3, "velocity": 64}, {"time": 432, "pitch": 77, "duration": 3, "velocity": 64}, {"time": 435, "pitch": 79, "duration": 3, "velocity": 64}, {"time": 438, "pitch": 81, "duration": 3, "velocity": 64}, {"time": 441, "pitch": 82, "duration": 3, "velocity": 64}, {"time": 450, "pitch": 81, "duration": 1, "velocity": 64}, {"time": 451, "pitch": 82, "duration": 1, "velocity": 64}, {"time": 452, "pitch": 84, "duration": 1, "velocity": 64}, {"time": 453, "pitch": 82, "duration": 1, "velocity": 64}, {"time": 454, "pitch": 84, "duration": 1, "velocity": 64}, {"time": 455, "pitch": 86, "duration": 1, "velocity": 64}, {"time": 456, "pitch": 84, "duration": 1, "velocity": 64}, {"time": 457, "pitch": 86, "duration": 1, "velocity": 64}, {"time": 458, "pitch": 87, "duration": 1, "velocity": 64}, {"time": 459, "pitch": 86, "duration": 1, "velocity": 64}, {"time": 460, "pitch": 87, "duration": 1, "velocity": 64}, {"time": 461, "pitch": 84, "duration": 1, "velocity": 64}, {"time": 462, "pitch": 86, "duration": 1, "velocity": 64}, {"time": 463, "pitch": 87, "duration": 1, "velocity": 64}, {"time": 464, "pitch": 84, "duration": 1, "velocity": 64}, {"time": 465, "pitch": 86, "duration": 1, "velocity": 64}, {"time": 466, "pitch": 84, "duration": 1, "velocity": 64}, {"time": 467, "pitch": 86, "duration": 1, "velocity": 64}, {"time": 468, "pitch": 72, "duration": 1, "velocity": 64}, {"time": 469, "pitch": 74, "duration": 1, "velocity": 64}, {"time": 470, "pitch": 75, "duration": 1, "velocity": 64}, {"time": 471, "pitch": 74, "duration": 1, "velocity": 64}, {"time": 472, "pitch": 76, "duration": 1, "velocity": 64}, {"time": 473, "pitch": 77, "duration": 1, "velocity": 64}, {"time": 474, "pitch": 76, "duration": 1, "velocity": 64}, {"time": 475, "pitch": 77, "duration": 1, "velocity": 64}, {"time": 476, "pitch": 79, "duration": 1, "velocity": 64}, {"time": 477, "pitch": 77, "duration": 1, "velocity": 64}, {"time": 478, "pitch": 79, "duration": 1, "velocity": 64}, {"time": 479, "pitch": 76, "duration": 1, "velocity": 64}, {"time": 480, "pitch": 77, "duration": 1, "velocity": 64}, {"time": 481, "pitch": 79, "duration": 1, "velocity": 64}, {"time": 482, "pitch": 76, "duration": 1, "velocity": 64}, {"time": 483, "pitch": 77, "duration": 1, "velocity": 64}, {"time": 484, "pitch": 76, "duration": 1, "velocity": 64}, {"time": 485, "pitch": 77, "duration": 1, "velocity": 64}, {"time": 486, "pitch": 79, "duration": 2, "velocity": 64}, {"time": 488, "pitch": 77, "duration": 1, "velocity": 64}, {"time": 489, "pitch": 76, "duration": 1, "velocity": 64}, {"time": 490, "pitch": 74, "duration": 2, "velocity": 64}, {"time": 492, "pitch": 72, "duration": 2, "velocity": 64}, {"time": 494, "pitch": 70, "duration": 1, "velocity": 64}, {"time": 495, "pitch": 77, "duration": 1, "velocity": 64}, {"time": 496, "pitch": 76, "duration": 2, "velocity": 64}, {"time": 498, "pitch": 74, "duration": 2, "velocity": 64}, {"time": 500, "pitch": 72, "duration": 1, "velocity": 64}, {"time": 501, "pitch": 70, "duration": 1, "velocity": 64}, {"time": 502, "pitch": 69, "duration": 2, "velocity": 64}, {"time": 504, "pitch": 70, "duration": 3, "velocity": 64}, {"time": 513, "pitch": 69, "duration": 3, "velocity": 64}, {"time": 522, "pitch": 79, "duration": 2, "velocity": 64}, {"time": 524, "pitch": 77, "duration": 1, "velocity": 64}, {"time": 525, "pitch": 82, "duration": 1, "velocity": 64}, {"time": 526, "pitch": 81, "duration": 2, "velocity": 64}, {"time": 528, "pitch": 79, "duration": 2, "velocity": 64}, {"time": 530, "pitch": 77, "duration": 1, "velocity": 64}, {"time": 531, "pitch": 76, "duration": 1, "velocity": 64}, {"time": 532, "pitch": 72, "duration": 2, "velocity": 64}, {"time": 534, "pitch": 74, "duration": 2, "velocity": 64}, {"time": 536, "pitch": 76, "duration": 1, "velocity": 64}, {"time": 537, "pitch": 77, "duration": 3, "velocity": 64}, {"time": 540, "pitch": 77, "duration": 2, "velocity": 64}, {"time": 542, "pitch": 79, "duration": 1, "velocity": 64}, {"time": 543, "pitch": 76, "duration": 5, "velocity": 64}, {"time": 548, "pitch": 77, "duration": 1, "velocity": 64}, {"time": 549, "pitch": 77, "duration": 1, "velocity": 64}, {"time": 550, "pitch": 84, "duration": 2, "velocity": 64}, {"time": 552, "pitch": 81, "duration": 2, "velocity": 64}, {"time": 554, "pitch": 84, "duration": 1, "velocity": 64}, {"time": 555, "pitch": 81, "duration": 1, "velocity": 64}, {"time": 556, "pitch": 84, "duration": 2, "velocity": 64}, {"time": 558, "pitch": 89, "duration": 2, "velocity": 64}, {"time": 560, "pitch": 86, "duration": 1, "velocity": 64}, {"time": 560, "pitch": 88, "duration": 1, "velocity": 64}, {"time": 561, "pitch": 84, "duration": 1, "velocity": 64}, {"time": 562, "pitch": 81, "duration": 1, "velocity": 64}, {"time": 562, "pitch": 82, "duration": 1, "velocity": 64}, {"time": 563, "pitch": 79, "duration": 1, "velocity": 64}, {"time": 564, "pitch": 84, "duration": 1, "velocity": 64}, {"time": 565, "pitch": 82, "duration": 1, "velocity": 64}, {"time": 566, "pitch": 79, "duration": 1, "velocity": 64}, {"time": 566, "pitch": 81, "duration": 1, "velocity": 64}, {"time": 567, "pitch": 81, "duration": 1, "velocity": 64}, {"time": 568, "pitch": 84, "duration": 2, "velocity": 64}, {"time": 570, "pitch": 81, "duration": 2, "velocity": 64}, {"time": 572, "pitch": 84, "duration": 1, "velocity": 64}, {"time": 573, "pitch": 81, "duration": 1, "velocity": 64}, {"time": 574, "pitch": 84, "duration": 2, "velocity": 64}, {"time": 576, "pitch": 89, "duration": 2, "velocity": 64}, {"time": 578, "pitch": 77, "duration": 1, "velocity": 64}, {"time": 579, "pitch": 70, "duration": 3, "velocity": 64}, {"time": 582, "pitch": 72, "duration": 3, "velocity": 64}, {"time": 585, "pitch": 65, "duration": 9, "velocity": 64}]}]}