{"metadata": {"schema_version": "0.2"}, "resolution": 12, "tempos": [{"time": 0, "qpm": 100.0}], "tracks": [{"program": 74, "is_drum": false, "notes": [{"time": 3, "pitch": 50, "duration": 2, "velocity": 64}, {"time": 6, "pitch": 53, "duration": 3, "velocity": 64}, {"time": 6, "pitch": 65, "duration": 6, "velocity": 64}, {"time": 3, "pitch": 65, "duration": 6, "velocity": 64}, {"time": 30, "pitch": 77, "duration": 3, "velocity": 64}, {"time": 30, "pitch": 72, "duration": 3, "velocity": 64}, {"time": 48, "pitch": 58, "duration": 3, "velocity": 64}, {"time": 24, "pitch": 65, "duration": 3, "velocity": 64}, {"time": 21, "pitch": 48, "duration": 3, "velocity": 64}, {"time": 24, "pitch": 48, "duration": 3, "velocity": 64}, {"time": 33, "pitch": 60, "duration": 3, "velocity": 64}, {"time": 27, "pitch": 65, "duration": 3, "velocity": 64}, {"time": 39, "pitch": 65, "duration": 3, "velocity": 64}, {"time": 42, "pitch": 46, "duration": 3, "velocity": 64}, {"time": 66, "pitch": 65, "duration": 3, "velocity": 64}, {"time": 39, "pitch": 70, "duration": 3, "velocity": 64}, {"time": 99, "pitch": 74, "duration": 3, "velocity": 64}, {"time": 75, "pitch": 63, "duration": 1, "velocity": 64}, {"time": 69, "pitch": 46, "duration": 1, "velocity": 64}, {"time": 87, "pitch": 65, "duration": 3, "velocity": 64}, {"time": 39, "pitch": 75, "duration": 3, "velocity": 64}, {"time": 27, "pitch": 74, "duration": 3, "velocity": 64}, {"time": 51, "pitch": 65, "duration": 3, "velocity": 64}, {"time": 27, "pitch": 67, "duration": 3, "velocity": 64}, {"time": 51, "pitch": 55, "duration": 3, "velocity": 64}, {"time": 69, "pitch": 53, "duration": 3, "velocity": 64}, {"time": 87, "pitch": 62, "duration": 3, "velocity": 64}, {"time": 111, "pitch": 75, "duration": 3, "velocity": 64}, {"time": 69, "pitch": 69, "duration": 3, "velocity": 64}, {"time": 111, "pitch": 67, "duration": 6, "velocity": 64}, {"time": 99, "pitch": 58, "duration": 3, "velocity": 64}, {"time": 87, "pitch": 72, "duration": 3, "velocity": 64}, {"time": 303, "pitch": 69, "duration": 3, "velocity": 64}, {"time": 213, "pitch": 60, "duration": 3, "velocity": 64}, {"time": 63, "pitch": 69, "duration": 3, "velocity": 64}, {"time": 105, "pitch": 74, "duration": 2, "velocity": 64}, {"time": 84, "pitch": 60, "duration": 3, "velocity": 64}, {"time": 210, "pitch": 65, "duration": 3, "velocity": 64}, {"time": 120, "pitch": 77, "duration": 3, "velocity": 64}, {"time": 231, "pitch": 77, "duration": 3, "velocity": 64}, {"time": 156, "pitch": 65, "duration": 3, "velocity": 64}, {"time": 150, "pitch": 69, "duration": 3, "velocity": 64}, {"time": 291, "pitch": 74, "duration": 3, "velocity": 64}, {"time": 165, "pitch": 55, "duration": 3, "velocity": 64}, {"time": 114, "pitch": 70, "duration": 3, "velocity": 64}, {"time": 96, "pitch": 65, "duration": 3, "velocity": 64}, {"time": 153, "pitch": 55, "duration": 3, "velocity": 64}, {"time": 294, "pitch": 67, "duration": 3, "velocity": 64}, {"time": 111, "pitch": 53, "duration": 2, "velocity": 64}, {"time": 126, "pitch": 65, "duration": 6, "velocity": 64}, {"time": 168, "pitch": 53, "duration": 6, "velocity": 64}, {"time": 198, "pitch": 72, "duration": 6, "velocity": 64}, {"time": 300, "pitch": 65, "duration": 3, "velocity": 64}, {"time": 210, "pitch": 69, "duration": 3, "velocity": 64}, {"time": 159, "pitch": 67, "duration": 1, "velocity": 64}, {"time": 126, "pitch": 48, "duration": 2, "velocity": 64}, {"time": 174, "pitch": 70, "duration": 3, "velocity": 64}, {"time": 309, "pitch": 67, "duration": 3, "velocity": 64}, {"time": 315, "pitch": 77, "duration": 3, "velocity": 64}, {"time": 219, "pitch": 69, "duration": 6, "velocity": 64}, {"time": 210, "pitch": 69, "duration": 2, "velocity": 64}, {"time": 255, "pitch": 72, "duration": 2, "velocity": 64}, {"time": 288, "pitch": 74, "duration": 6, "velocity": 64}, {"time": 243, "pitch": 67, "duration": 3, "velocity": 64}, {"time": 150, "pitch": 65, "duration": 3, "velocity": 64}, {"time": 186, "pitch": 64, "duration": 3, "velocity": 64}, {"time": 159, "pitch": 77, "duration": 3, "velocity": 64}, {"time": 282, "pitch": 70, "duration": 3, "velocity": 64}, {"time": 330, "pitch": 69, "duration": 6, "velocity": 64}, {"time": 171, "pitch": 53, "duration": 2, "velocity": 64}, {"time": 174, "pitch": 72, "duration": 3, "velocity": 64}, {"time": 291, "pitch": 70, "duration": 6, "velocity": 64}, {"time": 234, "pitch": 72, "duration": 3, "velocity": 64}, {"time": 363, "pitch": 72, "duration": 3, "velocity": 64}, {"time": 351, "pitch": 69, "duration": 2, "velocity": 64}, {"time": 255, "pitch": 70, "duration": 3, "velocity": 64}, {"time": 222, "pitch": 67, "duration": 3, "velocity": 64}, {"time": 291, "pitch": 62, "duration": 3, "velocity": 64}, {"time": 183, "pitch": 62, "duration": 2, "velocity": 64}, {"time": 270, "pitch": 65, "duration": 3, "velocity": 64}, {"time": 267, "pitch": 58, "duration": 3, "velocity": 64}, {"time": 399, "pitch": 67, "duration": 3, "velocity": 64}, {"time": 270, "pitch": 67, "duration": 3, "velocity": 64}, {"time": 282, "pitch": 72, "duration": 3, "velocity": 64}, {"time": 255, "pitch": 72, "duration": 6, "velocity": 64}, {"time": 372, "pitch": 65, "duration": 3, "velocity": 64}, {"time": 342, "pitch": 62, "duration": 6, "velocity": 64}, {"time": 231, "pitch": 70, "duration": 1, "velocity": 64}, {"time": 204, "pitch": 48, "duration": 1, "velocity": 64}, {"time": 306, "pitch": 74, "duration": 3, "velocity": 64}, {"time": 213, "pitch": 74, "duration": 6, "velocity": 64}, {"time": 384, "pitch": 67, "duration": 3, "velocity": 64}, {"time": 363, "pitch": 53, "duration": 6, "velocity": 64}, {"time": 396, "pitch": 70, "duration": 3, "velocity": 64}, {"time": 360, "pitch": 62, "duration": 2, "velocity": 64}, {"time": 264, "pitch": 74, "duration": 3, "velocity": 64}, {"time": 378, "pitch": 53, "duration": 2, "velocity": 64}, {"time": 408, "pitch": 60, "duration": 2, "velocity": 64}, {"time": 240, "pitch": 55, "duration": 3, "velocity": 64}, {"time": 396, "pitch": 69, "duration": 3, "velocity": 64}, {"time": 387, "pitch": 58, "duration": 2, "velocity": 64}, {"time": 318, "pitch": 67, "duration": 2, "velocity": 64}, {"time": 294, "pitch": 53, "duration": 3, "velocity": 64}, {"time": 324, "pitch": 70, "duration": 3, "velocity": 64}, {"time": 411, "pitch": 67, "duration": 3, "velocity": 64}, {"time": 420, "pitch": 65, "duration": 2, "velocity": 64}, {"time": 387, "pitch": 74, "duration": 6, "velocity": 64}, {"time": 216, "pitch": 72, "duration": 3, "velocity": 64}, {"time": 351, "pitch": 55, "duration": 3, "velocity": 64}, {"time": 246, "pitch": 55, "duration": 6, "velocity": 64}, {"time": 270, "pitch": 53, "duration": 3, "velocity": 64}, {"time": 219, "pitch": 48, "duration": 2, "velocity": 64}, {"time": 240, "pitch": 60, "duration": 6, "velocity": 64}, {"time": 234, "pitch": 74, "duration": 2, "velocity": 64}, {"time": 255, "pitch": 60, "duration": 3, "velocity": 64}, {"time": 267, "pitch": 74, "duration": 3, "velocity": 64}, {"time": 420, "pitch": 55, "duration": 2, "velocity": 64}, {"time": 300, "pitch": 65, "duration": 1, "velocity": 64}, {"time": 471, "pitch": 77, "duration": 1, "velocity": 64}, {"time": 300, "pitch": 70, "duration": 3, "velocity": 64}, {"time": 411, "pitch": 53, "duration": 2, "velocity": 64}, {"time": 351, "pitch": 72, "duration": 1, "velocity": 64}, {"time": 267, "pitch": 67, "duration": 3, "velocity": 64}, {"time": 324, "pitch": 67, "duration": 1, "velocity": 64}, {"time": 327, "pitch": 72, "duration": 3, "velocity": 64}, {"time": 336, "pitch": 53, "duration": 6, "velocity": 64}, {"time": 276, "pitch": 67, "duration": 3, "velocity": 64}, {"time": 243, "pitch": 74, "duration": 2, "velocity": 64}, {"time": 399, "pitch": 58, "duration": 3, "velocity": 64}, {"time": 534, "pitch": 58, "duration": 2, "velocity": 64}, {"time": 486, "pitch": 55, "duration": 1, "velocity": 64}, {"time": 471, "pitch": 46, "duration": 3, "velocity": 64}, {"time": 360, "pitch": 70, "duration": 6, "velocity": 64}, {"time": 399, "pitch": 67, "duration": 1, "velocity": 64}, {"time": 363, "pitch": 65, "duration": 1, "velocity": 64}, {"time": 384, "pitch": 72, "duration": 3, "velocity": 64}, {"time": 372, "pitch": 70, "duration": 1, "velocity": 64}, {"time": 303, "pitch": 69, "duration": 3, "velocity": 64}, {"time": 447, "pitch": 48, "duration": 1, "velocity": 64}, {"time": 447, "pitch": 77, "duration": 3, "velocity": 64}, {"time": 384, "pitch": 55, "duration": 1, "velocity": 64}, {"time": 399, "pitch": 72, "duration": 3, "velocity": 64}, {"time": 567, "pitch": 72, "duration": 2, "velocity": 64}, {"time": 294, "pitch": 69, "duration": 1, "velocity": 64}, {"time": 408, "pitch": 74, "duration": 3, "velocity": 64}, {"time": 348, "pitch": 62, "duration": 3, "velocity": 64}, {"time": 426, "pitch": 46, "duration": 2, "velocity": 64}, {"time": 540, "pitch": 65, "duration": 2, "velocity": 64}, {"time": 480, "pitch": 55, "duration": 3, "velocity": 64}, {"time": 372, "pitch": 69, "duration": 3, "velocity": 64}, {"time": 423, "pitch": 72, "duration": 3, "velocity": 64}, {"time": 387, "pitch": 65, "duration": 3, "velocity": 64}, {"time": 564, "pitch": 72, "duration": 3, "velocity": 64}, {"time": 438, "pitch": 58, "duration": 1, "velocity": 64}, {"time": 435, "pitch": 67, "duration": 3, "velocity": 64}, {"time": 468, "pitch": 62, "duration": 1, "velocity": 64}, {"time": 498, "pitch": 67, "duration": 3, "velocity": 64}, {"time": 396, "pitch": 67, "duration": 2, "velocity": 64}, {"time": 426, "pitch": 65, "duration": 1, "velocity": 64}, {"time": 564, "pitch": 65, "duration": 3, "velocity": 64}, {"time": 435, "pitch": 67, "duration": 3, "velocity": 64}, {"time": 531, "pitch": 55, "duration": 1, "velocity": 64}, {"time": 477, "pitch": 53, "duration": 1, "velocity": 64}, {"time": 411, "pitch": 65, "duration": 3, "velocity": 64}, {"time": 486, "pitch": 48, "duration": 3, "velocity": 64}, {"time": 441, "pitch": 74, "duration": 2, "velocity": 64}, {"time": 543, "pitch": 67, "duration": 3, "velocity": 64}, {"time": 348, "pitch": 74, "duration": 2, "velocity": 64}, {"time": 543, "pitch": 53, "duration": 3, "velocity": 64}, {"time": 339, "pitch": 53, "duration": 1, "velocity": 64}, {"time": 360, "pitch": 65, "duration": 2, "velocity": 64}, {"time": 435, "pitch": 48, "duration": 3, "velocity": 64}, {"time": 543, "pitch": 70, "duration": 3, "velocity": 64}, {"time": 549, "pitch": 46, "duration": 1, "velocity": 64}, {"time": 519, "pitch": 55, "duration": 1, "velocity": 64}, {"time": 489, "pitch": 60, "duration": 6, "velocity": 64}, {"time": 456, "pitch": 67, "duration": 2, "velocity": 64}, {"time": 447, "pitch": 72, "duration": 3, "velocity": 64}, {"time": 660, "pitch": 69, "duration": 3, "velocity": 64}, {"time": 417, "pitch": 65, "duration": 2, "velocity": 64}, {"time": 471, "pitch": 53, "duration": 2, "velocity": 64}, {"time": 573, "pitch": 60, "duration": 2, "velocity": 64}, {"time": 579, "pitch": 55, "duration": 3, "velocity": 64}, {"time": 582, "pitch": 67, "duration": 2, "velocity": 64}, {"time": 462, "pitch": 65, "duration": 1, "velocity": 64}, {"time": 525, "pitch": 46, "duration": 2, "velocity": 64}, {"time": 555, "pitch": 69, "duration": 3, "velocity": 64}, {"time": 531, "pitch": 60, "duration": 3, "velocity": 64}, {"time": 507, "pitch": 72, "duration": 3, "velocity": 64}, {"time": 672, "pitch": 70, "duration": 1, "velocity": 64}, {"time": 576, "pitch": 72, "duration": 2, "velocity": 64}, {"time": 834, "pitch": 46, "duration": 3, "velocity": 64}, {"time": 462, "pitch": 60, "duration": 2, "velocity": 64}, {"time": 651, "pitch": 58, "duration": 3, "velocity": 64}, {"time": 354, "pitch": 72, "duration": 1, "velocity": 64}]}]}