{"metadata": {"schema_version": "0.2"}, "resolution": 12, "tempos": [{"time": 0, "qpm": 100.0}], "tracks": [{"program": 74, "is_drum": false, "notes": [{"time": 0, "pitch": 65, "duration": 6, "velocity": 64}, {"time": 0, "pitch": 48, "duration": 5, "velocity": 64}, {"time": 0, "pitch": 65, "duration": 8, "velocity": 64}, {"time": 0, "pitch": 58, "duration": 3, "velocity": 64}, {"time": 12, "pitch": 67, "duration": 6, "velocity": 64}, {"time": 15, "pitch": 48, "duration": 3, "velocity": 64}, {"time": 27, "pitch": 67, "duration": 6, "velocity": 64}, {"time": 36, "pitch": 76, "duration": 3, "velocity": 64}, {"time": 18, "pitch": 70, "duration": 3, "velocity": 64}, {"time": 45, "pitch": 65, "duration": 6, "velocity": 64}, {"time": 48, "pitch": 70, "duration": 6, "velocity": 64}, {"time": 33, "pitch": 76, "duration": 3, "velocity": 64}, {"time": 60, "pitch": 69, "duration": 3, "velocity": 64}, {"time": 30, "pitch": 53, "duration": 1, "velocity": 64}, {"time": 30, "pitch": 70, "duration": 3, "velocity": 64}, {"time": 66, "pitch": 79, "duration": 3, "velocity": 64}, {"time": 66, "pitch": 72, "duration": 3, "velocity": 64}, {"time": 48, "pitch": 77, "duration": 2, "velocity": 64}, {"time": 36, "pitch": 64, "duration": 2, "velocity": 64}, {"time": 84, "pitch": 48, "duration": 3, "velocity": 64}, {"time": 78, "pitch": 48, "duration": 3, "velocity": 64}, {"time": 60, "pitch": 65, "duration": 3, "velocity": 64}, {"time": 36, "pitch": 65, "duration": 6, "velocity": 64}, {"time": 84, "pitch": 70, "duration": 3, "velocity": 64}, {"time": 138, "pitch": 77, "duration": 3, "velocity": 64}, {"time": 96, "pitch": 67, "duration": 3, "velocity": 64}, {"time": 168, "pitch": 55, "duration": 3, "velocity": 64}, {"time": 72, "pitch": 60, "duration": 6, "velocity": 64}, {"time": 150, "pitch": 74, "duration": 6, "velocity": 64}, {"time": 66, "pitch": 72, "duration": 2, "velocity": 64}, {"time": 132, "pitch": 62, "duration": 3, "velocity": 64}, {"time": 144, "pitch": 77, "duration": 3, "velocity": 64}, {"time": 78, "pitch": 79, "duration": 3, "velocity": 64}, {"time": 126, "pitch": 67, "duration": 3, "velocity": 64}, {"time": 126, "pitch": 62, "duration": 3, "velocity": 64}, {"time": 132, "pitch": 74, "duration": 6, "velocity": 64}, {"time": 114, "pitch": 65, "duration": 1, "velocity": 64}, {"time": 132, "pitch": 69, "duration": 3, "velocity": 64}, {"time": 150, "pitch": 62, "duration": 3, "velocity": 64}, {"time": 168, "pitch": 64, "duration": 6, "velocity": 64}, {"time": 228, "pitch": 72, "duration": 3, "velocity": 64}, {"time": 186, "pitch": 70, "duration": 6, "velocity": 64}, {"time": 222, "pitch": 65, "duration": 3, "velocity": 64}, {"time": 234, "pitch": 55, "duration": 6, "velocity": 64}, {"time": 234, "pitch": 70, "duration": 6, "velocity": 64}, {"time": 198, "pitch": 65, "duration": 6, "velocity": 64}, {"time": 198, "pitch": 69, "duration": 2, "velocity": 64}, {"time": 216, "pitch": 74, "duration": 3, "velocity": 64}, {"time": 252, "pitch": 72, "duration": 3, "velocity": 64}, {"time": 300, "pitch": 72, "duration": 3, "velocity": 64}, {"time": 138, "pitch": 72, "duration": 2, "velocity": 64}, {"time": 234, "pitch": 65, "duration": 6, "velocity": 64}, {"time": 234, "pitch": 55, "duration": 2, "velocity": 64}, {"time": 318, "pitch": 60, "duration": 3, "velocity": 64}, {"time": 462, "pitch": 60, "duration": 3, "velocity": 64}, {"time": 402, "pitch": 74, "duration": 3, "velocity": 64}, {"time": 204, "pitch": 60, "duration": 3, "velocity": 64}, {"time": 246, "pitch": 72, "duration": 6, "velocity": 64}, {"time": 222, "pitch": 64, "duration": 6, "velocity": 64}, {"time": 354, "pitch": 55, "duration": 2, "velocity": 64}, {"time": 318, "pitch": 60, "duration": 3, "velocity": 64}, {"time": 276, "pitch": 72, "duration": 6, "velocity": 64}, {"time": 474, "pitch": 65, "duration": 6, "velocity": 64}, {"time": 324, "pitch": 64, "duration": 3, "velocity": 64}, {"time": 252, "pitch": 74, "duration": 6, "velocity": 64}, {"time": 204, "pitch": 53, "duration": 3, "velocity": 64}, {"time": 294, "pitch": 53, "duration": 3, "velocity": 64}, {"time": 294, "pitch": 60, "duration": 2, "velocity": 64}, {"time": 258, "pitch": 74, "duration": 2, "velocity": 64}, {"time": 270, "pitch": 70, "duration": 3, "velocity": 64}, {"time": 480, "pitch": 74, "duration": 6, "velocity": 64}, {"time": 396, "pitch": 70, "duration": 6, "velocity": 64}, {"time": 420, "pitch": 70, "duration": 3, "velocity": 64}, {"time": 276, "pitch": 70, "duration": 3, "velocity": 64}, {"time": 414, "pitch": 67, "duration": 3, "velocity": 64}, {"time": 384, "pitch": 70, "duration": 6, "velocity": 64}, {"time": 360, "pitch": 70, "duration": 3, "velocity": 64}, {"time": 372, "pitch": 67, "duration": 3, "velocity": 64}, {"time": 480, "pitch": 69, "duration": 3, "velocity": 64}, {"time": 318, "pitch": 69, "duration": 6, "velocity": 64}, {"time": 390, "pitch": 60, "duration": 6, "velocity": 64}, {"time": 522, "pitch": 62, "duration": 6, "velocity": 64}, {"time": 342, "pitch": 55, "duration": 6, "velocity": 64}, {"time": 468, "pitch": 60, "duration": 9, "velocity": 64}, {"time": 348, "pitch": 74, "duration": 12, "velocity": 64}, {"time": 288, "pitch": 70, "duration": 3, "velocity": 64}, {"time": 504, "pitch": 72, "duration": 6, "velocity": 64}, {"time": 390, "pitch": 70, "duration": 3, "velocity": 64}, {"time": 372, "pitch": 77, "duration": 3, "velocity": 64}, {"time": 462, "pitch": 60, "duration": 6, "velocity": 64}, {"time": 558, "pitch": 67, "duration": 3, "velocity": 64}, {"time": 444, "pitch": 72, "duration": 6, "velocity": 64}, {"time": 444, "pitch": 69, "duration": 12, "velocity": 64}, {"time": 504, "pitch": 65, "duration": 6, "velocity": 64}, {"time": 474, "pitch": 67, "duration": 6, "velocity": 64}, {"time": 522, "pitch": 65, "duration": 3, "velocity": 64}, {"time": 372, "pitch": 62, "duration": 6, "velocity": 64}, {"time": 348, "pitch": 69, "duration": 6, "velocity": 64}, {"time": 426, "pitch": 69, "duration": 3, "velocity": 64}, {"time": 486, "pitch": 64, "duration": 3, "velocity": 64}, {"time": 420, "pitch": 65, "duration": 6, "velocity": 64}, {"time": 432, "pitch": 62, "duration": 3, "velocity": 64}, {"time": 534, "pitch": 53, "duration": 3, "velocity": 64}, {"time": 540, "pitch": 67, "duration": 12, "velocity": 64}, {"time": 516, "pitch": 70, "duration": 3, "velocity": 64}, {"time": 558, "pitch": 72, "duration": 3, "velocity": 64}, {"time": 576, "pitch": 67, "duration": 3, "velocity": 64}, {"time": 630, "pitch": 72, "duration": 3, "velocity": 64}, {"time": 486, "pitch": 64, "duration": 6, "velocity": 64}, {"time": 444, "pitch": 62, "duration": 3, "velocity": 64}, {"time": 546, "pitch": 62, "duration": 3, "velocity": 64}, {"time": 516, "pitch": 55, "duration": 3, "velocity": 64}, {"time": 570, "pitch": 53, "duration": 6, "velocity": 64}, {"time": 744, "pitch": 65, "duration": 3, "velocity": 64}, {"time": 702, "pitch": 62, "duration": 5, "velocity": 64}, {"time": 588, "pitch": 77, "duration": 12, "velocity": 64}, {"time": 528, "pitch": 65, "duration": 3, "velocity": 64}, {"time": 522, "pitch": 57, "duration": 6, "velocity": 64}, {"time": 534, "pitch": 72, "duration": 12, "velocity": 64}, {"time": 612, "pitch": 72, "duration": 6, "velocity": 64}, {"time": 582, "pitch": 64, "duration": 6, "velocity": 64}, {"time": 528, "pitch": 60, "duration": 6, "velocity": 64}, {"time": 570, "pitch": 55, "duration": 12, "velocity": 64}, {"time": 498, "pitch": 67, "duration": 6, "velocity": 64}, {"time": 504, "pitch": 64, "duration": 6, "velocity": 64}, {"time": 570, "pitch": 74, "duration": 6, "velocity": 64}, {"time": 792, "pitch": 64, "duration": 6, "velocity": 64}, {"time": 582, "pitch": 70, "duration": 3, "velocity": 64}, {"time": 798, "pitch": 60, "duration": 3, "velocity": 64}, {"time": 492, "pitch": 74, "duration": 3, "velocity": 64}, {"time": 618, "pitch": 65, "duration": 6, "velocity": 64}, {"time": 522, "pitch": 65, "duration": 3, "velocity": 64}, {"time": 582, "pitch": 53, "duration": 3, "velocity": 64}, {"time": 768, "pitch": 72, "duration": 3, "velocity": 64}, {"time": 570, "pitch": 74, "duration": 3, "velocity": 64}, {"time": 480, "pitch": 74, "duration": 3, "velocity": 64}, {"time": 522, "pitch": 67, "duration": 3, "velocity": 64}, {"time": 630, "pitch": 72, "duration": 3, "velocity": 64}, {"time": 714, "pitch": 67, "duration": 3, "velocity": 64}, {"time": 678, "pitch": 67, "duration": 3, "velocity": 64}, {"time": 540, "pitch": 70, "duration": 6, "velocity": 64}, {"time": 636, "pitch": 57, "duration": 3, "velocity": 64}, {"time": 546, "pitch": 74, "duration": 3, "velocity": 64}, {"time": 768, "pitch": 72, "duration": 3, "velocity": 64}, {"time": 708, "pitch": 70, "duration": 3, "velocity": 64}, {"time": 708, "pitch": 67, "duration": 6, "velocity": 64}, {"time": 522, "pitch": 62, "duration": 3, "velocity": 64}, {"time": 858, "pitch": 70, "duration": 3, "velocity": 64}, {"time": 624, "pitch": 67, "duration": 6, "velocity": 64}, {"time": 612, "pitch": 74, "duration": 3, "velocity": 64}, {"time": 756, "pitch": 77, "duration": 3, "velocity": 64}, {"time": 552, "pitch": 70, "duration": 6, "velocity": 64}, {"time": 846, "pitch": 62, "duration": 3, "velocity": 64}, {"time": 870, "pitch": 74, "duration": 1, "velocity": 64}, {"time": 864, "pitch": 67, "duration": 2, "velocity": 64}, {"time": 612, "pitch": 77, "duration": 6, "velocity": 64}, {"time": 846, "pitch": 60, "duration": 3, "velocity": 64}, {"time": 870, "pitch": 64, "duration": 2, "velocity": 64}, {"time": 588, "pitch": 77, "duration": 3, "velocity": 64}, {"time": 642, "pitch": 55, "duration": 2, "velocity": 64}, {"time": 678, "pitch": 65, "duration": 3, "velocity": 64}, {"time": 732, "pitch": 69, "duration": 6, "velocity": 64}, {"time": 786, "pitch": 65, "duration": 3, "velocity": 64}, {"time": 810, "pitch": 60, "duration": 6, "velocity": 64}, {"time": 768, "pitch": 65, "duration": 3, "velocity": 64}, {"time": 792, "pitch": 69, "duration": 3, "velocity": 64}, {"time": 774, "pitch": 64, "duration": 6, "velocity": 64}, {"time": 822, "pitch": 67, "duration": 3, "velocity": 64}, {"time": 936, "pitch": 76, "duration": 3, "velocity": 64}, {"time": 834, "pitch": 76, "duration": 6, "velocity": 64}, {"time": 936, "pitch": 53, "duration": 3, "velocity": 64}, {"time": 870, "pitch": 55, "duration": 3, "velocity": 64}, {"time": 618, "pitch": 72, "duration": 3, "velocity": 64}, {"time": 870, "pitch": 77, "duration": 6, "velocity": 64}, {"time": 774, "pitch": 64, "duration": 3, "velocity": 64}, {"time": 894, "pitch": 55, "duration": 6, "velocity": 64}, {"time": 960, "pitch": 74, "duration": 3, "velocity": 64}, {"time": 816, "pitch": 76, "duration": 3, "velocity": 64}, {"time": 786, "pitch": 70, "duration": 6, "velocity": 64}, {"time": 864, "pitch": 77, "duration": 3, "velocity": 64}, {"time": 858, "pitch": 74, "duration": 3, "velocity": 64}, {"time": 966, "pitch": 69, "duration": 3, "velocity": 64}, {"time": 996, "pitch": 55, "duration": 1, "velocity": 64}, {"time": 750, "pitch": 69, "duration": 3, "velocity": 64}, {"time": 930, "pitch": 74, "duration": 3, "velocity": 64}, {"time": 804, "pitch": 65, "duration": 3, "velocity": 64}, {"time": 786, "pitch": 65, "duration": 3, "velocity": 64}, {"time": 1020, "pitch": 72, "duration": 6, "velocity": 64}, {"time": 846, "pitch": 65, "duration": 3, "velocity": 64}, {"time": 828, "pitch": 62, "duration": 2, "velocity": 64}, {"time": 858, "pitch": 77, "duration": 3, "velocity": 64}, {"time": 888, "pitch": 55, "duration": 6, "velocity": 64}, {"time": 954, "pitch": 67, "duration": 6, "velocity": 64}, {"time": 900, "pitch": 67, "duration": 3, "velocity": 64}, {"time": 876, "pitch": 64, "duration": 2, "velocity": 64}, {"time": 996, "pitch": 69, "duration": 6, "velocity": 64}, {"time": 780, "pitch": 64, "duration": 2, "velocity": 64}, {"time": 984, "pitch": 62, "duration": 6, "velocity": 64}, {"time": 1014, "pitch": 76, "duration": 3, "velocity": 64}, {"time": 996, "pitch": 62, "duration": 3, "velocity": 64}, {"time": 852, "pitch": 55, "duration": 3, "velocity": 64}, {"time": 834, "pitch": 72, "duration": 6, "velocity": 64}, {"time": 960, "pitch": 62, "duration": 3, "velocity": 64}, {"time": 804, "pitch": 67, "duration": 3, "velocity": 64}, {"time": 870, "pitch": 67, "duration": 6, "velocity": 64}, {"time": 1086, "pitch": 74, "duration": 3, "velocity": 64}, {"time": 822, "pitch": 64, "duration": 2, "velocity": 64}, {"time": 852, "pitch": 69, "duration": 3, "velocity": 64}, {"time": 1068, "pitch": 67, "duration": 3, "velocity": 64}, {"time": 852, "pitch": 76, "duration": 6, "velocity": 64}, {"time": 846, "pitch": 53, "duration": 3, "velocity": 64}, {"time": 810, "pitch": 79, "duration": 3, "velocity": 64}, {"time": 834, "pitch": 65, "duration": 3, "velocity": 64}, {"time": 960, "pitch": 53, "duration": 3, "velocity": 64}, {"time": 1038, "pitch": 60, "duration": 3, "velocity": 64}, {"time": 978, "pitch": 69, "duration": 3, "velocity": 64}, {"time": 858, "pitch": 74, "duration": 3, "velocity": 64}, {"time": 984, "pitch": 64, "duration": 3, "velocity": 64}, {"time": 1044, "pitch": 69, "duration": 3, "velocity": 64}, {"time": 1032, "pitch": 55, "duration": 6, "velocity": 64}, {"time": 1014, "pitch": 72, "duration": 3, "velocity": 64}, {"time": 816, "pitch": 77, "duration": 6, "velocity": 64}, {"time": 978, "pitch": 48, "duration": 3, "velocity": 64}, {"time": 864, "pitch": 64, "duration": 3, "velocity": 64}, {"time": 936, "pitch": 77, "duration": 6, "velocity": 64}, {"time": 984, "pitch": 69, "duration": 3, "velocity": 64}, {"time": 852, "pitch": 60, "duration": 6, "velocity": 64}, {"time": 1086, "pitch": 64, "duration": 3, "velocity": 64}, {"time": 804, "pitch": 70, "duration": 6, "velocity": 64}, {"time": 918, "pitch": 55, "duration": 6, "velocity": 64}, {"time": 1092, "pitch": 65, "duration": 6, "velocity": 64}, {"time": 972, "pitch": 65, "duration": 3, "velocity": 64}, {"time": 942, "pitch": 64, "duration": 3, "velocity": 64}, {"time": 870, "pitch": 53, "duration": 6, "velocity": 64}, {"time": 1068, "pitch": 76, "duration": 3, "velocity": 64}, {"time": 858, "pitch": 55, "duration": 3, "velocity": 64}, {"time": 1074, "pitch": 77, "duration": 2, "velocity": 64}, {"time": 1080, "pitch": 72, "duration": 6, "velocity": 64}, {"time": 1158, "pitch": 67, "duration": 6, "velocity": 64}, {"time": 858, "pitch": 74, "duration": 3, "velocity": 64}, {"time": 912, "pitch": 69, "duration": 1, "velocity": 64}, {"time": 924, "pitch": 55, "duration": 2, "velocity": 64}, {"time": 912, "pitch": 69, "duration": 2, "velocity": 64}, {"time": 1080, "pitch": 77, "duration": 3, "velocity": 64}, {"time": 1032, "pitch": 53, "duration": 3, "velocity": 64}, {"time": 1014, "pitch": 72, "duration": 6, "velocity": 64}, {"time": 864, "pitch": 74, "duration": 6, "velocity": 64}, {"time": 1338, "pitch": 72, "duration": 3, "velocity": 64}, {"time": 1260, "pitch": 53, "duration": 6, "velocity": 64}, {"time": 978, "pitch": 67, "duration": 3, "velocity": 64}, {"time": 960, "pitch": 62, "duration": 3, "velocity": 64}, {"time": 954, "pitch": 72, "duration": 3, "velocity": 64}, {"time": 828, "pitch": 65, "duration": 6, "velocity": 64}, {"time": 1164, "pitch": 67, "duration": 1, "velocity": 64}, {"time": 1134, "pitch": 62, "duration": 1, "velocity": 64}, {"time": 1068, "pitch": 55, "duration": 6, "velocity": 64}, {"time": 1104, "pitch": 72, "duration": 6, "velocity": 64}, {"time": 1062, "pitch": 67, "duration": 6, "velocity": 64}, {"time": 1254, "pitch": 62, "duration": 3, "velocity": 64}, {"time": 1254, "pitch": 64, "duration": 6, "velocity": 64}, {"time": 1104, "pitch": 65, "duration": 6, "velocity": 64}, {"time": 1320, "pitch": 62, "duration": 6, "velocity": 64}, {"time": 1194, "pitch": 74, "duration": 3, "velocity": 64}, {"time": 1134, "pitch": 65, "duration": 3, "velocity": 64}, {"time": 1140, "pitch": 72, "duration": 3, "velocity": 64}, {"time": 1020, "pitch": 70, "duration": 3, "velocity": 64}, {"time": 1104, "pitch": 72, "duration": 3, "velocity": 64}, {"time": 1308, "pitch": 69, "duration": 6, "velocity": 64}, {"time": 1332, "pitch": 76, "duration": 3, "velocity": 64}, {"time": 1032, "pitch": 77, "duration": 6, "velocity": 64}, {"time": 1320, "pitch": 65, "duration": 3, "velocity": 64}, {"time": 1314, "pitch": 65, "duration": 3, "velocity": 64}, {"time": 1032, "pitch": 60, "duration": 3, "velocity": 64}, {"time": 1038, "pitch": 62, "duration": 6, "velocity": 64}, {"time": 1068, "pitch": 72, "duration": 3, "velocity": 64}, {"time": 1266, "pitch": 62, "duration": 6, "velocity": 64}, {"time": 1050, "pitch": 58, "duration": 6, "velocity": 64}, {"time": 1086, "pitch": 58, "duration": 3, "velocity": 64}, {"time": 1080, "pitch": 67, "duration": 6, "velocity": 64}, {"time": 978, "pitch": 65, "duration": 3, "velocity": 64}, {"time": 1050, "pitch": 64, "duration": 3, "velocity": 64}, {"time": 1080, "pitch": 77, "duration": 1, "velocity": 64}, {"time": 1158, "pitch": 62, "duration": 3, "velocity": 64}, {"time": 1026, "pitch": 74, "duration": 3, "velocity": 64}, {"time": 1002, "pitch": 62, "duration": 6, "velocity": 64}, {"time": 1332, "pitch": 65, "duration": 3, "velocity": 64}, {"time": 1086, "pitch": 62, "duration": 6, "velocity": 64}, {"time": 1140, "pitch": 74, "duration": 3, "velocity": 64}, {"time": 1050, "pitch": 70, "duration": 3, "velocity": 64}, {"time": 1272, "pitch": 69, "duration": 3, "velocity": 64}, {"time": 1320, "pitch": 76, "duration": 3, "velocity": 64}, {"time": 1404, "pitch": 69, "duration": 6, "velocity": 64}, {"time": 1356, "pitch": 74, "duration": 2, "velocity": 64}, {"time": 1260, "pitch": 72, "duration": 3, "velocity": 64}, {"time": 1416, "pitch": 72, "duration": 3, "velocity": 64}, {"time": 1230, "pitch": 77, "duration": 3, "velocity": 64}, {"time": 1260, "pitch": 70, "duration": 6, "velocity": 64}, {"time": 1320, "pitch": 55, "duration": 3, "velocity": 64}, {"time": 1230, "pitch": 67, "duration": 2, "velocity": 64}, {"time": 1356, "pitch": 69, "duration": 3, "velocity": 64}, {"time": 1146, "pitch": 53, "duration": 6, "velocity": 64}, {"time": 1320, "pitch": 67, "duration": 6, "velocity": 64}, {"time": 1290, "pitch": 65, "duration": 2, "velocity": 64}, {"time": 1032, "pitch": 77, "duration": 6, "velocity": 64}, {"time": 1404, "pitch": 60, "duration": 6, "velocity": 64}, {"time": 1224, "pitch": 74, "duration": 6, "velocity": 64}]}]}