{"metadata": {"schema_version": "0.2"}, "resolution": 12, "tempos": [{"time": 0, "qpm": 100.0}], "tracks": [{"program": 41, "is_drum": false, "notes": [{"time": 0, "pitch": 58, "duration": 4, "velocity": 64}, {"time": 4, "pitch": 63, "duration": 2, "velocity": 64}, {"time": 6, "pitch": 62, "duration": 6, "velocity": 64}, {"time": 12, "pitch": 60, "duration": 6, "velocity": 64}, {"time": 18, "pitch": 53, "duration": 4, "velocity": 64}, {"time": 22, "pitch": 57, "duration": 2, "velocity": 64}, {"time": 24, "pitch": 57, "duration": 1, "velocity": 64}, {"time": 24, "pitch": 58, "duration": 6, "velocity": 64}, {"time": 36, "pitch": 70, "duration": 4, "velocity": 64}, {"time": 40, "pitch": 69, "duration": 1, "velocity": 64}, {"time": 41, "pitch": 67, "duration": 1, "velocity": 64}, {"time": 42, "pitch": 65, "duration": 6, "velocity": 64}, {"time": 48, "pitch": 63, "duration": 6, "velocity": 64}, {"time": 54, "pitch": 63, "duration": 6, "velocity": 64}, {"time": 60, "pitch": 62, "duration": 6, "velocity": 64}, {"time": 72, "pitch": 62, "duration": 3, "velocity": 64}, {"time": 75, "pitch": 53, "duration": 3, "velocity": 64}, {"time": 78, "pitch": 62, "duration": 3, "velocity": 64}, {"time": 81, "pitch": 53, "duration": 3, "velocity": 64}, {"time": 84, "pitch": 60, "duration": 3, "velocity": 64}, {"time": 87, "pitch": 53, "duration": 3, "velocity": 64}, {"time": 90, "pitch": 58, "duration": 3, "velocity": 64}, {"time": 93, "pitch": 53, "duration": 3, "velocity": 64}, {"time": 96, "pitch": 58, "duration": 3, "velocity": 64}, {"time": 99, "pitch": 53, "duration": 3, "velocity": 64}, {"time": 102, "pitch": 62, "duration": 3, "velocity": 64}, {"time": 105, "pitch": 58, "duration": 3, "velocity": 64}, {"time": 108, "pitch": 65, "duration": 4, "velocity": 64}, {"time": 112, "pitch": 64, "duration": 2, "velocity": 64}, {"time": 114, "pitch": 65, "duration": 6, "velocity": 64}, {"time": 126, "pitch": 65, "duration": 4, "velocity": 64}, {"time": 130, "pitch": 64, "duration": 2, "velocity": 64}, {"time": 132, "pitch": 65, "duration": 6, "velocity": 64}, {"time": 144, "pitch": 57, "duration": 3, "velocity": 64}, {"time": 147, "pitch": 62, "duration": 3, "velocity": 64}, {"time": 150, "pitch": 60, "duration": 3, "velocity": 64}, {"time": 153, "pitch": 57, "duration": 3, "velocity": 64}, {"time": 156, "pitch": 58, "duration": 3, "velocity": 64}, {"time": 159, "pitch": 55, "duration": 3, "velocity": 64}, {"time": 162, "pitch": 57, "duration": 3, "velocity": 64}, {"time": 165, "pitch": 62, "duration": 3, "velocity": 64}, {"time": 168, "pitch": 60, "duration": 3, "velocity": 64}, {"time": 171, "pitch": 57, "duration": 3, "velocity": 64}, {"time": 174, "pitch": 58, "duration": 3, "velocity": 64}, {"time": 177, "pitch": 55, "duration": 3, "velocity": 64}, {"time": 180, "pitch": 53, "duration": 3, "velocity": 64}, {"time": 183, "pitch": 58, "duration": 3, "velocity": 64}, {"time": 186, "pitch": 57, "duration": 3, "velocity": 64}, {"time": 189, "pitch": 53, "duration": 3, "velocity": 64}, {"time": 192, "pitch": 55, "duration": 3, "velocity": 64}, {"time": 195, "pitch": 52, "duration": 3, "velocity": 64}, {"time": 198, "pitch": 53, "duration": 3, "velocity": 64}, {"time": 201, "pitch": 58, "duration": 3, "velocity": 64}, {"time": 204, "pitch": 57, "duration": 3, "velocity": 64}, {"time": 207, "pitch": 53, "duration": 3, "velocity": 64}, {"time": 210, "pitch": 55, "duration": 3, "velocity": 64}, {"time": 213, "pitch": 52, "duration": 3, "velocity": 64}, {"time": 216, "pitch": 60, "duration": 24, "velocity": 64}, {"time": 243, "pitch": 57, "duration": 3, "velocity": 64}, {"time": 246, "pitch": 58, "duration": 6, "velocity": 64}, {"time": 252, "pitch": 57, "duration": 3, "velocity": 64}, {"time": 255, "pitch": 55, "duration": 3, "velocity": 64}, {"time": 258, "pitch": 53, "duration": 3, "velocity": 64}, {"time": 261, "pitch": 57, "duration": 3, "velocity": 64}, {"time": 264, "pitch": 60, "duration": 3, "velocity": 64}, {"time": 267, "pitch": 63, "duration": 3, "velocity": 64}, {"time": 270, "pitch": 62, "duration": 9, "velocity": 64}, {"time": 270, "pitch": 63, "duration": 1, "velocity": 64}, {"time": 279, "pitch": 60, "duration": 3, "velocity": 64}, {"time": 282, "pitch": 62, "duration": 6, "velocity": 64}, {"time": 288, "pitch": 60, "duration": 6, "velocity": 64}, {"time": 294, "pitch": 65, "duration": 6, "velocity": 64}, {"time": 306, "pitch": 65, "duration": 6, "velocity": 64}, {"time": 312, "pitch": 70, "duration": 6, "velocity": 64}, {"time": 318, "pitch": 58, "duration": 6, "velocity": 64}, {"time": 324, "pitch": 63, "duration": 9, "velocity": 64}, {"time": 333, "pitch": 62, "duration": 3, "velocity": 64}, {"time": 336, "pitch": 63, "duration": 3, "velocity": 64}, {"time": 339, "pitch": 60, "duration": 3, "velocity": 64}, {"time": 342, "pitch": 62, "duration": 9, "velocity": 64}, {"time": 351, "pitch": 60, "duration": 3, "velocity": 64}, {"time": 354, "pitch": 62, "duration": 3, "velocity": 64}, {"time": 357, "pitch": 58, "duration": 3, "velocity": 64}, {"time": 360, "pitch": 60, "duration": 6, "velocity": 64}, {"time": 366, "pitch": 53, "duration": 6, "velocity": 64}, {"time": 372, "pitch": 57, "duration": 6, "velocity": 64}, {"time": 378, "pitch": 58, "duration": 6, "velocity": 64}, {"time": 384, "pitch": 70, "duration": 6, "velocity": 64}, {"time": 396, "pitch": 63, "duration": 6, "velocity": 64}, {"time": 402, "pitch": 62, "duration": 6, "velocity": 64}, {"time": 408, "pitch": 60, "duration": 6, "velocity": 64}, {"time": 414, "pitch": 58, "duration": 6, "velocity": 64}, {"time": 420, "pitch": 57, "duration": 6, "velocity": 64}, {"time": 432, "pitch": 55, "duration": 6, "velocity": 64}, {"time": 438, "pitch": 53, "duration": 6, "velocity": 64}, {"time": 444, "pitch": 51, "duration": 6, "velocity": 64}, {"time": 450, "pitch": 50, "duration": 12, "velocity": 64}]}]}