{"metadata": {"schema_version": "0.2"}, "resolution": 12, "tempos": [{"time": 0, "qpm": 100.0}], "tracks": [{"program": 46, "is_drum": false, "notes": [{"time": 0, "pitch": 55, "duration": 6, "velocity": 64}, {"time": 0, "pitch": 70, "duration": 6, "velocity": 64}, {"time": 12, "pitch": 77, "duration": 3, "velocity": 64}, {"time": 33, "pitch": 64, "duration": 3, "velocity": 64}, {"time": 30, "pitch": 52, "duration": 3, "velocity": 64}, {"time": 30, "pitch": 64, "duration": 6, "velocity": 64}, {"time": 30, "pitch": 74, "duration": 6, "velocity": 64}, {"time": 42, "pitch": 69, "duration": 6, "velocity": 64}, {"time": 66, "pitch": 55, "duration": 6, "velocity": 64}, {"time": 12, "pitch": 64, "duration": 3, "velocity": 64}, {"time": 30, "pitch": 64, "duration": 3, "velocity": 64}, {"time": 54, "pitch": 69, "duration": 3, "velocity": 64}, {"time": 36, "pitch": 64, "duration": 3, "velocity": 64}, {"time": 66, "pitch": 72, "duration": 6, "velocity": 64}, {"time": 54, "pitch": 72, "duration": 6, "velocity": 64}, {"time": 54, "pitch": 67, "duration": 6, "velocity": 64}, {"time": 66, "pitch": 77, "duration": 3, "velocity": 64}, {"time": 120, "pitch": 76, "duration": 3, "velocity": 64}, {"time": 54, "pitch": 65, "duration": 1, "velocity": 64}, {"time": 84, "pitch": 67, "duration": 6, "velocity": 64}, {"time": 54, "pitch": 69, "duration": 6, "velocity": 64}, {"time": 90, "pitch": 64, "duration": 3, "velocity": 64}, {"time": 84, "pitch": 64, "duration": 3, "velocity": 64}, {"time": 48, "pitch": 67, "duration": 6, "velocity": 64}, {"time": 114, "pitch": 64, "duration": 3, "velocity": 64}, {"time": 102, "pitch": 52, "duration": 3, "velocity": 64}, {"time": 66, "pitch": 52, "duration": 3, "velocity": 64}, {"time": 96, "pitch": 72, "duration": 3, "velocity": 64}, {"time": 114, "pitch": 72, "duration": 1, "velocity": 64}, {"time": 108, "pitch": 79, "duration": 3, "velocity": 64}, {"time": 210, "pitch": 76, "duration": 1, "velocity": 64}, {"time": 90, "pitch": 62, "duration": 6, "velocity": 64}, {"time": 126, "pitch": 65, "duration": 3, "velocity": 64}, {"time": 276, "pitch": 79, "duration": 3, "velocity": 64}, {"time": 174, "pitch": 69, "duration": 3, "velocity": 64}, {"time": 300, "pitch": 67, "duration": 3, "velocity": 64}, {"time": 144, "pitch": 70, "duration": 2, "velocity": 64}, {"time": 60, "pitch": 70, "duration": 3, "velocity": 64}, {"time": 186, "pitch": 65, "duration": 3, "velocity": 64}, {"time": 126, "pitch": 70, "duration": 3, "velocity": 64}, {"time": 132, "pitch": 62, "duration": 1, "velocity": 64}, {"time": 102, "pitch": 69, "duration": 3, "velocity": 64}, {"time": 120, "pitch": 64, "duration": 6, "velocity": 64}, {"time": 132, "pitch": 72, "duration": 6, "velocity": 64}, {"time": 138, "pitch": 67, "duration": 6, "velocity": 64}, {"time": 174, "pitch": 77, "duration": 6, "velocity": 64}, {"time": 114, "pitch": 76, "duration": 3, "velocity": 64}, {"time": 162, "pitch": 69, "duration": 2, "velocity": 64}, {"time": 120, "pitch": 64, "duration": 3, "velocity": 64}, {"time": 126, "pitch": 69, "duration": 3, "velocity": 64}, {"time": 90, "pitch": 74, "duration": 3, "velocity": 64}, {"time": 156, "pitch": 57, "duration": 2, "velocity": 64}, {"time": 138, "pitch": 71, "duration": 3, "velocity": 64}, {"time": 132, "pitch": 72, "duration": 1, "velocity": 64}, {"time": 108, "pitch": 72, "duration": 6, "velocity": 64}, {"time": 162, "pitch": 65, "duration": 3, "velocity": 64}, {"time": 120, "pitch": 65, "duration": 2, "velocity": 64}, {"time": 162, "pitch": 60, "duration": 3, "velocity": 64}, {"time": 120, "pitch": 74, "duration": 3, "velocity": 64}, {"time": 138, "pitch": 64, "duration": 3, "velocity": 64}, {"time": 186, "pitch": 76, "duration": 2, "velocity": 64}, {"time": 186, "pitch": 69, "duration": 2, "velocity": 64}, {"time": 246, "pitch": 74, "duration": 3, "velocity": 64}, {"time": 162, "pitch": 74, "duration": 3, "velocity": 64}, {"time": 144, "pitch": 76, "duration": 3, "velocity": 64}, {"time": 144, "pitch": 65, "duration": 3, "velocity": 64}, {"time": 138, "pitch": 71, "duration": 3, "velocity": 64}, {"time": 126, "pitch": 67, "duration": 3, "velocity": 64}, {"time": 192, "pitch": 74, "duration": 3, "velocity": 64}, {"time": 108, "pitch": 65, "duration": 3, "velocity": 64}, {"time": 324, "pitch": 65, "duration": 3, "velocity": 64}, {"time": 204, "pitch": 76, "duration": 6, "velocity": 64}, {"time": 162, "pitch": 67, "duration": 3, "velocity": 64}, {"time": 108, "pitch": 69, "duration": 2, "velocity": 64}, {"time": 222, "pitch": 65, "duration": 2, "velocity": 64}, {"time": 282, "pitch": 62, "duration": 3, "velocity": 64}, {"time": 102, "pitch": 69, "duration": 2, "velocity": 64}, {"time": 354, "pitch": 43, "duration": 3, "velocity": 64}, {"time": 336, "pitch": 69, "duration": 2, "velocity": 64}, {"time": 108, "pitch": 69, "duration": 2, "velocity": 64}, {"time": 186, "pitch": 72, "duration": 3, "velocity": 64}, {"time": 150, "pitch": 76, "duration": 3, "velocity": 64}, {"time": 222, "pitch": 67, "duration": 3, "velocity": 64}, {"time": 144, "pitch": 79, "duration": 2, "velocity": 64}, {"time": 126, "pitch": 43, "duration": 3, "velocity": 64}, {"time": 120, "pitch": 43, "duration": 1, "velocity": 64}, {"time": 240, "pitch": 65, "duration": 2, "velocity": 64}, {"time": 222, "pitch": 69, "duration": 6, "velocity": 64}, {"time": 312, "pitch": 62, "duration": 6, "velocity": 64}, {"time": 198, "pitch": 69, "duration": 3, "velocity": 64}, {"time": 408, "pitch": 77, "duration": 2, "velocity": 64}, {"time": 228, "pitch": 57, "duration": 3, "velocity": 64}, {"time": 174, "pitch": 77, "duration": 2, "velocity": 64}, {"time": 306, "pitch": 57, "duration": 3, "velocity": 64}, {"time": 270, "pitch": 74, "duration": 1, "velocity": 64}, {"time": 306, "pitch": 62, "duration": 2, "velocity": 64}, {"time": 258, "pitch": 65, "duration": 6, "velocity": 64}, {"time": 282, "pitch": 62, "duration": 1, "velocity": 64}, {"time": 210, "pitch": 64, "duration": 3, "velocity": 64}, {"time": 222, "pitch": 69, "duration": 3, "velocity": 64}, {"time": 150, "pitch": 76, "duration": 6, "velocity": 64}, {"time": 366, "pitch": 69, "duration": 3, "velocity": 64}, {"time": 243, "pitch": 69, "duration": 3, "velocity": 64}, {"time": 336, "pitch": 67, "duration": 3, "velocity": 64}, {"time": 216, "pitch": 69, "duration": 1, "velocity": 64}, {"time": 351, "pitch": 64, "duration": 1, "velocity": 64}, {"time": 420, "pitch": 77, "duration": 3, "velocity": 64}, {"time": 330, "pitch": 69, "duration": 3, "velocity": 64}, {"time": 207, "pitch": 74, "duration": 6, "velocity": 64}, {"time": 240, "pitch": 77, "duration": 3, "velocity": 64}, {"time": 258, "pitch": 60, "duration": 1, "velocity": 64}, {"time": 387, "pitch": 60, "duration": 3, "velocity": 64}, {"time": 252, "pitch": 76, "duration": 1, "velocity": 64}, {"time": 291, "pitch": 62, "duration": 2, "velocity": 64}, {"time": 459, "pitch": 64, "duration": 3, "velocity": 64}, {"time": 264, "pitch": 65, "duration": 2, "velocity": 64}, {"time": 222, "pitch": 65, "duration": 6, "velocity": 64}, {"time": 501, "pitch": 71, "duration": 2, "velocity": 64}, {"time": 366, "pitch": 57, "duration": 1, "velocity": 64}, {"time": 468, "pitch": 72, "duration": 6, "velocity": 64}, {"time": 243, "pitch": 65, "duration": 3, "velocity": 64}, {"time": 279, "pitch": 74, "duration": 2, "velocity": 64}, {"time": 330, "pitch": 74, "duration": 3, "velocity": 64}, {"time": 393, "pitch": 69, "duration": 6, "velocity": 64}, {"time": 522, "pitch": 74, "duration": 2, "velocity": 64}, {"time": 384, "pitch": 64, "duration": 3, "velocity": 64}, {"time": 414, "pitch": 76, "duration": 3, "velocity": 64}, {"time": 468, "pitch": 67, "duration": 3, "velocity": 64}, {"time": 312, "pitch": 79, "duration": 3, "velocity": 64}, {"time": 471, "pitch": 71, "duration": 3, "velocity": 64}, {"time": 354, "pitch": 79, "duration": 6, "velocity": 64}, {"time": 360, "pitch": 65, "duration": 6, "velocity": 64}, {"time": 411, "pitch": 72, "duration": 1, "velocity": 64}, {"time": 456, "pitch": 67, "duration": 1, "velocity": 64}, {"time": 450, "pitch": 69, "duration": 3, "velocity": 64}, {"time": 300, "pitch": 67, "duration": 3, "velocity": 64}, {"time": 492, "pitch": 65, "duration": 3, "velocity": 64}, {"time": 342, "pitch": 72, "duration": 2, "velocity": 64}, {"time": 384, "pitch": 65, "duration": 1, "velocity": 64}, {"time": 462, "pitch": 57, "duration": 3, "velocity": 64}, {"time": 393, "pitch": 69, "duration": 2, "velocity": 64}, {"time": 615, "pitch": 65, "duration": 6, "velocity": 64}, {"time": 462, "pitch": 60, "duration": 3, "velocity": 64}, {"time": 552, "pitch": 69, "duration": 3, "velocity": 64}, {"time": 495, "pitch": 64, "duration": 3, "velocity": 64}, {"time": 471, "pitch": 72, "duration": 3, "velocity": 64}, {"time": 588, "pitch": 76, "duration": 3, "velocity": 64}, {"time": 501, "pitch": 71, "duration": 3, "velocity": 64}, {"time": 468, "pitch": 77, "duration": 1, "velocity": 64}, {"time": 483, "pitch": 74, "duration": 1, "velocity": 64}, {"time": 642, "pitch": 65, "duration": 3, "velocity": 64}, {"time": 363, "pitch": 76, "duration": 3, "velocity": 64}, {"time": 375, "pitch": 65, "duration": 3, "velocity": 64}, {"time": 393, "pitch": 67, "duration": 6, "velocity": 64}, {"time": 444, "pitch": 72, "duration": 3, "velocity": 64}, {"time": 378, "pitch": 76, "duration": 6, "velocity": 64}, {"time": 426, "pitch": 72, "duration": 1, "velocity": 64}, {"time": 432, "pitch": 79, "duration": 3, "velocity": 64}, {"time": 420, "pitch": 67, "duration": 2, "velocity": 64}, {"time": 360, "pitch": 72, "duration": 1, "velocity": 64}, {"time": 501, "pitch": 74, "duration": 3, "velocity": 64}, {"time": 381, "pitch": 72, "duration": 1, "velocity": 64}, {"time": 426, "pitch": 60, "duration": 3, "velocity": 64}, {"time": 642, "pitch": 67, "duration": 1, "velocity": 64}, {"time": 609, "pitch": 64, "duration": 3, "velocity": 64}, {"time": 483, "pitch": 72, "duration": 2, "velocity": 64}, {"time": 399, "pitch": 69, "duration": 1, "velocity": 64}, {"time": 504, "pitch": 65, "duration": 1, "velocity": 64}, {"time": 567, "pitch": 57, "duration": 1, "velocity": 64}, {"time": 573, "pitch": 64, "duration": 3, "velocity": 64}, {"time": 492, "pitch": 72, "duration": 2, "velocity": 64}, {"time": 363, "pitch": 67, "duration": 3, "velocity": 64}, {"time": 570, "pitch": 67, "duration": 3, "velocity": 64}, {"time": 564, "pitch": 64, "duration": 1, "velocity": 64}, {"time": 516, "pitch": 74, "duration": 3, "velocity": 64}, {"time": 534, "pitch": 72, "duration": 3, "velocity": 64}, {"time": 591, "pitch": 72, "duration": 3, "velocity": 64}, {"time": 675, "pitch": 67, "duration": 3, "velocity": 64}, {"time": 528, "pitch": 65, "duration": 3, "velocity": 64}, {"time": 600, "pitch": 67, "duration": 2, "velocity": 64}, {"time": 636, "pitch": 69, "duration": 1, "velocity": 64}, {"time": 615, "pitch": 72, "duration": 2, "velocity": 64}, {"time": 483, "pitch": 74, "duration": 3, "velocity": 64}, {"time": 474, "pitch": 79, "duration": 1, "velocity": 64}, {"time": 543, "pitch": 67, "duration": 3, "velocity": 64}, {"time": 552, "pitch": 67, "duration": 6, "velocity": 64}, {"time": 486, "pitch": 77, "duration": 3, "velocity": 64}, {"time": 564, "pitch": 74, "duration": 2, "velocity": 64}, {"time": 432, "pitch": 67, "duration": 2, "velocity": 64}, {"time": 564, "pitch": 62, "duration": 3, "velocity": 64}, {"time": 546, "pitch": 76, "duration": 1, "velocity": 64}, {"time": 657, "pitch": 64, "duration": 3, "velocity": 64}, {"time": 582, "pitch": 64, "duration": 1, "velocity": 64}, {"time": 636, "pitch": 76, "duration": 6, "velocity": 64}, {"time": 480, "pitch": 72, "duration": 6, "velocity": 64}, {"time": 531, "pitch": 71, "duration": 2, "velocity": 64}, {"time": 600, "pitch": 64, "duration": 3, "velocity": 64}, {"time": 534, "pitch": 53, "duration": 3, "velocity": 64}, {"time": 624, "pitch": 69, "duration": 1, "velocity": 64}, {"time": 711, "pitch": 76, "duration": 3, "velocity": 64}, {"time": 564, "pitch": 64, "duration": 1, "velocity": 64}, {"time": 618, "pitch": 60, "duration": 3, "velocity": 64}, {"time": 783, "pitch": 71, "duration": 2, "velocity": 64}, {"time": 528, "pitch": 60, "duration": 3, "velocity": 64}, {"time": 696, "pitch": 65, "duration": 3, "velocity": 64}, {"time": 675, "pitch": 71, "duration": 3, "velocity": 64}, {"time": 648, "pitch": 60, "duration": 2, "velocity": 64}, {"time": 732, "pitch": 67, "duration": 3, "velocity": 64}, {"time": 804, "pitch": 76, "duration": 6, "velocity": 64}, {"time": 555, "pitch": 64, "duration": 3, "velocity": 64}, {"time": 678, "pitch": 62, "duration": 3, "velocity": 64}, {"time": 708, "pitch": 69, "duration": 3, "velocity": 64}, {"time": 636, "pitch": 65, "duration": 3, "velocity": 64}, {"time": 630, "pitch": 60, "duration": 3, "velocity": 64}, {"time": 594, "pitch": 71, "duration": 1, "velocity": 64}, {"time": 684, "pitch": 65, "duration": 3, "velocity": 64}, {"time": 843, "pitch": 67, "duration": 3, "velocity": 64}, {"time": 777, "pitch": 71, "duration": 1, "velocity": 64}, {"time": 837, "pitch": 62, "duration": 3, "velocity": 64}, {"time": 633, "pitch": 74, "duration": 6, "velocity": 64}, {"time": 642, "pitch": 79, "duration": 1, "velocity": 64}, {"time": 675, "pitch": 76, "duration": 1, "velocity": 64}, {"time": 615, "pitch": 72, "duration": 3, "velocity": 64}, {"time": 762, "pitch": 72, "duration": 3, "velocity": 64}, {"time": 750, "pitch": 64, "duration": 1, "velocity": 64}, {"time": 552, "pitch": 69, "duration": 2, "velocity": 64}, {"time": 762, "pitch": 67, "duration": 3, "velocity": 64}, {"time": 564, "pitch": 74, "duration": 3, "velocity": 64}, {"time": 744, "pitch": 72, "duration": 3, "velocity": 64}, {"time": 780, "pitch": 57, "duration": 1, "velocity": 64}, {"time": 870, "pitch": 67, "duration": 1, "velocity": 64}, {"time": 600, "pitch": 72, "duration": 3, "velocity": 64}, {"time": 648, "pitch": 62, "duration": 3, "velocity": 64}, {"time": 762, "pitch": 69, "duration": 1, "velocity": 64}, {"time": 756, "pitch": 74, "duration": 2, "velocity": 64}, {"time": 750, "pitch": 76, "duration": 1, "velocity": 64}, {"time": 732, "pitch": 79, "duration": 2, "velocity": 64}, {"time": 558, "pitch": 72, "duration": 1, "velocity": 64}, {"time": 852, "pitch": 67, "duration": 3, "velocity": 64}, {"time": 786, "pitch": 65, "duration": 1, "velocity": 64}, {"time": 636, "pitch": 71, "duration": 1, "velocity": 64}, {"time": 816, "pitch": 72, "duration": 3, "velocity": 64}, {"time": 756, "pitch": 69, "duration": 6, "velocity": 64}, {"time": 606, "pitch": 67, "duration": 1, "velocity": 64}, {"time": 684, "pitch": 76, "duration": 3, "velocity": 64}, {"time": 672, "pitch": 74, "duration": 2, "velocity": 64}, {"time": 948, "pitch": 74, "duration": 3, "velocity": 64}, {"time": 624, "pitch": 74, "duration": 2, "velocity": 64}, {"time": 684, "pitch": 67, "duration": 3, "velocity": 64}, {"time": 882, "pitch": 64, "duration": 3, "velocity": 64}, {"time": 600, "pitch": 77, "duration": 1, "velocity": 64}, {"time": 948, "pitch": 65, "duration": 1, "velocity": 64}, {"time": 840, "pitch": 62, "duration": 3, "velocity": 64}, {"time": 834, "pitch": 64, "duration": 3, "velocity": 64}, {"time": 732, "pitch": 67, "duration": 3, "velocity": 64}, {"time": 822, "pitch": 72, "duration": 1, "velocity": 64}, {"time": 672, "pitch": 67, "duration": 6, "velocity": 64}, {"time": 987, "pitch": 67, "duration": 3, "velocity": 64}, {"time": 804, "pitch": 69, "duration": 3, "velocity": 64}, {"time": 804, "pitch": 71, "duration": 3, "velocity": 64}, {"time": 1050, "pitch": 65, "duration": 1, "velocity": 64}, {"time": 891, "pitch": 72, "duration": 3, "velocity": 64}, {"time": 966, "pitch": 69, "duration": 2, "velocity": 64}, {"time": 984, "pitch": 69, "duration": 6, "velocity": 64}, {"time": 780, "pitch": 69, "duration": 3, "velocity": 64}, {"time": 840, "pitch": 74, "duration": 6, "velocity": 64}, {"time": 816, "pitch": 71, "duration": 6, "velocity": 64}, {"time": 876, "pitch": 65, "duration": 2, "velocity": 64}, {"time": 975, "pitch": 72, "duration": 3, "velocity": 64}, {"time": 924, "pitch": 60, "duration": 3, "velocity": 64}, {"time": 738, "pitch": 64, "duration": 3, "velocity": 64}, {"time": 1038, "pitch": 76, "duration": 1, "velocity": 64}, {"time": 804, "pitch": 69, "duration": 3, "velocity": 64}, {"time": 759, "pitch": 67, "duration": 3, "velocity": 64}, {"time": 876, "pitch": 67, "duration": 3, "velocity": 64}, {"time": 786, "pitch": 65, "duration": 2, "velocity": 64}, {"time": 762, "pitch": 65, "duration": 3, "velocity": 64}, {"time": 810, "pitch": 70, "duration": 3, "velocity": 64}, {"time": 798, "pitch": 76, "duration": 3, "velocity": 64}, {"time": 894, "pitch": 64, "duration": 3, "velocity": 64}, {"time": 828, "pitch": 65, "duration": 2, "velocity": 64}, {"time": 804, "pitch": 67, "duration": 3, "velocity": 64}, {"time": 996, "pitch": 77, "duration": 3, "velocity": 64}, {"time": 762, "pitch": 74, "duration": 3, "velocity": 64}, {"time": 846, "pitch": 71, "duration": 3, "velocity": 64}, {"time": 1038, "pitch": 77, "duration": 2, "velocity": 64}, {"time": 990, "pitch": 69, "duration": 3, "velocity": 64}, {"time": 882, "pitch": 72, "duration": 3, "velocity": 64}, {"time": 858, "pitch": 74, "duration": 3, "velocity": 64}, {"time": 960, "pitch": 72, "duration": 2, "velocity": 64}, {"time": 852, "pitch": 72, "duration": 1, "velocity": 64}, {"time": 1050, "pitch": 70, "duration": 1, "velocity": 64}, {"time": 834, "pitch": 70, "duration": 3, "velocity": 64}, {"time": 1050, "pitch": 69, "duration": 3, "velocity": 64}, {"time": 948, "pitch": 79, "duration": 3, "velocity": 64}, {"time": 984, "pitch": 69, "duration": 2, "velocity": 64}, {"time": 1074, "pitch": 64, "duration": 3, "velocity": 64}, {"time": 966, "pitch": 76, "duration": 3, "velocity": 64}, {"time": 990, "pitch": 65, "duration": 2, "velocity": 64}, {"time": 858, "pitch": 72, "duration": 1, "velocity": 64}, {"time": 1026, "pitch": 64, "duration": 3, "velocity": 64}, {"time": 984, "pitch": 71, "duration": 2, "velocity": 64}, {"time": 990, "pitch": 77, "duration": 2, "velocity": 64}, {"time": 966, "pitch": 76, "duration": 3, "velocity": 64}, {"time": 1044, "pitch": 79, "duration": 3, "velocity": 64}, {"time": 1074, "pitch": 79, "duration": 3, "velocity": 64}, {"time": 1020, "pitch": 79, "duration": 6, "velocity": 64}, {"time": 1032, "pitch": 74, "duration": 6, "velocity": 64}, {"time": 900, "pitch": 69, "duration": 3, "velocity": 64}, {"time": 1098, "pitch": 79, "duration": 3, "velocity": 64}, {"time": 1074, "pitch": 64, "duration": 2, "velocity": 64}, {"time": 1098, "pitch": 64, "duration": 3, "velocity": 64}, {"time": 948, "pitch": 69, "duration": 3, "velocity": 64}, {"time": 804, "pitch": 71, "duration": 3, "velocity": 64}, {"time": 1146, "pitch": 79, "duration": 3, "velocity": 64}, {"time": 960, "pitch": 69, "duration": 6, "velocity": 64}, {"time": 1176, "pitch": 67, "duration": 3, "velocity": 64}, {"time": 960, "pitch": 64, "duration": 3, "velocity": 64}, {"time": 1002, "pitch": 69, "duration": 3, "velocity": 64}, {"time": 1020, "pitch": 69, "duration": 1, "velocity": 64}, {"time": 948, "pitch": 67, "duration": 2, "velocity": 64}, {"time": 1032, "pitch": 64, "duration": 3, "velocity": 64}, {"time": 1038, "pitch": 71, "duration": 3, "velocity": 64}, {"time": 966, "pitch": 72, "duration": 6, "velocity": 64}, {"time": 999, "pitch": 76, "duration": 3, "velocity": 64}, {"time": 1068, "pitch": 64, "duration": 3, "velocity": 64}, {"time": 1071, "pitch": 67, "duration": 3, "velocity": 64}, {"time": 1122, "pitch": 76, "duration": 3, "velocity": 64}, {"time": 963, "pitch": 60, "duration": 3, "velocity": 64}, {"time": 1050, "pitch": 60, "duration": 3, "velocity": 64}, {"time": 1122, "pitch": 70, "duration": 2, "velocity": 64}, {"time": 954, "pitch": 64, "duration": 1, "velocity": 64}, {"time": 960, "pitch": 69, "duration": 3, "velocity": 64}, {"time": 1134, "pitch": 69, "duration": 3, "velocity": 64}, {"time": 1092, "pitch": 71, "duration": 2, "velocity": 64}, {"time": 1104, "pitch": 67, "duration": 6, "velocity": 64}, {"time": 1008, "pitch": 60, "duration": 6, "velocity": 64}, {"time": 990, "pitch": 65, "duration": 2, "velocity": 64}, {"time": 1047, "pitch": 71, "duration": 1, "velocity": 64}, {"time": 1014, "pitch": 60, "duration": 1, "velocity": 64}, {"time": 1038, "pitch": 67, "duration": 3, "velocity": 64}, {"time": 1080, "pitch": 77, "duration": 3, "velocity": 64}, {"time": 1020, "pitch": 72, "duration": 1, "velocity": 64}, {"time": 1140, "pitch": 64, "duration": 6, "velocity": 64}, {"time": 1446, "pitch": 65, "duration": 3, "velocity": 64}, {"time": 1446, "pitch": 62, "duration": 1, "velocity": 64}, {"time": 1158, "pitch": 65, "duration": 3, "velocity": 64}, {"time": 1092, "pitch": 72, "duration": 2, "velocity": 64}, {"time": 1446, "pitch": 69, "duration": 6, "velocity": 64}, {"time": 1116, "pitch": 77, "duration": 3, "velocity": 64}, {"time": 1323, "pitch": 60, "duration": 1, "velocity": 64}, {"time": 1584, "pitch": 72, "duration": 1, "velocity": 64}, {"time": 1158, "pitch": 76, "duration": 6, "velocity": 64}, {"time": 1440, "pitch": 62, "duration": 3, "velocity": 64}, {"time": 1164, "pitch": 72, "duration": 3, "velocity": 64}, {"time": 1434, "pitch": 62, "duration": 2, "velocity": 64}, {"time": 1368, "pitch": 65, "duration": 3, "velocity": 64}, {"time": 1158, "pitch": 72, "duration": 1, "velocity": 64}, {"time": 1008, "pitch": 60, "duration": 6, "velocity": 64}, {"time": 1074, "pitch": 70, "duration": 6, "velocity": 64}, {"time": 1170, "pitch": 65, "duration": 3, "velocity": 64}, {"time": 1224, "pitch": 74, "duration": 1, "velocity": 64}, {"time": 1116, "pitch": 76, "duration": 3, "velocity": 64}, {"time": 1038, "pitch": 72, "duration": 3, "velocity": 64}, {"time": 1620, "pitch": 71, "duration": 2, "velocity": 64}, {"time": 1452, "pitch": 69, "duration": 1, "velocity": 64}, {"time": 1626, "pitch": 77, "duration": 3, "velocity": 64}, {"time": 1248, "pitch": 77, "duration": 6, "velocity": 64}, {"time": 1566, "pitch": 67, "duration": 6, "velocity": 64}, {"time": 1074, "pitch": 67, "duration": 1, "velocity": 64}, {"time": 1434, "pitch": 65, "duration": 3, "velocity": 64}, {"time": 1572, "pitch": 67, "duration": 1, "velocity": 64}, {"time": 1020, "pitch": 74, "duration": 3, "velocity": 64}, {"time": 1596, "pitch": 69, "duration": 6, "velocity": 64}, {"time": 1590, "pitch": 69, "duration": 1, "velocity": 64}, {"time": 1476, "pitch": 72, "duration": 3, "velocity": 64}, {"time": 1614, "pitch": 71, "duration": 2, "velocity": 64}, {"time": 1494, "pitch": 77, "duration": 3, "velocity": 64}, {"time": 1374, "pitch": 62, "duration": 1, "velocity": 64}, {"time": 1248, "pitch": 74, "duration": 3, "velocity": 64}, {"time": 1323, "pitch": 74, "duration": 3, "velocity": 64}, {"time": 1626, "pitch": 71, "duration": 1, "velocity": 64}, {"time": 1032, "pitch": 76, "duration": 2, "velocity": 64}, {"time": 1368, "pitch": 71, "duration": 2, "velocity": 64}, {"time": 1134, "pitch": 69, "duration": 1, "velocity": 64}, {"time": 1632, "pitch": 70, "duration": 2, "velocity": 64}, {"time": 1476, "pitch": 60, "duration": 3, "velocity": 64}, {"time": 1326, "pitch": 60, "duration": 3, "velocity": 64}, {"time": 1632, "pitch": 65, "duration": 1, "velocity": 64}, {"time": 1248, "pitch": 69, "duration": 3, "velocity": 64}, {"time": 1608, "pitch": 77, "duration": 2, "velocity": 64}, {"time": 1044, "pitch": 69, "duration": 2, "velocity": 64}, {"time": 1614, "pitch": 76, "duration": 3, "velocity": 64}, {"time": 1566, "pitch": 74, "duration": 3, "velocity": 64}, {"time": 1140, "pitch": 74, "duration": 3, "velocity": 64}, {"time": 1560, "pitch": 67, "duration": 2, "velocity": 64}, {"time": 1044, "pitch": 74, "duration": 1, "velocity": 64}, {"time": 1374, "pitch": 62, "duration": 1, "velocity": 64}, {"time": 1464, "pitch": 69, "duration": 3, "velocity": 64}, {"time": 1464, "pitch": 76, "duration": 1, "velocity": 64}, {"time": 1044, "pitch": 77, "duration": 3, "velocity": 64}, {"time": 1698, "pitch": 76, "duration": 3, "velocity": 64}, {"time": 1470, "pitch": 71, "duration": 2, "velocity": 64}, {"time": 1434, "pitch": 74, "duration": 1, "velocity": 64}, {"time": 1440, "pitch": 69, "duration": 3, "velocity": 64}, {"time": 1458, "pitch": 65, "duration": 3, "velocity": 64}, {"time": 1176, "pitch": 72, "duration": 3, "velocity": 64}, {"time": 1458, "pitch": 67, "duration": 2, "velocity": 64}, {"time": 1050, "pitch": 74, "duration": 1, "velocity": 64}, {"time": 1608, "pitch": 72, "duration": 3, "velocity": 64}, {"time": 1038, "pitch": 62, "duration": 3, "velocity": 64}, {"time": 1176, "pitch": 69, "duration": 2, "velocity": 64}, {"time": 1146, "pitch": 76, "duration": 6, "velocity": 64}, {"time": 1695, "pitch": 69, "duration": 6, "velocity": 64}, {"time": 1572, "pitch": 72, "duration": 3, "velocity": 64}, {"time": 1578, "pitch": 62, "duration": 3, "velocity": 64}, {"time": 1584, "pitch": 64, "duration": 1, "velocity": 64}, {"time": 1464, "pitch": 62, "duration": 6, "velocity": 64}, {"time": 1050, "pitch": 69, "duration": 3, "velocity": 64}, {"time": 1464, "pitch": 60, "duration": 1, "velocity": 64}, {"time": 1596, "pitch": 72, "duration": 3, "velocity": 64}, {"time": 1620, "pitch": 69, "duration": 3, "velocity": 64}, {"time": 1038, "pitch": 70, "duration": 1, "velocity": 64}, {"time": 1602, "pitch": 69, "duration": 3, "velocity": 64}, {"time": 1374, "pitch": 69, "duration": 3, "velocity": 64}, {"time": 1692, "pitch": 65, "duration": 1, "velocity": 64}, {"time": 1698, "pitch": 74, "duration": 2, "velocity": 64}, {"time": 1074, "pitch": 69, "duration": 6, "velocity": 64}, {"time": 1320, "pitch": 65, "duration": 1, "velocity": 64}, {"time": 1074, "pitch": 76, "duration": 3, "velocity": 64}, {"time": 1278, "pitch": 76, "duration": 1, "velocity": 64}, {"time": 1050, "pitch": 76, "duration": 3, "velocity": 64}, {"time": 1326, "pitch": 64, "duration": 3, "velocity": 64}, {"time": 1068, "pitch": 64, "duration": 6, "velocity": 64}, {"time": 1218, "pitch": 69, "duration": 2, "velocity": 64}, {"time": 1080, "pitch": 64, "duration": 2, "velocity": 64}, {"time": 1152, "pitch": 64, "duration": 1, "velocity": 64}, {"time": 1194, "pitch": 72, "duration": 2, "velocity": 64}, {"time": 1182, "pitch": 55, "duration": 3, "velocity": 64}, {"time": 1194, "pitch": 67, "duration": 1, "velocity": 64}, {"time": 1446, "pitch": 69, "duration": 2, "velocity": 64}, {"time": 1446, "pitch": 69, "duration": 1, "velocity": 64}, {"time": 1140, "pitch": 53, "duration": 1, "velocity": 64}, {"time": 1278, "pitch": 65, "duration": 3, "velocity": 64}, {"time": 1044, "pitch": 72, "duration": 6, "velocity": 64}]}]}