{"metadata": {"schema_version": "0.2"}, "resolution": 12, "tempos": [{"time": 0, "qpm": 100.0}], "tracks": [{"program": 41, "is_drum": false, "notes": [{"time": 6, "pitch": 62, "duration": 6, "velocity": 64}, {"time": 12, "pitch": 55, "duration": 6, "velocity": 64}, {"time": 18, "pitch": 67, "duration": 6, "velocity": 64}, {"time": 24, "pitch": 67, "duration": 12, "velocity": 64}, {"time": 36, "pitch": 66, "duration": 6, "velocity": 64}, {"time": 42, "pitch": 67, "duration": 1, "velocity": 64}, {"time": 42, "pitch": 69, "duration": 1, "velocity": 64}, {"time": 42, "pitch": 70, "duration": 6, "velocity": 64}, {"time": 48, "pitch": 69, "duration": 6, "velocity": 64}, {"time": 54, "pitch": 67, "duration": 6, "velocity": 64}, {"time": 60, "pitch": 69, "duration": 6, "velocity": 64}, {"time": 60, "pitch": 70, "duration": 1, "velocity": 64}, {"time": 66, "pitch": 67, "duration": 3, "velocity": 64}, {"time": 69, "pitch": 66, "duration": 3, "velocity": 64}, {"time": 72, "pitch": 67, "duration": 12, "velocity": 64}, {"time": 90, "pitch": 58, "duration": 6, "velocity": 64}, {"time": 96, "pitch": 58, "duration": 12, "velocity": 64}, {"time": 108, "pitch": 57, "duration": 6, "velocity": 64}, {"time": 114, "pitch": 58, "duration": 1, "velocity": 64}, {"time": 114, "pitch": 60, "duration": 1, "velocity": 64}, {"time": 114, "pitch": 62, "duration": 6, "velocity": 64}, {"time": 120, "pitch": 60, "duration": 6, "velocity": 64}, {"time": 126, "pitch": 58, "duration": 6, "velocity": 64}, {"time": 132, "pitch": 60, "duration": 6, "velocity": 64}, {"time": 132, "pitch": 62, "duration": 1, "velocity": 64}, {"time": 138, "pitch": 58, "duration": 3, "velocity": 64}, {"time": 141, "pitch": 57, "duration": 3, "velocity": 64}, {"time": 144, "pitch": 58, "duration": 3, "velocity": 64}, {"time": 147, "pitch": 62, "duration": 3, "velocity": 64}, {"time": 150, "pitch": 60, "duration": 3, "velocity": 64}, {"time": 153, "pitch": 58, "duration": 3, "velocity": 64}, {"time": 156, "pitch": 63, "duration": 6, "velocity": 64}, {"time": 162, "pitch": 62, "duration": 6, "velocity": 64}, {"time": 168, "pitch": 60, "duration": 6, "velocity": 64}, {"time": 174, "pitch": 53, "duration": 6, "velocity": 64}, {"time": 180, "pitch": 65, "duration": 12, "velocity": 64}, {"time": 204, "pitch": 65, "duration": 12, "velocity": 64}, {"time": 228, "pitch": 65, "duration": 12, "velocity": 64}, {"time": 246, "pitch": 65, "duration": 6, "velocity": 64}, {"time": 252, "pitch": 67, "duration": 3, "velocity": 64}, {"time": 255, "pitch": 69, "duration": 3, "velocity": 64}, {"time": 258, "pitch": 70, "duration": 3, "velocity": 64}, {"time": 261, "pitch": 67, "duration": 3, "velocity": 64}, {"time": 264, "pitch": 70, "duration": 3, "velocity": 64}, {"time": 267, "pitch": 69, "duration": 3, "velocity": 64}, {"time": 270, "pitch": 67, "duration": 3, "velocity": 64}, {"time": 273, "pitch": 65, "duration": 3, "velocity": 64}, {"time": 276, "pitch": 67, "duration": 3, "velocity": 64}, {"time": 279, "pitch": 69, "duration": 3, "velocity": 64}, {"time": 282, "pitch": 70, "duration": 3, "velocity": 64}, {"time": 285, "pitch": 67, "duration": 3, "velocity": 64}, {"time": 288, "pitch": 70, "duration": 3, "velocity": 64}, {"time": 291, "pitch": 69, "duration": 3, "velocity": 64}, {"time": 294, "pitch": 67, "duration": 3, "velocity": 64}, {"time": 297, "pitch": 65, "duration": 3, "velocity": 64}, {"time": 300, "pitch": 67, "duration": 3, "velocity": 64}, {"time": 303, "pitch": 69, "duration": 3, "velocity": 64}, {"time": 306, "pitch": 70, "duration": 3, "velocity": 64}, {"time": 309, "pitch": 67, "duration": 3, "velocity": 64}, {"time": 312, "pitch": 69, "duration": 3, "velocity": 64}, {"time": 315, "pitch": 67, "duration": 3, "velocity": 64}, {"time": 318, "pitch": 65, "duration": 12, "velocity": 64}, {"time": 330, "pitch": 64, "duration": 6, "velocity": 64}, {"time": 336, "pitch": 65, "duration": 6, "velocity": 64}, {"time": 342, "pitch": 57, "duration": 6, "velocity": 64}, {"time": 348, "pitch": 58, "duration": 6, "velocity": 64}, {"time": 354, "pitch": 60, "duration": 6, "velocity": 64}, {"time": 360, "pitch": 53, "duration": 6, "velocity": 64}, {"time": 366, "pitch": 65, "duration": 12, "velocity": 64}, {"time": 378, "pitch": 64, "duration": 6, "velocity": 64}, {"time": 384, "pitch": 65, "duration": 6, "velocity": 64}, {"time": 390, "pitch": 57, "duration": 6, "velocity": 64}, {"time": 396, "pitch": 58, "duration": 6, "velocity": 64}, {"time": 402, "pitch": 60, "duration": 6, "velocity": 64}, {"time": 408, "pitch": 53, "duration": 6, "velocity": 64}, {"time": 414, "pitch": 63, "duration": 6, "velocity": 64}, {"time": 420, "pitch": 62, "duration": 6, "velocity": 64}, {"time": 426, "pitch": 60, "duration": 6, "velocity": 64}, {"time": 432, "pitch": 57, "duration": 6, "velocity": 64}, {"time": 432, "pitch": 58, "duration": 1, "velocity": 64}, {"time": 438, "pitch": 55, "duration": 3, "velocity": 64}, {"time": 441, "pitch": 53, "duration": 3, "velocity": 64}, {"time": 444, "pitch": 58, "duration": 12, "velocity": 64}, {"time": 456, "pitch": 57, "duration": 6, "velocity": 64}, {"time": 462, "pitch": 63, "duration": 6, "velocity": 64}, {"time": 468, "pitch": 62, "duration": 6, "velocity": 64}, {"time": 474, "pitch": 60, "duration": 6, "velocity": 64}, {"time": 480, "pitch": 57, "duration": 6, "velocity": 64}, {"time": 480, "pitch": 58, "duration": 1, "velocity": 64}, {"time": 486, "pitch": 55, "duration": 3, "velocity": 64}, {"time": 489, "pitch": 53, "duration": 3, "velocity": 64}, {"time": 492, "pitch": 65, "duration": 12, "velocity": 64}, {"time": 510, "pitch": 65, "duration": 6, "velocity": 64}, {"time": 516, "pitch": 63, "duration": 3, "velocity": 64}, {"time": 519, "pitch": 62, "duration": 3, "velocity": 64}, {"time": 522, "pitch": 60, "duration": 3, "velocity": 64}, {"time": 525, "pitch": 58, "duration": 3, "velocity": 64}, {"time": 528, "pitch": 60, "duration": 6, "velocity": 64}, {"time": 534, "pitch": 57, "duration": 6, "velocity": 64}, {"time": 540, "pitch": 58, "duration": 6, "velocity": 64}, {"time": 546, "pitch": 51, "duration": 6, "velocity": 64}, {"time": 552, "pitch": 53, "duration": 12, "velocity": 64}, {"time": 564, "pitch": 57, "duration": 12, "velocity": 64}, {"time": 576, "pitch": 58, "duration": 12, "velocity": 64}, {"time": 600, "pitch": 63, "duration": 12, "velocity": 64}, {"time": 612, "pitch": 62, "duration": 6, "velocity": 64}, {"time": 618, "pitch": 67, "duration": 6, "velocity": 64}, {"time": 624, "pitch": 65, "duration": 6, "velocity": 64}, {"time": 630, "pitch": 63, "duration": 12, "velocity": 64}, {"time": 642, "pitch": 62, "duration": 3, "velocity": 64}, {"time": 645, "pitch": 60, "duration": 3, "velocity": 64}, {"time": 648, "pitch": 62, "duration": 3, "velocity": 64}, {"time": 651, "pitch": 65, "duration": 3, "velocity": 64}, {"time": 654, "pitch": 63, "duration": 3, "velocity": 64}, {"time": 657, "pitch": 62, "duration": 3, "velocity": 64}, {"time": 660, "pitch": 67, "duration": 3, "velocity": 64}, {"time": 663, "pitch": 65, "duration": 3, "velocity": 64}, {"time": 666, "pitch": 63, "duration": 3, "velocity": 64}, {"time": 669, "pitch": 62, "duration": 3, "velocity": 64}, {"time": 672, "pitch": 60, "duration": 6, "velocity": 64}, {"time": 678, "pitch": 55, "duration": 6, "velocity": 64}, {"time": 684, "pitch": 59, "duration": 6, "velocity": 64}, {"time": 690, "pitch": 55, "duration": 6, "velocity": 64}, {"time": 696, "pitch": 62, "duration": 6, "velocity": 64}, {"time": 702, "pitch": 55, "duration": 6, "velocity": 64}, {"time": 708, "pitch": 60, "duration": 24, "velocity": 64}, {"time": 732, "pitch": 59, "duration": 12, "velocity": 64}, {"time": 744, "pitch": 60, "duration": 6, "velocity": 64}, {"time": 750, "pitch": 62, "duration": 3, "velocity": 64}, {"time": 753, "pitch": 63, "duration": 3, "velocity": 64}, {"time": 756, "pitch": 62, "duration": 12, "velocity": 64}, {"time": 768, "pitch": 65, "duration": 6, "velocity": 64}, {"time": 774, "pitch": 62, "duration": 3, "velocity": 64}, {"time": 777, "pitch": 65, "duration": 3, "velocity": 64}, {"time": 780, "pitch": 63, "duration": 6, "velocity": 64}, {"time": 786, "pitch": 60, "duration": 3, "velocity": 64}, {"time": 789, "pitch": 63, "duration": 3, "velocity": 64}, {"time": 792, "pitch": 62, "duration": 6, "velocity": 64}, {"time": 798, "pitch": 68, "duration": 6, "velocity": 64}, {"time": 804, "pitch": 67, "duration": 6, "velocity": 64}, {"time": 810, "pitch": 65, "duration": 6, "velocity": 64}, {"time": 816, "pitch": 63, "duration": 6, "velocity": 64}, {"time": 822, "pitch": 62, "duration": 3, "velocity": 64}, {"time": 825, "pitch": 60, "duration": 3, "velocity": 64}, {"time": 828, "pitch": 59, "duration": 6, "velocity": 64}, {"time": 834, "pitch": 60, "duration": 3, "velocity": 64}, {"time": 837, "pitch": 62, "duration": 3, "velocity": 64}, {"time": 840, "pitch": 55, "duration": 36, "velocity": 64}, {"time": 900, "pitch": 65, "duration": 18, "velocity": 64}, {"time": 918, "pitch": 67, "duration": 3, "velocity": 64}, {"time": 921, "pitch": 65, "duration": 3, "velocity": 64}, {"time": 924, "pitch": 64, "duration": 6, "velocity": 64}, {"time": 930, "pitch": 62, "duration": 6, "velocity": 64}, {"time": 936, "pitch": 61, "duration": 6, "velocity": 64}, {"time": 942, "pitch": 57, "duration": 6, "velocity": 64}, {"time": 948, "pitch": 64, "duration": 6, "velocity": 64}, {"time": 954, "pitch": 57, "duration": 6, "velocity": 64}, {"time": 960, "pitch": 69, "duration": 6, "velocity": 64}, {"time": 966, "pitch": 57, "duration": 6, "velocity": 64}, {"time": 972, "pitch": 62, "duration": 6, "velocity": 64}, {"time": 978, "pitch": 50, "duration": 6, "velocity": 64}, {"time": 984, "pitch": 55, "duration": 12, "velocity": 64}, {"time": 1008, "pitch": 57, "duration": 12, "velocity": 64}, {"time": 1032, "pitch": 53, "duration": 12, "velocity": 64}, {"time": 1056, "pitch": 58, "duration": 3, "velocity": 64}, {"time": 1059, "pitch": 57, "duration": 3, "velocity": 64}, {"time": 1062, "pitch": 55, "duration": 3, "velocity": 64}, {"time": 1065, "pitch": 53, "duration": 3, "velocity": 64}, {"time": 1068, "pitch": 52, "duration": 6, "velocity": 64}, {"time": 1074, "pitch": 50, "duration": 6, "velocity": 64}, {"time": 1080, "pitch": 61, "duration": 6, "velocity": 64}, {"time": 1086, "pitch": 62, "duration": 3, "velocity": 64}, {"time": 1089, "pitch": 64, "duration": 3, "velocity": 64}, {"time": 1092, "pitch": 57, "duration": 6, "velocity": 64}, {"time": 1098, "pitch": 61, "duration": 6, "velocity": 64}, {"time": 1104, "pitch": 62, "duration": 3, "velocity": 64}, {"time": 1107, "pitch": 64, "duration": 3, "velocity": 64}, {"time": 1110, "pitch": 65, "duration": 3, "velocity": 64}, {"time": 1113, "pitch": 67, "duration": 3, "velocity": 64}, {"time": 1116, "pitch": 69, "duration": 6, "velocity": 64}, {"time": 1122, "pitch": 62, "duration": 6, "velocity": 64}, {"time": 1128, "pitch": 67, "duration": 6, "velocity": 64}, {"time": 1134, "pitch": 70, "duration": 3, "velocity": 64}, {"time": 1137, "pitch": 69, "duration": 3, "velocity": 64}, {"time": 1140, "pitch": 70, "duration": 18, "velocity": 64}, {"time": 1158, "pitch": 69, "duration": 3, "velocity": 64}, {"time": 1161, "pitch": 67, "duration": 3, "velocity": 64}, {"time": 1164, "pitch": 65, "duration": 6, "velocity": 64}, {"time": 1170, "pitch": 64, "duration": 6, "velocity": 64}, {"time": 1176, "pitch": 62, "duration": 12, "velocity": 64}, {"time": 1200, "pitch": 63, "duration": 18, "velocity": 64}, {"time": 1218, "pitch": 62, "duration": 6, "velocity": 64}, {"time": 1224, "pitch": 60, "duration": 6, "velocity": 64}, {"time": 1230, "pitch": 70, "duration": 6, "velocity": 64}, {"time": 1236, "pitch": 69, "duration": 6, "velocity": 64}, {"time": 1242, "pitch": 67, "duration": 6, "velocity": 64}, {"time": 1248, "pitch": 66, "duration": 6, "velocity": 64}, {"time": 1254, "pitch": 50, "duration": 6, "velocity": 64}, {"time": 1260, "pitch": 62, "duration": 18, "velocity": 64}, {"time": 1278, "pitch": 60, "duration": 6, "velocity": 64}, {"time": 1284, "pitch": 67, "duration": 6, "velocity": 64}, {"time": 1290, "pitch": 65, "duration": 6, "velocity": 64}, {"time": 1296, "pitch": 63, "duration": 6, "velocity": 64}, {"time": 1302, "pitch": 62, "duration": 6, "velocity": 64}, {"time": 1308, "pitch": 60, "duration": 6, "velocity": 64}, {"time": 1314, "pitch": 58, "duration": 6, "velocity": 64}, {"time": 1320, "pitch": 57, "duration": 3, "velocity": 64}, {"time": 1323, "pitch": 60, "duration": 3, "velocity": 64}, {"time": 1326, "pitch": 58, "duration": 3, "velocity": 64}, {"time": 1329, "pitch": 57, "duration": 3, "velocity": 64}, {"time": 1332, "pitch": 58, "duration": 6, "velocity": 64}, {"time": 1338, "pitch": 50, "duration": 6, "velocity": 64}, {"time": 1344, "pitch": 51, "duration": 6, "velocity": 64}, {"time": 1350, "pitch": 63, "duration": 12, "velocity": 64}, {"time": 1362, "pitch": 62, "duration": 6, "velocity": 64}, {"time": 1368, "pitch": 60, "duration": 6, "velocity": 64}, {"time": 1374, "pitch": 58, "duration": 6, "velocity": 64}, {"time": 1380, "pitch": 57, "duration": 6, "velocity": 64}, {"time": 1386, "pitch": 55, "duration": 6, "velocity": 64}, {"time": 1392, "pitch": 50, "duration": 12, "velocity": 64}, {"time": 1416, "pitch": 67, "duration": 12, "velocity": 64}, {"time": 1428, "pitch": 55, "duration": 12, "velocity": 64}, {"time": 1446, "pitch": 67, "duration": 6, "velocity": 64}, {"time": 1452, "pitch": 69, "duration": 6, "velocity": 64}, {"time": 1458, "pitch": 70, "duration": 6, "velocity": 64}, {"time": 1464, "pitch": 58, "duration": 6, "velocity": 64}, {"time": 1470, "pitch": 67, "duration": 6, "velocity": 64}, {"time": 1476, "pitch": 58, "duration": 6, "velocity": 64}, {"time": 1482, "pitch": 66, "duration": 6, "velocity": 64}, {"time": 1488, "pitch": 67, "duration": 6, "velocity": 64}, {"time": 1494, "pitch": 70, "duration": 3, "velocity": 64}, {"time": 1497, "pitch": 69, "duration": 3, "velocity": 64}, {"time": 1500, "pitch": 67, "duration": 3, "velocity": 64}, {"time": 1503, "pitch": 65, "duration": 3, "velocity": 64}, {"time": 1506, "pitch": 63, "duration": 3, "velocity": 64}, {"time": 1509, "pitch": 62, "duration": 3, "velocity": 64}, {"time": 1512, "pitch": 63, "duration": 12, "velocity": 64}, {"time": 1536, "pitch": 62, "duration": 6, "velocity": 64}, {"time": 1542, "pitch": 58, "duration": 3, "velocity": 64}, {"time": 1545, "pitch": 62, "duration": 3, "velocity": 64}, {"time": 1548, "pitch": 60, "duration": 6, "velocity": 64}, {"time": 1554, "pitch": 57, "duration": 3, "velocity": 64}, {"time": 1557, "pitch": 60, "duration": 3, "velocity": 64}, {"time": 1560, "pitch": 58, "duration": 12, "velocity": 64}, {"time": 1584, "pitch": 60, "duration": 6, "velocity": 64}, {"time": 1590, "pitch": 63, "duration": 3, "velocity": 64}, {"time": 1593, "pitch": 62, "duration": 3, "velocity": 64}, {"time": 1596, "pitch": 60, "duration": 3, "velocity": 64}, {"time": 1599, "pitch": 58, "duration": 3, "velocity": 64}, {"time": 1602, "pitch": 57, "duration": 3, "velocity": 64}, {"time": 1605, "pitch": 55, "duration": 3, "velocity": 64}, {"time": 1608, "pitch": 54, "duration": 6, "velocity": 64}, {"time": 1614, "pitch": 55, "duration": 6, "velocity": 64}, {"time": 1620, "pitch": 57, "duration": 6, "velocity": 64}, {"time": 1626, "pitch": 50, "duration": 6, "velocity": 64}, {"time": 1644, "pitch": 62, "duration": 12, "velocity": 64}, {"time": 1668, "pitch": 63, "duration": 12, "velocity": 64}, {"time": 1692, "pitch": 60, "duration": 6, "velocity": 64}, {"time": 1698, "pitch": 58, "duration": 3, "velocity": 64}, {"time": 1701, "pitch": 57, "duration": 3, "velocity": 64}, {"time": 1704, "pitch": 58, "duration": 6, "velocity": 64}, {"time": 1710, "pitch": 62, "duration": 3, "velocity": 64}, {"time": 1713, "pitch": 60, "duration": 3, "velocity": 64}, {"time": 1716, "pitch": 58, "duration": 6, "velocity": 64}, {"time": 1722, "pitch": 57, "duration": 6, "velocity": 64}, {"time": 1728, "pitch": 55, "duration": 6, "velocity": 64}, {"time": 1734, "pitch": 63, "duration": 3, "velocity": 64}, {"time": 1737, "pitch": 62, "duration": 3, "velocity": 64}, {"time": 1740, "pitch": 60, "duration": 3, "velocity": 64}, {"time": 1743, "pitch": 58, "duration": 3, "velocity": 64}, {"time": 1746, "pitch": 57, "duration": 3, "velocity": 64}, {"time": 1749, "pitch": 55, "duration": 3, "velocity": 64}, {"time": 1752, "pitch": 54, "duration": 6, "velocity": 64}, {"time": 1758, "pitch": 55, "duration": 6, "velocity": 64}, {"time": 1764, "pitch": 57, "duration": 6, "velocity": 64}, {"time": 1770, "pitch": 50, "duration": 6, "velocity": 64}, {"time": 1776, "pitch": 55, "duration": 6, "velocity": 64}, {"time": 1782, "pitch": 70, "duration": 6, "velocity": 64}, {"time": 1788, "pitch": 50, "duration": 6, "velocity": 64}, {"time": 1794, "pitch": 66, "duration": 6, "velocity": 64}, {"time": 1800, "pitch": 67, "duration": 12, "velocity": 64}]}]}