{"metadata": {"schema_version": "0.2"}, "resolution": 12, "tempos": [{"time": 0, "qpm": 100.0}], "tracks": [{"program": 74, "is_drum": false, "notes": [{"time": 0, "pitch": 74, "duration": 3, "velocity": 64}, {"time": 3, "pitch": 76, "duration": 3, "velocity": 64}, {"time": 6, "pitch": 77, "duration": 3, "velocity": 64}, {"time": 9, "pitch": 76, "duration": 3, "velocity": 64}, {"time": 12, "pitch": 74, "duration": 3, "velocity": 64}, {"time": 15, "pitch": 72, "duration": 3, "velocity": 64}, {"time": 18, "pitch": 70, "duration": 3, "velocity": 64}, {"time": 21, "pitch": 69, "duration": 3, "velocity": 64}, {"time": 24, "pitch": 67, "duration": 3, "velocity": 64}, {"time": 27, "pitch": 69, "duration": 3, "velocity": 64}, {"time": 30, "pitch": 70, "duration": 3, "velocity": 64}, {"time": 33, "pitch": 67, "duration": 3, "velocity": 64}, {"time": 36, "pitch": 69, "duration": 6, "velocity": 64}, {"time": 48, "pitch": 73, "duration": 6, "velocity": 64}, {"time": 54, "pitch": 74, "duration": 6, "velocity": 64}, {"time": 60, "pitch": 81, "duration": 6, "velocity": 64}, {"time": 66, "pitch": 81, "duration": 6, "velocity": 64}, {"time": 72, "pitch": 86, "duration": 18, "velocity": 64}, {"time": 90, "pitch": 86, "duration": 3, "velocity": 64}, {"time": 93, "pitch": 85, "duration": 3, "velocity": 64}, {"time": 96, "pitch": 86, "duration": 3, "velocity": 64}, {"time": 99, "pitch": 88, "duration": 3, "velocity": 64}, {"time": 102, "pitch": 81, "duration": 3, "velocity": 64}, {"time": 105, "pitch": 79, "duration": 3, "velocity": 64}, {"time": 108, "pitch": 77, "duration": 3, "velocity": 64}, {"time": 111, "pitch": 76, "duration": 3, "velocity": 64}, {"time": 114, "pitch": 74, "duration": 3, "velocity": 64}, {"time": 117, "pitch": 72, "duration": 3, "velocity": 64}, {"time": 120, "pitch": 74, "duration": 3, "velocity": 64}, {"time": 123, "pitch": 70, "duration": 3, "velocity": 64}, {"time": 126, "pitch": 72, "duration": 3, "velocity": 64}, {"time": 129, "pitch": 76, "duration": 3, "velocity": 64}, {"time": 132, "pitch": 77, "duration": 3, "velocity": 64}, {"time": 135, "pitch": 76, "duration": 3, "velocity": 64}, {"time": 138, "pitch": 77, "duration": 3, "velocity": 64}, {"time": 141, "pitch": 65, "duration": 3, "velocity": 64}, {"time": 144, "pitch": 70, "duration": 6, "velocity": 64}, {"time": 150, "pitch": 70, "duration": 9, "velocity": 64}, {"time": 159, "pitch": 69, "duration": 3, "velocity": 64}, {"time": 162, "pitch": 69, "duration": 3, "velocity": 64}, {"time": 165, "pitch": 74, "duration": 3, "velocity": 64}, {"time": 168, "pitch": 73, "duration": 3, "velocity": 64}, {"time": 171, "pitch": 77, "duration": 3, "velocity": 64}, {"time": 174, "pitch": 76, "duration": 3, "velocity": 64}, {"time": 177, "pitch": 79, "duration": 3, "velocity": 64}, {"time": 180, "pitch": 78, "duration": 6, "velocity": 64}, {"time": 186, "pitch": 78, "duration": 9, "velocity": 64}, {"time": 195, "pitch": 76, "duration": 1, "velocity": 64}, {"time": 196, "pitch": 78, "duration": 2, "velocity": 64}, {"time": 198, "pitch": 79, "duration": 3, "velocity": 64}, {"time": 201, "pitch": 86, "duration": 3, "velocity": 64}, {"time": 204, "pitch": 79, "duration": 3, "velocity": 64}, {"time": 207, "pitch": 77, "duration": 3, "velocity": 64}, {"time": 210, "pitch": 75, "duration": 3, "velocity": 64}, {"time": 213, "pitch": 72, "duration": 3, "velocity": 64}, {"time": 216, "pitch": 77, "duration": 3, "velocity": 64}, {"time": 219, "pitch": 84, "duration": 3, "velocity": 64}, {"time": 222, "pitch": 77, "duration": 3, "velocity": 64}, {"time": 225, "pitch": 75, "duration": 3, "velocity": 64}, {"time": 228, "pitch": 74, "duration": 3, "velocity": 64}, {"time": 231, "pitch": 70, "duration": 3, "velocity": 64}, {"time": 234, "pitch": 75, "duration": 3, "velocity": 64}, {"time": 237, "pitch": 74, "duration": 3, "velocity": 64}, {"time": 240, "pitch": 72, "duration": 3, "velocity": 64}, {"time": 243, "pitch": 78, "duration": 3, "velocity": 64}, {"time": 246, "pitch": 79, "duration": 3, "velocity": 64}, {"time": 249, "pitch": 70, "duration": 3, "velocity": 64}, {"time": 252, "pitch": 75, "duration": 3, "velocity": 64}, {"time": 255, "pitch": 72, "duration": 3, "velocity": 64}, {"time": 258, "pitch": 74, "duration": 3, "velocity": 64}, {"time": 261, "pitch": 70, "duration": 3, "velocity": 64}, {"time": 264, "pitch": 72, "duration": 3, "velocity": 64}, {"time": 267, "pitch": 74, "duration": 3, "velocity": 64}, {"time": 270, "pitch": 67, "duration": 3, "velocity": 64}, {"time": 273, "pitch": 72, "duration": 3, "velocity": 64}, {"time": 276, "pitch": 71, "duration": 3, "velocity": 64}, {"time": 279, "pitch": 76, "duration": 3, "velocity": 64}, {"time": 282, "pitch": 74, "duration": 3, "velocity": 64}, {"time": 285, "pitch": 77, "duration": 3, "velocity": 64}, {"time": 288, "pitch": 76, "duration": 6, "velocity": 64}, {"time": 294, "pitch": 76, "duration": 9, "velocity": 64}, {"time": 303, "pitch": 74, "duration": 1, "velocity": 64}, {"time": 304, "pitch": 76, "duration": 2, "velocity": 64}, {"time": 306, "pitch": 77, "duration": 3, "velocity": 64}, {"time": 309, "pitch": 72, "duration": 3, "velocity": 64}, {"time": 312, "pitch": 77, "duration": 9, "velocity": 64}, {"time": 321, "pitch": 77, "duration": 3, "velocity": 64}, {"time": 324, "pitch": 77, "duration": 3, "velocity": 64}, {"time": 327, "pitch": 74, "duration": 3, "velocity": 64}, {"time": 330, "pitch": 76, "duration": 9, "velocity": 64}, {"time": 339, "pitch": 76, "duration": 3, "velocity": 64}, {"time": 342, "pitch": 76, "duration": 3, "velocity": 64}, {"time": 345, "pitch": 73, "duration": 3, "velocity": 64}, {"time": 348, "pitch": 74, "duration": 3, "velocity": 64}, {"time": 351, "pitch": 76, "duration": 3, "velocity": 64}, {"time": 354, "pitch": 77, "duration": 3, "velocity": 64}, {"time": 357, "pitch": 76, "duration": 3, "velocity": 64}, {"time": 360, "pitch": 77, "duration": 3, "velocity": 64}, {"time": 363, "pitch": 74, "duration": 3, "velocity": 64}, {"time": 366, "pitch": 76, "duration": 3, "velocity": 64}, {"time": 369, "pitch": 74, "duration": 3, "velocity": 64}, {"time": 372, "pitch": 73, "duration": 3, "velocity": 64}, {"time": 375, "pitch": 74, "duration": 3, "velocity": 64}, {"time": 378, "pitch": 69, "duration": 6, "velocity": 64}, {"time": 399, "pitch": 69, "duration": 3, "velocity": 64}, {"time": 402, "pitch": 67, "duration": 3, "velocity": 64}, {"time": 405, "pitch": 70, "duration": 3, "velocity": 64}, {"time": 408, "pitch": 69, "duration": 3, "velocity": 64}, {"time": 411, "pitch": 74, "duration": 3, "velocity": 64}, {"time": 414, "pitch": 73, "duration": 6, "velocity": 64}, {"time": 423, "pitch": 74, "duration": 3, "velocity": 64}, {"time": 426, "pitch": 73, "duration": 3, "velocity": 64}, {"time": 429, "pitch": 77, "duration": 3, "velocity": 64}, {"time": 432, "pitch": 76, "duration": 3, "velocity": 64}, {"time": 435, "pitch": 82, "duration": 3, "velocity": 64}, {"time": 438, "pitch": 81, "duration": 3, "velocity": 64}, {"time": 441, "pitch": 79, "duration": 3, "velocity": 64}, {"time": 444, "pitch": 77, "duration": 3, "velocity": 64}, {"time": 447, "pitch": 76, "duration": 3, "velocity": 64}, {"time": 450, "pitch": 77, "duration": 6, "velocity": 64}, {"time": 456, "pitch": 82, "duration": 6, "velocity": 64}, {"time": 462, "pitch": 79, "duration": 6, "velocity": 64}, {"time": 468, "pitch": 76, "duration": 6, "velocity": 64}, {"time": 474, "pitch": 81, "duration": 6, "velocity": 64}, {"time": 480, "pitch": 77, "duration": 6, "velocity": 64}, {"time": 486, "pitch": 74, "duration": 6, "velocity": 64}, {"time": 492, "pitch": 79, "duration": 3, "velocity": 64}, {"time": 495, "pitch": 76, "duration": 3, "velocity": 64}, {"time": 498, "pitch": 77, "duration": 6, "velocity": 64}, {"time": 507, "pitch": 79, "duration": 3, "velocity": 64}, {"time": 510, "pitch": 77, "duration": 6, "velocity": 64}, {"time": 516, "pitch": 76, "duration": 4, "velocity": 64}, {"time": 520, "pitch": 74, "duration": 2, "velocity": 64}, {"time": 522, "pitch": 74, "duration": 3, "velocity": 64}, {"time": 525, "pitch": 81, "duration": 3, "velocity": 64}, {"time": 528, "pitch": 74, "duration": 3, "velocity": 64}, {"time": 531, "pitch": 72, "duration": 3, "velocity": 64}, {"time": 534, "pitch": 70, "duration": 3, "velocity": 64}, {"time": 537, "pitch": 67, "duration": 3, "velocity": 64}, {"time": 540, "pitch": 72, "duration": 3, "velocity": 64}, {"time": 543, "pitch": 79, "duration": 3, "velocity": 64}, {"time": 546, "pitch": 72, "duration": 3, "velocity": 64}, {"time": 549, "pitch": 70, "duration": 3, "velocity": 64}, {"time": 552, "pitch": 69, "duration": 3, "velocity": 64}, {"time": 555, "pitch": 65, "duration": 3, "velocity": 64}, {"time": 558, "pitch": 70, "duration": 3, "velocity": 64}, {"time": 561, "pitch": 69, "duration": 3, "velocity": 64}, {"time": 564, "pitch": 67, "duration": 3, "velocity": 64}, {"time": 567, "pitch": 73, "duration": 3, "velocity": 64}, {"time": 570, "pitch": 74, "duration": 3, "velocity": 64}, {"time": 573, "pitch": 65, "duration": 3, "velocity": 64}, {"time": 576, "pitch": 70, "duration": 3, "velocity": 64}, {"time": 579, "pitch": 67, "duration": 3, "velocity": 64}, {"time": 582, "pitch": 69, "duration": 12, "velocity": 64}, {"time": 594, "pitch": 74, "duration": 18, "velocity": 64}]}]}