{"metadata": {"schema_version": "0.2"}, "resolution": 12, "tempos": [{"time": 0, "qpm": 100.0}], "tracks": [{"program": 43, "is_drum": false, "notes": [{"time": 6, "pitch": 62, "duration": 3, "velocity": 64}, {"time": 6, "pitch": 53, "duration": 4, "velocity": 64}, {"time": 18, "pitch": 53, "duration": 2, "velocity": 64}, {"time": 36, "pitch": 58, "duration": 3, "velocity": 64}, {"time": 12, "pitch": 53, "duration": 6, "velocity": 64}, {"time": 18, "pitch": 55, "duration": 6, "velocity": 64}, {"time": 24, "pitch": 60, "duration": 3, "velocity": 64}, {"time": 36, "pitch": 48, "duration": 3, "velocity": 64}, {"time": 36, "pitch": 48, "duration": 2, "velocity": 64}, {"time": 42, "pitch": 46, "duration": 2, "velocity": 64}, {"time": 48, "pitch": 53, "duration": 3, "velocity": 64}, {"time": 42, "pitch": 53, "duration": 3, "velocity": 64}, {"time": 156, "pitch": 48, "duration": 6, "velocity": 64}, {"time": 84, "pitch": 53, "duration": 2, "velocity": 64}, {"time": 102, "pitch": 55, "duration": 3, "velocity": 64}, {"time": 72, "pitch": 60, "duration": 2, "velocity": 64}, {"time": 90, "pitch": 58, "duration": 2, "velocity": 64}, {"time": 90, "pitch": 63, "duration": 2, "velocity": 64}, {"time": 72, "pitch": 51, "duration": 2, "velocity": 64}, {"time": 78, "pitch": 46, "duration": 3, "velocity": 64}, {"time": 90, "pitch": 60, "duration": 6, "velocity": 64}, {"time": 138, "pitch": 53, "duration": 6, "velocity": 64}, {"time": 108, "pitch": 58, "duration": 2, "velocity": 64}, {"time": 162, "pitch": 53, "duration": 12, "velocity": 64}, {"time": 204, "pitch": 46, "duration": 6, "velocity": 64}, {"time": 120, "pitch": 58, "duration": 6, "velocity": 64}, {"time": 132, "pitch": 46, "duration": 1, "velocity": 64}, {"time": 246, "pitch": 46, "duration": 6, "velocity": 64}, {"time": 108, "pitch": 41, "duration": 6, "velocity": 64}, {"time": 126, "pitch": 46, "duration": 6, "velocity": 64}, {"time": 210, "pitch": 50, "duration": 3, "velocity": 64}, {"time": 258, "pitch": 60, "duration": 2, "velocity": 64}, {"time": 240, "pitch": 39, "duration": 3, "velocity": 64}, {"time": 234, "pitch": 46, "duration": 2, "velocity": 64}, {"time": 222, "pitch": 58, "duration": 3, "velocity": 64}, {"time": 156, "pitch": 48, "duration": 1, "velocity": 64}, {"time": 186, "pitch": 46, "duration": 2, "velocity": 64}, {"time": 132, "pitch": 46, "duration": 6, "velocity": 64}, {"time": 174, "pitch": 50, "duration": 3, "velocity": 64}, {"time": 168, "pitch": 51, "duration": 3, "velocity": 64}, {"time": 132, "pitch": 48, "duration": 2, "velocity": 64}, {"time": 294, "pitch": 48, "duration": 1, "velocity": 64}, {"time": 168, "pitch": 46, "duration": 3, "velocity": 64}, {"time": 288, "pitch": 58, "duration": 2, "velocity": 64}, {"time": 246, "pitch": 57, "duration": 1, "velocity": 64}, {"time": 282, "pitch": 48, "duration": 3, "velocity": 64}, {"time": 144, "pitch": 58, "duration": 6, "velocity": 64}, {"time": 192, "pitch": 39, "duration": 1, "velocity": 64}, {"time": 252, "pitch": 39, "duration": 3, "velocity": 64}, {"time": 252, "pitch": 46, "duration": 3, "velocity": 64}, {"time": 198, "pitch": 46, "duration": 6, "velocity": 64}, {"time": 396, "pitch": 50, "duration": 3, "velocity": 64}, {"time": 420, "pitch": 58, "duration": 6, "velocity": 64}, {"time": 282, "pitch": 62, "duration": 3, "velocity": 64}, {"time": 198, "pitch": 51, "duration": 2, "velocity": 64}, {"time": 162, "pitch": 46, "duration": 2, "velocity": 64}, {"time": 276, "pitch": 50, "duration": 3, "velocity": 64}, {"time": 204, "pitch": 53, "duration": 2, "velocity": 64}, {"time": 282, "pitch": 39, "duration": 3, "velocity": 64}, {"time": 186, "pitch": 41, "duration": 2, "velocity": 64}, {"time": 252, "pitch": 34, "duration": 3, "velocity": 64}, {"time": 228, "pitch": 53, "duration": 6, "velocity": 64}, {"time": 216, "pitch": 48, "duration": 2, "velocity": 64}, {"time": 288, "pitch": 41, "duration": 6, "velocity": 64}, {"time": 372, "pitch": 50, "duration": 3, "velocity": 64}, {"time": 258, "pitch": 48, "duration": 3, "velocity": 64}, {"time": 222, "pitch": 55, "duration": 6, "velocity": 64}, {"time": 174, "pitch": 41, "duration": 6, "velocity": 64}, {"time": 246, "pitch": 57, "duration": 3, "velocity": 64}, {"time": 330, "pitch": 46, "duration": 6, "velocity": 64}, {"time": 336, "pitch": 46, "duration": 3, "velocity": 64}, {"time": 300, "pitch": 46, "duration": 3, "velocity": 64}, {"time": 294, "pitch": 48, "duration": 3, "velocity": 64}, {"time": 216, "pitch": 48, "duration": 1, "velocity": 64}, {"time": 270, "pitch": 41, "duration": 3, "velocity": 64}, {"time": 402, "pitch": 41, "duration": 6, "velocity": 64}, {"time": 324, "pitch": 48, "duration": 6, "velocity": 64}, {"time": 330, "pitch": 43, "duration": 3, "velocity": 64}, {"time": 306, "pitch": 53, "duration": 3, "velocity": 64}, {"time": 414, "pitch": 39, "duration": 3, "velocity": 64}, {"time": 300, "pitch": 53, "duration": 3, "velocity": 64}, {"time": 408, "pitch": 53, "duration": 3, "velocity": 64}, {"time": 396, "pitch": 60, "duration": 3, "velocity": 64}, {"time": 336, "pitch": 53, "duration": 12, "velocity": 64}, {"time": 246, "pitch": 58, "duration": 3, "velocity": 64}, {"time": 288, "pitch": 55, "duration": 3, "velocity": 64}, {"time": 336, "pitch": 58, "duration": 3, "velocity": 64}, {"time": 480, "pitch": 55, "duration": 1, "velocity": 64}, {"time": 396, "pitch": 53, "duration": 3, "velocity": 64}, {"time": 564, "pitch": 51, "duration": 1, "velocity": 64}, {"time": 552, "pitch": 46, "duration": 6, "velocity": 64}, {"time": 510, "pitch": 43, "duration": 1, "velocity": 64}, {"time": 360, "pitch": 46, "duration": 2, "velocity": 64}, {"time": 294, "pitch": 34, "duration": 12, "velocity": 64}, {"time": 564, "pitch": 55, "duration": 3, "velocity": 64}, {"time": 384, "pitch": 60, "duration": 3, "velocity": 64}, {"time": 360, "pitch": 50, "duration": 6, "velocity": 64}, {"time": 468, "pitch": 48, "duration": 3, "velocity": 64}]}]}