{"metadata": {"schema_version": "0.2"}, "resolution": 12, "tempos": [{"time": 0, "qpm": 100.0}], "tracks": [{"program": 74, "is_drum": false, "notes": [{"time": 0, "pitch": 77, "duration": 2, "velocity": 64}, {"time": 2, "pitch": 79, "duration": 1, "velocity": 64}, {"time": 3, "pitch": 81, "duration": 1, "velocity": 64}, {"time": 4, "pitch": 82, "duration": 2, "velocity": 64}, {"time": 6, "pitch": 84, "duration": 3, "velocity": 64}, {"time": 9, "pitch": 86, "duration": 1, "velocity": 64}, {"time": 10, "pitch": 88, "duration": 2, "velocity": 64}, {"time": 12, "pitch": 89, "duration": 3, "velocity": 64}, {"time": 15, "pitch": 77, "duration": 3, "velocity": 64}, {"time": 21, "pitch": 76, "duration": 3, "velocity": 64}, {"time": 24, "pitch": 74, "duration": 2, "velocity": 64}, {"time": 26, "pitch": 76, "duration": 1, "velocity": 64}, {"time": 27, "pitch": 77, "duration": 1, "velocity": 64}, {"time": 28, "pitch": 79, "duration": 2, "velocity": 64}, {"time": 30, "pitch": 81, "duration": 3, "velocity": 64}, {"time": 33, "pitch": 82, "duration": 1, "velocity": 64}, {"time": 34, "pitch": 84, "duration": 2, "velocity": 64}, {"time": 36, "pitch": 86, "duration": 3, "velocity": 64}, {"time": 39, "pitch": 74, "duration": 3, "velocity": 64}, {"time": 45, "pitch": 72, "duration": 3, "velocity": 64}, {"time": 48, "pitch": 70, "duration": 2, "velocity": 64}, {"time": 50, "pitch": 72, "duration": 1, "velocity": 64}, {"time": 51, "pitch": 74, "duration": 1, "velocity": 64}, {"time": 52, "pitch": 76, "duration": 2, "velocity": 64}, {"time": 54, "pitch": 77, "duration": 3, "velocity": 64}, {"time": 57, "pitch": 79, "duration": 1, "velocity": 64}, {"time": 58, "pitch": 81, "duration": 2, "velocity": 64}, {"time": 60, "pitch": 82, "duration": 2, "velocity": 64}, {"time": 62, "pitch": 70, "duration": 1, "velocity": 64}, {"time": 63, "pitch": 69, "duration": 1, "velocity": 64}, {"time": 64, "pitch": 67, "duration": 2, "velocity": 64}, {"time": 66, "pitch": 74, "duration": 2, "velocity": 64}, {"time": 68, "pitch": 70, "duration": 1, "velocity": 64}, {"time": 69, "pitch": 69, "duration": 1, "velocity": 64}, {"time": 70, "pitch": 67, "duration": 2, "velocity": 64}, {"time": 72, "pitch": 82, "duration": 2, "velocity": 64}, {"time": 74, "pitch": 76, "duration": 1, "velocity": 64}, {"time": 75, "pitch": 74, "duration": 1, "velocity": 64}, {"time": 76, "pitch": 72, "duration": 2, "velocity": 64}, {"time": 78, "pitch": 79, "duration": 2, "velocity": 64}, {"time": 80, "pitch": 76, "duration": 1, "velocity": 64}, {"time": 81, "pitch": 74, "duration": 1, "velocity": 64}, {"time": 82, "pitch": 72, "duration": 2, "velocity": 64}, {"time": 84, "pitch": 65, "duration": 2, "velocity": 64}, {"time": 86, "pitch": 72, "duration": 1, "velocity": 64}, {"time": 87, "pitch": 70, "duration": 1, "velocity": 64}, {"time": 88, "pitch": 69, "duration": 2, "velocity": 64}, {"time": 90, "pitch": 82, "duration": 2, "velocity": 64}, {"time": 92, "pitch": 72, "duration": 1, "velocity": 64}, {"time": 93, "pitch": 70, "duration": 1, "velocity": 64}, {"time": 94, "pitch": 69, "duration": 2, "velocity": 64}, {"time": 96, "pitch": 86, "duration": 2, "velocity": 64}, {"time": 98, "pitch": 84, "duration": 1, "velocity": 64}, {"time": 99, "pitch": 82, "duration": 1, "velocity": 64}, {"time": 100, "pitch": 81, "duration": 2, "velocity": 64}, {"time": 102, "pitch": 82, "duration": 2, "velocity": 64}, {"time": 104, "pitch": 81, "duration": 1, "velocity": 64}, {"time": 105, "pitch": 79, "duration": 1, "velocity": 64}, {"time": 106, "pitch": 77, "duration": 2, "velocity": 64}, {"time": 108, "pitch": 76, "duration": 2, "velocity": 64}, {"time": 110, "pitch": 74, "duration": 1, "velocity": 64}, {"time": 111, "pitch": 72, "duration": 3, "velocity": 64}, {"time": 117, "pitch": 77, "duration": 1, "velocity": 64}, {"time": 118, "pitch": 76, "duration": 2, "velocity": 64}, {"time": 120, "pitch": 77, "duration": 2, "velocity": 64}, {"time": 122, "pitch": 72, "duration": 1, "velocity": 64}, {"time": 123, "pitch": 74, "duration": 1, "velocity": 64}, {"time": 124, "pitch": 70, "duration": 2, "velocity": 64}, {"time": 126, "pitch": 72, "duration": 3, "velocity": 64}, {"time": 129, "pitch": 72, "duration": 3, "velocity": 64}, {"time": 132, "pitch": 65, "duration": 6, "velocity": 64}, {"time": 144, "pitch": 77, "duration": 2, "velocity": 64}, {"time": 146, "pitch": 79, "duration": 1, "velocity": 64}, {"time": 147, "pitch": 81, "duration": 1, "velocity": 64}, {"time": 148, "pitch": 82, "duration": 2, "velocity": 64}, {"time": 150, "pitch": 84, "duration": 3, "velocity": 64}, {"time": 153, "pitch": 86, "duration": 1, "velocity": 64}, {"time": 154, "pitch": 88, "duration": 2, "velocity": 64}, {"time": 156, "pitch": 89, "duration": 3, "velocity": 64}, {"time": 159, "pitch": 77, "duration": 3, "velocity": 64}, {"time": 165, "pitch": 76, "duration": 3, "velocity": 64}, {"time": 168, "pitch": 74, "duration": 2, "velocity": 64}, {"time": 170, "pitch": 72, "duration": 1, "velocity": 64}, {"time": 171, "pitch": 74, "duration": 1, "velocity": 64}, {"time": 172, "pitch": 71, "duration": 2, "velocity": 64}, {"time": 174, "pitch": 72, "duration": 2, "velocity": 64}, {"time": 176, "pitch": 71, "duration": 1, "velocity": 64}, {"time": 177, "pitch": 72, "duration": 1, "velocity": 64}, {"time": 178, "pitch": 69, "duration": 2, "velocity": 64}, {"time": 180, "pitch": 71, "duration": 2, "velocity": 64}, {"time": 182, "pitch": 69, "duration": 1, "velocity": 64}, {"time": 183, "pitch": 67, "duration": 3, "velocity": 64}, {"time": 189, "pitch": 79, "duration": 3, "velocity": 64}, {"time": 192, "pitch": 81, "duration": 2, "velocity": 64}, {"time": 194, "pitch": 79, "duration": 1, "velocity": 64}, {"time": 195, "pitch": 81, "duration": 1, "velocity": 64}, {"time": 196, "pitch": 77, "duration": 2, "velocity": 64}, {"time": 198, "pitch": 81, "duration": 2, "velocity": 64}, {"time": 200, "pitch": 79, "duration": 1, "velocity": 64}, {"time": 201, "pitch": 81, "duration": 1, "velocity": 64}, {"time": 202, "pitch": 84, "duration": 2, "velocity": 64}, {"time": 204, "pitch": 83, "duration": 2, "velocity": 64}, {"time": 206, "pitch": 84, "duration": 1, "velocity": 64}, {"time": 207, "pitch": 86, "duration": 3, "velocity": 64}, {"time": 212, "pitch": 84, "duration": 1, "velocity": 64}, {"time": 213, "pitch": 86, "duration": 1, "velocity": 64}, {"time": 214, "pitch": 83, "duration": 2, "velocity": 64}, {"time": 216, "pitch": 79, "duration": 2, "velocity": 64}, {"time": 218, "pitch": 83, "duration": 1, "velocity": 64}, {"time": 219, "pitch": 84, "duration": 1, "velocity": 64}, {"time": 220, "pitch": 79, "duration": 2, "velocity": 64}, {"time": 222, "pitch": 84, "duration": 2, "velocity": 64}, {"time": 224, "pitch": 83, "duration": 1, "velocity": 64}, {"time": 225, "pitch": 84, "duration": 1, "velocity": 64}, {"time": 226, "pitch": 72, "duration": 2, "velocity": 64}, {"time": 228, "pitch": 77, "duration": 6, "velocity": 64}, {"time": 234, "pitch": 77, "duration": 2, "velocity": 64}, {"time": 236, "pitch": 76, "duration": 1, "velocity": 64}, {"time": 237, "pitch": 77, "duration": 1, "velocity": 64}, {"time": 238, "pitch": 74, "duration": 2, "velocity": 64}, {"time": 240, "pitch": 76, "duration": 2, "velocity": 64}, {"time": 242, "pitch": 72, "duration": 1, "velocity": 64}, {"time": 243, "pitch": 76, "duration": 1, "velocity": 64}, {"time": 244, "pitch": 77, "duration": 2, "velocity": 64}, {"time": 246, "pitch": 79, "duration": 3, "velocity": 64}, {"time": 249, "pitch": 67, "duration": 3, "velocity": 64}, {"time": 252, "pitch": 72, "duration": 3, "velocity": 64}, {"time": 255, "pitch": 76, "duration": 1, "velocity": 64}, {"time": 256, "pitch": 77, "duration": 2, "velocity": 64}, {"time": 258, "pitch": 79, "duration": 2, "velocity": 64}, {"time": 260, "pitch": 76, "duration": 1, "velocity": 64}, {"time": 261, "pitch": 77, "duration": 1, "velocity": 64}, {"time": 262, "pitch": 74, "duration": 2, "velocity": 64}, {"time": 264, "pitch": 76, "duration": 2, "velocity": 64}, {"time": 266, "pitch": 74, "duration": 1, "velocity": 64}, {"time": 267, "pitch": 72, "duration": 3, "velocity": 64}, {"time": 273, "pitch": 71, "duration": 3, "velocity": 64}, {"time": 276, "pitch": 72, "duration": 2, "velocity": 64}, {"time": 278, "pitch": 74, "duration": 1, "velocity": 64}, {"time": 279, "pitch": 76, "duration": 1, "velocity": 64}, {"time": 280, "pitch": 77, "duration": 2, "velocity": 64}, {"time": 282, "pitch": 79, "duration": 2, "velocity": 64}, {"time": 284, "pitch": 81, "duration": 1, "velocity": 64}, {"time": 284, "pitch": 82, "duration": 1, "velocity": 64}, {"time": 285, "pitch": 81, "duration": 1, "velocity": 64}, {"time": 286, "pitch": 79, "duration": 2, "velocity": 64}, {"time": 288, "pitch": 77, "duration": 2, "velocity": 64}, {"time": 290, "pitch": 76, "duration": 1, "velocity": 64}, {"time": 291, "pitch": 74, "duration": 3, "velocity": 64}, {"time": 297, "pitch": 78, "duration": 3, "velocity": 64}, {"time": 300, "pitch": 79, "duration": 3, "velocity": 64}, {"time": 303, "pitch": 78, "duration": 3, "velocity": 64}, {"time": 306, "pitch": 79, "duration": 3, "velocity": 64}, {"time": 309, "pitch": 81, "duration": 3, "velocity": 64}, {"time": 312, "pitch": 82, "duration": 2, "velocity": 64}, {"time": 314, "pitch": 86, "duration": 1, "velocity": 64}, {"time": 315, "pitch": 81, "duration": 1, "velocity": 64}, {"time": 316, "pitch": 86, "duration": 2, "velocity": 64}, {"time": 318, "pitch": 82, "duration": 2, "velocity": 64}, {"time": 320, "pitch": 86, "duration": 1, "velocity": 64}, {"time": 321, "pitch": 78, "duration": 1, "velocity": 64}, {"time": 322, "pitch": 86, "duration": 2, "velocity": 64}, {"time": 324, "pitch": 79, "duration": 4, "velocity": 64}, {"time": 328, "pitch": 78, "duration": 2, "velocity": 64}, {"time": 330, "pitch": 79, "duration": 3, "velocity": 64}, {"time": 333, "pitch": 78, "duration": 3, "velocity": 64}, {"time": 336, "pitch": 79, "duration": 2, "velocity": 64}, {"time": 338, "pitch": 74, "duration": 1, "velocity": 64}, {"time": 339, "pitch": 75, "duration": 1, "velocity": 64}, {"time": 340, "pitch": 72, "duration": 2, "velocity": 64}, {"time": 342, "pitch": 74, "duration": 3, "velocity": 64}, {"time": 345, "pitch": 74, "duration": 3, "velocity": 64}, {"time": 348, "pitch": 67, "duration": 2, "velocity": 64}, {"time": 350, "pitch": 69, "duration": 1, "velocity": 64}, {"time": 351, "pitch": 71, "duration": 1, "velocity": 64}, {"time": 352, "pitch": 72, "duration": 2, "velocity": 64}, {"time": 354, "pitch": 74, "duration": 2, "velocity": 64}, {"time": 356, "pitch": 76, "duration": 1, "velocity": 64}, {"time": 357, "pitch": 77, "duration": 1, "velocity": 64}, {"time": 358, "pitch": 79, "duration": 2, "velocity": 64}, {"time": 360, "pitch": 76, "duration": 2, "velocity": 64}, {"time": 362, "pitch": 77, "duration": 1, "velocity": 64}, {"time": 363, "pitch": 79, "duration": 3, "velocity": 64}, {"time": 368, "pitch": 77, "duration": 1, "velocity": 64}, {"time": 369, "pitch": 79, "duration": 1, "velocity": 64}, {"time": 370, "pitch": 76, "duration": 2, "velocity": 64}, {"time": 372, "pitch": 77, "duration": 2, "velocity": 64}, {"time": 374, "pitch": 79, "duration": 1, "velocity": 64}, {"time": 375, "pitch": 81, "duration": 1, "velocity": 64}, {"time": 376, "pitch": 82, "duration": 2, "velocity": 64}, {"time": 378, "pitch": 84, "duration": 3, "velocity": 64}, {"time": 381, "pitch": 86, "duration": 1, "velocity": 64}, {"time": 382, "pitch": 88, "duration": 2, "velocity": 64}, {"time": 384, "pitch": 89, "duration": 3, "velocity": 64}, {"time": 387, "pitch": 77, "duration": 3, "velocity": 64}, {"time": 393, "pitch": 76, "duration": 3, "velocity": 64}, {"time": 396, "pitch": 74, "duration": 2, "velocity": 64}, {"time": 398, "pitch": 76, "duration": 1, "velocity": 64}, {"time": 399, "pitch": 77, "duration": 1, "velocity": 64}, {"time": 400, "pitch": 79, "duration": 2, "velocity": 64}, {"time": 402, "pitch": 81, "duration": 3, "velocity": 64}, {"time": 405, "pitch": 82, "duration": 1, "velocity": 64}, {"time": 406, "pitch": 84, "duration": 2, "velocity": 64}, {"time": 408, "pitch": 86, "duration": 3, "velocity": 64}, {"time": 411, "pitch": 74, "duration": 3, "velocity": 64}, {"time": 417, "pitch": 72, "duration": 3, "velocity": 64}, {"time": 420, "pitch": 70, "duration": 2, "velocity": 64}, {"time": 422, "pitch": 72, "duration": 1, "velocity": 64}, {"time": 423, "pitch": 74, "duration": 1, "velocity": 64}, {"time": 424, "pitch": 76, "duration": 2, "velocity": 64}, {"time": 426, "pitch": 77, "duration": 3, "velocity": 64}, {"time": 429, "pitch": 79, "duration": 1, "velocity": 64}, {"time": 430, "pitch": 81, "duration": 2, "velocity": 64}, {"time": 432, "pitch": 82, "duration": 3, "velocity": 64}, {"time": 435, "pitch": 70, "duration": 3, "velocity": 64}, {"time": 441, "pitch": 81, "duration": 3, "velocity": 64}, {"time": 444, "pitch": 79, "duration": 2, "velocity": 64}, {"time": 446, "pitch": 77, "duration": 1, "velocity": 64}, {"time": 447, "pitch": 79, "duration": 1, "velocity": 64}, {"time": 448, "pitch": 76, "duration": 2, "velocity": 64}, {"time": 450, "pitch": 77, "duration": 2, "velocity": 64}, {"time": 452, "pitch": 76, "duration": 1, "velocity": 64}, {"time": 453, "pitch": 77, "duration": 1, "velocity": 64}, {"time": 454, "pitch": 74, "duration": 2, "velocity": 64}, {"time": 456, "pitch": 76, "duration": 2, "velocity": 64}, {"time": 458, "pitch": 74, "duration": 1, "velocity": 64}, {"time": 459, "pitch": 72, "duration": 3, "velocity": 64}, {"time": 465, "pitch": 83, "duration": 3, "velocity": 64}, {"time": 468, "pitch": 84, "duration": 2, "velocity": 64}, {"time": 470, "pitch": 83, "duration": 1, "velocity": 64}, {"time": 471, "pitch": 84, "duration": 1, "velocity": 64}, {"time": 472, "pitch": 79, "duration": 2, "velocity": 64}, {"time": 474, "pitch": 84, "duration": 2, "velocity": 64}, {"time": 476, "pitch": 83, "duration": 1, "velocity": 64}, {"time": 477, "pitch": 84, "duration": 1, "velocity": 64}, {"time": 478, "pitch": 84, "duration": 2, "velocity": 64}, {"time": 480, "pitch": 84, "duration": 2, "velocity": 64}, {"time": 482, "pitch": 81, "duration": 1, "velocity": 64}, {"time": 483, "pitch": 82, "duration": 3, "velocity": 64}, {"time": 489, "pitch": 82, "duration": 3, "velocity": 64}, {"time": 492, "pitch": 82, "duration": 2, "velocity": 64}, {"time": 494, "pitch": 81, "duration": 1, "velocity": 64}, {"time": 495, "pitch": 82, "duration": 1, "velocity": 64}, {"time": 496, "pitch": 72, "duration": 2, "velocity": 64}, {"time": 498, "pitch": 82, "duration": 2, "velocity": 64}, {"time": 500, "pitch": 81, "duration": 1, "velocity": 64}, {"time": 501, "pitch": 82, "duration": 1, "velocity": 64}, {"time": 502, "pitch": 82, "duration": 2, "velocity": 64}, {"time": 504, "pitch": 82, "duration": 2, "velocity": 64}, {"time": 506, "pitch": 79, "duration": 1, "velocity": 64}, {"time": 507, "pitch": 81, "duration": 3, "velocity": 64}, {"time": 513, "pitch": 81, "duration": 3, "velocity": 64}, {"time": 516, "pitch": 81, "duration": 2, "velocity": 64}, {"time": 518, "pitch": 79, "duration": 1, "velocity": 64}, {"time": 519, "pitch": 81, "duration": 1, "velocity": 64}, {"time": 520, "pitch": 74, "duration": 2, "velocity": 64}, {"time": 522, "pitch": 79, "duration": 2, "velocity": 64}, {"time": 524, "pitch": 77, "duration": 1, "velocity": 64}, {"time": 525, "pitch": 79, "duration": 1, "velocity": 64}, {"time": 526, "pitch": 76, "duration": 2, "velocity": 64}, {"time": 528, "pitch": 77, "duration": 2, "velocity": 64}, {"time": 530, "pitch": 72, "duration": 1, "velocity": 64}, {"time": 531, "pitch": 74, "duration": 1, "velocity": 64}, {"time": 532, "pitch": 70, "duration": 2, "velocity": 64}, {"time": 534, "pitch": 72, "duration": 3, "velocity": 64}, {"time": 537, "pitch": 73, "duration": 3, "velocity": 64}, {"time": 540, "pitch": 74, "duration": 2, "velocity": 64}, {"time": 542, "pitch": 77, "duration": 1, "velocity": 64}, {"time": 543, "pitch": 76, "duration": 1, "velocity": 64}, {"time": 544, "pitch": 77, "duration": 2, "velocity": 64}, {"time": 546, "pitch": 71, "duration": 2, "velocity": 64}, {"time": 548, "pitch": 83, "duration": 1, "velocity": 64}, {"time": 549, "pitch": 81, "duration": 1, "velocity": 64}, {"time": 550, "pitch": 79, "duration": 2, "velocity": 64}, {"time": 552, "pitch": 72, "duration": 2, "velocity": 64}, {"time": 554, "pitch": 76, "duration": 1, "velocity": 64}, {"time": 555, "pitch": 74, "duration": 1, "velocity": 64}, {"time": 556, "pitch": 76, "duration": 2, "velocity": 64}, {"time": 558, "pitch": 69, "duration": 2, "velocity": 64}, {"time": 560, "pitch": 81, "duration": 1, "velocity": 64}, {"time": 561, "pitch": 79, "duration": 1, "velocity": 64}, {"time": 562, "pitch": 77, "duration": 2, "velocity": 64}, {"time": 564, "pitch": 70, "duration": 2, "velocity": 64}, {"time": 566, "pitch": 74, "duration": 1, "velocity": 64}, {"time": 567, "pitch": 72, "duration": 1, "velocity": 64}, {"time": 568, "pitch": 74, "duration": 2, "velocity": 64}, {"time": 570, "pitch": 67, "duration": 2, "velocity": 64}, {"time": 572, "pitch": 79, "duration": 1, "velocity": 64}, {"time": 573, "pitch": 77, "duration": 1, "velocity": 64}, {"time": 574, "pitch": 76, "duration": 2, "velocity": 64}, {"time": 576, "pitch": 69, "duration": 2, "velocity": 64}, {"time": 578, "pitch": 72, "duration": 1, "velocity": 64}, {"time": 579, "pitch": 70, "duration": 1, "velocity": 64}, {"time": 580, "pitch": 67, "duration": 2, "velocity": 64}, {"time": 582, "pitch": 65, "duration": 2, "velocity": 64}, {"time": 584, "pitch": 77, "duration": 1, "velocity": 64}, {"time": 585, "pitch": 76, "duration": 1, "velocity": 64}, {"time": 586, "pitch": 74, "duration": 2, "velocity": 64}, {"time": 588, "pitch": 67, "duration": 2, "velocity": 64}, {"time": 590, "pitch": 79, "duration": 1, "velocity": 64}, {"time": 591, "pitch": 78, "duration": 1, "velocity": 64}, {"time": 592, "pitch": 79, "duration": 2, "velocity": 64}, {"time": 594, "pitch": 82, "duration": 2, "velocity": 64}, {"time": 596, "pitch": 79, "duration": 1, "velocity": 64}, {"time": 597, "pitch": 78, "duration": 1, "velocity": 64}, {"time": 598, "pitch": 79, "duration": 2, "velocity": 64}, {"time": 600, "pitch": 72, "duration": 6, "velocity": 64}, {"time": 608, "pitch": 79, "duration": 1, "velocity": 64}, {"time": 609, "pitch": 77, "duration": 1, "velocity": 64}, {"time": 610, "pitch": 76, "duration": 2, "velocity": 64}, {"time": 612, "pitch": 77, "duration": 2, "velocity": 64}, {"time": 614, "pitch": 72, "duration": 1, "velocity": 64}, {"time": 615, "pitch": 74, "duration": 1, "velocity": 64}, {"time": 616, "pitch": 70, "duration": 2, "velocity": 64}, {"time": 618, "pitch": 72, "duration": 3, "velocity": 64}, {"time": 621, "pitch": 72, "duration": 3, "velocity": 64}, {"time": 624, "pitch": 65, "duration": 6, "velocity": 64}]}]}