{"metadata": {"schema_version": "0.2"}, "resolution": 12, "tempos": [{"time": 0, "qpm": 100.0}], "tracks": [{"program": 42, "is_drum": false, "notes": [{"time": 0, "pitch": 58, "duration": 3, "velocity": 64}, {"time": 3, "pitch": 65, "duration": 3, "velocity": 64}, {"time": 0, "pitch": 50, "duration": 2, "velocity": 64}, {"time": 0, "pitch": 62, "duration": 6, "velocity": 64}, {"time": 0, "pitch": 38, "duration": 2, "velocity": 64}, {"time": 18, "pitch": 50, "duration": 3, "velocity": 64}, {"time": 54, "pitch": 46, "duration": 6, "velocity": 64}, {"time": 24, "pitch": 57, "duration": 2, "velocity": 64}, {"time": 84, "pitch": 41, "duration": 3, "velocity": 64}, {"time": 24, "pitch": 53, "duration": 3, "velocity": 64}, {"time": 51, "pitch": 60, "duration": 2, "velocity": 64}, {"time": 39, "pitch": 55, "duration": 2, "velocity": 64}, {"time": 24, "pitch": 55, "duration": 3, "velocity": 64}, {"time": 36, "pitch": 58, "duration": 2, "velocity": 64}, {"time": 81, "pitch": 51, "duration": 2, "velocity": 64}, {"time": 60, "pitch": 51, "duration": 2, "velocity": 64}, {"time": 123, "pitch": 46, "duration": 3, "velocity": 64}, {"time": 51, "pitch": 51, "duration": 1, "velocity": 64}, {"time": 60, "pitch": 50, "duration": 1, "velocity": 64}, {"time": 240, "pitch": 46, "duration": 3, "velocity": 64}, {"time": 60, "pitch": 43, "duration": 3, "velocity": 64}, {"time": 60, "pitch": 36, "duration": 2, "velocity": 64}, {"time": 69, "pitch": 53, "duration": 1, "velocity": 64}, {"time": 63, "pitch": 50, "duration": 3, "velocity": 64}, {"time": 72, "pitch": 48, "duration": 6, "velocity": 64}, {"time": 66, "pitch": 55, "duration": 3, "velocity": 64}, {"time": 63, "pitch": 57, "duration": 2, "velocity": 64}, {"time": 96, "pitch": 46, "duration": 2, "velocity": 64}, {"time": 132, "pitch": 53, "duration": 3, "velocity": 64}, {"time": 105, "pitch": 46, "duration": 3, "velocity": 64}, {"time": 111, "pitch": 57, "duration": 1, "velocity": 64}, {"time": 72, "pitch": 48, "duration": 2, "velocity": 64}, {"time": 81, "pitch": 48, "duration": 6, "velocity": 64}, {"time": 192, "pitch": 55, "duration": 3, "velocity": 64}, {"time": 144, "pitch": 60, "duration": 2, "velocity": 64}, {"time": 204, "pitch": 50, "duration": 3, "velocity": 64}, {"time": 177, "pitch": 60, "duration": 2, "velocity": 64}, {"time": 105, "pitch": 58, "duration": 3, "velocity": 64}, {"time": 153, "pitch": 51, "duration": 1, "velocity": 64}, {"time": 261, "pitch": 46, "duration": 6, "velocity": 64}, {"time": 141, "pitch": 52, "duration": 1, "velocity": 64}, {"time": 129, "pitch": 41, "duration": 1, "velocity": 64}, {"time": 132, "pitch": 41, "duration": 3, "velocity": 64}, {"time": 156, "pitch": 53, "duration": 6, "velocity": 64}, {"time": 105, "pitch": 36, "duration": 3, "velocity": 64}, {"time": 93, "pitch": 43, "duration": 3, "velocity": 64}, {"time": 141, "pitch": 41, "duration": 3, "velocity": 64}, {"time": 165, "pitch": 58, "duration": 1, "velocity": 64}, {"time": 165, "pitch": 52, "duration": 2, "velocity": 64}, {"time": 144, "pitch": 53, "duration": 3, "velocity": 64}, {"time": 108, "pitch": 38, "duration": 1, "velocity": 64}, {"time": 213, "pitch": 53, "duration": 2, "velocity": 64}, {"time": 255, "pitch": 39, "duration": 3, "velocity": 64}, {"time": 213, "pitch": 55, "duration": 6, "velocity": 64}, {"time": 168, "pitch": 55, "duration": 3, "velocity": 64}, {"time": 180, "pitch": 53, "duration": 1, "velocity": 64}, {"time": 132, "pitch": 38, "duration": 3, "velocity": 64}, {"time": 225, "pitch": 45, "duration": 6, "velocity": 64}, {"time": 165, "pitch": 53, "duration": 2, "velocity": 64}, {"time": 192, "pitch": 41, "duration": 3, "velocity": 64}, {"time": 165, "pitch": 55, "duration": 6, "velocity": 64}, {"time": 285, "pitch": 46, "duration": 1, "velocity": 64}, {"time": 222, "pitch": 51, "duration": 1, "velocity": 64}, {"time": 213, "pitch": 58, "duration": 2, "velocity": 64}, {"time": 243, "pitch": 58, "duration": 2, "velocity": 64}, {"time": 144, "pitch": 50, "duration": 3, "velocity": 64}, {"time": 144, "pitch": 60, "duration": 2, "velocity": 64}, {"time": 204, "pitch": 53, "duration": 2, "velocity": 64}, {"time": 255, "pitch": 38, "duration": 2, "velocity": 64}, {"time": 123, "pitch": 53, "duration": 2, "velocity": 64}, {"time": 216, "pitch": 53, "duration": 2, "velocity": 64}, {"time": 321, "pitch": 50, "duration": 3, "velocity": 64}, {"time": 192, "pitch": 55, "duration": 3, "velocity": 64}, {"time": 264, "pitch": 36, "duration": 6, "velocity": 64}, {"time": 171, "pitch": 48, "duration": 1, "velocity": 64}, {"time": 279, "pitch": 53, "duration": 3, "velocity": 64}, {"time": 189, "pitch": 53, "duration": 3, "velocity": 64}, {"time": 237, "pitch": 41, "duration": 3, "velocity": 64}, {"time": 249, "pitch": 46, "duration": 3, "velocity": 64}, {"time": 252, "pitch": 55, "duration": 2, "velocity": 64}, {"time": 303, "pitch": 57, "duration": 3, "velocity": 64}, {"time": 249, "pitch": 46, "duration": 2, "velocity": 64}, {"time": 159, "pitch": 55, "duration": 3, "velocity": 64}, {"time": 207, "pitch": 38, "duration": 2, "velocity": 64}, {"time": 225, "pitch": 58, "duration": 3, "velocity": 64}, {"time": 249, "pitch": 60, "duration": 3, "velocity": 64}, {"time": 189, "pitch": 58, "duration": 6, "velocity": 64}, {"time": 207, "pitch": 57, "duration": 1, "velocity": 64}, {"time": 243, "pitch": 43, "duration": 3, "velocity": 64}, {"time": 228, "pitch": 48, "duration": 1, "velocity": 64}, {"time": 180, "pitch": 58, "duration": 2, "velocity": 64}, {"time": 273, "pitch": 48, "duration": 1, "velocity": 64}, {"time": 291, "pitch": 43, "duration": 2, "velocity": 64}, {"time": 243, "pitch": 45, "duration": 3, "velocity": 64}, {"time": 219, "pitch": 53, "duration": 3, "velocity": 64}, {"time": 279, "pitch": 41, "duration": 2, "velocity": 64}, {"time": 228, "pitch": 43, "duration": 2, "velocity": 64}, {"time": 264, "pitch": 51, "duration": 1, "velocity": 64}, {"time": 240, "pitch": 46, "duration": 2, "velocity": 64}, {"time": 381, "pitch": 41, "duration": 6, "velocity": 64}, {"time": 285, "pitch": 36, "duration": 3, "velocity": 64}, {"time": 318, "pitch": 48, "duration": 6, "velocity": 64}, {"time": 420, "pitch": 48, "duration": 2, "velocity": 64}, {"time": 297, "pitch": 57, "duration": 2, "velocity": 64}, {"time": 288, "pitch": 48, "duration": 3, "velocity": 64}, {"time": 357, "pitch": 45, "duration": 6, "velocity": 64}, {"time": 384, "pitch": 53, "duration": 2, "velocity": 64}, {"time": 441, "pitch": 57, "duration": 3, "velocity": 64}, {"time": 360, "pitch": 46, "duration": 2, "velocity": 64}, {"time": 252, "pitch": 38, "duration": 1, "velocity": 64}, {"time": 465, "pitch": 41, "duration": 2, "velocity": 64}, {"time": 255, "pitch": 57, "duration": 1, "velocity": 64}, {"time": 465, "pitch": 46, "duration": 3, "velocity": 64}, {"time": 357, "pitch": 41, "duration": 1, "velocity": 64}, {"time": 423, "pitch": 57, "duration": 3, "velocity": 64}, {"time": 267, "pitch": 46, "duration": 2, "velocity": 64}, {"time": 429, "pitch": 53, "duration": 3, "velocity": 64}, {"time": 363, "pitch": 46, "duration": 2, "velocity": 64}, {"time": 345, "pitch": 45, "duration": 6, "velocity": 64}, {"time": 432, "pitch": 53, "duration": 6, "velocity": 64}, {"time": 381, "pitch": 43, "duration": 1, "velocity": 64}, {"time": 351, "pitch": 45, "duration": 2, "velocity": 64}, {"time": 432, "pitch": 41, "duration": 2, "velocity": 64}, {"time": 471, "pitch": 46, "duration": 2, "velocity": 64}, {"time": 567, "pitch": 38, "duration": 6, "velocity": 64}, {"time": 489, "pitch": 48, "duration": 3, "velocity": 64}, {"time": 495, "pitch": 53, "duration": 2, "velocity": 64}, {"time": 348, "pitch": 41, "duration": 1, "velocity": 64}, {"time": 351, "pitch": 43, "duration": 1, "velocity": 64}, {"time": 405, "pitch": 46, "duration": 3, "velocity": 64}, {"time": 483, "pitch": 53, "duration": 6, "velocity": 64}, {"time": 435, "pitch": 57, "duration": 6, "velocity": 64}, {"time": 447, "pitch": 45, "duration": 3, "velocity": 64}, {"time": 375, "pitch": 53, "duration": 2, "velocity": 64}, {"time": 369, "pitch": 43, "duration": 3, "velocity": 64}, {"time": 441, "pitch": 48, "duration": 6, "velocity": 64}, {"time": 393, "pitch": 38, "duration": 1, "velocity": 64}, {"time": 573, "pitch": 46, "duration": 6, "velocity": 64}, {"time": 453, "pitch": 50, "duration": 2, "velocity": 64}, {"time": 633, "pitch": 53, "duration": 2, "velocity": 64}, {"time": 507, "pitch": 34, "duration": 2, "velocity": 64}, {"time": 648, "pitch": 58, "duration": 2, "velocity": 64}, {"time": 585, "pitch": 34, "duration": 3, "velocity": 64}, {"time": 588, "pitch": 48, "duration": 2, "velocity": 64}, {"time": 777, "pitch": 57, "duration": 2, "velocity": 64}, {"time": 633, "pitch": 41, "duration": 2, "velocity": 64}, {"time": 483, "pitch": 34, "duration": 6, "velocity": 64}, {"time": 453, "pitch": 43, "duration": 6, "velocity": 64}, {"time": 381, "pitch": 58, "duration": 2, "velocity": 64}, {"time": 405, "pitch": 43, "duration": 6, "velocity": 64}, {"time": 567, "pitch": 34, "duration": 2, "velocity": 64}, {"time": 591, "pitch": 55, "duration": 3, "velocity": 64}, {"time": 423, "pitch": 43, "duration": 6, "velocity": 64}, {"time": 561, "pitch": 43, "duration": 1, "velocity": 64}, {"time": 573, "pitch": 55, "duration": 6, "velocity": 64}, {"time": 435, "pitch": 50, "duration": 2, "velocity": 64}, {"time": 621, "pitch": 45, "duration": 3, "velocity": 64}, {"time": 459, "pitch": 53, "duration": 3, "velocity": 64}, {"time": 432, "pitch": 53, "duration": 1, "velocity": 64}, {"time": 489, "pitch": 58, "duration": 3, "velocity": 64}, {"time": 471, "pitch": 53, "duration": 3, "velocity": 64}, {"time": 411, "pitch": 46, "duration": 1, "velocity": 64}, {"time": 645, "pitch": 55, "duration": 2, "velocity": 64}, {"time": 495, "pitch": 34, "duration": 2, "velocity": 64}, {"time": 573, "pitch": 48, "duration": 2, "velocity": 64}, {"time": 657, "pitch": 58, "duration": 6, "velocity": 64}, {"time": 765, "pitch": 38, "duration": 3, "velocity": 64}, {"time": 489, "pitch": 53, "duration": 2, "velocity": 64}, {"time": 615, "pitch": 46, "duration": 3, "velocity": 64}, {"time": 648, "pitch": 46, "duration": 3, "velocity": 64}, {"time": 627, "pitch": 38, "duration": 1, "velocity": 64}, {"time": 552, "pitch": 34, "duration": 2, "velocity": 64}, {"time": 543, "pitch": 41, "duration": 1, "velocity": 64}, {"time": 456, "pitch": 57, "duration": 2, "velocity": 64}, {"time": 669, "pitch": 57, "duration": 2, "velocity": 64}, {"time": 609, "pitch": 48, "duration": 3, "velocity": 64}, {"time": 459, "pitch": 50, "duration": 3, "velocity": 64}, {"time": 531, "pitch": 48, "duration": 1, "velocity": 64}, {"time": 591, "pitch": 50, "duration": 2, "velocity": 64}, {"time": 777, "pitch": 34, "duration": 1, "velocity": 64}, {"time": 663, "pitch": 46, "duration": 1, "velocity": 64}, {"time": 435, "pitch": 34, "duration": 2, "velocity": 64}, {"time": 501, "pitch": 36, "duration": 6, "velocity": 64}, {"time": 753, "pitch": 46, "duration": 3, "velocity": 64}, {"time": 861, "pitch": 41, "duration": 6, "velocity": 64}, {"time": 699, "pitch": 41, "duration": 2, "velocity": 64}, {"time": 579, "pitch": 57, "duration": 6, "velocity": 64}, {"time": 657, "pitch": 46, "duration": 2, "velocity": 64}, {"time": 609, "pitch": 58, "duration": 2, "velocity": 64}, {"time": 471, "pitch": 58, "duration": 3, "velocity": 64}, {"time": 456, "pitch": 58, "duration": 3, "velocity": 64}, {"time": 615, "pitch": 58, "duration": 2, "velocity": 64}, {"time": 696, "pitch": 57, "duration": 6, "velocity": 64}, {"time": 648, "pitch": 34, "duration": 6, "velocity": 64}, {"time": 540, "pitch": 53, "duration": 6, "velocity": 64}, {"time": 768, "pitch": 57, "duration": 3, "velocity": 64}, {"time": 768, "pitch": 58, "duration": 6, "velocity": 64}, {"time": 900, "pitch": 38, "duration": 3, "velocity": 64}, {"time": 615, "pitch": 48, "duration": 3, "velocity": 64}, {"time": 597, "pitch": 55, "duration": 2, "velocity": 64}, {"time": 777, "pitch": 38, "duration": 3, "velocity": 64}, {"time": 777, "pitch": 53, "duration": 2, "velocity": 64}, {"time": 807, "pitch": 48, "duration": 2, "velocity": 64}, {"time": 849, "pitch": 41, "duration": 2, "velocity": 64}, {"time": 648, "pitch": 38, "duration": 3, "velocity": 64}, {"time": 759, "pitch": 45, "duration": 3, "velocity": 64}, {"time": 471, "pitch": 41, "duration": 1, "velocity": 64}, {"time": 777, "pitch": 34, "duration": 6, "velocity": 64}, {"time": 615, "pitch": 48, "duration": 1, "velocity": 64}, {"time": 657, "pitch": 38, "duration": 3, "velocity": 64}, {"time": 633, "pitch": 48, "duration": 2, "velocity": 64}, {"time": 633, "pitch": 36, "duration": 1, "velocity": 64}, {"time": 648, "pitch": 46, "duration": 6, "velocity": 64}, {"time": 624, "pitch": 34, "duration": 3, "velocity": 64}, {"time": 711, "pitch": 46, "duration": 2, "velocity": 64}, {"time": 909, "pitch": 57, "duration": 1, "velocity": 64}, {"time": 825, "pitch": 46, "duration": 6, "velocity": 64}, {"time": 609, "pitch": 45, "duration": 2, "velocity": 64}, {"time": 651, "pitch": 46, "duration": 3, "velocity": 64}, {"time": 615, "pitch": 53, "duration": 6, "velocity": 64}, {"time": 843, "pitch": 34, "duration": 6, "velocity": 64}, {"time": 795, "pitch": 38, "duration": 6, "velocity": 64}, {"time": 789, "pitch": 48, "duration": 2, "velocity": 64}, {"time": 789, "pitch": 50, "duration": 3, "velocity": 64}, {"time": 1053, "pitch": 45, "duration": 6, "velocity": 64}, {"time": 780, "pitch": 43, "duration": 3, "velocity": 64}, {"time": 840, "pitch": 58, "duration": 2, "velocity": 64}, {"time": 843, "pitch": 48, "duration": 1, "velocity": 64}, {"time": 885, "pitch": 34, "duration": 6, "velocity": 64}, {"time": 783, "pitch": 38, "duration": 3, "velocity": 64}, {"time": 627, "pitch": 55, "duration": 3, "velocity": 64}, {"time": 783, "pitch": 41, "duration": 3, "velocity": 64}, {"time": 921, "pitch": 43, "duration": 2, "velocity": 64}, {"time": 909, "pitch": 36, "duration": 1, "velocity": 64}, {"time": 975, "pitch": 48, "duration": 3, "velocity": 64}, {"time": 585, "pitch": 46, "duration": 3, "velocity": 64}, {"time": 720, "pitch": 46, "duration": 3, "velocity": 64}, {"time": 939, "pitch": 53, "duration": 2, "velocity": 64}, {"time": 792, "pitch": 34, "duration": 1, "velocity": 64}, {"time": 777, "pitch": 45, "duration": 3, "velocity": 64}, {"time": 861, "pitch": 34, "duration": 2, "velocity": 64}, {"time": 729, "pitch": 53, "duration": 2, "velocity": 64}, {"time": 837, "pitch": 50, "duration": 1, "velocity": 64}, {"time": 735, "pitch": 36, "duration": 2, "velocity": 64}, {"time": 843, "pitch": 53, "duration": 2, "velocity": 64}, {"time": 837, "pitch": 41, "duration": 1, "velocity": 64}, {"time": 591, "pitch": 53, "duration": 1, "velocity": 64}, {"time": 696, "pitch": 43, "duration": 2, "velocity": 64}, {"time": 753, "pitch": 48, "duration": 3, "velocity": 64}, {"time": 747, "pitch": 46, "duration": 3, "velocity": 64}, {"time": 981, "pitch": 43, "duration": 2, "velocity": 64}, {"time": 975, "pitch": 41, "duration": 3, "velocity": 64}, {"time": 783, "pitch": 53, "duration": 6, "velocity": 64}, {"time": 915, "pitch": 43, "duration": 3, "velocity": 64}, {"time": 945, "pitch": 55, "duration": 2, "velocity": 64}, {"time": 909, "pitch": 58, "duration": 2, "velocity": 64}]}]}