{"metadata": {"schema_version": "0.2"}, "resolution": 12, "tempos": [{"time": 0, "qpm": 100.0}], "tracks": [{"program": 42, "is_drum": false, "notes": [{"time": 6, "pitch": 59, "duration": 6, "velocity": 64}, {"time": 24, "pitch": 64, "duration": 6, "velocity": 64}, {"time": 12, "pitch": 55, "duration": 6, "velocity": 64}, {"time": 36, "pitch": 62, "duration": 3, "velocity": 64}, {"time": 30, "pitch": 50, "duration": 6, "velocity": 64}, {"time": 36, "pitch": 55, "duration": 6, "velocity": 64}, {"time": 42, "pitch": 55, "duration": 6, "velocity": 64}, {"time": 78, "pitch": 52, "duration": 6, "velocity": 64}, {"time": 72, "pitch": 57, "duration": 6, "velocity": 64}, {"time": 42, "pitch": 57, "duration": 6, "velocity": 64}, {"time": 72, "pitch": 57, "duration": 12, "velocity": 64}, {"time": 72, "pitch": 46, "duration": 3, "velocity": 64}, {"time": 78, "pitch": 55, "duration": 6, "velocity": 64}, {"time": 108, "pitch": 59, "duration": 3, "velocity": 64}, {"time": 108, "pitch": 55, "duration": 3, "velocity": 64}, {"time": 78, "pitch": 60, "duration": 6, "velocity": 64}, {"time": 126, "pitch": 55, "duration": 1, "velocity": 64}, {"time": 114, "pitch": 55, "duration": 6, "velocity": 64}, {"time": 108, "pitch": 55, "duration": 6, "velocity": 64}, {"time": 108, "pitch": 55, "duration": 3, "velocity": 64}, {"time": 168, "pitch": 55, "duration": 12, "velocity": 64}, {"time": 120, "pitch": 60, "duration": 6, "velocity": 64}, {"time": 150, "pitch": 51, "duration": 6, "velocity": 64}, {"time": 168, "pitch": 48, "duration": 6, "velocity": 64}, {"time": 162, "pitch": 50, "duration": 6, "velocity": 64}, {"time": 138, "pitch": 48, "duration": 12, "velocity": 64}, {"time": 156, "pitch": 53, "duration": 3, "velocity": 64}, {"time": 192, "pitch": 51, "duration": 6, "velocity": 64}, {"time": 174, "pitch": 41, "duration": 6, "velocity": 64}, {"time": 132, "pitch": 45, "duration": 6, "velocity": 64}, {"time": 222, "pitch": 57, "duration": 1, "velocity": 64}, {"time": 276, "pitch": 57, "duration": 1, "velocity": 64}, {"time": 216, "pitch": 53, "duration": 6, "velocity": 64}, {"time": 168, "pitch": 53, "duration": 6, "velocity": 64}, {"time": 192, "pitch": 53, "duration": 12, "velocity": 64}, {"time": 192, "pitch": 55, "duration": 6, "velocity": 64}, {"time": 240, "pitch": 58, "duration": 6, "velocity": 64}, {"time": 270, "pitch": 51, "duration": 6, "velocity": 64}, {"time": 180, "pitch": 46, "duration": 1, "velocity": 64}, {"time": 252, "pitch": 34, "duration": 12, "velocity": 64}, {"time": 204, "pitch": 48, "duration": 6, "velocity": 64}, {"time": 264, "pitch": 57, "duration": 6, "velocity": 64}, {"time": 324, "pitch": 46, "duration": 6, "velocity": 64}, {"time": 300, "pitch": 41, "duration": 12, "velocity": 64}, {"time": 246, "pitch": 41, "duration": 6, "velocity": 64}, {"time": 210, "pitch": 46, "duration": 6, "velocity": 64}, {"time": 282, "pitch": 46, "duration": 1, "velocity": 64}, {"time": 276, "pitch": 46, "duration": 6, "velocity": 64}, {"time": 348, "pitch": 50, "duration": 3, "velocity": 64}, {"time": 252, "pitch": 53, "duration": 3, "velocity": 64}, {"time": 252, "pitch": 58, "duration": 3, "velocity": 64}, {"time": 426, "pitch": 50, "duration": 6, "velocity": 64}, {"time": 294, "pitch": 39, "duration": 3, "velocity": 64}, {"time": 300, "pitch": 62, "duration": 6, "velocity": 64}, {"time": 270, "pitch": 60, "duration": 3, "velocity": 64}, {"time": 492, "pitch": 46, "duration": 3, "velocity": 64}, {"time": 252, "pitch": 58, "duration": 3, "velocity": 64}, {"time": 336, "pitch": 41, "duration": 6, "velocity": 64}, {"time": 300, "pitch": 55, "duration": 3, "velocity": 64}, {"time": 384, "pitch": 48, "duration": 6, "velocity": 64}, {"time": 288, "pitch": 53, "duration": 3, "velocity": 64}, {"time": 384, "pitch": 55, "duration": 3, "velocity": 64}, {"time": 414, "pitch": 48, "duration": 6, "velocity": 64}, {"time": 330, "pitch": 55, "duration": 3, "velocity": 64}, {"time": 300, "pitch": 50, "duration": 3, "velocity": 64}, {"time": 432, "pitch": 57, "duration": 3, "velocity": 64}, {"time": 312, "pitch": 53, "duration": 6, "velocity": 64}, {"time": 552, "pitch": 53, "duration": 3, "velocity": 64}, {"time": 318, "pitch": 58, "duration": 3, "velocity": 64}, {"time": 438, "pitch": 53, "duration": 6, "velocity": 64}, {"time": 420, "pitch": 51, "duration": 3, "velocity": 64}, {"time": 318, "pitch": 45, "duration": 6, "velocity": 64}, {"time": 444, "pitch": 50, "duration": 6, "velocity": 64}, {"time": 348, "pitch": 60, "duration": 6, "velocity": 64}, {"time": 570, "pitch": 51, "duration": 12, "velocity": 64}, {"time": 450, "pitch": 48, "duration": 6, "velocity": 64}, {"time": 462, "pitch": 55, "duration": 3, "velocity": 64}, {"time": 366, "pitch": 51, "duration": 3, "velocity": 64}, {"time": 606, "pitch": 57, "duration": 6, "velocity": 64}, {"time": 492, "pitch": 51, "duration": 6, "velocity": 64}, {"time": 348, "pitch": 41, "duration": 12, "velocity": 64}, {"time": 474, "pitch": 51, "duration": 6, "velocity": 64}, {"time": 438, "pitch": 60, "duration": 6, "velocity": 64}, {"time": 660, "pitch": 57, "duration": 12, "velocity": 64}, {"time": 516, "pitch": 50, "duration": 6, "velocity": 64}, {"time": 504, "pitch": 50, "duration": 6, "velocity": 64}, {"time": 528, "pitch": 36, "duration": 6, "velocity": 64}, {"time": 426, "pitch": 58, "duration": 12, "velocity": 64}, {"time": 618, "pitch": 58, "duration": 12, "velocity": 64}, {"time": 426, "pitch": 43, "duration": 3, "velocity": 64}, {"time": 540, "pitch": 39, "duration": 1, "velocity": 64}, {"time": 594, "pitch": 53, "duration": 3, "velocity": 64}, {"time": 660, "pitch": 36, "duration": 3, "velocity": 64}, {"time": 636, "pitch": 46, "duration": 3, "velocity": 64}, {"time": 444, "pitch": 46, "duration": 6, "velocity": 64}, {"time": 432, "pitch": 58, "duration": 3, "velocity": 64}, {"time": 468, "pitch": 41, "duration": 12, "velocity": 64}, {"time": 588, "pitch": 48, "duration": 6, "velocity": 64}, {"time": 432, "pitch": 43, "duration": 3, "velocity": 64}, {"time": 660, "pitch": 46, "duration": 12, "velocity": 64}, {"time": 648, "pitch": 38, "duration": 12, "velocity": 64}, {"time": 678, "pitch": 53, "duration": 3, "velocity": 64}, {"time": 588, "pitch": 51, "duration": 6, "velocity": 64}, {"time": 600, "pitch": 58, "duration": 6, "velocity": 64}, {"time": 726, "pitch": 36, "duration": 6, "velocity": 64}, {"time": 516, "pitch": 39, "duration": 12, "velocity": 64}, {"time": 522, "pitch": 48, "duration": 6, "velocity": 64}, {"time": 684, "pitch": 50, "duration": 6, "velocity": 64}, {"time": 750, "pitch": 58, "duration": 3, "velocity": 64}, {"time": 504, "pitch": 41, "duration": 3, "velocity": 64}, {"time": 708, "pitch": 50, "duration": 6, "velocity": 64}, {"time": 672, "pitch": 38, "duration": 3, "velocity": 64}, {"time": 630, "pitch": 38, "duration": 12, "velocity": 64}, {"time": 516, "pitch": 41, "duration": 6, "velocity": 64}, {"time": 546, "pitch": 48, "duration": 6, "velocity": 64}, {"time": 654, "pitch": 48, "duration": 6, "velocity": 64}, {"time": 678, "pitch": 46, "duration": 3, "velocity": 64}, {"time": 780, "pitch": 34, "duration": 6, "velocity": 64}, {"time": 804, "pitch": 46, "duration": 3, "velocity": 64}, {"time": 552, "pitch": 43, "duration": 3, "velocity": 64}, {"time": 666, "pitch": 36, "duration": 3, "velocity": 64}, {"time": 612, "pitch": 50, "duration": 6, "velocity": 64}, {"time": 828, "pitch": 48, "duration": 1, "velocity": 64}, {"time": 594, "pitch": 55, "duration": 6, "velocity": 64}, {"time": 684, "pitch": 46, "duration": 6, "velocity": 64}, {"time": 780, "pitch": 55, "duration": 6, "velocity": 64}, {"time": 702, "pitch": 48, "duration": 1, "velocity": 64}, {"time": 750, "pitch": 58, "duration": 6, "velocity": 64}, {"time": 738, "pitch": 58, "duration": 6, "velocity": 64}, {"time": 672, "pitch": 48, "duration": 12, "velocity": 64}, {"time": 786, "pitch": 41, "duration": 12, "velocity": 64}, {"time": 828, "pitch": 38, "duration": 12, "velocity": 64}, {"time": 924, "pitch": 50, "duration": 6, "velocity": 64}, {"time": 792, "pitch": 36, "duration": 3, "velocity": 64}, {"time": 822, "pitch": 48, "duration": 6, "velocity": 64}, {"time": 756, "pitch": 48, "duration": 12, "velocity": 64}, {"time": 804, "pitch": 43, "duration": 3, "velocity": 64}, {"time": 888, "pitch": 55, "duration": 6, "velocity": 64}, {"time": 828, "pitch": 60, "duration": 12, "velocity": 64}, {"time": 960, "pitch": 58, "duration": 3, "velocity": 64}, {"time": 816, "pitch": 39, "duration": 6, "velocity": 64}, {"time": 948, "pitch": 50, "duration": 3, "velocity": 64}, {"time": 822, "pitch": 48, "duration": 3, "velocity": 64}, {"time": 888, "pitch": 43, "duration": 3, "velocity": 64}, {"time": 870, "pitch": 43, "duration": 6, "velocity": 64}, {"time": 708, "pitch": 41, "duration": 3, "velocity": 64}, {"time": 816, "pitch": 57, "duration": 6, "velocity": 64}, {"time": 750, "pitch": 48, "duration": 1, "velocity": 64}, {"time": 768, "pitch": 48, "duration": 6, "velocity": 64}, {"time": 708, "pitch": 38, "duration": 5, "velocity": 64}, {"time": 834, "pitch": 55, "duration": 6, "velocity": 64}, {"time": 900, "pitch": 43, "duration": 12, "velocity": 64}, {"time": 732, "pitch": 53, "duration": 6, "velocity": 64}, {"time": 768, "pitch": 38, "duration": 3, "velocity": 64}, {"time": 870, "pitch": 46, "duration": 3, "velocity": 64}, {"time": 756, "pitch": 46, "duration": 6, "velocity": 64}, {"time": 984, "pitch": 55, "duration": 6, "velocity": 64}, {"time": 720, "pitch": 48, "duration": 6, "velocity": 64}, {"time": 762, "pitch": 46, "duration": 5, "velocity": 64}, {"time": 930, "pitch": 50, "duration": 12, "velocity": 64}, {"time": 768, "pitch": 46, "duration": 6, "velocity": 64}, {"time": 966, "pitch": 51, "duration": 6, "velocity": 64}, {"time": 846, "pitch": 53, "duration": 6, "velocity": 64}, {"time": 1026, "pitch": 53, "duration": 6, "velocity": 64}, {"time": 1002, "pitch": 43, "duration": 3, "velocity": 64}, {"time": 1152, "pitch": 57, "duration": 6, "velocity": 64}, {"time": 1020, "pitch": 55, "duration": 6, "velocity": 64}, {"time": 918, "pitch": 46, "duration": 6, "velocity": 64}, {"time": 864, "pitch": 51, "duration": 6, "velocity": 64}, {"time": 1020, "pitch": 48, "duration": 6, "velocity": 64}, {"time": 942, "pitch": 43, "duration": 6, "velocity": 64}, {"time": 996, "pitch": 55, "duration": 6, "velocity": 64}, {"time": 1266, "pitch": 48, "duration": 3, "velocity": 64}, {"time": 966, "pitch": 48, "duration": 3, "velocity": 64}, {"time": 912, "pitch": 51, "duration": 6, "velocity": 64}, {"time": 942, "pitch": 50, "duration": 6, "velocity": 64}, {"time": 1248, "pitch": 57, "duration": 12, "velocity": 64}, {"time": 1086, "pitch": 50, "duration": 12, "velocity": 64}, {"time": 1002, "pitch": 58, "duration": 6, "velocity": 64}, {"time": 1266, "pitch": 58, "duration": 6, "velocity": 64}, {"time": 966, "pitch": 45, "duration": 6, "velocity": 64}, {"time": 1020, "pitch": 51, "duration": 3, "velocity": 64}, {"time": 948, "pitch": 53, "duration": 3, "velocity": 64}, {"time": 954, "pitch": 48, "duration": 6, "velocity": 64}, {"time": 1224, "pitch": 48, "duration": 6, "velocity": 64}, {"time": 1008, "pitch": 46, "duration": 6, "velocity": 64}, {"time": 954, "pitch": 46, "duration": 6, "velocity": 64}, {"time": 1080, "pitch": 43, "duration": 12, "velocity": 64}, {"time": 1080, "pitch": 41, "duration": 3, "velocity": 64}, {"time": 984, "pitch": 55, "duration": 6, "velocity": 64}, {"time": 984, "pitch": 58, "duration": 3, "velocity": 64}, {"time": 1158, "pitch": 41, "duration": 12, "velocity": 64}, {"time": 1110, "pitch": 51, "duration": 3, "velocity": 64}, {"time": 912, "pitch": 41, "duration": 12, "velocity": 64}, {"time": 1524, "pitch": 50, "duration": 6, "velocity": 64}, {"time": 1446, "pitch": 57, "duration": 6, "velocity": 64}, {"time": 984, "pitch": 53, "duration": 6, "velocity": 64}, {"time": 1260, "pitch": 41, "duration": 6, "velocity": 64}, {"time": 1236, "pitch": 50, "duration": 6, "velocity": 64}, {"time": 1518, "pitch": 55, "duration": 6, "velocity": 64}, {"time": 1446, "pitch": 55, "duration": 6, "velocity": 64}, {"time": 1206, "pitch": 43, "duration": 6, "velocity": 64}, {"time": 1404, "pitch": 51, "duration": 6, "velocity": 64}, {"time": 966, "pitch": 45, "duration": 6, "velocity": 64}, {"time": 1224, "pitch": 55, "duration": 6, "velocity": 64}, {"time": 1224, "pitch": 41, "duration": 12, "velocity": 64}, {"time": 1314, "pitch": 58, "duration": 3, "velocity": 64}, {"time": 1200, "pitch": 50, "duration": 6, "velocity": 64}, {"time": 1332, "pitch": 48, "duration": 6, "velocity": 64}, {"time": 1338, "pitch": 50, "duration": 3, "velocity": 64}, {"time": 1530, "pitch": 41, "duration": 6, "velocity": 64}, {"time": 1440, "pitch": 48, "duration": 3, "velocity": 64}, {"time": 1476, "pitch": 43, "duration": 6, "velocity": 64}, {"time": 1272, "pitch": 48, "duration": 6, "velocity": 64}, {"time": 1542, "pitch": 53, "duration": 6, "velocity": 64}, {"time": 1302, "pitch": 46, "duration": 6, "velocity": 64}, {"time": 1494, "pitch": 41, "duration": 6, "velocity": 64}, {"time": 1536, "pitch": 53, "duration": 3, "velocity": 64}, {"time": 1794, "pitch": 43, "duration": 12, "velocity": 64}, {"time": 1332, "pitch": 55, "duration": 6, "velocity": 64}, {"time": 1482, "pitch": 55, "duration": 6, "velocity": 64}, {"time": 1392, "pitch": 50, "duration": 12, "velocity": 64}, {"time": 1308, "pitch": 48, "duration": 6, "velocity": 64}, {"time": 1590, "pitch": 55, "duration": 6, "velocity": 64}, {"time": 1554, "pitch": 43, "duration": 5, "velocity": 64}, {"time": 1506, "pitch": 46, "duration": 6, "velocity": 64}, {"time": 1674, "pitch": 62, "duration": 3, "velocity": 64}, {"time": 1446, "pitch": 46, "duration": 6, "velocity": 64}, {"time": 1800, "pitch": 60, "duration": 3, "velocity": 64}, {"time": 1470, "pitch": 50, "duration": 6, "velocity": 64}, {"time": 1398, "pitch": 48, "duration": 6, "velocity": 64}, {"time": 1794, "pitch": 60, "duration": 12, "velocity": 64}, {"time": 1596, "pitch": 48, "duration": 3, "velocity": 64}, {"time": 1800, "pitch": 62, "duration": 12, "velocity": 64}, {"time": 1506, "pitch": 53, "duration": 12, "velocity": 64}, {"time": 1584, "pitch": 51, "duration": 6, "velocity": 64}, {"time": 1464, "pitch": 46, "duration": 12, "velocity": 64}, {"time": 1692, "pitch": 57, "duration": 3, "velocity": 64}, {"time": 1698, "pitch": 51, "duration": 6, "velocity": 64}, {"time": 1560, "pitch": 46, "duration": 3, "velocity": 64}, {"time": 1530, "pitch": 58, "duration": 3, "velocity": 64}, {"time": 1692, "pitch": 45, "duration": 3, "velocity": 64}, {"time": 1602, "pitch": 50, "duration": 6, "velocity": 64}, {"time": 1512, "pitch": 50, "duration": 12, "velocity": 64}, {"time": 1596, "pitch": 53, "duration": 6, "velocity": 64}, {"time": 1806, "pitch": 46, "duration": 12, "velocity": 64}, {"time": 1566, "pitch": 51, "duration": 3, "velocity": 64}, {"time": 1512, "pitch": 57, "duration": 6, "velocity": 64}, {"time": 1446, "pitch": 48, "duration": 6, "velocity": 64}, {"time": 2028, "pitch": 53, "duration": 6, "velocity": 64}, {"time": 2022, "pitch": 41, "duration": 6, "velocity": 64}, {"time": 1866, "pitch": 55, "duration": 6, "velocity": 64}, {"time": 1908, "pitch": 55, "duration": 3, "velocity": 64}, {"time": 1596, "pitch": 57, "duration": 12, "velocity": 64}, {"time": 1812, "pitch": 51, "duration": 6, "velocity": 64}, {"time": 1770, "pitch": 58, "duration": 6, "velocity": 64}, {"time": 2052, "pitch": 51, "duration": 12, "velocity": 64}, {"time": 2052, "pitch": 51, "duration": 12, "velocity": 64}, {"time": 1848, "pitch": 50, "duration": 3, "velocity": 64}, {"time": 2058, "pitch": 46, "duration": 6, "velocity": 64}, {"time": 1584, "pitch": 50, "duration": 6, "velocity": 64}, {"time": 1968, "pitch": 51, "duration": 3, "velocity": 64}, {"time": 1998, "pitch": 55, "duration": 6, "velocity": 64}, {"time": 2232, "pitch": 58, "duration": 12, "velocity": 64}, {"time": 2064, "pitch": 58, "duration": 6, "velocity": 64}, {"time": 1842, "pitch": 43, "duration": 6, "velocity": 64}, {"time": 2052, "pitch": 53, "duration": 6, "velocity": 64}, {"time": 1812, "pitch": 48, "duration": 6, "velocity": 64}, {"time": 1998, "pitch": 43, "duration": 6, "velocity": 64}, {"time": 2088, "pitch": 51, "duration": 3, "velocity": 64}, {"time": 2016, "pitch": 53, "duration": 6, "velocity": 64}, {"time": 2028, "pitch": 53, "duration": 12, "velocity": 64}, {"time": 2040, "pitch": 62, "duration": 3, "velocity": 64}, {"time": 2148, "pitch": 41, "duration": 6, "velocity": 64}, {"time": 2100, "pitch": 58, "duration": 12, "velocity": 64}, {"time": 2010, "pitch": 53, "duration": 6, "velocity": 64}, {"time": 2058, "pitch": 45, "duration": 12, "velocity": 64}, {"time": 2130, "pitch": 43, "duration": 6, "velocity": 64}, {"time": 2148, "pitch": 58, "duration": 6, "velocity": 64}, {"time": 1884, "pitch": 62, "duration": 3, "velocity": 64}, {"time": 1848, "pitch": 43, "duration": 6, "velocity": 64}]}]}