{"metadata": {"schema_version": "0.2"}, "resolution": 12, "tempos": [{"time": 0, "qpm": 100.0}], "tracks": [{"program": 32, "is_drum": false, "notes": [{"time": 6, "pitch": 67, "duration": 6, "velocity": 64}, {"time": 0, "pitch": 50, "duration": 6, "velocity": 64}, {"time": 12, "pitch": 57, "duration": 6, "velocity": 64}, {"time": 24, "pitch": 67, "duration": 6, "velocity": 64}, {"time": 21, "pitch": 71, "duration": 3, "velocity": 64}, {"time": 66, "pitch": 76, "duration": 3, "velocity": 64}, {"time": 42, "pitch": 45, "duration": 1, "velocity": 64}, {"time": 42, "pitch": 71, "duration": 3, "velocity": 64}, {"time": 30, "pitch": 69, "duration": 3, "velocity": 64}, {"time": 18, "pitch": 69, "duration": 6, "velocity": 64}, {"time": 54, "pitch": 69, "duration": 3, "velocity": 64}, {"time": 54, "pitch": 67, "duration": 3, "velocity": 64}, {"time": 168, "pitch": 65, "duration": 3, "velocity": 64}, {"time": 60, "pitch": 67, "duration": 2, "velocity": 64}, {"time": 30, "pitch": 64, "duration": 6, "velocity": 64}, {"time": 18, "pitch": 64, "duration": 3, "velocity": 64}, {"time": 24, "pitch": 62, "duration": 3, "velocity": 64}, {"time": 96, "pitch": 40, "duration": 3, "velocity": 64}, {"time": 66, "pitch": 52, "duration": 3, "velocity": 64}, {"time": 96, "pitch": 76, "duration": 6, "velocity": 64}, {"time": 84, "pitch": 72, "duration": 3, "velocity": 64}, {"time": 84, "pitch": 74, "duration": 3, "velocity": 64}, {"time": 66, "pitch": 64, "duration": 1, "velocity": 64}, {"time": 72, "pitch": 67, "duration": 2, "velocity": 64}, {"time": 108, "pitch": 62, "duration": 3, "velocity": 64}, {"time": 60, "pitch": 69, "duration": 3, "velocity": 64}, {"time": 126, "pitch": 72, "duration": 3, "velocity": 64}, {"time": 150, "pitch": 74, "duration": 6, "velocity": 64}, {"time": 132, "pitch": 74, "duration": 3, "velocity": 64}, {"time": 192, "pitch": 64, "duration": 2, "velocity": 64}, {"time": 108, "pitch": 71, "duration": 1, "velocity": 64}, {"time": 252, "pitch": 74, "duration": 3, "velocity": 64}, {"time": 180, "pitch": 62, "duration": 3, "velocity": 64}, {"time": 78, "pitch": 57, "duration": 3, "velocity": 64}, {"time": 126, "pitch": 62, "duration": 3, "velocity": 64}, {"time": 147, "pitch": 74, "duration": 3, "velocity": 64}, {"time": 108, "pitch": 62, "duration": 3, "velocity": 64}, {"time": 129, "pitch": 76, "duration": 3, "velocity": 64}, {"time": 192, "pitch": 72, "duration": 3, "velocity": 64}, {"time": 150, "pitch": 65, "duration": 3, "velocity": 64}, {"time": 204, "pitch": 64, "duration": 6, "velocity": 64}, {"time": 162, "pitch": 65, "duration": 3, "velocity": 64}, {"time": 300, "pitch": 67, "duration": 3, "velocity": 64}, {"time": 132, "pitch": 50, "duration": 6, "velocity": 64}, {"time": 354, "pitch": 52, "duration": 3, "velocity": 64}, {"time": 264, "pitch": 65, "duration": 6, "velocity": 64}, {"time": 360, "pitch": 65, "duration": 6, "velocity": 64}, {"time": 228, "pitch": 74, "duration": 3, "velocity": 64}, {"time": 168, "pitch": 55, "duration": 3, "velocity": 64}, {"time": 282, "pitch": 72, "duration": 3, "velocity": 64}, {"time": 144, "pitch": 67, "duration": 3, "velocity": 64}, {"time": 162, "pitch": 65, "duration": 6, "velocity": 64}, {"time": 306, "pitch": 65, "duration": 6, "velocity": 64}, {"time": 258, "pitch": 76, "duration": 6, "velocity": 64}, {"time": 168, "pitch": 65, "duration": 6, "velocity": 64}, {"time": 270, "pitch": 50, "duration": 3, "velocity": 64}, {"time": 162, "pitch": 64, "duration": 6, "velocity": 64}, {"time": 204, "pitch": 67, "duration": 3, "velocity": 64}, {"time": 402, "pitch": 60, "duration": 6, "velocity": 64}, {"time": 300, "pitch": 50, "duration": 3, "velocity": 64}, {"time": 276, "pitch": 69, "duration": 3, "velocity": 64}, {"time": 438, "pitch": 62, "duration": 6, "velocity": 64}, {"time": 306, "pitch": 62, "duration": 3, "velocity": 64}, {"time": 324, "pitch": 74, "duration": 3, "velocity": 64}, {"time": 402, "pitch": 65, "duration": 6, "velocity": 64}, {"time": 378, "pitch": 64, "duration": 3, "velocity": 64}, {"time": 270, "pitch": 69, "duration": 3, "velocity": 64}, {"time": 204, "pitch": 67, "duration": 3, "velocity": 64}, {"time": 276, "pitch": 74, "duration": 3, "velocity": 64}, {"time": 294, "pitch": 60, "duration": 6, "velocity": 64}, {"time": 492, "pitch": 55, "duration": 3, "velocity": 64}, {"time": 372, "pitch": 67, "duration": 6, "velocity": 64}, {"time": 540, "pitch": 67, "duration": 6, "velocity": 64}, {"time": 384, "pitch": 71, "duration": 3, "velocity": 64}, {"time": 342, "pitch": 69, "duration": 3, "velocity": 64}, {"time": 354, "pitch": 50, "duration": 6, "velocity": 64}, {"time": 396, "pitch": 55, "duration": 3, "velocity": 64}, {"time": 354, "pitch": 67, "duration": 6, "velocity": 64}, {"time": 378, "pitch": 76, "duration": 3, "velocity": 64}, {"time": 474, "pitch": 65, "duration": 6, "velocity": 64}, {"time": 480, "pitch": 62, "duration": 3, "velocity": 64}, {"time": 480, "pitch": 72, "duration": 3, "velocity": 64}, {"time": 306, "pitch": 74, "duration": 3, "velocity": 64}, {"time": 516, "pitch": 67, "duration": 9, "velocity": 64}, {"time": 468, "pitch": 60, "duration": 3, "velocity": 64}, {"time": 594, "pitch": 74, "duration": 6, "velocity": 64}, {"time": 420, "pitch": 55, "duration": 3, "velocity": 64}, {"time": 510, "pitch": 74, "duration": 3, "velocity": 64}, {"time": 372, "pitch": 65, "duration": 6, "velocity": 64}, {"time": 438, "pitch": 64, "duration": 6, "velocity": 64}, {"time": 534, "pitch": 72, "duration": 6, "velocity": 64}, {"time": 432, "pitch": 60, "duration": 3, "velocity": 64}, {"time": 486, "pitch": 62, "duration": 3, "velocity": 64}, {"time": 636, "pitch": 64, "duration": 3, "velocity": 64}, {"time": 510, "pitch": 64, "duration": 3, "velocity": 64}, {"time": 666, "pitch": 55, "duration": 6, "velocity": 64}, {"time": 378, "pitch": 67, "duration": 3, "velocity": 64}, {"time": 606, "pitch": 57, "duration": 3, "velocity": 64}, {"time": 612, "pitch": 69, "duration": 6, "velocity": 64}, {"time": 510, "pitch": 69, "duration": 3, "velocity": 64}, {"time": 438, "pitch": 74, "duration": 3, "velocity": 64}, {"time": 540, "pitch": 67, "duration": 3, "velocity": 64}, {"time": 564, "pitch": 64, "duration": 3, "velocity": 64}, {"time": 456, "pitch": 69, "duration": 3, "velocity": 64}, {"time": 528, "pitch": 62, "duration": 3, "velocity": 64}, {"time": 534, "pitch": 71, "duration": 6, "velocity": 64}, {"time": 606, "pitch": 65, "duration": 3, "velocity": 64}, {"time": 594, "pitch": 64, "duration": 3, "velocity": 64}, {"time": 720, "pitch": 62, "duration": 3, "velocity": 64}, {"time": 624, "pitch": 76, "duration": 3, "velocity": 64}, {"time": 468, "pitch": 65, "duration": 3, "velocity": 64}, {"time": 618, "pitch": 74, "duration": 6, "velocity": 64}, {"time": 690, "pitch": 64, "duration": 1, "velocity": 64}, {"time": 618, "pitch": 65, "duration": 3, "velocity": 64}, {"time": 462, "pitch": 52, "duration": 6, "velocity": 64}, {"time": 558, "pitch": 52, "duration": 3, "velocity": 64}, {"time": 606, "pitch": 50, "duration": 2, "velocity": 64}, {"time": 588, "pitch": 71, "duration": 6, "velocity": 64}, {"time": 546, "pitch": 74, "duration": 3, "velocity": 64}, {"time": 570, "pitch": 57, "duration": 1, "velocity": 64}, {"time": 528, "pitch": 64, "duration": 6, "velocity": 64}, {"time": 648, "pitch": 72, "duration": 6, "velocity": 64}, {"time": 606, "pitch": 74, "duration": 6, "velocity": 64}, {"time": 690, "pitch": 74, "duration": 6, "velocity": 64}, {"time": 546, "pitch": 64, "duration": 3, "velocity": 64}, {"time": 732, "pitch": 57, "duration": 6, "velocity": 64}, {"time": 600, "pitch": 62, "duration": 6, "velocity": 64}, {"time": 774, "pitch": 57, "duration": 6, "velocity": 64}, {"time": 630, "pitch": 60, "duration": 3, "velocity": 64}, {"time": 642, "pitch": 65, "duration": 3, "velocity": 64}, {"time": 810, "pitch": 60, "duration": 6, "velocity": 64}, {"time": 834, "pitch": 57, "duration": 3, "velocity": 64}, {"time": 750, "pitch": 60, "duration": 3, "velocity": 64}, {"time": 582, "pitch": 76, "duration": 1, "velocity": 64}, {"time": 666, "pitch": 74, "duration": 6, "velocity": 64}, {"time": 642, "pitch": 67, "duration": 3, "velocity": 64}, {"time": 678, "pitch": 64, "duration": 3, "velocity": 64}, {"time": 1050, "pitch": 62, "duration": 6, "velocity": 64}, {"time": 660, "pitch": 67, "duration": 6, "velocity": 64}, {"time": 564, "pitch": 53, "duration": 6, "velocity": 64}, {"time": 576, "pitch": 65, "duration": 6, "velocity": 64}, {"time": 636, "pitch": 64, "duration": 3, "velocity": 64}, {"time": 576, "pitch": 57, "duration": 3, "velocity": 64}, {"time": 714, "pitch": 67, "duration": 2, "velocity": 64}, {"time": 636, "pitch": 62, "duration": 6, "velocity": 64}, {"time": 732, "pitch": 60, "duration": 3, "velocity": 64}]}]}