{"metadata": {"schema_version": "0.2"}, "resolution": 12, "tempos": [{"time": 0, "qpm": 100.0}], "tracks": [{"program": 74, "is_drum": false, "notes": [{"time": 0, "pitch": 69, "duration": 2, "velocity": 64}, {"time": 0, "pitch": 74, "duration": 1, "velocity": 64}, {"time": 12, "pitch": 69, "duration": 6, "velocity": 64}, {"time": 12, "pitch": 77, "duration": 1, "velocity": 64}, {"time": 0, "pitch": 65, "duration": 1, "velocity": 64}, {"time": 15, "pitch": 69, "duration": 3, "velocity": 64}, {"time": 12, "pitch": 77, "duration": 3, "velocity": 64}, {"time": 30, "pitch": 72, "duration": 1, "velocity": 64}, {"time": 12, "pitch": 65, "duration": 2, "velocity": 64}, {"time": 15, "pitch": 53, "duration": 3, "velocity": 64}, {"time": 27, "pitch": 71, "duration": 1, "velocity": 64}, {"time": 15, "pitch": 65, "duration": 3, "velocity": 64}, {"time": 6, "pitch": 65, "duration": 3, "velocity": 64}, {"time": 132, "pitch": 64, "duration": 3, "velocity": 64}, {"time": 96, "pitch": 74, "duration": 3, "velocity": 64}, {"time": 48, "pitch": 70, "duration": 3, "velocity": 64}, {"time": 75, "pitch": 64, "duration": 6, "velocity": 64}, {"time": 108, "pitch": 72, "duration": 3, "velocity": 64}, {"time": 102, "pitch": 69, "duration": 1, "velocity": 64}, {"time": 60, "pitch": 69, "duration": 1, "velocity": 64}, {"time": 96, "pitch": 69, "duration": 3, "velocity": 64}, {"time": 51, "pitch": 64, "duration": 2, "velocity": 64}, {"time": 66, "pitch": 62, "duration": 3, "velocity": 64}, {"time": 114, "pitch": 74, "duration": 1, "velocity": 64}, {"time": 102, "pitch": 72, "duration": 3, "velocity": 64}, {"time": 60, "pitch": 65, "duration": 1, "velocity": 64}, {"time": 60, "pitch": 55, "duration": 1, "velocity": 64}, {"time": 42, "pitch": 64, "duration": 3, "velocity": 64}, {"time": 216, "pitch": 67, "duration": 2, "velocity": 64}, {"time": 114, "pitch": 76, "duration": 2, "velocity": 64}, {"time": 78, "pitch": 64, "duration": 2, "velocity": 64}, {"time": 84, "pitch": 67, "duration": 3, "velocity": 64}, {"time": 114, "pitch": 62, "duration": 2, "velocity": 64}, {"time": 90, "pitch": 65, "duration": 1, "velocity": 64}, {"time": 120, "pitch": 67, "duration": 1, "velocity": 64}, {"time": 72, "pitch": 74, "duration": 1, "velocity": 64}, {"time": 90, "pitch": 76, "duration": 1, "velocity": 64}, {"time": 102, "pitch": 69, "duration": 3, "velocity": 64}, {"time": 96, "pitch": 72, "duration": 3, "velocity": 64}, {"time": 84, "pitch": 77, "duration": 2, "velocity": 64}, {"time": 90, "pitch": 69, "duration": 2, "velocity": 64}, {"time": 276, "pitch": 69, "duration": 2, "velocity": 64}, {"time": 102, "pitch": 64, "duration": 1, "velocity": 64}, {"time": 138, "pitch": 69, "duration": 3, "velocity": 64}, {"time": 102, "pitch": 69, "duration": 1, "velocity": 64}, {"time": 42, "pitch": 55, "duration": 6, "velocity": 64}, {"time": 120, "pitch": 67, "duration": 1, "velocity": 64}, {"time": 156, "pitch": 69, "duration": 3, "velocity": 64}, {"time": 54, "pitch": 60, "duration": 2, "velocity": 64}, {"time": 102, "pitch": 55, "duration": 2, "velocity": 64}, {"time": 156, "pitch": 72, "duration": 6, "velocity": 64}, {"time": 108, "pitch": 74, "duration": 2, "velocity": 64}, {"time": 126, "pitch": 65, "duration": 2, "velocity": 64}, {"time": 102, "pitch": 77, "duration": 1, "velocity": 64}, {"time": 78, "pitch": 69, "duration": 1, "velocity": 64}, {"time": 102, "pitch": 76, "duration": 1, "velocity": 64}, {"time": 126, "pitch": 72, "duration": 6, "velocity": 64}, {"time": 120, "pitch": 67, "duration": 3, "velocity": 64}, {"time": 84, "pitch": 72, "duration": 1, "velocity": 64}, {"time": 54, "pitch": 76, "duration": 2, "velocity": 64}, {"time": 90, "pitch": 72, "duration": 3, "velocity": 64}, {"time": 108, "pitch": 65, "duration": 1, "velocity": 64}, {"time": 147, "pitch": 64, "duration": 2, "velocity": 64}, {"time": 114, "pitch": 55, "duration": 1, "velocity": 64}, {"time": 114, "pitch": 71, "duration": 6, "velocity": 64}, {"time": 162, "pitch": 65, "duration": 6, "velocity": 64}, {"time": 240, "pitch": 72, "duration": 2, "velocity": 64}, {"time": 102, "pitch": 74, "duration": 2, "velocity": 64}, {"time": 294, "pitch": 60, "duration": 3, "velocity": 64}, {"time": 144, "pitch": 65, "duration": 3, "velocity": 64}, {"time": 168, "pitch": 74, "duration": 3, "velocity": 64}, {"time": 144, "pitch": 72, "duration": 3, "velocity": 64}, {"time": 138, "pitch": 60, "duration": 3, "velocity": 64}, {"time": 144, "pitch": 64, "duration": 2, "velocity": 64}, {"time": 282, "pitch": 65, "duration": 1, "velocity": 64}, {"time": 156, "pitch": 65, "duration": 1, "velocity": 64}, {"time": 120, "pitch": 65, "duration": 3, "velocity": 64}, {"time": 360, "pitch": 76, "duration": 1, "velocity": 64}, {"time": 300, "pitch": 72, "duration": 2, "velocity": 64}, {"time": 294, "pitch": 69, "duration": 1, "velocity": 64}, {"time": 174, "pitch": 69, "duration": 1, "velocity": 64}, {"time": 240, "pitch": 60, "duration": 2, "velocity": 64}, {"time": 198, "pitch": 76, "duration": 2, "velocity": 64}, {"time": 162, "pitch": 72, "duration": 6, "velocity": 64}, {"time": 162, "pitch": 55, "duration": 1, "velocity": 64}, {"time": 132, "pitch": 77, "duration": 1, "velocity": 64}, {"time": 318, "pitch": 71, "duration": 1, "velocity": 64}, {"time": 216, "pitch": 71, "duration": 2, "velocity": 64}, {"time": 144, "pitch": 69, "duration": 1, "velocity": 64}, {"time": 150, "pitch": 70, "duration": 2, "velocity": 64}, {"time": 174, "pitch": 55, "duration": 1, "velocity": 64}, {"time": 234, "pitch": 77, "duration": 1, "velocity": 64}, {"time": 207, "pitch": 65, "duration": 3, "velocity": 64}, {"time": 132, "pitch": 74, "duration": 2, "velocity": 64}, {"time": 132, "pitch": 74, "duration": 3, "velocity": 64}, {"time": 192, "pitch": 71, "duration": 2, "velocity": 64}, {"time": 120, "pitch": 65, "duration": 3, "velocity": 64}, {"time": 144, "pitch": 65, "duration": 2, "velocity": 64}, {"time": 156, "pitch": 79, "duration": 3, "velocity": 64}, {"time": 300, "pitch": 72, "duration": 2, "velocity": 64}, {"time": 228, "pitch": 72, "duration": 2, "velocity": 64}, {"time": 147, "pitch": 71, "duration": 1, "velocity": 64}, {"time": 132, "pitch": 74, "duration": 1, "velocity": 64}, {"time": 396, "pitch": 77, "duration": 3, "velocity": 64}, {"time": 138, "pitch": 77, "duration": 1, "velocity": 64}, {"time": 240, "pitch": 55, "duration": 3, "velocity": 64}, {"time": 111, "pitch": 72, "duration": 3, "velocity": 64}, {"time": 171, "pitch": 67, "duration": 3, "velocity": 64}, {"time": 234, "pitch": 72, "duration": 3, "velocity": 64}, {"time": 252, "pitch": 79, "duration": 3, "velocity": 64}, {"time": 396, "pitch": 65, "duration": 2, "velocity": 64}, {"time": 366, "pitch": 67, "duration": 6, "velocity": 64}, {"time": 186, "pitch": 77, "duration": 1, "velocity": 64}, {"time": 192, "pitch": 74, "duration": 2, "velocity": 64}, {"time": 216, "pitch": 79, "duration": 3, "velocity": 64}, {"time": 219, "pitch": 62, "duration": 1, "velocity": 64}, {"time": 162, "pitch": 65, "duration": 2, "velocity": 64}, {"time": 339, "pitch": 81, "duration": 1, "velocity": 64}, {"time": 363, "pitch": 62, "duration": 1, "velocity": 64}, {"time": 252, "pitch": 70, "duration": 3, "velocity": 64}, {"time": 276, "pitch": 79, "duration": 3, "velocity": 64}, {"time": 150, "pitch": 77, "duration": 3, "velocity": 64}, {"time": 264, "pitch": 74, "duration": 1, "velocity": 64}, {"time": 210, "pitch": 65, "duration": 1, "velocity": 64}, {"time": 348, "pitch": 69, "duration": 1, "velocity": 64}, {"time": 240, "pitch": 77, "duration": 1, "velocity": 64}, {"time": 246, "pitch": 77, "duration": 1, "velocity": 64}, {"time": 171, "pitch": 62, "duration": 1, "velocity": 64}, {"time": 447, "pitch": 70, "duration": 1, "velocity": 64}, {"time": 231, "pitch": 67, "duration": 3, "velocity": 64}, {"time": 339, "pitch": 77, "duration": 2, "velocity": 64}, {"time": 450, "pitch": 72, "duration": 2, "velocity": 64}, {"time": 243, "pitch": 64, "duration": 3, "velocity": 64}, {"time": 282, "pitch": 62, "duration": 1, "velocity": 64}, {"time": 366, "pitch": 76, "duration": 3, "velocity": 64}, {"time": 372, "pitch": 77, "duration": 1, "velocity": 64}, {"time": 255, "pitch": 77, "duration": 1, "velocity": 64}, {"time": 282, "pitch": 76, "duration": 2, "velocity": 64}, {"time": 450, "pitch": 62, "duration": 1, "velocity": 64}, {"time": 318, "pitch": 74, "duration": 1, "velocity": 64}, {"time": 270, "pitch": 79, "duration": 1, "velocity": 64}, {"time": 330, "pitch": 65, "duration": 3, "velocity": 64}, {"time": 228, "pitch": 74, "duration": 2, "velocity": 64}, {"time": 420, "pitch": 76, "duration": 1, "velocity": 64}, {"time": 387, "pitch": 64, "duration": 2, "velocity": 64}, {"time": 360, "pitch": 64, "duration": 1, "velocity": 64}, {"time": 303, "pitch": 76, "duration": 3, "velocity": 64}, {"time": 384, "pitch": 69, "duration": 1, "velocity": 64}, {"time": 378, "pitch": 65, "duration": 1, "velocity": 64}, {"time": 402, "pitch": 69, "duration": 2, "velocity": 64}, {"time": 315, "pitch": 77, "duration": 3, "velocity": 64}, {"time": 288, "pitch": 67, "duration": 1, "velocity": 64}, {"time": 399, "pitch": 76, "duration": 3, "velocity": 64}, {"time": 390, "pitch": 60, "duration": 1, "velocity": 64}, {"time": 522, "pitch": 74, "duration": 3, "velocity": 64}, {"time": 261, "pitch": 62, "duration": 2, "velocity": 64}, {"time": 516, "pitch": 74, "duration": 1, "velocity": 64}, {"time": 339, "pitch": 65, "duration": 1, "velocity": 64}, {"time": 411, "pitch": 60, "duration": 2, "velocity": 64}, {"time": 348, "pitch": 65, "duration": 3, "velocity": 64}, {"time": 399, "pitch": 67, "duration": 1, "velocity": 64}, {"time": 543, "pitch": 69, "duration": 2, "velocity": 64}, {"time": 387, "pitch": 77, "duration": 2, "velocity": 64}, {"time": 504, "pitch": 65, "duration": 2, "velocity": 64}, {"time": 372, "pitch": 76, "duration": 2, "velocity": 64}, {"time": 303, "pitch": 74, "duration": 1, "velocity": 64}, {"time": 372, "pitch": 62, "duration": 3, "velocity": 64}, {"time": 447, "pitch": 74, "duration": 1, "velocity": 64}, {"time": 492, "pitch": 72, "duration": 2, "velocity": 64}, {"time": 315, "pitch": 77, "duration": 3, "velocity": 64}, {"time": 483, "pitch": 65, "duration": 2, "velocity": 64}, {"time": 435, "pitch": 72, "duration": 3, "velocity": 64}, {"time": 567, "pitch": 74, "duration": 1, "velocity": 64}, {"time": 360, "pitch": 74, "duration": 2, "velocity": 64}, {"time": 603, "pitch": 76, "duration": 2, "velocity": 64}, {"time": 423, "pitch": 67, "duration": 3, "velocity": 64}, {"time": 483, "pitch": 69, "duration": 2, "velocity": 64}, {"time": 519, "pitch": 81, "duration": 3, "velocity": 64}, {"time": 267, "pitch": 60, "duration": 2, "velocity": 64}, {"time": 567, "pitch": 74, "duration": 3, "velocity": 64}, {"time": 471, "pitch": 65, "duration": 1, "velocity": 64}, {"time": 399, "pitch": 67, "duration": 1, "velocity": 64}, {"time": 528, "pitch": 74, "duration": 3, "velocity": 64}, {"time": 519, "pitch": 62, "duration": 1, "velocity": 64}, {"time": 552, "pitch": 76, "duration": 2, "velocity": 64}, {"time": 384, "pitch": 79, "duration": 1, "velocity": 64}, {"time": 411, "pitch": 77, "duration": 1, "velocity": 64}, {"time": 462, "pitch": 81, "duration": 2, "velocity": 64}, {"time": 579, "pitch": 67, "duration": 2, "velocity": 64}, {"time": 615, "pitch": 69, "duration": 1, "velocity": 64}, {"time": 459, "pitch": 67, "duration": 6, "velocity": 64}, {"time": 384, "pitch": 67, "duration": 1, "velocity": 64}, {"time": 438, "pitch": 81, "duration": 1, "velocity": 64}, {"time": 546, "pitch": 69, "duration": 2, "velocity": 64}, {"time": 528, "pitch": 69, "duration": 3, "velocity": 64}, {"time": 663, "pitch": 71, "duration": 1, "velocity": 64}, {"time": 462, "pitch": 62, "duration": 1, "velocity": 64}, {"time": 651, "pitch": 67, "duration": 3, "velocity": 64}, {"time": 483, "pitch": 74, "duration": 1, "velocity": 64}, {"time": 432, "pitch": 81, "duration": 2, "velocity": 64}, {"time": 399, "pitch": 72, "duration": 1, "velocity": 64}, {"time": 471, "pitch": 62, "duration": 3, "velocity": 64}, {"time": 543, "pitch": 65, "duration": 1, "velocity": 64}, {"time": 399, "pitch": 67, "duration": 1, "velocity": 64}, {"time": 582, "pitch": 77, "duration": 1, "velocity": 64}, {"time": 600, "pitch": 74, "duration": 1, "velocity": 64}, {"time": 516, "pitch": 76, "duration": 3, "velocity": 64}, {"time": 402, "pitch": 62, "duration": 3, "velocity": 64}, {"time": 621, "pitch": 69, "duration": 1, "velocity": 64}, {"time": 603, "pitch": 65, "duration": 1, "velocity": 64}, {"time": 432, "pitch": 67, "duration": 2, "velocity": 64}, {"time": 528, "pitch": 64, "duration": 2, "velocity": 64}, {"time": 486, "pitch": 77, "duration": 3, "velocity": 64}, {"time": 627, "pitch": 76, "duration": 1, "velocity": 64}, {"time": 483, "pitch": 74, "duration": 3, "velocity": 64}, {"time": 510, "pitch": 72, "duration": 3, "velocity": 64}, {"time": 522, "pitch": 67, "duration": 3, "velocity": 64}, {"time": 516, "pitch": 62, "duration": 1, "velocity": 64}, {"time": 531, "pitch": 67, "duration": 1, "velocity": 64}, {"time": 444, "pitch": 77, "duration": 2, "velocity": 64}, {"time": 630, "pitch": 76, "duration": 2, "velocity": 64}, {"time": 651, "pitch": 69, "duration": 1, "velocity": 64}, {"time": 399, "pitch": 76, "duration": 3, "velocity": 64}, {"time": 687, "pitch": 79, "duration": 1, "velocity": 64}, {"time": 546, "pitch": 72, "duration": 3, "velocity": 64}, {"time": 411, "pitch": 72, "duration": 1, "velocity": 64}, {"time": 570, "pitch": 76, "duration": 3, "velocity": 64}, {"time": 552, "pitch": 77, "duration": 1, "velocity": 64}, {"time": 615, "pitch": 76, "duration": 3, "velocity": 64}, {"time": 711, "pitch": 76, "duration": 3, "velocity": 64}, {"time": 531, "pitch": 74, "duration": 2, "velocity": 64}, {"time": 783, "pitch": 65, "duration": 1, "velocity": 64}, {"time": 831, "pitch": 62, "duration": 3, "velocity": 64}, {"time": 819, "pitch": 65, "duration": 3, "velocity": 64}, {"time": 579, "pitch": 74, "duration": 3, "velocity": 64}, {"time": 531, "pitch": 77, "duration": 3, "velocity": 64}, {"time": 615, "pitch": 76, "duration": 2, "velocity": 64}, {"time": 555, "pitch": 65, "duration": 6, "velocity": 64}, {"time": 678, "pitch": 65, "duration": 1, "velocity": 64}, {"time": 531, "pitch": 70, "duration": 1, "velocity": 64}, {"time": 594, "pitch": 69, "duration": 1, "velocity": 64}, {"time": 771, "pitch": 65, "duration": 1, "velocity": 64}, {"time": 843, "pitch": 74, "duration": 2, "velocity": 64}, {"time": 531, "pitch": 77, "duration": 1, "velocity": 64}, {"time": 807, "pitch": 53, "duration": 3, "velocity": 64}, {"time": 708, "pitch": 76, "duration": 3, "velocity": 64}, {"time": 534, "pitch": 62, "duration": 1, "velocity": 64}, {"time": 759, "pitch": 72, "duration": 2, "velocity": 64}, {"time": 663, "pitch": 60, "duration": 3, "velocity": 64}, {"time": 630, "pitch": 69, "duration": 2, "velocity": 64}, {"time": 612, "pitch": 70, "duration": 1, "velocity": 64}, {"time": 558, "pitch": 67, "duration": 1, "velocity": 64}, {"time": 684, "pitch": 69, "duration": 3, "velocity": 64}, {"time": 600, "pitch": 67, "duration": 2, "velocity": 64}, {"time": 642, "pitch": 64, "duration": 3, "velocity": 64}, {"time": 819, "pitch": 69, "duration": 2, "velocity": 64}, {"time": 627, "pitch": 70, "duration": 2, "velocity": 64}, {"time": 612, "pitch": 77, "duration": 1, "velocity": 64}, {"time": 663, "pitch": 64, "duration": 1, "velocity": 64}, {"time": 642, "pitch": 67, "duration": 3, "velocity": 64}, {"time": 444, "pitch": 70, "duration": 1, "velocity": 64}, {"time": 843, "pitch": 72, "duration": 1, "velocity": 64}, {"time": 567, "pitch": 64, "duration": 1, "velocity": 64}, {"time": 795, "pitch": 74, "duration": 3, "velocity": 64}, {"time": 558, "pitch": 60, "duration": 3, "velocity": 64}, {"time": 807, "pitch": 72, "duration": 1, "velocity": 64}, {"time": 663, "pitch": 77, "duration": 1, "velocity": 64}, {"time": 786, "pitch": 65, "duration": 2, "velocity": 64}, {"time": 819, "pitch": 69, "duration": 2, "velocity": 64}, {"time": 630, "pitch": 71, "duration": 2, "velocity": 64}, {"time": 846, "pitch": 62, "duration": 1, "velocity": 64}, {"time": 798, "pitch": 74, "duration": 1, "velocity": 64}, {"time": 627, "pitch": 70, "duration": 3, "velocity": 64}, {"time": 903, "pitch": 64, "duration": 1, "velocity": 64}, {"time": 867, "pitch": 69, "duration": 2, "velocity": 64}, {"time": 687, "pitch": 69, "duration": 3, "velocity": 64}, {"time": 843, "pitch": 79, "duration": 2, "velocity": 64}, {"time": 522, "pitch": 70, "duration": 1, "velocity": 64}, {"time": 855, "pitch": 76, "duration": 2, "velocity": 64}, {"time": 600, "pitch": 76, "duration": 2, "velocity": 64}, {"time": 843, "pitch": 76, "duration": 1, "velocity": 64}, {"time": 819, "pitch": 77, "duration": 1, "velocity": 64}, {"time": 894, "pitch": 77, "duration": 3, "velocity": 64}, {"time": 819, "pitch": 69, "duration": 6, "velocity": 64}, {"time": 888, "pitch": 74, "duration": 3, "velocity": 64}, {"time": 834, "pitch": 72, "duration": 3, "velocity": 64}, {"time": 843, "pitch": 67, "duration": 1, "velocity": 64}, {"time": 774, "pitch": 74, "duration": 2, "velocity": 64}, {"time": 714, "pitch": 74, "duration": 1, "velocity": 64}, {"time": 771, "pitch": 77, "duration": 1, "velocity": 64}, {"time": 870, "pitch": 74, "duration": 1, "velocity": 64}, {"time": 810, "pitch": 67, "duration": 2, "velocity": 64}, {"time": 855, "pitch": 71, "duration": 1, "velocity": 64}, {"time": 750, "pitch": 67, "duration": 1, "velocity": 64}, {"time": 819, "pitch": 70, "duration": 2, "velocity": 64}, {"time": 600, "pitch": 76, "duration": 3, "velocity": 64}, {"time": 870, "pitch": 67, "duration": 3, "velocity": 64}, {"time": 627, "pitch": 65, "duration": 1, "velocity": 64}, {"time": 906, "pitch": 76, "duration": 1, "velocity": 64}, {"time": 891, "pitch": 72, "duration": 1, "velocity": 64}, {"time": 894, "pitch": 79, "duration": 2, "velocity": 64}, {"time": 714, "pitch": 69, "duration": 3, "velocity": 64}, {"time": 795, "pitch": 74, "duration": 3, "velocity": 64}, {"time": 819, "pitch": 76, "duration": 1, "velocity": 64}, {"time": 891, "pitch": 79, "duration": 1, "velocity": 64}, {"time": 915, "pitch": 79, "duration": 1, "velocity": 64}, {"time": 876, "pitch": 74, "duration": 2, "velocity": 64}, {"time": 723, "pitch": 79, "duration": 1, "velocity": 64}, {"time": 756, "pitch": 67, "duration": 3, "velocity": 64}, {"time": 900, "pitch": 72, "duration": 1, "velocity": 64}, {"time": 867, "pitch": 65, "duration": 2, "velocity": 64}, {"time": 906, "pitch": 62, "duration": 1, "velocity": 64}, {"time": 915, "pitch": 76, "duration": 2, "velocity": 64}, {"time": 894, "pitch": 74, "duration": 2, "velocity": 64}, {"time": 768, "pitch": 76, "duration": 1, "velocity": 64}, {"time": 771, "pitch": 79, "duration": 3, "velocity": 64}, {"time": 795, "pitch": 62, "duration": 1, "velocity": 64}, {"time": 783, "pitch": 60, "duration": 3, "velocity": 64}, {"time": 1002, "pitch": 64, "duration": 1, "velocity": 64}, {"time": 855, "pitch": 70, "duration": 1, "velocity": 64}, {"time": 810, "pitch": 74, "duration": 1, "velocity": 64}, {"time": 810, "pitch": 62, "duration": 2, "velocity": 64}, {"time": 894, "pitch": 69, "duration": 1, "velocity": 64}, {"time": 912, "pitch": 76, "duration": 1, "velocity": 64}, {"time": 858, "pitch": 76, "duration": 3, "velocity": 64}, {"time": 870, "pitch": 74, "duration": 3, "velocity": 64}, {"time": 660, "pitch": 79, "duration": 1, "velocity": 64}, {"time": 987, "pitch": 76, "duration": 2, "velocity": 64}, {"time": 870, "pitch": 65, "duration": 1, "velocity": 64}, {"time": 978, "pitch": 77, "duration": 3, "velocity": 64}, {"time": 939, "pitch": 69, "duration": 3, "velocity": 64}, {"time": 930, "pitch": 70, "duration": 1, "velocity": 64}, {"time": 1032, "pitch": 79, "duration": 2, "velocity": 64}, {"time": 951, "pitch": 71, "duration": 1, "velocity": 64}, {"time": 783, "pitch": 60, "duration": 3, "velocity": 64}, {"time": 975, "pitch": 69, "duration": 3, "velocity": 64}, {"time": 1026, "pitch": 72, "duration": 2, "velocity": 64}, {"time": 774, "pitch": 65, "duration": 2, "velocity": 64}, {"time": 711, "pitch": 71, "duration": 2, "velocity": 64}, {"time": 831, "pitch": 76, "duration": 2, "velocity": 64}, {"time": 843, "pitch": 72, "duration": 3, "velocity": 64}, {"time": 882, "pitch": 65, "duration": 2, "velocity": 64}, {"time": 1098, "pitch": 79, "duration": 1, "velocity": 64}, {"time": 1026, "pitch": 64, "duration": 3, "velocity": 64}, {"time": 918, "pitch": 79, "duration": 2, "velocity": 64}, {"time": 1035, "pitch": 79, "duration": 3, "velocity": 64}]}]}