{"metadata": {"schema_version": "0.2"}, "resolution": 12, "tempos": [{"time": 0, "qpm": 100.0}], "tracks": [{"program": 74, "is_drum": false, "notes": [{"time": 0, "pitch": 70, "duration": 6, "velocity": 64}, {"time": 9, "pitch": 70, "duration": 3, "velocity": 64}, {"time": 12, "pitch": 69, "duration": 6, "velocity": 64}, {"time": 21, "pitch": 69, "duration": 3, "velocity": 64}, {"time": 24, "pitch": 67, "duration": 6, "velocity": 64}, {"time": 33, "pitch": 67, "duration": 3, "velocity": 64}, {"time": 36, "pitch": 65, "duration": 6, "velocity": 64}, {"time": 45, "pitch": 69, "duration": 3, "velocity": 64}, {"time": 48, "pitch": 70, "duration": 3, "velocity": 64}, {"time": 51, "pitch": 74, "duration": 1, "velocity": 64}, {"time": 52, "pitch": 75, "duration": 2, "velocity": 64}, {"time": 54, "pitch": 77, "duration": 3, "velocity": 64}, {"time": 57, "pitch": 77, "duration": 3, "velocity": 64}, {"time": 60, "pitch": 72, "duration": 3, "velocity": 64}, {"time": 63, "pitch": 74, "duration": 1, "velocity": 64}, {"time": 64, "pitch": 75, "duration": 2, "velocity": 64}, {"time": 66, "pitch": 77, "duration": 3, "velocity": 64}, {"time": 69, "pitch": 77, "duration": 3, "velocity": 64}, {"time": 72, "pitch": 70, "duration": 3, "velocity": 64}, {"time": 75, "pitch": 79, "duration": 1, "velocity": 64}, {"time": 76, "pitch": 79, "duration": 2, "velocity": 64}, {"time": 78, "pitch": 75, "duration": 2, "velocity": 64}, {"time": 80, "pitch": 74, "duration": 1, "velocity": 64}, {"time": 81, "pitch": 72, "duration": 1, "velocity": 64}, {"time": 82, "pitch": 70, "duration": 2, "velocity": 64}, {"time": 84, "pitch": 69, "duration": 3, "velocity": 64}, {"time": 87, "pitch": 84, "duration": 1, "velocity": 64}, {"time": 88, "pitch": 82, "duration": 2, "velocity": 64}, {"time": 90, "pitch": 81, "duration": 2, "velocity": 64}, {"time": 92, "pitch": 79, "duration": 1, "velocity": 64}, {"time": 93, "pitch": 77, "duration": 1, "velocity": 64}, {"time": 94, "pitch": 75, "duration": 2, "velocity": 64}, {"time": 96, "pitch": 74, "duration": 2, "velocity": 64}, {"time": 98, "pitch": 72, "duration": 1, "velocity": 64}, {"time": 99, "pitch": 70, "duration": 3, "velocity": 64}, {"time": 105, "pitch": 71, "duration": 3, "velocity": 64}, {"time": 108, "pitch": 72, "duration": 3, "velocity": 64}, {"time": 111, "pitch": 76, "duration": 1, "velocity": 64}, {"time": 112, "pitch": 81, "duration": 2, "velocity": 64}, {"time": 114, "pitch": 81, "duration": 2, "velocity": 64}, {"time": 116, "pitch": 79, "duration": 1, "velocity": 64}, {"time": 117, "pitch": 79, "duration": 1, "velocity": 64}, {"time": 118, "pitch": 77, "duration": 2, "velocity": 64}, {"time": 120, "pitch": 77, "duration": 2, "velocity": 64}, {"time": 122, "pitch": 76, "duration": 1, "velocity": 64}, {"time": 123, "pitch": 74, "duration": 3, "velocity": 64}, {"time": 129, "pitch": 74, "duration": 3, "velocity": 64}, {"time": 132, "pitch": 76, "duration": 3, "velocity": 64}, {"time": 135, "pitch": 79, "duration": 1, "velocity": 64}, {"time": 136, "pitch": 84, "duration": 2, "velocity": 64}, {"time": 138, "pitch": 84, "duration": 2, "velocity": 64}, {"time": 140, "pitch": 82, "duration": 1, "velocity": 64}, {"time": 141, "pitch": 82, "duration": 1, "velocity": 64}, {"time": 142, "pitch": 81, "duration": 2, "velocity": 64}, {"time": 144, "pitch": 81, "duration": 2, "velocity": 64}, {"time": 146, "pitch": 79, "duration": 1, "velocity": 64}, {"time": 147, "pitch": 77, "duration": 3, "velocity": 64}, {"time": 153, "pitch": 77, "duration": 3, "velocity": 64}, {"time": 156, "pitch": 76, "duration": 6, "velocity": 64}, {"time": 165, "pitch": 76, "duration": 3, "velocity": 64}, {"time": 168, "pitch": 74, "duration": 6, "velocity": 64}, {"time": 177, "pitch": 74, "duration": 3, "velocity": 64}, {"time": 180, "pitch": 72, "duration": 6, "velocity": 64}, {"time": 189, "pitch": 76, "duration": 3, "velocity": 64}, {"time": 192, "pitch": 77, "duration": 2, "velocity": 64}, {"time": 194, "pitch": 72, "duration": 1, "velocity": 64}, {"time": 195, "pitch": 77, "duration": 1, "velocity": 64}, {"time": 196, "pitch": 82, "duration": 2, "velocity": 64}, {"time": 198, "pitch": 79, "duration": 4, "velocity": 64}, {"time": 202, "pitch": 77, "duration": 2, "velocity": 64}, {"time": 204, "pitch": 77, "duration": 3, "velocity": 64}, {"time": 207, "pitch": 84, "duration": 1, "velocity": 64}, {"time": 208, "pitch": 82, "duration": 2, "velocity": 64}, {"time": 210, "pitch": 81, "duration": 2, "velocity": 64}, {"time": 212, "pitch": 79, "duration": 1, "velocity": 64}, {"time": 213, "pitch": 77, "duration": 1, "velocity": 64}, {"time": 214, "pitch": 75, "duration": 2, "velocity": 64}, {"time": 216, "pitch": 74, "duration": 3, "velocity": 64}, {"time": 219, "pitch": 77, "duration": 1, "velocity": 64}, {"time": 220, "pitch": 75, "duration": 2, "velocity": 64}, {"time": 222, "pitch": 74, "duration": 2, "velocity": 64}, {"time": 224, "pitch": 72, "duration": 1, "velocity": 64}, {"time": 225, "pitch": 70, "duration": 1, "velocity": 64}, {"time": 226, "pitch": 68, "duration": 2, "velocity": 64}, {"time": 228, "pitch": 67, "duration": 3, "velocity": 64}, {"time": 231, "pitch": 79, "duration": 1, "velocity": 64}, {"time": 232, "pitch": 77, "duration": 2, "velocity": 64}, {"time": 234, "pitch": 70, "duration": 3, "velocity": 64}, {"time": 237, "pitch": 74, "duration": 3, "velocity": 64}, {"time": 240, "pitch": 75, "duration": 3, "velocity": 64}, {"time": 243, "pitch": 75, "duration": 1, "velocity": 64}, {"time": 244, "pitch": 79, "duration": 2, "velocity": 64}, {"time": 246, "pitch": 79, "duration": 2, "velocity": 64}, {"time": 248, "pitch": 75, "duration": 1, "velocity": 64}, {"time": 249, "pitch": 75, "duration": 1, "velocity": 64}, {"time": 250, "pitch": 79, "duration": 2, "velocity": 64}, {"time": 252, "pitch": 79, "duration": 2, "velocity": 64}, {"time": 254, "pitch": 77, "duration": 1, "velocity": 64}, {"time": 255, "pitch": 74, "duration": 1, "velocity": 64}, {"time": 256, "pitch": 77, "duration": 2, "velocity": 64}, {"time": 258, "pitch": 77, "duration": 2, "velocity": 64}, {"time": 260, "pitch": 74, "duration": 1, "velocity": 64}, {"time": 261, "pitch": 74, "duration": 1, "velocity": 64}, {"time": 262, "pitch": 77, "duration": 2, "velocity": 64}, {"time": 264, "pitch": 77, "duration": 2, "velocity": 64}, {"time": 266, "pitch": 75, "duration": 1, "velocity": 64}, {"time": 267, "pitch": 72, "duration": 1, "velocity": 64}, {"time": 268, "pitch": 75, "duration": 2, "velocity": 64}, {"time": 270, "pitch": 75, "duration": 2, "velocity": 64}, {"time": 272, "pitch": 72, "duration": 1, "velocity": 64}, {"time": 273, "pitch": 72, "duration": 1, "velocity": 64}, {"time": 274, "pitch": 75, "duration": 2, "velocity": 64}, {"time": 276, "pitch": 75, "duration": 2, "velocity": 64}, {"time": 278, "pitch": 74, "duration": 1, "velocity": 64}, {"time": 279, "pitch": 74, "duration": 1, "velocity": 64}, {"time": 280, "pitch": 72, "duration": 2, "velocity": 64}, {"time": 282, "pitch": 79, "duration": 2, "velocity": 64}, {"time": 284, "pitch": 77, "duration": 1, "velocity": 64}, {"time": 285, "pitch": 75, "duration": 1, "velocity": 64}, {"time": 286, "pitch": 74, "duration": 2, "velocity": 64}, {"time": 288, "pitch": 72, "duration": 2, "velocity": 64}, {"time": 290, "pitch": 77, "duration": 1, "velocity": 64}, {"time": 291, "pitch": 77, "duration": 1, "velocity": 64}, {"time": 292, "pitch": 77, "duration": 2, "velocity": 64}, {"time": 294, "pitch": 77, "duration": 2, "velocity": 64}, {"time": 296, "pitch": 74, "duration": 1, "velocity": 64}, {"time": 296, "pitch": 75, "duration": 1, "velocity": 64}, {"time": 297, "pitch": 77, "duration": 1, "velocity": 64}, {"time": 298, "pitch": 69, "duration": 2, "velocity": 64}, {"time": 300, "pitch": 70, "duration": 6, "velocity": 64}, {"time": 309, "pitch": 69, "duration": 3, "velocity": 64}, {"time": 312, "pitch": 67, "duration": 2, "velocity": 64}, {"time": 314, "pitch": 82, "duration": 1, "velocity": 64}, {"time": 315, "pitch": 82, "duration": 1, "velocity": 64}, {"time": 316, "pitch": 82, "duration": 2, "velocity": 64}, {"time": 318, "pitch": 82, "duration": 2, "velocity": 64}, {"time": 320, "pitch": 79, "duration": 1, "velocity": 64}, {"time": 320, "pitch": 81, "duration": 1, "velocity": 64}, {"time": 321, "pitch": 82, "duration": 1, "velocity": 64}, {"time": 322, "pitch": 74, "duration": 2, "velocity": 64}, {"time": 324, "pitch": 75, "duration": 3, "velocity": 64}, {"time": 327, "pitch": 87, "duration": 3, "velocity": 64}, {"time": 330, "pitch": 87, "duration": 8, "velocity": 64}, {"time": 338, "pitch": 87, "duration": 1, "velocity": 64}, {"time": 339, "pitch": 86, "duration": 1, "velocity": 64}, {"time": 340, "pitch": 87, "duration": 2, "velocity": 64}, {"time": 342, "pitch": 84, "duration": 4, "velocity": 64}, {"time": 346, "pitch": 82, "duration": 2, "velocity": 64}, {"time": 348, "pitch": 82, "duration": 3, "velocity": 64}, {"time": 351, "pitch": 82, "duration": 1, "velocity": 64}, {"time": 352, "pitch": 81, "duration": 2, "velocity": 64}, {"time": 354, "pitch": 79, "duration": 2, "velocity": 64}, {"time": 356, "pitch": 77, "duration": 1, "velocity": 64}, {"time": 357, "pitch": 77, "duration": 1, "velocity": 64}, {"time": 358, "pitch": 76, "duration": 2, "velocity": 64}, {"time": 360, "pitch": 76, "duration": 3, "velocity": 64}, {"time": 363, "pitch": 70, "duration": 3, "velocity": 64}, {"time": 366, "pitch": 70, "duration": 9, "velocity": 64}, {"time": 375, "pitch": 82, "duration": 1, "velocity": 64}, {"time": 376, "pitch": 81, "duration": 2, "velocity": 64}, {"time": 378, "pitch": 81, "duration": 2, "velocity": 64}, {"time": 380, "pitch": 79, "duration": 1, "velocity": 64}, {"time": 381, "pitch": 79, "duration": 1, "velocity": 64}, {"time": 382, "pitch": 77, "duration": 2, "velocity": 64}, {"time": 384, "pitch": 77, "duration": 2, "velocity": 64}, {"time": 386, "pitch": 84, "duration": 1, "velocity": 64}, {"time": 387, "pitch": 84, "duration": 1, "velocity": 64}, {"time": 388, "pitch": 84, "duration": 2, "velocity": 64}, {"time": 390, "pitch": 84, "duration": 2, "velocity": 64}, {"time": 392, "pitch": 81, "duration": 1, "velocity": 64}, {"time": 392, "pitch": 82, "duration": 1, "velocity": 64}, {"time": 393, "pitch": 84, "duration": 1, "velocity": 64}, {"time": 394, "pitch": 75, "duration": 2, "velocity": 64}, {"time": 396, "pitch": 74, "duration": 6, "velocity": 64}, {"time": 405, "pitch": 74, "duration": 3, "velocity": 64}, {"time": 408, "pitch": 72, "duration": 2, "velocity": 64}, {"time": 410, "pitch": 79, "duration": 1, "velocity": 64}, {"time": 411, "pitch": 79, "duration": 1, "velocity": 64}, {"time": 412, "pitch": 79, "duration": 2, "velocity": 64}, {"time": 414, "pitch": 79, "duration": 2, "velocity": 64}, {"time": 416, "pitch": 75, "duration": 1, "velocity": 64}, {"time": 416, "pitch": 77, "duration": 1, "velocity": 64}, {"time": 417, "pitch": 79, "duration": 1, "velocity": 64}, {"time": 418, "pitch": 70, "duration": 2, "velocity": 64}, {"time": 420, "pitch": 69, "duration": 2, "velocity": 64}, {"time": 422, "pitch": 81, "duration": 1, "velocity": 64}, {"time": 423, "pitch": 82, "duration": 1, "velocity": 64}, {"time": 424, "pitch": 84, "duration": 2, "velocity": 64}, {"time": 426, "pitch": 81, "duration": 4, "velocity": 64}, {"time": 430, "pitch": 82, "duration": 2, "velocity": 64}, {"time": 432, "pitch": 82, "duration": 3, "velocity": 64}, {"time": 435, "pitch": 74, "duration": 1, "velocity": 64}, {"time": 436, "pitch": 70, "duration": 2, "velocity": 64}, {"time": 438, "pitch": 77, "duration": 3, "velocity": 64}, {"time": 441, "pitch": 65, "duration": 3, "velocity": 64}, {"time": 444, "pitch": 70, "duration": 6, "velocity": 64}]}]}