{"metadata": {"schema_version": "0.2"}, "resolution": 12, "tempos": [{"time": 0, "qpm": 100.0}], "tracks": [{"program": 74, "is_drum": false, "notes": [{"time": 0, "pitch": 72, "duration": 6, "velocity": 64}, {"time": 6, "pitch": 77, "duration": 6, "velocity": 64}, {"time": 12, "pitch": 74, "duration": 3, "velocity": 64}, {"time": 15, "pitch": 76, "duration": 1, "velocity": 64}, {"time": 16, "pitch": 77, "duration": 2, "velocity": 64}, {"time": 18, "pitch": 79, "duration": 3, "velocity": 64}, {"time": 21, "pitch": 77, "duration": 3, "velocity": 64}, {"time": 24, "pitch": 76, "duration": 3, "velocity": 64}, {"time": 27, "pitch": 72, "duration": 3, "velocity": 64}, {"time": 30, "pitch": 81, "duration": 3, "velocity": 64}, {"time": 33, "pitch": 72, "duration": 3, "velocity": 64}, {"time": 36, "pitch": 74, "duration": 3, "velocity": 64}, {"time": 39, "pitch": 70, "duration": 3, "velocity": 64}, {"time": 42, "pitch": 79, "duration": 3, "velocity": 64}, {"time": 45, "pitch": 70, "duration": 3, "velocity": 64}, {"time": 48, "pitch": 72, "duration": 3, "velocity": 64}, {"time": 51, "pitch": 69, "duration": 3, "velocity": 64}, {"time": 54, "pitch": 77, "duration": 3, "velocity": 64}, {"time": 57, "pitch": 69, "duration": 3, "velocity": 64}, {"time": 60, "pitch": 70, "duration": 3, "velocity": 64}, {"time": 63, "pitch": 67, "duration": 3, "velocity": 64}, {"time": 66, "pitch": 76, "duration": 3, "velocity": 64}, {"time": 69, "pitch": 67, "duration": 3, "velocity": 64}, {"time": 72, "pitch": 69, "duration": 3, "velocity": 64}, {"time": 75, "pitch": 77, "duration": 3, "velocity": 64}, {"time": 78, "pitch": 67, "duration": 3, "velocity": 64}, {"time": 81, "pitch": 76, "duration": 3, "velocity": 64}, {"time": 84, "pitch": 65, "duration": 3, "velocity": 64}, {"time": 87, "pitch": 77, "duration": 3, "velocity": 64}, {"time": 90, "pitch": 76, "duration": 3, "velocity": 64}, {"time": 93, "pitch": 72, "duration": 3, "velocity": 64}, {"time": 96, "pitch": 77, "duration": 6, "velocity": 64}, {"time": 102, "pitch": 89, "duration": 6, "velocity": 64}, {"time": 111, "pitch": 88, "duration": 1, "velocity": 64}, {"time": 112, "pitch": 86, "duration": 2, "velocity": 64}, {"time": 114, "pitch": 84, "duration": 3, "velocity": 64}, {"time": 117, "pitch": 86, "duration": 1, "velocity": 64}, {"time": 118, "pitch": 88, "duration": 2, "velocity": 64}, {"time": 120, "pitch": 77, "duration": 3, "velocity": 64}, {"time": 123, "pitch": 86, "duration": 1, "velocity": 64}, {"time": 124, "pitch": 84, "duration": 2, "velocity": 64}, {"time": 126, "pitch": 83, "duration": 3, "velocity": 64}, {"time": 129, "pitch": 84, "duration": 1, "velocity": 64}, {"time": 130, "pitch": 86, "duration": 2, "velocity": 64}, {"time": 132, "pitch": 76, "duration": 3, "velocity": 64}, {"time": 135, "pitch": 84, "duration": 1, "velocity": 64}, {"time": 136, "pitch": 83, "duration": 2, "velocity": 64}, {"time": 138, "pitch": 81, "duration": 3, "velocity": 64}, {"time": 141, "pitch": 83, "duration": 1, "velocity": 64}, {"time": 142, "pitch": 84, "duration": 2, "velocity": 64}, {"time": 144, "pitch": 74, "duration": 3, "velocity": 64}, {"time": 147, "pitch": 83, "duration": 1, "velocity": 64}, {"time": 148, "pitch": 81, "duration": 2, "velocity": 64}, {"time": 150, "pitch": 79, "duration": 3, "velocity": 64}, {"time": 153, "pitch": 81, "duration": 1, "velocity": 64}, {"time": 154, "pitch": 83, "duration": 2, "velocity": 64}, {"time": 156, "pitch": 72, "duration": 3, "velocity": 64}, {"time": 159, "pitch": 74, "duration": 1, "velocity": 64}, {"time": 160, "pitch": 76, "duration": 2, "velocity": 64}, {"time": 162, "pitch": 77, "duration": 3, "velocity": 64}, {"time": 165, "pitch": 76, "duration": 1, "velocity": 64}, {"time": 166, "pitch": 74, "duration": 2, "velocity": 64}, {"time": 168, "pitch": 76, "duration": 6, "velocity": 64}, {"time": 182, "pitch": 72, "duration": 1, "velocity": 64}, {"time": 183, "pitch": 74, "duration": 1, "velocity": 64}, {"time": 184, "pitch": 76, "duration": 2, "velocity": 64}, {"time": 186, "pitch": 77, "duration": 2, "velocity": 64}, {"time": 188, "pitch": 79, "duration": 1, "velocity": 64}, {"time": 189, "pitch": 81, "duration": 1, "velocity": 64}, {"time": 190, "pitch": 83, "duration": 2, "velocity": 64}, {"time": 192, "pitch": 84, "duration": 12, "velocity": 64}, {"time": 204, "pitch": 84, "duration": 6, "velocity": 64}, {"time": 210, "pitch": 83, "duration": 6, "velocity": 64}, {"time": 216, "pitch": 82, "duration": 6, "velocity": 64}, {"time": 222, "pitch": 81, "duration": 6, "velocity": 64}, {"time": 228, "pitch": 81, "duration": 6, "velocity": 64}, {"time": 234, "pitch": 79, "duration": 6, "velocity": 64}, {"time": 240, "pitch": 79, "duration": 6, "velocity": 64}, {"time": 246, "pitch": 78, "duration": 6, "velocity": 64}, {"time": 252, "pitch": 79, "duration": 2, "velocity": 64}, {"time": 254, "pitch": 76, "duration": 1, "velocity": 64}, {"time": 255, "pitch": 77, "duration": 1, "velocity": 64}, {"time": 256, "pitch": 79, "duration": 2, "velocity": 64}, {"time": 258, "pitch": 81, "duration": 2, "velocity": 64}, {"time": 260, "pitch": 69, "duration": 1, "velocity": 64}, {"time": 261, "pitch": 71, "duration": 1, "velocity": 64}, {"time": 262, "pitch": 72, "duration": 2, "velocity": 64}, {"time": 264, "pitch": 74, "duration": 2, "velocity": 64}, {"time": 266, "pitch": 72, "duration": 1, "velocity": 64}, {"time": 267, "pitch": 74, "duration": 1, "velocity": 64}, {"time": 268, "pitch": 76, "duration": 2, "velocity": 64}, {"time": 270, "pitch": 74, "duration": 2, "velocity": 64}, {"time": 272, "pitch": 76, "duration": 1, "velocity": 64}, {"time": 273, "pitch": 77, "duration": 1, "velocity": 64}, {"time": 274, "pitch": 79, "duration": 2, "velocity": 64}, {"time": 276, "pitch": 72, "duration": 6, "velocity": 64}, {"time": 282, "pitch": 77, "duration": 6, "velocity": 64}, {"time": 288, "pitch": 74, "duration": 3, "velocity": 64}, {"time": 291, "pitch": 76, "duration": 1, "velocity": 64}, {"time": 292, "pitch": 77, "duration": 2, "velocity": 64}, {"time": 294, "pitch": 79, "duration": 3, "velocity": 64}, {"time": 297, "pitch": 77, "duration": 3, "velocity": 64}, {"time": 300, "pitch": 76, "duration": 3, "velocity": 64}, {"time": 303, "pitch": 72, "duration": 3, "velocity": 64}, {"time": 306, "pitch": 81, "duration": 3, "velocity": 64}, {"time": 309, "pitch": 72, "duration": 3, "velocity": 64}, {"time": 312, "pitch": 74, "duration": 3, "velocity": 64}, {"time": 315, "pitch": 70, "duration": 3, "velocity": 64}, {"time": 318, "pitch": 79, "duration": 3, "velocity": 64}, {"time": 321, "pitch": 70, "duration": 3, "velocity": 64}, {"time": 324, "pitch": 72, "duration": 3, "velocity": 64}, {"time": 327, "pitch": 69, "duration": 3, "velocity": 64}, {"time": 330, "pitch": 77, "duration": 3, "velocity": 64}, {"time": 333, "pitch": 69, "duration": 3, "velocity": 64}, {"time": 336, "pitch": 70, "duration": 3, "velocity": 64}, {"time": 339, "pitch": 67, "duration": 3, "velocity": 64}, {"time": 342, "pitch": 76, "duration": 3, "velocity": 64}, {"time": 345, "pitch": 67, "duration": 3, "velocity": 64}, {"time": 348, "pitch": 69, "duration": 3, "velocity": 64}, {"time": 351, "pitch": 77, "duration": 3, "velocity": 64}, {"time": 354, "pitch": 67, "duration": 3, "velocity": 64}, {"time": 357, "pitch": 76, "duration": 3, "velocity": 64}, {"time": 360, "pitch": 65, "duration": 3, "velocity": 64}, {"time": 363, "pitch": 67, "duration": 1, "velocity": 64}, {"time": 364, "pitch": 69, "duration": 2, "velocity": 64}, {"time": 366, "pitch": 70, "duration": 3, "velocity": 64}, {"time": 369, "pitch": 69, "duration": 1, "velocity": 64}, {"time": 370, "pitch": 67, "duration": 2, "velocity": 64}, {"time": 372, "pitch": 69, "duration": 3, "velocity": 64}, {"time": 375, "pitch": 70, "duration": 1, "velocity": 64}, {"time": 376, "pitch": 72, "duration": 2, "velocity": 64}, {"time": 378, "pitch": 74, "duration": 3, "velocity": 64}, {"time": 381, "pitch": 72, "duration": 1, "velocity": 64}, {"time": 382, "pitch": 70, "duration": 2, "velocity": 64}, {"time": 384, "pitch": 72, "duration": 3, "velocity": 64}, {"time": 387, "pitch": 74, "duration": 1, "velocity": 64}, {"time": 388, "pitch": 76, "duration": 2, "velocity": 64}, {"time": 390, "pitch": 77, "duration": 3, "velocity": 64}, {"time": 393, "pitch": 76, "duration": 1, "velocity": 64}, {"time": 394, "pitch": 74, "duration": 2, "velocity": 64}, {"time": 396, "pitch": 76, "duration": 3, "velocity": 64}, {"time": 399, "pitch": 77, "duration": 1, "velocity": 64}, {"time": 400, "pitch": 79, "duration": 2, "velocity": 64}, {"time": 402, "pitch": 81, "duration": 3, "velocity": 64}, {"time": 405, "pitch": 79, "duration": 1, "velocity": 64}, {"time": 406, "pitch": 77, "duration": 2, "velocity": 64}, {"time": 408, "pitch": 79, "duration": 3, "velocity": 64}, {"time": 411, "pitch": 72, "duration": 3, "velocity": 64}, {"time": 420, "pitch": 75, "duration": 6, "velocity": 64}, {"time": 432, "pitch": 74, "duration": 6, "velocity": 64}, {"time": 444, "pitch": 78, "duration": 6, "velocity": 64}, {"time": 459, "pitch": 79, "duration": 3, "velocity": 64}, {"time": 462, "pitch": 79, "duration": 3, "velocity": 64}, {"time": 465, "pitch": 79, "duration": 3, "velocity": 64}, {"time": 468, "pitch": 76, "duration": 2, "velocity": 64}, {"time": 470, "pitch": 77, "duration": 1, "velocity": 64}, {"time": 471, "pitch": 79, "duration": 3, "velocity": 64}, {"time": 474, "pitch": 79, "duration": 3, "velocity": 64}, {"time": 477, "pitch": 79, "duration": 3, "velocity": 64}, {"time": 480, "pitch": 73, "duration": 3, "velocity": 64}, {"time": 483, "pitch": 79, "duration": 3, "velocity": 64}, {"time": 486, "pitch": 79, "duration": 3, "velocity": 64}, {"time": 489, "pitch": 79, "duration": 3, "velocity": 64}, {"time": 492, "pitch": 69, "duration": 3, "velocity": 64}, {"time": 495, "pitch": 81, "duration": 1, "velocity": 64}, {"time": 496, "pitch": 79, "duration": 2, "velocity": 64}, {"time": 498, "pitch": 81, "duration": 2, "velocity": 64}, {"time": 500, "pitch": 79, "duration": 1, "velocity": 64}, {"time": 501, "pitch": 77, "duration": 1, "velocity": 64}, {"time": 502, "pitch": 76, "duration": 2, "velocity": 64}, {"time": 504, "pitch": 77, "duration": 2, "velocity": 64}, {"time": 506, "pitch": 76, "duration": 1, "velocity": 64}, {"time": 507, "pitch": 77, "duration": 1, "velocity": 64}, {"time": 508, "pitch": 79, "duration": 2, "velocity": 64}, {"time": 510, "pitch": 77, "duration": 2, "velocity": 64}, {"time": 512, "pitch": 79, "duration": 1, "velocity": 64}, {"time": 513, "pitch": 76, "duration": 1, "velocity": 64}, {"time": 514, "pitch": 77, "duration": 2, "velocity": 64}, {"time": 516, "pitch": 79, "duration": 2, "velocity": 64}, {"time": 518, "pitch": 77, "duration": 1, "velocity": 64}, {"time": 519, "pitch": 79, "duration": 1, "velocity": 64}, {"time": 520, "pitch": 81, "duration": 2, "velocity": 64}, {"time": 522, "pitch": 79, "duration": 2, "velocity": 64}, {"time": 524, "pitch": 81, "duration": 1, "velocity": 64}, {"time": 525, "pitch": 77, "duration": 1, "velocity": 64}, {"time": 526, "pitch": 79, "duration": 2, "velocity": 64}, {"time": 528, "pitch": 81, "duration": 6, "velocity": 64}, {"time": 534, "pitch": 86, "duration": 6, "velocity": 64}, {"time": 540, "pitch": 83, "duration": 3, "velocity": 64}, {"time": 543, "pitch": 84, "duration": 1, "velocity": 64}, {"time": 544, "pitch": 86, "duration": 2, "velocity": 64}, {"time": 546, "pitch": 88, "duration": 3, "velocity": 64}, {"time": 549, "pitch": 86, "duration": 3, "velocity": 64}, {"time": 552, "pitch": 85, "duration": 3, "velocity": 64}, {"time": 555, "pitch": 81, "duration": 3, "velocity": 64}, {"time": 558, "pitch": 89, "duration": 3, "velocity": 64}, {"time": 561, "pitch": 81, "duration": 3, "velocity": 64}, {"time": 564, "pitch": 82, "duration": 3, "velocity": 64}, {"time": 567, "pitch": 79, "duration": 3, "velocity": 64}, {"time": 570, "pitch": 88, "duration": 3, "velocity": 64}, {"time": 573, "pitch": 79, "duration": 3, "velocity": 64}, {"time": 576, "pitch": 81, "duration": 3, "velocity": 64}, {"time": 579, "pitch": 77, "duration": 3, "velocity": 64}, {"time": 582, "pitch": 86, "duration": 3, "velocity": 64}, {"time": 585, "pitch": 77, "duration": 3, "velocity": 64}, {"time": 588, "pitch": 79, "duration": 3, "velocity": 64}, {"time": 591, "pitch": 76, "duration": 3, "velocity": 64}, {"time": 594, "pitch": 85, "duration": 3, "velocity": 64}, {"time": 597, "pitch": 76, "duration": 3, "velocity": 64}, {"time": 600, "pitch": 77, "duration": 3, "velocity": 64}, {"time": 603, "pitch": 86, "duration": 3, "velocity": 64}, {"time": 606, "pitch": 76, "duration": 3, "velocity": 64}, {"time": 609, "pitch": 85, "duration": 3, "velocity": 64}, {"time": 612, "pitch": 74, "duration": 3, "velocity": 64}, {"time": 615, "pitch": 76, "duration": 1, "velocity": 64}, {"time": 616, "pitch": 77, "duration": 2, "velocity": 64}, {"time": 618, "pitch": 79, "duration": 3, "velocity": 64}, {"time": 621, "pitch": 77, "duration": 1, "velocity": 64}, {"time": 622, "pitch": 76, "duration": 2, "velocity": 64}, {"time": 624, "pitch": 77, "duration": 3, "velocity": 64}, {"time": 627, "pitch": 86, "duration": 3, "velocity": 64}, {"time": 630, "pitch": 76, "duration": 3, "velocity": 64}, {"time": 633, "pitch": 85, "duration": 3, "velocity": 64}, {"time": 636, "pitch": 74, "duration": 3, "velocity": 64}, {"time": 639, "pitch": 70, "duration": 3, "velocity": 64}, {"time": 642, "pitch": 67, "duration": 3, "velocity": 64}, {"time": 645, "pitch": 69, "duration": 3, "velocity": 64}, {"time": 648, "pitch": 74, "duration": 2, "velocity": 64}, {"time": 650, "pitch": 81, "duration": 1, "velocity": 64}, {"time": 651, "pitch": 79, "duration": 1, "velocity": 64}, {"time": 652, "pitch": 81, "duration": 2, "velocity": 64}, {"time": 654, "pitch": 77, "duration": 2, "velocity": 64}, {"time": 656, "pitch": 81, "duration": 1, "velocity": 64}, {"time": 657, "pitch": 79, "duration": 1, "velocity": 64}, {"time": 658, "pitch": 81, "duration": 2, "velocity": 64}, {"time": 660, "pitch": 74, "duration": 2, "velocity": 64}, {"time": 662, "pitch": 81, "duration": 1, "velocity": 64}, {"time": 663, "pitch": 79, "duration": 1, "velocity": 64}, {"time": 664, "pitch": 81, "duration": 2, "velocity": 64}, {"time": 666, "pitch": 78, "duration": 2, "velocity": 64}, {"time": 668, "pitch": 81, "duration": 1, "velocity": 64}, {"time": 669, "pitch": 79, "duration": 1, "velocity": 64}, {"time": 670, "pitch": 81, "duration": 2, "velocity": 64}, {"time": 672, "pitch": 72, "duration": 2, "velocity": 64}, {"time": 674, "pitch": 71, "duration": 1, "velocity": 64}, {"time": 675, "pitch": 72, "duration": 1, "velocity": 64}, {"time": 676, "pitch": 74, "duration": 2, "velocity": 64}, {"time": 678, "pitch": 72, "duration": 2, "velocity": 64}, {"time": 680, "pitch": 75, "duration": 1, "velocity": 64}, {"time": 681, "pitch": 74, "duration": 1, "velocity": 64}, {"time": 682, "pitch": 72, "duration": 2, "velocity": 64}, {"time": 684, "pitch": 70, "duration": 6, "velocity": 64}, {"time": 690, "pitch": 74, "duration": 3, "velocity": 64}, {"time": 696, "pitch": 71, "duration": 3, "velocity": 64}, {"time": 702, "pitch": 67, "duration": 3, "velocity": 64}, {"time": 708, "pitch": 69, "duration": 3, "velocity": 64}, {"time": 714, "pitch": 71, "duration": 3, "velocity": 64}, {"time": 720, "pitch": 72, "duration": 6, "velocity": 64}, {"time": 726, "pitch": 77, "duration": 6, "velocity": 64}, {"time": 732, "pitch": 74, "duration": 3, "velocity": 64}, {"time": 735, "pitch": 76, "duration": 1, "velocity": 64}, {"time": 736, "pitch": 77, "duration": 2, "velocity": 64}, {"time": 738, "pitch": 79, "duration": 3, "velocity": 64}, {"time": 741, "pitch": 77, "duration": 3, "velocity": 64}, {"time": 744, "pitch": 76, "duration": 3, "velocity": 64}, {"time": 747, "pitch": 72, "duration": 3, "velocity": 64}, {"time": 750, "pitch": 87, "duration": 6, "velocity": 64}, {"time": 759, "pitch": 86, "duration": 1, "velocity": 64}, {"time": 760, "pitch": 84, "duration": 2, "velocity": 64}, {"time": 762, "pitch": 82, "duration": 3, "velocity": 64}, {"time": 765, "pitch": 84, "duration": 1, "velocity": 64}, {"time": 766, "pitch": 86, "duration": 2, "velocity": 64}, {"time": 768, "pitch": 75, "duration": 3, "velocity": 64}, {"time": 771, "pitch": 84, "duration": 1, "velocity": 64}, {"time": 772, "pitch": 82, "duration": 2, "velocity": 64}, {"time": 774, "pitch": 81, "duration": 3, "velocity": 64}, {"time": 777, "pitch": 82, "duration": 1, "velocity": 64}, {"time": 778, "pitch": 84, "duration": 2, "velocity": 64}, {"time": 780, "pitch": 74, "duration": 3, "velocity": 64}, {"time": 783, "pitch": 82, "duration": 1, "velocity": 64}, {"time": 784, "pitch": 81, "duration": 2, "velocity": 64}, {"time": 786, "pitch": 79, "duration": 3, "velocity": 64}, {"time": 789, "pitch": 81, "duration": 1, "velocity": 64}, {"time": 790, "pitch": 82, "duration": 2, "velocity": 64}, {"time": 792, "pitch": 72, "duration": 3, "velocity": 64}, {"time": 795, "pitch": 81, "duration": 1, "velocity": 64}, {"time": 796, "pitch": 79, "duration": 2, "velocity": 64}, {"time": 798, "pitch": 77, "duration": 3, "velocity": 64}, {"time": 801, "pitch": 79, "duration": 1, "velocity": 64}, {"time": 802, "pitch": 81, "duration": 2, "velocity": 64}, {"time": 804, "pitch": 70, "duration": 3, "velocity": 64}, {"time": 807, "pitch": 86, "duration": 3, "velocity": 64}, {"time": 810, "pitch": 69, "duration": 3, "velocity": 64}, {"time": 813, "pitch": 84, "duration": 3, "velocity": 64}, {"time": 816, "pitch": 74, "duration": 3, "velocity": 64}, {"time": 819, "pitch": 82, "duration": 3, "velocity": 64}, {"time": 822, "pitch": 72, "duration": 3, "velocity": 64}, {"time": 825, "pitch": 81, "duration": 3, "velocity": 64}, {"time": 828, "pitch": 70, "duration": 3, "velocity": 64}, {"time": 831, "pitch": 86, "duration": 3, "velocity": 64}, {"time": 834, "pitch": 69, "duration": 3, "velocity": 64}, {"time": 837, "pitch": 84, "duration": 3, "velocity": 64}, {"time": 840, "pitch": 74, "duration": 3, "velocity": 64}, {"time": 843, "pitch": 70, "duration": 3, "velocity": 64}, {"time": 846, "pitch": 77, "duration": 3, "velocity": 64}, {"time": 849, "pitch": 65, "duration": 3, "velocity": 64}, {"time": 852, "pitch": 70, "duration": 2, "velocity": 64}, {"time": 854, "pitch": 65, "duration": 1, "velocity": 64}, {"time": 855, "pitch": 67, "duration": 1, "velocity": 64}, {"time": 856, "pitch": 69, "duration": 2, "velocity": 64}, {"time": 858, "pitch": 70, "duration": 2, "velocity": 64}, {"time": 860, "pitch": 72, "duration": 1, "velocity": 64}, {"time": 861, "pitch": 74, "duration": 1, "velocity": 64}, {"time": 862, "pitch": 76, "duration": 2, "velocity": 64}, {"time": 864, "pitch": 77, "duration": 6, "velocity": 64}, {"time": 878, "pitch": 65, "duration": 1, "velocity": 64}, {"time": 879, "pitch": 67, "duration": 1, "velocity": 64}, {"time": 880, "pitch": 69, "duration": 2, "velocity": 64}, {"time": 882, "pitch": 70, "duration": 2, "velocity": 64}, {"time": 884, "pitch": 74, "duration": 1, "velocity": 64}, {"time": 885, "pitch": 76, "duration": 1, "velocity": 64}, {"time": 886, "pitch": 77, "duration": 2, "velocity": 64}, {"time": 888, "pitch": 79, "duration": 2, "velocity": 64}, {"time": 890, "pitch": 79, "duration": 1, "velocity": 64}, {"time": 891, "pitch": 81, "duration": 1, "velocity": 64}, {"time": 892, "pitch": 82, "duration": 2, "velocity": 64}, {"time": 894, "pitch": 84, "duration": 2, "velocity": 64}, {"time": 896, "pitch": 72, "duration": 1, "velocity": 64}, {"time": 897, "pitch": 74, "duration": 1, "velocity": 64}, {"time": 898, "pitch": 76, "duration": 2, "velocity": 64}, {"time": 900, "pitch": 77, "duration": 2, "velocity": 64}, {"time": 902, "pitch": 77, "duration": 1, "velocity": 64}, {"time": 903, "pitch": 79, "duration": 1, "velocity": 64}, {"time": 904, "pitch": 81, "duration": 2, "velocity": 64}, {"time": 906, "pitch": 82, "duration": 2, "velocity": 64}, {"time": 908, "pitch": 70, "duration": 1, "velocity": 64}, {"time": 909, "pitch": 72, "duration": 1, "velocity": 64}, {"time": 910, "pitch": 74, "duration": 2, "velocity": 64}, {"time": 912, "pitch": 76, "duration": 2, "velocity": 64}, {"time": 914, "pitch": 76, "duration": 1, "velocity": 64}, {"time": 915, "pitch": 77, "duration": 1, "velocity": 64}, {"time": 916, "pitch": 79, "duration": 2, "velocity": 64}, {"time": 918, "pitch": 81, "duration": 2, "velocity": 64}, {"time": 920, "pitch": 69, "duration": 1, "velocity": 64}, {"time": 921, "pitch": 71, "duration": 1, "velocity": 64}, {"time": 922, "pitch": 72, "duration": 2, "velocity": 64}, {"time": 924, "pitch": 74, "duration": 2, "velocity": 64}, {"time": 926, "pitch": 72, "duration": 1, "velocity": 64}, {"time": 927, "pitch": 74, "duration": 1, "velocity": 64}, {"time": 928, "pitch": 76, "duration": 2, "velocity": 64}, {"time": 930, "pitch": 74, "duration": 2, "velocity": 64}, {"time": 932, "pitch": 76, "duration": 1, "velocity": 64}, {"time": 933, "pitch": 77, "duration": 1, "velocity": 64}, {"time": 934, "pitch": 79, "duration": 2, "velocity": 64}, {"time": 936, "pitch": 72, "duration": 3, "velocity": 64}, {"time": 939, "pitch": 74, "duration": 1, "velocity": 64}, {"time": 940, "pitch": 76, "duration": 2, "velocity": 64}, {"time": 942, "pitch": 77, "duration": 12, "velocity": 64}, {"time": 954, "pitch": 76, "duration": 6, "velocity": 64}, {"time": 963, "pitch": 77, "duration": 3, "velocity": 64}, {"time": 966, "pitch": 76, "duration": 3, "velocity": 64}, {"time": 969, "pitch": 72, "duration": 3, "velocity": 64}, {"time": 972, "pitch": 77, "duration": 6, "velocity": 64}, {"time": 978, "pitch": 89, "duration": 6, "velocity": 64}, {"time": 987, "pitch": 88, "duration": 1, "velocity": 64}, {"time": 988, "pitch": 86, "duration": 2, "velocity": 64}, {"time": 990, "pitch": 84, "duration": 3, "velocity": 64}, {"time": 993, "pitch": 86, "duration": 1, "velocity": 64}, {"time": 994, "pitch": 88, "duration": 2, "velocity": 64}, {"time": 996, "pitch": 77, "duration": 3, "velocity": 64}, {"time": 999, "pitch": 86, "duration": 1, "velocity": 64}, {"time": 1000, "pitch": 84, "duration": 2, "velocity": 64}, {"time": 1002, "pitch": 83, "duration": 3, "velocity": 64}, {"time": 1005, "pitch": 84, "duration": 1, "velocity": 64}, {"time": 1006, "pitch": 86, "duration": 2, "velocity": 64}, {"time": 1008, "pitch": 76, "duration": 3, "velocity": 64}, {"time": 1011, "pitch": 84, "duration": 1, "velocity": 64}, {"time": 1012, "pitch": 83, "duration": 2, "velocity": 64}, {"time": 1014, "pitch": 81, "duration": 3, "velocity": 64}, {"time": 1017, "pitch": 83, "duration": 1, "velocity": 64}, {"time": 1018, "pitch": 84, "duration": 2, "velocity": 64}, {"time": 1020, "pitch": 77, "duration": 3, "velocity": 64}, {"time": 1023, "pitch": 83, "duration": 1, "velocity": 64}, {"time": 1024, "pitch": 81, "duration": 2, "velocity": 64}, {"time": 1026, "pitch": 79, "duration": 3, "velocity": 64}, {"time": 1029, "pitch": 81, "duration": 1, "velocity": 64}, {"time": 1030, "pitch": 83, "duration": 2, "velocity": 64}, {"time": 1032, "pitch": 72, "duration": 3, "velocity": 64}, {"time": 1035, "pitch": 74, "duration": 1, "velocity": 64}, {"time": 1036, "pitch": 76, "duration": 2, "velocity": 64}, {"time": 1038, "pitch": 77, "duration": 3, "velocity": 64}, {"time": 1041, "pitch": 76, "duration": 1, "velocity": 64}, {"time": 1042, "pitch": 74, "duration": 2, "velocity": 64}, {"time": 1044, "pitch": 76, "duration": 3, "velocity": 64}, {"time": 1047, "pitch": 84, "duration": 3, "velocity": 64}, {"time": 1050, "pitch": 74, "duration": 3, "velocity": 64}, {"time": 1053, "pitch": 83, "duration": 3, "velocity": 64}, {"time": 1056, "pitch": 72, "duration": 3, "velocity": 64}, {"time": 1059, "pitch": 74, "duration": 1, "velocity": 64}, {"time": 1060, "pitch": 76, "duration": 2, "velocity": 64}, {"time": 1062, "pitch": 77, "duration": 3, "velocity": 64}, {"time": 1065, "pitch": 76, "duration": 1, "velocity": 64}, {"time": 1066, "pitch": 74, "duration": 2, "velocity": 64}, {"time": 1068, "pitch": 76, "duration": 3, "velocity": 64}, {"time": 1071, "pitch": 77, "duration": 1, "velocity": 64}, {"time": 1072, "pitch": 79, "duration": 2, "velocity": 64}, {"time": 1074, "pitch": 81, "duration": 3, "velocity": 64}, {"time": 1077, "pitch": 79, "duration": 1, "velocity": 64}, {"time": 1078, "pitch": 77, "duration": 2, "velocity": 64}, {"time": 1080, "pitch": 79, "duration": 3, "velocity": 64}, {"time": 1083, "pitch": 72, "duration": 3, "velocity": 64}, {"time": 1089, "pitch": 69, "duration": 3, "velocity": 64}, {"time": 1092, "pitch": 70, "duration": 2, "velocity": 64}, {"time": 1094, "pitch": 69, "duration": 1, "velocity": 64}, {"time": 1095, "pitch": 70, "duration": 1, "velocity": 64}, {"time": 1096, "pitch": 72, "duration": 2, "velocity": 64}, {"time": 1098, "pitch": 74, "duration": 2, "velocity": 64}, {"time": 1100, "pitch": 72, "duration": 1, "velocity": 64}, {"time": 1101, "pitch": 74, "duration": 1, "velocity": 64}, {"time": 1102, "pitch": 76, "duration": 2, "velocity": 64}, {"time": 1104, "pitch": 77, "duration": 2, "velocity": 64}, {"time": 1106, "pitch": 76, "duration": 1, "velocity": 64}, {"time": 1107, "pitch": 77, "duration": 1, "velocity": 64}, {"time": 1108, "pitch": 79, "duration": 2, "velocity": 64}, {"time": 1110, "pitch": 81, "duration": 2, "velocity": 64}, {"time": 1112, "pitch": 79, "duration": 1, "velocity": 64}, {"time": 1113, "pitch": 81, "duration": 1, "velocity": 64}, {"time": 1114, "pitch": 82, "duration": 2, "velocity": 64}, {"time": 1116, "pitch": 84, "duration": 3, "velocity": 64}, {"time": 1119, "pitch": 72, "duration": 3, "velocity": 64}, {"time": 1122, "pitch": 74, "duration": 3, "velocity": 64}, {"time": 1125, "pitch": 70, "duration": 3, "velocity": 64}, {"time": 1128, "pitch": 72, "duration": 3, "velocity": 64}, {"time": 1131, "pitch": 69, "duration": 3, "velocity": 64}, {"time": 1134, "pitch": 70, "duration": 3, "velocity": 64}, {"time": 1137, "pitch": 72, "duration": 3, "velocity": 64}, {"time": 1142, "pitch": 65, "duration": 1, "velocity": 64}, {"time": 1143, "pitch": 67, "duration": 1, "velocity": 64}, {"time": 1144, "pitch": 69, "duration": 2, "velocity": 64}, {"time": 1146, "pitch": 70, "duration": 2, "velocity": 64}, {"time": 1148, "pitch": 69, "duration": 1, "velocity": 64}, {"time": 1149, "pitch": 70, "duration": 1, "velocity": 64}, {"time": 1150, "pitch": 72, "duration": 2, "velocity": 64}, {"time": 1152, "pitch": 77, "duration": 2, "velocity": 64}, {"time": 1154, "pitch": 65, "duration": 1, "velocity": 64}, {"time": 1155, "pitch": 67, "duration": 1, "velocity": 64}, {"time": 1156, "pitch": 69, "duration": 2, "velocity": 64}, {"time": 1158, "pitch": 70, "duration": 2, "velocity": 64}, {"time": 1160, "pitch": 69, "duration": 1, "velocity": 64}, {"time": 1161, "pitch": 70, "duration": 1, "velocity": 64}, {"time": 1162, "pitch": 72, "duration": 2, "velocity": 64}, {"time": 1164, "pitch": 74, "duration": 2, "velocity": 64}, {"time": 1166, "pitch": 72, "duration": 1, "velocity": 64}, {"time": 1167, "pitch": 74, "duration": 1, "velocity": 64}, {"time": 1168, "pitch": 76, "duration": 2, "velocity": 64}, {"time": 1170, "pitch": 77, "duration": 2, "velocity": 64}, {"time": 1172, "pitch": 69, "duration": 1, "velocity": 64}, {"time": 1173, "pitch": 70, "duration": 1, "velocity": 64}, {"time": 1174, "pitch": 72, "duration": 2, "velocity": 64}, {"time": 1176, "pitch": 74, "duration": 2, "velocity": 64}, {"time": 1178, "pitch": 72, "duration": 1, "velocity": 64}, {"time": 1179, "pitch": 74, "duration": 1, "velocity": 64}, {"time": 1180, "pitch": 76, "duration": 2, "velocity": 64}, {"time": 1182, "pitch": 77, "duration": 2, "velocity": 64}, {"time": 1184, "pitch": 76, "duration": 1, "velocity": 64}, {"time": 1185, "pitch": 77, "duration": 1, "velocity": 64}, {"time": 1186, "pitch": 79, "duration": 2, "velocity": 64}, {"time": 1188, "pitch": 81, "duration": 2, "velocity": 64}, {"time": 1190, "pitch": 72, "duration": 1, "velocity": 64}, {"time": 1191, "pitch": 74, "duration": 1, "velocity": 64}, {"time": 1192, "pitch": 76, "duration": 2, "velocity": 64}, {"time": 1194, "pitch": 77, "duration": 2, "velocity": 64}, {"time": 1196, "pitch": 76, "duration": 1, "velocity": 64}, {"time": 1197, "pitch": 77, "duration": 1, "velocity": 64}, {"time": 1198, "pitch": 79, "duration": 2, "velocity": 64}, {"time": 1200, "pitch": 81, "duration": 3, "velocity": 64}, {"time": 1203, "pitch": 79, "duration": 3, "velocity": 64}, {"time": 1206, "pitch": 81, "duration": 3, "velocity": 64}, {"time": 1209, "pitch": 74, "duration": 3, "velocity": 64}, {"time": 1212, "pitch": 72, "duration": 3, "velocity": 64}, {"time": 1215, "pitch": 77, "duration": 3, "velocity": 64}, {"time": 1218, "pitch": 70, "duration": 3, "velocity": 64}, {"time": 1221, "pitch": 72, "duration": 3, "velocity": 64}, {"time": 1224, "pitch": 65, "duration": 12, "velocity": 64}]}]}