{"metadata": {"schema_version": "0.2"}, "resolution": 12, "tempos": [{"time": 0, "qpm": 100.0}], "tracks": [{"program": 74, "is_drum": false, "notes": [{"time": 0, "pitch": 70, "duration": 3, "velocity": 64}, {"time": 3, "pitch": 70, "duration": 3, "velocity": 64}, {"time": 6, "pitch": 70, "duration": 3, "velocity": 64}, {"time": 9, "pitch": 70, "duration": 3, "velocity": 64}, {"time": 12, "pitch": 70, "duration": 3, "velocity": 64}, {"time": 15, "pitch": 72, "duration": 1, "velocity": 64}, {"time": 16, "pitch": 74, "duration": 2, "velocity": 64}, {"time": 18, "pitch": 75, "duration": 3, "velocity": 64}, {"time": 21, "pitch": 75, "duration": 3, "velocity": 64}, {"time": 24, "pitch": 75, "duration": 3, "velocity": 64}, {"time": 27, "pitch": 75, "duration": 3, "velocity": 64}, {"time": 30, "pitch": 75, "duration": 3, "velocity": 64}, {"time": 33, "pitch": 74, "duration": 1, "velocity": 64}, {"time": 34, "pitch": 72, "duration": 2, "velocity": 64}, {"time": 36, "pitch": 74, "duration": 3, "velocity": 64}, {"time": 39, "pitch": 72, "duration": 3, "velocity": 64}, {"time": 42, "pitch": 70, "duration": 3, "velocity": 64}, {"time": 45, "pitch": 72, "duration": 3, "velocity": 64}, {"time": 48, "pitch": 74, "duration": 3, "velocity": 64}, {"time": 51, "pitch": 75, "duration": 3, "velocity": 64}, {"time": 54, "pitch": 74, "duration": 3, "velocity": 64}, {"time": 57, "pitch": 72, "duration": 3, "velocity": 64}, {"time": 60, "pitch": 70, "duration": 3, "velocity": 64}, {"time": 63, "pitch": 72, "duration": 3, "velocity": 64}, {"time": 66, "pitch": 74, "duration": 3, "velocity": 64}, {"time": 69, "pitch": 76, "duration": 3, "velocity": 64}, {"time": 72, "pitch": 77, "duration": 3, "velocity": 64}, {"time": 75, "pitch": 72, "duration": 3, "velocity": 64}, {"time": 78, "pitch": 81, "duration": 3, "velocity": 64}, {"time": 81, "pitch": 72, "duration": 3, "velocity": 64}, {"time": 84, "pitch": 79, "duration": 3, "velocity": 64}, {"time": 87, "pitch": 72, "duration": 3, "velocity": 64}, {"time": 90, "pitch": 77, "duration": 3, "velocity": 64}, {"time": 93, "pitch": 72, "duration": 3, "velocity": 64}, {"time": 96, "pitch": 79, "duration": 3, "velocity": 64}, {"time": 99, "pitch": 72, "duration": 3, "velocity": 64}, {"time": 102, "pitch": 76, "duration": 3, "velocity": 64}, {"time": 105, "pitch": 72, "duration": 3, "velocity": 64}, {"time": 108, "pitch": 77, "duration": 3, "velocity": 64}, {"time": 111, "pitch": 72, "duration": 3, "velocity": 64}, {"time": 114, "pitch": 81, "duration": 3, "velocity": 64}, {"time": 117, "pitch": 72, "duration": 3, "velocity": 64}, {"time": 120, "pitch": 79, "duration": 3, "velocity": 64}, {"time": 123, "pitch": 72, "duration": 3, "velocity": 64}, {"time": 126, "pitch": 77, "duration": 3, "velocity": 64}, {"time": 129, "pitch": 72, "duration": 3, "velocity": 64}, {"time": 132, "pitch": 79, "duration": 3, "velocity": 64}, {"time": 135, "pitch": 72, "duration": 3, "velocity": 64}, {"time": 138, "pitch": 76, "duration": 3, "velocity": 64}, {"time": 141, "pitch": 72, "duration": 3, "velocity": 64}, {"time": 144, "pitch": 77, "duration": 6, "velocity": 64}, {"time": 153, "pitch": 75, "duration": 3, "velocity": 64}, {"time": 156, "pitch": 74, "duration": 3, "velocity": 64}, {"time": 159, "pitch": 72, "duration": 3, "velocity": 64}, {"time": 162, "pitch": 74, "duration": 3, "velocity": 64}, {"time": 165, "pitch": 70, "duration": 3, "velocity": 64}, {"time": 168, "pitch": 70, "duration": 3, "velocity": 64}, {"time": 171, "pitch": 70, "duration": 3, "velocity": 64}, {"time": 174, "pitch": 70, "duration": 3, "velocity": 64}, {"time": 177, "pitch": 72, "duration": 1, "velocity": 64}, {"time": 178, "pitch": 74, "duration": 2, "velocity": 64}, {"time": 180, "pitch": 75, "duration": 3, "velocity": 64}, {"time": 183, "pitch": 70, "duration": 3, "velocity": 64}, {"time": 186, "pitch": 79, "duration": 3, "velocity": 64}, {"time": 189, "pitch": 70, "duration": 3, "velocity": 64}, {"time": 192, "pitch": 77, "duration": 3, "velocity": 64}, {"time": 195, "pitch": 70, "duration": 3, "velocity": 64}, {"time": 198, "pitch": 75, "duration": 3, "velocity": 64}, {"time": 201, "pitch": 70, "duration": 3, "velocity": 64}, {"time": 204, "pitch": 77, "duration": 3, "velocity": 64}, {"time": 207, "pitch": 70, "duration": 3, "velocity": 64}, {"time": 210, "pitch": 74, "duration": 3, "velocity": 64}, {"time": 213, "pitch": 70, "duration": 3, "velocity": 64}, {"time": 216, "pitch": 75, "duration": 3, "velocity": 64}, {"time": 219, "pitch": 70, "duration": 3, "velocity": 64}, {"time": 222, "pitch": 79, "duration": 3, "velocity": 64}, {"time": 225, "pitch": 70, "duration": 3, "velocity": 64}, {"time": 228, "pitch": 77, "duration": 3, "velocity": 64}, {"time": 231, "pitch": 70, "duration": 3, "velocity": 64}, {"time": 234, "pitch": 75, "duration": 3, "velocity": 64}, {"time": 237, "pitch": 70, "duration": 3, "velocity": 64}, {"time": 240, "pitch": 77, "duration": 3, "velocity": 64}, {"time": 243, "pitch": 70, "duration": 3, "velocity": 64}, {"time": 246, "pitch": 74, "duration": 3, "velocity": 64}, {"time": 249, "pitch": 70, "duration": 3, "velocity": 64}, {"time": 252, "pitch": 75, "duration": 6, "velocity": 64}, {"time": 270, "pitch": 79, "duration": 3, "velocity": 64}, {"time": 273, "pitch": 77, "duration": 3, "velocity": 64}, {"time": 276, "pitch": 75, "duration": 3, "velocity": 64}, {"time": 279, "pitch": 74, "duration": 3, "velocity": 64}, {"time": 282, "pitch": 72, "duration": 3, "velocity": 64}, {"time": 285, "pitch": 70, "duration": 3, "velocity": 64}, {"time": 288, "pitch": 75, "duration": 3, "velocity": 64}, {"time": 291, "pitch": 74, "duration": 3, "velocity": 64}, {"time": 294, "pitch": 72, "duration": 3, "velocity": 64}, {"time": 297, "pitch": 70, "duration": 3, "velocity": 64}, {"time": 300, "pitch": 69, "duration": 3, "velocity": 64}, {"time": 303, "pitch": 67, "duration": 3, "velocity": 64}, {"time": 306, "pitch": 65, "duration": 9, "velocity": 64}, {"time": 315, "pitch": 75, "duration": 3, "velocity": 64}, {"time": 318, "pitch": 74, "duration": 3, "velocity": 64}, {"time": 321, "pitch": 72, "duration": 1, "velocity": 64}, {"time": 322, "pitch": 70, "duration": 2, "velocity": 64}, {"time": 324, "pitch": 75, "duration": 3, "velocity": 64}, {"time": 327, "pitch": 74, "duration": 1, "velocity": 64}, {"time": 328, "pitch": 72, "duration": 2, "velocity": 64}, {"time": 330, "pitch": 77, "duration": 6, "velocity": 64}, {"time": 336, "pitch": 65, "duration": 6, "velocity": 64}, {"time": 342, "pitch": 70, "duration": 3, "velocity": 64}, {"time": 345, "pitch": 77, "duration": 3, "velocity": 64}, {"time": 348, "pitch": 74, "duration": 3, "velocity": 64}, {"time": 351, "pitch": 77, "duration": 3, "velocity": 64}, {"time": 354, "pitch": 70, "duration": 3, "velocity": 64}, {"time": 357, "pitch": 77, "duration": 3, "velocity": 64}, {"time": 360, "pitch": 72, "duration": 3, "velocity": 64}, {"time": 363, "pitch": 77, "duration": 3, "velocity": 64}, {"time": 366, "pitch": 69, "duration": 3, "velocity": 64}, {"time": 369, "pitch": 77, "duration": 3, "velocity": 64}, {"time": 372, "pitch": 72, "duration": 3, "velocity": 64}, {"time": 375, "pitch": 77, "duration": 3, "velocity": 64}, {"time": 378, "pitch": 74, "duration": 6, "velocity": 64}, {"time": 384, "pitch": 70, "duration": 6, "velocity": 64}, {"time": 396, "pitch": 69, "duration": 6, "velocity": 64}, {"time": 402, "pitch": 72, "duration": 6, "velocity": 64}, {"time": 408, "pitch": 69, "duration": 6, "velocity": 64}, {"time": 414, "pitch": 70, "duration": 3, "velocity": 64}, {"time": 417, "pitch": 77, "duration": 3, "velocity": 64}, {"time": 420, "pitch": 77, "duration": 2, "velocity": 64}, {"time": 422, "pitch": 79, "duration": 2, "velocity": 64}, {"time": 424, "pitch": 77, "duration": 2, "velocity": 64}, {"time": 426, "pitch": 77, "duration": 2, "velocity": 64}, {"time": 428, "pitch": 79, "duration": 2, "velocity": 64}, {"time": 430, "pitch": 77, "duration": 2, "velocity": 64}, {"time": 435, "pitch": 77, "duration": 3, "velocity": 64}, {"time": 438, "pitch": 77, "duration": 2, "velocity": 64}, {"time": 440, "pitch": 79, "duration": 2, "velocity": 64}, {"time": 442, "pitch": 77, "duration": 2, "velocity": 64}, {"time": 444, "pitch": 77, "duration": 2, "velocity": 64}, {"time": 446, "pitch": 79, "duration": 2, "velocity": 64}, {"time": 448, "pitch": 77, "duration": 2, "velocity": 64}, {"time": 453, "pitch": 77, "duration": 3, "velocity": 64}, {"time": 456, "pitch": 79, "duration": 3, "velocity": 64}, {"time": 459, "pitch": 77, "duration": 3, "velocity": 64}, {"time": 462, "pitch": 75, "duration": 3, "velocity": 64}, {"time": 465, "pitch": 74, "duration": 3, "velocity": 64}, {"time": 468, "pitch": 75, "duration": 6, "velocity": 64}, {"time": 474, "pitch": 72, "duration": 6, "velocity": 64}, {"time": 486, "pitch": 71, "duration": 6, "velocity": 64}, {"time": 492, "pitch": 74, "duration": 6, "velocity": 64}, {"time": 498, "pitch": 71, "duration": 6, "velocity": 64}, {"time": 504, "pitch": 72, "duration": 3, "velocity": 64}, {"time": 507, "pitch": 79, "duration": 3, "velocity": 64}, {"time": 510, "pitch": 75, "duration": 3, "velocity": 64}, {"time": 513, "pitch": 79, "duration": 3, "velocity": 64}, {"time": 516, "pitch": 72, "duration": 3, "velocity": 64}, {"time": 519, "pitch": 79, "duration": 3, "velocity": 64}, {"time": 522, "pitch": 74, "duration": 3, "velocity": 64}, {"time": 525, "pitch": 79, "duration": 3, "velocity": 64}, {"time": 528, "pitch": 71, "duration": 3, "velocity": 64}, {"time": 531, "pitch": 79, "duration": 3, "velocity": 64}, {"time": 534, "pitch": 74, "duration": 3, "velocity": 64}, {"time": 537, "pitch": 79, "duration": 3, "velocity": 64}, {"time": 540, "pitch": 75, "duration": 3, "velocity": 64}, {"time": 543, "pitch": 72, "duration": 3, "velocity": 64}, {"time": 546, "pitch": 72, "duration": 3, "velocity": 64}, {"time": 549, "pitch": 72, "duration": 3, "velocity": 64}, {"time": 552, "pitch": 72, "duration": 3, "velocity": 64}, {"time": 555, "pitch": 74, "duration": 1, "velocity": 64}, {"time": 556, "pitch": 75, "duration": 2, "velocity": 64}, {"time": 558, "pitch": 77, "duration": 3, "velocity": 64}, {"time": 561, "pitch": 77, "duration": 3, "velocity": 64}, {"time": 564, "pitch": 77, "duration": 3, "velocity": 64}, {"time": 567, "pitch": 77, "duration": 3, "velocity": 64}, {"time": 570, "pitch": 77, "duration": 3, "velocity": 64}, {"time": 573, "pitch": 75, "duration": 1, "velocity": 64}, {"time": 574, "pitch": 74, "duration": 2, "velocity": 64}, {"time": 576, "pitch": 75, "duration": 6, "velocity": 64}, {"time": 582, "pitch": 79, "duration": 6, "velocity": 64}, {"time": 588, "pitch": 77, "duration": 6, "velocity": 64}, {"time": 594, "pitch": 75, "duration": 6, "velocity": 64}, {"time": 600, "pitch": 77, "duration": 6, "velocity": 64}, {"time": 606, "pitch": 74, "duration": 6, "velocity": 64}, {"time": 612, "pitch": 75, "duration": 6, "velocity": 64}, {"time": 618, "pitch": 79, "duration": 6, "velocity": 64}, {"time": 624, "pitch": 77, "duration": 6, "velocity": 64}, {"time": 630, "pitch": 75, "duration": 6, "velocity": 64}, {"time": 636, "pitch": 77, "duration": 6, "velocity": 64}, {"time": 642, "pitch": 74, "duration": 6, "velocity": 64}, {"time": 648, "pitch": 75, "duration": 6, "velocity": 64}, {"time": 660, "pitch": 74, "duration": 6, "velocity": 64}, {"time": 666, "pitch": 73, "duration": 6, "velocity": 64}, {"time": 678, "pitch": 76, "duration": 6, "velocity": 64}, {"time": 684, "pitch": 69, "duration": 6, "velocity": 64}, {"time": 690, "pitch": 73, "duration": 6, "velocity": 64}, {"time": 696, "pitch": 69, "duration": 6, "velocity": 64}, {"time": 702, "pitch": 74, "duration": 6, "velocity": 64}, {"time": 708, "pitch": 77, "duration": 15, "velocity": 64}, {"time": 723, "pitch": 76, "duration": 3, "velocity": 64}, {"time": 726, "pitch": 76, "duration": 3, "velocity": 64}, {"time": 729, "pitch": 76, "duration": 3, "velocity": 64}, {"time": 732, "pitch": 76, "duration": 3, "velocity": 64}, {"time": 735, "pitch": 77, "duration": 1, "velocity": 64}, {"time": 736, "pitch": 79, "duration": 2, "velocity": 64}, {"time": 738, "pitch": 81, "duration": 6, "velocity": 64}, {"time": 744, "pitch": 81, "duration": 15, "velocity": 64}, {"time": 759, "pitch": 79, "duration": 3, "velocity": 64}, {"time": 762, "pitch": 79, "duration": 3, "velocity": 64}, {"time": 765, "pitch": 79, "duration": 3, "velocity": 64}, {"time": 768, "pitch": 76, "duration": 3, "velocity": 64}, {"time": 771, "pitch": 72, "duration": 3, "velocity": 64}, {"time": 774, "pitch": 77, "duration": 6, "velocity": 64}, {"time": 795, "pitch": 65, "duration": 3, "velocity": 64}, {"time": 798, "pitch": 69, "duration": 3, "velocity": 64}, {"time": 801, "pitch": 72, "duration": 3, "velocity": 64}, {"time": 804, "pitch": 77, "duration": 3, "velocity": 64}, {"time": 807, "pitch": 79, "duration": 1, "velocity": 64}, {"time": 808, "pitch": 76, "duration": 2, "velocity": 64}, {"time": 810, "pitch": 77, "duration": 6, "velocity": 64}, {"time": 830, "pitch": 65, "duration": 1, "velocity": 64}, {"time": 831, "pitch": 67, "duration": 1, "velocity": 64}, {"time": 832, "pitch": 69, "duration": 2, "velocity": 64}, {"time": 834, "pitch": 70, "duration": 2, "velocity": 64}, {"time": 836, "pitch": 69, "duration": 1, "velocity": 64}, {"time": 837, "pitch": 70, "duration": 1, "velocity": 64}, {"time": 838, "pitch": 72, "duration": 2, "velocity": 64}, {"time": 840, "pitch": 74, "duration": 2, "velocity": 64}, {"time": 842, "pitch": 72, "duration": 1, "velocity": 64}, {"time": 843, "pitch": 74, "duration": 1, "velocity": 64}, {"time": 844, "pitch": 76, "duration": 2, "velocity": 64}, {"time": 846, "pitch": 77, "duration": 6, "velocity": 64}, {"time": 855, "pitch": 75, "duration": 3, "velocity": 64}, {"time": 858, "pitch": 74, "duration": 3, "velocity": 64}, {"time": 861, "pitch": 72, "duration": 3, "velocity": 64}, {"time": 864, "pitch": 74, "duration": 3, "velocity": 64}, {"time": 867, "pitch": 70, "duration": 3, "velocity": 64}, {"time": 870, "pitch": 70, "duration": 3, "velocity": 64}, {"time": 873, "pitch": 70, "duration": 3, "velocity": 64}, {"time": 876, "pitch": 70, "duration": 3, "velocity": 64}, {"time": 879, "pitch": 72, "duration": 1, "velocity": 64}, {"time": 880, "pitch": 74, "duration": 2, "velocity": 64}, {"time": 882, "pitch": 75, "duration": 3, "velocity": 64}, {"time": 885, "pitch": 75, "duration": 3, "velocity": 64}, {"time": 888, "pitch": 75, "duration": 3, "velocity": 64}, {"time": 891, "pitch": 75, "duration": 3, "velocity": 64}, {"time": 894, "pitch": 75, "duration": 3, "velocity": 64}, {"time": 897, "pitch": 74, "duration": 1, "velocity": 64}, {"time": 898, "pitch": 72, "duration": 2, "velocity": 64}, {"time": 900, "pitch": 74, "duration": 6, "velocity": 64}, {"time": 906, "pitch": 77, "duration": 6, "velocity": 64}, {"time": 912, "pitch": 75, "duration": 6, "velocity": 64}, {"time": 918, "pitch": 74, "duration": 6, "velocity": 64}, {"time": 924, "pitch": 75, "duration": 6, "velocity": 64}, {"time": 930, "pitch": 72, "duration": 6, "velocity": 64}, {"time": 936, "pitch": 74, "duration": 6, "velocity": 64}, {"time": 942, "pitch": 77, "duration": 6, "velocity": 64}, {"time": 948, "pitch": 75, "duration": 6, "velocity": 64}, {"time": 954, "pitch": 74, "duration": 6, "velocity": 64}, {"time": 960, "pitch": 75, "duration": 6, "velocity": 64}, {"time": 966, "pitch": 72, "duration": 6, "velocity": 64}, {"time": 972, "pitch": 74, "duration": 3, "velocity": 64}, {"time": 975, "pitch": 70, "duration": 1, "velocity": 64}, {"time": 976, "pitch": 74, "duration": 2, "velocity": 64}, {"time": 978, "pitch": 77, "duration": 3, "velocity": 64}, {"time": 981, "pitch": 74, "duration": 1, "velocity": 64}, {"time": 982, "pitch": 77, "duration": 2, "velocity": 64}, {"time": 984, "pitch": 74, "duration": 3, "velocity": 64}, {"time": 987, "pitch": 70, "duration": 1, "velocity": 64}, {"time": 988, "pitch": 74, "duration": 2, "velocity": 64}, {"time": 990, "pitch": 72, "duration": 3, "velocity": 64}, {"time": 993, "pitch": 67, "duration": 1, "velocity": 64}, {"time": 994, "pitch": 72, "duration": 2, "velocity": 64}, {"time": 996, "pitch": 75, "duration": 3, "velocity": 64}, {"time": 999, "pitch": 72, "duration": 1, "velocity": 64}, {"time": 1000, "pitch": 75, "duration": 2, "velocity": 64}, {"time": 1002, "pitch": 79, "duration": 3, "velocity": 64}, {"time": 1005, "pitch": 75, "duration": 1, "velocity": 64}, {"time": 1006, "pitch": 79, "duration": 2, "velocity": 64}, {"time": 1008, "pitch": 77, "duration": 3, "velocity": 64}, {"time": 1011, "pitch": 74, "duration": 1, "velocity": 64}, {"time": 1012, "pitch": 77, "duration": 2, "velocity": 64}, {"time": 1014, "pitch": 81, "duration": 3, "velocity": 64}, {"time": 1017, "pitch": 77, "duration": 1, "velocity": 64}, {"time": 1018, "pitch": 81, "duration": 2, "velocity": 64}, {"time": 1020, "pitch": 77, "duration": 3, "velocity": 64}, {"time": 1023, "pitch": 74, "duration": 1, "velocity": 64}, {"time": 1024, "pitch": 77, "duration": 2, "velocity": 64}, {"time": 1026, "pitch": 75, "duration": 3, "velocity": 64}, {"time": 1029, "pitch": 79, "duration": 1, "velocity": 64}, {"time": 1030, "pitch": 77, "duration": 2, "velocity": 64}, {"time": 1032, "pitch": 79, "duration": 3, "velocity": 64}, {"time": 1035, "pitch": 75, "duration": 1, "velocity": 64}, {"time": 1036, "pitch": 74, "duration": 2, "velocity": 64}, {"time": 1038, "pitch": 75, "duration": 3, "velocity": 64}, {"time": 1041, "pitch": 79, "duration": 1, "velocity": 64}, {"time": 1042, "pitch": 77, "duration": 2, "velocity": 64}, {"time": 1044, "pitch": 79, "duration": 3, "velocity": 64}, {"time": 1047, "pitch": 77, "duration": 3, "velocity": 64}, {"time": 1050, "pitch": 75, "duration": 3, "velocity": 64}, {"time": 1053, "pitch": 74, "duration": 3, "velocity": 64}, {"time": 1056, "pitch": 72, "duration": 3, "velocity": 64}, {"time": 1059, "pitch": 70, "duration": 3, "velocity": 64}, {"time": 1062, "pitch": 75, "duration": 3, "velocity": 64}, {"time": 1065, "pitch": 74, "duration": 3, "velocity": 64}, {"time": 1068, "pitch": 72, "duration": 3, "velocity": 64}, {"time": 1071, "pitch": 70, "duration": 3, "velocity": 64}, {"time": 1074, "pitch": 69, "duration": 3, "velocity": 64}, {"time": 1077, "pitch": 67, "duration": 3, "velocity": 64}, {"time": 1080, "pitch": 65, "duration": 6, "velocity": 64}, {"time": 1086, "pitch": 69, "duration": 6, "velocity": 64}, {"time": 1092, "pitch": 72, "duration": 6, "velocity": 64}, {"time": 1098, "pitch": 75, "duration": 9, "velocity": 64}, {"time": 1107, "pitch": 81, "duration": 3, "velocity": 64}, {"time": 1110, "pitch": 82, "duration": 3, "velocity": 64}, {"time": 1113, "pitch": 77, "duration": 3, "velocity": 64}, {"time": 1116, "pitch": 79, "duration": 3, "velocity": 64}, {"time": 1119, "pitch": 84, "duration": 3, "velocity": 64}, {"time": 1122, "pitch": 81, "duration": 9, "velocity": 64}, {"time": 1131, "pitch": 82, "duration": 3, "velocity": 64}, {"time": 1134, "pitch": 82, "duration": 18, "velocity": 64}]}]}