{"metadata": {"schema_version": "0.2"}, "resolution": 24, "tracks": [{"program": 6, "is_drum": false, "name": "Basso", "notes": [{"time": 0, "pitch": 47, "duration": 12, "velocity": 127}, {"time": 12, "pitch": 47, "duration": 6, "velocity": 127}, {"time": 18, "pitch": 49, "duration": 6, "velocity": 127}, {"time": 24, "pitch": 50, "duration": 12, "velocity": 127}, {"time": 36, "pitch": 50, "duration": 6, "velocity": 127}, {"time": 42, "pitch": 52, "duration": 6, "velocity": 127}, {"time": 48, "pitch": 54, "duration": 6, "velocity": 127}, {"time": 54, "pitch": 54, "duration": 6, "velocity": 127}, {"time": 60, "pitch": 52, "duration": 6, "velocity": 127}, {"time": 66, "pitch": 50, "duration": 6, "velocity": 127}, {"time": 72, "pitch": 49, "duration": 12, "velocity": 127}, {"time": 84, "pitch": 46, "duration": 12, "velocity": 127}, {"time": 96, "pitch": 47, "duration": 6, "velocity": 127}, {"time": 102, "pitch": 59, "duration": 6, "velocity": 127}, {"time": 108, "pitch": 57, "duration": 6, "velocity": 127}, {"time": 114, "pitch": 55, "duration": 6, "velocity": 127}, {"time": 120, "pitch": 54, "duration": 12, "velocity": 127}, {"time": 132, "pitch": 51, "duration": 12, "velocity": 127}, {"time": 144, "pitch": 52, "duration": 12, "velocity": 127}, {"time": 156, "pitch": 52, "duration": 6, "velocity": 127}, {"time": 162, "pitch": 54, "duration": 6, "velocity": 127}, {"time": 168, "pitch": 55, "duration": 18, "velocity": 127}, {"time": 186, "pitch": 56, "duration": 6, "velocity": 127}, {"time": 192, "pitch": 46, "duration": 6, "velocity": 127}, {"time": 198, "pitch": 47, "duration": 6, "velocity": 127}, {"time": 204, "pitch": 54, "duration": 6, "velocity": 127}, {"time": 210, "pitch": 42, "duration": 6, "velocity": 127}, {"time": 216, "pitch": 47, "duration": 6, "velocity": 127}, {"time": 222, "pitch": 59, "duration": 6, "velocity": 127}, {"time": 228, "pitch": 54, "duration": 6, "velocity": 127}, {"time": 234, "pitch": 59, "duration": 6, "velocity": 127}, {"time": 240, "pitch": 55, "duration": 6, "velocity": 127}, {"time": 246, "pitch": 52, "duration": 6, "velocity": 127}, {"time": 252, "pitch": 49, "duration": 6, "velocity": 127}, {"time": 258, "pitch": 45, "duration": 6, "velocity": 127}, {"time": 264, "pitch": 50, "duration": 6, "velocity": 127}, {"time": 270, "pitch": 49, "duration": 6, "velocity": 127}, {"time": 276, "pitch": 50, "duration": 6, "velocity": 127}, {"time": 282, "pitch": 45, "duration": 6, "velocity": 127}, {"time": 288, "pitch": 47, "duration": 12, "velocity": 127}, {"time": 300, "pitch": 48, "duration": 12, "velocity": 127}, {"time": 312, "pitch": 49, "duration": 6, "velocity": 127}, {"time": 318, "pitch": 61, "duration": 6, "velocity": 127}, {"time": 324, "pitch": 57, "duration": 6, "velocity": 127}, {"time": 330, "pitch": 54, "duration": 6, "velocity": 127}, {"time": 336, "pitch": 51, "duration": 12, "velocity": 127}, {"time": 348, "pitch": 47, "duration": 6, "velocity": 127}, {"time": 354, "pitch": 45, "duration": 6, "velocity": 127}, {"time": 360, "pitch": 43, "duration": 6, "velocity": 127}, {"time": 366, "pitch": 42, "duration": 6, "velocity": 127}, {"time": 372, "pitch": 40, "duration": 6, "velocity": 127}, {"time": 378, "pitch": 47, "duration": 6, "velocity": 127}, {"time": 384, "pitch": 48, "duration": 12, "velocity": 127}, {"time": 402, "pitch": 60, "duration": 6, "velocity": 127}, {"time": 408, "pitch": 51, "duration": 6, "velocity": 127}, {"time": 414, "pitch": 52, "duration": 6, "velocity": 127}, {"time": 420, "pitch": 59, "duration": 6, "velocity": 127}, {"time": 426, "pitch": 47, "duration": 6, "velocity": 127}, {"time": 432, "pitch": 52, "duration": 6, "velocity": 127}, {"time": 438, "pitch": 52, "duration": 6, "velocity": 127}, {"time": 444, "pitch": 49, "duration": 6, "velocity": 127}, {"time": 450, "pitch": 45, "duration": 6, "velocity": 127}, {"time": 456, "pitch": 50, "duration": 6, "velocity": 127}, {"time": 462, "pitch": 54, "duration": 2, "velocity": 127}, {"time": 465, "pitch": 55, "duration": 3, "velocity": 127}, {"time": 468, "pitch": 57, "duration": 6, "velocity": 127}, {"time": 474, "pitch": 45, "duration": 6, "velocity": 127}, {"time": 480, "pitch": 50, "duration": 6, "velocity": 127}, {"time": 486, "pitch": 52, "duration": 6, "velocity": 127}, {"time": 492, "pitch": 54, "duration": 6, "velocity": 127}, {"time": 498, "pitch": 42, "duration": 6, "velocity": 127}, {"time": 504, "pitch": 43, "duration": 12, "velocity": 127}, {"time": 522, "pitch": 52, "duration": 6, "velocity": 127}, {"time": 528, "pitch": 54, "duration": 6, "velocity": 127}, {"time": 534, "pitch": 54, "duration": 2, "velocity": 127}, {"time": 537, "pitch": 52, "duration": 3, "velocity": 127}, {"time": 540, "pitch": 50, "duration": 6, "velocity": 127}, {"time": 546, "pitch": 47, "duration": 6, "velocity": 127}, {"time": 552, "pitch": 52, "duration": 6, "velocity": 127}, {"time": 558, "pitch": 50, "duration": 6, "velocity": 127}, {"time": 564, "pitch": 52, "duration": 6, "velocity": 127}, {"time": 570, "pitch": 54, "duration": 6, "velocity": 127}, {"time": 576, "pitch": 55, "duration": 6, "velocity": 127}, {"time": 582, "pitch": 55, "duration": 2, "velocity": 127}, {"time": 585, "pitch": 54, "duration": 3, "velocity": 127}, {"time": 588, "pitch": 55, "duration": 6, "velocity": 127}, {"time": 594, "pitch": 52, "duration": 6, "velocity": 127}, {"time": 600, "pitch": 40, "duration": 6, "velocity": 127}, {"time": 606, "pitch": 52, "duration": 6, "velocity": 127}, {"time": 612, "pitch": 52, "duration": 6, "velocity": 127}, {"time": 618, "pitch": 50, "duration": 6, "velocity": 127}, {"time": 624, "pitch": 49, "duration": 6, "velocity": 127}, {"time": 630, "pitch": 50, "duration": 6, "velocity": 127}, {"time": 636, "pitch": 49, "duration": 6, "velocity": 127}, {"time": 642, "pitch": 47, "duration": 6, "velocity": 127}, {"time": 648, "pitch": 46, "duration": 6, "velocity": 127}, {"time": 654, "pitch": 47, "duration": 6, "velocity": 127}, {"time": 660, "pitch": 54, "duration": 6, "velocity": 127}, {"time": 666, "pitch": 42, "duration": 6, "velocity": 127}, {"time": 672, "pitch": 47, "duration": 6, "velocity": 127}, {"time": 678, "pitch": 59, "duration": 6, "velocity": 127}, {"time": 684, "pitch": 47, "duration": 12, "velocity": 127}, {"time": 702, "pitch": 59, "duration": 6, "velocity": 127}, {"time": 708, "pitch": 50, "duration": 6, "velocity": 127}, {"time": 714, "pitch": 52, "duration": 6, "velocity": 127}, {"time": 720, "pitch": 52, "duration": 6, "velocity": 127}, {"time": 726, "pitch": 54, "duration": 6, "velocity": 127}, {"time": 732, "pitch": 55, "duration": 6, "velocity": 127}, {"time": 738, "pitch": 55, "duration": 6, "velocity": 127}, {"time": 744, "pitch": 50, "duration": 6, "velocity": 127}, {"time": 750, "pitch": 52, "duration": 6, "velocity": 127}, {"time": 756, "pitch": 54, "duration": 6, "velocity": 127}, {"time": 762, "pitch": 42, "duration": 6, "velocity": 127}, {"time": 768, "pitch": 47, "duration": 48, "velocity": 127}, {"time": 942, "pitch": 54, "duration": 6, "velocity": 127}, {"time": 948, "pitch": 42, "duration": 6, "velocity": 127}, {"time": 954, "pitch": 50, "duration": 6, "velocity": 127}, {"time": 960, "pitch": 41, "duration": 6, "velocity": 127}, {"time": 966, "pitch": 49, "duration": 6, "velocity": 127}, {"time": 972, "pitch": 44, "duration": 6, "velocity": 127}, {"time": 978, "pitch": 53, "duration": 6, "velocity": 127}, {"time": 984, "pitch": 54, "duration": 6, "velocity": 127}, {"time": 990, "pitch": 49, "duration": 2, "velocity": 127}, {"time": 993, "pitch": 42, "duration": 3, "velocity": 127}, {"time": 996, "pitch": 47, "duration": 14, "velocity": 127}, {"time": 1011, "pitch": 49, "duration": 3, "velocity": 127}, {"time": 1014, "pitch": 45, "duration": 2, "velocity": 127}, {"time": 1017, "pitch": 47, "duration": 3, "velocity": 127}, {"time": 1020, "pitch": 44, "duration": 12, "velocity": 127}, {"time": 1032, "pitch": 42, "duration": 12, "velocity": 127}, {"time": 1047, "pitch": 50, "duration": 3, "velocity": 127}, {"time": 1050, "pitch": 49, "duration": 2, "velocity": 127}, {"time": 1053, "pitch": 50, "duration": 3, "velocity": 127}, {"time": 1056, "pitch": 52, "duration": 12, "velocity": 127}, {"time": 1071, "pitch": 49, "duration": 3, "velocity": 127}, {"time": 1074, "pitch": 47, "duration": 2, "velocity": 127}, {"time": 1077, "pitch": 49, "duration": 3, "velocity": 127}, {"time": 1080, "pitch": 50, "duration": 12, "velocity": 127}, {"time": 1095, "pitch": 47, "duration": 3, "velocity": 127}, {"time": 1098, "pitch": 45, "duration": 2, "velocity": 127}, {"time": 1101, "pitch": 47, "duration": 3, "velocity": 127}, {"time": 1104, "pitch": 49, "duration": 12, "velocity": 127}, {"time": 1119, "pitch": 46, "duration": 3, "velocity": 127}, {"time": 1122, "pitch": 44, "duration": 2, "velocity": 127}, {"time": 1125, "pitch": 46, "duration": 3, "velocity": 127}, {"time": 1128, "pitch": 47, "duration": 2, "velocity": 127}, {"time": 1131, "pitch": 46, "duration": 3, "velocity": 127}, {"time": 1134, "pitch": 47, "duration": 2, "velocity": 127}, {"time": 1137, "pitch": 49, "duration": 3, "velocity": 127}, {"time": 1140, "pitch": 50, "duration": 2, "velocity": 127}, {"time": 1143, "pitch": 49, "duration": 3, "velocity": 127}, {"time": 1146, "pitch": 47, "duration": 2, "velocity": 127}, {"time": 1149, "pitch": 50, "duration": 3, "velocity": 127}, {"time": 1152, "pitch": 49, "duration": 2, "velocity": 127}, {"time": 1155, "pitch": 47, "duration": 3, "velocity": 127}, {"time": 1158, "pitch": 49, "duration": 2, "velocity": 127}, {"time": 1161, "pitch": 50, "duration": 3, "velocity": 127}, {"time": 1164, "pitch": 52, "duration": 2, "velocity": 127}, {"time": 1167, "pitch": 50, "duration": 3, "velocity": 127}, {"time": 1170, "pitch": 49, "duration": 2, "velocity": 127}, {"time": 1173, "pitch": 52, "duration": 3, "velocity": 127}, {"time": 1176, "pitch": 50, "duration": 2, "velocity": 127}, {"time": 1179, "pitch": 49, "duration": 3, "velocity": 127}, {"time": 1182, "pitch": 50, "duration": 2, "velocity": 127}, {"time": 1185, "pitch": 52, "duration": 3, "velocity": 127}, {"time": 1188, "pitch": 49, "duration": 2, "velocity": 127}, {"time": 1191, "pitch": 50, "duration": 3, "velocity": 127}, {"time": 1194, "pitch": 47, "duration": 2, "velocity": 127}, {"time": 1197, "pitch": 49, "duration": 3, "velocity": 127}, {"time": 1200, "pitch": 46, "duration": 6, "velocity": 127}, {"time": 1206, "pitch": 47, "duration": 12, "velocity": 127}, {"time": 1218, "pitch": 46, "duration": 6, "velocity": 127}, {"time": 1224, "pitch": 47, "duration": 6, "velocity": 127}, {"time": 1230, "pitch": 59, "duration": 6, "velocity": 127}, {"time": 1236, "pitch": 58, "duration": 6, "velocity": 127}, {"time": 1242, "pitch": 54, "duration": 6, "velocity": 127}, {"time": 1248, "pitch": 59, "duration": 6, "velocity": 127}, {"time": 1254, "pitch": 50, "duration": 6, "velocity": 127}, {"time": 1260, "pitch": 49, "duration": 6, "velocity": 127}, {"time": 1266, "pitch": 45, "duration": 6, "velocity": 127}, {"time": 1272, "pitch": 50, "duration": 6, "velocity": 127}, {"time": 1278, "pitch": 49, "duration": 6, "velocity": 127}, {"time": 1284, "pitch": 47, "duration": 6, "velocity": 127}, {"time": 1290, "pitch": 49, "duration": 6, "velocity": 127}, {"time": 1296, "pitch": 45, "duration": 6, "velocity": 127}, {"time": 1302, "pitch": 50, "duration": 6, "velocity": 127}, {"time": 1308, "pitch": 55, "duration": 6, "velocity": 127}, {"time": 1314, "pitch": 43, "duration": 6, "velocity": 127}, {"time": 1320, "pitch": 45, "duration": 6, "velocity": 127}, {"time": 1326, "pitch": 42, "duration": 6, "velocity": 127}, {"time": 1332, "pitch": 43, "duration": 6, "velocity": 127}, {"time": 1338, "pitch": 45, "duration": 6, "velocity": 127}, {"time": 1344, "pitch": 50, "duration": 6, "velocity": 127}, {"time": 1350, "pitch": 62, "duration": 6, "velocity": 127}, {"time": 1356, "pitch": 50, "duration": 6, "velocity": 127}, {"time": 1362, "pitch": 59, "duration": 6, "velocity": 127}, {"time": 1368, "pitch": 49, "duration": 6, "velocity": 127}, {"time": 1374, "pitch": 57, "duration": 6, "velocity": 127}, {"time": 1380, "pitch": 52, "duration": 6, "velocity": 127}, {"time": 1386, "pitch": 61, "duration": 6, "velocity": 127}, {"time": 1392, "pitch": 62, "duration": 6, "velocity": 127}, {"time": 1398, "pitch": 57, "duration": 2, "velocity": 127}, {"time": 1401, "pitch": 50, "duration": 3, "velocity": 127}, {"time": 1404, "pitch": 55, "duration": 14, "velocity": 127}, {"time": 1419, "pitch": 57, "duration": 3, "velocity": 127}, {"time": 1422, "pitch": 54, "duration": 2, "velocity": 127}, {"time": 1425, "pitch": 55, "duration": 3, "velocity": 127}, {"time": 1428, "pitch": 52, "duration": 12, "velocity": 127}, {"time": 1440, "pitch": 50, "duration": 12, "velocity": 127}, {"time": 1452, "pitch": 59, "duration": 12, "velocity": 127}, {"time": 1464, "pitch": 61, "duration": 6, "velocity": 127}, {"time": 1470, "pitch": 57, "duration": 6, "velocity": 127}, {"time": 1476, "pitch": 59, "duration": 6, "velocity": 127}, {"time": 1482, "pitch": 61, "duration": 6, "velocity": 127}, {"time": 1488, "pitch": 54, "duration": 2, "velocity": 127}, {"time": 1491, "pitch": 53, "duration": 3, "velocity": 127}, {"time": 1494, "pitch": 54, "duration": 2, "velocity": 127}, {"time": 1497, "pitch": 56, "duration": 3, "velocity": 127}, {"time": 1500, "pitch": 57, "duration": 2, "velocity": 127}, {"time": 1503, "pitch": 56, "duration": 3, "velocity": 127}, {"time": 1506, "pitch": 54, "duration": 2, "velocity": 127}, {"time": 1509, "pitch": 57, "duration": 3, "velocity": 127}, {"time": 1512, "pitch": 56, "duration": 2, "velocity": 127}, {"time": 1515, "pitch": 54, "duration": 3, "velocity": 127}, {"time": 1518, "pitch": 56, "duration": 2, "velocity": 127}, {"time": 1521, "pitch": 57, "duration": 3, "velocity": 127}, {"time": 1524, "pitch": 59, "duration": 2, "velocity": 127}, {"time": 1527, "pitch": 57, "duration": 3, "velocity": 127}, {"time": 1530, "pitch": 56, "duration": 2, "velocity": 127}, {"time": 1533, "pitch": 59, "duration": 3, "velocity": 127}, {"time": 1536, "pitch": 57, "duration": 2, "velocity": 127}, {"time": 1539, "pitch": 56, "duration": 3, "velocity": 127}, {"time": 1542, "pitch": 57, "duration": 2, "velocity": 127}, {"time": 1545, "pitch": 59, "duration": 3, "velocity": 127}, {"time": 1548, "pitch": 56, "duration": 2, "velocity": 127}, {"time": 1551, "pitch": 57, "duration": 3, "velocity": 127}, {"time": 1554, "pitch": 54, "duration": 2, "velocity": 127}, {"time": 1557, "pitch": 56, "duration": 3, "velocity": 127}, {"time": 1560, "pitch": 53, "duration": 6, "velocity": 127}, {"time": 1566, "pitch": 54, "duration": 12, "velocity": 127}, {"time": 1578, "pitch": 53, "duration": 6, "velocity": 127}, {"time": 1584, "pitch": 54, "duration": 12, "velocity": 127}, {"time": 1599, "pitch": 50, "duration": 3, "velocity": 127}, {"time": 1602, "pitch": 49, "duration": 2, "velocity": 127}, {"time": 1605, "pitch": 50, "duration": 3, "velocity": 127}, {"time": 1608, "pitch": 52, "duration": 12, "velocity": 127}, {"time": 1623, "pitch": 49, "duration": 3, "velocity": 127}, {"time": 1626, "pitch": 47, "duration": 2, "velocity": 127}, {"time": 1629, "pitch": 49, "duration": 3, "velocity": 127}, {"time": 1632, "pitch": 50, "duration": 12, "velocity": 127}, {"time": 1647, "pitch": 47, "duration": 3, "velocity": 127}, {"time": 1650, "pitch": 45, "duration": 2, "velocity": 127}, {"time": 1653, "pitch": 47, "duration": 3, "velocity": 127}, {"time": 1656, "pitch": 49, "duration": 12, "velocity": 127}, {"time": 1671, "pitch": 46, "duration": 3, "velocity": 127}, {"time": 1674, "pitch": 44, "duration": 2, "velocity": 127}, {"time": 1677, "pitch": 46, "duration": 3, "velocity": 127}, {"time": 1680, "pitch": 47, "duration": 2, "velocity": 127}, {"time": 1683, "pitch": 50, "duration": 3, "velocity": 127}, {"time": 1686, "pitch": 52, "duration": 2, "velocity": 127}, {"time": 1689, "pitch": 50, "duration": 3, "velocity": 127}, {"time": 1692, "pitch": 49, "duration": 2, "velocity": 127}, {"time": 1695, "pitch": 50, "duration": 3, "velocity": 127}, {"time": 1698, "pitch": 47, "duration": 2, "velocity": 127}, {"time": 1701, "pitch": 49, "duration": 3, "velocity": 127}, {"time": 1704, "pitch": 46, "duration": 6, "velocity": 127}, {"time": 1710, "pitch": 47, "duration": 6, "velocity": 127}, {"time": 1716, "pitch": 40, "duration": 6, "velocity": 127}, {"time": 1722, "pitch": 42, "duration": 6, "velocity": 127}, {"time": 1728, "pitch": 47, "duration": 6, "velocity": 127}, {"time": 1734, "pitch": 59, "duration": 6, "velocity": 127}, {"time": 1740, "pitch": 47, "duration": 6, "velocity": 127}, {"time": 1746, "pitch": 55, "duration": 6, "velocity": 127}, {"time": 1752, "pitch": 46, "duration": 6, "velocity": 127}, {"time": 1758, "pitch": 54, "duration": 6, "velocity": 127}, {"time": 1764, "pitch": 49, "duration": 6, "velocity": 127}, {"time": 1770, "pitch": 58, "duration": 6, "velocity": 127}, {"time": 1776, "pitch": 59, "duration": 6, "velocity": 127}, {"time": 1782, "pitch": 54, "duration": 2, "velocity": 127}, {"time": 1785, "pitch": 50, "duration": 3, "velocity": 127}, {"time": 1788, "pitch": 52, "duration": 14, "velocity": 127}, {"time": 1803, "pitch": 54, "duration": 3, "velocity": 127}, {"time": 1806, "pitch": 50, "duration": 2, "velocity": 127}, {"time": 1809, "pitch": 52, "duration": 3, "velocity": 127}, {"time": 1812, "pitch": 49, "duration": 12, "velocity": 127}, {"time": 1824, "pitch": 51, "duration": 6, "velocity": 127}, {"time": 1830, "pitch": 52, "duration": 6, "velocity": 127}, {"time": 1836, "pitch": 45, "duration": 12, "velocity": 127}, {"time": 1848, "pitch": 47, "duration": 6, "velocity": 127}, {"time": 1854, "pitch": 43, "duration": 6, "velocity": 127}, {"time": 1860, "pitch": 48, "duration": 6, "velocity": 127}, {"time": 1866, "pitch": 45, "duration": 6, "velocity": 127}, {"time": 1872, "pitch": 47, "duration": 6, "velocity": 127}, {"time": 1878, "pitch": 52, "duration": 6, "velocity": 127}, {"time": 1884, "pitch": 59, "duration": 6, "velocity": 127}, {"time": 1890, "pitch": 47, "duration": 6, "velocity": 127}, {"time": 1896, "pitch": 52, "duration": 12, "velocity": 127}, {"time": 1908, "pitch": 59, "duration": 2, "velocity": 127}, {"time": 1911, "pitch": 57, "duration": 3, "velocity": 127}, {"time": 1914, "pitch": 55, "duration": 2, "velocity": 127}, {"time": 1917, "pitch": 54, "duration": 3, "velocity": 127}, {"time": 1920, "pitch": 52, "duration": 12, "velocity": 127}, {"time": 1932, "pitch": 59, "duration": 2, "velocity": 127}, {"time": 1935, "pitch": 57, "duration": 3, "velocity": 127}, {"time": 1938, "pitch": 55, "duration": 2, "velocity": 127}, {"time": 1941, "pitch": 54, "duration": 3, "velocity": 127}, {"time": 1944, "pitch": 52, "duration": 6, "velocity": 127}, {"time": 1950, "pitch": 55, "duration": 6, "velocity": 127}, {"time": 1956, "pitch": 57, "duration": 2, "velocity": 127}, {"time": 1959, "pitch": 55, "duration": 3, "velocity": 127}, {"time": 1962, "pitch": 54, "duration": 2, "velocity": 127}, {"time": 1965, "pitch": 52, "duration": 3, "velocity": 127}, {"time": 1968, "pitch": 50, "duration": 12, "velocity": 127}, {"time": 1980, "pitch": 57, "duration": 2, "velocity": 127}, {"time": 1983, "pitch": 55, "duration": 3, "velocity": 127}, {"time": 1986, "pitch": 54, "duration": 2, "velocity": 127}, {"time": 1989, "pitch": 52, "duration": 3, "velocity": 127}, {"time": 1992, "pitch": 50, "duration": 6, "velocity": 127}, {"time": 1998, "pitch": 52, "duration": 6, "velocity": 127}, {"time": 2004, "pitch": 54, "duration": 2, "velocity": 127}, {"time": 2007, "pitch": 52, "duration": 3, "velocity": 127}, {"time": 2010, "pitch": 50, "duration": 2, "velocity": 127}, {"time": 2013, "pitch": 49, "duration": 3, "velocity": 127}, {"time": 2016, "pitch": 47, "duration": 12, "velocity": 127}, {"time": 2028, "pitch": 54, "duration": 2, "velocity": 127}, {"time": 2031, "pitch": 52, "duration": 3, "velocity": 127}, {"time": 2034, "pitch": 50, "duration": 2, "velocity": 127}, {"time": 2037, "pitch": 49, "duration": 3, "velocity": 127}, {"time": 2040, "pitch": 47, "duration": 2, "velocity": 127}, {"time": 2043, "pitch": 45, "duration": 3, "velocity": 127}, {"time": 2046, "pitch": 47, "duration": 2, "velocity": 127}, {"time": 2049, "pitch": 49, "duration": 3, "velocity": 127}, {"time": 2052, "pitch": 50, "duration": 2, "velocity": 127}, {"time": 2055, "pitch": 49, "duration": 3, "velocity": 127}, {"time": 2058, "pitch": 47, "duration": 2, "velocity": 127}, {"time": 2061, "pitch": 50, "duration": 3, "velocity": 127}, {"time": 2064, "pitch": 49, "duration": 2, "velocity": 127}, {"time": 2067, "pitch": 47, "duration": 3, "velocity": 127}, {"time": 2070, "pitch": 49, "duration": 2, "velocity": 127}, {"time": 2073, "pitch": 50, "duration": 3, "velocity": 127}, {"time": 2076, "pitch": 52, "duration": 2, "velocity": 127}, {"time": 2079, "pitch": 50, "duration": 3, "velocity": 127}, {"time": 2082, "pitch": 49, "duration": 2, "velocity": 127}, {"time": 2085, "pitch": 52, "duration": 3, "velocity": 127}, {"time": 2088, "pitch": 50, "duration": 2, "velocity": 127}, {"time": 2091, "pitch": 49, "duration": 3, "velocity": 127}, {"time": 2094, "pitch": 50, "duration": 2, "velocity": 127}, {"time": 2097, "pitch": 52, "duration": 3, "velocity": 127}, {"time": 2100, "pitch": 49, "duration": 2, "velocity": 127}, {"time": 2103, "pitch": 50, "duration": 3, "velocity": 127}, {"time": 2106, "pitch": 47, "duration": 2, "velocity": 127}, {"time": 2109, "pitch": 49, "duration": 3, "velocity": 127}, {"time": 2112, "pitch": 46, "duration": 6, "velocity": 127}, {"time": 2118, "pitch": 47, "duration": 6, "velocity": 127}, {"time": 2124, "pitch": 52, "duration": 6, "velocity": 127}, {"time": 2130, "pitch": 54, "duration": 6, "velocity": 127}, {"time": 2136, "pitch": 47, "duration": 12, "velocity": 127}, {"time": 2166, "pitch": 54, "duration": 6, "velocity": 127}, {"time": 2172, "pitch": 42, "duration": 6, "velocity": 127}, {"time": 2178, "pitch": 50, "duration": 6, "velocity": 127}, {"time": 2184, "pitch": 41, "duration": 6, "velocity": 127}, {"time": 2190, "pitch": 49, "duration": 6, "velocity": 127}, {"time": 2196, "pitch": 44, "duration": 6, "velocity": 127}, {"time": 2202, "pitch": 53, "duration": 6, "velocity": 127}, {"time": 2208, "pitch": 54, "duration": 6, "velocity": 127}, {"time": 2214, "pitch": 49, "duration": 2, "velocity": 127}, {"time": 2217, "pitch": 42, "duration": 3, "velocity": 127}, {"time": 2220, "pitch": 47, "duration": 14, "velocity": 127}, {"time": 2235, "pitch": 49, "duration": 3, "velocity": 127}, {"time": 2238, "pitch": 45, "duration": 2, "velocity": 127}, {"time": 2241, "pitch": 47, "duration": 3, "velocity": 127}, {"time": 2244, "pitch": 44, "duration": 12, "velocity": 127}, {"time": 2256, "pitch": 42, "duration": 6, "velocity": 127}, {"time": 2262, "pitch": 47, "duration": 6, "velocity": 127}, {"time": 2268, "pitch": 52, "duration": 6, "velocity": 127}, {"time": 2274, "pitch": 40, "duration": 6, "velocity": 127}, {"time": 2280, "pitch": 45, "duration": 12, "velocity": 127}, {"time": 2292, "pitch": 47, "duration": 12, "velocity": 127}, {"time": 2304, "pitch": 52, "duration": 6, "velocity": 127}, {"time": 2310, "pitch": 45, "duration": 6, "velocity": 127}, {"time": 2316, "pitch": 50, "duration": 12, "velocity": 127}, {"time": 2328, "pitch": 43, "duration": 12, "velocity": 127}, {"time": 2340, "pitch": 45, "duration": 12, "velocity": 127}, {"time": 2352, "pitch": 50, "duration": 6, "velocity": 127}, {"time": 2358, "pitch": 49, "duration": 6, "velocity": 127}, {"time": 2364, "pitch": 50, "duration": 6, "velocity": 127}, {"time": 2370, "pitch": 47, "duration": 6, "velocity": 127}, {"time": 2376, "pitch": 55, "duration": 12, "velocity": 127}, {"time": 2394, "pitch": 52, "duration": 6, "velocity": 127}, {"time": 2400, "pitch": 42, "duration": 6, "velocity": 127}, {"time": 2406, "pitch": 54, "duration": 6, "velocity": 127}, {"time": 2412, "pitch": 50, "duration": 6, "velocity": 127}, {"time": 2418, "pitch": 47, "duration": 6, "velocity": 127}, {"time": 2424, "pitch": 52, "duration": 6, "velocity": 127}, {"time": 2430, "pitch": 52, "duration": 2, "velocity": 127}, {"time": 2433, "pitch": 50, "duration": 3, "velocity": 127}, {"time": 2436, "pitch": 52, "duration": 6, "velocity": 127}, {"time": 2442, "pitch": 40, "duration": 6, "velocity": 127}, {"time": 2448, "pitch": 45, "duration": 6, "velocity": 127}, {"time": 2454, "pitch": 57, "duration": 2, "velocity": 127}, {"time": 2457, "pitch": 55, "duration": 3, "velocity": 127}, {"time": 2460, "pitch": 57, "duration": 6, "velocity": 127}, {"time": 2466, "pitch": 45, "duration": 6, "velocity": 127}, {"time": 2472, "pitch": 50, "duration": 6, "velocity": 127}, {"time": 2478, "pitch": 50, "duration": 2, "velocity": 127}, {"time": 2481, "pitch": 49, "duration": 3, "velocity": 127}, {"time": 2484, "pitch": 50, "duration": 6, "velocity": 127}, {"time": 2490, "pitch": 38, "duration": 6, "velocity": 127}, {"time": 2496, "pitch": 43, "duration": 6, "velocity": 127}, {"time": 2502, "pitch": 55, "duration": 2, "velocity": 127}, {"time": 2505, "pitch": 54, "duration": 3, "velocity": 127}, {"time": 2508, "pitch": 55, "duration": 6, "velocity": 127}, {"time": 2514, "pitch": 43, "duration": 6, "velocity": 127}, {"time": 2520, "pitch": 49, "duration": 6, "velocity": 127}, {"time": 2526, "pitch": 47, "duration": 6, "velocity": 127}, {"time": 2532, "pitch": 49, "duration": 6, "velocity": 127}, {"time": 2538, "pitch": 47, "duration": 6, "velocity": 127}, {"time": 2544, "pitch": 46, "duration": 6, "velocity": 127}, {"time": 2550, "pitch": 44, "duration": 6, "velocity": 127}, {"time": 2556, "pitch": 46, "duration": 6, "velocity": 127}, {"time": 2562, "pitch": 42, "duration": 6, "velocity": 127}, {"time": 2568, "pitch": 47, "duration": 6, "velocity": 127}, {"time": 2574, "pitch": 50, "duration": 2, "velocity": 127}, {"time": 2577, "pitch": 52, "duration": 3, "velocity": 127}, {"time": 2580, "pitch": 54, "duration": 6, "velocity": 127}, {"time": 2586, "pitch": 42, "duration": 6, "velocity": 127}, {"time": 2592, "pitch": 47, "duration": 12, "velocity": 127}, {"time": 2607, "pitch": 50, "duration": 3, "velocity": 127}, {"time": 2610, "pitch": 52, "duration": 2, "velocity": 127}, {"time": 2613, "pitch": 54, "duration": 3, "velocity": 127}, {"time": 2616, "pitch": 55, "duration": 2, "velocity": 127}, {"time": 2619, "pitch": 54, "duration": 3, "velocity": 127}, {"time": 2622, "pitch": 55, "duration": 2, "velocity": 127}, {"time": 2625, "pitch": 54, "duration": 3, "velocity": 127}, {"time": 2628, "pitch": 55, "duration": 2, "velocity": 127}, {"time": 2631, "pitch": 54, "duration": 3, "velocity": 127}, {"time": 2634, "pitch": 52, "duration": 2, "velocity": 127}, {"time": 2637, "pitch": 50, "duration": 3, "velocity": 127}, {"time": 2640, "pitch": 49, "duration": 12, "velocity": 127}, {"time": 2655, "pitch": 49, "duration": 3, "velocity": 127}, {"time": 2658, "pitch": 50, "duration": 2, "velocity": 127}, {"time": 2661, "pitch": 52, "duration": 3, "velocity": 127}, {"time": 2664, "pitch": 54, "duration": 2, "velocity": 127}, {"time": 2667, "pitch": 52, "duration": 3, "velocity": 127}, {"time": 2670, "pitch": 54, "duration": 2, "velocity": 127}, {"time": 2673, "pitch": 52, "duration": 3, "velocity": 127}, {"time": 2676, "pitch": 54, "duration": 2, "velocity": 127}, {"time": 2679, "pitch": 52, "duration": 3, "velocity": 127}, {"time": 2682, "pitch": 50, "duration": 2, "velocity": 127}, {"time": 2685, "pitch": 49, "duration": 3, "velocity": 127}, {"time": 2688, "pitch": 47, "duration": 12, "velocity": 127}, {"time": 2706, "pitch": 52, "duration": 6, "velocity": 127}, {"time": 2712, "pitch": 54, "duration": 2, "velocity": 127}, {"time": 2715, "pitch": 52, "duration": 3, "velocity": 127}, {"time": 2718, "pitch": 50, "duration": 2, "velocity": 127}, {"time": 2721, "pitch": 49, "duration": 3, "velocity": 127}, {"time": 2724, "pitch": 47, "duration": 2, "velocity": 127}, {"time": 2727, "pitch": 50, "duration": 3, "velocity": 127}, {"time": 2730, "pitch": 49, "duration": 2, "velocity": 127}, {"time": 2733, "pitch": 47, "duration": 3, "velocity": 127}, {"time": 2736, "pitch": 46, "duration": 6, "velocity": 127}, {"time": 2742, "pitch": 47, "duration": 6, "velocity": 127}, {"time": 2748, "pitch": 54, "duration": 6, "velocity": 127}, {"time": 2754, "pitch": 42, "duration": 6, "velocity": 127}, {"time": 2760, "pitch": 47, "duration": 24, "velocity": 127}, {"time": 2784, "pitch": 55, "duration": 36, "velocity": 127}, {"time": 2820, "pitch": 54, "duration": 36, "velocity": 127}, {"time": 2856, "pitch": 55, "duration": 18, "velocity": 127}, {"time": 2874, "pitch": 57, "duration": 6, "velocity": 127}, {"time": 2880, "pitch": 59, "duration": 12, "velocity": 127}, {"time": 2892, "pitch": 60, "duration": 6, "velocity": 127}, {"time": 2898, "pitch": 59, "duration": 6, "velocity": 127}, {"time": 2904, "pitch": 57, "duration": 12, "velocity": 127}, {"time": 2916, "pitch": 62, "duration": 12, "velocity": 127}, {"time": 2928, "pitch": 55, "duration": 24, "velocity": 127}, {"time": 2952, "pitch": 54, "duration": 12, "velocity": 127}, {"time": 2964, "pitch": 52, "duration": 12, "velocity": 127}, {"time": 2976, "pitch": 57, "duration": 12, "velocity": 127}, {"time": 2988, "pitch": 45, "duration": 12, "velocity": 127}, {"time": 3000, "pitch": 50, "duration": 12, "velocity": 127}, {"time": 3012, "pitch": 50, "duration": 6, "velocity": 127}, {"time": 3018, "pitch": 48, "duration": 6, "velocity": 127}, {"time": 3024, "pitch": 47, "duration": 12, "velocity": 127}, {"time": 3036, "pitch": 48, "duration": 36, "velocity": 127}, {"time": 3072, "pitch": 50, "duration": 24, "velocity": 127}, {"time": 3096, "pitch": 52, "duration": 12, "velocity": 127}, {"time": 3108, "pitch": 48, "duration": 12, "velocity": 127}, {"time": 3120, "pitch": 45, "duration": 12, "velocity": 127}, {"time": 3132, "pitch": 50, "duration": 12, "velocity": 127}, {"time": 3144, "pitch": 43, "duration": 24, "velocity": 127}, {"time": 3168, "pitch": 48, "duration": 12, "velocity": 127}, {"time": 3180, "pitch": 45, "duration": 12, "velocity": 127}, {"time": 3192, "pitch": 47, "duration": 24, "velocity": 127}, {"time": 3216, "pitch": 44, "duration": 24, "velocity": 127}, {"time": 3240, "pitch": 45, "duration": 12, "velocity": 127}, {"time": 3252, "pitch": 50, "duration": 12, "velocity": 127}, {"time": 3264, "pitch": 52, "duration": 12, "velocity": 127}, {"time": 3276, "pitch": 40, "duration": 12, "velocity": 127}, {"time": 3288, "pitch": 45, "duration": 12, "velocity": 127}, {"time": 3300, "pitch": 57, "duration": 6, "velocity": 127}, {"time": 3306, "pitch": 55, "duration": 6, "velocity": 127}, {"time": 3312, "pitch": 57, "duration": 6, "velocity": 127}, {"time": 3318, "pitch": 55, "duration": 6, "velocity": 127}, {"time": 3324, "pitch": 54, "duration": 6, "velocity": 127}, {"time": 3330, "pitch": 52, "duration": 6, "velocity": 127}, {"time": 3336, "pitch": 54, "duration": 6, "velocity": 127}, {"time": 3342, "pitch": 52, "duration": 6, "velocity": 127}, {"time": 3348, "pitch": 54, "duration": 6, "velocity": 127}, {"time": 3354, "pitch": 50, "duration": 6, "velocity": 127}, {"time": 3360, "pitch": 55, "duration": 12, "velocity": 127}, {"time": 3372, "pitch": 55, "duration": 6, "velocity": 127}, {"time": 3378, "pitch": 54, "duration": 6, "velocity": 127}, {"time": 3384, "pitch": 55, "duration": 6, "velocity": 127}, {"time": 3390, "pitch": 54, "duration": 6, "velocity": 127}, {"time": 3396, "pitch": 52, "duration": 6, "velocity": 127}, {"time": 3402, "pitch": 50, "duration": 6, "velocity": 127}, {"time": 3408, "pitch": 52, "duration": 6, "velocity": 127}, {"time": 3414, "pitch": 50, "duration": 6, "velocity": 127}, {"time": 3420, "pitch": 52, "duration": 6, "velocity": 127}, {"time": 3426, "pitch": 49, "duration": 6, "velocity": 127}, {"time": 3432, "pitch": 50, "duration": 6, "velocity": 127}, {"time": 3438, "pitch": 48, "duration": 6, "velocity": 127}, {"time": 3444, "pitch": 50, "duration": 6, "velocity": 127}, {"time": 3450, "pitch": 47, "duration": 6, "velocity": 127}, {"time": 3456, "pitch": 52, "duration": 6, "velocity": 127}, {"time": 3462, "pitch": 47, "duration": 6, "velocity": 127}, {"time": 3468, "pitch": 48, "duration": 6, "velocity": 127}, {"time": 3474, "pitch": 45, "duration": 6, "velocity": 127}, {"time": 3480, "pitch": 50, "duration": 6, "velocity": 127}, {"time": 3486, "pitch": 48, "duration": 6, "velocity": 127}, {"time": 3492, "pitch": 50, "duration": 6, "velocity": 127}, {"time": 3498, "pitch": 38, "duration": 6, "velocity": 127}, {"time": 3504, "pitch": 43, "duration": 6, "velocity": 127}, {"time": 3510, "pitch": 42, "duration": 6, "velocity": 127}, {"time": 3516, "pitch": 43, "duration": 6, "velocity": 127}, {"time": 3522, "pitch": 45, "duration": 6, "velocity": 127}, {"time": 3528, "pitch": 47, "duration": 6, "velocity": 127}, {"time": 3534, "pitch": 43, "duration": 6, "velocity": 127}, {"time": 3540, "pitch": 48, "duration": 6, "velocity": 127}, {"time": 3546, "pitch": 47, "duration": 6, "velocity": 127}, {"time": 3552, "pitch": 45, "duration": 6, "velocity": 127}, {"time": 3558, "pitch": 47, "duration": 6, "velocity": 127}, {"time": 3564, "pitch": 48, "duration": 6, "velocity": 127}, {"time": 3570, "pitch": 45, "duration": 6, "velocity": 127}, {"time": 3576, "pitch": 50, "duration": 24, "velocity": 127}, {"time": 3600, "pitch": 47, "duration": 12, "velocity": 127}, {"time": 3612, "pitch": 48, "duration": 12, "velocity": 127}, {"time": 3624, "pitch": 50, "duration": 12, "velocity": 127}, {"time": 3636, "pitch": 38, "duration": 12, "velocity": 127}, {"time": 3648, "pitch": 43, "duration": 36, "velocity": 127}, {"time": 3720, "pitch": 47, "duration": 6, "velocity": 127}, {"time": 3726, "pitch": 49, "duration": 6, "velocity": 127}, {"time": 3732, "pitch": 50, "duration": 6, "velocity": 127}, {"time": 3738, "pitch": 49, "duration": 6, "velocity": 127}, {"time": 3744, "pitch": 50, "duration": 6, "velocity": 127}, {"time": 3750, "pitch": 52, "duration": 6, "velocity": 127}, {"time": 3756, "pitch": 50, "duration": 18, "velocity": 127}, {"time": 3774, "pitch": 46, "duration": 12, "velocity": 127}, {"time": 3792, "pitch": 47, "duration": 18, "velocity": 127}, {"time": 3810, "pitch": 52, "duration": 6, "velocity": 127}, {"time": 3816, "pitch": 50, "duration": 6, "velocity": 127}, {"time": 3822, "pitch": 52, "duration": 6, "velocity": 127}, {"time": 3828, "pitch": 45, "duration": 18, "velocity": 127}, {"time": 3846, "pitch": 50, "duration": 6, "velocity": 127}, {"time": 3852, "pitch": 49, "duration": 6, "velocity": 127}, {"time": 3858, "pitch": 50, "duration": 6, "velocity": 127}, {"time": 3864, "pitch": 43, "duration": 36, "velocity": 127}, {"time": 3900, "pitch": 42, "duration": 18, "velocity": 127}, {"time": 3918, "pitch": 47, "duration": 18, "velocity": 127}, {"time": 3936, "pitch": 46, "duration": 18, "velocity": 127}, {"time": 3954, "pitch": 47, "duration": 18, "velocity": 127}, {"time": 3972, "pitch": 42, "duration": 18, "velocity": 127}, {"time": 3990, "pitch": 47, "duration": 18, "velocity": 127}, {"time": 4008, "pitch": 46, "duration": 18, "velocity": 127}, {"time": 4026, "pitch": 47, "duration": 18, "velocity": 127}, {"time": 4044, "pitch": 54, "duration": 18, "velocity": 127}, {"time": 4062, "pitch": 47, "duration": 18, "velocity": 127}, {"time": 4080, "pitch": 46, "duration": 6, "velocity": 127}, {"time": 4086, "pitch": 47, "duration": 6, "velocity": 127}, {"time": 4092, "pitch": 49, "duration": 6, "velocity": 127}, {"time": 4098, "pitch": 50, "duration": 6, "velocity": 127}, {"time": 4104, "pitch": 49, "duration": 6, "velocity": 127}, {"time": 4110, "pitch": 47, "duration": 6, "velocity": 127}, {"time": 4116, "pitch": 42, "duration": 18, "velocity": 127}, {"time": 4152, "pitch": 42, "duration": 36, "velocity": 127}, {"time": 4224, "pitch": 54, "duration": 6, "velocity": 127}, {"time": 4230, "pitch": 56, "duration": 6, "velocity": 127}, {"time": 4236, "pitch": 57, "duration": 6, "velocity": 127}, {"time": 4242, "pitch": 56, "duration": 6, "velocity": 127}, {"time": 4248, "pitch": 57, "duration": 6, "velocity": 127}, {"time": 4254, "pitch": 59, "duration": 6, "velocity": 127}, {"time": 4260, "pitch": 57, "duration": 18, "velocity": 127}, {"time": 4278, "pitch": 59, "duration": 18, "velocity": 127}, {"time": 4296, "pitch": 61, "duration": 18, "velocity": 127}, {"time": 4314, "pitch": 63, "duration": 6, "velocity": 127}, {"time": 4320, "pitch": 61, "duration": 6, "velocity": 127}, {"time": 4326, "pitch": 63, "duration": 6, "velocity": 127}, {"time": 4332, "pitch": 65, "duration": 18, "velocity": 127}, {"time": 4362, "pitch": 53, "duration": 6, "velocity": 127}, {"time": 4368, "pitch": 54, "duration": 18, "velocity": 127}, {"time": 4386, "pitch": 61, "duration": 6, "velocity": 127}, {"time": 4392, "pitch": 59, "duration": 6, "velocity": 127}, {"time": 4398, "pitch": 61, "duration": 6, "velocity": 127}, {"time": 4404, "pitch": 63, "duration": 18, "velocity": 127}, {"time": 4434, "pitch": 51, "duration": 6, "velocity": 127}, {"time": 4440, "pitch": 52, "duration": 18, "velocity": 127}, {"time": 4458, "pitch": 59, "duration": 6, "velocity": 127}, {"time": 4464, "pitch": 61, "duration": 6, "velocity": 127}, {"time": 4470, "pitch": 59, "duration": 6, "velocity": 127}, {"time": 4476, "pitch": 61, "duration": 18, "velocity": 127}, {"time": 4506, "pitch": 61, "duration": 6, "velocity": 127}, {"time": 4512, "pitch": 62, "duration": 12, "velocity": 127}, {"time": 4524, "pitch": 55, "duration": 6, "velocity": 127}, {"time": 4530, "pitch": 57, "duration": 12, "velocity": 127}, {"time": 4542, "pitch": 45, "duration": 6, "velocity": 127}, {"time": 4548, "pitch": 50, "duration": 6, "velocity": 127}, {"time": 4554, "pitch": 49, "duration": 6, "velocity": 127}, {"time": 4560, "pitch": 50, "duration": 6, "velocity": 127}, {"time": 4566, "pitch": 47, "duration": 6, "velocity": 127}, {"time": 4572, "pitch": 49, "duration": 6, "velocity": 127}, {"time": 4578, "pitch": 50, "duration": 6, "velocity": 127}, {"time": 4584, "pitch": 55, "duration": 18, "velocity": 127}, {"time": 4614, "pitch": 52, "duration": 6, "velocity": 127}, {"time": 4620, "pitch": 54, "duration": 6, "velocity": 127}, {"time": 4626, "pitch": 52, "duration": 6, "velocity": 127}, {"time": 4632, "pitch": 54, "duration": 6, "velocity": 127}, {"time": 4638, "pitch": 50, "duration": 6, "velocity": 127}, {"time": 4644, "pitch": 49, "duration": 6, "velocity": 127}, {"time": 4650, "pitch": 50, "duration": 6, "velocity": 127}, {"time": 4656, "pitch": 52, "duration": 18, "velocity": 127}, {"time": 4692, "pitch": 57, "duration": 18, "velocity": 127}, {"time": 4728, "pitch": 50, "duration": 18, "velocity": 127}, {"time": 4764, "pitch": 55, "duration": 18, "velocity": 127}, {"time": 4800, "pitch": 49, "duration": 6, "velocity": 127}, {"time": 4806, "pitch": 50, "duration": 6, "velocity": 127}, {"time": 4812, "pitch": 52, "duration": 6, "velocity": 127}, {"time": 4818, "pitch": 49, "duration": 6, "velocity": 127}, {"time": 4824, "pitch": 50, "duration": 6, "velocity": 127}, {"time": 4830, "pitch": 52, "duration": 6, "velocity": 127}, {"time": 4836, "pitch": 54, "duration": 6, "velocity": 127}, {"time": 4842, "pitch": 52, "duration": 6, "velocity": 127}, {"time": 4848, "pitch": 54, "duration": 6, "velocity": 127}, {"time": 4854, "pitch": 46, "duration": 6, "velocity": 127}, {"time": 4860, "pitch": 43, "duration": 6, "velocity": 127}, {"time": 4866, "pitch": 46, "duration": 6, "velocity": 127}, {"time": 4872, "pitch": 47, "duration": 12, "velocity": 127}, {"time": 4884, "pitch": 47, "duration": 6, "velocity": 127}, {"time": 4890, "pitch": 54, "duration": 12, "velocity": 127}, {"time": 4902, "pitch": 42, "duration": 6, "velocity": 127}, {"time": 4908, "pitch": 47, "duration": 6, "velocity": 127}, {"time": 4914, "pitch": 49, "duration": 6, "velocity": 127}, {"time": 4920, "pitch": 50, "duration": 6, "velocity": 127}, {"time": 4926, "pitch": 47, "duration": 6, "velocity": 127}, {"time": 4932, "pitch": 49, "duration": 6, "velocity": 127}, {"time": 4938, "pitch": 50, "duration": 6, "velocity": 127}, {"time": 4944, "pitch": 52, "duration": 18, "velocity": 127}, {"time": 4980, "pitch": 57, "duration": 18, "velocity": 127}, {"time": 5016, "pitch": 50, "duration": 18, "velocity": 127}, {"time": 5052, "pitch": 55, "duration": 18, "velocity": 127}, {"time": 5088, "pitch": 49, "duration": 6, "velocity": 127}, {"time": 5094, "pitch": 50, "duration": 6, "velocity": 127}, {"time": 5100, "pitch": 52, "duration": 6, "velocity": 127}, {"time": 5106, "pitch": 49, "duration": 6, "velocity": 127}, {"time": 5112, "pitch": 50, "duration": 6, "velocity": 127}, {"time": 5118, "pitch": 52, "duration": 6, "velocity": 127}, {"time": 5124, "pitch": 54, "duration": 6, "velocity": 127}, {"time": 5130, "pitch": 52, "duration": 6, "velocity": 127}, {"time": 5136, "pitch": 54, "duration": 6, "velocity": 127}, {"time": 5142, "pitch": 46, "duration": 6, "velocity": 127}, {"time": 5148, "pitch": 43, "duration": 6, "velocity": 127}, {"time": 5154, "pitch": 46, "duration": 6, "velocity": 127}, {"time": 5160, "pitch": 47, "duration": 12, "velocity": 127}, {"time": 5172, "pitch": 47, "duration": 6, "velocity": 127}, {"time": 5178, "pitch": 54, "duration": 12, "velocity": 127}, {"time": 5190, "pitch": 42, "duration": 6, "velocity": 127}, {"time": 5196, "pitch": 47, "duration": 72, "velocity": 127}], "annotations": [{"time": 0, "annotation": {"number": 10, "value": 64}, "group": "control_change"}]}]}