{"metadata": {"schema_version": "0.2"}, "resolution": 24, "tracks": [{"program": 6, "is_drum": false, "notes": [{"time": 3, "pitch": 64, "duration": 3, "velocity": 64}, {"time": 6, "pitch": 69, "duration": 3, "velocity": 64}, {"time": 9, "pitch": 72, "duration": 3, "velocity": 64}, {"time": 12, "pitch": 71, "duration": 3, "velocity": 64}, {"time": 15, "pitch": 64, "duration": 3, "velocity": 64}, {"time": 18, "pitch": 71, "duration": 3, "velocity": 64}, {"time": 21, "pitch": 74, "duration": 3, "velocity": 64}, {"time": 24, "pitch": 72, "duration": 6, "velocity": 64}, {"time": 30, "pitch": 76, "duration": 6, "velocity": 64}, {"time": 36, "pitch": 68, "duration": 6, "velocity": 64}, {"time": 42, "pitch": 76, "duration": 6, "velocity": 64}, {"time": 48, "pitch": 69, "duration": 3, "velocity": 64}, {"time": 51, "pitch": 64, "duration": 3, "velocity": 64}, {"time": 54, "pitch": 69, "duration": 3, "velocity": 64}, {"time": 57, "pitch": 72, "duration": 3, "velocity": 64}, {"time": 60, "pitch": 71, "duration": 3, "velocity": 64}, {"time": 63, "pitch": 64, "duration": 3, "velocity": 64}, {"time": 66, "pitch": 71, "duration": 3, "velocity": 64}, {"time": 69, "pitch": 74, "duration": 3, "velocity": 64}, {"time": 72, "pitch": 72, "duration": 6, "velocity": 64}, {"time": 78, "pitch": 69, "duration": 6, "velocity": 64}, {"time": 99, "pitch": 76, "duration": 3, "velocity": 64}, {"time": 102, "pitch": 72, "duration": 3, "velocity": 64}, {"time": 105, "pitch": 76, "duration": 3, "velocity": 64}, {"time": 108, "pitch": 69, "duration": 3, "velocity": 64}, {"time": 111, "pitch": 72, "duration": 3, "velocity": 64}, {"time": 114, "pitch": 64, "duration": 3, "velocity": 64}, {"time": 117, "pitch": 67, "duration": 3, "velocity": 64}, {"time": 120, "pitch": 65, "duration": 6, "velocity": 64}, {"time": 126, "pitch": 69, "duration": 6, "velocity": 64}, {"time": 132, "pitch": 74, "duration": 6, "velocity": 64}, {"time": 138, "pitch": 77, "duration": 9, "velocity": 64}, {"time": 147, "pitch": 74, "duration": 3, "velocity": 64}, {"time": 150, "pitch": 71, "duration": 3, "velocity": 64}, {"time": 153, "pitch": 74, "duration": 3, "velocity": 64}, {"time": 156, "pitch": 67, "duration": 3, "velocity": 64}, {"time": 159, "pitch": 71, "duration": 3, "velocity": 64}, {"time": 162, "pitch": 62, "duration": 3, "velocity": 64}, {"time": 165, "pitch": 65, "duration": 3, "velocity": 64}, {"time": 168, "pitch": 64, "duration": 6, "velocity": 64}, {"time": 174, "pitch": 67, "duration": 6, "velocity": 64}, {"time": 180, "pitch": 72, "duration": 6, "velocity": 64}, {"time": 186, "pitch": 76, "duration": 9, "velocity": 64}, {"time": 195, "pitch": 72, "duration": 3, "velocity": 64}, {"time": 198, "pitch": 69, "duration": 3, "velocity": 64}, {"time": 201, "pitch": 72, "duration": 3, "velocity": 64}, {"time": 204, "pitch": 65, "duration": 6, "velocity": 64}, {"time": 210, "pitch": 74, "duration": 9, "velocity": 64}, {"time": 219, "pitch": 71, "duration": 3, "velocity": 64}, {"time": 222, "pitch": 67, "duration": 3, "velocity": 64}, {"time": 225, "pitch": 71, "duration": 3, "velocity": 64}, {"time": 228, "pitch": 64, "duration": 6, "velocity": 64}, {"time": 234, "pitch": 72, "duration": 9, "velocity": 64}, {"time": 243, "pitch": 69, "duration": 3, "velocity": 64}, {"time": 246, "pitch": 65, "duration": 3, "velocity": 64}, {"time": 249, "pitch": 69, "duration": 3, "velocity": 64}, {"time": 252, "pitch": 62, "duration": 6, "velocity": 64}, {"time": 258, "pitch": 71, "duration": 6, "velocity": 64}, {"time": 264, "pitch": 72, "duration": 6, "velocity": 64}, {"time": 291, "pitch": 67, "duration": 3, "velocity": 64}, {"time": 294, "pitch": 72, "duration": 3, "velocity": 64}, {"time": 297, "pitch": 76, "duration": 3, "velocity": 64}, {"time": 300, "pitch": 74, "duration": 3, "velocity": 64}, {"time": 303, "pitch": 67, "duration": 3, "velocity": 64}, {"time": 306, "pitch": 74, "duration": 3, "velocity": 64}, {"time": 309, "pitch": 77, "duration": 3, "velocity": 64}, {"time": 312, "pitch": 76, "duration": 6, "velocity": 64}, {"time": 318, "pitch": 79, "duration": 6, "velocity": 64}, {"time": 324, "pitch": 71, "duration": 6, "velocity": 64}, {"time": 330, "pitch": 79, "duration": 6, "velocity": 64}, {"time": 336, "pitch": 72, "duration": 3, "velocity": 64}, {"time": 339, "pitch": 67, "duration": 3, "velocity": 64}, {"time": 342, "pitch": 72, "duration": 3, "velocity": 64}, {"time": 345, "pitch": 76, "duration": 3, "velocity": 64}, {"time": 348, "pitch": 74, "duration": 3, "velocity": 64}, {"time": 351, "pitch": 67, "duration": 3, "velocity": 64}, {"time": 354, "pitch": 74, "duration": 3, "velocity": 64}, {"time": 357, "pitch": 77, "duration": 3, "velocity": 64}, {"time": 360, "pitch": 76, "duration": 6, "velocity": 64}, {"time": 366, "pitch": 72, "duration": 6, "velocity": 64}, {"time": 372, "pitch": 79, "duration": 6, "velocity": 64}, {"time": 378, "pitch": 76, "duration": 6, "velocity": 64}, {"time": 384, "pitch": 84, "duration": 3, "velocity": 64}, {"time": 387, "pitch": 81, "duration": 3, "velocity": 64}, {"time": 390, "pitch": 76, "duration": 3, "velocity": 64}, {"time": 393, "pitch": 81, "duration": 3, "velocity": 64}, {"time": 396, "pitch": 72, "duration": 3, "velocity": 64}, {"time": 399, "pitch": 76, "duration": 3, "velocity": 64}, {"time": 402, "pitch": 69, "duration": 3, "velocity": 64}, {"time": 405, "pitch": 72, "duration": 3, "velocity": 64}, {"time": 408, "pitch": 74, "duration": 6, "velocity": 64}, {"time": 414, "pitch": 78, "duration": 6, "velocity": 64}, {"time": 420, "pitch": 81, "duration": 6, "velocity": 64}, {"time": 426, "pitch": 84, "duration": 6, "velocity": 64}, {"time": 432, "pitch": 83, "duration": 3, "velocity": 64}, {"time": 435, "pitch": 79, "duration": 3, "velocity": 64}, {"time": 438, "pitch": 74, "duration": 3, "velocity": 64}, {"time": 441, "pitch": 79, "duration": 3, "velocity": 64}, {"time": 444, "pitch": 71, "duration": 3, "velocity": 64}, {"time": 447, "pitch": 74, "duration": 3, "velocity": 64}, {"time": 450, "pitch": 67, "duration": 3, "velocity": 64}, {"time": 453, "pitch": 71, "duration": 3, "velocity": 64}, {"time": 456, "pitch": 72, "duration": 6, "velocity": 64}, {"time": 462, "pitch": 76, "duration": 6, "velocity": 64}, {"time": 468, "pitch": 79, "duration": 6, "velocity": 64}, {"time": 474, "pitch": 83, "duration": 6, "velocity": 64}, {"time": 480, "pitch": 81, "duration": 3, "velocity": 64}, {"time": 483, "pitch": 78, "duration": 3, "velocity": 64}, {"time": 486, "pitch": 75, "duration": 3, "velocity": 64}, {"time": 489, "pitch": 78, "duration": 3, "velocity": 64}, {"time": 492, "pitch": 71, "duration": 3, "velocity": 64}, {"time": 495, "pitch": 75, "duration": 3, "velocity": 64}, {"time": 498, "pitch": 66, "duration": 3, "velocity": 64}, {"time": 501, "pitch": 69, "duration": 3, "velocity": 64}, {"time": 504, "pitch": 67, "duration": 6, "velocity": 64}, {"time": 510, "pitch": 79, "duration": 9, "velocity": 64}, {"time": 519, "pitch": 76, "duration": 3, "velocity": 64}, {"time": 522, "pitch": 72, "duration": 3, "velocity": 64}, {"time": 525, "pitch": 76, "duration": 3, "velocity": 64}, {"time": 528, "pitch": 69, "duration": 6, "velocity": 64}, {"time": 534, "pitch": 78, "duration": 9, "velocity": 64}, {"time": 543, "pitch": 74, "duration": 3, "velocity": 64}, {"time": 546, "pitch": 71, "duration": 3, "velocity": 64}, {"time": 549, "pitch": 74, "duration": 3, "velocity": 64}, {"time": 552, "pitch": 67, "duration": 6, "velocity": 64}, {"time": 558, "pitch": 76, "duration": 9, "velocity": 64}, {"time": 567, "pitch": 72, "duration": 3, "velocity": 64}, {"time": 570, "pitch": 69, "duration": 3, "velocity": 64}, {"time": 573, "pitch": 72, "duration": 3, "velocity": 64}, {"time": 576, "pitch": 66, "duration": 3, "velocity": 64}, {"time": 579, "pitch": 79, "duration": 3, "velocity": 64}, {"time": 582, "pitch": 78, "duration": 3, "velocity": 64}, {"time": 585, "pitch": 76, "duration": 3, "velocity": 64}, {"time": 588, "pitch": 75, "duration": 3, "velocity": 64}, {"time": 591, "pitch": 78, "duration": 3, "velocity": 64}, {"time": 594, "pitch": 71, "duration": 3, "velocity": 64}, {"time": 597, "pitch": 75, "duration": 3, "velocity": 64}, {"time": 600, "pitch": 76, "duration": 6, "velocity": 64}, {"time": 627, "pitch": 79, "duration": 3, "velocity": 64}, {"time": 630, "pitch": 82, "duration": 3, "velocity": 64}, {"time": 633, "pitch": 79, "duration": 3, "velocity": 64}, {"time": 636, "pitch": 76, "duration": 3, "velocity": 64}, {"time": 639, "pitch": 79, "duration": 3, "velocity": 64}, {"time": 642, "pitch": 73, "duration": 3, "velocity": 64}, {"time": 645, "pitch": 76, "duration": 3, "velocity": 64}, {"time": 648, "pitch": 79, "duration": 3, "velocity": 64}, {"time": 651, "pitch": 76, "duration": 3, "velocity": 64}, {"time": 654, "pitch": 73, "duration": 3, "velocity": 64}, {"time": 657, "pitch": 76, "duration": 3, "velocity": 64}, {"time": 660, "pitch": 69, "duration": 3, "velocity": 64}, {"time": 675, "pitch": 77, "duration": 3, "velocity": 64}, {"time": 678, "pitch": 80, "duration": 3, "velocity": 64}, {"time": 681, "pitch": 77, "duration": 3, "velocity": 64}, {"time": 684, "pitch": 74, "duration": 3, "velocity": 64}, {"time": 687, "pitch": 77, "duration": 3, "velocity": 64}, {"time": 690, "pitch": 71, "duration": 3, "velocity": 64}, {"time": 693, "pitch": 74, "duration": 3, "velocity": 64}, {"time": 696, "pitch": 77, "duration": 3, "velocity": 64}, {"time": 699, "pitch": 74, "duration": 3, "velocity": 64}, {"time": 702, "pitch": 71, "duration": 3, "velocity": 64}, {"time": 705, "pitch": 74, "duration": 3, "velocity": 64}, {"time": 708, "pitch": 67, "duration": 3, "velocity": 64}, {"time": 723, "pitch": 76, "duration": 3, "velocity": 64}, {"time": 726, "pitch": 79, "duration": 3, "velocity": 64}, {"time": 729, "pitch": 76, "duration": 3, "velocity": 64}, {"time": 732, "pitch": 72, "duration": 3, "velocity": 64}, {"time": 735, "pitch": 76, "duration": 3, "velocity": 64}, {"time": 738, "pitch": 69, "duration": 3, "velocity": 64}, {"time": 741, "pitch": 72, "duration": 3, "velocity": 64}, {"time": 744, "pitch": 75, "duration": 3, "velocity": 64}, {"time": 747, "pitch": 72, "duration": 3, "velocity": 64}, {"time": 750, "pitch": 69, "duration": 3, "velocity": 64}, {"time": 753, "pitch": 72, "duration": 3, "velocity": 64}, {"time": 756, "pitch": 66, "duration": 3, "velocity": 64}, {"time": 771, "pitch": 74, "duration": 3, "velocity": 64}, {"time": 774, "pitch": 77, "duration": 3, "velocity": 64}, {"time": 777, "pitch": 74, "duration": 3, "velocity": 64}, {"time": 780, "pitch": 71, "duration": 3, "velocity": 64}, {"time": 783, "pitch": 74, "duration": 3, "velocity": 64}, {"time": 786, "pitch": 68, "duration": 3, "velocity": 64}, {"time": 789, "pitch": 71, "duration": 3, "velocity": 64}, {"time": 792, "pitch": 74, "duration": 3, "velocity": 64}, {"time": 795, "pitch": 71, "duration": 3, "velocity": 64}, {"time": 798, "pitch": 68, "duration": 3, "velocity": 64}, {"time": 801, "pitch": 71, "duration": 3, "velocity": 64}, {"time": 804, "pitch": 64, "duration": 3, "velocity": 64}, {"time": 819, "pitch": 64, "duration": 3, "velocity": 64}, {"time": 822, "pitch": 69, "duration": 3, "velocity": 64}, {"time": 825, "pitch": 72, "duration": 3, "velocity": 64}, {"time": 828, "pitch": 71, "duration": 3, "velocity": 64}, {"time": 831, "pitch": 64, "duration": 3, "velocity": 64}, {"time": 834, "pitch": 71, "duration": 3, "velocity": 64}, {"time": 837, "pitch": 74, "duration": 3, "velocity": 64}, {"time": 840, "pitch": 72, "duration": 6, "velocity": 64}, {"time": 846, "pitch": 69, "duration": 6, "velocity": 64}, {"time": 852, "pitch": 68, "duration": 6, "velocity": 64}, {"time": 858, "pitch": 64, "duration": 6, "velocity": 64}, {"time": 864, "pitch": 69, "duration": 3, "velocity": 64}, {"time": 867, "pitch": 72, "duration": 3, "velocity": 64}, {"time": 870, "pitch": 76, "duration": 3, "velocity": 64}, {"time": 873, "pitch": 72, "duration": 3, "velocity": 64}, {"time": 876, "pitch": 69, "duration": 3, "velocity": 64}, {"time": 879, "pitch": 72, "duration": 3, "velocity": 64}, {"time": 882, "pitch": 66, "duration": 3, "velocity": 64}, {"time": 885, "pitch": 69, "duration": 3, "velocity": 64}, {"time": 888, "pitch": 72, "duration": 3, "velocity": 64}, {"time": 891, "pitch": 69, "duration": 3, "velocity": 64}, {"time": 894, "pitch": 66, "duration": 3, "velocity": 64}, {"time": 897, "pitch": 69, "duration": 3, "velocity": 64}, {"time": 900, "pitch": 63, "duration": 3, "velocity": 64}, {"time": 903, "pitch": 72, "duration": 3, "velocity": 64}, {"time": 906, "pitch": 71, "duration": 3, "velocity": 64}, {"time": 909, "pitch": 69, "duration": 3, "velocity": 64}, {"time": 912, "pitch": 68, "duration": 3, "velocity": 64}, {"time": 915, "pitch": 71, "duration": 3, "velocity": 64}, {"time": 918, "pitch": 74, "duration": 3, "velocity": 64}, {"time": 921, "pitch": 71, "duration": 3, "velocity": 64}, {"time": 924, "pitch": 68, "duration": 3, "velocity": 64}, {"time": 927, "pitch": 71, "duration": 3, "velocity": 64}, {"time": 930, "pitch": 62, "duration": 3, "velocity": 64}, {"time": 933, "pitch": 65, "duration": 3, "velocity": 64}, {"time": 936, "pitch": 68, "duration": 3, "velocity": 64}, {"time": 939, "pitch": 65, "duration": 3, "velocity": 64}, {"time": 942, "pitch": 62, "duration": 3, "velocity": 64}, {"time": 945, "pitch": 65, "duration": 3, "velocity": 64}, {"time": 948, "pitch": 59, "duration": 3, "velocity": 64}, {"time": 951, "pitch": 65, "duration": 3, "velocity": 64}, {"time": 954, "pitch": 64, "duration": 3, "velocity": 64}, {"time": 957, "pitch": 62, "duration": 3, "velocity": 64}, {"time": 960, "pitch": 60, "duration": 3, "velocity": 64}, {"time": 963, "pitch": 64, "duration": 3, "velocity": 64}, {"time": 966, "pitch": 69, "duration": 3, "velocity": 64}, {"time": 969, "pitch": 64, "duration": 3, "velocity": 64}, {"time": 972, "pitch": 60, "duration": 3, "velocity": 64}, {"time": 975, "pitch": 64, "duration": 3, "velocity": 64}, {"time": 978, "pitch": 57, "duration": 3, "velocity": 64}, {"time": 981, "pitch": 60, "duration": 3, "velocity": 64}, {"time": 984, "pitch": 63, "duration": 3, "velocity": 64}, {"time": 987, "pitch": 60, "duration": 3, "velocity": 64}, {"time": 990, "pitch": 57, "duration": 3, "velocity": 64}, {"time": 993, "pitch": 60, "duration": 3, "velocity": 64}, {"time": 996, "pitch": 54, "duration": 3, "velocity": 64}, {"time": 999, "pitch": 60, "duration": 3, "velocity": 64}, {"time": 1002, "pitch": 59, "duration": 3, "velocity": 64}, {"time": 1005, "pitch": 57, "duration": 3, "velocity": 64}, {"time": 1008, "pitch": 56, "duration": 6, "velocity": 64}, {"time": 1014, "pitch": 71, "duration": 6, "velocity": 64}, {"time": 1020, "pitch": 68, "duration": 6, "velocity": 64}, {"time": 1026, "pitch": 64, "duration": 6, "velocity": 64}, {"time": 1035, "pitch": 64, "duration": 3, "velocity": 64}, {"time": 1038, "pitch": 69, "duration": 3, "velocity": 64}, {"time": 1041, "pitch": 72, "duration": 3, "velocity": 64}, {"time": 1044, "pitch": 71, "duration": 3, "velocity": 64}, {"time": 1047, "pitch": 64, "duration": 3, "velocity": 64}, {"time": 1050, "pitch": 71, "duration": 3, "velocity": 64}, {"time": 1053, "pitch": 74, "duration": 3, "velocity": 64}, {"time": 1056, "pitch": 72, "duration": 3, "velocity": 64}, {"time": 1059, "pitch": 69, "duration": 3, "velocity": 64}, {"time": 1062, "pitch": 72, "duration": 3, "velocity": 64}, {"time": 1065, "pitch": 76, "duration": 3, "velocity": 64}, {"time": 1068, "pitch": 74, "duration": 3, "velocity": 64}, {"time": 1071, "pitch": 71, "duration": 3, "velocity": 64}, {"time": 1074, "pitch": 74, "duration": 3, "velocity": 64}, {"time": 1077, "pitch": 77, "duration": 3, "velocity": 64}, {"time": 1080, "pitch": 76, "duration": 3, "velocity": 64}, {"time": 1083, "pitch": 72, "duration": 3, "velocity": 64}, {"time": 1086, "pitch": 76, "duration": 3, "velocity": 64}, {"time": 1089, "pitch": 79, "duration": 3, "velocity": 64}, {"time": 1092, "pitch": 77, "duration": 3, "velocity": 64}, {"time": 1095, "pitch": 76, "duration": 3, "velocity": 64}, {"time": 1098, "pitch": 74, "duration": 3, "velocity": 64}, {"time": 1101, "pitch": 72, "duration": 3, "velocity": 64}, {"time": 1104, "pitch": 71, "duration": 3, "velocity": 64}, {"time": 1107, "pitch": 72, "duration": 3, "velocity": 64}, {"time": 1110, "pitch": 74, "duration": 3, "velocity": 64}, {"time": 1113, "pitch": 76, "duration": 3, "velocity": 64}, {"time": 1116, "pitch": 77, "duration": 3, "velocity": 64}, {"time": 1119, "pitch": 74, "duration": 3, "velocity": 64}, {"time": 1122, "pitch": 80, "duration": 3, "velocity": 64}, {"time": 1125, "pitch": 74, "duration": 3, "velocity": 64}, {"time": 1128, "pitch": 83, "duration": 3, "velocity": 64}, {"time": 1131, "pitch": 74, "duration": 3, "velocity": 64}, {"time": 1134, "pitch": 72, "duration": 3, "velocity": 64}, {"time": 1137, "pitch": 81, "duration": 3, "velocity": 64}, {"time": 1140, "pitch": 77, "duration": 3, "velocity": 64}, {"time": 1143, "pitch": 74, "duration": 3, "velocity": 64}, {"time": 1146, "pitch": 71, "duration": 3, "velocity": 64}, {"time": 1149, "pitch": 74, "duration": 3, "velocity": 64}, {"time": 1152, "pitch": 68, "duration": 3, "velocity": 64}, {"time": 1155, "pitch": 71, "duration": 3, "velocity": 64}, {"time": 1158, "pitch": 72, "duration": 3, "velocity": 64}, {"time": 1161, "pitch": 69, "duration": 3, "velocity": 64}, {"time": 1164, "pitch": 64, "duration": 3, "velocity": 64}, {"time": 1167, "pitch": 69, "duration": 3, "velocity": 64}, {"time": 1170, "pitch": 71, "duration": 3, "velocity": 64}, {"time": 1173, "pitch": 68, "duration": 3, "velocity": 64}, {"time": 1176, "pitch": 69, "duration": 3, "velocity": 64}, {"time": 1179, "pitch": 64, "duration": 3, "velocity": 64}, {"time": 1182, "pitch": 60, "duration": 3, "velocity": 64}, {"time": 1185, "pitch": 64, "duration": 3, "velocity": 64}, {"time": 1188, "pitch": 57, "duration": 12, "velocity": 64}]}]}