{"metadata": {"schema_version": "0.2"}, "resolution": 24, "tracks": [{"program": 6, "is_drum": false, "notes": [{"time": 3, "pitch": 62, "duration": 3, "velocity": 64}, {"time": 6, "pitch": 64, "duration": 3, "velocity": 64}, {"time": 9, "pitch": 66, "duration": 3, "velocity": 64}, {"time": 12, "pitch": 67, "duration": 3, "velocity": 64}, {"time": 15, "pitch": 69, "duration": 3, "velocity": 64}, {"time": 18, "pitch": 70, "duration": 3, "velocity": 64}, {"time": 21, "pitch": 67, "duration": 3, "velocity": 64}, {"time": 24, "pitch": 69, "duration": 3, "velocity": 64}, {"time": 27, "pitch": 67, "duration": 3, "velocity": 64}, {"time": 30, "pitch": 66, "duration": 3, "velocity": 64}, {"time": 33, "pitch": 64, "duration": 3, "velocity": 64}, {"time": 36, "pitch": 62, "duration": 3, "velocity": 64}, {"time": 39, "pitch": 72, "duration": 3, "velocity": 64}, {"time": 42, "pitch": 70, "duration": 3, "velocity": 64}, {"time": 45, "pitch": 69, "duration": 3, "velocity": 64}, {"time": 48, "pitch": 67, "duration": 3, "velocity": 64}, {"time": 51, "pitch": 65, "duration": 3, "velocity": 64}, {"time": 54, "pitch": 64, "duration": 3, "velocity": 64}, {"time": 57, "pitch": 62, "duration": 3, "velocity": 64}, {"time": 60, "pitch": 60, "duration": 3, "velocity": 64}, {"time": 63, "pitch": 70, "duration": 3, "velocity": 64}, {"time": 66, "pitch": 69, "duration": 3, "velocity": 64}, {"time": 69, "pitch": 67, "duration": 3, "velocity": 64}, {"time": 72, "pitch": 74, "duration": 3, "velocity": 64}, {"time": 75, "pitch": 72, "duration": 3, "velocity": 64}, {"time": 78, "pitch": 70, "duration": 3, "velocity": 64}, {"time": 81, "pitch": 74, "duration": 3, "velocity": 64}, {"time": 84, "pitch": 72, "duration": 3, "velocity": 64}, {"time": 87, "pitch": 70, "duration": 3, "velocity": 64}, {"time": 90, "pitch": 69, "duration": 3, "velocity": 64}, {"time": 93, "pitch": 72, "duration": 3, "velocity": 64}, {"time": 96, "pitch": 70, "duration": 3, "velocity": 64}, {"time": 99, "pitch": 69, "duration": 3, "velocity": 64}, {"time": 102, "pitch": 67, "duration": 3, "velocity": 64}, {"time": 105, "pitch": 69, "duration": 3, "velocity": 64}, {"time": 108, "pitch": 70, "duration": 3, "velocity": 64}, {"time": 111, "pitch": 72, "duration": 3, "velocity": 64}, {"time": 114, "pitch": 74, "duration": 3, "velocity": 64}, {"time": 117, "pitch": 76, "duration": 3, "velocity": 64}, {"time": 120, "pitch": 77, "duration": 6, "velocity": 64}, {"time": 126, "pitch": 74, "duration": 6, "velocity": 64}, {"time": 138, "pitch": 74, "duration": 6, "velocity": 64}, {"time": 144, "pitch": 75, "duration": 3, "velocity": 64}, {"time": 147, "pitch": 74, "duration": 3, "velocity": 64}, {"time": 150, "pitch": 72, "duration": 3, "velocity": 64}, {"time": 153, "pitch": 74, "duration": 3, "velocity": 64}, {"time": 156, "pitch": 75, "duration": 6, "velocity": 64}, {"time": 162, "pitch": 76, "duration": 6, "velocity": 64}, {"time": 168, "pitch": 77, "duration": 3, "velocity": 64}, {"time": 171, "pitch": 76, "duration": 3, "velocity": 64}, {"time": 174, "pitch": 74, "duration": 3, "velocity": 64}, {"time": 177, "pitch": 76, "duration": 3, "velocity": 64}, {"time": 180, "pitch": 77, "duration": 6, "velocity": 64}, {"time": 186, "pitch": 78, "duration": 6, "velocity": 64}, {"time": 192, "pitch": 79, "duration": 6, "velocity": 64}, {"time": 198, "pitch": 74, "duration": 3, "velocity": 64}, {"time": 201, "pitch": 72, "duration": 3, "velocity": 64}, {"time": 204, "pitch": 74, "duration": 3, "velocity": 64}, {"time": 207, "pitch": 75, "duration": 3, "velocity": 64}, {"time": 210, "pitch": 77, "duration": 3, "velocity": 64}, {"time": 213, "pitch": 74, "duration": 3, "velocity": 64}, {"time": 216, "pitch": 75, "duration": 3, "velocity": 64}, {"time": 219, "pitch": 74, "duration": 3, "velocity": 64}, {"time": 222, "pitch": 72, "duration": 3, "velocity": 64}, {"time": 225, "pitch": 70, "duration": 3, "velocity": 64}, {"time": 228, "pitch": 69, "duration": 3, "velocity": 64}, {"time": 231, "pitch": 79, "duration": 3, "velocity": 64}, {"time": 234, "pitch": 77, "duration": 3, "velocity": 64}, {"time": 237, "pitch": 75, "duration": 3, "velocity": 64}, {"time": 240, "pitch": 74, "duration": 3, "velocity": 64}, {"time": 243, "pitch": 72, "duration": 3, "velocity": 64}, {"time": 246, "pitch": 74, "duration": 3, "velocity": 64}, {"time": 249, "pitch": 76, "duration": 3, "velocity": 64}, {"time": 252, "pitch": 77, "duration": 3, "velocity": 64}, {"time": 255, "pitch": 79, "duration": 3, "velocity": 64}, {"time": 258, "pitch": 81, "duration": 3, "velocity": 64}, {"time": 261, "pitch": 77, "duration": 3, "velocity": 64}, {"time": 264, "pitch": 79, "duration": 3, "velocity": 64}, {"time": 267, "pitch": 77, "duration": 3, "velocity": 64}, {"time": 270, "pitch": 76, "duration": 3, "velocity": 64}, {"time": 273, "pitch": 74, "duration": 3, "velocity": 64}, {"time": 276, "pitch": 73, "duration": 3, "velocity": 64}, {"time": 279, "pitch": 82, "duration": 3, "velocity": 64}, {"time": 282, "pitch": 81, "duration": 3, "velocity": 64}, {"time": 285, "pitch": 79, "duration": 3, "velocity": 64}, {"time": 288, "pitch": 77, "duration": 15, "velocity": 64}, {"time": 303, "pitch": 79, "duration": 3, "velocity": 64}, {"time": 306, "pitch": 81, "duration": 3, "velocity": 64}, {"time": 309, "pitch": 82, "duration": 3, "velocity": 64}, {"time": 312, "pitch": 73, "duration": 3, "velocity": 64}, {"time": 315, "pitch": 74, "duration": 3, "velocity": 64}, {"time": 318, "pitch": 76, "duration": 3, "velocity": 64}, {"time": 321, "pitch": 74, "duration": 3, "velocity": 64}, {"time": 324, "pitch": 73, "duration": 6, "velocity": 64}, {"time": 330, "pitch": 72, "duration": 6, "velocity": 64}, {"time": 336, "pitch": 71, "duration": 3, "velocity": 64}, {"time": 339, "pitch": 72, "duration": 3, "velocity": 64}, {"time": 342, "pitch": 74, "duration": 3, "velocity": 64}, {"time": 345, "pitch": 72, "duration": 3, "velocity": 64}, {"time": 348, "pitch": 71, "duration": 6, "velocity": 64}, {"time": 354, "pitch": 70, "duration": 6, "velocity": 64}, {"time": 360, "pitch": 69, "duration": 6, "velocity": 64}, {"time": 366, "pitch": 74, "duration": 12, "velocity": 64}, {"time": 378, "pitch": 73, "duration": 6, "velocity": 64}, {"time": 384, "pitch": 69, "duration": 6, "velocity": 64}, {"time": 390, "pitch": 77, "duration": 12, "velocity": 64}, {"time": 402, "pitch": 76, "duration": 6, "velocity": 64}, {"time": 408, "pitch": 69, "duration": 6, "velocity": 64}, {"time": 414, "pitch": 81, "duration": 12, "velocity": 64}, {"time": 426, "pitch": 79, "duration": 12, "velocity": 64}, {"time": 438, "pitch": 77, "duration": 3, "velocity": 64}, {"time": 441, "pitch": 76, "duration": 3, "velocity": 64}, {"time": 444, "pitch": 77, "duration": 3, "velocity": 64}, {"time": 447, "pitch": 74, "duration": 3, "velocity": 64}, {"time": 450, "pitch": 76, "duration": 3, "velocity": 64}, {"time": 453, "pitch": 73, "duration": 3, "velocity": 64}, {"time": 456, "pitch": 74, "duration": 9, "velocity": 64}, {"time": 465, "pitch": 76, "duration": 3, "velocity": 64}, {"time": 468, "pitch": 76, "duration": 9, "velocity": 64}, {"time": 477, "pitch": 74, "duration": 3, "velocity": 64}, {"time": 480, "pitch": 74, "duration": 6, "velocity": 64}, {"time": 486, "pitch": 72, "duration": 3, "velocity": 64}, {"time": 489, "pitch": 70, "duration": 3, "velocity": 64}, {"time": 492, "pitch": 69, "duration": 3, "velocity": 64}, {"time": 495, "pitch": 70, "duration": 3, "velocity": 64}, {"time": 498, "pitch": 72, "duration": 3, "velocity": 64}, {"time": 501, "pitch": 69, "duration": 3, "velocity": 64}, {"time": 504, "pitch": 70, "duration": 3, "velocity": 64}, {"time": 507, "pitch": 69, "duration": 3, "velocity": 64}, {"time": 510, "pitch": 67, "duration": 3, "velocity": 64}, {"time": 513, "pitch": 65, "duration": 3, "velocity": 64}, {"time": 516, "pitch": 64, "duration": 3, "velocity": 64}, {"time": 519, "pitch": 74, "duration": 3, "velocity": 64}, {"time": 522, "pitch": 72, "duration": 3, "velocity": 64}, {"time": 525, "pitch": 70, "duration": 3, "velocity": 64}, {"time": 528, "pitch": 69, "duration": 3, "velocity": 64}, {"time": 531, "pitch": 67, "duration": 3, "velocity": 64}, {"time": 534, "pitch": 69, "duration": 3, "velocity": 64}, {"time": 537, "pitch": 71, "duration": 3, "velocity": 64}, {"time": 540, "pitch": 72, "duration": 15, "velocity": 64}, {"time": 555, "pitch": 69, "duration": 3, "velocity": 64}, {"time": 558, "pitch": 71, "duration": 3, "velocity": 64}, {"time": 561, "pitch": 72, "duration": 3, "velocity": 64}, {"time": 564, "pitch": 74, "duration": 15, "velocity": 64}, {"time": 579, "pitch": 67, "duration": 3, "velocity": 64}, {"time": 582, "pitch": 69, "duration": 3, "velocity": 64}, {"time": 585, "pitch": 71, "duration": 3, "velocity": 64}, {"time": 588, "pitch": 72, "duration": 3, "velocity": 64}, {"time": 591, "pitch": 74, "duration": 3, "velocity": 64}, {"time": 594, "pitch": 75, "duration": 3, "velocity": 64}, {"time": 597, "pitch": 72, "duration": 3, "velocity": 64}, {"time": 600, "pitch": 74, "duration": 3, "velocity": 64}, {"time": 603, "pitch": 72, "duration": 3, "velocity": 64}, {"time": 606, "pitch": 71, "duration": 3, "velocity": 64}, {"time": 609, "pitch": 69, "duration": 3, "velocity": 64}, {"time": 612, "pitch": 67, "duration": 3, "velocity": 64}, {"time": 615, "pitch": 77, "duration": 3, "velocity": 64}, {"time": 618, "pitch": 75, "duration": 3, "velocity": 64}, {"time": 621, "pitch": 74, "duration": 3, "velocity": 64}, {"time": 624, "pitch": 72, "duration": 3, "velocity": 64}, {"time": 627, "pitch": 70, "duration": 3, "velocity": 64}, {"time": 630, "pitch": 68, "duration": 3, "velocity": 64}, {"time": 633, "pitch": 67, "duration": 3, "velocity": 64}, {"time": 636, "pitch": 65, "duration": 3, "velocity": 64}, {"time": 639, "pitch": 75, "duration": 3, "velocity": 64}, {"time": 642, "pitch": 74, "duration": 3, "velocity": 64}, {"time": 645, "pitch": 72, "duration": 3, "velocity": 64}, {"time": 648, "pitch": 79, "duration": 3, "velocity": 64}, {"time": 651, "pitch": 77, "duration": 3, "velocity": 64}, {"time": 654, "pitch": 75, "duration": 3, "velocity": 64}, {"time": 657, "pitch": 79, "duration": 3, "velocity": 64}, {"time": 660, "pitch": 77, "duration": 3, "velocity": 64}, {"time": 663, "pitch": 75, "duration": 3, "velocity": 64}, {"time": 666, "pitch": 74, "duration": 3, "velocity": 64}, {"time": 669, "pitch": 77, "duration": 3, "velocity": 64}, {"time": 672, "pitch": 75, "duration": 3, "velocity": 64}, {"time": 675, "pitch": 74, "duration": 3, "velocity": 64}, {"time": 678, "pitch": 72, "duration": 3, "velocity": 64}, {"time": 681, "pitch": 74, "duration": 3, "velocity": 64}, {"time": 684, "pitch": 75, "duration": 3, "velocity": 64}, {"time": 687, "pitch": 77, "duration": 3, "velocity": 64}, {"time": 690, "pitch": 79, "duration": 3, "velocity": 64}, {"time": 693, "pitch": 80, "duration": 3, "velocity": 64}, {"time": 696, "pitch": 71, "duration": 6, "velocity": 64}, {"time": 702, "pitch": 74, "duration": 6, "velocity": 64}, {"time": 714, "pitch": 65, "duration": 6, "velocity": 64}, {"time": 720, "pitch": 63, "duration": 6, "velocity": 64}, {"time": 726, "pitch": 72, "duration": 6, "velocity": 64}, {"time": 732, "pitch": 62, "duration": 6, "velocity": 64}, {"time": 738, "pitch": 71, "duration": 6, "velocity": 64}, {"time": 744, "pitch": 72, "duration": 3, "velocity": 64}, {"time": 747, "pitch": 67, "duration": 3, "velocity": 64}, {"time": 750, "pitch": 72, "duration": 3, "velocity": 64}, {"time": 753, "pitch": 74, "duration": 3, "velocity": 64}, {"time": 756, "pitch": 75, "duration": 15, "velocity": 64}, {"time": 771, "pitch": 72, "duration": 3, "velocity": 64}, {"time": 774, "pitch": 74, "duration": 3, "velocity": 64}, {"time": 777, "pitch": 75, "duration": 3, "velocity": 64}, {"time": 780, "pitch": 77, "duration": 18, "velocity": 64}, {"time": 798, "pitch": 75, "duration": 3, "velocity": 64}, {"time": 801, "pitch": 74, "duration": 3, "velocity": 64}, {"time": 804, "pitch": 79, "duration": 9, "velocity": 64}, {"time": 813, "pitch": 77, "duration": 3, "velocity": 64}, {"time": 816, "pitch": 75, "duration": 3, "velocity": 64}, {"time": 819, "pitch": 74, "duration": 3, "velocity": 64}, {"time": 822, "pitch": 72, "duration": 3, "velocity": 64}, {"time": 825, "pitch": 70, "duration": 3, "velocity": 64}, {"time": 828, "pitch": 69, "duration": 3, "velocity": 64}, {"time": 831, "pitch": 67, "duration": 3, "velocity": 64}, {"time": 834, "pitch": 66, "duration": 3, "velocity": 64}, {"time": 837, "pitch": 69, "duration": 3, "velocity": 64}, {"time": 840, "pitch": 63, "duration": 3, "velocity": 64}, {"time": 843, "pitch": 62, "duration": 3, "velocity": 64}, {"time": 846, "pitch": 64, "duration": 3, "velocity": 64}, {"time": 849, "pitch": 66, "duration": 3, "velocity": 64}, {"time": 852, "pitch": 67, "duration": 3, "velocity": 64}, {"time": 855, "pitch": 69, "duration": 3, "velocity": 64}, {"time": 858, "pitch": 70, "duration": 3, "velocity": 64}, {"time": 861, "pitch": 67, "duration": 3, "velocity": 64}, {"time": 864, "pitch": 69, "duration": 3, "velocity": 64}, {"time": 867, "pitch": 67, "duration": 3, "velocity": 64}, {"time": 870, "pitch": 66, "duration": 3, "velocity": 64}, {"time": 873, "pitch": 64, "duration": 3, "velocity": 64}, {"time": 876, "pitch": 62, "duration": 3, "velocity": 64}, {"time": 879, "pitch": 72, "duration": 3, "velocity": 64}, {"time": 882, "pitch": 70, "duration": 3, "velocity": 64}, {"time": 885, "pitch": 69, "duration": 3, "velocity": 64}, {"time": 888, "pitch": 67, "duration": 3, "velocity": 64}, {"time": 891, "pitch": 65, "duration": 3, "velocity": 64}, {"time": 894, "pitch": 64, "duration": 3, "velocity": 64}, {"time": 897, "pitch": 62, "duration": 3, "velocity": 64}, {"time": 900, "pitch": 60, "duration": 3, "velocity": 64}, {"time": 903, "pitch": 70, "duration": 3, "velocity": 64}, {"time": 906, "pitch": 69, "duration": 3, "velocity": 64}, {"time": 909, "pitch": 67, "duration": 3, "velocity": 64}, {"time": 912, "pitch": 74, "duration": 3, "velocity": 64}, {"time": 915, "pitch": 72, "duration": 3, "velocity": 64}, {"time": 918, "pitch": 70, "duration": 3, "velocity": 64}, {"time": 921, "pitch": 74, "duration": 3, "velocity": 64}, {"time": 924, "pitch": 72, "duration": 3, "velocity": 64}, {"time": 927, "pitch": 70, "duration": 3, "velocity": 64}, {"time": 930, "pitch": 69, "duration": 3, "velocity": 64}, {"time": 933, "pitch": 72, "duration": 3, "velocity": 64}, {"time": 936, "pitch": 70, "duration": 3, "velocity": 64}, {"time": 939, "pitch": 69, "duration": 3, "velocity": 64}, {"time": 942, "pitch": 67, "duration": 3, "velocity": 64}, {"time": 945, "pitch": 70, "duration": 3, "velocity": 64}, {"time": 948, "pitch": 69, "duration": 3, "velocity": 64}, {"time": 951, "pitch": 67, "duration": 3, "velocity": 64}, {"time": 954, "pitch": 66, "duration": 3, "velocity": 64}, {"time": 957, "pitch": 69, "duration": 3, "velocity": 64}, {"time": 960, "pitch": 67, "duration": 3, "velocity": 64}, {"time": 963, "pitch": 69, "duration": 3, "velocity": 64}, {"time": 966, "pitch": 70, "duration": 3, "velocity": 64}, {"time": 969, "pitch": 72, "duration": 3, "velocity": 64}, {"time": 972, "pitch": 74, "duration": 3, "velocity": 64}, {"time": 975, "pitch": 76, "duration": 3, "velocity": 64}, {"time": 978, "pitch": 78, "duration": 3, "velocity": 64}, {"time": 981, "pitch": 79, "duration": 3, "velocity": 64}, {"time": 984, "pitch": 81, "duration": 3, "velocity": 64}, {"time": 987, "pitch": 78, "duration": 3, "velocity": 64}, {"time": 990, "pitch": 79, "duration": 3, "velocity": 64}, {"time": 993, "pitch": 81, "duration": 3, "velocity": 64}, {"time": 996, "pitch": 74, "duration": 15, "velocity": 64}, {"time": 1011, "pitch": 72, "duration": 3, "velocity": 64}, {"time": 1014, "pitch": 75, "duration": 3, "velocity": 64}, {"time": 1017, "pitch": 74, "duration": 3, "velocity": 64}, {"time": 1020, "pitch": 72, "duration": 3, "velocity": 64}, {"time": 1023, "pitch": 70, "duration": 3, "velocity": 64}, {"time": 1026, "pitch": 69, "duration": 3, "velocity": 64}, {"time": 1029, "pitch": 72, "duration": 3, "velocity": 64}, {"time": 1032, "pitch": 66, "duration": 3, "velocity": 64}, {"time": 1035, "pitch": 69, "duration": 3, "velocity": 64}, {"time": 1038, "pitch": 70, "duration": 3, "velocity": 64}, {"time": 1041, "pitch": 69, "duration": 3, "velocity": 64}, {"time": 1044, "pitch": 67, "duration": 3, "velocity": 64}, {"time": 1047, "pitch": 65, "duration": 3, "velocity": 64}, {"time": 1050, "pitch": 63, "duration": 3, "velocity": 64}, {"time": 1053, "pitch": 67, "duration": 3, "velocity": 64}, {"time": 1056, "pitch": 61, "duration": 3, "velocity": 64}, {"time": 1059, "pitch": 67, "duration": 3, "velocity": 64}, {"time": 1062, "pitch": 69, "duration": 3, "velocity": 64}, {"time": 1065, "pitch": 70, "duration": 3, "velocity": 64}, {"time": 1068, "pitch": 62, "duration": 3, "velocity": 64}, {"time": 1071, "pitch": 69, "duration": 3, "velocity": 64}, {"time": 1074, "pitch": 67, "duration": 3, "velocity": 64}, {"time": 1077, "pitch": 66, "duration": 3, "velocity": 64}, {"time": 1080, "pitch": 67, "duration": 24, "velocity": 64}]}]}