{"metadata": {"schema_version": "0.2"}, "resolution": 24, "tracks": [{"program": 6, "is_drum": false, "notes": [{"time": 0, "pitch": 47, "duration": 6, "velocity": 64}, {"time": 12, "pitch": 50, "duration": 6, "velocity": 64}, {"time": 24, "pitch": 52, "duration": 6, "velocity": 64}, {"time": 36, "pitch": 50, "duration": 6, "velocity": 64}, {"time": 48, "pitch": 49, "duration": 6, "velocity": 64}, {"time": 60, "pitch": 46, "duration": 6, "velocity": 64}, {"time": 72, "pitch": 47, "duration": 6, "velocity": 64}, {"time": 84, "pitch": 43, "duration": 6, "velocity": 64}, {"time": 96, "pitch": 42, "duration": 6, "velocity": 64}, {"time": 102, "pitch": 54, "duration": 3, "velocity": 64}, {"time": 105, "pitch": 53, "duration": 3, "velocity": 64}, {"time": 108, "pitch": 54, "duration": 6, "velocity": 64}, {"time": 114, "pitch": 49, "duration": 6, "velocity": 64}, {"time": 120, "pitch": 50, "duration": 6, "velocity": 64}, {"time": 126, "pitch": 49, "duration": 6, "velocity": 64}, {"time": 132, "pitch": 54, "duration": 6, "velocity": 64}, {"time": 138, "pitch": 49, "duration": 6, "velocity": 64}, {"time": 144, "pitch": 49, "duration": 6, "velocity": 64}, {"time": 150, "pitch": 47, "duration": 6, "velocity": 64}, {"time": 156, "pitch": 56, "duration": 6, "velocity": 64}, {"time": 162, "pitch": 47, "duration": 6, "velocity": 64}, {"time": 168, "pitch": 47, "duration": 6, "velocity": 64}, {"time": 174, "pitch": 45, "duration": 3, "velocity": 64}, {"time": 177, "pitch": 44, "duration": 3, "velocity": 64}, {"time": 180, "pitch": 45, "duration": 6, "velocity": 64}, {"time": 186, "pitch": 47, "duration": 6, "velocity": 64}, {"time": 192, "pitch": 49, "duration": 6, "velocity": 64}, {"time": 198, "pitch": 47, "duration": 6, "velocity": 64}, {"time": 204, "pitch": 49, "duration": 6, "velocity": 64}, {"time": 210, "pitch": 37, "duration": 6, "velocity": 64}, {"time": 216, "pitch": 42, "duration": 9, "velocity": 64}, {"time": 225, "pitch": 44, "duration": 3, "velocity": 64}, {"time": 228, "pitch": 45, "duration": 3, "velocity": 64}, {"time": 231, "pitch": 47, "duration": 3, "velocity": 64}, {"time": 234, "pitch": 44, "duration": 3, "velocity": 64}, {"time": 237, "pitch": 45, "duration": 3, "velocity": 64}, {"time": 240, "pitch": 47, "duration": 3, "velocity": 64}, {"time": 243, "pitch": 49, "duration": 3, "velocity": 64}, {"time": 246, "pitch": 47, "duration": 3, "velocity": 64}, {"time": 249, "pitch": 44, "duration": 3, "velocity": 64}, {"time": 252, "pitch": 45, "duration": 3, "velocity": 64}, {"time": 255, "pitch": 47, "duration": 3, "velocity": 64}, {"time": 258, "pitch": 45, "duration": 3, "velocity": 64}, {"time": 261, "pitch": 42, "duration": 3, "velocity": 64}, {"time": 264, "pitch": 44, "duration": 3, "velocity": 64}, {"time": 267, "pitch": 45, "duration": 3, "velocity": 64}, {"time": 270, "pitch": 44, "duration": 3, "velocity": 64}, {"time": 273, "pitch": 42, "duration": 3, "velocity": 64}, {"time": 276, "pitch": 41, "duration": 3, "velocity": 64}, {"time": 279, "pitch": 44, "duration": 3, "velocity": 64}, {"time": 282, "pitch": 42, "duration": 3, "velocity": 64}, {"time": 285, "pitch": 41, "duration": 3, "velocity": 64}, {"time": 288, "pitch": 42, "duration": 6, "velocity": 64}, {"time": 294, "pitch": 54, "duration": 3, "velocity": 64}, {"time": 297, "pitch": 53, "duration": 3, "velocity": 64}, {"time": 300, "pitch": 54, "duration": 6, "velocity": 64}, {"time": 306, "pitch": 49, "duration": 6, "velocity": 64}, {"time": 312, "pitch": 50, "duration": 6, "velocity": 64}, {"time": 318, "pitch": 62, "duration": 3, "velocity": 64}, {"time": 321, "pitch": 61, "duration": 3, "velocity": 64}, {"time": 324, "pitch": 62, "duration": 3, "velocity": 64}, {"time": 327, "pitch": 64, "duration": 3, "velocity": 64}, {"time": 330, "pitch": 62, "duration": 3, "velocity": 64}, {"time": 333, "pitch": 58, "duration": 3, "velocity": 64}, {"time": 336, "pitch": 59, "duration": 6, "velocity": 64}, {"time": 342, "pitch": 57, "duration": 6, "velocity": 64}, {"time": 348, "pitch": 55, "duration": 6, "velocity": 64}, {"time": 354, "pitch": 54, "duration": 6, "velocity": 64}, {"time": 360, "pitch": 52, "duration": 6, "velocity": 64}, {"time": 366, "pitch": 40, "duration": 6, "velocity": 64}, {"time": 372, "pitch": 42, "duration": 6, "velocity": 64}, {"time": 378, "pitch": 43, "duration": 6, "velocity": 64}, {"time": 384, "pitch": 45, "duration": 6, "velocity": 64}, {"time": 390, "pitch": 55, "duration": 6, "velocity": 64}, {"time": 396, "pitch": 54, "duration": 6, "velocity": 64}, {"time": 402, "pitch": 52, "duration": 6, "velocity": 64}, {"time": 408, "pitch": 50, "duration": 6, "velocity": 64}, {"time": 414, "pitch": 38, "duration": 6, "velocity": 64}, {"time": 420, "pitch": 40, "duration": 6, "velocity": 64}, {"time": 426, "pitch": 42, "duration": 6, "velocity": 64}, {"time": 432, "pitch": 43, "duration": 6, "velocity": 64}, {"time": 438, "pitch": 55, "duration": 6, "velocity": 64}, {"time": 444, "pitch": 54, "duration": 6, "velocity": 64}, {"time": 450, "pitch": 59, "duration": 6, "velocity": 64}, {"time": 456, "pitch": 52, "duration": 6, "velocity": 64}, {"time": 462, "pitch": 57, "duration": 6, "velocity": 64}, {"time": 468, "pitch": 50, "duration": 6, "velocity": 64}, {"time": 474, "pitch": 62, "duration": 9, "velocity": 64}, {"time": 483, "pitch": 64, "duration": 3, "velocity": 64}, {"time": 486, "pitch": 62, "duration": 3, "velocity": 64}, {"time": 489, "pitch": 59, "duration": 3, "velocity": 64}, {"time": 492, "pitch": 61, "duration": 3, "velocity": 64}, {"time": 495, "pitch": 62, "duration": 3, "velocity": 64}, {"time": 498, "pitch": 61, "duration": 3, "velocity": 64}, {"time": 501, "pitch": 57, "duration": 3, "velocity": 64}, {"time": 504, "pitch": 62, "duration": 3, "velocity": 64}, {"time": 507, "pitch": 61, "duration": 3, "velocity": 64}, {"time": 510, "pitch": 59, "duration": 3, "velocity": 64}, {"time": 513, "pitch": 57, "duration": 3, "velocity": 64}, {"time": 516, "pitch": 55, "duration": 3, "velocity": 64}, {"time": 519, "pitch": 54, "duration": 3, "velocity": 64}, {"time": 522, "pitch": 55, "duration": 3, "velocity": 64}, {"time": 525, "pitch": 57, "duration": 3, "velocity": 64}, {"time": 528, "pitch": 50, "duration": 6, "velocity": 64}, {"time": 534, "pitch": 62, "duration": 3, "velocity": 64}, {"time": 537, "pitch": 61, "duration": 3, "velocity": 64}, {"time": 540, "pitch": 62, "duration": 6, "velocity": 64}, {"time": 546, "pitch": 57, "duration": 6, "velocity": 64}, {"time": 552, "pitch": 59, "duration": 6, "velocity": 64}, {"time": 558, "pitch": 57, "duration": 6, "velocity": 64}, {"time": 564, "pitch": 62, "duration": 6, "velocity": 64}, {"time": 570, "pitch": 57, "duration": 6, "velocity": 64}, {"time": 576, "pitch": 57, "duration": 6, "velocity": 64}, {"time": 582, "pitch": 55, "duration": 6, "velocity": 64}, {"time": 588, "pitch": 64, "duration": 6, "velocity": 64}, {"time": 594, "pitch": 55, "duration": 6, "velocity": 64}, {"time": 600, "pitch": 55, "duration": 6, "velocity": 64}, {"time": 606, "pitch": 54, "duration": 3, "velocity": 64}, {"time": 609, "pitch": 52, "duration": 3, "velocity": 64}, {"time": 612, "pitch": 54, "duration": 3, "velocity": 64}, {"time": 615, "pitch": 56, "duration": 3, "velocity": 64}, {"time": 618, "pitch": 57, "duration": 3, "velocity": 64}, {"time": 621, "pitch": 56, "duration": 3, "velocity": 64}, {"time": 624, "pitch": 57, "duration": 6, "velocity": 64}, {"time": 630, "pitch": 52, "duration": 6, "velocity": 64}, {"time": 636, "pitch": 50, "duration": 3, "velocity": 64}, {"time": 639, "pitch": 49, "duration": 3, "velocity": 64}, {"time": 642, "pitch": 47, "duration": 3, "velocity": 64}, {"time": 645, "pitch": 45, "duration": 3, "velocity": 64}, {"time": 648, "pitch": 50, "duration": 3, "velocity": 64}, {"time": 651, "pitch": 52, "duration": 3, "velocity": 64}, {"time": 654, "pitch": 50, "duration": 3, "velocity": 64}, {"time": 657, "pitch": 47, "duration": 3, "velocity": 64}, {"time": 660, "pitch": 49, "duration": 3, "velocity": 64}, {"time": 663, "pitch": 50, "duration": 3, "velocity": 64}, {"time": 666, "pitch": 49, "duration": 3, "velocity": 64}, {"time": 669, "pitch": 45, "duration": 3, "velocity": 64}, {"time": 672, "pitch": 47, "duration": 3, "velocity": 64}, {"time": 675, "pitch": 49, "duration": 3, "velocity": 64}, {"time": 678, "pitch": 47, "duration": 3, "velocity": 64}, {"time": 681, "pitch": 45, "duration": 3, "velocity": 64}, {"time": 684, "pitch": 44, "duration": 3, "velocity": 64}, {"time": 687, "pitch": 47, "duration": 3, "velocity": 64}, {"time": 690, "pitch": 45, "duration": 3, "velocity": 64}, {"time": 693, "pitch": 44, "duration": 3, "velocity": 64}, {"time": 696, "pitch": 45, "duration": 6, "velocity": 64}, {"time": 702, "pitch": 57, "duration": 6, "velocity": 64}, {"time": 708, "pitch": 55, "duration": 6, "velocity": 64}, {"time": 714, "pitch": 54, "duration": 6, "velocity": 64}, {"time": 720, "pitch": 52, "duration": 6, "velocity": 64}, {"time": 726, "pitch": 64, "duration": 6, "velocity": 64}, {"time": 732, "pitch": 62, "duration": 6, "velocity": 64}, {"time": 738, "pitch": 61, "duration": 6, "velocity": 64}, {"time": 744, "pitch": 59, "duration": 6, "velocity": 64}, {"time": 750, "pitch": 47, "duration": 6, "velocity": 64}, {"time": 756, "pitch": 45, "duration": 6, "velocity": 64}, {"time": 762, "pitch": 44, "duration": 6, "velocity": 64}, {"time": 768, "pitch": 42, "duration": 6, "velocity": 64}, {"time": 774, "pitch": 54, "duration": 3, "velocity": 64}, {"time": 777, "pitch": 55, "duration": 3, "velocity": 64}, {"time": 780, "pitch": 57, "duration": 6, "velocity": 64}, {"time": 786, "pitch": 59, "duration": 6, "velocity": 64}, {"time": 792, "pitch": 52, "duration": 6, "velocity": 64}, {"time": 798, "pitch": 40, "duration": 3, "velocity": 64}, {"time": 801, "pitch": 42, "duration": 3, "velocity": 64}, {"time": 804, "pitch": 43, "duration": 6, "velocity": 64}, {"time": 810, "pitch": 45, "duration": 6, "velocity": 64}, {"time": 816, "pitch": 38, "duration": 6, "velocity": 64}, {"time": 822, "pitch": 59, "duration": 3, "velocity": 64}, {"time": 825, "pitch": 58, "duration": 3, "velocity": 64}, {"time": 828, "pitch": 59, "duration": 6, "velocity": 64}, {"time": 834, "pitch": 54, "duration": 6, "velocity": 64}, {"time": 840, "pitch": 55, "duration": 6, "velocity": 64}, {"time": 846, "pitch": 54, "duration": 6, "velocity": 64}, {"time": 852, "pitch": 59, "duration": 6, "velocity": 64}, {"time": 858, "pitch": 54, "duration": 6, "velocity": 64}, {"time": 864, "pitch": 54, "duration": 6, "velocity": 64}, {"time": 870, "pitch": 52, "duration": 6, "velocity": 64}, {"time": 876, "pitch": 61, "duration": 6, "velocity": 64}, {"time": 882, "pitch": 52, "duration": 6, "velocity": 64}, {"time": 888, "pitch": 52, "duration": 6, "velocity": 64}, {"time": 894, "pitch": 50, "duration": 3, "velocity": 64}, {"time": 897, "pitch": 49, "duration": 3, "velocity": 64}, {"time": 900, "pitch": 50, "duration": 3, "velocity": 64}, {"time": 903, "pitch": 47, "duration": 3, "velocity": 64}, {"time": 906, "pitch": 49, "duration": 3, "velocity": 64}, {"time": 909, "pitch": 50, "duration": 3, "velocity": 64}, {"time": 912, "pitch": 52, "duration": 3, "velocity": 64}, {"time": 915, "pitch": 54, "duration": 3, "velocity": 64}, {"time": 918, "pitch": 52, "duration": 3, "velocity": 64}, {"time": 921, "pitch": 49, "duration": 3, "velocity": 64}, {"time": 924, "pitch": 50, "duration": 3, "velocity": 64}, {"time": 927, "pitch": 52, "duration": 3, "velocity": 64}, {"time": 930, "pitch": 50, "duration": 3, "velocity": 64}, {"time": 933, "pitch": 47, "duration": 3, "velocity": 64}, {"time": 936, "pitch": 49, "duration": 3, "velocity": 64}, {"time": 939, "pitch": 50, "duration": 3, "velocity": 64}, {"time": 942, "pitch": 49, "duration": 3, "velocity": 64}, {"time": 945, "pitch": 47, "duration": 3, "velocity": 64}, {"time": 948, "pitch": 46, "duration": 3, "velocity": 64}, {"time": 951, "pitch": 49, "duration": 3, "velocity": 64}, {"time": 954, "pitch": 47, "duration": 3, "velocity": 64}, {"time": 957, "pitch": 46, "duration": 3, "velocity": 64}, {"time": 960, "pitch": 47, "duration": 6, "velocity": 64}, {"time": 966, "pitch": 59, "duration": 3, "velocity": 64}, {"time": 969, "pitch": 58, "duration": 3, "velocity": 64}, {"time": 972, "pitch": 59, "duration": 6, "velocity": 64}, {"time": 978, "pitch": 55, "duration": 6, "velocity": 64}, {"time": 984, "pitch": 50, "duration": 3, "velocity": 64}, {"time": 987, "pitch": 54, "duration": 3, "velocity": 64}, {"time": 990, "pitch": 52, "duration": 3, "velocity": 64}, {"time": 993, "pitch": 55, "duration": 3, "velocity": 64}, {"time": 996, "pitch": 54, "duration": 6, "velocity": 64}, {"time": 1002, "pitch": 42, "duration": 6, "velocity": 64}, {"time": 1008, "pitch": 47, "duration": 48, "velocity": 64}]}]}