{"metadata": {"schema_version": "0.2"}, "resolution": 24, "tracks": [{"program": 6, "is_drum": false, "notes": [{"time": 0, "pitch": 45, "duration": 6, "velocity": 64}, {"time": 6, "pitch": 57, "duration": 12, "velocity": 64}, {"time": 18, "pitch": 56, "duration": 6, "velocity": 64}, {"time": 24, "pitch": 57, "duration": 3, "velocity": 64}, {"time": 27, "pitch": 52, "duration": 3, "velocity": 64}, {"time": 30, "pitch": 57, "duration": 3, "velocity": 64}, {"time": 33, "pitch": 60, "duration": 3, "velocity": 64}, {"time": 36, "pitch": 59, "duration": 3, "velocity": 64}, {"time": 39, "pitch": 52, "duration": 3, "velocity": 64}, {"time": 42, "pitch": 59, "duration": 3, "velocity": 64}, {"time": 45, "pitch": 62, "duration": 3, "velocity": 64}, {"time": 48, "pitch": 60, "duration": 6, "velocity": 64}, {"time": 54, "pitch": 57, "duration": 6, "velocity": 64}, {"time": 60, "pitch": 56, "duration": 6, "velocity": 64}, {"time": 66, "pitch": 52, "duration": 6, "velocity": 64}, {"time": 72, "pitch": 57, "duration": 3, "velocity": 64}, {"time": 75, "pitch": 52, "duration": 3, "velocity": 64}, {"time": 78, "pitch": 57, "duration": 3, "velocity": 64}, {"time": 81, "pitch": 60, "duration": 3, "velocity": 64}, {"time": 84, "pitch": 59, "duration": 3, "velocity": 64}, {"time": 87, "pitch": 52, "duration": 3, "velocity": 64}, {"time": 90, "pitch": 59, "duration": 3, "velocity": 64}, {"time": 93, "pitch": 62, "duration": 3, "velocity": 64}, {"time": 96, "pitch": 60, "duration": 6, "velocity": 64}, {"time": 102, "pitch": 57, "duration": 6, "velocity": 64}, {"time": 108, "pitch": 60, "duration": 6, "velocity": 64}, {"time": 114, "pitch": 57, "duration": 6, "velocity": 64}, {"time": 120, "pitch": 62, "duration": 3, "velocity": 64}, {"time": 123, "pitch": 57, "duration": 3, "velocity": 64}, {"time": 126, "pitch": 53, "duration": 3, "velocity": 64}, {"time": 129, "pitch": 57, "duration": 3, "velocity": 64}, {"time": 132, "pitch": 50, "duration": 3, "velocity": 64}, {"time": 135, "pitch": 53, "duration": 3, "velocity": 64}, {"time": 138, "pitch": 45, "duration": 3, "velocity": 64}, {"time": 141, "pitch": 48, "duration": 3, "velocity": 64}, {"time": 144, "pitch": 47, "duration": 6, "velocity": 64}, {"time": 150, "pitch": 50, "duration": 6, "velocity": 64}, {"time": 156, "pitch": 55, "duration": 6, "velocity": 64}, {"time": 162, "pitch": 59, "duration": 9, "velocity": 64}, {"time": 171, "pitch": 55, "duration": 3, "velocity": 64}, {"time": 174, "pitch": 52, "duration": 3, "velocity": 64}, {"time": 177, "pitch": 55, "duration": 3, "velocity": 64}, {"time": 180, "pitch": 48, "duration": 3, "velocity": 64}, {"time": 183, "pitch": 52, "duration": 3, "velocity": 64}, {"time": 186, "pitch": 43, "duration": 3, "velocity": 64}, {"time": 189, "pitch": 47, "duration": 3, "velocity": 64}, {"time": 192, "pitch": 45, "duration": 6, "velocity": 64}, {"time": 198, "pitch": 48, "duration": 6, "velocity": 64}, {"time": 204, "pitch": 50, "duration": 3, "velocity": 64}, {"time": 207, "pitch": 53, "duration": 3, "velocity": 64}, {"time": 210, "pitch": 47, "duration": 3, "velocity": 64}, {"time": 213, "pitch": 50, "duration": 3, "velocity": 64}, {"time": 216, "pitch": 43, "duration": 6, "velocity": 64}, {"time": 222, "pitch": 47, "duration": 6, "velocity": 64}, {"time": 228, "pitch": 48, "duration": 3, "velocity": 64}, {"time": 231, "pitch": 52, "duration": 3, "velocity": 64}, {"time": 234, "pitch": 45, "duration": 3, "velocity": 64}, {"time": 237, "pitch": 48, "duration": 3, "velocity": 64}, {"time": 240, "pitch": 41, "duration": 6, "velocity": 64}, {"time": 246, "pitch": 38, "duration": 6, "velocity": 64}, {"time": 252, "pitch": 43, "duration": 3, "velocity": 64}, {"time": 255, "pitch": 55, "duration": 3, "velocity": 64}, {"time": 258, "pitch": 53, "duration": 3, "velocity": 64}, {"time": 261, "pitch": 55, "duration": 3, "velocity": 64}, {"time": 264, "pitch": 48, "duration": 3, "velocity": 64}, {"time": 267, "pitch": 55, "duration": 3, "velocity": 64}, {"time": 270, "pitch": 60, "duration": 3, "velocity": 64}, {"time": 273, "pitch": 64, "duration": 3, "velocity": 64}, {"time": 276, "pitch": 62, "duration": 3, "velocity": 64}, {"time": 279, "pitch": 55, "duration": 3, "velocity": 64}, {"time": 282, "pitch": 62, "duration": 3, "velocity": 64}, {"time": 285, "pitch": 65, "duration": 3, "velocity": 64}, {"time": 288, "pitch": 64, "duration": 6, "velocity": 64}, {"time": 294, "pitch": 60, "duration": 6, "velocity": 64}, {"time": 300, "pitch": 59, "duration": 6, "velocity": 64}, {"time": 306, "pitch": 55, "duration": 6, "velocity": 64}, {"time": 312, "pitch": 60, "duration": 3, "velocity": 64}, {"time": 315, "pitch": 55, "duration": 3, "velocity": 64}, {"time": 318, "pitch": 60, "duration": 3, "velocity": 64}, {"time": 321, "pitch": 64, "duration": 3, "velocity": 64}, {"time": 324, "pitch": 62, "duration": 3, "velocity": 64}, {"time": 327, "pitch": 55, "duration": 3, "velocity": 64}, {"time": 330, "pitch": 62, "duration": 3, "velocity": 64}, {"time": 333, "pitch": 65, "duration": 3, "velocity": 64}, {"time": 336, "pitch": 64, "duration": 6, "velocity": 64}, {"time": 342, "pitch": 60, "duration": 6, "velocity": 64}, {"time": 363, "pitch": 67, "duration": 3, "velocity": 64}, {"time": 366, "pitch": 64, "duration": 3, "velocity": 64}, {"time": 369, "pitch": 67, "duration": 3, "velocity": 64}, {"time": 372, "pitch": 60, "duration": 3, "velocity": 64}, {"time": 375, "pitch": 64, "duration": 3, "velocity": 64}, {"time": 378, "pitch": 55, "duration": 3, "velocity": 64}, {"time": 381, "pitch": 59, "duration": 3, "velocity": 64}, {"time": 384, "pitch": 57, "duration": 6, "velocity": 64}, {"time": 390, "pitch": 60, "duration": 6, "velocity": 64}, {"time": 396, "pitch": 64, "duration": 6, "velocity": 64}, {"time": 402, "pitch": 67, "duration": 6, "velocity": 64}, {"time": 408, "pitch": 66, "duration": 3, "velocity": 64}, {"time": 411, "pitch": 69, "duration": 3, "velocity": 64}, {"time": 414, "pitch": 62, "duration": 3, "velocity": 64}, {"time": 417, "pitch": 66, "duration": 3, "velocity": 64}, {"time": 420, "pitch": 57, "duration": 3, "velocity": 64}, {"time": 423, "pitch": 62, "duration": 3, "velocity": 64}, {"time": 426, "pitch": 54, "duration": 3, "velocity": 64}, {"time": 429, "pitch": 57, "duration": 3, "velocity": 64}, {"time": 432, "pitch": 55, "duration": 6, "velocity": 64}, {"time": 438, "pitch": 59, "duration": 6, "velocity": 64}, {"time": 444, "pitch": 62, "duration": 6, "velocity": 64}, {"time": 450, "pitch": 66, "duration": 6, "velocity": 64}, {"time": 456, "pitch": 64, "duration": 3, "velocity": 64}, {"time": 459, "pitch": 67, "duration": 3, "velocity": 64}, {"time": 462, "pitch": 60, "duration": 3, "velocity": 64}, {"time": 465, "pitch": 64, "duration": 3, "velocity": 64}, {"time": 468, "pitch": 55, "duration": 3, "velocity": 64}, {"time": 471, "pitch": 60, "duration": 3, "velocity": 64}, {"time": 474, "pitch": 52, "duration": 3, "velocity": 64}, {"time": 477, "pitch": 55, "duration": 3, "velocity": 64}, {"time": 480, "pitch": 54, "duration": 6, "velocity": 64}, {"time": 486, "pitch": 57, "duration": 6, "velocity": 64}, {"time": 492, "pitch": 59, "duration": 6, "velocity": 64}, {"time": 498, "pitch": 63, "duration": 6, "velocity": 64}, {"time": 507, "pitch": 64, "duration": 3, "velocity": 64}, {"time": 510, "pitch": 60, "duration": 3, "velocity": 64}, {"time": 513, "pitch": 64, "duration": 3, "velocity": 64}, {"time": 516, "pitch": 57, "duration": 3, "velocity": 64}, {"time": 519, "pitch": 60, "duration": 3, "velocity": 64}, {"time": 522, "pitch": 64, "duration": 3, "velocity": 64}, {"time": 525, "pitch": 67, "duration": 3, "velocity": 64}, {"time": 528, "pitch": 66, "duration": 3, "velocity": 64}, {"time": 531, "pitch": 62, "duration": 3, "velocity": 64}, {"time": 534, "pitch": 59, "duration": 3, "velocity": 64}, {"time": 537, "pitch": 62, "duration": 3, "velocity": 64}, {"time": 540, "pitch": 55, "duration": 3, "velocity": 64}, {"time": 543, "pitch": 59, "duration": 3, "velocity": 64}, {"time": 546, "pitch": 62, "duration": 3, "velocity": 64}, {"time": 549, "pitch": 66, "duration": 3, "velocity": 64}, {"time": 552, "pitch": 64, "duration": 3, "velocity": 64}, {"time": 555, "pitch": 60, "duration": 3, "velocity": 64}, {"time": 558, "pitch": 57, "duration": 3, "velocity": 64}, {"time": 561, "pitch": 60, "duration": 3, "velocity": 64}, {"time": 564, "pitch": 54, "duration": 3, "velocity": 64}, {"time": 567, "pitch": 57, "duration": 3, "velocity": 64}, {"time": 570, "pitch": 60, "duration": 9, "velocity": 64}, {"time": 579, "pitch": 59, "duration": 3, "velocity": 64}, {"time": 582, "pitch": 60, "duration": 3, "velocity": 64}, {"time": 585, "pitch": 57, "duration": 3, "velocity": 64}, {"time": 588, "pitch": 59, "duration": 6, "velocity": 64}, {"time": 594, "pitch": 47, "duration": 6, "velocity": 64}, {"time": 600, "pitch": 52, "duration": 3, "velocity": 64}, {"time": 603, "pitch": 64, "duration": 3, "velocity": 64}, {"time": 606, "pitch": 59, "duration": 3, "velocity": 64}, {"time": 609, "pitch": 55, "duration": 3, "velocity": 64}, {"time": 612, "pitch": 52, "duration": 3, "velocity": 64}, {"time": 615, "pitch": 47, "duration": 3, "velocity": 64}, {"time": 618, "pitch": 43, "duration": 3, "velocity": 64}, {"time": 621, "pitch": 47, "duration": 3, "velocity": 64}, {"time": 624, "pitch": 40, "duration": 6, "velocity": 64}, {"time": 630, "pitch": 52, "duration": 6, "velocity": 64}, {"time": 636, "pitch": 55, "duration": 6, "velocity": 64}, {"time": 642, "pitch": 58, "duration": 6, "velocity": 64}, {"time": 648, "pitch": 49, "duration": 6, "velocity": 64}, {"time": 663, "pitch": 67, "duration": 3, "velocity": 64}, {"time": 666, "pitch": 65, "duration": 3, "velocity": 64}, {"time": 669, "pitch": 64, "duration": 3, "velocity": 64}, {"time": 672, "pitch": 62, "duration": 6, "velocity": 64}, {"time": 678, "pitch": 50, "duration": 6, "velocity": 64}, {"time": 684, "pitch": 53, "duration": 6, "velocity": 64}, {"time": 690, "pitch": 56, "duration": 6, "velocity": 64}, {"time": 696, "pitch": 47, "duration": 6, "velocity": 64}, {"time": 711, "pitch": 65, "duration": 3, "velocity": 64}, {"time": 714, "pitch": 64, "duration": 3, "velocity": 64}, {"time": 717, "pitch": 62, "duration": 3, "velocity": 64}, {"time": 720, "pitch": 60, "duration": 6, "velocity": 64}, {"time": 726, "pitch": 48, "duration": 6, "velocity": 64}, {"time": 732, "pitch": 52, "duration": 6, "velocity": 64}, {"time": 738, "pitch": 54, "duration": 6, "velocity": 64}, {"time": 744, "pitch": 45, "duration": 6, "velocity": 64}, {"time": 759, "pitch": 64, "duration": 3, "velocity": 64}, {"time": 762, "pitch": 63, "duration": 3, "velocity": 64}, {"time": 765, "pitch": 61, "duration": 3, "velocity": 64}, {"time": 768, "pitch": 59, "duration": 6, "velocity": 64}, {"time": 774, "pitch": 47, "duration": 6, "velocity": 64}, {"time": 780, "pitch": 50, "duration": 6, "velocity": 64}, {"time": 786, "pitch": 53, "duration": 6, "velocity": 64}, {"time": 792, "pitch": 44, "duration": 6, "velocity": 64}, {"time": 807, "pitch": 62, "duration": 3, "velocity": 64}, {"time": 810, "pitch": 60, "duration": 3, "velocity": 64}, {"time": 813, "pitch": 59, "duration": 3, "velocity": 64}, {"time": 816, "pitch": 60, "duration": 6, "velocity": 64}, {"time": 822, "pitch": 57, "duration": 6, "velocity": 64}, {"time": 828, "pitch": 56, "duration": 6, "velocity": 64}, {"time": 834, "pitch": 52, "duration": 6, "velocity": 64}, {"time": 840, "pitch": 57, "duration": 3, "velocity": 64}, {"time": 843, "pitch": 52, "duration": 3, "velocity": 64}, {"time": 846, "pitch": 57, "duration": 3, "velocity": 64}, {"time": 849, "pitch": 60, "duration": 3, "velocity": 64}, {"time": 852, "pitch": 59, "duration": 3, "velocity": 64}, {"time": 855, "pitch": 52, "duration": 3, "velocity": 64}, {"time": 858, "pitch": 59, "duration": 3, "velocity": 64}, {"time": 861, "pitch": 62, "duration": 3, "velocity": 64}, {"time": 864, "pitch": 60, "duration": 3, "velocity": 64}, {"time": 867, "pitch": 64, "duration": 3, "velocity": 64}, {"time": 870, "pitch": 69, "duration": 3, "velocity": 64}, {"time": 873, "pitch": 64, "duration": 3, "velocity": 64}, {"time": 876, "pitch": 60, "duration": 3, "velocity": 64}, {"time": 879, "pitch": 64, "duration": 3, "velocity": 64}, {"time": 882, "pitch": 57, "duration": 3, "velocity": 64}, {"time": 885, "pitch": 60, "duration": 3, "velocity": 64}, {"time": 888, "pitch": 54, "duration": 3, "velocity": 64}, {"time": 891, "pitch": 57, "duration": 3, "velocity": 64}, {"time": 894, "pitch": 60, "duration": 3, "velocity": 64}, {"time": 897, "pitch": 57, "duration": 3, "velocity": 64}, {"time": 900, "pitch": 54, "duration": 3, "velocity": 64}, {"time": 903, "pitch": 57, "duration": 3, "velocity": 64}, {"time": 906, "pitch": 51, "duration": 3, "velocity": 64}, {"time": 909, "pitch": 54, "duration": 3, "velocity": 64}, {"time": 912, "pitch": 52, "duration": 6, "velocity": 64}, {"time": 918, "pitch": 56, "duration": 6, "velocity": 64}, {"time": 924, "pitch": 59, "duration": 6, "velocity": 64}, {"time": 930, "pitch": 56, "duration": 6, "velocity": 64}, {"time": 936, "pitch": 52, "duration": 6, "velocity": 64}, {"time": 942, "pitch": 47, "duration": 6, "velocity": 64}, {"time": 948, "pitch": 44, "duration": 6, "velocity": 64}, {"time": 954, "pitch": 40, "duration": 6, "velocity": 64}, {"time": 960, "pitch": 45, "duration": 6, "velocity": 64}, {"time": 966, "pitch": 48, "duration": 6, "velocity": 64}, {"time": 972, "pitch": 52, "duration": 6, "velocity": 64}, {"time": 978, "pitch": 48, "duration": 6, "velocity": 64}, {"time": 984, "pitch": 45, "duration": 6, "velocity": 64}, {"time": 990, "pitch": 48, "duration": 6, "velocity": 64}, {"time": 996, "pitch": 39, "duration": 6, "velocity": 64}, {"time": 1011, "pitch": 59, "duration": 3, "velocity": 64}, {"time": 1014, "pitch": 56, "duration": 3, "velocity": 64}, {"time": 1017, "pitch": 52, "duration": 3, "velocity": 64}, {"time": 1020, "pitch": 50, "duration": 3, "velocity": 64}, {"time": 1023, "pitch": 59, "duration": 3, "velocity": 64}, {"time": 1026, "pitch": 56, "duration": 3, "velocity": 64}, {"time": 1029, "pitch": 50, "duration": 3, "velocity": 64}, {"time": 1032, "pitch": 48, "duration": 6, "velocity": 64}, {"time": 1038, "pitch": 52, "duration": 6, "velocity": 64}, {"time": 1044, "pitch": 44, "duration": 6, "velocity": 64}, {"time": 1050, "pitch": 52, "duration": 6, "velocity": 64}, {"time": 1056, "pitch": 45, "duration": 6, "velocity": 64}, {"time": 1062, "pitch": 54, "duration": 6, "velocity": 64}, {"time": 1068, "pitch": 47, "duration": 6, "velocity": 64}, {"time": 1074, "pitch": 56, "duration": 6, "velocity": 64}, {"time": 1080, "pitch": 48, "duration": 6, "velocity": 64}, {"time": 1086, "pitch": 57, "duration": 6, "velocity": 64}, {"time": 1092, "pitch": 50, "duration": 6, "velocity": 64}, {"time": 1098, "pitch": 58, "duration": 6, "velocity": 64}, {"time": 1104, "pitch": 56, "duration": 6, "velocity": 64}, {"time": 1110, "pitch": 53, "duration": 6, "velocity": 64}, {"time": 1116, "pitch": 50, "duration": 6, "velocity": 64}, {"time": 1122, "pitch": 47, "duration": 6, "velocity": 64}, {"time": 1128, "pitch": 44, "duration": 6, "velocity": 64}, {"time": 1134, "pitch": 45, "duration": 6, "velocity": 64}, {"time": 1140, "pitch": 38, "duration": 6, "velocity": 64}, {"time": 1146, "pitch": 40, "duration": 6, "velocity": 64}, {"time": 1152, "pitch": 41, "duration": 6, "velocity": 64}, {"time": 1158, "pitch": 39, "duration": 6, "velocity": 64}, {"time": 1164, "pitch": 40, "duration": 6, "velocity": 64}, {"time": 1170, "pitch": 52, "duration": 6, "velocity": 64}, {"time": 1176, "pitch": 45, "duration": 24, "velocity": 64}]}]}