{"metadata": {"schema_version": "0.2"}, "resolution": 24, "tracks": [{"program": 6, "is_drum": false, "notes": [{"time": 6, "pitch": 71, "duration": 3, "velocity": 64}, {"time": 9, "pitch": 70, "duration": 3, "velocity": 64}, {"time": 12, "pitch": 71, "duration": 6, "velocity": 64}, {"time": 18, "pitch": 66, "duration": 6, "velocity": 64}, {"time": 24, "pitch": 67, "duration": 6, "velocity": 64}, {"time": 30, "pitch": 66, "duration": 6, "velocity": 64}, {"time": 36, "pitch": 71, "duration": 6, "velocity": 64}, {"time": 42, "pitch": 66, "duration": 6, "velocity": 64}, {"time": 48, "pitch": 66, "duration": 6, "velocity": 64}, {"time": 54, "pitch": 64, "duration": 6, "velocity": 64}, {"time": 60, "pitch": 73, "duration": 6, "velocity": 64}, {"time": 66, "pitch": 64, "duration": 6, "velocity": 64}, {"time": 72, "pitch": 64, "duration": 6, "velocity": 64}, {"time": 78, "pitch": 62, "duration": 3, "velocity": 64}, {"time": 81, "pitch": 61, "duration": 3, "velocity": 64}, {"time": 84, "pitch": 62, "duration": 3, "velocity": 64}, {"time": 87, "pitch": 64, "duration": 3, "velocity": 64}, {"time": 90, "pitch": 66, "duration": 3, "velocity": 64}, {"time": 93, "pitch": 64, "duration": 3, "velocity": 64}, {"time": 96, "pitch": 66, "duration": 6, "velocity": 64}, {"time": 111, "pitch": 69, "duration": 3, "velocity": 64}, {"time": 114, "pitch": 68, "duration": 3, "velocity": 64}, {"time": 117, "pitch": 69, "duration": 3, "velocity": 64}, {"time": 120, "pitch": 71, "duration": 3, "velocity": 64}, {"time": 123, "pitch": 73, "duration": 3, "velocity": 64}, {"time": 126, "pitch": 71, "duration": 3, "velocity": 64}, {"time": 129, "pitch": 68, "duration": 3, "velocity": 64}, {"time": 132, "pitch": 69, "duration": 3, "velocity": 64}, {"time": 135, "pitch": 71, "duration": 3, "velocity": 64}, {"time": 138, "pitch": 69, "duration": 3, "velocity": 64}, {"time": 141, "pitch": 66, "duration": 3, "velocity": 64}, {"time": 144, "pitch": 68, "duration": 3, "velocity": 64}, {"time": 147, "pitch": 69, "duration": 3, "velocity": 64}, {"time": 150, "pitch": 68, "duration": 3, "velocity": 64}, {"time": 153, "pitch": 66, "duration": 3, "velocity": 64}, {"time": 156, "pitch": 65, "duration": 3, "velocity": 64}, {"time": 159, "pitch": 68, "duration": 3, "velocity": 64}, {"time": 162, "pitch": 66, "duration": 3, "velocity": 64}, {"time": 165, "pitch": 65, "duration": 3, "velocity": 64}, {"time": 168, "pitch": 73, "duration": 6, "velocity": 64}, {"time": 174, "pitch": 66, "duration": 3, "velocity": 64}, {"time": 177, "pitch": 65, "duration": 3, "velocity": 64}, {"time": 180, "pitch": 66, "duration": 3, "velocity": 64}, {"time": 183, "pitch": 69, "duration": 3, "velocity": 64}, {"time": 186, "pitch": 68, "duration": 3, "velocity": 64}, {"time": 189, "pitch": 71, "duration": 3, "velocity": 64}, {"time": 192, "pitch": 69, "duration": 3, "velocity": 64}, {"time": 195, "pitch": 71, "duration": 3, "velocity": 64}, {"time": 198, "pitch": 73, "duration": 3, "velocity": 64}, {"time": 201, "pitch": 74, "duration": 3, "velocity": 64}, {"time": 204, "pitch": 68, "duration": 9, "velocity": 64}, {"time": 213, "pitch": 66, "duration": 3, "velocity": 64}, {"time": 216, "pitch": 66, "duration": 6, "velocity": 64}, {"time": 222, "pitch": 78, "duration": 3, "velocity": 64}, {"time": 225, "pitch": 77, "duration": 3, "velocity": 64}, {"time": 228, "pitch": 78, "duration": 6, "velocity": 64}, {"time": 234, "pitch": 73, "duration": 6, "velocity": 64}, {"time": 240, "pitch": 74, "duration": 6, "velocity": 64}, {"time": 246, "pitch": 73, "duration": 6, "velocity": 64}, {"time": 252, "pitch": 78, "duration": 6, "velocity": 64}, {"time": 258, "pitch": 73, "duration": 6, "velocity": 64}, {"time": 264, "pitch": 73, "duration": 6, "velocity": 64}, {"time": 270, "pitch": 71, "duration": 6, "velocity": 64}, {"time": 276, "pitch": 80, "duration": 6, "velocity": 64}, {"time": 282, "pitch": 71, "duration": 6, "velocity": 64}, {"time": 288, "pitch": 71, "duration": 6, "velocity": 64}, {"time": 294, "pitch": 69, "duration": 3, "velocity": 64}, {"time": 297, "pitch": 68, "duration": 3, "velocity": 64}, {"time": 300, "pitch": 69, "duration": 3, "velocity": 64}, {"time": 303, "pitch": 71, "duration": 3, "velocity": 64}, {"time": 306, "pitch": 69, "duration": 3, "velocity": 64}, {"time": 309, "pitch": 65, "duration": 3, "velocity": 64}, {"time": 312, "pitch": 66, "duration": 6, "velocity": 64}, {"time": 318, "pitch": 78, "duration": 3, "velocity": 64}, {"time": 321, "pitch": 76, "duration": 3, "velocity": 64}, {"time": 324, "pitch": 78, "duration": 6, "velocity": 64}, {"time": 330, "pitch": 73, "duration": 6, "velocity": 64}, {"time": 336, "pitch": 74, "duration": 3, "velocity": 64}, {"time": 339, "pitch": 76, "duration": 3, "velocity": 64}, {"time": 342, "pitch": 74, "duration": 3, "velocity": 64}, {"time": 345, "pitch": 71, "duration": 3, "velocity": 64}, {"time": 348, "pitch": 76, "duration": 3, "velocity": 64}, {"time": 351, "pitch": 71, "duration": 3, "velocity": 64}, {"time": 354, "pitch": 78, "duration": 3, "velocity": 64}, {"time": 357, "pitch": 71, "duration": 3, "velocity": 64}, {"time": 360, "pitch": 79, "duration": 3, "velocity": 64}, {"time": 363, "pitch": 81, "duration": 3, "velocity": 64}, {"time": 366, "pitch": 79, "duration": 3, "velocity": 64}, {"time": 369, "pitch": 76, "duration": 3, "velocity": 64}, {"time": 372, "pitch": 81, "duration": 3, "velocity": 64}, {"time": 375, "pitch": 76, "duration": 3, "velocity": 64}, {"time": 378, "pitch": 83, "duration": 3, "velocity": 64}, {"time": 381, "pitch": 74, "duration": 3, "velocity": 64}, {"time": 384, "pitch": 73, "duration": 3, "velocity": 64}, {"time": 387, "pitch": 74, "duration": 3, "velocity": 64}, {"time": 390, "pitch": 73, "duration": 3, "velocity": 64}, {"time": 393, "pitch": 69, "duration": 3, "velocity": 64}, {"time": 396, "pitch": 74, "duration": 3, "velocity": 64}, {"time": 399, "pitch": 69, "duration": 3, "velocity": 64}, {"time": 402, "pitch": 76, "duration": 3, "velocity": 64}, {"time": 405, "pitch": 69, "duration": 3, "velocity": 64}, {"time": 408, "pitch": 78, "duration": 3, "velocity": 64}, {"time": 411, "pitch": 79, "duration": 3, "velocity": 64}, {"time": 414, "pitch": 78, "duration": 3, "velocity": 64}, {"time": 417, "pitch": 74, "duration": 3, "velocity": 64}, {"time": 420, "pitch": 79, "duration": 3, "velocity": 64}, {"time": 423, "pitch": 74, "duration": 3, "velocity": 64}, {"time": 426, "pitch": 81, "duration": 3, "velocity": 64}, {"time": 429, "pitch": 74, "duration": 3, "velocity": 64}, {"time": 432, "pitch": 83, "duration": 3, "velocity": 64}, {"time": 435, "pitch": 84, "duration": 3, "velocity": 64}, {"time": 438, "pitch": 83, "duration": 3, "velocity": 64}, {"time": 441, "pitch": 76, "duration": 3, "velocity": 64}, {"time": 444, "pitch": 81, "duration": 3, "velocity": 64}, {"time": 447, "pitch": 83, "duration": 3, "velocity": 64}, {"time": 450, "pitch": 81, "duration": 3, "velocity": 64}, {"time": 453, "pitch": 74, "duration": 3, "velocity": 64}, {"time": 456, "pitch": 79, "duration": 3, "velocity": 64}, {"time": 459, "pitch": 81, "duration": 3, "velocity": 64}, {"time": 462, "pitch": 79, "duration": 3, "velocity": 64}, {"time": 465, "pitch": 73, "duration": 3, "velocity": 64}, {"time": 468, "pitch": 78, "duration": 3, "velocity": 64}, {"time": 471, "pitch": 79, "duration": 3, "velocity": 64}, {"time": 474, "pitch": 78, "duration": 3, "velocity": 64}, {"time": 477, "pitch": 74, "duration": 3, "velocity": 64}, {"time": 480, "pitch": 76, "duration": 6, "velocity": 64}, {"time": 486, "pitch": 67, "duration": 3, "velocity": 64}, {"time": 489, "pitch": 66, "duration": 3, "velocity": 64}, {"time": 492, "pitch": 67, "duration": 6, "velocity": 64}, {"time": 498, "pitch": 76, "duration": 6, "velocity": 64}, {"time": 504, "pitch": 66, "duration": 6, "velocity": 64}, {"time": 510, "pitch": 74, "duration": 6, "velocity": 64}, {"time": 516, "pitch": 64, "duration": 6, "velocity": 64}, {"time": 522, "pitch": 73, "duration": 6, "velocity": 64}, {"time": 528, "pitch": 74, "duration": 6, "velocity": 64}, {"time": 543, "pitch": 66, "duration": 3, "velocity": 64}, {"time": 546, "pitch": 64, "duration": 3, "velocity": 64}, {"time": 549, "pitch": 66, "duration": 3, "velocity": 64}, {"time": 552, "pitch": 67, "duration": 3, "velocity": 64}, {"time": 555, "pitch": 69, "duration": 3, "velocity": 64}, {"time": 558, "pitch": 67, "duration": 3, "velocity": 64}, {"time": 561, "pitch": 64, "duration": 3, "velocity": 64}, {"time": 564, "pitch": 66, "duration": 3, "velocity": 64}, {"time": 567, "pitch": 67, "duration": 3, "velocity": 64}, {"time": 570, "pitch": 66, "duration": 3, "velocity": 64}, {"time": 573, "pitch": 62, "duration": 3, "velocity": 64}, {"time": 576, "pitch": 64, "duration": 3, "velocity": 64}, {"time": 579, "pitch": 66, "duration": 3, "velocity": 64}, {"time": 582, "pitch": 64, "duration": 3, "velocity": 64}, {"time": 585, "pitch": 62, "duration": 3, "velocity": 64}, {"time": 588, "pitch": 61, "duration": 3, "velocity": 64}, {"time": 591, "pitch": 64, "duration": 3, "velocity": 64}, {"time": 594, "pitch": 62, "duration": 3, "velocity": 64}, {"time": 597, "pitch": 61, "duration": 3, "velocity": 64}, {"time": 600, "pitch": 62, "duration": 6, "velocity": 64}, {"time": 606, "pitch": 69, "duration": 6, "velocity": 64}, {"time": 612, "pitch": 74, "duration": 3, "velocity": 64}, {"time": 615, "pitch": 73, "duration": 3, "velocity": 64}, {"time": 618, "pitch": 71, "duration": 3, "velocity": 64}, {"time": 621, "pitch": 74, "duration": 3, "velocity": 64}, {"time": 624, "pitch": 73, "duration": 3, "velocity": 64}, {"time": 627, "pitch": 71, "duration": 3, "velocity": 64}, {"time": 630, "pitch": 69, "duration": 3, "velocity": 64}, {"time": 633, "pitch": 68, "duration": 3, "velocity": 64}, {"time": 636, "pitch": 69, "duration": 6, "velocity": 64}, {"time": 642, "pitch": 64, "duration": 6, "velocity": 64}, {"time": 648, "pitch": 66, "duration": 6, "velocity": 64}, {"time": 654, "pitch": 64, "duration": 6, "velocity": 64}, {"time": 660, "pitch": 69, "duration": 6, "velocity": 64}, {"time": 666, "pitch": 64, "duration": 6, "velocity": 64}, {"time": 672, "pitch": 64, "duration": 6, "velocity": 64}, {"time": 678, "pitch": 62, "duration": 6, "velocity": 64}, {"time": 684, "pitch": 71, "duration": 6, "velocity": 64}, {"time": 690, "pitch": 62, "duration": 6, "velocity": 64}, {"time": 696, "pitch": 62, "duration": 6, "velocity": 64}, {"time": 702, "pitch": 61, "duration": 3, "velocity": 64}, {"time": 705, "pitch": 59, "duration": 3, "velocity": 64}, {"time": 708, "pitch": 61, "duration": 3, "velocity": 64}, {"time": 711, "pitch": 63, "duration": 3, "velocity": 64}, {"time": 714, "pitch": 64, "duration": 3, "velocity": 64}, {"time": 717, "pitch": 63, "duration": 3, "velocity": 64}, {"time": 720, "pitch": 69, "duration": 3, "velocity": 64}, {"time": 723, "pitch": 66, "duration": 3, "velocity": 64}, {"time": 726, "pitch": 67, "duration": 3, "velocity": 64}, {"time": 729, "pitch": 69, "duration": 3, "velocity": 64}, {"time": 732, "pitch": 68, "duration": 3, "velocity": 64}, {"time": 735, "pitch": 70, "duration": 3, "velocity": 64}, {"time": 738, "pitch": 71, "duration": 3, "velocity": 64}, {"time": 741, "pitch": 70, "duration": 3, "velocity": 64}, {"time": 744, "pitch": 76, "duration": 3, "velocity": 64}, {"time": 747, "pitch": 73, "duration": 3, "velocity": 64}, {"time": 750, "pitch": 74, "duration": 3, "velocity": 64}, {"time": 753, "pitch": 76, "duration": 3, "velocity": 64}, {"time": 756, "pitch": 75, "duration": 3, "velocity": 64}, {"time": 759, "pitch": 77, "duration": 3, "velocity": 64}, {"time": 762, "pitch": 78, "duration": 3, "velocity": 64}, {"time": 765, "pitch": 77, "duration": 3, "velocity": 64}, {"time": 768, "pitch": 83, "duration": 3, "velocity": 64}, {"time": 771, "pitch": 80, "duration": 3, "velocity": 64}, {"time": 774, "pitch": 81, "duration": 3, "velocity": 64}, {"time": 777, "pitch": 71, "duration": 3, "velocity": 64}, {"time": 780, "pitch": 73, "duration": 3, "velocity": 64}, {"time": 783, "pitch": 75, "duration": 3, "velocity": 64}, {"time": 786, "pitch": 76, "duration": 3, "velocity": 64}, {"time": 789, "pitch": 75, "duration": 3, "velocity": 64}, {"time": 792, "pitch": 81, "duration": 3, "velocity": 64}, {"time": 795, "pitch": 78, "duration": 3, "velocity": 64}, {"time": 798, "pitch": 79, "duration": 3, "velocity": 64}, {"time": 801, "pitch": 69, "duration": 3, "velocity": 64}, {"time": 804, "pitch": 71, "duration": 3, "velocity": 64}, {"time": 807, "pitch": 73, "duration": 3, "velocity": 64}, {"time": 810, "pitch": 74, "duration": 3, "velocity": 64}, {"time": 813, "pitch": 73, "duration": 3, "velocity": 64}, {"time": 816, "pitch": 79, "duration": 3, "velocity": 64}, {"time": 819, "pitch": 76, "duration": 3, "velocity": 64}, {"time": 822, "pitch": 78, "duration": 3, "velocity": 64}, {"time": 825, "pitch": 73, "duration": 3, "velocity": 64}, {"time": 828, "pitch": 74, "duration": 3, "velocity": 64}, {"time": 831, "pitch": 76, "duration": 3, "velocity": 64}, {"time": 834, "pitch": 78, "duration": 3, "velocity": 64}, {"time": 837, "pitch": 74, "duration": 3, "velocity": 64}, {"time": 840, "pitch": 76, "duration": 3, "velocity": 64}, {"time": 843, "pitch": 78, "duration": 3, "velocity": 64}, {"time": 846, "pitch": 76, "duration": 3, "velocity": 64}, {"time": 849, "pitch": 73, "duration": 3, "velocity": 64}, {"time": 852, "pitch": 74, "duration": 3, "velocity": 64}, {"time": 855, "pitch": 76, "duration": 3, "velocity": 64}, {"time": 858, "pitch": 74, "duration": 3, "velocity": 64}, {"time": 861, "pitch": 71, "duration": 3, "velocity": 64}, {"time": 864, "pitch": 73, "duration": 3, "velocity": 64}, {"time": 867, "pitch": 74, "duration": 3, "velocity": 64}, {"time": 870, "pitch": 73, "duration": 3, "velocity": 64}, {"time": 873, "pitch": 71, "duration": 3, "velocity": 64}, {"time": 876, "pitch": 70, "duration": 3, "velocity": 64}, {"time": 879, "pitch": 71, "duration": 3, "velocity": 64}, {"time": 882, "pitch": 73, "duration": 3, "velocity": 64}, {"time": 885, "pitch": 70, "duration": 3, "velocity": 64}, {"time": 888, "pitch": 66, "duration": 6, "velocity": 64}, {"time": 894, "pitch": 71, "duration": 3, "velocity": 64}, {"time": 897, "pitch": 70, "duration": 3, "velocity": 64}, {"time": 900, "pitch": 71, "duration": 6, "velocity": 64}, {"time": 906, "pitch": 66, "duration": 6, "velocity": 64}, {"time": 912, "pitch": 67, "duration": 6, "velocity": 64}, {"time": 918, "pitch": 66, "duration": 6, "velocity": 64}, {"time": 924, "pitch": 71, "duration": 6, "velocity": 64}, {"time": 930, "pitch": 66, "duration": 6, "velocity": 64}, {"time": 936, "pitch": 66, "duration": 6, "velocity": 64}, {"time": 942, "pitch": 64, "duration": 6, "velocity": 64}, {"time": 948, "pitch": 73, "duration": 6, "velocity": 64}, {"time": 954, "pitch": 64, "duration": 6, "velocity": 64}, {"time": 960, "pitch": 64, "duration": 6, "velocity": 64}, {"time": 966, "pitch": 62, "duration": 3, "velocity": 64}, {"time": 969, "pitch": 61, "duration": 3, "velocity": 64}, {"time": 972, "pitch": 62, "duration": 3, "velocity": 64}, {"time": 975, "pitch": 66, "duration": 3, "velocity": 64}, {"time": 978, "pitch": 64, "duration": 3, "velocity": 64}, {"time": 981, "pitch": 67, "duration": 3, "velocity": 64}, {"time": 984, "pitch": 66, "duration": 9, "velocity": 64}, {"time": 993, "pitch": 74, "duration": 3, "velocity": 64}, {"time": 996, "pitch": 70, "duration": 9, "velocity": 64}, {"time": 1005, "pitch": 71, "duration": 3, "velocity": 64}, {"time": 1008, "pitch": 71, "duration": 48, "velocity": 64}]}]}