{"metadata": {"schema_version": "0.2"}, "resolution": 24, "tracks": [{"program": 74, "is_drum": false, "name": "", "notes": [{"time": 0, "pitch": 76, "duration": 3, "velocity": 127}, {"time": 3, "pitch": 77, "duration": 3, "velocity": 127}, {"time": 6, "pitch": 77, "duration": 9, "velocity": 127}, {"time": 15, "pitch": 76, "duration": 1, "velocity": 127}, {"time": 16, "pitch": 77, "duration": 2, "velocity": 127}, {"time": 18, "pitch": 79, "duration": 6, "velocity": 127}, {"time": 24, "pitch": 72, "duration": 6, "velocity": 127}, {"time": 36, "pitch": 81, "duration": 3, "velocity": 127}, {"time": 39, "pitch": 83, "duration": 3, "velocity": 127}, {"time": 42, "pitch": 83, "duration": 9, "velocity": 127}, {"time": 51, "pitch": 81, "duration": 1, "velocity": 127}, {"time": 52, "pitch": 83, "duration": 2, "velocity": 127}, {"time": 54, "pitch": 84, "duration": 6, "velocity": 127}, {"time": 60, "pitch": 72, "duration": 6, "velocity": 127}, {"time": 72, "pitch": 77, "duration": 6, "velocity": 127}, {"time": 78, "pitch": 76, "duration": 6, "velocity": 127}, {"time": 90, "pitch": 77, "duration": 3, "velocity": 127}, {"time": 93, "pitch": 79, "duration": 1, "velocity": 127}, {"time": 94, "pitch": 81, "duration": 2, "velocity": 127}, {"time": 96, "pitch": 79, "duration": 6, "velocity": 127}, {"time": 108, "pitch": 71, "duration": 3, "velocity": 127}, {"time": 111, "pitch": 72, "duration": 3, "velocity": 127}, {"time": 114, "pitch": 72, "duration": 9, "velocity": 127}, {"time": 123, "pitch": 71, "duration": 1, "velocity": 127}, {"time": 124, "pitch": 72, "duration": 2, "velocity": 127}, {"time": 126, "pitch": 74, "duration": 6, "velocity": 127}, {"time": 132, "pitch": 67, "duration": 6, "velocity": 127}, {"time": 144, "pitch": 76, "duration": 3, "velocity": 127}, {"time": 147, "pitch": 77, "duration": 3, "velocity": 127}, {"time": 150, "pitch": 77, "duration": 12, "velocity": 127}, {"time": 162, "pitch": 79, "duration": 6, "velocity": 127}, {"time": 168, "pitch": 72, "duration": 6, "velocity": 127}, {"time": 180, "pitch": 81, "duration": 3, "velocity": 127}, {"time": 183, "pitch": 83, "duration": 3, "velocity": 127}, {"time": 186, "pitch": 83, "duration": 12, "velocity": 127}, {"time": 198, "pitch": 84, "duration": 6, "velocity": 127}, {"time": 204, "pitch": 72, "duration": 6, "velocity": 127}, {"time": 216, "pitch": 84, "duration": 3, "velocity": 127}, {"time": 219, "pitch": 83, "duration": 3, "velocity": 127}, {"time": 222, "pitch": 81, "duration": 3, "velocity": 127}, {"time": 225, "pitch": 79, "duration": 3, "velocity": 127}, {"time": 228, "pitch": 77, "duration": 3, "velocity": 127}, {"time": 231, "pitch": 76, "duration": 3, "velocity": 127}, {"time": 234, "pitch": 77, "duration": 9, "velocity": 127}, {"time": 243, "pitch": 79, "duration": 3, "velocity": 127}, {"time": 246, "pitch": 76, "duration": 9, "velocity": 127}, {"time": 255, "pitch": 74, "duration": 3, "velocity": 127}, {"time": 258, "pitch": 74, "duration": 9, "velocity": 127}, {"time": 267, "pitch": 72, "duration": 3, "velocity": 127}, {"time": 270, "pitch": 72, "duration": 18, "velocity": 127}, {"time": 288, "pitch": 72, "duration": 6, "velocity": 127}, {"time": 294, "pitch": 71, "duration": 6, "velocity": 127}, {"time": 300, "pitch": 76, "duration": 6, "velocity": 127}, {"time": 306, "pitch": 72, "duration": 6, "velocity": 127}, {"time": 312, "pitch": 71, "duration": 6, "velocity": 127}, {"time": 318, "pitch": 76, "duration": 6, "velocity": 127}, {"time": 324, "pitch": 72, "duration": 6, "velocity": 127}, {"time": 330, "pitch": 71, "duration": 6, "velocity": 127}, {"time": 336, "pitch": 76, "duration": 6, "velocity": 127}, {"time": 342, "pitch": 72, "duration": 4, "velocity": 127}, {"time": 346, "pitch": 71, "duration": 2, "velocity": 127}, {"time": 348, "pitch": 69, "duration": 6, "velocity": 127}, {"time": 360, "pitch": 77, "duration": 6, "velocity": 127}, {"time": 366, "pitch": 76, "duration": 6, "velocity": 127}, {"time": 372, "pitch": 81, "duration": 6, "velocity": 127}, {"time": 378, "pitch": 77, "duration": 6, "velocity": 127}, {"time": 384, "pitch": 76, "duration": 6, "velocity": 127}, {"time": 390, "pitch": 81, "duration": 6, "velocity": 127}, {"time": 396, "pitch": 77, "duration": 6, "velocity": 127}, {"time": 402, "pitch": 76, "duration": 6, "velocity": 127}, {"time": 408, "pitch": 81, "duration": 6, "velocity": 127}, {"time": 414, "pitch": 77, "duration": 4, "velocity": 127}, {"time": 418, "pitch": 76, "duration": 2, "velocity": 127}, {"time": 420, "pitch": 74, "duration": 6, "velocity": 127}, {"time": 432, "pitch": 74, "duration": 6, "velocity": 127}, {"time": 438, "pitch": 79, "duration": 6, "velocity": 127}, {"time": 444, "pitch": 78, "duration": 6, "velocity": 127}, {"time": 450, "pitch": 76, "duration": 4, "velocity": 127}, {"time": 454, "pitch": 75, "duration": 2, "velocity": 127}, {"time": 456, "pitch": 76, "duration": 6, "velocity": 127}, {"time": 468, "pitch": 81, "duration": 6, "velocity": 127}, {"time": 474, "pitch": 81, "duration": 3, "velocity": 127}, {"time": 477, "pitch": 79, "duration": 3, "velocity": 127}, {"time": 480, "pitch": 78, "duration": 3, "velocity": 127}, {"time": 483, "pitch": 76, "duration": 3, "velocity": 127}, {"time": 486, "pitch": 75, "duration": 4, "velocity": 127}, {"time": 490, "pitch": 73, "duration": 2, "velocity": 127}, {"time": 492, "pitch": 71, "duration": 6, "velocity": 127}, {"time": 504, "pitch": 79, "duration": 6, "velocity": 127}, {"time": 510, "pitch": 78, "duration": 6, "velocity": 127}, {"time": 516, "pitch": 83, "duration": 6, "velocity": 127}, {"time": 522, "pitch": 79, "duration": 6, "velocity": 127}, {"time": 528, "pitch": 78, "duration": 6, "velocity": 127}, {"time": 534, "pitch": 83, "duration": 6, "velocity": 127}, {"time": 540, "pitch": 79, "duration": 6, "velocity": 127}, {"time": 546, "pitch": 78, "duration": 6, "velocity": 127}, {"time": 552, "pitch": 83, "duration": 6, "velocity": 127}, {"time": 558, "pitch": 79, "duration": 6, "velocity": 127}, {"time": 564, "pitch": 78, "duration": 6, "velocity": 127}, {"time": 576, "pitch": 79, "duration": 6, "velocity": 127}, {"time": 582, "pitch": 79, "duration": 9, "velocity": 127}, {"time": 591, "pitch": 81, "duration": 3, "velocity": 127}, {"time": 594, "pitch": 78, "duration": 6, "velocity": 127}, {"time": 600, "pitch": 78, "duration": 9, "velocity": 127}, {"time": 609, "pitch": 79, "duration": 3, "velocity": 127}, {"time": 612, "pitch": 76, "duration": 6, "velocity": 127}, {"time": 618, "pitch": 76, "duration": 9, "velocity": 127}, {"time": 627, "pitch": 78, "duration": 3, "velocity": 127}, {"time": 630, "pitch": 75, "duration": 12, "velocity": 127}, {"time": 642, "pitch": 76, "duration": 6, "velocity": 127}, {"time": 648, "pitch": 78, "duration": 6, "velocity": 127}, {"time": 654, "pitch": 78, "duration": 6, "velocity": 127}, {"time": 660, "pitch": 79, "duration": 6, "velocity": 127}, {"time": 666, "pitch": 81, "duration": 9, "velocity": 127}, {"time": 675, "pitch": 78, "duration": 3, "velocity": 127}, {"time": 678, "pitch": 79, "duration": 3, "velocity": 127}, {"time": 681, "pitch": 76, "duration": 3, "velocity": 127}, {"time": 684, "pitch": 78, "duration": 3, "velocity": 127}, {"time": 687, "pitch": 79, "duration": 3, "velocity": 127}, {"time": 690, "pitch": 75, "duration": 9, "velocity": 127}, {"time": 699, "pitch": 76, "duration": 3, "velocity": 127}, {"time": 702, "pitch": 76, "duration": 12, "velocity": 127}, {"time": 714, "pitch": 78, "duration": 6, "velocity": 127}, {"time": 720, "pitch": 79, "duration": 6, "velocity": 127}, {"time": 726, "pitch": 79, "duration": 9, "velocity": 127}, {"time": 735, "pitch": 81, "duration": 3, "velocity": 127}, {"time": 738, "pitch": 78, "duration": 6, "velocity": 127}, {"time": 744, "pitch": 78, "duration": 9, "velocity": 127}, {"time": 753, "pitch": 79, "duration": 3, "velocity": 127}, {"time": 756, "pitch": 76, "duration": 6, "velocity": 127}, {"time": 762, "pitch": 76, "duration": 9, "velocity": 127}, {"time": 771, "pitch": 78, "duration": 3, "velocity": 127}, {"time": 774, "pitch": 75, "duration": 12, "velocity": 127}, {"time": 786, "pitch": 76, "duration": 6, "velocity": 127}, {"time": 792, "pitch": 72, "duration": 6, "velocity": 127}, {"time": 798, "pitch": 72, "duration": 9, "velocity": 127}, {"time": 807, "pitch": 74, "duration": 3, "velocity": 127}, {"time": 810, "pitch": 71, "duration": 9, "velocity": 127}, {"time": 819, "pitch": 71, "duration": 3, "velocity": 127}, {"time": 822, "pitch": 76, "duration": 3, "velocity": 127}, {"time": 825, "pitch": 75, "duration": 3, "velocity": 127}, {"time": 828, "pitch": 76, "duration": 3, "velocity": 127}, {"time": 831, "pitch": 78, "duration": 3, "velocity": 127}, {"time": 834, "pitch": 78, "duration": 9, "velocity": 127}, {"time": 843, "pitch": 76, "duration": 3, "velocity": 127}, {"time": 846, "pitch": 76, "duration": 18, "velocity": 127}, {"time": 864, "pitch": 76, "duration": 3, "velocity": 127}, {"time": 867, "pitch": 77, "duration": 3, "velocity": 127}, {"time": 870, "pitch": 77, "duration": 9, "velocity": 127}, {"time": 879, "pitch": 76, "duration": 1, "velocity": 127}, {"time": 880, "pitch": 77, "duration": 2, "velocity": 127}, {"time": 882, "pitch": 79, "duration": 6, "velocity": 127}, {"time": 888, "pitch": 72, "duration": 6, "velocity": 127}, {"time": 900, "pitch": 81, "duration": 3, "velocity": 127}, {"time": 903, "pitch": 83, "duration": 3, "velocity": 127}, {"time": 906, "pitch": 83, "duration": 9, "velocity": 127}, {"time": 915, "pitch": 81, "duration": 1, "velocity": 127}, {"time": 916, "pitch": 83, "duration": 2, "velocity": 127}, {"time": 918, "pitch": 84, "duration": 6, "velocity": 127}, {"time": 924, "pitch": 72, "duration": 6, "velocity": 127}, {"time": 936, "pitch": 77, "duration": 6, "velocity": 127}, {"time": 942, "pitch": 76, "duration": 6, "velocity": 127}, {"time": 954, "pitch": 77, "duration": 3, "velocity": 127}, {"time": 957, "pitch": 79, "duration": 1, "velocity": 127}, {"time": 958, "pitch": 81, "duration": 2, "velocity": 127}, {"time": 960, "pitch": 79, "duration": 6, "velocity": 127}, {"time": 972, "pitch": 71, "duration": 3, "velocity": 127}, {"time": 975, "pitch": 72, "duration": 3, "velocity": 127}, {"time": 978, "pitch": 72, "duration": 9, "velocity": 127}, {"time": 987, "pitch": 71, "duration": 1, "velocity": 127}, {"time": 988, "pitch": 72, "duration": 2, "velocity": 127}, {"time": 990, "pitch": 74, "duration": 6, "velocity": 127}, {"time": 996, "pitch": 67, "duration": 6, "velocity": 127}, {"time": 1008, "pitch": 76, "duration": 3, "velocity": 127}, {"time": 1011, "pitch": 77, "duration": 3, "velocity": 127}, {"time": 1014, "pitch": 77, "duration": 12, "velocity": 127}, {"time": 1026, "pitch": 79, "duration": 6, "velocity": 127}, {"time": 1032, "pitch": 72, "duration": 6, "velocity": 127}, {"time": 1044, "pitch": 81, "duration": 3, "velocity": 127}, {"time": 1047, "pitch": 83, "duration": 3, "velocity": 127}, {"time": 1050, "pitch": 83, "duration": 12, "velocity": 127}, {"time": 1062, "pitch": 84, "duration": 6, "velocity": 127}, {"time": 1068, "pitch": 72, "duration": 6, "velocity": 127}, {"time": 1080, "pitch": 84, "duration": 3, "velocity": 127}, {"time": 1083, "pitch": 83, "duration": 3, "velocity": 127}, {"time": 1086, "pitch": 81, "duration": 3, "velocity": 127}, {"time": 1089, "pitch": 79, "duration": 3, "velocity": 127}, {"time": 1092, "pitch": 77, "duration": 3, "velocity": 127}, {"time": 1095, "pitch": 76, "duration": 3, "velocity": 127}, {"time": 1098, "pitch": 77, "duration": 9, "velocity": 127}, {"time": 1107, "pitch": 79, "duration": 3, "velocity": 127}, {"time": 1110, "pitch": 76, "duration": 9, "velocity": 127}, {"time": 1119, "pitch": 74, "duration": 3, "velocity": 127}, {"time": 1122, "pitch": 74, "duration": 9, "velocity": 127}, {"time": 1131, "pitch": 72, "duration": 3, "velocity": 127}, {"time": 1134, "pitch": 72, "duration": 18, "velocity": 127}]}]}