{"metadata": {"schema_version": "0.2"}, "resolution": 24, "tracks": [{"program": 74, "is_drum": false, "name": "", "notes": [{"time": 0, "pitch": 74, "duration": 12, "velocity": 127}, {"time": 12, "pitch": 79, "duration": 18, "velocity": 127}, {"time": 30, "pitch": 81, "duration": 6, "velocity": 127}, {"time": 36, "pitch": 78, "duration": 24, "velocity": 127}, {"time": 60, "pitch": 79, "duration": 12, "velocity": 127}, {"time": 72, "pitch": 81, "duration": 18, "velocity": 127}, {"time": 90, "pitch": 84, "duration": 6, "velocity": 127}, {"time": 96, "pitch": 82, "duration": 6, "velocity": 127}, {"time": 102, "pitch": 81, "duration": 6, "velocity": 127}, {"time": 108, "pitch": 82, "duration": 18, "velocity": 127}, {"time": 126, "pitch": 81, "duration": 6, "velocity": 127}, {"time": 132, "pitch": 79, "duration": 12, "velocity": 127}, {"time": 156, "pitch": 74, "duration": 12, "velocity": 127}, {"time": 168, "pitch": 74, "duration": 18, "velocity": 127}, {"time": 186, "pitch": 79, "duration": 6, "velocity": 127}, {"time": 192, "pitch": 79, "duration": 3, "velocity": 127}, {"time": 195, "pitch": 77, "duration": 3, "velocity": 127}, {"time": 198, "pitch": 75, "duration": 6, "velocity": 127}, {"time": 204, "pitch": 75, "duration": 3, "velocity": 127}, {"time": 207, "pitch": 74, "duration": 3, "velocity": 127}, {"time": 210, "pitch": 72, "duration": 6, "velocity": 127}, {"time": 216, "pitch": 72, "duration": 12, "velocity": 127}, {"time": 228, "pitch": 72, "duration": 12, "velocity": 127}, {"time": 240, "pitch": 72, "duration": 18, "velocity": 127}, {"time": 258, "pitch": 77, "duration": 6, "velocity": 127}, {"time": 264, "pitch": 77, "duration": 3, "velocity": 127}, {"time": 267, "pitch": 75, "duration": 3, "velocity": 127}, {"time": 270, "pitch": 74, "duration": 6, "velocity": 127}, {"time": 276, "pitch": 74, "duration": 3, "velocity": 127}, {"time": 279, "pitch": 72, "duration": 3, "velocity": 127}, {"time": 282, "pitch": 70, "duration": 6, "velocity": 127}, {"time": 288, "pitch": 70, "duration": 12, "velocity": 127}, {"time": 300, "pitch": 82, "duration": 12, "velocity": 127}, {"time": 312, "pitch": 82, "duration": 18, "velocity": 127}, {"time": 330, "pitch": 87, "duration": 6, "velocity": 127}, {"time": 336, "pitch": 87, "duration": 3, "velocity": 127}, {"time": 339, "pitch": 86, "duration": 3, "velocity": 127}, {"time": 342, "pitch": 84, "duration": 6, "velocity": 127}, {"time": 348, "pitch": 84, "duration": 3, "velocity": 127}, {"time": 351, "pitch": 82, "duration": 3, "velocity": 127}, {"time": 354, "pitch": 81, "duration": 6, "velocity": 127}, {"time": 360, "pitch": 81, "duration": 12, "velocity": 127}, {"time": 372, "pitch": 81, "duration": 12, "velocity": 127}, {"time": 384, "pitch": 81, "duration": 18, "velocity": 127}, {"time": 402, "pitch": 86, "duration": 6, "velocity": 127}, {"time": 408, "pitch": 86, "duration": 3, "velocity": 127}, {"time": 411, "pitch": 84, "duration": 3, "velocity": 127}, {"time": 414, "pitch": 82, "duration": 6, "velocity": 127}, {"time": 420, "pitch": 82, "duration": 3, "velocity": 127}, {"time": 423, "pitch": 81, "duration": 3, "velocity": 127}, {"time": 426, "pitch": 79, "duration": 6, "velocity": 127}, {"time": 432, "pitch": 79, "duration": 12, "velocity": 127}, {"time": 444, "pitch": 79, "duration": 12, "velocity": 127}, {"time": 456, "pitch": 79, "duration": 18, "velocity": 127}, {"time": 474, "pitch": 84, "duration": 6, "velocity": 127}, {"time": 480, "pitch": 84, "duration": 3, "velocity": 127}, {"time": 483, "pitch": 82, "duration": 3, "velocity": 127}, {"time": 486, "pitch": 81, "duration": 6, "velocity": 127}, {"time": 492, "pitch": 81, "duration": 3, "velocity": 127}, {"time": 495, "pitch": 79, "duration": 3, "velocity": 127}, {"time": 498, "pitch": 78, "duration": 6, "velocity": 127}, {"time": 504, "pitch": 78, "duration": 9, "velocity": 127}, {"time": 513, "pitch": 79, "duration": 3, "velocity": 127}, {"time": 516, "pitch": 79, "duration": 18, "velocity": 127}, {"time": 534, "pitch": 78, "duration": 3, "velocity": 127}, {"time": 537, "pitch": 79, "duration": 3, "velocity": 127}, {"time": 540, "pitch": 81, "duration": 9, "velocity": 127}, {"time": 549, "pitch": 74, "duration": 3, "velocity": 127}, {"time": 552, "pitch": 81, "duration": 3, "velocity": 127}, {"time": 555, "pitch": 82, "duration": 3, "velocity": 127}, {"time": 558, "pitch": 84, "duration": 6, "velocity": 127}, {"time": 564, "pitch": 84, "duration": 3, "velocity": 127}, {"time": 567, "pitch": 82, "duration": 3, "velocity": 127}, {"time": 570, "pitch": 81, "duration": 6, "velocity": 127}, {"time": 576, "pitch": 82, "duration": 3, "velocity": 127}, {"time": 579, "pitch": 81, "duration": 3, "velocity": 127}, {"time": 582, "pitch": 79, "duration": 6, "velocity": 127}, {"time": 588, "pitch": 79, "duration": 3, "velocity": 127}, {"time": 591, "pitch": 77, "duration": 3, "velocity": 127}, {"time": 594, "pitch": 76, "duration": 6, "velocity": 127}, {"time": 600, "pitch": 76, "duration": 9, "velocity": 127}, {"time": 609, "pitch": 82, "duration": 3, "velocity": 127}, {"time": 612, "pitch": 81, "duration": 3, "velocity": 127}, {"time": 615, "pitch": 79, "duration": 3, "velocity": 127}, {"time": 618, "pitch": 77, "duration": 6, "velocity": 127}, {"time": 624, "pitch": 77, "duration": 3, "velocity": 127}, {"time": 627, "pitch": 76, "duration": 3, "velocity": 127}, {"time": 630, "pitch": 74, "duration": 6, "velocity": 127}, {"time": 636, "pitch": 74, "duration": 9, "velocity": 127}, {"time": 645, "pitch": 81, "duration": 3, "velocity": 127}, {"time": 648, "pitch": 79, "duration": 3, "velocity": 127}, {"time": 651, "pitch": 77, "duration": 3, "velocity": 127}, {"time": 654, "pitch": 76, "duration": 6, "velocity": 127}, {"time": 660, "pitch": 76, "duration": 3, "velocity": 127}, {"time": 663, "pitch": 74, "duration": 3, "velocity": 127}, {"time": 666, "pitch": 73, "duration": 6, "velocity": 127}, {"time": 672, "pitch": 73, "duration": 9, "velocity": 127}, {"time": 681, "pitch": 79, "duration": 3, "velocity": 127}, {"time": 684, "pitch": 77, "duration": 3, "velocity": 127}, {"time": 687, "pitch": 76, "duration": 3, "velocity": 127}, {"time": 690, "pitch": 74, "duration": 6, "velocity": 127}, {"time": 696, "pitch": 79, "duration": 3, "velocity": 127}, {"time": 699, "pitch": 77, "duration": 3, "velocity": 127}, {"time": 702, "pitch": 76, "duration": 6, "velocity": 127}, {"time": 708, "pitch": 81, "duration": 3, "velocity": 127}, {"time": 711, "pitch": 79, "duration": 3, "velocity": 127}, {"time": 714, "pitch": 77, "duration": 6, "velocity": 127}, {"time": 720, "pitch": 82, "duration": 3, "velocity": 127}, {"time": 723, "pitch": 81, "duration": 3, "velocity": 127}, {"time": 726, "pitch": 82, "duration": 6, "velocity": 127}, {"time": 732, "pitch": 79, "duration": 3, "velocity": 127}, {"time": 735, "pitch": 81, "duration": 3, "velocity": 127}, {"time": 738, "pitch": 77, "duration": 6, "velocity": 127}, {"time": 744, "pitch": 76, "duration": 3, "velocity": 127}, {"time": 747, "pitch": 77, "duration": 3, "velocity": 127}, {"time": 750, "pitch": 74, "duration": 6, "velocity": 127}, {"time": 756, "pitch": 73, "duration": 12, "velocity": 127}, {"time": 768, "pitch": 81, "duration": 18, "velocity": 127}, {"time": 786, "pitch": 81, "duration": 6, "velocity": 127}, {"time": 792, "pitch": 86, "duration": 12, "velocity": 127}, {"time": 804, "pitch": 79, "duration": 18, "velocity": 127}, {"time": 822, "pitch": 79, "duration": 6, "velocity": 127}, {"time": 828, "pitch": 79, "duration": 18, "velocity": 127}, {"time": 846, "pitch": 81, "duration": 6, "velocity": 127}, {"time": 852, "pitch": 77, "duration": 9, "velocity": 127}, {"time": 861, "pitch": 76, "duration": 3, "velocity": 127}, {"time": 864, "pitch": 77, "duration": 9, "velocity": 127}, {"time": 873, "pitch": 86, "duration": 3, "velocity": 127}, {"time": 876, "pitch": 77, "duration": 12, "velocity": 127}, {"time": 888, "pitch": 76, "duration": 9, "velocity": 127}, {"time": 897, "pitch": 74, "duration": 3, "velocity": 127}, {"time": 900, "pitch": 74, "duration": 12, "velocity": 127}, {"time": 912, "pitch": 81, "duration": 18, "velocity": 127}, {"time": 930, "pitch": 81, "duration": 6, "velocity": 127}, {"time": 936, "pitch": 74, "duration": 12, "velocity": 127}, {"time": 948, "pitch": 79, "duration": 18, "velocity": 127}, {"time": 966, "pitch": 70, "duration": 6, "velocity": 127}, {"time": 972, "pitch": 69, "duration": 18, "velocity": 127}, {"time": 990, "pitch": 79, "duration": 6, "velocity": 127}, {"time": 996, "pitch": 77, "duration": 9, "velocity": 127}, {"time": 1005, "pitch": 76, "duration": 3, "velocity": 127}, {"time": 1008, "pitch": 77, "duration": 3, "velocity": 127}, {"time": 1011, "pitch": 76, "duration": 3, "velocity": 127}, {"time": 1014, "pitch": 74, "duration": 6, "velocity": 127}, {"time": 1020, "pitch": 73, "duration": 18, "velocity": 127}, {"time": 1038, "pitch": 74, "duration": 6, "velocity": 127}, {"time": 1044, "pitch": 74, "duration": 36, "velocity": 127}, {"time": 1080, "pitch": 77, "duration": 12, "velocity": 127}, {"time": 1092, "pitch": 82, "duration": 18, "velocity": 127}, {"time": 1110, "pitch": 84, "duration": 6, "velocity": 127}, {"time": 1116, "pitch": 81, "duration": 24, "velocity": 127}, {"time": 1140, "pitch": 82, "duration": 12, "velocity": 127}, {"time": 1152, "pitch": 72, "duration": 12, "velocity": 127}, {"time": 1164, "pitch": 74, "duration": 12, "velocity": 127}, {"time": 1176, "pitch": 75, "duration": 12, "velocity": 127}, {"time": 1188, "pitch": 74, "duration": 18, "velocity": 127}, {"time": 1206, "pitch": 76, "duration": 6, "velocity": 127}, {"time": 1212, "pitch": 77, "duration": 12, "velocity": 127}, {"time": 1224, "pitch": 79, "duration": 12, "velocity": 127}, {"time": 1236, "pitch": 81, "duration": 12, "velocity": 127}, {"time": 1248, "pitch": 82, "duration": 9, "velocity": 127}, {"time": 1257, "pitch": 84, "duration": 3, "velocity": 127}, {"time": 1260, "pitch": 81, "duration": 18, "velocity": 127}, {"time": 1278, "pitch": 79, "duration": 6, "velocity": 127}, {"time": 1284, "pitch": 77, "duration": 12, "velocity": 127}, {"time": 1308, "pitch": 77, "duration": 12, "velocity": 127}, {"time": 1320, "pitch": 77, "duration": 12, "velocity": 127}, {"time": 1332, "pitch": 77, "duration": 18, "velocity": 127}, {"time": 1350, "pitch": 79, "duration": 6, "velocity": 127}, {"time": 1356, "pitch": 75, "duration": 6, "velocity": 127}, {"time": 1362, "pitch": 74, "duration": 6, "velocity": 127}, {"time": 1368, "pitch": 75, "duration": 9, "velocity": 127}, {"time": 1377, "pitch": 80, "duration": 3, "velocity": 127}, {"time": 1380, "pitch": 75, "duration": 12, "velocity": 127}, {"time": 1392, "pitch": 74, "duration": 9, "velocity": 127}, {"time": 1401, "pitch": 72, "duration": 3, "velocity": 127}, {"time": 1404, "pitch": 72, "duration": 12, "velocity": 127}, {"time": 1416, "pitch": 75, "duration": 12, "velocity": 127}, {"time": 1428, "pitch": 75, "duration": 12, "velocity": 127}, {"time": 1440, "pitch": 84, "duration": 18, "velocity": 127}, {"time": 1458, "pitch": 82, "duration": 3, "velocity": 127}, {"time": 1461, "pitch": 81, "duration": 3, "velocity": 127}, {"time": 1464, "pitch": 82, "duration": 6, "velocity": 127}, {"time": 1470, "pitch": 81, "duration": 3, "velocity": 127}, {"time": 1473, "pitch": 79, "duration": 3, "velocity": 127}, {"time": 1476, "pitch": 77, "duration": 3, "velocity": 127}, {"time": 1479, "pitch": 79, "duration": 3, "velocity": 127}, {"time": 1482, "pitch": 75, "duration": 6, "velocity": 127}, {"time": 1488, "pitch": 74, "duration": 12, "velocity": 127}, {"time": 1500, "pitch": 72, "duration": 9, "velocity": 127}, {"time": 1509, "pitch": 70, "duration": 3, "velocity": 127}, {"time": 1512, "pitch": 70, "duration": 9, "velocity": 127}, {"time": 1521, "pitch": 82, "duration": 3, "velocity": 127}, {"time": 1524, "pitch": 82, "duration": 3, "velocity": 127}, {"time": 1527, "pitch": 81, "duration": 3, "velocity": 127}, {"time": 1530, "pitch": 79, "duration": 6, "velocity": 127}, {"time": 1536, "pitch": 79, "duration": 3, "velocity": 127}, {"time": 1539, "pitch": 77, "duration": 3, "velocity": 127}, {"time": 1542, "pitch": 76, "duration": 6, "velocity": 127}, {"time": 1548, "pitch": 76, "duration": 9, "velocity": 127}, {"time": 1557, "pitch": 84, "duration": 3, "velocity": 127}, {"time": 1560, "pitch": 84, "duration": 3, "velocity": 127}, {"time": 1563, "pitch": 82, "duration": 3, "velocity": 127}, {"time": 1566, "pitch": 81, "duration": 6, "velocity": 127}, {"time": 1572, "pitch": 81, "duration": 3, "velocity": 127}, {"time": 1575, "pitch": 79, "duration": 3, "velocity": 127}, {"time": 1578, "pitch": 78, "duration": 6, "velocity": 127}, {"time": 1584, "pitch": 78, "duration": 9, "velocity": 127}, {"time": 1593, "pitch": 86, "duration": 3, "velocity": 127}, {"time": 1596, "pitch": 86, "duration": 3, "velocity": 127}, {"time": 1599, "pitch": 84, "duration": 3, "velocity": 127}, {"time": 1602, "pitch": 82, "duration": 6, "velocity": 127}, {"time": 1608, "pitch": 82, "duration": 3, "velocity": 127}, {"time": 1611, "pitch": 81, "duration": 3, "velocity": 127}, {"time": 1614, "pitch": 79, "duration": 6, "velocity": 127}, {"time": 1620, "pitch": 79, "duration": 3, "velocity": 127}, {"time": 1623, "pitch": 77, "duration": 3, "velocity": 127}, {"time": 1626, "pitch": 75, "duration": 6, "velocity": 127}, {"time": 1632, "pitch": 75, "duration": 3, "velocity": 127}, {"time": 1635, "pitch": 74, "duration": 3, "velocity": 127}, {"time": 1638, "pitch": 72, "duration": 6, "velocity": 127}, {"time": 1644, "pitch": 72, "duration": 3, "velocity": 127}, {"time": 1647, "pitch": 70, "duration": 3, "velocity": 127}, {"time": 1650, "pitch": 69, "duration": 6, "velocity": 127}, {"time": 1656, "pitch": 69, "duration": 9, "velocity": 127}, {"time": 1665, "pitch": 84, "duration": 3, "velocity": 127}, {"time": 1668, "pitch": 84, "duration": 3, "velocity": 127}, {"time": 1671, "pitch": 82, "duration": 3, "velocity": 127}, {"time": 1674, "pitch": 81, "duration": 6, "velocity": 127}, {"time": 1680, "pitch": 81, "duration": 3, "velocity": 127}, {"time": 1683, "pitch": 79, "duration": 3, "velocity": 127}, {"time": 1686, "pitch": 78, "duration": 6, "velocity": 127}, {"time": 1692, "pitch": 78, "duration": 3, "velocity": 127}, {"time": 1695, "pitch": 76, "duration": 3, "velocity": 127}, {"time": 1698, "pitch": 74, "duration": 6, "velocity": 127}, {"time": 1704, "pitch": 74, "duration": 3, "velocity": 127}, {"time": 1707, "pitch": 72, "duration": 3, "velocity": 127}, {"time": 1710, "pitch": 70, "duration": 6, "velocity": 127}, {"time": 1716, "pitch": 72, "duration": 3, "velocity": 127}, {"time": 1719, "pitch": 70, "duration": 3, "velocity": 127}, {"time": 1722, "pitch": 69, "duration": 6, "velocity": 127}, {"time": 1728, "pitch": 70, "duration": 9, "velocity": 127}, {"time": 1737, "pitch": 74, "duration": 3, "velocity": 127}, {"time": 1740, "pitch": 69, "duration": 9, "velocity": 127}, {"time": 1749, "pitch": 74, "duration": 3, "velocity": 127}, {"time": 1752, "pitch": 67, "duration": 9, "velocity": 127}, {"time": 1761, "pitch": 79, "duration": 3, "velocity": 127}, {"time": 1764, "pitch": 78, "duration": 9, "velocity": 127}, {"time": 1773, "pitch": 74, "duration": 3, "velocity": 127}, {"time": 1776, "pitch": 79, "duration": 9, "velocity": 127}, {"time": 1785, "pitch": 74, "duration": 3, "velocity": 127}, {"time": 1788, "pitch": 81, "duration": 9, "velocity": 127}, {"time": 1797, "pitch": 74, "duration": 3, "velocity": 127}, {"time": 1800, "pitch": 82, "duration": 9, "velocity": 127}, {"time": 1809, "pitch": 74, "duration": 3, "velocity": 127}, {"time": 1812, "pitch": 81, "duration": 9, "velocity": 127}, {"time": 1821, "pitch": 74, "duration": 3, "velocity": 127}, {"time": 1824, "pitch": 79, "duration": 9, "velocity": 127}, {"time": 1833, "pitch": 81, "duration": 3, "velocity": 127}, {"time": 1836, "pitch": 78, "duration": 12, "velocity": 127}, {"time": 1848, "pitch": 86, "duration": 18, "velocity": 127}, {"time": 1866, "pitch": 86, "duration": 6, "velocity": 127}, {"time": 1872, "pitch": 79, "duration": 12, "velocity": 127}, {"time": 1884, "pitch": 84, "duration": 18, "velocity": 127}, {"time": 1902, "pitch": 84, "duration": 6, "velocity": 127}, {"time": 1908, "pitch": 74, "duration": 18, "velocity": 127}, {"time": 1926, "pitch": 84, "duration": 6, "velocity": 127}, {"time": 1932, "pitch": 82, "duration": 6, "velocity": 127}, {"time": 1938, "pitch": 81, "duration": 6, "velocity": 127}, {"time": 1944, "pitch": 82, "duration": 3, "velocity": 127}, {"time": 1947, "pitch": 81, "duration": 3, "velocity": 127}, {"time": 1950, "pitch": 79, "duration": 6, "velocity": 127}, {"time": 1956, "pitch": 78, "duration": 18, "velocity": 127}, {"time": 1974, "pitch": 79, "duration": 6, "velocity": 127}, {"time": 1980, "pitch": 79, "duration": 12, "velocity": 127}, {"time": 1992, "pitch": 74, "duration": 18, "velocity": 127}, {"time": 2010, "pitch": 74, "duration": 6, "velocity": 127}, {"time": 2016, "pitch": 67, "duration": 12, "velocity": 127}, {"time": 2028, "pitch": 72, "duration": 18, "velocity": 127}, {"time": 2046, "pitch": 72, "duration": 6, "velocity": 127}, {"time": 2052, "pitch": 81, "duration": 18, "velocity": 127}, {"time": 2070, "pitch": 79, "duration": 3, "velocity": 127}, {"time": 2073, "pitch": 78, "duration": 3, "velocity": 127}, {"time": 2076, "pitch": 79, "duration": 9, "velocity": 127}, {"time": 2085, "pitch": 69, "duration": 3, "velocity": 127}, {"time": 2088, "pitch": 70, "duration": 9, "velocity": 127}, {"time": 2097, "pitch": 72, "duration": 3, "velocity": 127}, {"time": 2100, "pitch": 70, "duration": 12, "velocity": 127}, {"time": 2112, "pitch": 69, "duration": 9, "velocity": 127}, {"time": 2121, "pitch": 67, "duration": 3, "velocity": 127}, {"time": 2124, "pitch": 67, "duration": 36, "velocity": 127}]}]}