{"metadata": {"schema_version": "0.2"}, "resolution": 24, "tracks": [{"program": 74, "is_drum": false, "name": "", "notes": [{"time": 144, "pitch": 76, "duration": 60, "velocity": 127}, {"time": 204, "pitch": 81, "duration": 12, "velocity": 127}, {"time": 216, "pitch": 80, "duration": 24, "velocity": 127}, {"time": 240, "pitch": 76, "duration": 12, "velocity": 127}, {"time": 252, "pitch": 74, "duration": 12, "velocity": 127}, {"time": 264, "pitch": 72, "duration": 12, "velocity": 127}, {"time": 276, "pitch": 71, "duration": 12, "velocity": 127}, {"time": 288, "pitch": 72, "duration": 9, "velocity": 127}, {"time": 297, "pitch": 71, "duration": 3, "velocity": 127}, {"time": 300, "pitch": 69, "duration": 12, "velocity": 127}, {"time": 336, "pitch": 76, "duration": 12, "velocity": 127}, {"time": 348, "pitch": 77, "duration": 12, "velocity": 127}, {"time": 360, "pitch": 79, "duration": 60, "velocity": 127}, {"time": 420, "pitch": 84, "duration": 12, "velocity": 127}, {"time": 432, "pitch": 83, "duration": 24, "velocity": 127}, {"time": 456, "pitch": 84, "duration": 12, "velocity": 127}, {"time": 468, "pitch": 74, "duration": 12, "velocity": 127}, {"time": 480, "pitch": 76, "duration": 12, "velocity": 127}, {"time": 492, "pitch": 77, "duration": 12, "velocity": 127}, {"time": 504, "pitch": 76, "duration": 48, "velocity": 127}, {"time": 552, "pitch": 79, "duration": 12, "velocity": 127}, {"time": 564, "pitch": 78, "duration": 12, "velocity": 127}, {"time": 576, "pitch": 79, "duration": 36, "velocity": 127}, {"time": 612, "pitch": 80, "duration": 36, "velocity": 127}, {"time": 648, "pitch": 81, "duration": 36, "velocity": 127}, {"time": 684, "pitch": 83, "duration": 36, "velocity": 127}, {"time": 720, "pitch": 84, "duration": 24, "velocity": 127}, {"time": 744, "pitch": 83, "duration": 12, "velocity": 127}, {"time": 756, "pitch": 76, "duration": 24, "velocity": 127}, {"time": 780, "pitch": 78, "duration": 12, "velocity": 127}, {"time": 792, "pitch": 75, "duration": 18, "velocity": 127}, {"time": 810, "pitch": 73, "duration": 6, "velocity": 127}, {"time": 816, "pitch": 71, "duration": 12, "velocity": 127}, {"time": 840, "pitch": 76, "duration": 12, "velocity": 127}, {"time": 852, "pitch": 74, "duration": 12, "velocity": 127}, {"time": 864, "pitch": 72, "duration": 24, "velocity": 127}, {"time": 888, "pitch": 71, "duration": 12, "velocity": 127}, {"time": 912, "pitch": 81, "duration": 9, "velocity": 127}, {"time": 921, "pitch": 80, "duration": 3, "velocity": 127}, {"time": 924, "pitch": 81, "duration": 12, "velocity": 127}, {"time": 936, "pitch": 81, "duration": 18, "velocity": 127}, {"time": 954, "pitch": 83, "duration": 6, "velocity": 127}, {"time": 960, "pitch": 79, "duration": 18, "velocity": 127}, {"time": 978, "pitch": 78, "duration": 6, "velocity": 127}, {"time": 984, "pitch": 78, "duration": 18, "velocity": 127}, {"time": 1002, "pitch": 76, "duration": 6, "velocity": 127}, {"time": 1008, "pitch": 76, "duration": 36, "velocity": 127}, {"time": 1128, "pitch": 83, "duration": 12, "velocity": 127}, {"time": 1140, "pitch": 83, "duration": 6, "velocity": 127}, {"time": 1146, "pitch": 84, "duration": 3, "velocity": 127}, {"time": 1149, "pitch": 86, "duration": 3, "velocity": 127}, {"time": 1152, "pitch": 84, "duration": 12, "velocity": 127}, {"time": 1164, "pitch": 76, "duration": 12, "velocity": 127}, {"time": 1176, "pitch": 77, "duration": 12, "velocity": 127}, {"time": 1188, "pitch": 79, "duration": 24, "velocity": 127}, {"time": 1212, "pitch": 81, "duration": 12, "velocity": 127}, {"time": 1224, "pitch": 77, "duration": 18, "velocity": 127}, {"time": 1242, "pitch": 76, "duration": 6, "velocity": 127}, {"time": 1248, "pitch": 74, "duration": 12, "velocity": 127}, {"time": 1272, "pitch": 83, "duration": 12, "velocity": 127}, {"time": 1284, "pitch": 76, "duration": 12, "velocity": 127}, {"time": 1296, "pitch": 84, "duration": 18, "velocity": 127}, {"time": 1314, "pitch": 83, "duration": 6, "velocity": 127}, {"time": 1320, "pitch": 81, "duration": 18, "velocity": 127}, {"time": 1338, "pitch": 83, "duration": 6, "velocity": 127}, {"time": 1344, "pitch": 80, "duration": 18, "velocity": 127}, {"time": 1362, "pitch": 81, "duration": 6, "velocity": 127}, {"time": 1368, "pitch": 74, "duration": 54, "velocity": 127}, {"time": 1422, "pitch": 76, "duration": 6, "velocity": 127}, {"time": 1428, "pitch": 71, "duration": 12, "velocity": 127}, {"time": 1440, "pitch": 72, "duration": 24, "velocity": 127}, {"time": 1464, "pitch": 76, "duration": 12, "velocity": 127}, {"time": 1476, "pitch": 81, "duration": 12, "velocity": 127}, {"time": 1488, "pitch": 74, "duration": 18, "velocity": 127}, {"time": 1506, "pitch": 76, "duration": 6, "velocity": 127}, {"time": 1512, "pitch": 76, "duration": 36, "velocity": 127}]}]}