{"metadata": {"schema_version": "0.2"}, "resolution": 24, "tracks": [{"program": 6, "is_drum": false, "name": "", "notes": [{"time": 0, "pitch": 60, "duration": 24, "velocity": 127}, {"time": 24, "pitch": 48, "duration": 6, "velocity": 127}, {"time": 30, "pitch": 50, "duration": 6, "velocity": 127}, {"time": 36, "pitch": 52, "duration": 6, "velocity": 127}, {"time": 42, "pitch": 53, "duration": 6, "velocity": 127}, {"time": 48, "pitch": 55, "duration": 12, "velocity": 127}, {"time": 60, "pitch": 60, "duration": 12, "velocity": 127}, {"time": 72, "pitch": 59, "duration": 12, "velocity": 127}, {"time": 84, "pitch": 57, "duration": 12, "velocity": 127}, {"time": 96, "pitch": 55, "duration": 12, "velocity": 127}, {"time": 108, "pitch": 53, "duration": 12, "velocity": 127}, {"time": 120, "pitch": 52, "duration": 12, "velocity": 127}, {"time": 132, "pitch": 57, "duration": 12, "velocity": 127}, {"time": 144, "pitch": 50, "duration": 12, "velocity": 127}, {"time": 156, "pitch": 48, "duration": 12, "velocity": 127}, {"time": 168, "pitch": 55, "duration": 6, "velocity": 127}, {"time": 174, "pitch": 57, "duration": 6, "velocity": 127}, {"time": 180, "pitch": 59, "duration": 6, "velocity": 127}, {"time": 186, "pitch": 55, "duration": 6, "velocity": 127}, {"time": 192, "pitch": 52, "duration": 24, "velocity": 127}, {"time": 216, "pitch": 53, "duration": 12, "velocity": 127}, {"time": 228, "pitch": 50, "duration": 12, "velocity": 127}, {"time": 240, "pitch": 55, "duration": 12, "velocity": 127}, {"time": 252, "pitch": 52, "duration": 12, "velocity": 127}, {"time": 264, "pitch": 57, "duration": 12, "velocity": 127}, {"time": 276, "pitch": 45, "duration": 12, "velocity": 127}, {"time": 288, "pitch": 47, "duration": 12, "velocity": 127}, {"time": 300, "pitch": 43, "duration": 12, "velocity": 127}, {"time": 312, "pitch": 48, "duration": 12, "velocity": 127}, {"time": 324, "pitch": 55, "duration": 12, "velocity": 127}, {"time": 336, "pitch": 57, "duration": 12, "velocity": 127}, {"time": 348, "pitch": 53, "duration": 12, "velocity": 127}, {"time": 360, "pitch": 55, "duration": 12, "velocity": 127}, {"time": 372, "pitch": 52, "duration": 12, "velocity": 127}, {"time": 384, "pitch": 50, "duration": 12, "velocity": 127}, {"time": 396, "pitch": 48, "duration": 12, "velocity": 127}, {"time": 408, "pitch": 53, "duration": 12, "velocity": 127}, {"time": 420, "pitch": 52, "duration": 12, "velocity": 127}, {"time": 432, "pitch": 50, "duration": 12, "velocity": 127}, {"time": 444, "pitch": 48, "duration": 12, "velocity": 127}, {"time": 456, "pitch": 47, "duration": 24, "velocity": 127}, {"time": 480, "pitch": 59, "duration": 12, "velocity": 127}, {"time": 492, "pitch": 55, "duration": 12, "velocity": 127}, {"time": 504, "pitch": 60, "duration": 12, "velocity": 127}, {"time": 516, "pitch": 53, "duration": 12, "velocity": 127}, {"time": 528, "pitch": 55, "duration": 12, "velocity": 127}, {"time": 540, "pitch": 43, "duration": 12, "velocity": 127}, {"time": 552, "pitch": 48, "duration": 24, "velocity": 127}, {"time": 600, "pitch": 45, "duration": 6, "velocity": 127}, {"time": 606, "pitch": 47, "duration": 6, "velocity": 127}, {"time": 612, "pitch": 48, "duration": 6, "velocity": 127}, {"time": 618, "pitch": 50, "duration": 6, "velocity": 127}, {"time": 624, "pitch": 52, "duration": 12, "velocity": 127}, {"time": 636, "pitch": 57, "duration": 12, "velocity": 127}, {"time": 648, "pitch": 56, "duration": 12, "velocity": 127}, {"time": 660, "pitch": 57, "duration": 12, "velocity": 127}, {"time": 672, "pitch": 59, "duration": 12, "velocity": 127}, {"time": 684, "pitch": 52, "duration": 12, "velocity": 127}, {"time": 696, "pitch": 57, "duration": 12, "velocity": 127}, {"time": 708, "pitch": 55, "duration": 12, "velocity": 127}, {"time": 720, "pitch": 53, "duration": 24, "velocity": 127}, {"time": 744, "pitch": 52, "duration": 12, "velocity": 127}, {"time": 756, "pitch": 56, "duration": 12, "velocity": 127}, {"time": 768, "pitch": 57, "duration": 12, "velocity": 127}, {"time": 792, "pitch": 54, "duration": 12, "velocity": 127}, {"time": 816, "pitch": 56, "duration": 12, "velocity": 127}, {"time": 840, "pitch": 57, "duration": 12, "velocity": 127}, {"time": 864, "pitch": 48, "duration": 12, "velocity": 127}, {"time": 888, "pitch": 50, "duration": 12, "velocity": 127}, {"time": 912, "pitch": 53, "duration": 12, "velocity": 127}, {"time": 936, "pitch": 52, "duration": 12, "velocity": 127}, {"time": 948, "pitch": 54, "duration": 12, "velocity": 127}, {"time": 960, "pitch": 56, "duration": 12, "velocity": 127}, {"time": 972, "pitch": 52, "duration": 12, "velocity": 127}, {"time": 984, "pitch": 57, "duration": 12, "velocity": 127}, {"time": 996, "pitch": 50, "duration": 12, "velocity": 127}, {"time": 1008, "pitch": 52, "duration": 12, "velocity": 127}, {"time": 1020, "pitch": 40, "duration": 12, "velocity": 127}, {"time": 1032, "pitch": 45, "duration": 6, "velocity": 127}, {"time": 1038, "pitch": 57, "duration": 6, "velocity": 127}, {"time": 1044, "pitch": 55, "duration": 6, "velocity": 127}, {"time": 1050, "pitch": 57, "duration": 6, "velocity": 127}, {"time": 1056, "pitch": 54, "duration": 12, "velocity": 127}, {"time": 1068, "pitch": 50, "duration": 12, "velocity": 127}, {"time": 1080, "pitch": 55, "duration": 12, "velocity": 127}, {"time": 1092, "pitch": 48, "duration": 12, "velocity": 127}, {"time": 1104, "pitch": 50, "duration": 12, "velocity": 127}, {"time": 1116, "pitch": 38, "duration": 12, "velocity": 127}, {"time": 1128, "pitch": 43, "duration": 12, "velocity": 127}, {"time": 1140, "pitch": 50, "duration": 12, "velocity": 127}, {"time": 1152, "pitch": 55, "duration": 12, "velocity": 127}, {"time": 1164, "pitch": 43, "duration": 12, "velocity": 127}, {"time": 1176, "pitch": 45, "duration": 12, "velocity": 127}, {"time": 1200, "pitch": 43, "duration": 12, "velocity": 127}, {"time": 1224, "pitch": 45, "duration": 12, "velocity": 127}, {"time": 1248, "pitch": 43, "duration": 12, "velocity": 127}, {"time": 1272, "pitch": 45, "duration": 12, "velocity": 127}, {"time": 1284, "pitch": 52, "duration": 12, "velocity": 127}, {"time": 1296, "pitch": 57, "duration": 12, "velocity": 127}, {"time": 1308, "pitch": 45, "duration": 12, "velocity": 127}, {"time": 1320, "pitch": 47, "duration": 24, "velocity": 127}, {"time": 1344, "pitch": 54, "duration": 12, "velocity": 127}, {"time": 1356, "pitch": 51, "duration": 12, "velocity": 127}, {"time": 1368, "pitch": 52, "duration": 12, "velocity": 127}, {"time": 1380, "pitch": 57, "duration": 12, "velocity": 127}, {"time": 1392, "pitch": 59, "duration": 12, "velocity": 127}, {"time": 1404, "pitch": 47, "duration": 12, "velocity": 127}, {"time": 1416, "pitch": 52, "duration": 24, "velocity": 127}, {"time": 1464, "pitch": 48, "duration": 6, "velocity": 127}, {"time": 1470, "pitch": 50, "duration": 6, "velocity": 127}, {"time": 1476, "pitch": 52, "duration": 6, "velocity": 127}, {"time": 1482, "pitch": 53, "duration": 6, "velocity": 127}, {"time": 1488, "pitch": 55, "duration": 12, "velocity": 127}, {"time": 1500, "pitch": 60, "duration": 12, "velocity": 127}, {"time": 1512, "pitch": 59, "duration": 12, "velocity": 127}, {"time": 1524, "pitch": 57, "duration": 12, "velocity": 127}, {"time": 1536, "pitch": 55, "duration": 12, "velocity": 127}, {"time": 1548, "pitch": 53, "duration": 12, "velocity": 127}, {"time": 1560, "pitch": 52, "duration": 12, "velocity": 127}, {"time": 1572, "pitch": 57, "duration": 12, "velocity": 127}, {"time": 1584, "pitch": 50, "duration": 12, "velocity": 127}, {"time": 1596, "pitch": 48, "duration": 12, "velocity": 127}, {"time": 1608, "pitch": 55, "duration": 6, "velocity": 127}, {"time": 1614, "pitch": 43, "duration": 6, "velocity": 127}, {"time": 1620, "pitch": 55, "duration": 6, "velocity": 127}, {"time": 1626, "pitch": 53, "duration": 6, "velocity": 127}, {"time": 1632, "pitch": 52, "duration": 18, "velocity": 127}, {"time": 1650, "pitch": 52, "duration": 6, "velocity": 127}, {"time": 1656, "pitch": 53, "duration": 12, "velocity": 127}, {"time": 1668, "pitch": 50, "duration": 12, "velocity": 127}, {"time": 1680, "pitch": 55, "duration": 12, "velocity": 127}, {"time": 1692, "pitch": 52, "duration": 12, "velocity": 127}, {"time": 1704, "pitch": 57, "duration": 12, "velocity": 127}, {"time": 1716, "pitch": 45, "duration": 12, "velocity": 127}, {"time": 1728, "pitch": 47, "duration": 12, "velocity": 127}, {"time": 1740, "pitch": 43, "duration": 12, "velocity": 127}, {"time": 1752, "pitch": 48, "duration": 12, "velocity": 127}, {"time": 1764, "pitch": 55, "duration": 12, "velocity": 127}, {"time": 1776, "pitch": 57, "duration": 12, "velocity": 127}, {"time": 1788, "pitch": 53, "duration": 12, "velocity": 127}, {"time": 1800, "pitch": 55, "duration": 12, "velocity": 127}, {"time": 1812, "pitch": 53, "duration": 12, "velocity": 127}, {"time": 1824, "pitch": 52, "duration": 12, "velocity": 127}, {"time": 1836, "pitch": 48, "duration": 12, "velocity": 127}, {"time": 1848, "pitch": 53, "duration": 12, "velocity": 127}, {"time": 1860, "pitch": 52, "duration": 12, "velocity": 127}, {"time": 1872, "pitch": 50, "duration": 12, "velocity": 127}, {"time": 1884, "pitch": 48, "duration": 12, "velocity": 127}, {"time": 1896, "pitch": 47, "duration": 24, "velocity": 127}, {"time": 1920, "pitch": 59, "duration": 12, "velocity": 127}, {"time": 1932, "pitch": 55, "duration": 12, "velocity": 127}, {"time": 1944, "pitch": 60, "duration": 12, "velocity": 127}, {"time": 1956, "pitch": 53, "duration": 12, "velocity": 127}, {"time": 1968, "pitch": 55, "duration": 12, "velocity": 127}, {"time": 1980, "pitch": 43, "duration": 12, "velocity": 127}, {"time": 1992, "pitch": 48, "duration": 24, "velocity": 127}, {"time": 2016, "pitch": 52, "duration": 12, "velocity": 127}, {"time": 2028, "pitch": 48, "duration": 12, "velocity": 127}, {"time": 2040, "pitch": 53, "duration": 12, "velocity": 127}, {"time": 2052, "pitch": 52, "duration": 12, "velocity": 127}, {"time": 2064, "pitch": 50, "duration": 12, "velocity": 127}, {"time": 2076, "pitch": 48, "duration": 12, "velocity": 127}, {"time": 2088, "pitch": 47, "duration": 24, "velocity": 127}, {"time": 2112, "pitch": 59, "duration": 12, "velocity": 127}, {"time": 2124, "pitch": 55, "duration": 12, "velocity": 127}, {"time": 2136, "pitch": 60, "duration": 12, "velocity": 127}, {"time": 2148, "pitch": 53, "duration": 12, "velocity": 127}, {"time": 2160, "pitch": 55, "duration": 12, "velocity": 127}, {"time": 2172, "pitch": 43, "duration": 12, "velocity": 127}, {"time": 2184, "pitch": 48, "duration": 24, "velocity": 127}]}]}