{"metadata": {"schema_version": "0.2"}, "resolution": 24, "tracks": [{"program": 74, "is_drum": false, "name": "", "notes": [{"time": 0, "pitch": 74, "duration": 12, "velocity": 127}, {"time": 12, "pitch": 79, "duration": 9, "velocity": 127}, {"time": 21, "pitch": 81, "duration": 3, "velocity": 127}, {"time": 24, "pitch": 78, "duration": 18, "velocity": 127}, {"time": 42, "pitch": 74, "duration": 6, "velocity": 127}, {"time": 48, "pitch": 79, "duration": 12, "velocity": 127}, {"time": 60, "pitch": 81, "duration": 12, "velocity": 127}, {"time": 72, "pitch": 82, "duration": 24, "velocity": 127}, {"time": 96, "pitch": 74, "duration": 12, "velocity": 127}, {"time": 108, "pitch": 81, "duration": 12, "velocity": 127}, {"time": 120, "pitch": 82, "duration": 18, "velocity": 127}, {"time": 138, "pitch": 81, "duration": 6, "velocity": 127}, {"time": 144, "pitch": 82, "duration": 12, "velocity": 127}, {"time": 156, "pitch": 84, "duration": 12, "velocity": 127}, {"time": 168, "pitch": 81, "duration": 24, "velocity": 127}, {"time": 192, "pitch": 81, "duration": 12, "velocity": 127}, {"time": 204, "pitch": 82, "duration": 12, "velocity": 127}, {"time": 216, "pitch": 79, "duration": 18, "velocity": 127}, {"time": 234, "pitch": 78, "duration": 6, "velocity": 127}, {"time": 240, "pitch": 79, "duration": 12, "velocity": 127}, {"time": 252, "pitch": 81, "duration": 12, "velocity": 127}, {"time": 264, "pitch": 78, "duration": 24, "velocity": 127}, {"time": 288, "pitch": 79, "duration": 12, "velocity": 127}, {"time": 300, "pitch": 74, "duration": 12, "velocity": 127}, {"time": 312, "pitch": 75, "duration": 18, "velocity": 127}, {"time": 330, "pitch": 74, "duration": 6, "velocity": 127}, {"time": 336, "pitch": 75, "duration": 12, "velocity": 127}, {"time": 348, "pitch": 77, "duration": 12, "velocity": 127}, {"time": 360, "pitch": 74, "duration": 18, "velocity": 127}, {"time": 378, "pitch": 77, "duration": 6, "velocity": 127}, {"time": 384, "pitch": 82, "duration": 12, "velocity": 127}, {"time": 396, "pitch": 84, "duration": 12, "velocity": 127}, {"time": 408, "pitch": 81, "duration": 18, "velocity": 127}, {"time": 426, "pitch": 77, "duration": 6, "velocity": 127}, {"time": 432, "pitch": 82, "duration": 18, "velocity": 127}, {"time": 450, "pitch": 77, "duration": 6, "velocity": 127}, {"time": 456, "pitch": 79, "duration": 6, "velocity": 127}, {"time": 462, "pitch": 77, "duration": 6, "velocity": 127}, {"time": 468, "pitch": 75, "duration": 6, "velocity": 127}, {"time": 474, "pitch": 74, "duration": 6, "velocity": 127}, {"time": 480, "pitch": 72, "duration": 12, "velocity": 127}, {"time": 492, "pitch": 81, "duration": 12, "velocity": 127}, {"time": 504, "pitch": 82, "duration": 24, "velocity": 127}, {"time": 528, "pitch": 77, "duration": 12, "velocity": 127}, {"time": 540, "pitch": 82, "duration": 6, "velocity": 127}, {"time": 546, "pitch": 81, "duration": 6, "velocity": 127}, {"time": 552, "pitch": 79, "duration": 6, "velocity": 127}, {"time": 558, "pitch": 77, "duration": 6, "velocity": 127}, {"time": 564, "pitch": 75, "duration": 6, "velocity": 127}, {"time": 570, "pitch": 74, "duration": 6, "velocity": 127}, {"time": 576, "pitch": 72, "duration": 18, "velocity": 127}, {"time": 594, "pitch": 70, "duration": 6, "velocity": 127}, {"time": 600, "pitch": 70, "duration": 24, "velocity": 127}, {"time": 624, "pitch": 74, "duration": 6, "velocity": 127}, {"time": 630, "pitch": 77, "duration": 6, "velocity": 127}, {"time": 636, "pitch": 72, "duration": 6, "velocity": 127}, {"time": 642, "pitch": 77, "duration": 6, "velocity": 127}, {"time": 648, "pitch": 74, "duration": 6, "velocity": 127}, {"time": 654, "pitch": 77, "duration": 6, "velocity": 127}, {"time": 660, "pitch": 72, "duration": 6, "velocity": 127}, {"time": 666, "pitch": 77, "duration": 6, "velocity": 127}, {"time": 672, "pitch": 74, "duration": 6, "velocity": 127}, {"time": 678, "pitch": 77, "duration": 6, "velocity": 127}, {"time": 684, "pitch": 72, "duration": 6, "velocity": 127}, {"time": 690, "pitch": 77, "duration": 6, "velocity": 127}, {"time": 696, "pitch": 74, "duration": 24, "velocity": 127}, {"time": 720, "pitch": 75, "duration": 6, "velocity": 127}, {"time": 726, "pitch": 79, "duration": 6, "velocity": 127}, {"time": 732, "pitch": 74, "duration": 6, "velocity": 127}, {"time": 738, "pitch": 79, "duration": 6, "velocity": 127}, {"time": 744, "pitch": 75, "duration": 6, "velocity": 127}, {"time": 750, "pitch": 79, "duration": 6, "velocity": 127}, {"time": 756, "pitch": 74, "duration": 6, "velocity": 127}, {"time": 762, "pitch": 79, "duration": 6, "velocity": 127}, {"time": 768, "pitch": 75, "duration": 6, "velocity": 127}, {"time": 774, "pitch": 79, "duration": 6, "velocity": 127}, {"time": 780, "pitch": 74, "duration": 6, "velocity": 127}, {"time": 786, "pitch": 79, "duration": 6, "velocity": 127}, {"time": 792, "pitch": 75, "duration": 18, "velocity": 127}, {"time": 810, "pitch": 79, "duration": 6, "velocity": 127}, {"time": 816, "pitch": 72, "duration": 12, "velocity": 127}, {"time": 828, "pitch": 77, "duration": 18, "velocity": 127}, {"time": 846, "pitch": 79, "duration": 6, "velocity": 127}, {"time": 852, "pitch": 75, "duration": 6, "velocity": 127}, {"time": 858, "pitch": 74, "duration": 6, "velocity": 127}, {"time": 864, "pitch": 74, "duration": 18, "velocity": 127}, {"time": 882, "pitch": 72, "duration": 6, "velocity": 127}, {"time": 888, "pitch": 72, "duration": 18, "velocity": 127}, {"time": 906, "pitch": 72, "duration": 6, "velocity": 127}, {"time": 912, "pitch": 77, "duration": 12, "velocity": 127}, {"time": 924, "pitch": 75, "duration": 9, "velocity": 127}, {"time": 933, "pitch": 74, "duration": 3, "velocity": 127}, {"time": 936, "pitch": 74, "duration": 18, "velocity": 127}, {"time": 954, "pitch": 74, "duration": 6, "velocity": 127}, {"time": 960, "pitch": 79, "duration": 12, "velocity": 127}, {"time": 972, "pitch": 77, "duration": 9, "velocity": 127}, {"time": 981, "pitch": 76, "duration": 3, "velocity": 127}, {"time": 984, "pitch": 76, "duration": 18, "velocity": 127}, {"time": 1002, "pitch": 76, "duration": 6, "velocity": 127}, {"time": 1008, "pitch": 81, "duration": 12, "velocity": 127}, {"time": 1020, "pitch": 79, "duration": 9, "velocity": 127}, {"time": 1029, "pitch": 78, "duration": 3, "velocity": 127}, {"time": 1032, "pitch": 78, "duration": 18, "velocity": 127}, {"time": 1050, "pitch": 79, "duration": 6, "velocity": 127}, {"time": 1056, "pitch": 81, "duration": 12, "velocity": 127}, {"time": 1068, "pitch": 86, "duration": 12, "velocity": 127}, {"time": 1080, "pitch": 82, "duration": 18, "velocity": 127}, {"time": 1098, "pitch": 81, "duration": 6, "velocity": 127}, {"time": 1104, "pitch": 79, "duration": 12, "velocity": 127}, {"time": 1116, "pitch": 77, "duration": 6, "velocity": 127}, {"time": 1122, "pitch": 79, "duration": 6, "velocity": 127}, {"time": 1128, "pitch": 75, "duration": 12, "velocity": 127}, {"time": 1140, "pitch": 74, "duration": 12, "velocity": 127}, {"time": 1152, "pitch": 72, "duration": 18, "velocity": 127}, {"time": 1170, "pitch": 74, "duration": 6, "velocity": 127}, {"time": 1176, "pitch": 74, "duration": 24, "velocity": 127}, {"time": 1200, "pitch": 74, "duration": 12, "velocity": 127}, {"time": 1212, "pitch": 79, "duration": 9, "velocity": 127}, {"time": 1221, "pitch": 81, "duration": 3, "velocity": 127}, {"time": 1224, "pitch": 78, "duration": 18, "velocity": 127}, {"time": 1242, "pitch": 74, "duration": 6, "velocity": 127}, {"time": 1248, "pitch": 79, "duration": 12, "velocity": 127}, {"time": 1260, "pitch": 81, "duration": 12, "velocity": 127}, {"time": 1272, "pitch": 82, "duration": 18, "velocity": 127}, {"time": 1290, "pitch": 81, "duration": 6, "velocity": 127}, {"time": 1296, "pitch": 82, "duration": 6, "velocity": 127}, {"time": 1302, "pitch": 86, "duration": 6, "velocity": 127}, {"time": 1308, "pitch": 81, "duration": 6, "velocity": 127}, {"time": 1314, "pitch": 86, "duration": 6, "velocity": 127}, {"time": 1320, "pitch": 82, "duration": 6, "velocity": 127}, {"time": 1326, "pitch": 86, "duration": 6, "velocity": 127}, {"time": 1332, "pitch": 81, "duration": 6, "velocity": 127}, {"time": 1338, "pitch": 86, "duration": 6, "velocity": 127}, {"time": 1344, "pitch": 82, "duration": 6, "velocity": 127}, {"time": 1350, "pitch": 86, "duration": 6, "velocity": 127}, {"time": 1356, "pitch": 78, "duration": 6, "velocity": 127}, {"time": 1362, "pitch": 86, "duration": 6, "velocity": 127}, {"time": 1368, "pitch": 79, "duration": 18, "velocity": 127}, {"time": 1386, "pitch": 79, "duration": 6, "velocity": 127}, {"time": 1392, "pitch": 84, "duration": 6, "velocity": 127}, {"time": 1398, "pitch": 82, "duration": 6, "velocity": 127}, {"time": 1404, "pitch": 81, "duration": 6, "velocity": 127}, {"time": 1410, "pitch": 79, "duration": 6, "velocity": 127}, {"time": 1416, "pitch": 78, "duration": 12, "velocity": 127}, {"time": 1428, "pitch": 79, "duration": 6, "velocity": 127}, {"time": 1434, "pitch": 84, "duration": 6, "velocity": 127}, {"time": 1440, "pitch": 82, "duration": 12, "velocity": 127}, {"time": 1452, "pitch": 81, "duration": 9, "velocity": 127}, {"time": 1461, "pitch": 79, "duration": 3, "velocity": 127}, {"time": 1464, "pitch": 79, "duration": 18, "velocity": 127}, {"time": 1482, "pitch": 77, "duration": 6, "velocity": 127}, {"time": 1488, "pitch": 75, "duration": 6, "velocity": 127}, {"time": 1494, "pitch": 74, "duration": 6, "velocity": 127}, {"time": 1500, "pitch": 72, "duration": 18, "velocity": 127}, {"time": 1518, "pitch": 74, "duration": 6, "velocity": 127}, {"time": 1524, "pitch": 70, "duration": 6, "velocity": 127}, {"time": 1530, "pitch": 69, "duration": 6, "velocity": 127}, {"time": 1536, "pitch": 69, "duration": 18, "velocity": 127}, {"time": 1554, "pitch": 67, "duration": 6, "velocity": 127}, {"time": 1560, "pitch": 67, "duration": 24, "velocity": 127}]}]}