{"metadata": {"schema_version": "0.2"}, "resolution": 24, "tracks": [{"program": 74, "is_drum": false, "name": "", "notes": [{"time": 0, "pitch": 72, "duration": 6, "velocity": 127}, {"time": 6, "pitch": 74, "duration": 6, "velocity": 127}, {"time": 12, "pitch": 76, "duration": 6, "velocity": 127}, {"time": 18, "pitch": 77, "duration": 6, "velocity": 127}, {"time": 24, "pitch": 79, "duration": 12, "velocity": 127}, {"time": 36, "pitch": 84, "duration": 12, "velocity": 127}, {"time": 48, "pitch": 83, "duration": 12, "velocity": 127}, {"time": 60, "pitch": 81, "duration": 12, "velocity": 127}, {"time": 72, "pitch": 79, "duration": 12, "velocity": 127}, {"time": 84, "pitch": 72, "duration": 12, "velocity": 127}, {"time": 96, "pitch": 71, "duration": 12, "velocity": 127}, {"time": 108, "pitch": 69, "duration": 12, "velocity": 127}, {"time": 120, "pitch": 67, "duration": 12, "velocity": 127}, {"time": 132, "pitch": 72, "duration": 12, "velocity": 127}, {"time": 144, "pitch": 77, "duration": 12, "velocity": 127}, {"time": 156, "pitch": 76, "duration": 6, "velocity": 127}, {"time": 162, "pitch": 77, "duration": 6, "velocity": 127}, {"time": 168, "pitch": 74, "duration": 24, "velocity": 127}, {"time": 192, "pitch": 79, "duration": 6, "velocity": 127}, {"time": 198, "pitch": 76, "duration": 6, "velocity": 127}, {"time": 204, "pitch": 72, "duration": 6, "velocity": 127}, {"time": 210, "pitch": 67, "duration": 6, "velocity": 127}, {"time": 216, "pitch": 69, "duration": 6, "velocity": 127}, {"time": 222, "pitch": 72, "duration": 6, "velocity": 127}, {"time": 228, "pitch": 74, "duration": 6, "velocity": 127}, {"time": 234, "pitch": 69, "duration": 6, "velocity": 127}, {"time": 240, "pitch": 71, "duration": 6, "velocity": 127}, {"time": 246, "pitch": 74, "duration": 6, "velocity": 127}, {"time": 252, "pitch": 76, "duration": 6, "velocity": 127}, {"time": 258, "pitch": 71, "duration": 6, "velocity": 127}, {"time": 264, "pitch": 72, "duration": 6, "velocity": 127}, {"time": 270, "pitch": 76, "duration": 6, "velocity": 127}, {"time": 276, "pitch": 77, "duration": 6, "velocity": 127}, {"time": 282, "pitch": 81, "duration": 6, "velocity": 127}, {"time": 288, "pitch": 79, "duration": 6, "velocity": 127}, {"time": 294, "pitch": 76, "duration": 6, "velocity": 127}, {"time": 300, "pitch": 77, "duration": 6, "velocity": 127}, {"time": 306, "pitch": 74, "duration": 6, "velocity": 127}, {"time": 312, "pitch": 76, "duration": 6, "velocity": 127}, {"time": 318, "pitch": 72, "duration": 6, "velocity": 127}, {"time": 324, "pitch": 74, "duration": 6, "velocity": 127}, {"time": 330, "pitch": 71, "duration": 6, "velocity": 127}, {"time": 336, "pitch": 72, "duration": 6, "velocity": 127}, {"time": 342, "pitch": 76, "duration": 6, "velocity": 127}, {"time": 348, "pitch": 74, "duration": 6, "velocity": 127}, {"time": 354, "pitch": 72, "duration": 6, "velocity": 127}, {"time": 360, "pitch": 71, "duration": 24, "velocity": 127}, {"time": 384, "pitch": 84, "duration": 18, "velocity": 127}, {"time": 402, "pitch": 79, "duration": 6, "velocity": 127}, {"time": 408, "pitch": 81, "duration": 6, "velocity": 127}, {"time": 414, "pitch": 77, "duration": 6, "velocity": 127}, {"time": 420, "pitch": 79, "duration": 6, "velocity": 127}, {"time": 426, "pitch": 76, "duration": 6, "velocity": 127}, {"time": 432, "pitch": 77, "duration": 6, "velocity": 127}, {"time": 438, "pitch": 74, "duration": 6, "velocity": 127}, {"time": 444, "pitch": 76, "duration": 6, "velocity": 127}, {"time": 450, "pitch": 72, "duration": 6, "velocity": 127}, {"time": 456, "pitch": 77, "duration": 6, "velocity": 127}, {"time": 462, "pitch": 74, "duration": 6, "velocity": 127}, {"time": 468, "pitch": 76, "duration": 6, "velocity": 127}, {"time": 474, "pitch": 77, "duration": 6, "velocity": 127}, {"time": 480, "pitch": 67, "duration": 6, "velocity": 127}, {"time": 486, "pitch": 71, "duration": 6, "velocity": 127}, {"time": 492, "pitch": 74, "duration": 6, "velocity": 127}, {"time": 498, "pitch": 77, "duration": 6, "velocity": 127}, {"time": 504, "pitch": 76, "duration": 6, "velocity": 127}, {"time": 510, "pitch": 72, "duration": 6, "velocity": 127}, {"time": 516, "pitch": 74, "duration": 6, "velocity": 127}, {"time": 522, "pitch": 69, "duration": 6, "velocity": 127}, {"time": 528, "pitch": 71, "duration": 18, "velocity": 127}, {"time": 546, "pitch": 72, "duration": 6, "velocity": 127}, {"time": 552, "pitch": 72, "duration": 24, "velocity": 127}, {"time": 576, "pitch": 69, "duration": 6, "velocity": 127}, {"time": 582, "pitch": 71, "duration": 6, "velocity": 127}, {"time": 588, "pitch": 72, "duration": 6, "velocity": 127}, {"time": 594, "pitch": 74, "duration": 6, "velocity": 127}, {"time": 600, "pitch": 76, "duration": 12, "velocity": 127}, {"time": 612, "pitch": 81, "duration": 12, "velocity": 127}, {"time": 624, "pitch": 80, "duration": 12, "velocity": 127}, {"time": 636, "pitch": 81, "duration": 12, "velocity": 127}, {"time": 648, "pitch": 83, "duration": 12, "velocity": 127}, {"time": 660, "pitch": 76, "duration": 12, "velocity": 127}, {"time": 672, "pitch": 74, "duration": 12, "velocity": 127}, {"time": 684, "pitch": 72, "duration": 6, "velocity": 127}, {"time": 690, "pitch": 71, "duration": 6, "velocity": 127}, {"time": 696, "pitch": 72, "duration": 6, "velocity": 127}, {"time": 702, "pitch": 71, "duration": 6, "velocity": 127}, {"time": 708, "pitch": 72, "duration": 6, "velocity": 127}, {"time": 714, "pitch": 74, "duration": 6, "velocity": 127}, {"time": 720, "pitch": 74, "duration": 18, "velocity": 127}, {"time": 738, "pitch": 72, "duration": 3, "velocity": 127}, {"time": 741, "pitch": 74, "duration": 3, "velocity": 127}, {"time": 744, "pitch": 76, "duration": 24, "velocity": 127}, {"time": 768, "pitch": 84, "duration": 6, "velocity": 127}, {"time": 774, "pitch": 76, "duration": 6, "velocity": 127}, {"time": 780, "pitch": 74, "duration": 6, "velocity": 127}, {"time": 786, "pitch": 72, "duration": 6, "velocity": 127}, {"time": 792, "pitch": 74, "duration": 6, "velocity": 127}, {"time": 798, "pitch": 84, "duration": 6, "velocity": 127}, {"time": 804, "pitch": 83, "duration": 6, "velocity": 127}, {"time": 810, "pitch": 81, "duration": 6, "velocity": 127}, {"time": 816, "pitch": 83, "duration": 6, "velocity": 127}, {"time": 822, "pitch": 74, "duration": 6, "velocity": 127}, {"time": 828, "pitch": 72, "duration": 6, "velocity": 127}, {"time": 834, "pitch": 71, "duration": 6, "velocity": 127}, {"time": 840, "pitch": 72, "duration": 6, "velocity": 127}, {"time": 846, "pitch": 83, "duration": 6, "velocity": 127}, {"time": 852, "pitch": 81, "duration": 6, "velocity": 127}, {"time": 858, "pitch": 80, "duration": 6, "velocity": 127}, {"time": 864, "pitch": 81, "duration": 6, "velocity": 127}, {"time": 870, "pitch": 76, "duration": 6, "velocity": 127}, {"time": 876, "pitch": 81, "duration": 6, "velocity": 127}, {"time": 882, "pitch": 79, "duration": 6, "velocity": 127}, {"time": 888, "pitch": 77, "duration": 6, "velocity": 127}, {"time": 894, "pitch": 76, "duration": 6, "velocity": 127}, {"time": 900, "pitch": 74, "duration": 6, "velocity": 127}, {"time": 906, "pitch": 72, "duration": 6, "velocity": 127}, {"time": 912, "pitch": 74, "duration": 6, "velocity": 127}, {"time": 918, "pitch": 72, "duration": 6, "velocity": 127}, {"time": 924, "pitch": 71, "duration": 6, "velocity": 127}, {"time": 930, "pitch": 69, "duration": 6, "velocity": 127}, {"time": 936, "pitch": 80, "duration": 6, "velocity": 127}, {"time": 942, "pitch": 81, "duration": 6, "velocity": 127}, {"time": 948, "pitch": 81, "duration": 9, "velocity": 127}, {"time": 957, "pitch": 80, "duration": 1, "velocity": 127}, {"time": 958, "pitch": 81, "duration": 2, "velocity": 127}, {"time": 960, "pitch": 83, "duration": 6, "velocity": 127}, {"time": 966, "pitch": 76, "duration": 6, "velocity": 127}, {"time": 972, "pitch": 86, "duration": 6, "velocity": 127}, {"time": 978, "pitch": 83, "duration": 6, "velocity": 127}, {"time": 984, "pitch": 84, "duration": 6, "velocity": 127}, {"time": 990, "pitch": 81, "duration": 6, "velocity": 127}, {"time": 996, "pitch": 83, "duration": 6, "velocity": 127}, {"time": 1002, "pitch": 84, "duration": 6, "velocity": 127}, {"time": 1008, "pitch": 80, "duration": 18, "velocity": 127}, {"time": 1026, "pitch": 81, "duration": 6, "velocity": 127}, {"time": 1032, "pitch": 81, "duration": 24, "velocity": 127}, {"time": 1056, "pitch": 74, "duration": 6, "velocity": 127}, {"time": 1062, "pitch": 81, "duration": 6, "velocity": 127}, {"time": 1068, "pitch": 83, "duration": 6, "velocity": 127}, {"time": 1074, "pitch": 84, "duration": 6, "velocity": 127}, {"time": 1080, "pitch": 83, "duration": 6, "velocity": 127}, {"time": 1086, "pitch": 79, "duration": 6, "velocity": 127}, {"time": 1092, "pitch": 81, "duration": 6, "velocity": 127}, {"time": 1098, "pitch": 83, "duration": 6, "velocity": 127}, {"time": 1104, "pitch": 74, "duration": 12, "velocity": 127}, {"time": 1116, "pitch": 78, "duration": 12, "velocity": 127}, {"time": 1128, "pitch": 79, "duration": 18, "velocity": 127}, {"time": 1146, "pitch": 81, "duration": 6, "velocity": 127}, {"time": 1152, "pitch": 83, "duration": 6, "velocity": 127}, {"time": 1158, "pitch": 79, "duration": 6, "velocity": 127}, {"time": 1164, "pitch": 78, "duration": 6, "velocity": 127}, {"time": 1170, "pitch": 76, "duration": 6, "velocity": 127}, {"time": 1176, "pitch": 84, "duration": 6, "velocity": 127}, {"time": 1182, "pitch": 76, "duration": 6, "velocity": 127}, {"time": 1188, "pitch": 75, "duration": 6, "velocity": 127}, {"time": 1194, "pitch": 76, "duration": 6, "velocity": 127}, {"time": 1200, "pitch": 83, "duration": 6, "velocity": 127}, {"time": 1206, "pitch": 76, "duration": 6, "velocity": 127}, {"time": 1212, "pitch": 75, "duration": 6, "velocity": 127}, {"time": 1218, "pitch": 76, "duration": 6, "velocity": 127}, {"time": 1224, "pitch": 84, "duration": 6, "velocity": 127}, {"time": 1230, "pitch": 76, "duration": 6, "velocity": 127}, {"time": 1236, "pitch": 75, "duration": 6, "velocity": 127}, {"time": 1242, "pitch": 76, "duration": 6, "velocity": 127}, {"time": 1248, "pitch": 83, "duration": 6, "velocity": 127}, {"time": 1254, "pitch": 76, "duration": 6, "velocity": 127}, {"time": 1260, "pitch": 75, "duration": 6, "velocity": 127}, {"time": 1266, "pitch": 76, "duration": 6, "velocity": 127}, {"time": 1272, "pitch": 84, "duration": 6, "velocity": 127}, {"time": 1278, "pitch": 81, "duration": 6, "velocity": 127}, {"time": 1284, "pitch": 83, "duration": 6, "velocity": 127}, {"time": 1290, "pitch": 79, "duration": 6, "velocity": 127}, {"time": 1296, "pitch": 81, "duration": 6, "velocity": 127}, {"time": 1302, "pitch": 78, "duration": 6, "velocity": 127}, {"time": 1308, "pitch": 79, "duration": 6, "velocity": 127}, {"time": 1314, "pitch": 76, "duration": 6, "velocity": 127}, {"time": 1320, "pitch": 75, "duration": 6, "velocity": 127}, {"time": 1326, "pitch": 71, "duration": 6, "velocity": 127}, {"time": 1332, "pitch": 75, "duration": 6, "velocity": 127}, {"time": 1338, "pitch": 78, "duration": 6, "velocity": 127}, {"time": 1344, "pitch": 81, "duration": 6, "velocity": 127}, {"time": 1350, "pitch": 84, "duration": 6, "velocity": 127}, {"time": 1356, "pitch": 83, "duration": 6, "velocity": 127}, {"time": 1362, "pitch": 78, "duration": 6, "velocity": 127}, {"time": 1368, "pitch": 79, "duration": 6, "velocity": 127}, {"time": 1374, "pitch": 75, "duration": 6, "velocity": 127}, {"time": 1380, "pitch": 76, "duration": 6, "velocity": 127}, {"time": 1386, "pitch": 78, "duration": 6, "velocity": 127}, {"time": 1392, "pitch": 71, "duration": 12, "velocity": 127}, {"time": 1404, "pitch": 75, "duration": 12, "velocity": 127}, {"time": 1416, "pitch": 76, "duration": 24, "velocity": 127}, {"time": 1440, "pitch": 72, "duration": 6, "velocity": 127}, {"time": 1446, "pitch": 74, "duration": 6, "velocity": 127}, {"time": 1452, "pitch": 76, "duration": 6, "velocity": 127}, {"time": 1458, "pitch": 77, "duration": 6, "velocity": 127}, {"time": 1464, "pitch": 79, "duration": 12, "velocity": 127}, {"time": 1476, "pitch": 84, "duration": 12, "velocity": 127}, {"time": 1488, "pitch": 83, "duration": 12, "velocity": 127}, {"time": 1500, "pitch": 81, "duration": 12, "velocity": 127}, {"time": 1512, "pitch": 79, "duration": 12, "velocity": 127}, {"time": 1524, "pitch": 72, "duration": 12, "velocity": 127}, {"time": 1536, "pitch": 71, "duration": 12, "velocity": 127}, {"time": 1548, "pitch": 69, "duration": 12, "velocity": 127}, {"time": 1560, "pitch": 67, "duration": 12, "velocity": 127}, {"time": 1572, "pitch": 72, "duration": 12, "velocity": 127}, {"time": 1584, "pitch": 77, "duration": 12, "velocity": 127}, {"time": 1596, "pitch": 76, "duration": 6, "velocity": 127}, {"time": 1602, "pitch": 77, "duration": 6, "velocity": 127}, {"time": 1608, "pitch": 74, "duration": 24, "velocity": 127}, {"time": 1632, "pitch": 79, "duration": 6, "velocity": 127}, {"time": 1638, "pitch": 76, "duration": 6, "velocity": 127}, {"time": 1644, "pitch": 72, "duration": 6, "velocity": 127}, {"time": 1650, "pitch": 67, "duration": 6, "velocity": 127}, {"time": 1656, "pitch": 69, "duration": 6, "velocity": 127}, {"time": 1662, "pitch": 72, "duration": 6, "velocity": 127}, {"time": 1668, "pitch": 74, "duration": 6, "velocity": 127}, {"time": 1674, "pitch": 69, "duration": 6, "velocity": 127}, {"time": 1680, "pitch": 71, "duration": 6, "velocity": 127}, {"time": 1686, "pitch": 74, "duration": 6, "velocity": 127}, {"time": 1692, "pitch": 76, "duration": 6, "velocity": 127}, {"time": 1698, "pitch": 71, "duration": 6, "velocity": 127}, {"time": 1704, "pitch": 72, "duration": 6, "velocity": 127}, {"time": 1710, "pitch": 76, "duration": 6, "velocity": 127}, {"time": 1716, "pitch": 77, "duration": 6, "velocity": 127}, {"time": 1722, "pitch": 81, "duration": 6, "velocity": 127}, {"time": 1728, "pitch": 79, "duration": 6, "velocity": 127}, {"time": 1734, "pitch": 76, "duration": 6, "velocity": 127}, {"time": 1740, "pitch": 77, "duration": 6, "velocity": 127}, {"time": 1746, "pitch": 74, "duration": 6, "velocity": 127}, {"time": 1752, "pitch": 76, "duration": 6, "velocity": 127}, {"time": 1758, "pitch": 72, "duration": 6, "velocity": 127}, {"time": 1764, "pitch": 74, "duration": 6, "velocity": 127}, {"time": 1770, "pitch": 71, "duration": 6, "velocity": 127}, {"time": 1776, "pitch": 72, "duration": 6, "velocity": 127}, {"time": 1782, "pitch": 76, "duration": 6, "velocity": 127}, {"time": 1788, "pitch": 74, "duration": 6, "velocity": 127}, {"time": 1794, "pitch": 72, "duration": 6, "velocity": 127}, {"time": 1800, "pitch": 71, "duration": 12, "velocity": 127}, {"time": 1812, "pitch": 69, "duration": 6, "velocity": 127}, {"time": 1818, "pitch": 67, "duration": 6, "velocity": 127}, {"time": 1824, "pitch": 84, "duration": 18, "velocity": 127}, {"time": 1842, "pitch": 79, "duration": 6, "velocity": 127}, {"time": 1848, "pitch": 81, "duration": 6, "velocity": 127}, {"time": 1854, "pitch": 77, "duration": 6, "velocity": 127}, {"time": 1860, "pitch": 79, "duration": 6, "velocity": 127}, {"time": 1866, "pitch": 76, "duration": 6, "velocity": 127}, {"time": 1872, "pitch": 77, "duration": 6, "velocity": 127}, {"time": 1878, "pitch": 74, "duration": 6, "velocity": 127}, {"time": 1884, "pitch": 76, "duration": 6, "velocity": 127}, {"time": 1890, "pitch": 72, "duration": 6, "velocity": 127}, {"time": 1896, "pitch": 77, "duration": 6, "velocity": 127}, {"time": 1902, "pitch": 74, "duration": 6, "velocity": 127}, {"time": 1908, "pitch": 76, "duration": 6, "velocity": 127}, {"time": 1914, "pitch": 77, "duration": 6, "velocity": 127}, {"time": 1920, "pitch": 67, "duration": 6, "velocity": 127}, {"time": 1926, "pitch": 71, "duration": 6, "velocity": 127}, {"time": 1932, "pitch": 74, "duration": 6, "velocity": 127}, {"time": 1938, "pitch": 77, "duration": 6, "velocity": 127}, {"time": 1944, "pitch": 76, "duration": 6, "velocity": 127}, {"time": 1950, "pitch": 72, "duration": 6, "velocity": 127}, {"time": 1956, "pitch": 74, "duration": 6, "velocity": 127}, {"time": 1962, "pitch": 69, "duration": 6, "velocity": 127}, {"time": 1968, "pitch": 71, "duration": 18, "velocity": 127}, {"time": 1986, "pitch": 72, "duration": 6, "velocity": 127}, {"time": 1992, "pitch": 72, "duration": 24, "velocity": 127}, {"time": 2016, "pitch": 84, "duration": 18, "velocity": 127}, {"time": 2034, "pitch": 79, "duration": 6, "velocity": 127}, {"time": 2040, "pitch": 81, "duration": 6, "velocity": 127}, {"time": 2046, "pitch": 77, "duration": 6, "velocity": 127}, {"time": 2052, "pitch": 79, "duration": 6, "velocity": 127}, {"time": 2058, "pitch": 76, "duration": 6, "velocity": 127}, {"time": 2064, "pitch": 77, "duration": 6, "velocity": 127}, {"time": 2070, "pitch": 74, "duration": 6, "velocity": 127}, {"time": 2076, "pitch": 76, "duration": 6, "velocity": 127}, {"time": 2082, "pitch": 72, "duration": 6, "velocity": 127}, {"time": 2088, "pitch": 77, "duration": 6, "velocity": 127}, {"time": 2094, "pitch": 74, "duration": 6, "velocity": 127}, {"time": 2100, "pitch": 76, "duration": 6, "velocity": 127}, {"time": 2106, "pitch": 77, "duration": 6, "velocity": 127}, {"time": 2112, "pitch": 67, "duration": 6, "velocity": 127}, {"time": 2118, "pitch": 71, "duration": 6, "velocity": 127}, {"time": 2124, "pitch": 74, "duration": 6, "velocity": 127}, {"time": 2130, "pitch": 77, "duration": 6, "velocity": 127}, {"time": 2136, "pitch": 76, "duration": 6, "velocity": 127}, {"time": 2142, "pitch": 72, "duration": 6, "velocity": 127}, {"time": 2148, "pitch": 74, "duration": 6, "velocity": 127}, {"time": 2154, "pitch": 69, "duration": 6, "velocity": 127}, {"time": 2160, "pitch": 71, "duration": 18, "velocity": 127}, {"time": 2178, "pitch": 72, "duration": 6, "velocity": 127}, {"time": 2184, "pitch": 72, "duration": 24, "velocity": 127}]}]}