{"metadata": {"schema_version": "0.2"}, "resolution": 24, "tracks": [{"program": 74, "is_drum": false, "name": "", "notes": [{"time": 24, "pitch": 79, "duration": 24, "velocity": 127}, {"time": 48, "pitch": 75, "duration": 24, "velocity": 127}, {"time": 72, "pitch": 82, "duration": 72, "velocity": 127}, {"time": 168, "pitch": 80, "duration": 24, "velocity": 127}, {"time": 192, "pitch": 77, "duration": 24, "velocity": 127}, {"time": 216, "pitch": 84, "duration": 72, "velocity": 127}, {"time": 288, "pitch": 84, "duration": 24, "velocity": 127}, {"time": 312, "pitch": 82, "duration": 24, "velocity": 127}, {"time": 336, "pitch": 79, "duration": 24, "velocity": 127}, {"time": 360, "pitch": 80, "duration": 12, "velocity": 127}, {"time": 372, "pitch": 82, "duration": 12, "velocity": 127}, {"time": 384, "pitch": 80, "duration": 24, "velocity": 127}, {"time": 408, "pitch": 79, "duration": 18, "velocity": 127}, {"time": 426, "pitch": 77, "duration": 6, "velocity": 127}, {"time": 432, "pitch": 77, "duration": 24, "velocity": 127}, {"time": 456, "pitch": 81, "duration": 36, "velocity": 127}, {"time": 492, "pitch": 81, "duration": 12, "velocity": 127}, {"time": 504, "pitch": 82, "duration": 24, "velocity": 127}, {"time": 528, "pitch": 83, "duration": 36, "velocity": 127}, {"time": 564, "pitch": 83, "duration": 12, "velocity": 127}, {"time": 576, "pitch": 84, "duration": 24, "velocity": 127}, {"time": 600, "pitch": 80, "duration": 24, "velocity": 127}, {"time": 624, "pitch": 79, "duration": 24, "velocity": 127}, {"time": 648, "pitch": 78, "duration": 24, "velocity": 127}, {"time": 672, "pitch": 86, "duration": 36, "velocity": 127}, {"time": 708, "pitch": 78, "duration": 12, "velocity": 127}, {"time": 720, "pitch": 79, "duration": 12, "velocity": 127}, {"time": 732, "pitch": 70, "duration": 12, "velocity": 127}, {"time": 744, "pitch": 72, "duration": 36, "velocity": 127}, {"time": 780, "pitch": 74, "duration": 12, "velocity": 127}, {"time": 792, "pitch": 74, "duration": 72, "velocity": 127}]}]}