{"metadata": {"schema_version": "0.2"}, "resolution": 24, "tracks": [{"program": 6, "is_drum": false, "name": "", "notes": [{"time": 6, "pitch": 64, "duration": 6, "velocity": 127}, {"time": 12, "pitch": 62, "duration": 6, "velocity": 127}, {"time": 18, "pitch": 60, "duration": 6, "velocity": 127}, {"time": 24, "pitch": 65, "duration": 3, "velocity": 127}, {"time": 27, "pitch": 64, "duration": 3, "velocity": 127}, {"time": 30, "pitch": 62, "duration": 3, "velocity": 127}, {"time": 33, "pitch": 60, "duration": 3, "velocity": 127}, {"time": 36, "pitch": 62, "duration": 3, "velocity": 127}, {"time": 39, "pitch": 55, "duration": 3, "velocity": 127}, {"time": 42, "pitch": 67, "duration": 3, "velocity": 127}, {"time": 45, "pitch": 65, "duration": 3, "velocity": 127}, {"time": 48, "pitch": 64, "duration": 3, "velocity": 127}, {"time": 51, "pitch": 62, "duration": 3, "velocity": 127}, {"time": 54, "pitch": 64, "duration": 6, "velocity": 127}, {"time": 60, "pitch": 69, "duration": 6, "velocity": 127}, {"time": 66, "pitch": 67, "duration": 6, "velocity": 127}, {"time": 72, "pitch": 65, "duration": 6, "velocity": 127}, {"time": 78, "pitch": 67, "duration": 6, "velocity": 127}, {"time": 84, "pitch": 55, "duration": 6, "velocity": 127}, {"time": 90, "pitch": 60, "duration": 6, "velocity": 127}, {"time": 96, "pitch": 57, "duration": 6, "velocity": 127}, {"time": 102, "pitch": 62, "duration": 6, "velocity": 127}, {"time": 108, "pitch": 55, "duration": 6, "velocity": 127}, {"time": 114, "pitch": 60, "duration": 6, "velocity": 127}, {"time": 120, "pitch": 65, "duration": 6, "velocity": 127}, {"time": 126, "pitch": 67, "duration": 6, "velocity": 127}, {"time": 132, "pitch": 52, "duration": 6, "velocity": 127}, {"time": 138, "pitch": 53, "duration": 6, "velocity": 127}, {"time": 144, "pitch": 48, "duration": 18, "velocity": 127}, {"time": 162, "pitch": 52, "duration": 18, "velocity": 127}, {"time": 180, "pitch": 54, "duration": 18, "velocity": 127}, {"time": 198, "pitch": 55, "duration": 6, "velocity": 127}, {"time": 204, "pitch": 43, "duration": 6, "velocity": 127}, {"time": 210, "pitch": 43, "duration": 6, "velocity": 127}, {"time": 216, "pitch": 45, "duration": 6, "velocity": 127}, {"time": 222, "pitch": 45, "duration": 9, "velocity": 127}, {"time": 231, "pitch": 43, "duration": 1, "velocity": 127}, {"time": 232, "pitch": 45, "duration": 2, "velocity": 127}, {"time": 234, "pitch": 47, "duration": 6, "velocity": 127}, {"time": 240, "pitch": 43, "duration": 6, "velocity": 127}, {"time": 246, "pitch": 48, "duration": 6, "velocity": 127}, {"time": 252, "pitch": 48, "duration": 12, "velocity": 127}, {"time": 264, "pitch": 47, "duration": 6, "velocity": 127}, {"time": 270, "pitch": 45, "duration": 6, "velocity": 127}, {"time": 276, "pitch": 50, "duration": 6, "velocity": 127}, {"time": 282, "pitch": 55, "duration": 6, "velocity": 127}, {"time": 288, "pitch": 48, "duration": 6, "velocity": 127}, {"time": 294, "pitch": 50, "duration": 6, "velocity": 127}, {"time": 300, "pitch": 38, "duration": 6, "velocity": 127}, {"time": 306, "pitch": 43, "duration": 6, "velocity": 127}, {"time": 312, "pitch": 55, "duration": 6, "velocity": 127}, {"time": 318, "pitch": 55, "duration": 6, "velocity": 127}, {"time": 324, "pitch": 55, "duration": 6, "velocity": 127}, {"time": 330, "pitch": 53, "duration": 6, "velocity": 127}, {"time": 336, "pitch": 53, "duration": 6, "velocity": 127}, {"time": 342, "pitch": 53, "duration": 12, "velocity": 127}, {"time": 354, "pitch": 52, "duration": 6, "velocity": 127}, {"time": 360, "pitch": 50, "duration": 6, "velocity": 127}, {"time": 366, "pitch": 55, "duration": 6, "velocity": 127}, {"time": 372, "pitch": 43, "duration": 6, "velocity": 127}, {"time": 378, "pitch": 48, "duration": 6, "velocity": 127}, {"time": 384, "pitch": 50, "duration": 6, "velocity": 127}, {"time": 390, "pitch": 52, "duration": 6, "velocity": 127}, {"time": 396, "pitch": 53, "duration": 6, "velocity": 127}, {"time": 402, "pitch": 55, "duration": 6, "velocity": 127}, {"time": 408, "pitch": 57, "duration": 6, "velocity": 127}, {"time": 414, "pitch": 55, "duration": 18, "velocity": 127}, {"time": 432, "pitch": 57, "duration": 18, "velocity": 127}, {"time": 450, "pitch": 59, "duration": 18, "velocity": 127}, {"time": 468, "pitch": 60, "duration": 6, "velocity": 127}, {"time": 474, "pitch": 48, "duration": 6, "velocity": 127}, {"time": 480, "pitch": 48, "duration": 6, "velocity": 127}, {"time": 486, "pitch": 50, "duration": 6, "velocity": 127}, {"time": 492, "pitch": 50, "duration": 9, "velocity": 127}, {"time": 501, "pitch": 48, "duration": 1, "velocity": 127}, {"time": 502, "pitch": 50, "duration": 2, "velocity": 127}, {"time": 504, "pitch": 52, "duration": 6, "velocity": 127}, {"time": 510, "pitch": 48, "duration": 6, "velocity": 127}, {"time": 516, "pitch": 52, "duration": 6, "velocity": 127}, {"time": 522, "pitch": 53, "duration": 12, "velocity": 127}, {"time": 534, "pitch": 52, "duration": 6, "velocity": 127}, {"time": 540, "pitch": 50, "duration": 6, "velocity": 127}, {"time": 546, "pitch": 55, "duration": 6, "velocity": 127}, {"time": 552, "pitch": 60, "duration": 6, "velocity": 127}, {"time": 558, "pitch": 53, "duration": 6, "velocity": 127}, {"time": 564, "pitch": 55, "duration": 6, "velocity": 127}, {"time": 570, "pitch": 43, "duration": 6, "velocity": 127}, {"time": 576, "pitch": 48, "duration": 18, "velocity": 127}, {"time": 594, "pitch": 53, "duration": 6, "velocity": 127}, {"time": 600, "pitch": 65, "duration": 6, "velocity": 127}, {"time": 606, "pitch": 64, "duration": 6, "velocity": 127}, {"time": 612, "pitch": 62, "duration": 12, "velocity": 127}, {"time": 624, "pitch": 50, "duration": 6, "velocity": 127}, {"time": 630, "pitch": 52, "duration": 6, "velocity": 127}, {"time": 636, "pitch": 64, "duration": 6, "velocity": 127}, {"time": 642, "pitch": 62, "duration": 6, "velocity": 127}, {"time": 648, "pitch": 60, "duration": 12, "velocity": 127}, {"time": 660, "pitch": 59, "duration": 6, "velocity": 127}, {"time": 666, "pitch": 57, "duration": 12, "velocity": 127}, {"time": 678, "pitch": 55, "duration": 6, "velocity": 127}, {"time": 684, "pitch": 53, "duration": 12, "velocity": 127}, {"time": 696, "pitch": 65, "duration": 6, "velocity": 127}, {"time": 702, "pitch": 64, "duration": 6, "velocity": 127}, {"time": 708, "pitch": 62, "duration": 3, "velocity": 127}, {"time": 711, "pitch": 60, "duration": 3, "velocity": 127}, {"time": 714, "pitch": 59, "duration": 3, "velocity": 127}, {"time": 717, "pitch": 57, "duration": 3, "velocity": 127}, {"time": 720, "pitch": 56, "duration": 6, "velocity": 127}, {"time": 726, "pitch": 52, "duration": 12, "velocity": 127}, {"time": 738, "pitch": 54, "duration": 18, "velocity": 127}, {"time": 756, "pitch": 56, "duration": 18, "velocity": 127}, {"time": 774, "pitch": 57, "duration": 6, "velocity": 127}, {"time": 780, "pitch": 45, "duration": 6, "velocity": 127}, {"time": 786, "pitch": 45, "duration": 6, "velocity": 127}, {"time": 792, "pitch": 47, "duration": 6, "velocity": 127}, {"time": 798, "pitch": 47, "duration": 9, "velocity": 127}, {"time": 807, "pitch": 45, "duration": 1, "velocity": 127}, {"time": 808, "pitch": 47, "duration": 2, "velocity": 127}, {"time": 810, "pitch": 49, "duration": 6, "velocity": 127}, {"time": 816, "pitch": 45, "duration": 6, "velocity": 127}, {"time": 822, "pitch": 50, "duration": 6, "velocity": 127}, {"time": 828, "pitch": 55, "duration": 6, "velocity": 127}, {"time": 834, "pitch": 57, "duration": 6, "velocity": 127}, {"time": 840, "pitch": 45, "duration": 6, "velocity": 127}, {"time": 846, "pitch": 50, "duration": 6, "velocity": 127}, {"time": 852, "pitch": 62, "duration": 3, "velocity": 127}, {"time": 855, "pitch": 65, "duration": 3, "velocity": 127}, {"time": 858, "pitch": 64, "duration": 3, "velocity": 127}, {"time": 861, "pitch": 67, "duration": 3, "velocity": 127}, {"time": 864, "pitch": 65, "duration": 3, "velocity": 127}, {"time": 867, "pitch": 57, "duration": 3, "velocity": 127}, {"time": 870, "pitch": 62, "duration": 3, "velocity": 127}, {"time": 873, "pitch": 65, "duration": 3, "velocity": 127}, {"time": 876, "pitch": 64, "duration": 3, "velocity": 127}, {"time": 879, "pitch": 67, "duration": 3, "velocity": 127}, {"time": 882, "pitch": 65, "duration": 3, "velocity": 127}, {"time": 885, "pitch": 57, "duration": 3, "velocity": 127}, {"time": 888, "pitch": 62, "duration": 3, "velocity": 127}, {"time": 891, "pitch": 65, "duration": 3, "velocity": 127}, {"time": 894, "pitch": 64, "duration": 3, "velocity": 127}, {"time": 897, "pitch": 67, "duration": 3, "velocity": 127}, {"time": 900, "pitch": 65, "duration": 3, "velocity": 127}, {"time": 903, "pitch": 62, "duration": 3, "velocity": 127}, {"time": 906, "pitch": 59, "duration": 3, "velocity": 127}, {"time": 909, "pitch": 62, "duration": 3, "velocity": 127}, {"time": 912, "pitch": 55, "duration": 3, "velocity": 127}, {"time": 915, "pitch": 59, "duration": 3, "velocity": 127}, {"time": 918, "pitch": 60, "duration": 3, "velocity": 127}, {"time": 921, "pitch": 55, "duration": 3, "velocity": 127}, {"time": 924, "pitch": 60, "duration": 3, "velocity": 127}, {"time": 927, "pitch": 64, "duration": 3, "velocity": 127}, {"time": 930, "pitch": 62, "duration": 3, "velocity": 127}, {"time": 933, "pitch": 65, "duration": 3, "velocity": 127}, {"time": 936, "pitch": 64, "duration": 3, "velocity": 127}, {"time": 939, "pitch": 55, "duration": 3, "velocity": 127}, {"time": 942, "pitch": 60, "duration": 3, "velocity": 127}, {"time": 945, "pitch": 64, "duration": 3, "velocity": 127}, {"time": 948, "pitch": 62, "duration": 3, "velocity": 127}, {"time": 951, "pitch": 65, "duration": 3, "velocity": 127}, {"time": 954, "pitch": 64, "duration": 6, "velocity": 127}, {"time": 960, "pitch": 52, "duration": 6, "velocity": 127}, {"time": 966, "pitch": 50, "duration": 6, "velocity": 127}, {"time": 972, "pitch": 48, "duration": 6, "velocity": 127}, {"time": 978, "pitch": 60, "duration": 6, "velocity": 127}, {"time": 984, "pitch": 59, "duration": 6, "velocity": 127}, {"time": 990, "pitch": 57, "duration": 6, "velocity": 127}, {"time": 996, "pitch": 60, "duration": 6, "velocity": 127}, {"time": 1002, "pitch": 57, "duration": 6, "velocity": 127}, {"time": 1008, "pitch": 59, "duration": 6, "velocity": 127}, {"time": 1014, "pitch": 47, "duration": 12, "velocity": 127}, {"time": 1026, "pitch": 49, "duration": 18, "velocity": 127}, {"time": 1044, "pitch": 51, "duration": 18, "velocity": 127}, {"time": 1062, "pitch": 52, "duration": 6, "velocity": 127}, {"time": 1068, "pitch": 64, "duration": 12, "velocity": 127}, {"time": 1080, "pitch": 62, "duration": 18, "velocity": 127}, {"time": 1098, "pitch": 60, "duration": 18, "velocity": 127}, {"time": 1116, "pitch": 59, "duration": 6, "velocity": 127}, {"time": 1122, "pitch": 57, "duration": 6, "velocity": 127}, {"time": 1128, "pitch": 55, "duration": 6, "velocity": 127}, {"time": 1134, "pitch": 57, "duration": 6, "velocity": 127}, {"time": 1140, "pitch": 59, "duration": 6, "velocity": 127}, {"time": 1146, "pitch": 47, "duration": 6, "velocity": 127}, {"time": 1152, "pitch": 52, "duration": 6, "velocity": 127}, {"time": 1158, "pitch": 64, "duration": 6, "velocity": 127}, {"time": 1164, "pitch": 59, "duration": 6, "velocity": 127}, {"time": 1170, "pitch": 60, "duration": 6, "velocity": 127}, {"time": 1176, "pitch": 62, "duration": 6, "velocity": 127}, {"time": 1182, "pitch": 50, "duration": 6, "velocity": 127}, {"time": 1188, "pitch": 55, "duration": 6, "velocity": 127}, {"time": 1194, "pitch": 59, "duration": 6, "velocity": 127}, {"time": 1200, "pitch": 55, "duration": 6, "velocity": 127}, {"time": 1206, "pitch": 48, "duration": 6, "velocity": 127}, {"time": 1212, "pitch": 60, "duration": 3, "velocity": 127}, {"time": 1215, "pitch": 59, "duration": 3, "velocity": 127}, {"time": 1218, "pitch": 57, "duration": 3, "velocity": 127}, {"time": 1221, "pitch": 55, "duration": 3, "velocity": 127}, {"time": 1224, "pitch": 57, "duration": 3, "velocity": 127}, {"time": 1227, "pitch": 50, "duration": 3, "velocity": 127}, {"time": 1230, "pitch": 62, "duration": 3, "velocity": 127}, {"time": 1233, "pitch": 60, "duration": 3, "velocity": 127}, {"time": 1236, "pitch": 59, "duration": 3, "velocity": 127}, {"time": 1239, "pitch": 57, "duration": 3, "velocity": 127}, {"time": 1242, "pitch": 59, "duration": 3, "velocity": 127}, {"time": 1245, "pitch": 57, "duration": 3, "velocity": 127}, {"time": 1248, "pitch": 55, "duration": 3, "velocity": 127}, {"time": 1251, "pitch": 54, "duration": 3, "velocity": 127}, {"time": 1254, "pitch": 52, "duration": 3, "velocity": 127}, {"time": 1257, "pitch": 50, "duration": 3, "velocity": 127}, {"time": 1260, "pitch": 48, "duration": 6, "velocity": 127}, {"time": 1266, "pitch": 50, "duration": 6, "velocity": 127}, {"time": 1272, "pitch": 38, "duration": 6, "velocity": 127}, {"time": 1278, "pitch": 43, "duration": 6, "velocity": 127}, {"time": 1284, "pitch": 48, "duration": 6, "velocity": 127}, {"time": 1290, "pitch": 45, "duration": 6, "velocity": 127}, {"time": 1296, "pitch": 50, "duration": 6, "velocity": 127}, {"time": 1302, "pitch": 55, "duration": 6, "velocity": 127}, {"time": 1308, "pitch": 43, "duration": 6, "velocity": 127}, {"time": 1314, "pitch": 50, "duration": 3, "velocity": 127}, {"time": 1317, "pitch": 48, "duration": 3, "velocity": 127}, {"time": 1320, "pitch": 50, "duration": 3, "velocity": 127}, {"time": 1323, "pitch": 52, "duration": 3, "velocity": 127}, {"time": 1326, "pitch": 54, "duration": 3, "velocity": 127}, {"time": 1329, "pitch": 50, "duration": 3, "velocity": 127}, {"time": 1332, "pitch": 55, "duration": 3, "velocity": 127}, {"time": 1335, "pitch": 50, "duration": 3, "velocity": 127}, {"time": 1338, "pitch": 55, "duration": 3, "velocity": 127}, {"time": 1341, "pitch": 59, "duration": 3, "velocity": 127}, {"time": 1344, "pitch": 57, "duration": 3, "velocity": 127}, {"time": 1347, "pitch": 60, "duration": 3, "velocity": 127}, {"time": 1350, "pitch": 59, "duration": 3, "velocity": 127}, {"time": 1353, "pitch": 50, "duration": 3, "velocity": 127}, {"time": 1356, "pitch": 55, "duration": 3, "velocity": 127}, {"time": 1359, "pitch": 59, "duration": 3, "velocity": 127}, {"time": 1362, "pitch": 57, "duration": 3, "velocity": 127}, {"time": 1365, "pitch": 60, "duration": 3, "velocity": 127}, {"time": 1368, "pitch": 59, "duration": 3, "velocity": 127}, {"time": 1371, "pitch": 57, "duration": 3, "velocity": 127}, {"time": 1374, "pitch": 55, "duration": 3, "velocity": 127}, {"time": 1377, "pitch": 57, "duration": 3, "velocity": 127}, {"time": 1380, "pitch": 59, "duration": 3, "velocity": 127}, {"time": 1383, "pitch": 55, "duration": 3, "velocity": 127}, {"time": 1386, "pitch": 60, "duration": 3, "velocity": 127}, {"time": 1389, "pitch": 55, "duration": 3, "velocity": 127}, {"time": 1392, "pitch": 60, "duration": 3, "velocity": 127}, {"time": 1395, "pitch": 64, "duration": 3, "velocity": 127}, {"time": 1398, "pitch": 62, "duration": 3, "velocity": 127}, {"time": 1401, "pitch": 65, "duration": 3, "velocity": 127}, {"time": 1404, "pitch": 64, "duration": 3, "velocity": 127}, {"time": 1407, "pitch": 55, "duration": 3, "velocity": 127}, {"time": 1410, "pitch": 60, "duration": 3, "velocity": 127}, {"time": 1413, "pitch": 64, "duration": 3, "velocity": 127}, {"time": 1416, "pitch": 62, "duration": 3, "velocity": 127}, {"time": 1419, "pitch": 65, "duration": 3, "velocity": 127}, {"time": 1422, "pitch": 64, "duration": 3, "velocity": 127}, {"time": 1425, "pitch": 62, "duration": 3, "velocity": 127}, {"time": 1428, "pitch": 60, "duration": 3, "velocity": 127}, {"time": 1431, "pitch": 62, "duration": 3, "velocity": 127}, {"time": 1434, "pitch": 64, "duration": 3, "velocity": 127}, {"time": 1437, "pitch": 60, "duration": 3, "velocity": 127}, {"time": 1440, "pitch": 65, "duration": 3, "velocity": 127}, {"time": 1443, "pitch": 60, "duration": 3, "velocity": 127}, {"time": 1446, "pitch": 65, "duration": 3, "velocity": 127}, {"time": 1449, "pitch": 69, "duration": 3, "velocity": 127}, {"time": 1452, "pitch": 67, "duration": 3, "velocity": 127}, {"time": 1455, "pitch": 70, "duration": 3, "velocity": 127}, {"time": 1458, "pitch": 69, "duration": 3, "velocity": 127}, {"time": 1461, "pitch": 60, "duration": 3, "velocity": 127}, {"time": 1464, "pitch": 65, "duration": 3, "velocity": 127}, {"time": 1467, "pitch": 69, "duration": 3, "velocity": 127}, {"time": 1470, "pitch": 67, "duration": 3, "velocity": 127}, {"time": 1473, "pitch": 70, "duration": 3, "velocity": 127}, {"time": 1476, "pitch": 69, "duration": 6, "velocity": 127}, {"time": 1482, "pitch": 65, "duration": 6, "velocity": 127}, {"time": 1488, "pitch": 57, "duration": 6, "velocity": 127}, {"time": 1494, "pitch": 58, "duration": 6, "velocity": 127}, {"time": 1500, "pitch": 55, "duration": 6, "velocity": 127}, {"time": 1506, "pitch": 58, "duration": 6, "velocity": 127}, {"time": 1512, "pitch": 60, "duration": 6, "velocity": 127}, {"time": 1518, "pitch": 48, "duration": 6, "velocity": 127}, {"time": 1524, "pitch": 48, "duration": 6, "velocity": 127}, {"time": 1530, "pitch": 50, "duration": 6, "velocity": 127}, {"time": 1536, "pitch": 50, "duration": 9, "velocity": 127}, {"time": 1545, "pitch": 48, "duration": 1, "velocity": 127}, {"time": 1546, "pitch": 50, "duration": 2, "velocity": 127}, {"time": 1548, "pitch": 52, "duration": 6, "velocity": 127}, {"time": 1554, "pitch": 48, "duration": 6, "velocity": 127}, {"time": 1560, "pitch": 53, "duration": 6, "velocity": 127}, {"time": 1566, "pitch": 58, "duration": 6, "velocity": 127}, {"time": 1572, "pitch": 60, "duration": 6, "velocity": 127}, {"time": 1578, "pitch": 48, "duration": 6, "velocity": 127}, {"time": 1584, "pitch": 53, "duration": 3, "velocity": 127}, {"time": 1587, "pitch": 48, "duration": 3, "velocity": 127}, {"time": 1590, "pitch": 53, "duration": 3, "velocity": 127}, {"time": 1593, "pitch": 57, "duration": 3, "velocity": 127}, {"time": 1596, "pitch": 55, "duration": 3, "velocity": 127}, {"time": 1599, "pitch": 58, "duration": 3, "velocity": 127}, {"time": 1602, "pitch": 57, "duration": 3, "velocity": 127}, {"time": 1605, "pitch": 48, "duration": 3, "velocity": 127}, {"time": 1608, "pitch": 53, "duration": 3, "velocity": 127}, {"time": 1611, "pitch": 57, "duration": 3, "velocity": 127}, {"time": 1614, "pitch": 55, "duration": 3, "velocity": 127}, {"time": 1617, "pitch": 58, "duration": 3, "velocity": 127}, {"time": 1620, "pitch": 57, "duration": 3, "velocity": 127}, {"time": 1623, "pitch": 48, "duration": 3, "velocity": 127}, {"time": 1626, "pitch": 53, "duration": 3, "velocity": 127}, {"time": 1629, "pitch": 57, "duration": 3, "velocity": 127}, {"time": 1632, "pitch": 55, "duration": 3, "velocity": 127}, {"time": 1635, "pitch": 58, "duration": 3, "velocity": 127}, {"time": 1638, "pitch": 57, "duration": 3, "velocity": 127}, {"time": 1641, "pitch": 55, "duration": 3, "velocity": 127}, {"time": 1644, "pitch": 53, "duration": 3, "velocity": 127}, {"time": 1647, "pitch": 55, "duration": 3, "velocity": 127}, {"time": 1650, "pitch": 57, "duration": 3, "velocity": 127}, {"time": 1653, "pitch": 53, "duration": 3, "velocity": 127}, {"time": 1656, "pitch": 58, "duration": 3, "velocity": 127}, {"time": 1659, "pitch": 53, "duration": 3, "velocity": 127}, {"time": 1662, "pitch": 58, "duration": 3, "velocity": 127}, {"time": 1665, "pitch": 57, "duration": 3, "velocity": 127}, {"time": 1668, "pitch": 55, "duration": 3, "velocity": 127}, {"time": 1671, "pitch": 53, "duration": 3, "velocity": 127}, {"time": 1674, "pitch": 55, "duration": 3, "velocity": 127}, {"time": 1677, "pitch": 48, "duration": 3, "velocity": 127}, {"time": 1680, "pitch": 60, "duration": 3, "velocity": 127}, {"time": 1683, "pitch": 58, "duration": 3, "velocity": 127}, {"time": 1686, "pitch": 57, "duration": 3, "velocity": 127}, {"time": 1689, "pitch": 55, "duration": 3, "velocity": 127}, {"time": 1692, "pitch": 57, "duration": 3, "velocity": 127}, {"time": 1695, "pitch": 55, "duration": 3, "velocity": 127}, {"time": 1698, "pitch": 53, "duration": 3, "velocity": 127}, {"time": 1701, "pitch": 52, "duration": 3, "velocity": 127}, {"time": 1704, "pitch": 50, "duration": 3, "velocity": 127}, {"time": 1707, "pitch": 48, "duration": 3, "velocity": 127}, {"time": 1710, "pitch": 46, "duration": 3, "velocity": 127}, {"time": 1713, "pitch": 43, "duration": 3, "velocity": 127}, {"time": 1716, "pitch": 48, "duration": 3, "velocity": 127}, {"time": 1719, "pitch": 46, "duration": 3, "velocity": 127}, {"time": 1722, "pitch": 48, "duration": 3, "velocity": 127}, {"time": 1725, "pitch": 36, "duration": 3, "velocity": 127}, {"time": 1728, "pitch": 41, "duration": 3, "velocity": 127}, {"time": 1731, "pitch": 48, "duration": 3, "velocity": 127}, {"time": 1734, "pitch": 53, "duration": 3, "velocity": 127}, {"time": 1737, "pitch": 52, "duration": 3, "velocity": 127}, {"time": 1740, "pitch": 50, "duration": 3, "velocity": 127}, {"time": 1743, "pitch": 48, "duration": 3, "velocity": 127}, {"time": 1746, "pitch": 50, "duration": 3, "velocity": 127}, {"time": 1749, "pitch": 43, "duration": 3, "velocity": 127}, {"time": 1752, "pitch": 55, "duration": 3, "velocity": 127}, {"time": 1755, "pitch": 53, "duration": 3, "velocity": 127}, {"time": 1758, "pitch": 52, "duration": 3, "velocity": 127}, {"time": 1761, "pitch": 50, "duration": 3, "velocity": 127}, {"time": 1764, "pitch": 52, "duration": 3, "velocity": 127}, {"time": 1767, "pitch": 48, "duration": 3, "velocity": 127}, {"time": 1770, "pitch": 57, "duration": 3, "velocity": 127}, {"time": 1773, "pitch": 55, "duration": 3, "velocity": 127}, {"time": 1776, "pitch": 53, "duration": 3, "velocity": 127}, {"time": 1779, "pitch": 52, "duration": 3, "velocity": 127}, {"time": 1782, "pitch": 53, "duration": 3, "velocity": 127}, {"time": 1785, "pitch": 50, "duration": 3, "velocity": 127}, {"time": 1788, "pitch": 55, "duration": 6, "velocity": 127}, {"time": 1794, "pitch": 43, "duration": 6, "velocity": 127}, {"time": 1800, "pitch": 48, "duration": 6, "velocity": 127}, {"time": 1806, "pitch": 53, "duration": 6, "velocity": 127}, {"time": 1812, "pitch": 50, "duration": 6, "velocity": 127}, {"time": 1818, "pitch": 55, "duration": 6, "velocity": 127}, {"time": 1824, "pitch": 60, "duration": 6, "velocity": 127}, {"time": 1830, "pitch": 48, "duration": 6, "velocity": 127}, {"time": 1836, "pitch": 55, "duration": 6, "velocity": 127}, {"time": 1842, "pitch": 47, "duration": 3, "velocity": 127}, {"time": 1845, "pitch": 48, "duration": 3, "velocity": 127}, {"time": 1848, "pitch": 50, "duration": 3, "velocity": 127}, {"time": 1851, "pitch": 47, "duration": 3, "velocity": 127}, {"time": 1854, "pitch": 52, "duration": 6, "velocity": 127}, {"time": 1860, "pitch": 52, "duration": 9, "velocity": 127}, {"time": 1869, "pitch": 50, "duration": 1, "velocity": 127}, {"time": 1870, "pitch": 52, "duration": 2, "velocity": 127}, {"time": 1872, "pitch": 54, "duration": 6, "velocity": 127}, {"time": 1878, "pitch": 50, "duration": 6, "velocity": 127}, {"time": 1884, "pitch": 55, "duration": 6, "velocity": 127}, {"time": 1890, "pitch": 48, "duration": 6, "velocity": 127}, {"time": 1896, "pitch": 50, "duration": 6, "velocity": 127}, {"time": 1902, "pitch": 38, "duration": 6, "velocity": 127}, {"time": 1908, "pitch": 43, "duration": 6, "velocity": 127}, {"time": 1914, "pitch": 55, "duration": 18, "velocity": 127}, {"time": 1932, "pitch": 53, "duration": 18, "velocity": 127}, {"time": 1950, "pitch": 52, "duration": 12, "velocity": 127}, {"time": 1962, "pitch": 50, "duration": 6, "velocity": 127}, {"time": 1968, "pitch": 55, "duration": 6, "velocity": 127}, {"time": 1974, "pitch": 43, "duration": 6, "velocity": 127}, {"time": 1980, "pitch": 48, "duration": 3, "velocity": 127}, {"time": 1983, "pitch": 47, "duration": 3, "velocity": 127}, {"time": 1986, "pitch": 48, "duration": 3, "velocity": 127}, {"time": 1989, "pitch": 50, "duration": 3, "velocity": 127}, {"time": 1992, "pitch": 52, "duration": 3, "velocity": 127}, {"time": 1995, "pitch": 53, "duration": 3, "velocity": 127}, {"time": 1998, "pitch": 55, "duration": 3, "velocity": 127}, {"time": 2001, "pitch": 53, "duration": 3, "velocity": 127}, {"time": 2004, "pitch": 55, "duration": 3, "velocity": 127}, {"time": 2007, "pitch": 57, "duration": 3, "velocity": 127}, {"time": 2010, "pitch": 59, "duration": 3, "velocity": 127}, {"time": 2013, "pitch": 55, "duration": 3, "velocity": 127}, {"time": 2016, "pitch": 57, "duration": 3, "velocity": 127}, {"time": 2019, "pitch": 45, "duration": 3, "velocity": 127}, {"time": 2022, "pitch": 48, "duration": 3, "velocity": 127}, {"time": 2025, "pitch": 47, "duration": 3, "velocity": 127}, {"time": 2028, "pitch": 48, "duration": 3, "velocity": 127}, {"time": 2031, "pitch": 50, "duration": 3, "velocity": 127}, {"time": 2034, "pitch": 52, "duration": 3, "velocity": 127}, {"time": 2037, "pitch": 50, "duration": 3, "velocity": 127}, {"time": 2040, "pitch": 52, "duration": 3, "velocity": 127}, {"time": 2043, "pitch": 53, "duration": 3, "velocity": 127}, {"time": 2046, "pitch": 55, "duration": 3, "velocity": 127}, {"time": 2049, "pitch": 52, "duration": 3, "velocity": 127}, {"time": 2052, "pitch": 53, "duration": 3, "velocity": 127}, {"time": 2055, "pitch": 52, "duration": 3, "velocity": 127}, {"time": 2058, "pitch": 53, "duration": 3, "velocity": 127}, {"time": 2061, "pitch": 55, "duration": 3, "velocity": 127}, {"time": 2064, "pitch": 57, "duration": 3, "velocity": 127}, {"time": 2067, "pitch": 59, "duration": 3, "velocity": 127}, {"time": 2070, "pitch": 60, "duration": 3, "velocity": 127}, {"time": 2073, "pitch": 59, "duration": 3, "velocity": 127}, {"time": 2076, "pitch": 60, "duration": 3, "velocity": 127}, {"time": 2079, "pitch": 48, "duration": 3, "velocity": 127}, {"time": 2082, "pitch": 50, "duration": 3, "velocity": 127}, {"time": 2085, "pitch": 52, "duration": 3, "velocity": 127}, {"time": 2088, "pitch": 53, "duration": 6, "velocity": 127}, {"time": 2094, "pitch": 41, "duration": 6, "velocity": 127}, {"time": 2100, "pitch": 45, "duration": 6, "velocity": 127}, {"time": 2106, "pitch": 43, "duration": 6, "velocity": 127}, {"time": 2112, "pitch": 55, "duration": 12, "velocity": 127}, {"time": 2124, "pitch": 57, "duration": 18, "velocity": 127}, {"time": 2142, "pitch": 59, "duration": 18, "velocity": 127}, {"time": 2160, "pitch": 60, "duration": 6, "velocity": 127}, {"time": 2166, "pitch": 64, "duration": 3, "velocity": 127}, {"time": 2169, "pitch": 62, "duration": 3, "velocity": 127}, {"time": 2172, "pitch": 60, "duration": 3, "velocity": 127}, {"time": 2175, "pitch": 59, "duration": 3, "velocity": 127}, {"time": 2178, "pitch": 60, "duration": 6, "velocity": 127}, {"time": 2184, "pitch": 65, "duration": 3, "velocity": 127}, {"time": 2187, "pitch": 64, "duration": 3, "velocity": 127}, {"time": 2190, "pitch": 62, "duration": 3, "velocity": 127}, {"time": 2193, "pitch": 60, "duration": 3, "velocity": 127}, {"time": 2196, "pitch": 62, "duration": 3, "velocity": 127}, {"time": 2199, "pitch": 55, "duration": 3, "velocity": 127}, {"time": 2202, "pitch": 67, "duration": 3, "velocity": 127}, {"time": 2205, "pitch": 65, "duration": 3, "velocity": 127}, {"time": 2208, "pitch": 64, "duration": 3, "velocity": 127}, {"time": 2211, "pitch": 62, "duration": 3, "velocity": 127}, {"time": 2214, "pitch": 64, "duration": 6, "velocity": 127}, {"time": 2220, "pitch": 60, "duration": 6, "velocity": 127}, {"time": 2226, "pitch": 52, "duration": 6, "velocity": 127}, {"time": 2232, "pitch": 53, "duration": 6, "velocity": 127}, {"time": 2238, "pitch": 55, "duration": 6, "velocity": 127}, {"time": 2244, "pitch": 57, "duration": 6, "velocity": 127}, {"time": 2250, "pitch": 55, "duration": 6, "velocity": 127}, {"time": 2256, "pitch": 53, "duration": 6, "velocity": 127}, {"time": 2262, "pitch": 52, "duration": 6, "velocity": 127}, {"time": 2268, "pitch": 53, "duration": 6, "velocity": 127}, {"time": 2274, "pitch": 55, "duration": 6, "velocity": 127}, {"time": 2280, "pitch": 43, "duration": 6, "velocity": 127}, {"time": 2286, "pitch": 45, "duration": 6, "velocity": 127}, {"time": 2292, "pitch": 40, "duration": 6, "velocity": 127}, {"time": 2298, "pitch": 48, "duration": 6, "velocity": 127}, {"time": 2304, "pitch": 53, "duration": 6, "velocity": 127}, {"time": 2310, "pitch": 50, "duration": 6, "velocity": 127}, {"time": 2316, "pitch": 53, "duration": 6, "velocity": 127}, {"time": 2322, "pitch": 43, "duration": 12, "velocity": 127}, {"time": 2334, "pitch": 48, "duration": 6, "velocity": 127}, {"time": 2340, "pitch": 53, "duration": 6, "velocity": 127}, {"time": 2346, "pitch": 55, "duration": 6, "velocity": 127}, {"time": 2352, "pitch": 43, "duration": 6, "velocity": 127}, {"time": 2358, "pitch": 48, "duration": 18, "velocity": 127}]}]}