{"metadata": {"schema_version": "0.2"}, "resolution": 24, "tracks": [{"program": 6, "is_drum": false, "name": "", "notes": [{"time": 0, "pitch": 55, "duration": 6, "velocity": 127}, {"time": 6, "pitch": 54, "duration": 6, "velocity": 127}, {"time": 12, "pitch": 55, "duration": 6, "velocity": 127}, {"time": 18, "pitch": 57, "duration": 6, "velocity": 127}, {"time": 24, "pitch": 58, "duration": 6, "velocity": 127}, {"time": 30, "pitch": 60, "duration": 6, "velocity": 127}, {"time": 36, "pitch": 62, "duration": 6, "velocity": 127}, {"time": 42, "pitch": 63, "duration": 6, "velocity": 127}, {"time": 48, "pitch": 62, "duration": 6, "velocity": 127}, {"time": 54, "pitch": 60, "duration": 6, "velocity": 127}, {"time": 60, "pitch": 58, "duration": 6, "velocity": 127}, {"time": 66, "pitch": 55, "duration": 6, "velocity": 127}, {"time": 72, "pitch": 60, "duration": 6, "velocity": 127}, {"time": 78, "pitch": 57, "duration": 6, "velocity": 127}, {"time": 84, "pitch": 62, "duration": 12, "velocity": 127}, {"time": 96, "pitch": 50, "duration": 12, "velocity": 127}, {"time": 108, "pitch": 55, "duration": 6, "velocity": 127}, {"time": 114, "pitch": 50, "duration": 6, "velocity": 127}, {"time": 120, "pitch": 55, "duration": 6, "velocity": 127}, {"time": 126, "pitch": 54, "duration": 6, "velocity": 127}, {"time": 132, "pitch": 55, "duration": 6, "velocity": 127}, {"time": 138, "pitch": 57, "duration": 6, "velocity": 127}, {"time": 144, "pitch": 58, "duration": 3, "velocity": 127}, {"time": 147, "pitch": 60, "duration": 3, "velocity": 127}, {"time": 150, "pitch": 62, "duration": 3, "velocity": 127}, {"time": 153, "pitch": 60, "duration": 3, "velocity": 127}, {"time": 156, "pitch": 58, "duration": 3, "velocity": 127}, {"time": 159, "pitch": 60, "duration": 3, "velocity": 127}, {"time": 162, "pitch": 57, "duration": 3, "velocity": 127}, {"time": 165, "pitch": 58, "duration": 3, "velocity": 127}, {"time": 168, "pitch": 55, "duration": 3, "velocity": 127}, {"time": 171, "pitch": 57, "duration": 3, "velocity": 127}, {"time": 174, "pitch": 53, "duration": 3, "velocity": 127}, {"time": 177, "pitch": 55, "duration": 3, "velocity": 127}, {"time": 180, "pitch": 51, "duration": 12, "velocity": 127}, {"time": 192, "pitch": 63, "duration": 12, "velocity": 127}, {"time": 216, "pitch": 57, "duration": 3, "velocity": 127}, {"time": 219, "pitch": 58, "duration": 3, "velocity": 127}, {"time": 222, "pitch": 60, "duration": 3, "velocity": 127}, {"time": 225, "pitch": 58, "duration": 3, "velocity": 127}, {"time": 228, "pitch": 57, "duration": 3, "velocity": 127}, {"time": 231, "pitch": 58, "duration": 3, "velocity": 127}, {"time": 234, "pitch": 55, "duration": 3, "velocity": 127}, {"time": 237, "pitch": 57, "duration": 3, "velocity": 127}, {"time": 240, "pitch": 53, "duration": 3, "velocity": 127}, {"time": 243, "pitch": 55, "duration": 3, "velocity": 127}, {"time": 246, "pitch": 51, "duration": 3, "velocity": 127}, {"time": 249, "pitch": 53, "duration": 3, "velocity": 127}, {"time": 252, "pitch": 50, "duration": 12, "velocity": 127}, {"time": 264, "pitch": 62, "duration": 12, "velocity": 127}, {"time": 288, "pitch": 55, "duration": 3, "velocity": 127}, {"time": 291, "pitch": 57, "duration": 3, "velocity": 127}, {"time": 294, "pitch": 58, "duration": 3, "velocity": 127}, {"time": 297, "pitch": 57, "duration": 3, "velocity": 127}, {"time": 300, "pitch": 55, "duration": 3, "velocity": 127}, {"time": 303, "pitch": 57, "duration": 3, "velocity": 127}, {"time": 306, "pitch": 53, "duration": 3, "velocity": 127}, {"time": 309, "pitch": 55, "duration": 3, "velocity": 127}, {"time": 312, "pitch": 51, "duration": 3, "velocity": 127}, {"time": 315, "pitch": 53, "duration": 3, "velocity": 127}, {"time": 318, "pitch": 50, "duration": 3, "velocity": 127}, {"time": 321, "pitch": 51, "duration": 3, "velocity": 127}, {"time": 324, "pitch": 48, "duration": 12, "velocity": 127}, {"time": 336, "pitch": 60, "duration": 12, "velocity": 127}, {"time": 360, "pitch": 53, "duration": 3, "velocity": 127}, {"time": 363, "pitch": 55, "duration": 3, "velocity": 127}, {"time": 366, "pitch": 57, "duration": 3, "velocity": 127}, {"time": 369, "pitch": 55, "duration": 3, "velocity": 127}, {"time": 372, "pitch": 53, "duration": 3, "velocity": 127}, {"time": 375, "pitch": 55, "duration": 3, "velocity": 127}, {"time": 378, "pitch": 51, "duration": 3, "velocity": 127}, {"time": 381, "pitch": 53, "duration": 3, "velocity": 127}, {"time": 384, "pitch": 50, "duration": 3, "velocity": 127}, {"time": 387, "pitch": 51, "duration": 3, "velocity": 127}, {"time": 390, "pitch": 48, "duration": 3, "velocity": 127}, {"time": 393, "pitch": 50, "duration": 3, "velocity": 127}, {"time": 396, "pitch": 46, "duration": 12, "velocity": 127}, {"time": 408, "pitch": 58, "duration": 12, "velocity": 127}, {"time": 432, "pitch": 51, "duration": 3, "velocity": 127}, {"time": 435, "pitch": 53, "duration": 3, "velocity": 127}, {"time": 438, "pitch": 55, "duration": 3, "velocity": 127}, {"time": 441, "pitch": 53, "duration": 3, "velocity": 127}, {"time": 444, "pitch": 51, "duration": 3, "velocity": 127}, {"time": 447, "pitch": 53, "duration": 3, "velocity": 127}, {"time": 450, "pitch": 50, "duration": 3, "velocity": 127}, {"time": 453, "pitch": 51, "duration": 3, "velocity": 127}, {"time": 456, "pitch": 48, "duration": 3, "velocity": 127}, {"time": 459, "pitch": 50, "duration": 3, "velocity": 127}, {"time": 462, "pitch": 46, "duration": 3, "velocity": 127}, {"time": 465, "pitch": 48, "duration": 3, "velocity": 127}, {"time": 468, "pitch": 45, "duration": 12, "velocity": 127}, {"time": 480, "pitch": 57, "duration": 12, "velocity": 127}, {"time": 504, "pitch": 50, "duration": 12, "velocity": 127}, {"time": 516, "pitch": 46, "duration": 12, "velocity": 127}, {"time": 528, "pitch": 43, "duration": 12, "velocity": 127}, {"time": 540, "pitch": 50, "duration": 12, "velocity": 127}, {"time": 552, "pitch": 54, "duration": 12, "velocity": 127}, {"time": 564, "pitch": 50, "duration": 12, "velocity": 127}, {"time": 576, "pitch": 55, "duration": 12, "velocity": 127}, {"time": 588, "pitch": 58, "duration": 12, "velocity": 127}, {"time": 600, "pitch": 60, "duration": 12, "velocity": 127}, {"time": 612, "pitch": 53, "duration": 12, "velocity": 127}, {"time": 624, "pitch": 57, "duration": 12, "velocity": 127}, {"time": 636, "pitch": 58, "duration": 12, "velocity": 127}, {"time": 648, "pitch": 52, "duration": 12, "velocity": 127}, {"time": 660, "pitch": 55, "duration": 12, "velocity": 127}, {"time": 672, "pitch": 57, "duration": 12, "velocity": 127}, {"time": 684, "pitch": 50, "duration": 12, "velocity": 127}, {"time": 696, "pitch": 52, "duration": 12, "velocity": 127}, {"time": 708, "pitch": 53, "duration": 12, "velocity": 127}, {"time": 720, "pitch": 55, "duration": 12, "velocity": 127}, {"time": 732, "pitch": 58, "duration": 12, "velocity": 127}, {"time": 744, "pitch": 55, "duration": 12, "velocity": 127}, {"time": 756, "pitch": 45, "duration": 6, "velocity": 127}, {"time": 762, "pitch": 57, "duration": 3, "velocity": 127}, {"time": 765, "pitch": 55, "duration": 3, "velocity": 127}, {"time": 768, "pitch": 53, "duration": 3, "velocity": 127}, {"time": 771, "pitch": 55, "duration": 3, "velocity": 127}, {"time": 774, "pitch": 52, "duration": 3, "velocity": 127}, {"time": 777, "pitch": 53, "duration": 3, "velocity": 127}, {"time": 780, "pitch": 50, "duration": 3, "velocity": 127}, {"time": 783, "pitch": 52, "duration": 3, "velocity": 127}, {"time": 786, "pitch": 48, "duration": 3, "velocity": 127}, {"time": 789, "pitch": 50, "duration": 3, "velocity": 127}, {"time": 792, "pitch": 46, "duration": 6, "velocity": 127}, {"time": 798, "pitch": 58, "duration": 3, "velocity": 127}, {"time": 801, "pitch": 57, "duration": 3, "velocity": 127}, {"time": 804, "pitch": 55, "duration": 3, "velocity": 127}, {"time": 807, "pitch": 57, "duration": 3, "velocity": 127}, {"time": 810, "pitch": 53, "duration": 3, "velocity": 127}, {"time": 813, "pitch": 55, "duration": 3, "velocity": 127}, {"time": 816, "pitch": 52, "duration": 3, "velocity": 127}, {"time": 819, "pitch": 53, "duration": 3, "velocity": 127}, {"time": 822, "pitch": 50, "duration": 3, "velocity": 127}, {"time": 825, "pitch": 52, "duration": 3, "velocity": 127}, {"time": 828, "pitch": 49, "duration": 12, "velocity": 127}, {"time": 840, "pitch": 61, "duration": 12, "velocity": 127}, {"time": 852, "pitch": 62, "duration": 12, "velocity": 127}, {"time": 864, "pitch": 55, "duration": 12, "velocity": 127}, {"time": 876, "pitch": 57, "duration": 12, "velocity": 127}, {"time": 888, "pitch": 45, "duration": 12, "velocity": 127}, {"time": 900, "pitch": 50, "duration": 6, "velocity": 127}, {"time": 906, "pitch": 57, "duration": 3, "velocity": 127}, {"time": 909, "pitch": 55, "duration": 3, "velocity": 127}, {"time": 912, "pitch": 53, "duration": 3, "velocity": 127}, {"time": 915, "pitch": 55, "duration": 3, "velocity": 127}, {"time": 918, "pitch": 52, "duration": 3, "velocity": 127}, {"time": 921, "pitch": 53, "duration": 3, "velocity": 127}, {"time": 924, "pitch": 50, "duration": 3, "velocity": 127}, {"time": 927, "pitch": 52, "duration": 3, "velocity": 127}, {"time": 930, "pitch": 48, "duration": 3, "velocity": 127}, {"time": 933, "pitch": 50, "duration": 3, "velocity": 127}, {"time": 936, "pitch": 46, "duration": 6, "velocity": 127}, {"time": 942, "pitch": 58, "duration": 3, "velocity": 127}, {"time": 945, "pitch": 57, "duration": 3, "velocity": 127}, {"time": 948, "pitch": 55, "duration": 3, "velocity": 127}, {"time": 951, "pitch": 57, "duration": 3, "velocity": 127}, {"time": 954, "pitch": 53, "duration": 3, "velocity": 127}, {"time": 957, "pitch": 55, "duration": 3, "velocity": 127}, {"time": 960, "pitch": 52, "duration": 3, "velocity": 127}, {"time": 963, "pitch": 53, "duration": 3, "velocity": 127}, {"time": 966, "pitch": 50, "duration": 3, "velocity": 127}, {"time": 969, "pitch": 52, "duration": 3, "velocity": 127}, {"time": 972, "pitch": 49, "duration": 12, "velocity": 127}, {"time": 984, "pitch": 45, "duration": 12, "velocity": 127}, {"time": 996, "pitch": 50, "duration": 12, "velocity": 127}, {"time": 1008, "pitch": 43, "duration": 12, "velocity": 127}, {"time": 1020, "pitch": 45, "duration": 24, "velocity": 127}, {"time": 1044, "pitch": 50, "duration": 6, "velocity": 127}, {"time": 1050, "pitch": 51, "duration": 6, "velocity": 127}, {"time": 1056, "pitch": 50, "duration": 6, "velocity": 127}, {"time": 1062, "pitch": 48, "duration": 6, "velocity": 127}, {"time": 1068, "pitch": 46, "duration": 6, "velocity": 127}, {"time": 1074, "pitch": 45, "duration": 6, "velocity": 127}, {"time": 1080, "pitch": 46, "duration": 6, "velocity": 127}, {"time": 1086, "pitch": 45, "duration": 6, "velocity": 127}, {"time": 1092, "pitch": 46, "duration": 6, "velocity": 127}, {"time": 1098, "pitch": 48, "duration": 6, "velocity": 127}, {"time": 1104, "pitch": 50, "duration": 6, "velocity": 127}, {"time": 1110, "pitch": 51, "duration": 6, "velocity": 127}, {"time": 1116, "pitch": 53, "duration": 6, "velocity": 127}, {"time": 1122, "pitch": 55, "duration": 6, "velocity": 127}, {"time": 1128, "pitch": 53, "duration": 6, "velocity": 127}, {"time": 1134, "pitch": 51, "duration": 6, "velocity": 127}, {"time": 1140, "pitch": 50, "duration": 6, "velocity": 127}, {"time": 1146, "pitch": 46, "duration": 6, "velocity": 127}, {"time": 1152, "pitch": 51, "duration": 6, "velocity": 127}, {"time": 1158, "pitch": 48, "duration": 6, "velocity": 127}, {"time": 1164, "pitch": 53, "duration": 6, "velocity": 127}, {"time": 1170, "pitch": 51, "duration": 6, "velocity": 127}, {"time": 1176, "pitch": 53, "duration": 6, "velocity": 127}, {"time": 1182, "pitch": 41, "duration": 6, "velocity": 127}, {"time": 1188, "pitch": 46, "duration": 6, "velocity": 127}, {"time": 1194, "pitch": 57, "duration": 6, "velocity": 127}, {"time": 1200, "pitch": 58, "duration": 6, "velocity": 127}, {"time": 1206, "pitch": 60, "duration": 6, "velocity": 127}, {"time": 1212, "pitch": 62, "duration": 6, "velocity": 127}, {"time": 1218, "pitch": 60, "duration": 6, "velocity": 127}, {"time": 1224, "pitch": 58, "duration": 6, "velocity": 127}, {"time": 1230, "pitch": 55, "duration": 6, "velocity": 127}, {"time": 1236, "pitch": 60, "duration": 6, "velocity": 127}, {"time": 1242, "pitch": 58, "duration": 6, "velocity": 127}, {"time": 1248, "pitch": 60, "duration": 6, "velocity": 127}, {"time": 1254, "pitch": 48, "duration": 6, "velocity": 127}, {"time": 1260, "pitch": 53, "duration": 6, "velocity": 127}, {"time": 1266, "pitch": 52, "duration": 6, "velocity": 127}, {"time": 1272, "pitch": 53, "duration": 6, "velocity": 127}, {"time": 1278, "pitch": 55, "duration": 6, "velocity": 127}, {"time": 1284, "pitch": 57, "duration": 6, "velocity": 127}, {"time": 1290, "pitch": 53, "duration": 6, "velocity": 127}, {"time": 1296, "pitch": 62, "duration": 3, "velocity": 127}, {"time": 1299, "pitch": 63, "duration": 3, "velocity": 127}, {"time": 1302, "pitch": 65, "duration": 3, "velocity": 127}, {"time": 1305, "pitch": 63, "duration": 3, "velocity": 127}, {"time": 1308, "pitch": 62, "duration": 3, "velocity": 127}, {"time": 1311, "pitch": 63, "duration": 3, "velocity": 127}, {"time": 1314, "pitch": 60, "duration": 3, "velocity": 127}, {"time": 1317, "pitch": 62, "duration": 3, "velocity": 127}, {"time": 1320, "pitch": 59, "duration": 3, "velocity": 127}, {"time": 1323, "pitch": 60, "duration": 3, "velocity": 127}, {"time": 1326, "pitch": 57, "duration": 3, "velocity": 127}, {"time": 1329, "pitch": 59, "duration": 3, "velocity": 127}, {"time": 1332, "pitch": 55, "duration": 6, "velocity": 127}, {"time": 1338, "pitch": 57, "duration": 6, "velocity": 127}, {"time": 1344, "pitch": 59, "duration": 6, "velocity": 127}, {"time": 1350, "pitch": 55, "duration": 6, "velocity": 127}, {"time": 1356, "pitch": 60, "duration": 12, "velocity": 127}, {"time": 1368, "pitch": 53, "duration": 12, "velocity": 127}, {"time": 1380, "pitch": 55, "duration": 12, "velocity": 127}, {"time": 1392, "pitch": 43, "duration": 12, "velocity": 127}, {"time": 1404, "pitch": 60, "duration": 3, "velocity": 127}, {"time": 1407, "pitch": 62, "duration": 3, "velocity": 127}, {"time": 1410, "pitch": 63, "duration": 3, "velocity": 127}, {"time": 1413, "pitch": 62, "duration": 3, "velocity": 127}, {"time": 1416, "pitch": 60, "duration": 3, "velocity": 127}, {"time": 1419, "pitch": 62, "duration": 3, "velocity": 127}, {"time": 1422, "pitch": 58, "duration": 3, "velocity": 127}, {"time": 1425, "pitch": 60, "duration": 3, "velocity": 127}, {"time": 1428, "pitch": 57, "duration": 3, "velocity": 127}, {"time": 1431, "pitch": 58, "duration": 3, "velocity": 127}, {"time": 1434, "pitch": 55, "duration": 3, "velocity": 127}, {"time": 1437, "pitch": 57, "duration": 3, "velocity": 127}, {"time": 1440, "pitch": 53, "duration": 6, "velocity": 127}, {"time": 1446, "pitch": 55, "duration": 6, "velocity": 127}, {"time": 1452, "pitch": 57, "duration": 6, "velocity": 127}, {"time": 1458, "pitch": 53, "duration": 6, "velocity": 127}, {"time": 1464, "pitch": 55, "duration": 12, "velocity": 127}, {"time": 1476, "pitch": 50, "duration": 6, "velocity": 127}, {"time": 1482, "pitch": 51, "duration": 6, "velocity": 127}, {"time": 1488, "pitch": 53, "duration": 12, "velocity": 127}, {"time": 1500, "pitch": 41, "duration": 12, "velocity": 127}, {"time": 1512, "pitch": 46, "duration": 12, "velocity": 127}, {"time": 1524, "pitch": 43, "duration": 12, "velocity": 127}, {"time": 1536, "pitch": 46, "duration": 12, "velocity": 127}, {"time": 1548, "pitch": 48, "duration": 12, "velocity": 127}, {"time": 1560, "pitch": 45, "duration": 12, "velocity": 127}, {"time": 1572, "pitch": 48, "duration": 12, "velocity": 127}, {"time": 1584, "pitch": 50, "duration": 12, "velocity": 127}, {"time": 1596, "pitch": 46, "duration": 12, "velocity": 127}, {"time": 1608, "pitch": 43, "duration": 12, "velocity": 127}, {"time": 1620, "pitch": 51, "duration": 12, "velocity": 127}, {"time": 1632, "pitch": 55, "duration": 12, "velocity": 127}, {"time": 1644, "pitch": 51, "duration": 12, "velocity": 127}, {"time": 1656, "pitch": 48, "duration": 12, "velocity": 127}, {"time": 1668, "pitch": 45, "duration": 12, "velocity": 127}, {"time": 1680, "pitch": 48, "duration": 12, "velocity": 127}, {"time": 1692, "pitch": 50, "duration": 12, "velocity": 127}, {"time": 1704, "pitch": 54, "duration": 12, "velocity": 127}, {"time": 1716, "pitch": 50, "duration": 12, "velocity": 127}, {"time": 1728, "pitch": 55, "duration": 12, "velocity": 127}, {"time": 1740, "pitch": 53, "duration": 12, "velocity": 127}, {"time": 1752, "pitch": 51, "duration": 12, "velocity": 127}, {"time": 1764, "pitch": 50, "duration": 12, "velocity": 127}, {"time": 1776, "pitch": 52, "duration": 12, "velocity": 127}, {"time": 1788, "pitch": 54, "duration": 12, "velocity": 127}, {"time": 1800, "pitch": 55, "duration": 12, "velocity": 127}, {"time": 1812, "pitch": 53, "duration": 12, "velocity": 127}, {"time": 1824, "pitch": 51, "duration": 12, "velocity": 127}, {"time": 1836, "pitch": 50, "duration": 6, "velocity": 127}, {"time": 1842, "pitch": 62, "duration": 3, "velocity": 127}, {"time": 1845, "pitch": 60, "duration": 3, "velocity": 127}, {"time": 1848, "pitch": 58, "duration": 3, "velocity": 127}, {"time": 1851, "pitch": 60, "duration": 3, "velocity": 127}, {"time": 1854, "pitch": 57, "duration": 3, "velocity": 127}, {"time": 1857, "pitch": 58, "duration": 3, "velocity": 127}, {"time": 1860, "pitch": 55, "duration": 3, "velocity": 127}, {"time": 1863, "pitch": 57, "duration": 3, "velocity": 127}, {"time": 1866, "pitch": 53, "duration": 3, "velocity": 127}, {"time": 1869, "pitch": 55, "duration": 3, "velocity": 127}, {"time": 1872, "pitch": 51, "duration": 6, "velocity": 127}, {"time": 1878, "pitch": 63, "duration": 3, "velocity": 127}, {"time": 1881, "pitch": 62, "duration": 3, "velocity": 127}, {"time": 1884, "pitch": 60, "duration": 3, "velocity": 127}, {"time": 1887, "pitch": 62, "duration": 3, "velocity": 127}, {"time": 1890, "pitch": 58, "duration": 3, "velocity": 127}, {"time": 1893, "pitch": 60, "duration": 3, "velocity": 127}, {"time": 1896, "pitch": 57, "duration": 3, "velocity": 127}, {"time": 1899, "pitch": 58, "duration": 3, "velocity": 127}, {"time": 1902, "pitch": 55, "duration": 3, "velocity": 127}, {"time": 1905, "pitch": 57, "duration": 3, "velocity": 127}, {"time": 1908, "pitch": 54, "duration": 12, "velocity": 127}, {"time": 1920, "pitch": 50, "duration": 12, "velocity": 127}, {"time": 1932, "pitch": 55, "duration": 12, "velocity": 127}, {"time": 1944, "pitch": 48, "duration": 12, "velocity": 127}, {"time": 1956, "pitch": 50, "duration": 12, "velocity": 127}, {"time": 1968, "pitch": 38, "duration": 12, "velocity": 127}, {"time": 1980, "pitch": 43, "duration": 6, "velocity": 127}, {"time": 1986, "pitch": 50, "duration": 3, "velocity": 127}, {"time": 1989, "pitch": 48, "duration": 3, "velocity": 127}, {"time": 1992, "pitch": 46, "duration": 3, "velocity": 127}, {"time": 1995, "pitch": 48, "duration": 3, "velocity": 127}, {"time": 1998, "pitch": 45, "duration": 3, "velocity": 127}, {"time": 2001, "pitch": 46, "duration": 3, "velocity": 127}, {"time": 2004, "pitch": 43, "duration": 3, "velocity": 127}, {"time": 2007, "pitch": 45, "duration": 3, "velocity": 127}, {"time": 2010, "pitch": 41, "duration": 3, "velocity": 127}, {"time": 2013, "pitch": 43, "duration": 3, "velocity": 127}, {"time": 2016, "pitch": 39, "duration": 6, "velocity": 127}, {"time": 2022, "pitch": 51, "duration": 3, "velocity": 127}, {"time": 2025, "pitch": 50, "duration": 3, "velocity": 127}, {"time": 2028, "pitch": 48, "duration": 3, "velocity": 127}, {"time": 2031, "pitch": 50, "duration": 3, "velocity": 127}, {"time": 2034, "pitch": 46, "duration": 3, "velocity": 127}, {"time": 2037, "pitch": 48, "duration": 3, "velocity": 127}, {"time": 2040, "pitch": 45, "duration": 3, "velocity": 127}, {"time": 2043, "pitch": 46, "duration": 3, "velocity": 127}, {"time": 2046, "pitch": 43, "duration": 3, "velocity": 127}, {"time": 2049, "pitch": 45, "duration": 3, "velocity": 127}, {"time": 2052, "pitch": 42, "duration": 12, "velocity": 127}, {"time": 2064, "pitch": 50, "duration": 12, "velocity": 127}, {"time": 2076, "pitch": 51, "duration": 12, "velocity": 127}, {"time": 2088, "pitch": 48, "duration": 12, "velocity": 127}, {"time": 2100, "pitch": 50, "duration": 12, "velocity": 127}, {"time": 2112, "pitch": 38, "duration": 12, "velocity": 127}, {"time": 2124, "pitch": 43, "duration": 36, "velocity": 127}]}]}