{"metadata": {"schema_version": "0.2"}, "resolution": 24, "tracks": [{"program": 6, "is_drum": false, "name": "", "notes": [{"time": 0, "pitch": 43, "duration": 6, "velocity": 127}, {"time": 6, "pitch": 45, "duration": 6, "velocity": 127}, {"time": 12, "pitch": 46, "duration": 6, "velocity": 127}, {"time": 18, "pitch": 48, "duration": 6, "velocity": 127}, {"time": 24, "pitch": 50, "duration": 6, "velocity": 127}, {"time": 30, "pitch": 45, "duration": 6, "velocity": 127}, {"time": 36, "pitch": 50, "duration": 6, "velocity": 127}, {"time": 42, "pitch": 48, "duration": 6, "velocity": 127}, {"time": 48, "pitch": 46, "duration": 6, "velocity": 127}, {"time": 54, "pitch": 55, "duration": 6, "velocity": 127}, {"time": 60, "pitch": 54, "duration": 6, "velocity": 127}, {"time": 66, "pitch": 50, "duration": 6, "velocity": 127}, {"time": 72, "pitch": 55, "duration": 6, "velocity": 127}, {"time": 78, "pitch": 50, "duration": 6, "velocity": 127}, {"time": 84, "pitch": 43, "duration": 6, "velocity": 127}, {"time": 90, "pitch": 55, "duration": 6, "velocity": 127}, {"time": 96, "pitch": 54, "duration": 6, "velocity": 127}, {"time": 102, "pitch": 52, "duration": 6, "velocity": 127}, {"time": 108, "pitch": 54, "duration": 6, "velocity": 127}, {"time": 114, "pitch": 50, "duration": 6, "velocity": 127}, {"time": 120, "pitch": 55, "duration": 6, "velocity": 127}, {"time": 126, "pitch": 43, "duration": 6, "velocity": 127}, {"time": 132, "pitch": 55, "duration": 6, "velocity": 127}, {"time": 138, "pitch": 53, "duration": 6, "velocity": 127}, {"time": 144, "pitch": 52, "duration": 6, "velocity": 127}, {"time": 150, "pitch": 50, "duration": 6, "velocity": 127}, {"time": 156, "pitch": 52, "duration": 6, "velocity": 127}, {"time": 162, "pitch": 48, "duration": 6, "velocity": 127}, {"time": 168, "pitch": 53, "duration": 6, "velocity": 127}, {"time": 174, "pitch": 41, "duration": 6, "velocity": 127}, {"time": 180, "pitch": 53, "duration": 6, "velocity": 127}, {"time": 186, "pitch": 51, "duration": 6, "velocity": 127}, {"time": 192, "pitch": 50, "duration": 6, "velocity": 127}, {"time": 198, "pitch": 48, "duration": 6, "velocity": 127}, {"time": 204, "pitch": 50, "duration": 6, "velocity": 127}, {"time": 210, "pitch": 46, "duration": 6, "velocity": 127}, {"time": 216, "pitch": 51, "duration": 6, "velocity": 127}, {"time": 222, "pitch": 46, "duration": 6, "velocity": 127}, {"time": 228, "pitch": 51, "duration": 6, "velocity": 127}, {"time": 234, "pitch": 50, "duration": 6, "velocity": 127}, {"time": 240, "pitch": 48, "duration": 6, "velocity": 127}, {"time": 246, "pitch": 46, "duration": 6, "velocity": 127}, {"time": 252, "pitch": 48, "duration": 6, "velocity": 127}, {"time": 258, "pitch": 45, "duration": 6, "velocity": 127}, {"time": 264, "pitch": 50, "duration": 6, "velocity": 127}, {"time": 270, "pitch": 57, "duration": 6, "velocity": 127}, {"time": 276, "pitch": 62, "duration": 6, "velocity": 127}, {"time": 282, "pitch": 60, "duration": 6, "velocity": 127}, {"time": 288, "pitch": 58, "duration": 6, "velocity": 127}, {"time": 294, "pitch": 57, "duration": 6, "velocity": 127}, {"time": 300, "pitch": 58, "duration": 6, "velocity": 127}, {"time": 306, "pitch": 55, "duration": 6, "velocity": 127}, {"time": 312, "pitch": 60, "duration": 6, "velocity": 127}, {"time": 318, "pitch": 48, "duration": 6, "velocity": 127}, {"time": 324, "pitch": 60, "duration": 6, "velocity": 127}, {"time": 330, "pitch": 58, "duration": 6, "velocity": 127}, {"time": 336, "pitch": 57, "duration": 6, "velocity": 127}, {"time": 342, "pitch": 55, "duration": 6, "velocity": 127}, {"time": 348, "pitch": 57, "duration": 6, "velocity": 127}, {"time": 354, "pitch": 53, "duration": 6, "velocity": 127}, {"time": 360, "pitch": 58, "duration": 6, "velocity": 127}, {"time": 366, "pitch": 46, "duration": 6, "velocity": 127}, {"time": 372, "pitch": 58, "duration": 6, "velocity": 127}, {"time": 378, "pitch": 57, "duration": 6, "velocity": 127}, {"time": 384, "pitch": 55, "duration": 6, "velocity": 127}, {"time": 390, "pitch": 53, "duration": 6, "velocity": 127}, {"time": 396, "pitch": 52, "duration": 6, "velocity": 127}, {"time": 402, "pitch": 48, "duration": 6, "velocity": 127}, {"time": 408, "pitch": 53, "duration": 6, "velocity": 127}, {"time": 414, "pitch": 48, "duration": 6, "velocity": 127}, {"time": 420, "pitch": 53, "duration": 6, "velocity": 127}, {"time": 426, "pitch": 51, "duration": 6, "velocity": 127}, {"time": 432, "pitch": 50, "duration": 6, "velocity": 127}, {"time": 438, "pitch": 48, "duration": 6, "velocity": 127}, {"time": 444, "pitch": 50, "duration": 6, "velocity": 127}, {"time": 450, "pitch": 46, "duration": 6, "velocity": 127}, {"time": 456, "pitch": 51, "duration": 6, "velocity": 127}, {"time": 462, "pitch": 53, "duration": 6, "velocity": 127}, {"time": 468, "pitch": 55, "duration": 6, "velocity": 127}, {"time": 474, "pitch": 50, "duration": 6, "velocity": 127}, {"time": 480, "pitch": 51, "duration": 6, "velocity": 127}, {"time": 486, "pitch": 48, "duration": 6, "velocity": 127}, {"time": 492, "pitch": 53, "duration": 6, "velocity": 127}, {"time": 498, "pitch": 41, "duration": 6, "velocity": 127}, {"time": 504, "pitch": 46, "duration": 6, "velocity": 127}, {"time": 510, "pitch": 45, "duration": 6, "velocity": 127}, {"time": 516, "pitch": 46, "duration": 6, "velocity": 127}, {"time": 522, "pitch": 48, "duration": 6, "velocity": 127}, {"time": 528, "pitch": 50, "duration": 6, "velocity": 127}, {"time": 534, "pitch": 48, "duration": 6, "velocity": 127}, {"time": 540, "pitch": 50, "duration": 6, "velocity": 127}, {"time": 546, "pitch": 46, "duration": 6, "velocity": 127}, {"time": 552, "pitch": 51, "duration": 6, "velocity": 127}, {"time": 558, "pitch": 53, "duration": 6, "velocity": 127}, {"time": 564, "pitch": 55, "duration": 6, "velocity": 127}, {"time": 570, "pitch": 50, "duration": 6, "velocity": 127}, {"time": 576, "pitch": 51, "duration": 6, "velocity": 127}, {"time": 582, "pitch": 48, "duration": 6, "velocity": 127}, {"time": 588, "pitch": 53, "duration": 6, "velocity": 127}, {"time": 594, "pitch": 41, "duration": 6, "velocity": 127}, {"time": 600, "pitch": 46, "duration": 24, "velocity": 127}, {"time": 624, "pitch": 46, "duration": 6, "velocity": 127}, {"time": 630, "pitch": 58, "duration": 6, "velocity": 127}, {"time": 636, "pitch": 57, "duration": 6, "velocity": 127}, {"time": 642, "pitch": 53, "duration": 6, "velocity": 127}, {"time": 648, "pitch": 46, "duration": 6, "velocity": 127}, {"time": 654, "pitch": 58, "duration": 6, "velocity": 127}, {"time": 660, "pitch": 57, "duration": 6, "velocity": 127}, {"time": 666, "pitch": 53, "duration": 6, "velocity": 127}, {"time": 672, "pitch": 46, "duration": 6, "velocity": 127}, {"time": 678, "pitch": 58, "duration": 6, "velocity": 127}, {"time": 684, "pitch": 57, "duration": 6, "velocity": 127}, {"time": 690, "pitch": 53, "duration": 6, "velocity": 127}, {"time": 696, "pitch": 58, "duration": 6, "velocity": 127}, {"time": 702, "pitch": 46, "duration": 6, "velocity": 127}, {"time": 708, "pitch": 50, "duration": 6, "velocity": 127}, {"time": 714, "pitch": 46, "duration": 6, "velocity": 127}, {"time": 720, "pitch": 48, "duration": 6, "velocity": 127}, {"time": 726, "pitch": 60, "duration": 6, "velocity": 127}, {"time": 732, "pitch": 59, "duration": 6, "velocity": 127}, {"time": 738, "pitch": 55, "duration": 6, "velocity": 127}, {"time": 744, "pitch": 48, "duration": 6, "velocity": 127}, {"time": 750, "pitch": 60, "duration": 6, "velocity": 127}, {"time": 756, "pitch": 59, "duration": 6, "velocity": 127}, {"time": 762, "pitch": 55, "duration": 6, "velocity": 127}, {"time": 768, "pitch": 48, "duration": 6, "velocity": 127}, {"time": 774, "pitch": 60, "duration": 6, "velocity": 127}, {"time": 780, "pitch": 59, "duration": 6, "velocity": 127}, {"time": 786, "pitch": 55, "duration": 6, "velocity": 127}, {"time": 792, "pitch": 60, "duration": 6, "velocity": 127}, {"time": 798, "pitch": 48, "duration": 6, "velocity": 127}, {"time": 804, "pitch": 51, "duration": 6, "velocity": 127}, {"time": 810, "pitch": 48, "duration": 6, "velocity": 127}, {"time": 816, "pitch": 56, "duration": 6, "velocity": 127}, {"time": 822, "pitch": 55, "duration": 6, "velocity": 127}, {"time": 828, "pitch": 56, "duration": 6, "velocity": 127}, {"time": 834, "pitch": 53, "duration": 6, "velocity": 127}, {"time": 840, "pitch": 59, "duration": 6, "velocity": 127}, {"time": 846, "pitch": 55, "duration": 6, "velocity": 127}, {"time": 852, "pitch": 60, "duration": 6, "velocity": 127}, {"time": 858, "pitch": 53, "duration": 6, "velocity": 127}, {"time": 864, "pitch": 55, "duration": 6, "velocity": 127}, {"time": 870, "pitch": 53, "duration": 6, "velocity": 127}, {"time": 876, "pitch": 55, "duration": 6, "velocity": 127}, {"time": 882, "pitch": 43, "duration": 6, "velocity": 127}, {"time": 888, "pitch": 48, "duration": 6, "velocity": 127}, {"time": 894, "pitch": 55, "duration": 6, "velocity": 127}, {"time": 900, "pitch": 60, "duration": 6, "velocity": 127}, {"time": 906, "pitch": 58, "duration": 6, "velocity": 127}, {"time": 912, "pitch": 57, "duration": 6, "velocity": 127}, {"time": 918, "pitch": 55, "duration": 6, "velocity": 127}, {"time": 924, "pitch": 57, "duration": 6, "velocity": 127}, {"time": 930, "pitch": 53, "duration": 6, "velocity": 127}, {"time": 936, "pitch": 58, "duration": 6, "velocity": 127}, {"time": 942, "pitch": 60, "duration": 6, "velocity": 127}, {"time": 948, "pitch": 58, "duration": 6, "velocity": 127}, {"time": 954, "pitch": 57, "duration": 6, "velocity": 127}, {"time": 960, "pitch": 55, "duration": 6, "velocity": 127}, {"time": 966, "pitch": 57, "duration": 6, "velocity": 127}, {"time": 972, "pitch": 58, "duration": 6, "velocity": 127}, {"time": 978, "pitch": 55, "duration": 6, "velocity": 127}, {"time": 984, "pitch": 60, "duration": 6, "velocity": 127}, {"time": 990, "pitch": 62, "duration": 6, "velocity": 127}, {"time": 996, "pitch": 60, "duration": 6, "velocity": 127}, {"time": 1002, "pitch": 58, "duration": 6, "velocity": 127}, {"time": 1008, "pitch": 57, "duration": 6, "velocity": 127}, {"time": 1014, "pitch": 58, "duration": 6, "velocity": 127}, {"time": 1020, "pitch": 60, "duration": 6, "velocity": 127}, {"time": 1026, "pitch": 57, "duration": 6, "velocity": 127}, {"time": 1032, "pitch": 62, "duration": 6, "velocity": 127}, {"time": 1038, "pitch": 57, "duration": 6, "velocity": 127}, {"time": 1044, "pitch": 50, "duration": 6, "velocity": 127}, {"time": 1050, "pitch": 52, "duration": 6, "velocity": 127}, {"time": 1056, "pitch": 54, "duration": 6, "velocity": 127}, {"time": 1062, "pitch": 52, "duration": 6, "velocity": 127}, {"time": 1068, "pitch": 54, "duration": 6, "velocity": 127}, {"time": 1074, "pitch": 50, "duration": 6, "velocity": 127}, {"time": 1080, "pitch": 55, "duration": 6, "velocity": 127}, {"time": 1086, "pitch": 54, "duration": 6, "velocity": 127}, {"time": 1092, "pitch": 55, "duration": 6, "velocity": 127}, {"time": 1098, "pitch": 57, "duration": 6, "velocity": 127}, {"time": 1104, "pitch": 58, "duration": 6, "velocity": 127}, {"time": 1110, "pitch": 55, "duration": 6, "velocity": 127}, {"time": 1116, "pitch": 57, "duration": 6, "velocity": 127}, {"time": 1122, "pitch": 58, "duration": 6, "velocity": 127}, {"time": 1128, "pitch": 60, "duration": 6, "velocity": 127}, {"time": 1134, "pitch": 48, "duration": 6, "velocity": 127}, {"time": 1140, "pitch": 50, "duration": 6, "velocity": 127}, {"time": 1146, "pitch": 62, "duration": 6, "velocity": 127}, {"time": 1152, "pitch": 63, "duration": 6, "velocity": 127}, {"time": 1158, "pitch": 62, "duration": 6, "velocity": 127}, {"time": 1164, "pitch": 63, "duration": 6, "velocity": 127}, {"time": 1170, "pitch": 51, "duration": 6, "velocity": 127}, {"time": 1176, "pitch": 50, "duration": 6, "velocity": 127}, {"time": 1182, "pitch": 52, "duration": 6, "velocity": 127}, {"time": 1188, "pitch": 54, "duration": 6, "velocity": 127}, {"time": 1194, "pitch": 50, "duration": 6, "velocity": 127}, {"time": 1200, "pitch": 55, "duration": 6, "velocity": 127}, {"time": 1206, "pitch": 57, "duration": 6, "velocity": 127}, {"time": 1212, "pitch": 58, "duration": 6, "velocity": 127}, {"time": 1218, "pitch": 60, "duration": 6, "velocity": 127}, {"time": 1224, "pitch": 62, "duration": 6, "velocity": 127}, {"time": 1230, "pitch": 57, "duration": 6, "velocity": 127}, {"time": 1236, "pitch": 62, "duration": 6, "velocity": 127}, {"time": 1242, "pitch": 60, "duration": 6, "velocity": 127}, {"time": 1248, "pitch": 58, "duration": 6, "velocity": 127}, {"time": 1254, "pitch": 55, "duration": 6, "velocity": 127}, {"time": 1260, "pitch": 54, "duration": 6, "velocity": 127}, {"time": 1266, "pitch": 50, "duration": 6, "velocity": 127}, {"time": 1272, "pitch": 55, "duration": 6, "velocity": 127}, {"time": 1278, "pitch": 43, "duration": 6, "velocity": 127}, {"time": 1284, "pitch": 46, "duration": 6, "velocity": 127}, {"time": 1290, "pitch": 50, "duration": 6, "velocity": 127}, {"time": 1296, "pitch": 55, "duration": 6, "velocity": 127}, {"time": 1302, "pitch": 43, "duration": 6, "velocity": 127}, {"time": 1308, "pitch": 54, "duration": 6, "velocity": 127}, {"time": 1314, "pitch": 50, "duration": 6, "velocity": 127}, {"time": 1320, "pitch": 55, "duration": 6, "velocity": 127}, {"time": 1326, "pitch": 43, "duration": 6, "velocity": 127}, {"time": 1332, "pitch": 54, "duration": 6, "velocity": 127}, {"time": 1338, "pitch": 50, "duration": 6, "velocity": 127}, {"time": 1344, "pitch": 55, "duration": 6, "velocity": 127}, {"time": 1350, "pitch": 58, "duration": 6, "velocity": 127}, {"time": 1356, "pitch": 62, "duration": 6, "velocity": 127}, {"time": 1362, "pitch": 50, "duration": 6, "velocity": 127}, {"time": 1368, "pitch": 51, "duration": 6, "velocity": 127}, {"time": 1374, "pitch": 53, "duration": 6, "velocity": 127}, {"time": 1380, "pitch": 51, "duration": 6, "velocity": 127}, {"time": 1386, "pitch": 50, "duration": 6, "velocity": 127}, {"time": 1392, "pitch": 48, "duration": 6, "velocity": 127}, {"time": 1398, "pitch": 55, "duration": 6, "velocity": 127}, {"time": 1404, "pitch": 60, "duration": 6, "velocity": 127}, {"time": 1410, "pitch": 57, "duration": 6, "velocity": 127}, {"time": 1416, "pitch": 62, "duration": 6, "velocity": 127}, {"time": 1422, "pitch": 50, "duration": 6, "velocity": 127}, {"time": 1428, "pitch": 51, "duration": 6, "velocity": 127}, {"time": 1434, "pitch": 48, "duration": 6, "velocity": 127}, {"time": 1440, "pitch": 50, "duration": 6, "velocity": 127}, {"time": 1446, "pitch": 48, "duration": 6, "velocity": 127}, {"time": 1452, "pitch": 50, "duration": 6, "velocity": 127}, {"time": 1458, "pitch": 38, "duration": 6, "velocity": 127}, {"time": 1464, "pitch": 43, "duration": 6, "velocity": 127}, {"time": 1470, "pitch": 45, "duration": 6, "velocity": 127}, {"time": 1476, "pitch": 46, "duration": 6, "velocity": 127}, {"time": 1482, "pitch": 43, "duration": 6, "velocity": 127}, {"time": 1488, "pitch": 48, "duration": 6, "velocity": 127}, {"time": 1494, "pitch": 50, "duration": 6, "velocity": 127}, {"time": 1500, "pitch": 51, "duration": 6, "velocity": 127}, {"time": 1506, "pitch": 48, "duration": 6, "velocity": 127}, {"time": 1512, "pitch": 54, "duration": 6, "velocity": 127}, {"time": 1518, "pitch": 50, "duration": 6, "velocity": 127}, {"time": 1524, "pitch": 55, "duration": 6, "velocity": 127}, {"time": 1530, "pitch": 48, "duration": 6, "velocity": 127}, {"time": 1536, "pitch": 50, "duration": 6, "velocity": 127}, {"time": 1542, "pitch": 48, "duration": 6, "velocity": 127}, {"time": 1548, "pitch": 50, "duration": 6, "velocity": 127}, {"time": 1554, "pitch": 38, "duration": 6, "velocity": 127}, {"time": 1560, "pitch": 43, "duration": 24, "velocity": 127}]}]}