{"metadata": {"schema_version": "0.2"}, "resolution": 24, "tracks": [{"program": 74, "is_drum": false, "name": "", "notes": [{"time": 0, "pitch": 79, "duration": 18, "velocity": 127}, {"time": 18, "pitch": 82, "duration": 3, "velocity": 127}, {"time": 21, "pitch": 81, "duration": 3, "velocity": 127}, {"time": 24, "pitch": 81, "duration": 18, "velocity": 127}, {"time": 42, "pitch": 84, "duration": 3, "velocity": 127}, {"time": 45, "pitch": 82, "duration": 3, "velocity": 127}, {"time": 48, "pitch": 82, "duration": 6, "velocity": 127}, {"time": 54, "pitch": 81, "duration": 3, "velocity": 127}, {"time": 57, "pitch": 79, "duration": 3, "velocity": 127}, {"time": 60, "pitch": 78, "duration": 9, "velocity": 127}, {"time": 69, "pitch": 79, "duration": 3, "velocity": 127}, {"time": 72, "pitch": 81, "duration": 6, "velocity": 127}, {"time": 78, "pitch": 74, "duration": 6, "velocity": 127}, {"time": 90, "pitch": 81, "duration": 6, "velocity": 127}, {"time": 96, "pitch": 82, "duration": 6, "velocity": 127}, {"time": 102, "pitch": 81, "duration": 3, "velocity": 127}, {"time": 105, "pitch": 79, "duration": 3, "velocity": 127}, {"time": 108, "pitch": 77, "duration": 9, "velocity": 127}, {"time": 117, "pitch": 75, "duration": 3, "velocity": 127}, {"time": 120, "pitch": 74, "duration": 6, "velocity": 127}, {"time": 126, "pitch": 72, "duration": 3, "velocity": 127}, {"time": 129, "pitch": 70, "duration": 3, "velocity": 127}, {"time": 132, "pitch": 77, "duration": 12, "velocity": 127}, {"time": 150, "pitch": 75, "duration": 3, "velocity": 127}, {"time": 153, "pitch": 74, "duration": 3, "velocity": 127}, {"time": 156, "pitch": 74, "duration": 12, "velocity": 127}, {"time": 174, "pitch": 72, "duration": 3, "velocity": 127}, {"time": 177, "pitch": 70, "duration": 3, "velocity": 127}, {"time": 180, "pitch": 70, "duration": 6, "velocity": 127}, {"time": 186, "pitch": 77, "duration": 6, "velocity": 127}, {"time": 192, "pitch": 79, "duration": 3, "velocity": 127}, {"time": 195, "pitch": 81, "duration": 3, "velocity": 127}, {"time": 198, "pitch": 82, "duration": 3, "velocity": 127}, {"time": 201, "pitch": 72, "duration": 3, "velocity": 127}, {"time": 204, "pitch": 74, "duration": 6, "velocity": 127}, {"time": 210, "pitch": 72, "duration": 4, "velocity": 127}, {"time": 214, "pitch": 70, "duration": 2, "velocity": 127}, {"time": 216, "pitch": 70, "duration": 12, "velocity": 127}, {"time": 240, "pitch": 74, "duration": 18, "velocity": 127}, {"time": 258, "pitch": 76, "duration": 3, "velocity": 127}, {"time": 261, "pitch": 77, "duration": 3, "velocity": 127}, {"time": 264, "pitch": 76, "duration": 6, "velocity": 127}, {"time": 270, "pitch": 78, "duration": 3, "velocity": 127}, {"time": 273, "pitch": 79, "duration": 3, "velocity": 127}, {"time": 276, "pitch": 78, "duration": 6, "velocity": 127}, {"time": 282, "pitch": 79, "duration": 6, "velocity": 127}, {"time": 288, "pitch": 81, "duration": 6, "velocity": 127}, {"time": 294, "pitch": 74, "duration": 6, "velocity": 127}, {"time": 306, "pitch": 81, "duration": 6, "velocity": 127}, {"time": 312, "pitch": 82, "duration": 9, "velocity": 127}, {"time": 321, "pitch": 81, "duration": 3, "velocity": 127}, {"time": 324, "pitch": 79, "duration": 3, "velocity": 127}, {"time": 327, "pitch": 77, "duration": 3, "velocity": 127}, {"time": 330, "pitch": 76, "duration": 3, "velocity": 127}, {"time": 333, "pitch": 74, "duration": 3, "velocity": 127}, {"time": 336, "pitch": 73, "duration": 6, "velocity": 127}, {"time": 342, "pitch": 69, "duration": 6, "velocity": 127}, {"time": 354, "pitch": 81, "duration": 6, "velocity": 127}, {"time": 360, "pitch": 79, "duration": 2, "velocity": 127}, {"time": 362, "pitch": 81, "duration": 1, "velocity": 127}, {"time": 363, "pitch": 82, "duration": 3, "velocity": 127}, {"time": 366, "pitch": 81, "duration": 6, "velocity": 127}, {"time": 378, "pitch": 77, "duration": 6, "velocity": 127}, {"time": 384, "pitch": 79, "duration": 6, "velocity": 127}, {"time": 390, "pitch": 77, "duration": 6, "velocity": 127}, {"time": 402, "pitch": 81, "duration": 6, "velocity": 127}, {"time": 408, "pitch": 82, "duration": 6, "velocity": 127}, {"time": 414, "pitch": 74, "duration": 6, "velocity": 127}, {"time": 420, "pitch": 79, "duration": 18, "velocity": 127}, {"time": 438, "pitch": 81, "duration": 6, "velocity": 127}, {"time": 444, "pitch": 77, "duration": 6, "velocity": 127}, {"time": 450, "pitch": 76, "duration": 6, "velocity": 127}, {"time": 456, "pitch": 77, "duration": 9, "velocity": 127}, {"time": 465, "pitch": 79, "duration": 1, "velocity": 127}, {"time": 466, "pitch": 76, "duration": 2, "velocity": 127}, {"time": 468, "pitch": 76, "duration": 9, "velocity": 127}, {"time": 477, "pitch": 74, "duration": 3, "velocity": 127}, {"time": 480, "pitch": 74, "duration": 12, "velocity": 127}, {"time": 504, "pitch": 86, "duration": 18, "velocity": 127}, {"time": 522, "pitch": 77, "duration": 6, "velocity": 127}, {"time": 528, "pitch": 75, "duration": 6, "velocity": 127}, {"time": 534, "pitch": 84, "duration": 6, "velocity": 127}, {"time": 540, "pitch": 74, "duration": 6, "velocity": 127}, {"time": 546, "pitch": 83, "duration": 6, "velocity": 127}, {"time": 552, "pitch": 84, "duration": 18, "velocity": 127}, {"time": 570, "pitch": 75, "duration": 6, "velocity": 127}, {"time": 576, "pitch": 74, "duration": 6, "velocity": 127}, {"time": 582, "pitch": 82, "duration": 6, "velocity": 127}, {"time": 588, "pitch": 72, "duration": 6, "velocity": 127}, {"time": 594, "pitch": 81, "duration": 6, "velocity": 127}, {"time": 600, "pitch": 82, "duration": 6, "velocity": 127}, {"time": 606, "pitch": 74, "duration": 6, "velocity": 127}, {"time": 612, "pitch": 79, "duration": 12, "velocity": 127}, {"time": 630, "pitch": 76, "duration": 6, "velocity": 127}, {"time": 636, "pitch": 81, "duration": 12, "velocity": 127}, {"time": 654, "pitch": 81, "duration": 6, "velocity": 127}, {"time": 660, "pitch": 86, "duration": 6, "velocity": 127}, {"time": 666, "pitch": 84, "duration": 6, "velocity": 127}, {"time": 672, "pitch": 82, "duration": 6, "velocity": 127}, {"time": 678, "pitch": 81, "duration": 6, "velocity": 127}, {"time": 684, "pitch": 84, "duration": 6, "velocity": 127}, {"time": 690, "pitch": 82, "duration": 6, "velocity": 127}, {"time": 696, "pitch": 81, "duration": 6, "velocity": 127}, {"time": 702, "pitch": 79, "duration": 6, "velocity": 127}, {"time": 708, "pitch": 78, "duration": 6, "velocity": 127}, {"time": 714, "pitch": 79, "duration": 6, "velocity": 127}, {"time": 720, "pitch": 81, "duration": 6, "velocity": 127}, {"time": 726, "pitch": 74, "duration": 6, "velocity": 127}, {"time": 738, "pitch": 74, "duration": 6, "velocity": 127}, {"time": 744, "pitch": 72, "duration": 2, "velocity": 127}, {"time": 746, "pitch": 74, "duration": 1, "velocity": 127}, {"time": 747, "pitch": 75, "duration": 3, "velocity": 127}, {"time": 750, "pitch": 74, "duration": 6, "velocity": 127}, {"time": 762, "pitch": 74, "duration": 6, "velocity": 127}, {"time": 768, "pitch": 79, "duration": 6, "velocity": 127}, {"time": 774, "pitch": 78, "duration": 6, "velocity": 127}, {"time": 780, "pitch": 84, "duration": 18, "velocity": 127}, {"time": 798, "pitch": 86, "duration": 6, "velocity": 127}, {"time": 804, "pitch": 82, "duration": 6, "velocity": 127}, {"time": 810, "pitch": 81, "duration": 6, "velocity": 127}, {"time": 816, "pitch": 82, "duration": 9, "velocity": 127}, {"time": 825, "pitch": 84, "duration": 1, "velocity": 127}, {"time": 826, "pitch": 81, "duration": 2, "velocity": 127}, {"time": 828, "pitch": 81, "duration": 9, "velocity": 127}, {"time": 837, "pitch": 79, "duration": 3, "velocity": 127}, {"time": 840, "pitch": 79, "duration": 6, "velocity": 127}, {"time": 846, "pitch": 82, "duration": 4, "velocity": 127}, {"time": 850, "pitch": 79, "duration": 2, "velocity": 127}, {"time": 852, "pitch": 75, "duration": 18, "velocity": 127}, {"time": 870, "pitch": 74, "duration": 4, "velocity": 127}, {"time": 874, "pitch": 72, "duration": 2, "velocity": 127}, {"time": 876, "pitch": 74, "duration": 18, "velocity": 127}, {"time": 894, "pitch": 79, "duration": 6, "velocity": 127}, {"time": 900, "pitch": 72, "duration": 9, "velocity": 127}, {"time": 909, "pitch": 74, "duration": 3, "velocity": 127}, {"time": 912, "pitch": 74, "duration": 48, "velocity": 127}]}]}