{"metadata": {"schema_version": "0.2"}, "resolution": 24, "tracks": [{"program": 74, "is_drum": false, "name": "", "notes": [{"time": 0, "pitch": 72, "duration": 15, "velocity": 127}, {"time": 15, "pitch": 76, "duration": 3, "velocity": 127}, {"time": 18, "pitch": 79, "duration": 3, "velocity": 127}, {"time": 21, "pitch": 83, "duration": 3, "velocity": 127}, {"time": 24, "pitch": 84, "duration": 15, "velocity": 127}, {"time": 39, "pitch": 83, "duration": 3, "velocity": 127}, {"time": 42, "pitch": 84, "duration": 3, "velocity": 127}, {"time": 45, "pitch": 79, "duration": 3, "velocity": 127}, {"time": 48, "pitch": 81, "duration": 6, "velocity": 127}, {"time": 54, "pitch": 72, "duration": 3, "velocity": 127}, {"time": 57, "pitch": 74, "duration": 3, "velocity": 127}, {"time": 60, "pitch": 71, "duration": 9, "velocity": 127}, {"time": 69, "pitch": 72, "duration": 3, "velocity": 127}, {"time": 72, "pitch": 74, "duration": 12, "velocity": 127}, {"time": 96, "pitch": 72, "duration": 15, "velocity": 127}, {"time": 111, "pitch": 76, "duration": 3, "velocity": 127}, {"time": 114, "pitch": 79, "duration": 3, "velocity": 127}, {"time": 117, "pitch": 83, "duration": 3, "velocity": 127}, {"time": 120, "pitch": 84, "duration": 15, "velocity": 127}, {"time": 135, "pitch": 83, "duration": 3, "velocity": 127}, {"time": 138, "pitch": 84, "duration": 3, "velocity": 127}, {"time": 141, "pitch": 79, "duration": 3, "velocity": 127}, {"time": 144, "pitch": 81, "duration": 6, "velocity": 127}, {"time": 150, "pitch": 72, "duration": 3, "velocity": 127}, {"time": 153, "pitch": 74, "duration": 3, "velocity": 127}, {"time": 156, "pitch": 71, "duration": 9, "velocity": 127}, {"time": 165, "pitch": 72, "duration": 3, "velocity": 127}, {"time": 168, "pitch": 74, "duration": 12, "velocity": 127}, {"time": 186, "pitch": 79, "duration": 3, "velocity": 127}, {"time": 189, "pitch": 76, "duration": 3, "velocity": 127}, {"time": 192, "pitch": 77, "duration": 4, "velocity": 127}, {"time": 196, "pitch": 74, "duration": 2, "velocity": 127}, {"time": 198, "pitch": 76, "duration": 4, "velocity": 127}, {"time": 202, "pitch": 77, "duration": 2, "velocity": 127}, {"time": 204, "pitch": 67, "duration": 6, "velocity": 127}, {"time": 210, "pitch": 77, "duration": 6, "velocity": 127}, {"time": 216, "pitch": 77, "duration": 4, "velocity": 127}, {"time": 220, "pitch": 74, "duration": 2, "velocity": 127}, {"time": 222, "pitch": 76, "duration": 10, "velocity": 127}, {"time": 232, "pitch": 77, "duration": 2, "velocity": 127}, {"time": 234, "pitch": 74, "duration": 4, "velocity": 127}, {"time": 238, "pitch": 72, "duration": 2, "velocity": 127}, {"time": 240, "pitch": 71, "duration": 4, "velocity": 127}, {"time": 244, "pitch": 67, "duration": 2, "velocity": 127}, {"time": 246, "pitch": 72, "duration": 4, "velocity": 127}, {"time": 250, "pitch": 77, "duration": 2, "velocity": 127}, {"time": 252, "pitch": 76, "duration": 6, "velocity": 127}, {"time": 258, "pitch": 74, "duration": 4, "velocity": 127}, {"time": 262, "pitch": 72, "duration": 2, "velocity": 127}, {"time": 264, "pitch": 72, "duration": 12, "velocity": 127}, {"time": 282, "pitch": 84, "duration": 4, "velocity": 127}, {"time": 286, "pitch": 81, "duration": 2, "velocity": 127}, {"time": 288, "pitch": 82, "duration": 4, "velocity": 127}, {"time": 292, "pitch": 79, "duration": 2, "velocity": 127}, {"time": 294, "pitch": 81, "duration": 4, "velocity": 127}, {"time": 298, "pitch": 82, "duration": 2, "velocity": 127}, {"time": 300, "pitch": 72, "duration": 6, "velocity": 127}, {"time": 306, "pitch": 82, "duration": 6, "velocity": 127}, {"time": 312, "pitch": 82, "duration": 4, "velocity": 127}, {"time": 316, "pitch": 79, "duration": 2, "velocity": 127}, {"time": 318, "pitch": 81, "duration": 12, "velocity": 127}, {"time": 330, "pitch": 79, "duration": 4, "velocity": 127}, {"time": 334, "pitch": 77, "duration": 2, "velocity": 127}, {"time": 336, "pitch": 76, "duration": 6, "velocity": 127}, {"time": 342, "pitch": 74, "duration": 3, "velocity": 127}, {"time": 345, "pitch": 76, "duration": 1, "velocity": 127}, {"time": 346, "pitch": 77, "duration": 2, "velocity": 127}, {"time": 348, "pitch": 71, "duration": 9, "velocity": 127}, {"time": 357, "pitch": 72, "duration": 3, "velocity": 127}, {"time": 360, "pitch": 72, "duration": 6, "velocity": 127}, {"time": 366, "pitch": 76, "duration": 6, "velocity": 127}, {"time": 372, "pitch": 79, "duration": 18, "velocity": 127}, {"time": 390, "pitch": 78, "duration": 3, "velocity": 127}, {"time": 393, "pitch": 81, "duration": 3, "velocity": 127}, {"time": 396, "pitch": 84, "duration": 6, "velocity": 127}, {"time": 402, "pitch": 84, "duration": 6, "velocity": 127}, {"time": 408, "pitch": 84, "duration": 3, "velocity": 127}, {"time": 411, "pitch": 81, "duration": 3, "velocity": 127}, {"time": 414, "pitch": 83, "duration": 6, "velocity": 127}, {"time": 426, "pitch": 83, "duration": 12, "velocity": 127}, {"time": 438, "pitch": 81, "duration": 3, "velocity": 127}, {"time": 441, "pitch": 83, "duration": 1, "velocity": 127}, {"time": 442, "pitch": 84, "duration": 2, "velocity": 127}, {"time": 444, "pitch": 81, "duration": 9, "velocity": 127}, {"time": 453, "pitch": 79, "duration": 3, "velocity": 127}, {"time": 456, "pitch": 78, "duration": 4, "velocity": 127}, {"time": 460, "pitch": 76, "duration": 2, "velocity": 127}, {"time": 462, "pitch": 74, "duration": 6, "velocity": 127}, {"time": 468, "pitch": 74, "duration": 18, "velocity": 127}, {"time": 486, "pitch": 76, "duration": 3, "velocity": 127}, {"time": 489, "pitch": 74, "duration": 3, "velocity": 127}, {"time": 492, "pitch": 72, "duration": 9, "velocity": 127}, {"time": 501, "pitch": 71, "duration": 3, "velocity": 127}, {"time": 504, "pitch": 71, "duration": 6, "velocity": 127}, {"time": 510, "pitch": 69, "duration": 6, "velocity": 127}, {"time": 516, "pitch": 86, "duration": 18, "velocity": 127}, {"time": 534, "pitch": 84, "duration": 3, "velocity": 127}, {"time": 537, "pitch": 83, "duration": 3, "velocity": 127}, {"time": 540, "pitch": 81, "duration": 6, "velocity": 127}, {"time": 546, "pitch": 79, "duration": 6, "velocity": 127}, {"time": 552, "pitch": 84, "duration": 6, "velocity": 127}, {"time": 558, "pitch": 78, "duration": 6, "velocity": 127}, {"time": 564, "pitch": 79, "duration": 18, "velocity": 127}, {"time": 582, "pitch": 81, "duration": 3, "velocity": 127}, {"time": 585, "pitch": 83, "duration": 1, "velocity": 127}, {"time": 586, "pitch": 84, "duration": 2, "velocity": 127}, {"time": 588, "pitch": 78, "duration": 9, "velocity": 127}, {"time": 597, "pitch": 79, "duration": 3, "velocity": 127}, {"time": 600, "pitch": 79, "duration": 6, "velocity": 127}, {"time": 606, "pitch": 74, "duration": 6, "velocity": 127}, {"time": 612, "pitch": 83, "duration": 16, "velocity": 127}, {"time": 628, "pitch": 80, "duration": 2, "velocity": 127}, {"time": 630, "pitch": 81, "duration": 4, "velocity": 127}, {"time": 634, "pitch": 83, "duration": 2, "velocity": 127}, {"time": 636, "pitch": 74, "duration": 6, "velocity": 127}, {"time": 642, "pitch": 74, "duration": 6, "velocity": 127}, {"time": 648, "pitch": 74, "duration": 6, "velocity": 127}, {"time": 654, "pitch": 72, "duration": 6, "velocity": 127}, {"time": 660, "pitch": 84, "duration": 16, "velocity": 127}, {"time": 676, "pitch": 75, "duration": 2, "velocity": 127}, {"time": 678, "pitch": 76, "duration": 4, "velocity": 127}, {"time": 682, "pitch": 78, "duration": 2, "velocity": 127}, {"time": 684, "pitch": 71, "duration": 6, "velocity": 127}, {"time": 690, "pitch": 81, "duration": 6, "velocity": 127}, {"time": 696, "pitch": 81, "duration": 6, "velocity": 127}, {"time": 702, "pitch": 79, "duration": 6, "velocity": 127}, {"time": 708, "pitch": 82, "duration": 16, "velocity": 127}, {"time": 724, "pitch": 73, "duration": 2, "velocity": 127}, {"time": 726, "pitch": 74, "duration": 4, "velocity": 127}, {"time": 730, "pitch": 76, "duration": 2, "velocity": 127}, {"time": 732, "pitch": 69, "duration": 6, "velocity": 127}, {"time": 738, "pitch": 79, "duration": 6, "velocity": 127}, {"time": 744, "pitch": 79, "duration": 6, "velocity": 127}, {"time": 750, "pitch": 77, "duration": 6, "velocity": 127}, {"time": 756, "pitch": 80, "duration": 18, "velocity": 127}, {"time": 774, "pitch": 79, "duration": 6, "velocity": 127}, {"time": 780, "pitch": 79, "duration": 6, "velocity": 127}, {"time": 786, "pitch": 77, "duration": 6, "velocity": 127}, {"time": 792, "pitch": 76, "duration": 6, "velocity": 127}, {"time": 798, "pitch": 74, "duration": 3, "velocity": 127}, {"time": 801, "pitch": 72, "duration": 3, "velocity": 127}, {"time": 804, "pitch": 77, "duration": 12, "velocity": 127}, {"time": 816, "pitch": 82, "duration": 4, "velocity": 127}, {"time": 820, "pitch": 76, "duration": 2, "velocity": 127}, {"time": 822, "pitch": 77, "duration": 4, "velocity": 127}, {"time": 826, "pitch": 74, "duration": 2, "velocity": 127}, {"time": 828, "pitch": 76, "duration": 9, "velocity": 127}, {"time": 837, "pitch": 77, "duration": 3, "velocity": 127}, {"time": 840, "pitch": 77, "duration": 12, "velocity": 127}, {"time": 852, "pitch": 77, "duration": 18, "velocity": 127}, {"time": 870, "pitch": 76, "duration": 3, "velocity": 127}, {"time": 873, "pitch": 74, "duration": 3, "velocity": 127}, {"time": 876, "pitch": 76, "duration": 6, "velocity": 127}, {"time": 882, "pitch": 79, "duration": 3, "velocity": 127}, {"time": 885, "pitch": 78, "duration": 3, "velocity": 127}, {"time": 888, "pitch": 79, "duration": 6, "velocity": 127}, {"time": 894, "pitch": 67, "duration": 6, "velocity": 127}, {"time": 900, "pitch": 74, "duration": 15, "velocity": 127}, {"time": 915, "pitch": 67, "duration": 3, "velocity": 127}, {"time": 918, "pitch": 72, "duration": 3, "velocity": 127}, {"time": 921, "pitch": 76, "duration": 3, "velocity": 127}, {"time": 924, "pitch": 77, "duration": 6, "velocity": 127}, {"time": 930, "pitch": 76, "duration": 4, "velocity": 127}, {"time": 934, "pitch": 74, "duration": 2, "velocity": 127}, {"time": 936, "pitch": 76, "duration": 6, "velocity": 127}, {"time": 942, "pitch": 72, "duration": 6, "velocity": 127}, {"time": 948, "pitch": 84, "duration": 16, "velocity": 127}, {"time": 964, "pitch": 72, "duration": 2, "velocity": 127}, {"time": 966, "pitch": 77, "duration": 4, "velocity": 127}, {"time": 970, "pitch": 81, "duration": 2, "velocity": 127}, {"time": 972, "pitch": 82, "duration": 6, "velocity": 127}, {"time": 978, "pitch": 81, "duration": 4, "velocity": 127}, {"time": 982, "pitch": 79, "duration": 2, "velocity": 127}, {"time": 984, "pitch": 81, "duration": 6, "velocity": 127}, {"time": 990, "pitch": 84, "duration": 3, "velocity": 127}, {"time": 993, "pitch": 83, "duration": 3, "velocity": 127}, {"time": 996, "pitch": 84, "duration": 6, "velocity": 127}, {"time": 1002, "pitch": 83, "duration": 3, "velocity": 127}, {"time": 1005, "pitch": 81, "duration": 3, "velocity": 127}, {"time": 1008, "pitch": 79, "duration": 6, "velocity": 127}, {"time": 1014, "pitch": 77, "duration": 2, "velocity": 127}, {"time": 1016, "pitch": 76, "duration": 1, "velocity": 127}, {"time": 1017, "pitch": 74, "duration": 1, "velocity": 127}, {"time": 1018, "pitch": 72, "duration": 2, "velocity": 127}, {"time": 1020, "pitch": 76, "duration": 6, "velocity": 127}, {"time": 1026, "pitch": 74, "duration": 4, "velocity": 127}, {"time": 1030, "pitch": 72, "duration": 2, "velocity": 127}, {"time": 1032, "pitch": 72, "duration": 4, "velocity": 127}, {"time": 1036, "pitch": 84, "duration": 2, "velocity": 127}, {"time": 1038, "pitch": 83, "duration": 4, "velocity": 127}, {"time": 1042, "pitch": 81, "duration": 2, "velocity": 127}, {"time": 1044, "pitch": 79, "duration": 12, "velocity": 127}, {"time": 1059, "pitch": 72, "duration": 3, "velocity": 127}, {"time": 1062, "pitch": 71, "duration": 4, "velocity": 127}, {"time": 1066, "pitch": 69, "duration": 2, "velocity": 127}, {"time": 1068, "pitch": 67, "duration": 12, "velocity": 127}, {"time": 1083, "pitch": 79, "duration": 3, "velocity": 127}, {"time": 1086, "pitch": 77, "duration": 4, "velocity": 127}, {"time": 1090, "pitch": 76, "duration": 2, "velocity": 127}, {"time": 1092, "pitch": 74, "duration": 6, "velocity": 127}, {"time": 1098, "pitch": 79, "duration": 6, "velocity": 127}, {"time": 1104, "pitch": 72, "duration": 6, "velocity": 127}, {"time": 1110, "pitch": 84, "duration": 3, "velocity": 127}, {"time": 1113, "pitch": 81, "duration": 3, "velocity": 127}, {"time": 1116, "pitch": 78, "duration": 9, "velocity": 127}, {"time": 1125, "pitch": 79, "duration": 3, "velocity": 127}, {"time": 1128, "pitch": 79, "duration": 24, "velocity": 127}]}]}