{"metadata": {"schema_version": "0.2"}, "resolution": 24, "tracks": [{"program": 6, "is_drum": false, "name": "", "notes": [{"time": 0, "pitch": 60, "duration": 6, "velocity": 127}, {"time": 6, "pitch": 62, "duration": 6, "velocity": 127}, {"time": 12, "pitch": 55, "duration": 6, "velocity": 127}, {"time": 18, "pitch": 64, "duration": 6, "velocity": 127}, {"time": 24, "pitch": 52, "duration": 6, "velocity": 127}, {"time": 36, "pitch": 53, "duration": 6, "velocity": 127}, {"time": 42, "pitch": 50, "duration": 6, "velocity": 127}, {"time": 48, "pitch": 55, "duration": 6, "velocity": 127}, {"time": 54, "pitch": 52, "duration": 6, "velocity": 127}, {"time": 60, "pitch": 48, "duration": 6, "velocity": 127}, {"time": 72, "pitch": 57, "duration": 6, "velocity": 127}, {"time": 78, "pitch": 55, "duration": 6, "velocity": 127}, {"time": 90, "pitch": 53, "duration": 6, "velocity": 127}, {"time": 96, "pitch": 52, "duration": 6, "velocity": 127}, {"time": 108, "pitch": 50, "duration": 6, "velocity": 127}, {"time": 114, "pitch": 52, "duration": 6, "velocity": 127}, {"time": 120, "pitch": 48, "duration": 6, "velocity": 127}, {"time": 126, "pitch": 55, "duration": 3, "velocity": 127}, {"time": 129, "pitch": 54, "duration": 3, "velocity": 127}, {"time": 132, "pitch": 55, "duration": 3, "velocity": 127}, {"time": 135, "pitch": 57, "duration": 3, "velocity": 127}, {"time": 138, "pitch": 59, "duration": 3, "velocity": 127}, {"time": 141, "pitch": 55, "duration": 3, "velocity": 127}, {"time": 144, "pitch": 60, "duration": 3, "velocity": 127}, {"time": 147, "pitch": 55, "duration": 3, "velocity": 127}, {"time": 150, "pitch": 62, "duration": 3, "velocity": 127}, {"time": 153, "pitch": 60, "duration": 3, "velocity": 127}, {"time": 156, "pitch": 62, "duration": 3, "velocity": 127}, {"time": 159, "pitch": 55, "duration": 3, "velocity": 127}, {"time": 162, "pitch": 64, "duration": 3, "velocity": 127}, {"time": 165, "pitch": 62, "duration": 3, "velocity": 127}, {"time": 168, "pitch": 60, "duration": 3, "velocity": 127}, {"time": 171, "pitch": 62, "duration": 3, "velocity": 127}, {"time": 174, "pitch": 64, "duration": 3, "velocity": 127}, {"time": 177, "pitch": 60, "duration": 3, "velocity": 127}, {"time": 180, "pitch": 65, "duration": 3, "velocity": 127}, {"time": 183, "pitch": 62, "duration": 3, "velocity": 127}, {"time": 186, "pitch": 67, "duration": 3, "velocity": 127}, {"time": 189, "pitch": 65, "duration": 3, "velocity": 127}, {"time": 192, "pitch": 64, "duration": 3, "velocity": 127}, {"time": 195, "pitch": 62, "duration": 3, "velocity": 127}, {"time": 198, "pitch": 64, "duration": 3, "velocity": 127}, {"time": 201, "pitch": 62, "duration": 3, "velocity": 127}, {"time": 204, "pitch": 60, "duration": 3, "velocity": 127}, {"time": 207, "pitch": 59, "duration": 3, "velocity": 127}, {"time": 210, "pitch": 57, "duration": 3, "velocity": 127}, {"time": 213, "pitch": 55, "duration": 3, "velocity": 127}, {"time": 216, "pitch": 57, "duration": 3, "velocity": 127}, {"time": 219, "pitch": 55, "duration": 3, "velocity": 127}, {"time": 222, "pitch": 53, "duration": 3, "velocity": 127}, {"time": 225, "pitch": 52, "duration": 3, "velocity": 127}, {"time": 228, "pitch": 50, "duration": 3, "velocity": 127}, {"time": 231, "pitch": 48, "duration": 3, "velocity": 127}, {"time": 234, "pitch": 50, "duration": 6, "velocity": 127}, {"time": 240, "pitch": 55, "duration": 6, "velocity": 127}, {"time": 246, "pitch": 60, "duration": 6, "velocity": 127}, {"time": 252, "pitch": 53, "duration": 6, "velocity": 127}, {"time": 258, "pitch": 55, "duration": 6, "velocity": 127}, {"time": 264, "pitch": 43, "duration": 6, "velocity": 127}, {"time": 270, "pitch": 48, "duration": 18, "velocity": 127}, {"time": 288, "pitch": 45, "duration": 3, "velocity": 127}, {"time": 291, "pitch": 57, "duration": 3, "velocity": 127}, {"time": 294, "pitch": 56, "duration": 3, "velocity": 127}, {"time": 297, "pitch": 54, "duration": 3, "velocity": 127}, {"time": 300, "pitch": 56, "duration": 3, "velocity": 127}, {"time": 303, "pitch": 52, "duration": 3, "velocity": 127}, {"time": 306, "pitch": 45, "duration": 3, "velocity": 127}, {"time": 309, "pitch": 57, "duration": 3, "velocity": 127}, {"time": 312, "pitch": 56, "duration": 3, "velocity": 127}, {"time": 315, "pitch": 54, "duration": 3, "velocity": 127}, {"time": 318, "pitch": 56, "duration": 3, "velocity": 127}, {"time": 321, "pitch": 52, "duration": 3, "velocity": 127}, {"time": 324, "pitch": 45, "duration": 3, "velocity": 127}, {"time": 327, "pitch": 57, "duration": 3, "velocity": 127}, {"time": 330, "pitch": 56, "duration": 3, "velocity": 127}, {"time": 333, "pitch": 54, "duration": 3, "velocity": 127}, {"time": 336, "pitch": 56, "duration": 3, "velocity": 127}, {"time": 339, "pitch": 52, "duration": 3, "velocity": 127}, {"time": 342, "pitch": 57, "duration": 3, "velocity": 127}, {"time": 345, "pitch": 56, "duration": 3, "velocity": 127}, {"time": 348, "pitch": 57, "duration": 3, "velocity": 127}, {"time": 351, "pitch": 59, "duration": 3, "velocity": 127}, {"time": 354, "pitch": 60, "duration": 3, "velocity": 127}, {"time": 357, "pitch": 57, "duration": 3, "velocity": 127}, {"time": 360, "pitch": 50, "duration": 3, "velocity": 127}, {"time": 363, "pitch": 62, "duration": 3, "velocity": 127}, {"time": 366, "pitch": 61, "duration": 3, "velocity": 127}, {"time": 369, "pitch": 59, "duration": 3, "velocity": 127}, {"time": 372, "pitch": 61, "duration": 3, "velocity": 127}, {"time": 375, "pitch": 57, "duration": 3, "velocity": 127}, {"time": 378, "pitch": 50, "duration": 3, "velocity": 127}, {"time": 381, "pitch": 62, "duration": 3, "velocity": 127}, {"time": 384, "pitch": 61, "duration": 3, "velocity": 127}, {"time": 387, "pitch": 59, "duration": 3, "velocity": 127}, {"time": 390, "pitch": 61, "duration": 3, "velocity": 127}, {"time": 393, "pitch": 57, "duration": 3, "velocity": 127}, {"time": 396, "pitch": 50, "duration": 3, "velocity": 127}, {"time": 399, "pitch": 62, "duration": 3, "velocity": 127}, {"time": 402, "pitch": 61, "duration": 3, "velocity": 127}, {"time": 405, "pitch": 59, "duration": 3, "velocity": 127}, {"time": 408, "pitch": 61, "duration": 3, "velocity": 127}, {"time": 411, "pitch": 57, "duration": 3, "velocity": 127}, {"time": 414, "pitch": 62, "duration": 3, "velocity": 127}, {"time": 417, "pitch": 57, "duration": 3, "velocity": 127}, {"time": 420, "pitch": 62, "duration": 3, "velocity": 127}, {"time": 423, "pitch": 60, "duration": 3, "velocity": 127}, {"time": 426, "pitch": 59, "duration": 3, "velocity": 127}, {"time": 429, "pitch": 57, "duration": 3, "velocity": 127}, {"time": 432, "pitch": 55, "duration": 3, "velocity": 127}, {"time": 435, "pitch": 54, "duration": 3, "velocity": 127}, {"time": 438, "pitch": 55, "duration": 3, "velocity": 127}, {"time": 441, "pitch": 57, "duration": 3, "velocity": 127}, {"time": 444, "pitch": 59, "duration": 3, "velocity": 127}, {"time": 447, "pitch": 55, "duration": 3, "velocity": 127}, {"time": 450, "pitch": 60, "duration": 3, "velocity": 127}, {"time": 453, "pitch": 55, "duration": 3, "velocity": 127}, {"time": 456, "pitch": 60, "duration": 3, "velocity": 127}, {"time": 459, "pitch": 59, "duration": 3, "velocity": 127}, {"time": 462, "pitch": 57, "duration": 3, "velocity": 127}, {"time": 465, "pitch": 55, "duration": 3, "velocity": 127}, {"time": 468, "pitch": 54, "duration": 3, "velocity": 127}, {"time": 471, "pitch": 52, "duration": 3, "velocity": 127}, {"time": 474, "pitch": 54, "duration": 3, "velocity": 127}, {"time": 477, "pitch": 55, "duration": 3, "velocity": 127}, {"time": 480, "pitch": 57, "duration": 3, "velocity": 127}, {"time": 483, "pitch": 54, "duration": 3, "velocity": 127}, {"time": 486, "pitch": 59, "duration": 3, "velocity": 127}, {"time": 489, "pitch": 54, "duration": 3, "velocity": 127}, {"time": 492, "pitch": 59, "duration": 3, "velocity": 127}, {"time": 495, "pitch": 57, "duration": 3, "velocity": 127}, {"time": 498, "pitch": 55, "duration": 3, "velocity": 127}, {"time": 501, "pitch": 54, "duration": 3, "velocity": 127}, {"time": 504, "pitch": 52, "duration": 3, "velocity": 127}, {"time": 507, "pitch": 64, "duration": 3, "velocity": 127}, {"time": 510, "pitch": 63, "duration": 3, "velocity": 127}, {"time": 513, "pitch": 61, "duration": 3, "velocity": 127}, {"time": 516, "pitch": 63, "duration": 3, "velocity": 127}, {"time": 519, "pitch": 59, "duration": 3, "velocity": 127}, {"time": 522, "pitch": 52, "duration": 3, "velocity": 127}, {"time": 525, "pitch": 64, "duration": 3, "velocity": 127}, {"time": 528, "pitch": 63, "duration": 3, "velocity": 127}, {"time": 531, "pitch": 61, "duration": 3, "velocity": 127}, {"time": 534, "pitch": 63, "duration": 3, "velocity": 127}, {"time": 537, "pitch": 59, "duration": 3, "velocity": 127}, {"time": 540, "pitch": 52, "duration": 3, "velocity": 127}, {"time": 543, "pitch": 64, "duration": 3, "velocity": 127}, {"time": 546, "pitch": 63, "duration": 3, "velocity": 127}, {"time": 549, "pitch": 61, "duration": 3, "velocity": 127}, {"time": 552, "pitch": 63, "duration": 3, "velocity": 127}, {"time": 555, "pitch": 59, "duration": 3, "velocity": 127}, {"time": 558, "pitch": 52, "duration": 3, "velocity": 127}, {"time": 561, "pitch": 64, "duration": 3, "velocity": 127}, {"time": 564, "pitch": 63, "duration": 3, "velocity": 127}, {"time": 567, "pitch": 61, "duration": 3, "velocity": 127}, {"time": 570, "pitch": 63, "duration": 3, "velocity": 127}, {"time": 573, "pitch": 59, "duration": 3, "velocity": 127}, {"time": 576, "pitch": 52, "duration": 3, "velocity": 127}, {"time": 579, "pitch": 55, "duration": 3, "velocity": 127}, {"time": 582, "pitch": 59, "duration": 3, "velocity": 127}, {"time": 585, "pitch": 64, "duration": 3, "velocity": 127}, {"time": 588, "pitch": 60, "duration": 3, "velocity": 127}, {"time": 591, "pitch": 57, "duration": 3, "velocity": 127}, {"time": 594, "pitch": 50, "duration": 3, "velocity": 127}, {"time": 597, "pitch": 54, "duration": 3, "velocity": 127}, {"time": 600, "pitch": 57, "duration": 3, "velocity": 127}, {"time": 603, "pitch": 62, "duration": 3, "velocity": 127}, {"time": 606, "pitch": 59, "duration": 3, "velocity": 127}, {"time": 609, "pitch": 55, "duration": 3, "velocity": 127}, {"time": 612, "pitch": 48, "duration": 3, "velocity": 127}, {"time": 615, "pitch": 52, "duration": 3, "velocity": 127}, {"time": 618, "pitch": 55, "duration": 3, "velocity": 127}, {"time": 621, "pitch": 60, "duration": 3, "velocity": 127}, {"time": 624, "pitch": 57, "duration": 3, "velocity": 127}, {"time": 627, "pitch": 54, "duration": 3, "velocity": 127}, {"time": 630, "pitch": 47, "duration": 3, "velocity": 127}, {"time": 633, "pitch": 51, "duration": 3, "velocity": 127}, {"time": 636, "pitch": 54, "duration": 3, "velocity": 127}, {"time": 639, "pitch": 59, "duration": 3, "velocity": 127}, {"time": 642, "pitch": 55, "duration": 3, "velocity": 127}, {"time": 645, "pitch": 52, "duration": 3, "velocity": 127}, {"time": 648, "pitch": 47, "duration": 3, "velocity": 127}, {"time": 651, "pitch": 51, "duration": 3, "velocity": 127}, {"time": 654, "pitch": 54, "duration": 3, "velocity": 127}, {"time": 657, "pitch": 59, "duration": 3, "velocity": 127}, {"time": 660, "pitch": 55, "duration": 3, "velocity": 127}, {"time": 663, "pitch": 52, "duration": 3, "velocity": 127}, {"time": 666, "pitch": 47, "duration": 3, "velocity": 127}, {"time": 669, "pitch": 51, "duration": 3, "velocity": 127}, {"time": 672, "pitch": 54, "duration": 3, "velocity": 127}, {"time": 675, "pitch": 51, "duration": 3, "velocity": 127}, {"time": 678, "pitch": 52, "duration": 6, "velocity": 127}, {"time": 684, "pitch": 57, "duration": 6, "velocity": 127}, {"time": 690, "pitch": 59, "duration": 6, "velocity": 127}, {"time": 696, "pitch": 47, "duration": 6, "velocity": 127}, {"time": 702, "pitch": 52, "duration": 3, "velocity": 127}, {"time": 705, "pitch": 55, "duration": 3, "velocity": 127}, {"time": 708, "pitch": 59, "duration": 3, "velocity": 127}, {"time": 711, "pitch": 64, "duration": 3, "velocity": 127}, {"time": 714, "pitch": 63, "duration": 3, "velocity": 127}, {"time": 717, "pitch": 59, "duration": 3, "velocity": 127}, {"time": 720, "pitch": 52, "duration": 3, "velocity": 127}, {"time": 723, "pitch": 55, "duration": 3, "velocity": 127}, {"time": 726, "pitch": 59, "duration": 3, "velocity": 127}, {"time": 729, "pitch": 64, "duration": 3, "velocity": 127}, {"time": 732, "pitch": 60, "duration": 3, "velocity": 127}, {"time": 735, "pitch": 57, "duration": 3, "velocity": 127}, {"time": 738, "pitch": 50, "duration": 3, "velocity": 127}, {"time": 741, "pitch": 54, "duration": 3, "velocity": 127}, {"time": 744, "pitch": 57, "duration": 3, "velocity": 127}, {"time": 747, "pitch": 62, "duration": 3, "velocity": 127}, {"time": 750, "pitch": 59, "duration": 3, "velocity": 127}, {"time": 753, "pitch": 55, "duration": 3, "velocity": 127}, {"time": 756, "pitch": 48, "duration": 3, "velocity": 127}, {"time": 759, "pitch": 52, "duration": 3, "velocity": 127}, {"time": 762, "pitch": 55, "duration": 3, "velocity": 127}, {"time": 765, "pitch": 60, "duration": 3, "velocity": 127}, {"time": 768, "pitch": 57, "duration": 3, "velocity": 127}, {"time": 771, "pitch": 54, "duration": 3, "velocity": 127}, {"time": 774, "pitch": 47, "duration": 3, "velocity": 127}, {"time": 777, "pitch": 51, "duration": 3, "velocity": 127}, {"time": 780, "pitch": 54, "duration": 3, "velocity": 127}, {"time": 783, "pitch": 59, "duration": 3, "velocity": 127}, {"time": 786, "pitch": 55, "duration": 3, "velocity": 127}, {"time": 789, "pitch": 52, "duration": 3, "velocity": 127}, {"time": 792, "pitch": 45, "duration": 3, "velocity": 127}, {"time": 795, "pitch": 48, "duration": 3, "velocity": 127}, {"time": 798, "pitch": 52, "duration": 3, "velocity": 127}, {"time": 801, "pitch": 57, "duration": 3, "velocity": 127}, {"time": 804, "pitch": 54, "duration": 3, "velocity": 127}, {"time": 807, "pitch": 50, "duration": 3, "velocity": 127}, {"time": 810, "pitch": 55, "duration": 3, "velocity": 127}, {"time": 813, "pitch": 54, "duration": 3, "velocity": 127}, {"time": 816, "pitch": 55, "duration": 3, "velocity": 127}, {"time": 819, "pitch": 52, "duration": 3, "velocity": 127}, {"time": 822, "pitch": 60, "duration": 6, "velocity": 127}, {"time": 828, "pitch": 57, "duration": 6, "velocity": 127}, {"time": 834, "pitch": 59, "duration": 6, "velocity": 127}, {"time": 840, "pitch": 47, "duration": 6, "velocity": 127}, {"time": 846, "pitch": 52, "duration": 6, "velocity": 127}, {"time": 852, "pitch": 55, "duration": 3, "velocity": 127}, {"time": 855, "pitch": 53, "duration": 3, "velocity": 127}, {"time": 858, "pitch": 52, "duration": 3, "velocity": 127}, {"time": 861, "pitch": 50, "duration": 3, "velocity": 127}, {"time": 864, "pitch": 48, "duration": 6, "velocity": 127}, {"time": 870, "pitch": 50, "duration": 6, "velocity": 127}, {"time": 876, "pitch": 43, "duration": 6, "velocity": 127}, {"time": 882, "pitch": 52, "duration": 6, "velocity": 127}, {"time": 888, "pitch": 40, "duration": 6, "velocity": 127}, {"time": 900, "pitch": 53, "duration": 6, "velocity": 127}, {"time": 906, "pitch": 50, "duration": 6, "velocity": 127}, {"time": 912, "pitch": 55, "duration": 6, "velocity": 127}, {"time": 918, "pitch": 52, "duration": 6, "velocity": 127}, {"time": 924, "pitch": 48, "duration": 6, "velocity": 127}, {"time": 936, "pitch": 57, "duration": 6, "velocity": 127}, {"time": 942, "pitch": 55, "duration": 6, "velocity": 127}, {"time": 954, "pitch": 53, "duration": 6, "velocity": 127}, {"time": 960, "pitch": 52, "duration": 6, "velocity": 127}, {"time": 972, "pitch": 50, "duration": 6, "velocity": 127}, {"time": 978, "pitch": 52, "duration": 6, "velocity": 127}, {"time": 984, "pitch": 48, "duration": 6, "velocity": 127}, {"time": 990, "pitch": 55, "duration": 3, "velocity": 127}, {"time": 993, "pitch": 54, "duration": 3, "velocity": 127}, {"time": 996, "pitch": 55, "duration": 3, "velocity": 127}, {"time": 999, "pitch": 57, "duration": 3, "velocity": 127}, {"time": 1002, "pitch": 59, "duration": 3, "velocity": 127}, {"time": 1005, "pitch": 55, "duration": 3, "velocity": 127}, {"time": 1008, "pitch": 60, "duration": 3, "velocity": 127}, {"time": 1011, "pitch": 55, "duration": 3, "velocity": 127}, {"time": 1014, "pitch": 62, "duration": 3, "velocity": 127}, {"time": 1017, "pitch": 60, "duration": 3, "velocity": 127}, {"time": 1020, "pitch": 62, "duration": 3, "velocity": 127}, {"time": 1023, "pitch": 55, "duration": 3, "velocity": 127}, {"time": 1026, "pitch": 64, "duration": 3, "velocity": 127}, {"time": 1029, "pitch": 62, "duration": 3, "velocity": 127}, {"time": 1032, "pitch": 60, "duration": 3, "velocity": 127}, {"time": 1035, "pitch": 62, "duration": 3, "velocity": 127}, {"time": 1038, "pitch": 64, "duration": 3, "velocity": 127}, {"time": 1041, "pitch": 60, "duration": 3, "velocity": 127}, {"time": 1044, "pitch": 65, "duration": 3, "velocity": 127}, {"time": 1047, "pitch": 62, "duration": 3, "velocity": 127}, {"time": 1050, "pitch": 67, "duration": 3, "velocity": 127}, {"time": 1053, "pitch": 65, "duration": 3, "velocity": 127}, {"time": 1056, "pitch": 64, "duration": 3, "velocity": 127}, {"time": 1059, "pitch": 62, "duration": 3, "velocity": 127}, {"time": 1062, "pitch": 64, "duration": 3, "velocity": 127}, {"time": 1065, "pitch": 62, "duration": 3, "velocity": 127}, {"time": 1068, "pitch": 60, "duration": 3, "velocity": 127}, {"time": 1071, "pitch": 59, "duration": 3, "velocity": 127}, {"time": 1074, "pitch": 57, "duration": 3, "velocity": 127}, {"time": 1077, "pitch": 55, "duration": 3, "velocity": 127}, {"time": 1080, "pitch": 57, "duration": 3, "velocity": 127}, {"time": 1083, "pitch": 55, "duration": 3, "velocity": 127}, {"time": 1086, "pitch": 53, "duration": 3, "velocity": 127}, {"time": 1089, "pitch": 52, "duration": 3, "velocity": 127}, {"time": 1092, "pitch": 50, "duration": 3, "velocity": 127}, {"time": 1095, "pitch": 48, "duration": 3, "velocity": 127}, {"time": 1098, "pitch": 50, "duration": 6, "velocity": 127}, {"time": 1104, "pitch": 55, "duration": 6, "velocity": 127}, {"time": 1110, "pitch": 60, "duration": 6, "velocity": 127}, {"time": 1116, "pitch": 53, "duration": 6, "velocity": 127}, {"time": 1122, "pitch": 55, "duration": 6, "velocity": 127}, {"time": 1128, "pitch": 43, "duration": 6, "velocity": 127}, {"time": 1134, "pitch": 48, "duration": 18, "velocity": 127}]}]}