{"metadata": {"schema_version": "0.2"}, "resolution": 24, "tracks": [{"program": 6, "is_drum": false, "name": "", "notes": [{"time": 0, "pitch": 51, "duration": 48, "velocity": 127}, {"time": 96, "pitch": 50, "duration": 24, "velocity": 127}, {"time": 120, "pitch": 46, "duration": 24, "velocity": 127}, {"time": 144, "pitch": 53, "duration": 72, "velocity": 127}, {"time": 216, "pitch": 53, "duration": 24, "velocity": 127}, {"time": 240, "pitch": 51, "duration": 24, "velocity": 127}, {"time": 264, "pitch": 48, "duration": 24, "velocity": 127}, {"time": 288, "pitch": 49, "duration": 48, "velocity": 127}, {"time": 336, "pitch": 46, "duration": 24, "velocity": 127}, {"time": 360, "pitch": 48, "duration": 48, "velocity": 127}, {"time": 408, "pitch": 48, "duration": 24, "velocity": 127}, {"time": 432, "pitch": 53, "duration": 24, "velocity": 127}, {"time": 456, "pitch": 51, "duration": 48, "velocity": 127}, {"time": 504, "pitch": 50, "duration": 24, "velocity": 127}, {"time": 528, "pitch": 55, "duration": 24, "velocity": 127}, {"time": 552, "pitch": 53, "duration": 24, "velocity": 127}, {"time": 576, "pitch": 51, "duration": 24, "velocity": 127}, {"time": 600, "pitch": 60, "duration": 72, "velocity": 127}, {"time": 672, "pitch": 58, "duration": 24, "velocity": 127}, {"time": 696, "pitch": 50, "duration": 24, "velocity": 127}, {"time": 720, "pitch": 51, "duration": 72, "velocity": 127}, {"time": 792, "pitch": 50, "duration": 72, "velocity": 127}]}]}