{"metadata": {"schema_version": "0.2"}, "resolution": 24, "tracks": [{"program": 6, "is_drum": false, "name": "", "notes": [{"time": 0, "pitch": 57, "duration": 12, "velocity": 127}, {"time": 12, "pitch": 60, "duration": 12, "velocity": 127}, {"time": 24, "pitch": 59, "duration": 12, "velocity": 127}, {"time": 36, "pitch": 57, "duration": 12, "velocity": 127}, {"time": 48, "pitch": 55, "duration": 12, "velocity": 127}, {"time": 60, "pitch": 53, "duration": 12, "velocity": 127}, {"time": 72, "pitch": 52, "duration": 12, "velocity": 127}, {"time": 84, "pitch": 50, "duration": 12, "velocity": 127}, {"time": 96, "pitch": 48, "duration": 12, "velocity": 127}, {"time": 108, "pitch": 50, "duration": 12, "velocity": 127}, {"time": 120, "pitch": 52, "duration": 12, "velocity": 127}, {"time": 132, "pitch": 40, "duration": 12, "velocity": 127}, {"time": 144, "pitch": 45, "duration": 12, "velocity": 127}, {"time": 156, "pitch": 60, "duration": 12, "velocity": 127}, {"time": 168, "pitch": 59, "duration": 12, "velocity": 127}, {"time": 180, "pitch": 57, "duration": 12, "velocity": 127}, {"time": 192, "pitch": 55, "duration": 12, "velocity": 127}, {"time": 204, "pitch": 53, "duration": 12, "velocity": 127}, {"time": 216, "pitch": 52, "duration": 12, "velocity": 127}, {"time": 228, "pitch": 50, "duration": 12, "velocity": 127}, {"time": 240, "pitch": 48, "duration": 12, "velocity": 127}, {"time": 252, "pitch": 50, "duration": 12, "velocity": 127}, {"time": 264, "pitch": 52, "duration": 12, "velocity": 127}, {"time": 276, "pitch": 40, "duration": 12, "velocity": 127}, {"time": 288, "pitch": 45, "duration": 12, "velocity": 127}, {"time": 300, "pitch": 60, "duration": 12, "velocity": 127}, {"time": 312, "pitch": 59, "duration": 12, "velocity": 127}, {"time": 324, "pitch": 57, "duration": 12, "velocity": 127}, {"time": 336, "pitch": 55, "duration": 12, "velocity": 127}, {"time": 348, "pitch": 53, "duration": 12, "velocity": 127}, {"time": 360, "pitch": 52, "duration": 12, "velocity": 127}, {"time": 372, "pitch": 64, "duration": 12, "velocity": 127}, {"time": 384, "pitch": 62, "duration": 12, "velocity": 127}, {"time": 396, "pitch": 60, "duration": 12, "velocity": 127}, {"time": 408, "pitch": 59, "duration": 12, "velocity": 127}, {"time": 420, "pitch": 57, "duration": 12, "velocity": 127}, {"time": 432, "pitch": 55, "duration": 12, "velocity": 127}, {"time": 444, "pitch": 53, "duration": 12, "velocity": 127}, {"time": 456, "pitch": 52, "duration": 12, "velocity": 127}, {"time": 468, "pitch": 53, "duration": 12, "velocity": 127}, {"time": 480, "pitch": 55, "duration": 12, "velocity": 127}, {"time": 492, "pitch": 43, "duration": 12, "velocity": 127}, {"time": 504, "pitch": 48, "duration": 12, "velocity": 127}, {"time": 516, "pitch": 52, "duration": 12, "velocity": 127}, {"time": 528, "pitch": 50, "duration": 12, "velocity": 127}, {"time": 540, "pitch": 48, "duration": 12, "velocity": 127}, {"time": 552, "pitch": 47, "duration": 12, "velocity": 127}, {"time": 564, "pitch": 45, "duration": 12, "velocity": 127}, {"time": 576, "pitch": 43, "duration": 12, "velocity": 127}, {"time": 588, "pitch": 55, "duration": 12, "velocity": 127}, {"time": 600, "pitch": 53, "duration": 12, "velocity": 127}, {"time": 612, "pitch": 52, "duration": 12, "velocity": 127}, {"time": 624, "pitch": 64, "duration": 12, "velocity": 127}, {"time": 636, "pitch": 62, "duration": 12, "velocity": 127}, {"time": 648, "pitch": 60, "duration": 12, "velocity": 127}, {"time": 660, "pitch": 59, "duration": 12, "velocity": 127}, {"time": 672, "pitch": 57, "duration": 12, "velocity": 127}, {"time": 684, "pitch": 56, "duration": 12, "velocity": 127}, {"time": 696, "pitch": 54, "duration": 12, "velocity": 127}, {"time": 708, "pitch": 52, "duration": 12, "velocity": 127}, {"time": 720, "pitch": 57, "duration": 12, "velocity": 127}, {"time": 732, "pitch": 54, "duration": 12, "velocity": 127}, {"time": 744, "pitch": 55, "duration": 12, "velocity": 127}, {"time": 756, "pitch": 60, "duration": 12, "velocity": 127}, {"time": 768, "pitch": 59, "duration": 12, "velocity": 127}, {"time": 780, "pitch": 57, "duration": 12, "velocity": 127}, {"time": 792, "pitch": 59, "duration": 12, "velocity": 127}, {"time": 804, "pitch": 47, "duration": 12, "velocity": 127}, {"time": 816, "pitch": 45, "duration": 12, "velocity": 127}, {"time": 828, "pitch": 43, "duration": 12, "velocity": 127}, {"time": 840, "pitch": 55, "duration": 12, "velocity": 127}, {"time": 852, "pitch": 54, "duration": 12, "velocity": 127}, {"time": 864, "pitch": 52, "duration": 12, "velocity": 127}, {"time": 876, "pitch": 64, "duration": 12, "velocity": 127}, {"time": 888, "pitch": 62, "duration": 12, "velocity": 127}, {"time": 900, "pitch": 60, "duration": 12, "velocity": 127}, {"time": 912, "pitch": 57, "duration": 12, "velocity": 127}, {"time": 924, "pitch": 60, "duration": 12, "velocity": 127}, {"time": 936, "pitch": 51, "duration": 12, "velocity": 127}, {"time": 948, "pitch": 47, "duration": 12, "velocity": 127}, {"time": 960, "pitch": 52, "duration": 12, "velocity": 127}, {"time": 972, "pitch": 57, "duration": 12, "velocity": 127}, {"time": 984, "pitch": 59, "duration": 12, "velocity": 127}, {"time": 996, "pitch": 47, "duration": 12, "velocity": 127}, {"time": 1008, "pitch": 52, "duration": 12, "velocity": 127}, {"time": 1020, "pitch": 60, "duration": 12, "velocity": 127}, {"time": 1032, "pitch": 59, "duration": 12, "velocity": 127}, {"time": 1044, "pitch": 57, "duration": 12, "velocity": 127}, {"time": 1056, "pitch": 55, "duration": 12, "velocity": 127}, {"time": 1068, "pitch": 53, "duration": 12, "velocity": 127}, {"time": 1080, "pitch": 52, "duration": 12, "velocity": 127}, {"time": 1092, "pitch": 50, "duration": 12, "velocity": 127}, {"time": 1104, "pitch": 48, "duration": 12, "velocity": 127}, {"time": 1116, "pitch": 50, "duration": 12, "velocity": 127}, {"time": 1128, "pitch": 52, "duration": 12, "velocity": 127}, {"time": 1140, "pitch": 40, "duration": 12, "velocity": 127}, {"time": 1152, "pitch": 45, "duration": 12, "velocity": 127}, {"time": 1164, "pitch": 43, "duration": 12, "velocity": 127}, {"time": 1176, "pitch": 41, "duration": 12, "velocity": 127}, {"time": 1188, "pitch": 40, "duration": 12, "velocity": 127}, {"time": 1200, "pitch": 49, "duration": 12, "velocity": 127}, {"time": 1212, "pitch": 45, "duration": 12, "velocity": 127}, {"time": 1224, "pitch": 50, "duration": 12, "velocity": 127}, {"time": 1236, "pitch": 52, "duration": 12, "velocity": 127}, {"time": 1248, "pitch": 53, "duration": 12, "velocity": 127}, {"time": 1260, "pitch": 44, "duration": 24, "velocity": 127}, {"time": 1284, "pitch": 56, "duration": 12, "velocity": 127}, {"time": 1296, "pitch": 57, "duration": 12, "velocity": 127}, {"time": 1308, "pitch": 52, "duration": 12, "velocity": 127}, {"time": 1320, "pitch": 53, "duration": 12, "velocity": 127}, {"time": 1332, "pitch": 50, "duration": 12, "velocity": 127}, {"time": 1344, "pitch": 52, "duration": 12, "velocity": 127}, {"time": 1356, "pitch": 40, "duration": 12, "velocity": 127}, {"time": 1380, "pitch": 53, "duration": 12, "velocity": 127}, {"time": 1392, "pitch": 50, "duration": 12, "velocity": 127}, {"time": 1404, "pitch": 44, "duration": 24, "velocity": 127}, {"time": 1428, "pitch": 56, "duration": 12, "velocity": 127}, {"time": 1440, "pitch": 57, "duration": 12, "velocity": 127}, {"time": 1452, "pitch": 45, "duration": 12, "velocity": 127}, {"time": 1464, "pitch": 55, "duration": 12, "velocity": 127}, {"time": 1476, "pitch": 53, "duration": 36, "velocity": 127}, {"time": 1512, "pitch": 52, "duration": 36, "velocity": 127}]}]}