{"metadata": {"schema_version": "0.2"}, "resolution": 24, "tracks": [{"program": 6, "is_drum": false, "name": "", "notes": [{"time": 0, "pitch": 60, "duration": 6, "velocity": 127}, {"time": 6, "pitch": 59, "duration": 6, "velocity": 127}, {"time": 12, "pitch": 60, "duration": 6, "velocity": 127}, {"time": 18, "pitch": 55, "duration": 6, "velocity": 127}, {"time": 24, "pitch": 57, "duration": 6, "velocity": 127}, {"time": 30, "pitch": 55, "duration": 6, "velocity": 127}, {"time": 36, "pitch": 57, "duration": 6, "velocity": 127}, {"time": 42, "pitch": 52, "duration": 6, "velocity": 127}, {"time": 48, "pitch": 53, "duration": 6, "velocity": 127}, {"time": 54, "pitch": 52, "duration": 6, "velocity": 127}, {"time": 60, "pitch": 50, "duration": 6, "velocity": 127}, {"time": 66, "pitch": 48, "duration": 6, "velocity": 127}, {"time": 72, "pitch": 55, "duration": 6, "velocity": 127}, {"time": 78, "pitch": 57, "duration": 6, "velocity": 127}, {"time": 84, "pitch": 59, "duration": 6, "velocity": 127}, {"time": 90, "pitch": 55, "duration": 6, "velocity": 127}, {"time": 96, "pitch": 60, "duration": 6, "velocity": 127}, {"time": 102, "pitch": 59, "duration": 6, "velocity": 127}, {"time": 108, "pitch": 60, "duration": 6, "velocity": 127}, {"time": 114, "pitch": 55, "duration": 6, "velocity": 127}, {"time": 120, "pitch": 57, "duration": 6, "velocity": 127}, {"time": 126, "pitch": 55, "duration": 6, "velocity": 127}, {"time": 132, "pitch": 57, "duration": 6, "velocity": 127}, {"time": 138, "pitch": 52, "duration": 6, "velocity": 127}, {"time": 144, "pitch": 53, "duration": 6, "velocity": 127}, {"time": 150, "pitch": 52, "duration": 6, "velocity": 127}, {"time": 156, "pitch": 50, "duration": 6, "velocity": 127}, {"time": 162, "pitch": 48, "duration": 6, "velocity": 127}, {"time": 168, "pitch": 55, "duration": 6, "velocity": 127}, {"time": 174, "pitch": 57, "duration": 6, "velocity": 127}, {"time": 180, "pitch": 59, "duration": 6, "velocity": 127}, {"time": 186, "pitch": 55, "duration": 6, "velocity": 127}, {"time": 192, "pitch": 57, "duration": 6, "velocity": 127}, {"time": 198, "pitch": 62, "duration": 6, "velocity": 127}, {"time": 204, "pitch": 59, "duration": 6, "velocity": 127}, {"time": 210, "pitch": 55, "duration": 6, "velocity": 127}, {"time": 216, "pitch": 60, "duration": 6, "velocity": 127}, {"time": 222, "pitch": 48, "duration": 6, "velocity": 127}, {"time": 228, "pitch": 41, "duration": 6, "velocity": 127}, {"time": 234, "pitch": 53, "duration": 12, "velocity": 127}, {"time": 246, "pitch": 52, "duration": 4, "velocity": 127}, {"time": 250, "pitch": 53, "duration": 2, "velocity": 127}, {"time": 252, "pitch": 55, "duration": 6, "velocity": 127}, {"time": 258, "pitch": 43, "duration": 6, "velocity": 127}, {"time": 264, "pitch": 48, "duration": 6, "velocity": 127}, {"time": 270, "pitch": 50, "duration": 6, "velocity": 127}, {"time": 276, "pitch": 52, "duration": 6, "velocity": 127}, {"time": 282, "pitch": 48, "duration": 6, "velocity": 127}, {"time": 288, "pitch": 50, "duration": 6, "velocity": 127}, {"time": 294, "pitch": 55, "duration": 6, "velocity": 127}, {"time": 300, "pitch": 52, "duration": 6, "velocity": 127}, {"time": 306, "pitch": 48, "duration": 6, "velocity": 127}, {"time": 312, "pitch": 41, "duration": 6, "velocity": 127}, {"time": 318, "pitch": 53, "duration": 6, "velocity": 127}, {"time": 324, "pitch": 47, "duration": 12, "velocity": 127}, {"time": 336, "pitch": 48, "duration": 6, "velocity": 127}, {"time": 342, "pitch": 53, "duration": 6, "velocity": 127}, {"time": 348, "pitch": 55, "duration": 6, "velocity": 127}, {"time": 354, "pitch": 43, "duration": 6, "velocity": 127}, {"time": 360, "pitch": 48, "duration": 12, "velocity": 127}, {"time": 378, "pitch": 59, "duration": 6, "velocity": 127}, {"time": 384, "pitch": 57, "duration": 6, "velocity": 127}, {"time": 390, "pitch": 50, "duration": 6, "velocity": 127}, {"time": 396, "pitch": 52, "duration": 6, "velocity": 127}, {"time": 402, "pitch": 54, "duration": 6, "velocity": 127}, {"time": 408, "pitch": 55, "duration": 6, "velocity": 127}, {"time": 414, "pitch": 43, "duration": 6, "velocity": 127}, {"time": 420, "pitch": 47, "duration": 6, "velocity": 127}, {"time": 426, "pitch": 43, "duration": 6, "velocity": 127}, {"time": 432, "pitch": 48, "duration": 12, "velocity": 127}, {"time": 450, "pitch": 49, "duration": 6, "velocity": 127}, {"time": 456, "pitch": 50, "duration": 12, "velocity": 127}, {"time": 474, "pitch": 47, "duration": 6, "velocity": 127}, {"time": 480, "pitch": 52, "duration": 12, "velocity": 127}, {"time": 492, "pitch": 54, "duration": 6, "velocity": 127}, {"time": 498, "pitch": 55, "duration": 6, "velocity": 127}, {"time": 504, "pitch": 50, "duration": 12, "velocity": 127}, {"time": 516, "pitch": 47, "duration": 6, "velocity": 127}, {"time": 522, "pitch": 43, "duration": 6, "velocity": 127}, {"time": 528, "pitch": 52, "duration": 9, "velocity": 127}, {"time": 537, "pitch": 50, "duration": 3, "velocity": 127}, {"time": 540, "pitch": 48, "duration": 6, "velocity": 127}, {"time": 546, "pitch": 47, "duration": 6, "velocity": 127}, {"time": 552, "pitch": 45, "duration": 6, "velocity": 127}, {"time": 558, "pitch": 50, "duration": 6, "velocity": 127}, {"time": 564, "pitch": 52, "duration": 6, "velocity": 127}, {"time": 570, "pitch": 48, "duration": 6, "velocity": 127}, {"time": 576, "pitch": 50, "duration": 6, "velocity": 127}, {"time": 582, "pitch": 48, "duration": 6, "velocity": 127}, {"time": 588, "pitch": 50, "duration": 6, "velocity": 127}, {"time": 594, "pitch": 38, "duration": 6, "velocity": 127}, {"time": 600, "pitch": 43, "duration": 12, "velocity": 127}, {"time": 618, "pitch": 53, "duration": 6, "velocity": 127}, {"time": 624, "pitch": 52, "duration": 6, "velocity": 127}, {"time": 630, "pitch": 54, "duration": 6, "velocity": 127}, {"time": 636, "pitch": 56, "duration": 6, "velocity": 127}, {"time": 642, "pitch": 52, "duration": 6, "velocity": 127}, {"time": 648, "pitch": 57, "duration": 6, "velocity": 127}, {"time": 654, "pitch": 45, "duration": 6, "velocity": 127}, {"time": 666, "pitch": 57, "duration": 6, "velocity": 127}, {"time": 672, "pitch": 54, "duration": 6, "velocity": 127}, {"time": 678, "pitch": 47, "duration": 6, "velocity": 127}, {"time": 684, "pitch": 51, "duration": 6, "velocity": 127}, {"time": 690, "pitch": 47, "duration": 6, "velocity": 127}, {"time": 696, "pitch": 52, "duration": 18, "velocity": 127}, {"time": 714, "pitch": 55, "duration": 6, "velocity": 127}, {"time": 720, "pitch": 52, "duration": 6, "velocity": 127}, {"time": 726, "pitch": 45, "duration": 6, "velocity": 127}, {"time": 732, "pitch": 49, "duration": 6, "velocity": 127}, {"time": 738, "pitch": 45, "duration": 6, "velocity": 127}, {"time": 744, "pitch": 50, "duration": 18, "velocity": 127}, {"time": 762, "pitch": 48, "duration": 6, "velocity": 127}, {"time": 768, "pitch": 47, "duration": 12, "velocity": 127}, {"time": 780, "pitch": 46, "duration": 24, "velocity": 127}, {"time": 804, "pitch": 45, "duration": 6, "velocity": 127}, {"time": 810, "pitch": 57, "duration": 6, "velocity": 127}, {"time": 816, "pitch": 55, "duration": 6, "velocity": 127}, {"time": 822, "pitch": 57, "duration": 4, "velocity": 127}, {"time": 826, "pitch": 58, "duration": 2, "velocity": 127}, {"time": 828, "pitch": 60, "duration": 6, "velocity": 127}, {"time": 834, "pitch": 48, "duration": 6, "velocity": 127}, {"time": 840, "pitch": 53, "duration": 6, "velocity": 127}, {"time": 846, "pitch": 52, "duration": 6, "velocity": 127}, {"time": 852, "pitch": 50, "duration": 6, "velocity": 127}, {"time": 858, "pitch": 48, "duration": 6, "velocity": 127}, {"time": 864, "pitch": 47, "duration": 6, "velocity": 127}, {"time": 870, "pitch": 43, "duration": 6, "velocity": 127}, {"time": 876, "pitch": 48, "duration": 6, "velocity": 127}, {"time": 882, "pitch": 45, "duration": 6, "velocity": 127}, {"time": 888, "pitch": 43, "duration": 12, "velocity": 127}, {"time": 906, "pitch": 53, "duration": 6, "velocity": 127}, {"time": 912, "pitch": 52, "duration": 6, "velocity": 127}, {"time": 918, "pitch": 57, "duration": 6, "velocity": 127}, {"time": 924, "pitch": 50, "duration": 6, "velocity": 127}, {"time": 930, "pitch": 55, "duration": 6, "velocity": 127}, {"time": 936, "pitch": 48, "duration": 12, "velocity": 127}, {"time": 954, "pitch": 46, "duration": 6, "velocity": 127}, {"time": 960, "pitch": 45, "duration": 6, "velocity": 127}, {"time": 966, "pitch": 50, "duration": 6, "velocity": 127}, {"time": 972, "pitch": 43, "duration": 6, "velocity": 127}, {"time": 978, "pitch": 48, "duration": 6, "velocity": 127}, {"time": 984, "pitch": 53, "duration": 6, "velocity": 127}, {"time": 990, "pitch": 50, "duration": 6, "velocity": 127}, {"time": 996, "pitch": 52, "duration": 6, "velocity": 127}, {"time": 1002, "pitch": 53, "duration": 6, "velocity": 127}, {"time": 1008, "pitch": 55, "duration": 6, "velocity": 127}, {"time": 1014, "pitch": 57, "duration": 6, "velocity": 127}, {"time": 1020, "pitch": 55, "duration": 6, "velocity": 127}, {"time": 1026, "pitch": 43, "duration": 6, "velocity": 127}, {"time": 1032, "pitch": 48, "duration": 12, "velocity": 127}, {"time": 1050, "pitch": 50, "duration": 6, "velocity": 127}, {"time": 1056, "pitch": 52, "duration": 12, "velocity": 127}, {"time": 1074, "pitch": 53, "duration": 6, "velocity": 127}, {"time": 1080, "pitch": 55, "duration": 12, "velocity": 127}, {"time": 1098, "pitch": 52, "duration": 6, "velocity": 127}, {"time": 1104, "pitch": 57, "duration": 24, "velocity": 127}, {"time": 1128, "pitch": 55, "duration": 24, "velocity": 127}]}]}