{"metadata": {"schema_version": "0.2"}, "resolution": 24, "tracks": [{"program": 74, "is_drum": false, "name": "", "notes": [{"time": 0, "pitch": 79, "duration": 18, "velocity": 127}, {"time": 18, "pitch": 81, "duration": 18, "velocity": 127}, {"time": 36, "pitch": 83, "duration": 18, "velocity": 127}, {"time": 54, "pitch": 84, "duration": 6, "velocity": 127}, {"time": 60, "pitch": 72, "duration": 6, "velocity": 127}, {"time": 66, "pitch": 72, "duration": 6, "velocity": 127}, {"time": 72, "pitch": 74, "duration": 6, "velocity": 127}, {"time": 78, "pitch": 74, "duration": 9, "velocity": 127}, {"time": 87, "pitch": 72, "duration": 1, "velocity": 127}, {"time": 88, "pitch": 74, "duration": 2, "velocity": 127}, {"time": 90, "pitch": 76, "duration": 6, "velocity": 127}, {"time": 96, "pitch": 72, "duration": 6, "velocity": 127}, {"time": 102, "pitch": 77, "duration": 12, "velocity": 127}, {"time": 114, "pitch": 76, "duration": 6, "velocity": 127}, {"time": 120, "pitch": 74, "duration": 6, "velocity": 127}, {"time": 126, "pitch": 76, "duration": 3, "velocity": 127}, {"time": 129, "pitch": 77, "duration": 3, "velocity": 127}, {"time": 132, "pitch": 74, "duration": 9, "velocity": 127}, {"time": 141, "pitch": 72, "duration": 3, "velocity": 127}, {"time": 144, "pitch": 72, "duration": 3, "velocity": 127}, {"time": 147, "pitch": 76, "duration": 3, "velocity": 127}, {"time": 150, "pitch": 74, "duration": 3, "velocity": 127}, {"time": 153, "pitch": 72, "duration": 3, "velocity": 127}, {"time": 156, "pitch": 71, "duration": 3, "velocity": 127}, {"time": 159, "pitch": 69, "duration": 3, "velocity": 127}, {"time": 162, "pitch": 67, "duration": 6, "velocity": 127}, {"time": 168, "pitch": 72, "duration": 3, "velocity": 127}, {"time": 171, "pitch": 71, "duration": 3, "velocity": 127}, {"time": 174, "pitch": 69, "duration": 3, "velocity": 127}, {"time": 177, "pitch": 67, "duration": 3, "velocity": 127}, {"time": 180, "pitch": 69, "duration": 6, "velocity": 127}, {"time": 186, "pitch": 74, "duration": 3, "velocity": 127}, {"time": 189, "pitch": 72, "duration": 3, "velocity": 127}, {"time": 192, "pitch": 71, "duration": 3, "velocity": 127}, {"time": 195, "pitch": 69, "duration": 3, "velocity": 127}, {"time": 198, "pitch": 71, "duration": 6, "velocity": 127}, {"time": 204, "pitch": 79, "duration": 18, "velocity": 127}, {"time": 222, "pitch": 78, "duration": 6, "velocity": 127}, {"time": 228, "pitch": 76, "duration": 6, "velocity": 127}, {"time": 234, "pitch": 74, "duration": 6, "velocity": 127}, {"time": 240, "pitch": 83, "duration": 6, "velocity": 127}, {"time": 246, "pitch": 81, "duration": 6, "velocity": 127}, {"time": 252, "pitch": 74, "duration": 6, "velocity": 127}, {"time": 258, "pitch": 76, "duration": 3, "velocity": 127}, {"time": 261, "pitch": 78, "duration": 3, "velocity": 127}, {"time": 264, "pitch": 79, "duration": 6, "velocity": 127}, {"time": 270, "pitch": 84, "duration": 6, "velocity": 127}, {"time": 276, "pitch": 81, "duration": 6, "velocity": 127}, {"time": 282, "pitch": 83, "duration": 6, "velocity": 127}, {"time": 291, "pitch": 84, "duration": 3, "velocity": 127}, {"time": 294, "pitch": 81, "duration": 9, "velocity": 127}, {"time": 303, "pitch": 79, "duration": 3, "velocity": 127}, {"time": 306, "pitch": 79, "duration": 9, "velocity": 127}, {"time": 315, "pitch": 74, "duration": 3, "velocity": 127}, {"time": 318, "pitch": 76, "duration": 3, "velocity": 127}, {"time": 321, "pitch": 71, "duration": 3, "velocity": 127}, {"time": 324, "pitch": 72, "duration": 3, "velocity": 127}, {"time": 327, "pitch": 76, "duration": 3, "velocity": 127}, {"time": 330, "pitch": 74, "duration": 3, "velocity": 127}, {"time": 333, "pitch": 72, "duration": 3, "velocity": 127}, {"time": 336, "pitch": 71, "duration": 3, "velocity": 127}, {"time": 339, "pitch": 69, "duration": 3, "velocity": 127}, {"time": 342, "pitch": 71, "duration": 3, "velocity": 127}, {"time": 345, "pitch": 79, "duration": 3, "velocity": 127}, {"time": 348, "pitch": 81, "duration": 3, "velocity": 127}, {"time": 351, "pitch": 83, "duration": 3, "velocity": 127}, {"time": 354, "pitch": 84, "duration": 3, "velocity": 127}, {"time": 357, "pitch": 72, "duration": 3, "velocity": 127}, {"time": 360, "pitch": 77, "duration": 3, "velocity": 127}, {"time": 363, "pitch": 69, "duration": 3, "velocity": 127}, {"time": 366, "pitch": 71, "duration": 3, "velocity": 127}, {"time": 369, "pitch": 81, "duration": 3, "velocity": 127}, {"time": 372, "pitch": 79, "duration": 3, "velocity": 127}, {"time": 375, "pitch": 77, "duration": 3, "velocity": 127}, {"time": 378, "pitch": 76, "duration": 3, "velocity": 127}, {"time": 381, "pitch": 72, "duration": 3, "velocity": 127}, {"time": 384, "pitch": 77, "duration": 3, "velocity": 127}, {"time": 387, "pitch": 72, "duration": 3, "velocity": 127}, {"time": 390, "pitch": 79, "duration": 3, "velocity": 127}, {"time": 393, "pitch": 72, "duration": 3, "velocity": 127}, {"time": 396, "pitch": 81, "duration": 3, "velocity": 127}, {"time": 399, "pitch": 79, "duration": 3, "velocity": 127}, {"time": 402, "pitch": 77, "duration": 3, "velocity": 127}, {"time": 405, "pitch": 76, "duration": 3, "velocity": 127}, {"time": 408, "pitch": 74, "duration": 3, "velocity": 127}, {"time": 411, "pitch": 72, "duration": 3, "velocity": 127}, {"time": 414, "pitch": 71, "duration": 6, "velocity": 127}, {"time": 420, "pitch": 76, "duration": 6, "velocity": 127}, {"time": 426, "pitch": 74, "duration": 6, "velocity": 127}, {"time": 432, "pitch": 72, "duration": 6, "velocity": 127}, {"time": 438, "pitch": 77, "duration": 3, "velocity": 127}, {"time": 441, "pitch": 76, "duration": 3, "velocity": 127}, {"time": 444, "pitch": 74, "duration": 3, "velocity": 127}, {"time": 447, "pitch": 72, "duration": 3, "velocity": 127}, {"time": 450, "pitch": 74, "duration": 3, "velocity": 127}, {"time": 453, "pitch": 67, "duration": 3, "velocity": 127}, {"time": 456, "pitch": 79, "duration": 3, "velocity": 127}, {"time": 459, "pitch": 77, "duration": 3, "velocity": 127}, {"time": 462, "pitch": 76, "duration": 3, "velocity": 127}, {"time": 465, "pitch": 74, "duration": 3, "velocity": 127}, {"time": 468, "pitch": 76, "duration": 6, "velocity": 127}, {"time": 474, "pitch": 84, "duration": 18, "velocity": 127}, {"time": 492, "pitch": 83, "duration": 6, "velocity": 127}, {"time": 498, "pitch": 81, "duration": 6, "velocity": 127}, {"time": 504, "pitch": 79, "duration": 6, "velocity": 127}, {"time": 510, "pitch": 77, "duration": 3, "velocity": 127}, {"time": 513, "pitch": 76, "duration": 3, "velocity": 127}, {"time": 516, "pitch": 74, "duration": 3, "velocity": 127}, {"time": 519, "pitch": 72, "duration": 3, "velocity": 127}, {"time": 522, "pitch": 71, "duration": 6, "velocity": 127}, {"time": 528, "pitch": 69, "duration": 3, "velocity": 127}, {"time": 531, "pitch": 67, "duration": 3, "velocity": 127}, {"time": 534, "pitch": 72, "duration": 6, "velocity": 127}, {"time": 540, "pitch": 77, "duration": 9, "velocity": 127}, {"time": 549, "pitch": 74, "duration": 3, "velocity": 127}, {"time": 552, "pitch": 76, "duration": 6, "velocity": 127}, {"time": 561, "pitch": 77, "duration": 3, "velocity": 127}, {"time": 564, "pitch": 74, "duration": 9, "velocity": 127}, {"time": 573, "pitch": 72, "duration": 3, "velocity": 127}, {"time": 576, "pitch": 72, "duration": 6, "velocity": 127}, {"time": 582, "pitch": 84, "duration": 6, "velocity": 127}, {"time": 588, "pitch": 83, "duration": 6, "velocity": 127}, {"time": 594, "pitch": 81, "duration": 9, "velocity": 127}, {"time": 603, "pitch": 80, "duration": 3, "velocity": 127}, {"time": 606, "pitch": 81, "duration": 6, "velocity": 127}, {"time": 612, "pitch": 71, "duration": 6, "velocity": 127}, {"time": 618, "pitch": 83, "duration": 6, "velocity": 127}, {"time": 624, "pitch": 81, "duration": 6, "velocity": 127}, {"time": 630, "pitch": 80, "duration": 9, "velocity": 127}, {"time": 639, "pitch": 81, "duration": 3, "velocity": 127}, {"time": 642, "pitch": 83, "duration": 6, "velocity": 127}, {"time": 648, "pitch": 76, "duration": 6, "velocity": 127}, {"time": 654, "pitch": 81, "duration": 6, "velocity": 127}, {"time": 660, "pitch": 79, "duration": 6, "velocity": 127}, {"time": 666, "pitch": 77, "duration": 12, "velocity": 127}, {"time": 678, "pitch": 76, "duration": 6, "velocity": 127}, {"time": 684, "pitch": 81, "duration": 6, "velocity": 127}, {"time": 690, "pitch": 72, "duration": 6, "velocity": 127}, {"time": 696, "pitch": 74, "duration": 6, "velocity": 127}, {"time": 702, "pitch": 76, "duration": 21, "velocity": 127}, {"time": 723, "pitch": 77, "duration": 3, "velocity": 127}, {"time": 726, "pitch": 76, "duration": 3, "velocity": 127}, {"time": 729, "pitch": 74, "duration": 3, "velocity": 127}, {"time": 732, "pitch": 72, "duration": 3, "velocity": 127}, {"time": 735, "pitch": 71, "duration": 3, "velocity": 127}, {"time": 738, "pitch": 69, "duration": 6, "velocity": 127}, {"time": 744, "pitch": 74, "duration": 3, "velocity": 127}, {"time": 747, "pitch": 72, "duration": 3, "velocity": 127}, {"time": 750, "pitch": 71, "duration": 3, "velocity": 127}, {"time": 753, "pitch": 69, "duration": 3, "velocity": 127}, {"time": 756, "pitch": 71, "duration": 6, "velocity": 127}, {"time": 762, "pitch": 76, "duration": 3, "velocity": 127}, {"time": 765, "pitch": 74, "duration": 3, "velocity": 127}, {"time": 768, "pitch": 72, "duration": 3, "velocity": 127}, {"time": 771, "pitch": 71, "duration": 3, "velocity": 127}, {"time": 774, "pitch": 72, "duration": 6, "velocity": 127}, {"time": 780, "pitch": 81, "duration": 18, "velocity": 127}, {"time": 798, "pitch": 74, "duration": 6, "velocity": 127}, {"time": 804, "pitch": 79, "duration": 6, "velocity": 127}, {"time": 810, "pitch": 79, "duration": 9, "velocity": 127}, {"time": 819, "pitch": 81, "duration": 3, "velocity": 127}, {"time": 822, "pitch": 77, "duration": 6, "velocity": 127}, {"time": 831, "pitch": 76, "duration": 3, "velocity": 127}, {"time": 834, "pitch": 76, "duration": 9, "velocity": 127}, {"time": 843, "pitch": 74, "duration": 3, "velocity": 127}, {"time": 846, "pitch": 74, "duration": 6, "velocity": 127}, {"time": 852, "pitch": 81, "duration": 6, "velocity": 127}, {"time": 858, "pitch": 81, "duration": 6, "velocity": 127}, {"time": 864, "pitch": 81, "duration": 42, "velocity": 127}, {"time": 906, "pitch": 79, "duration": 6, "velocity": 127}, {"time": 912, "pitch": 79, "duration": 6, "velocity": 127}, {"time": 918, "pitch": 79, "duration": 42, "velocity": 127}, {"time": 960, "pitch": 84, "duration": 6, "velocity": 127}, {"time": 966, "pitch": 83, "duration": 6, "velocity": 127}, {"time": 972, "pitch": 81, "duration": 12, "velocity": 127}, {"time": 984, "pitch": 79, "duration": 6, "velocity": 127}, {"time": 990, "pitch": 78, "duration": 6, "velocity": 127}, {"time": 996, "pitch": 81, "duration": 3, "velocity": 127}, {"time": 999, "pitch": 79, "duration": 3, "velocity": 127}, {"time": 1002, "pitch": 78, "duration": 3, "velocity": 127}, {"time": 1005, "pitch": 76, "duration": 3, "velocity": 127}, {"time": 1008, "pitch": 75, "duration": 6, "velocity": 127}, {"time": 1014, "pitch": 83, "duration": 3, "velocity": 127}, {"time": 1017, "pitch": 81, "duration": 3, "velocity": 127}, {"time": 1020, "pitch": 79, "duration": 3, "velocity": 127}, {"time": 1023, "pitch": 78, "duration": 3, "velocity": 127}, {"time": 1026, "pitch": 76, "duration": 6, "velocity": 127}, {"time": 1032, "pitch": 81, "duration": 3, "velocity": 127}, {"time": 1035, "pitch": 79, "duration": 3, "velocity": 127}, {"time": 1038, "pitch": 78, "duration": 3, "velocity": 127}, {"time": 1041, "pitch": 76, "duration": 3, "velocity": 127}, {"time": 1044, "pitch": 78, "duration": 3, "velocity": 127}, {"time": 1047, "pitch": 71, "duration": 3, "velocity": 127}, {"time": 1050, "pitch": 83, "duration": 3, "velocity": 127}, {"time": 1053, "pitch": 81, "duration": 3, "velocity": 127}, {"time": 1056, "pitch": 79, "duration": 3, "velocity": 127}, {"time": 1059, "pitch": 78, "duration": 3, "velocity": 127}, {"time": 1062, "pitch": 79, "duration": 6, "velocity": 127}, {"time": 1068, "pitch": 76, "duration": 3, "velocity": 127}, {"time": 1071, "pitch": 78, "duration": 3, "velocity": 127}, {"time": 1074, "pitch": 79, "duration": 3, "velocity": 127}, {"time": 1077, "pitch": 81, "duration": 3, "velocity": 127}, {"time": 1080, "pitch": 83, "duration": 6, "velocity": 127}, {"time": 1086, "pitch": 78, "duration": 3, "velocity": 127}, {"time": 1089, "pitch": 79, "duration": 3, "velocity": 127}, {"time": 1092, "pitch": 78, "duration": 3, "velocity": 127}, {"time": 1095, "pitch": 79, "duration": 3, "velocity": 127}, {"time": 1098, "pitch": 81, "duration": 6, "velocity": 127}, {"time": 1104, "pitch": 76, "duration": 3, "velocity": 127}, {"time": 1107, "pitch": 79, "duration": 3, "velocity": 127}, {"time": 1110, "pitch": 78, "duration": 3, "velocity": 127}, {"time": 1113, "pitch": 76, "duration": 3, "velocity": 127}, {"time": 1116, "pitch": 75, "duration": 9, "velocity": 127}, {"time": 1125, "pitch": 84, "duration": 3, "velocity": 127}, {"time": 1128, "pitch": 83, "duration": 6, "velocity": 127}, {"time": 1134, "pitch": 81, "duration": 3, "velocity": 127}, {"time": 1137, "pitch": 79, "duration": 3, "velocity": 127}, {"time": 1140, "pitch": 78, "duration": 9, "velocity": 127}, {"time": 1149, "pitch": 76, "duration": 3, "velocity": 127}, {"time": 1152, "pitch": 76, "duration": 6, "velocity": 127}, {"time": 1158, "pitch": 79, "duration": 18, "velocity": 127}, {"time": 1176, "pitch": 78, "duration": 3, "velocity": 127}, {"time": 1179, "pitch": 76, "duration": 3, "velocity": 127}, {"time": 1182, "pitch": 74, "duration": 3, "velocity": 127}, {"time": 1185, "pitch": 72, "duration": 3, "velocity": 127}, {"time": 1188, "pitch": 71, "duration": 6, "velocity": 127}, {"time": 1194, "pitch": 74, "duration": 12, "velocity": 127}, {"time": 1206, "pitch": 76, "duration": 18, "velocity": 127}, {"time": 1224, "pitch": 78, "duration": 18, "velocity": 127}, {"time": 1242, "pitch": 79, "duration": 6, "velocity": 127}, {"time": 1248, "pitch": 67, "duration": 6, "velocity": 127}, {"time": 1254, "pitch": 67, "duration": 6, "velocity": 127}, {"time": 1260, "pitch": 69, "duration": 6, "velocity": 127}, {"time": 1266, "pitch": 69, "duration": 9, "velocity": 127}, {"time": 1275, "pitch": 67, "duration": 1, "velocity": 127}, {"time": 1276, "pitch": 69, "duration": 2, "velocity": 127}, {"time": 1278, "pitch": 71, "duration": 6, "velocity": 127}, {"time": 1284, "pitch": 67, "duration": 6, "velocity": 127}, {"time": 1290, "pitch": 72, "duration": 12, "velocity": 127}, {"time": 1302, "pitch": 71, "duration": 3, "velocity": 127}, {"time": 1305, "pitch": 69, "duration": 3, "velocity": 127}, {"time": 1308, "pitch": 71, "duration": 3, "velocity": 127}, {"time": 1311, "pitch": 72, "duration": 3, "velocity": 127}, {"time": 1314, "pitch": 69, "duration": 6, "velocity": 127}, {"time": 1320, "pitch": 74, "duration": 6, "velocity": 127}, {"time": 1326, "pitch": 74, "duration": 6, "velocity": 127}, {"time": 1332, "pitch": 74, "duration": 42, "velocity": 127}, {"time": 1374, "pitch": 79, "duration": 6, "velocity": 127}, {"time": 1380, "pitch": 79, "duration": 6, "velocity": 127}, {"time": 1386, "pitch": 79, "duration": 42, "velocity": 127}, {"time": 1428, "pitch": 84, "duration": 6, "velocity": 127}, {"time": 1434, "pitch": 84, "duration": 6, "velocity": 127}, {"time": 1440, "pitch": 84, "duration": 39, "velocity": 127}, {"time": 1479, "pitch": 82, "duration": 3, "velocity": 127}, {"time": 1482, "pitch": 81, "duration": 3, "velocity": 127}, {"time": 1485, "pitch": 79, "duration": 3, "velocity": 127}, {"time": 1488, "pitch": 77, "duration": 3, "velocity": 127}, {"time": 1491, "pitch": 76, "duration": 3, "velocity": 127}, {"time": 1494, "pitch": 74, "duration": 6, "velocity": 127}, {"time": 1500, "pitch": 79, "duration": 3, "velocity": 127}, {"time": 1503, "pitch": 77, "duration": 3, "velocity": 127}, {"time": 1506, "pitch": 76, "duration": 3, "velocity": 127}, {"time": 1509, "pitch": 74, "duration": 3, "velocity": 127}, {"time": 1512, "pitch": 76, "duration": 3, "velocity": 127}, {"time": 1515, "pitch": 72, "duration": 3, "velocity": 127}, {"time": 1518, "pitch": 81, "duration": 3, "velocity": 127}, {"time": 1521, "pitch": 79, "duration": 3, "velocity": 127}, {"time": 1524, "pitch": 77, "duration": 3, "velocity": 127}, {"time": 1527, "pitch": 76, "duration": 3, "velocity": 127}, {"time": 1530, "pitch": 77, "duration": 6, "velocity": 127}, {"time": 1536, "pitch": 82, "duration": 12, "velocity": 127}, {"time": 1548, "pitch": 72, "duration": 9, "velocity": 127}, {"time": 1557, "pitch": 82, "duration": 3, "velocity": 127}, {"time": 1560, "pitch": 81, "duration": 3, "velocity": 127}, {"time": 1563, "pitch": 77, "duration": 3, "velocity": 127}, {"time": 1566, "pitch": 79, "duration": 3, "velocity": 127}, {"time": 1569, "pitch": 74, "duration": 3, "velocity": 127}, {"time": 1572, "pitch": 76, "duration": 9, "velocity": 127}, {"time": 1581, "pitch": 77, "duration": 3, "velocity": 127}, {"time": 1584, "pitch": 77, "duration": 6, "velocity": 127}, {"time": 1590, "pitch": 72, "duration": 6, "velocity": 127}, {"time": 1596, "pitch": 72, "duration": 6, "velocity": 127}, {"time": 1602, "pitch": 72, "duration": 42, "velocity": 127}, {"time": 1644, "pitch": 72, "duration": 6, "velocity": 127}, {"time": 1650, "pitch": 72, "duration": 6, "velocity": 127}, {"time": 1656, "pitch": 74, "duration": 18, "velocity": 127}, {"time": 1674, "pitch": 76, "duration": 18, "velocity": 127}, {"time": 1692, "pitch": 77, "duration": 18, "velocity": 127}, {"time": 1710, "pitch": 79, "duration": 18, "velocity": 127}, {"time": 1728, "pitch": 81, "duration": 18, "velocity": 127}, {"time": 1746, "pitch": 83, "duration": 18, "velocity": 127}, {"time": 1764, "pitch": 84, "duration": 6, "velocity": 127}, {"time": 1770, "pitch": 72, "duration": 6, "velocity": 127}, {"time": 1776, "pitch": 72, "duration": 6, "velocity": 127}, {"time": 1782, "pitch": 74, "duration": 6, "velocity": 127}, {"time": 1788, "pitch": 74, "duration": 9, "velocity": 127}, {"time": 1797, "pitch": 72, "duration": 1, "velocity": 127}, {"time": 1798, "pitch": 74, "duration": 2, "velocity": 127}, {"time": 1800, "pitch": 76, "duration": 6, "velocity": 127}, {"time": 1806, "pitch": 72, "duration": 6, "velocity": 127}, {"time": 1812, "pitch": 77, "duration": 12, "velocity": 127}, {"time": 1824, "pitch": 76, "duration": 3, "velocity": 127}, {"time": 1827, "pitch": 74, "duration": 3, "velocity": 127}, {"time": 1830, "pitch": 76, "duration": 3, "velocity": 127}, {"time": 1833, "pitch": 77, "duration": 3, "velocity": 127}, {"time": 1836, "pitch": 74, "duration": 6, "velocity": 127}, {"time": 1842, "pitch": 86, "duration": 18, "velocity": 127}, {"time": 1860, "pitch": 79, "duration": 6, "velocity": 127}, {"time": 1866, "pitch": 84, "duration": 6, "velocity": 127}, {"time": 1872, "pitch": 84, "duration": 9, "velocity": 127}, {"time": 1881, "pitch": 86, "duration": 3, "velocity": 127}, {"time": 1884, "pitch": 83, "duration": 6, "velocity": 127}, {"time": 1893, "pitch": 81, "duration": 3, "velocity": 127}, {"time": 1896, "pitch": 81, "duration": 9, "velocity": 127}, {"time": 1905, "pitch": 79, "duration": 3, "velocity": 127}, {"time": 1908, "pitch": 79, "duration": 9, "velocity": 127}, {"time": 1917, "pitch": 74, "duration": 3, "velocity": 127}, {"time": 1920, "pitch": 76, "duration": 3, "velocity": 127}, {"time": 1923, "pitch": 71, "duration": 3, "velocity": 127}, {"time": 1926, "pitch": 72, "duration": 3, "velocity": 127}, {"time": 1929, "pitch": 76, "duration": 3, "velocity": 127}, {"time": 1932, "pitch": 74, "duration": 3, "velocity": 127}, {"time": 1935, "pitch": 72, "duration": 3, "velocity": 127}, {"time": 1938, "pitch": 71, "duration": 3, "velocity": 127}, {"time": 1941, "pitch": 69, "duration": 3, "velocity": 127}, {"time": 1944, "pitch": 67, "duration": 3, "velocity": 127}, {"time": 1947, "pitch": 71, "duration": 3, "velocity": 127}, {"time": 1950, "pitch": 72, "duration": 3, "velocity": 127}, {"time": 1953, "pitch": 74, "duration": 3, "velocity": 127}, {"time": 1956, "pitch": 76, "duration": 3, "velocity": 127}, {"time": 1959, "pitch": 72, "duration": 3, "velocity": 127}, {"time": 1962, "pitch": 77, "duration": 3, "velocity": 127}, {"time": 1965, "pitch": 81, "duration": 3, "velocity": 127}, {"time": 1968, "pitch": 71, "duration": 3, "velocity": 127}, {"time": 1971, "pitch": 81, "duration": 3, "velocity": 127}, {"time": 1974, "pitch": 79, "duration": 3, "velocity": 127}, {"time": 1977, "pitch": 77, "duration": 3, "velocity": 127}, {"time": 1980, "pitch": 76, "duration": 6, "velocity": 127}, {"time": 1986, "pitch": 84, "duration": 18, "velocity": 127}, {"time": 2004, "pitch": 83, "duration": 18, "velocity": 127}, {"time": 2022, "pitch": 81, "duration": 18, "velocity": 127}, {"time": 2040, "pitch": 79, "duration": 18, "velocity": 127}, {"time": 2058, "pitch": 77, "duration": 18, "velocity": 127}, {"time": 2076, "pitch": 76, "duration": 15, "velocity": 127}, {"time": 2091, "pitch": 77, "duration": 3, "velocity": 127}, {"time": 2094, "pitch": 74, "duration": 3, "velocity": 127}, {"time": 2097, "pitch": 76, "duration": 3, "velocity": 127}, {"time": 2100, "pitch": 72, "duration": 3, "velocity": 127}, {"time": 2103, "pitch": 74, "duration": 3, "velocity": 127}, {"time": 2106, "pitch": 71, "duration": 3, "velocity": 127}, {"time": 2109, "pitch": 67, "duration": 3, "velocity": 127}, {"time": 2112, "pitch": 76, "duration": 3, "velocity": 127}, {"time": 2115, "pitch": 74, "duration": 3, "velocity": 127}, {"time": 2118, "pitch": 72, "duration": 3, "velocity": 127}, {"time": 2121, "pitch": 71, "duration": 3, "velocity": 127}, {"time": 2124, "pitch": 72, "duration": 3, "velocity": 127}, {"time": 2127, "pitch": 69, "duration": 3, "velocity": 127}, {"time": 2130, "pitch": 77, "duration": 3, "velocity": 127}, {"time": 2133, "pitch": 76, "duration": 3, "velocity": 127}, {"time": 2136, "pitch": 74, "duration": 3, "velocity": 127}, {"time": 2139, "pitch": 72, "duration": 3, "velocity": 127}, {"time": 2142, "pitch": 74, "duration": 3, "velocity": 127}, {"time": 2145, "pitch": 71, "duration": 3, "velocity": 127}, {"time": 2148, "pitch": 79, "duration": 3, "velocity": 127}, {"time": 2151, "pitch": 77, "duration": 3, "velocity": 127}, {"time": 2154, "pitch": 76, "duration": 3, "velocity": 127}, {"time": 2157, "pitch": 74, "duration": 3, "velocity": 127}, {"time": 2160, "pitch": 76, "duration": 6, "velocity": 127}, {"time": 2166, "pitch": 79, "duration": 12, "velocity": 127}, {"time": 2178, "pitch": 81, "duration": 18, "velocity": 127}, {"time": 2196, "pitch": 83, "duration": 18, "velocity": 127}, {"time": 2214, "pitch": 84, "duration": 9, "velocity": 127}, {"time": 2223, "pitch": 83, "duration": 3, "velocity": 127}, {"time": 2226, "pitch": 81, "duration": 3, "velocity": 127}, {"time": 2229, "pitch": 79, "duration": 3, "velocity": 127}, {"time": 2232, "pitch": 81, "duration": 3, "velocity": 127}, {"time": 2235, "pitch": 79, "duration": 3, "velocity": 127}, {"time": 2238, "pitch": 77, "duration": 3, "velocity": 127}, {"time": 2241, "pitch": 76, "duration": 3, "velocity": 127}, {"time": 2244, "pitch": 74, "duration": 3, "velocity": 127}, {"time": 2247, "pitch": 72, "duration": 3, "velocity": 127}, {"time": 2250, "pitch": 71, "duration": 9, "velocity": 127}, {"time": 2259, "pitch": 81, "duration": 3, "velocity": 127}, {"time": 2262, "pitch": 79, "duration": 3, "velocity": 127}, {"time": 2265, "pitch": 84, "duration": 3, "velocity": 127}, {"time": 2268, "pitch": 83, "duration": 3, "velocity": 127}, {"time": 2271, "pitch": 84, "duration": 3, "velocity": 127}, {"time": 2274, "pitch": 76, "duration": 6, "velocity": 127}, {"time": 2280, "pitch": 74, "duration": 4, "velocity": 127}, {"time": 2284, "pitch": 72, "duration": 2, "velocity": 127}, {"time": 2286, "pitch": 72, "duration": 9, "velocity": 127}, {"time": 2295, "pitch": 71, "duration": 3, "velocity": 127}, {"time": 2298, "pitch": 69, "duration": 3, "velocity": 127}, {"time": 2301, "pitch": 67, "duration": 3, "velocity": 127}, {"time": 2304, "pitch": 69, "duration": 3, "velocity": 127}, {"time": 2307, "pitch": 72, "duration": 3, "velocity": 127}, {"time": 2310, "pitch": 77, "duration": 3, "velocity": 127}, {"time": 2313, "pitch": 76, "duration": 3, "velocity": 127}, {"time": 2316, "pitch": 74, "duration": 3, "velocity": 127}, {"time": 2319, "pitch": 72, "duration": 3, "velocity": 127}, {"time": 2322, "pitch": 71, "duration": 9, "velocity": 127}, {"time": 2331, "pitch": 77, "duration": 3, "velocity": 127}, {"time": 2334, "pitch": 76, "duration": 6, "velocity": 127}, {"time": 2343, "pitch": 74, "duration": 3, "velocity": 127}, {"time": 2346, "pitch": 74, "duration": 9, "velocity": 127}, {"time": 2355, "pitch": 72, "duration": 3, "velocity": 127}, {"time": 2358, "pitch": 72, "duration": 18, "velocity": 127}]}]}