{"metadata": {"schema_version": "0.2"}, "resolution": 24, "tracks": [{"program": 6, "is_drum": false, "name": "", "notes": [{"time": 0, "pitch": 55, "duration": 6, "velocity": 127}, {"time": 6, "pitch": 57, "duration": 6, "velocity": 127}, {"time": 12, "pitch": 58, "duration": 6, "velocity": 127}, {"time": 18, "pitch": 55, "duration": 6, "velocity": 127}, {"time": 24, "pitch": 60, "duration": 6, "velocity": 127}, {"time": 30, "pitch": 57, "duration": 6, "velocity": 127}, {"time": 36, "pitch": 62, "duration": 6, "velocity": 127}, {"time": 42, "pitch": 50, "duration": 6, "velocity": 127}, {"time": 48, "pitch": 55, "duration": 6, "velocity": 127}, {"time": 54, "pitch": 58, "duration": 6, "velocity": 127}, {"time": 60, "pitch": 57, "duration": 6, "velocity": 127}, {"time": 66, "pitch": 55, "duration": 6, "velocity": 127}, {"time": 72, "pitch": 50, "duration": 6, "velocity": 127}, {"time": 78, "pitch": 52, "duration": 6, "velocity": 127}, {"time": 84, "pitch": 54, "duration": 6, "velocity": 127}, {"time": 90, "pitch": 50, "duration": 6, "velocity": 127}, {"time": 96, "pitch": 55, "duration": 6, "velocity": 127}, {"time": 102, "pitch": 58, "duration": 6, "velocity": 127}, {"time": 108, "pitch": 57, "duration": 6, "velocity": 127}, {"time": 114, "pitch": 53, "duration": 6, "velocity": 127}, {"time": 120, "pitch": 58, "duration": 6, "velocity": 127}, {"time": 126, "pitch": 46, "duration": 6, "velocity": 127}, {"time": 138, "pitch": 57, "duration": 6, "velocity": 127}, {"time": 144, "pitch": 55, "duration": 6, "velocity": 127}, {"time": 150, "pitch": 43, "duration": 6, "velocity": 127}, {"time": 162, "pitch": 53, "duration": 6, "velocity": 127}, {"time": 168, "pitch": 51, "duration": 6, "velocity": 127}, {"time": 174, "pitch": 39, "duration": 6, "velocity": 127}, {"time": 180, "pitch": 38, "duration": 6, "velocity": 127}, {"time": 186, "pitch": 50, "duration": 6, "velocity": 127}, {"time": 192, "pitch": 51, "duration": 6, "velocity": 127}, {"time": 198, "pitch": 46, "duration": 6, "velocity": 127}, {"time": 204, "pitch": 53, "duration": 6, "velocity": 127}, {"time": 210, "pitch": 41, "duration": 6, "velocity": 127}, {"time": 216, "pitch": 46, "duration": 6, "velocity": 127}, {"time": 222, "pitch": 50, "duration": 4, "velocity": 127}, {"time": 226, "pitch": 48, "duration": 2, "velocity": 127}, {"time": 228, "pitch": 46, "duration": 6, "velocity": 127}, {"time": 234, "pitch": 45, "duration": 6, "velocity": 127}, {"time": 240, "pitch": 43, "duration": 6, "velocity": 127}, {"time": 246, "pitch": 55, "duration": 6, "velocity": 127}, {"time": 252, "pitch": 58, "duration": 6, "velocity": 127}, {"time": 258, "pitch": 55, "duration": 6, "velocity": 127}, {"time": 264, "pitch": 60, "duration": 6, "velocity": 127}, {"time": 270, "pitch": 58, "duration": 6, "velocity": 127}, {"time": 276, "pitch": 57, "duration": 6, "velocity": 127}, {"time": 282, "pitch": 55, "duration": 6, "velocity": 127}, {"time": 288, "pitch": 54, "duration": 6, "velocity": 127}, {"time": 294, "pitch": 54, "duration": 3, "velocity": 127}, {"time": 297, "pitch": 52, "duration": 3, "velocity": 127}, {"time": 300, "pitch": 54, "duration": 6, "velocity": 127}, {"time": 306, "pitch": 50, "duration": 6, "velocity": 127}, {"time": 312, "pitch": 55, "duration": 6, "velocity": 127}, {"time": 318, "pitch": 57, "duration": 6, "velocity": 127}, {"time": 324, "pitch": 58, "duration": 6, "velocity": 127}, {"time": 330, "pitch": 55, "duration": 6, "velocity": 127}, {"time": 336, "pitch": 57, "duration": 6, "velocity": 127}, {"time": 342, "pitch": 61, "duration": 6, "velocity": 127}, {"time": 348, "pitch": 62, "duration": 6, "velocity": 127}, {"time": 354, "pitch": 57, "duration": 6, "velocity": 127}, {"time": 366, "pitch": 50, "duration": 6, "velocity": 127}, {"time": 372, "pitch": 58, "duration": 6, "velocity": 127}, {"time": 378, "pitch": 57, "duration": 6, "velocity": 127}, {"time": 390, "pitch": 57, "duration": 6, "velocity": 127}, {"time": 396, "pitch": 55, "duration": 6, "velocity": 127}, {"time": 402, "pitch": 53, "duration": 6, "velocity": 127}, {"time": 408, "pitch": 55, "duration": 6, "velocity": 127}, {"time": 414, "pitch": 53, "duration": 6, "velocity": 127}, {"time": 420, "pitch": 52, "duration": 6, "velocity": 127}, {"time": 426, "pitch": 50, "duration": 6, "velocity": 127}, {"time": 432, "pitch": 49, "duration": 6, "velocity": 127}, {"time": 438, "pitch": 45, "duration": 6, "velocity": 127}, {"time": 444, "pitch": 50, "duration": 6, "velocity": 127}, {"time": 450, "pitch": 55, "duration": 6, "velocity": 127}, {"time": 456, "pitch": 57, "duration": 6, "velocity": 127}, {"time": 462, "pitch": 55, "duration": 6, "velocity": 127}, {"time": 468, "pitch": 57, "duration": 6, "velocity": 127}, {"time": 474, "pitch": 45, "duration": 6, "velocity": 127}, {"time": 480, "pitch": 50, "duration": 6, "velocity": 127}, {"time": 486, "pitch": 53, "duration": 3, "velocity": 127}, {"time": 489, "pitch": 51, "duration": 3, "velocity": 127}, {"time": 492, "pitch": 50, "duration": 6, "velocity": 127}, {"time": 498, "pitch": 48, "duration": 6, "velocity": 127}, {"time": 504, "pitch": 47, "duration": 6, "velocity": 127}, {"time": 510, "pitch": 45, "duration": 6, "velocity": 127}, {"time": 516, "pitch": 47, "duration": 6, "velocity": 127}, {"time": 522, "pitch": 43, "duration": 6, "velocity": 127}, {"time": 528, "pitch": 48, "duration": 6, "velocity": 127}, {"time": 534, "pitch": 51, "duration": 6, "velocity": 127}, {"time": 540, "pitch": 53, "duration": 6, "velocity": 127}, {"time": 546, "pitch": 55, "duration": 6, "velocity": 127}, {"time": 552, "pitch": 51, "duration": 6, "velocity": 127}, {"time": 558, "pitch": 48, "duration": 6, "velocity": 127}, {"time": 564, "pitch": 53, "duration": 6, "velocity": 127}, {"time": 570, "pitch": 57, "duration": 6, "velocity": 127}, {"time": 576, "pitch": 58, "duration": 6, "velocity": 127}, {"time": 582, "pitch": 55, "duration": 6, "velocity": 127}, {"time": 588, "pitch": 51, "duration": 6, "velocity": 127}, {"time": 594, "pitch": 53, "duration": 6, "velocity": 127}, {"time": 600, "pitch": 46, "duration": 18, "velocity": 127}, {"time": 618, "pitch": 43, "duration": 6, "velocity": 127}, {"time": 624, "pitch": 48, "duration": 18, "velocity": 127}, {"time": 642, "pitch": 45, "duration": 6, "velocity": 127}, {"time": 648, "pitch": 50, "duration": 12, "velocity": 127}, {"time": 666, "pitch": 50, "duration": 6, "velocity": 127}, {"time": 672, "pitch": 55, "duration": 6, "velocity": 127}, {"time": 678, "pitch": 53, "duration": 6, "velocity": 127}, {"time": 684, "pitch": 51, "duration": 6, "velocity": 127}, {"time": 690, "pitch": 50, "duration": 6, "velocity": 127}, {"time": 696, "pitch": 48, "duration": 6, "velocity": 127}, {"time": 702, "pitch": 46, "duration": 6, "velocity": 127}, {"time": 708, "pitch": 45, "duration": 6, "velocity": 127}, {"time": 714, "pitch": 43, "duration": 6, "velocity": 127}, {"time": 720, "pitch": 50, "duration": 6, "velocity": 127}, {"time": 726, "pitch": 54, "duration": 6, "velocity": 127}, {"time": 732, "pitch": 55, "duration": 6, "velocity": 127}, {"time": 738, "pitch": 54, "duration": 6, "velocity": 127}, {"time": 750, "pitch": 54, "duration": 6, "velocity": 127}, {"time": 756, "pitch": 55, "duration": 6, "velocity": 127}, {"time": 762, "pitch": 50, "duration": 6, "velocity": 127}, {"time": 774, "pitch": 50, "duration": 6, "velocity": 127}, {"time": 780, "pitch": 51, "duration": 6, "velocity": 127}, {"time": 786, "pitch": 48, "duration": 6, "velocity": 127}, {"time": 792, "pitch": 50, "duration": 6, "velocity": 127}, {"time": 798, "pitch": 38, "duration": 6, "velocity": 127}, {"time": 804, "pitch": 43, "duration": 6, "velocity": 127}, {"time": 810, "pitch": 48, "duration": 6, "velocity": 127}, {"time": 816, "pitch": 50, "duration": 6, "velocity": 127}, {"time": 822, "pitch": 48, "duration": 6, "velocity": 127}, {"time": 828, "pitch": 50, "duration": 6, "velocity": 127}, {"time": 834, "pitch": 38, "duration": 6, "velocity": 127}, {"time": 840, "pitch": 43, "duration": 18, "velocity": 127}, {"time": 858, "pitch": 55, "duration": 6, "velocity": 127}, {"time": 864, "pitch": 53, "duration": 18, "velocity": 127}, {"time": 882, "pitch": 46, "duration": 6, "velocity": 127}, {"time": 888, "pitch": 51, "duration": 24, "velocity": 127}, {"time": 912, "pitch": 50, "duration": 48, "velocity": 127}]}]}