{"metadata": {"schema_version": "0.2"}, "resolution": 24, "tracks": [{"program": 48, "is_drum": false, "name": "Voice II", "notes": [{"time": 48, "pitch": 48, "duration": 6, "velocity": 60}, {"time": 54, "pitch": 50, "duration": 6, "velocity": 60}, {"time": 60, "pitch": 52, "duration": 6, "velocity": 60}, {"time": 66, "pitch": 53, "duration": 6, "velocity": 60}, {"time": 72, "pitch": 55, "duration": 6, "velocity": 60}, {"time": 78, "pitch": 50, "duration": 6, "velocity": 60}, {"time": 84, "pitch": 55, "duration": 6, "velocity": 60}, {"time": 90, "pitch": 53, "duration": 6, "velocity": 60}, {"time": 96, "pitch": 52, "duration": 18, "velocity": 60}, {"time": 114, "pitch": 57, "duration": 6, "velocity": 60}, {"time": 120, "pitch": 50, "duration": 10, "velocity": 60}, {"time": 132, "pitch": 55, "duration": 10, "velocity": 60}, {"time": 144, "pitch": 48, "duration": 6, "velocity": 60}, {"time": 150, "pitch": 55, "duration": 6, "velocity": 60}, {"time": 156, "pitch": 57, "duration": 6, "velocity": 60}, {"time": 162, "pitch": 59, "duration": 6, "velocity": 60}, {"time": 168, "pitch": 60, "duration": 6, "velocity": 60}, {"time": 174, "pitch": 55, "duration": 6, "velocity": 60}, {"time": 180, "pitch": 48, "duration": 10, "velocity": 60}, {"time": 192, "pitch": 47, "duration": 21, "velocity": 45}, {"time": 216, "pitch": 42, "duration": 21, "velocity": 45}, {"time": 240, "pitch": 43, "duration": 6, "velocity": 45}, {"time": 246, "pitch": 45, "duration": 6, "velocity": 45}, {"time": 252, "pitch": 47, "duration": 6, "velocity": 45}, {"time": 258, "pitch": 48, "duration": 6, "velocity": 45}, {"time": 264, "pitch": 50, "duration": 6, "velocity": 45}, {"time": 270, "pitch": 45, "duration": 6, "velocity": 45}, {"time": 276, "pitch": 50, "duration": 6, "velocity": 45}, {"time": 282, "pitch": 48, "duration": 6, "velocity": 45}, {"time": 288, "pitch": 47, "duration": 21, "velocity": 45}, {"time": 312, "pitch": 45, "duration": 6, "velocity": 52}, {"time": 318, "pitch": 50, "duration": 6, "velocity": 53}, {"time": 324, "pitch": 45, "duration": 6, "velocity": 55}, {"time": 330, "pitch": 47, "duration": 6, "velocity": 57}, {"time": 336, "pitch": 48, "duration": 6, "velocity": 59}, {"time": 342, "pitch": 50, "duration": 6, "velocity": 61}, {"time": 348, "pitch": 52, "duration": 6, "velocity": 63}, {"time": 354, "pitch": 53, "duration": 6, "velocity": 65}, {"time": 360, "pitch": 55, "duration": 6, "velocity": 67}, {"time": 366, "pitch": 50, "duration": 6, "velocity": 69}, {"time": 372, "pitch": 55, "duration": 6, "velocity": 71}, {"time": 378, "pitch": 53, "duration": 6, "velocity": 73}, {"time": 384, "pitch": 52, "duration": 21, "velocity": 75}, {"time": 408, "pitch": 53, "duration": 12, "velocity": 73}, {"time": 420, "pitch": 52, "duration": 6, "velocity": 72}, {"time": 426, "pitch": 50, "duration": 6, "velocity": 72}, {"time": 432, "pitch": 48, "duration": 10, "velocity": 72}, {"time": 456, "pitch": 43, "duration": 6, "velocity": 70}, {"time": 462, "pitch": 45, "duration": 6, "velocity": 70}, {"time": 468, "pitch": 47, "duration": 6, "velocity": 70}, {"time": 474, "pitch": 48, "duration": 6, "velocity": 70}, {"time": 480, "pitch": 50, "duration": 6, "velocity": 70}, {"time": 486, "pitch": 45, "duration": 6, "velocity": 70}, {"time": 492, "pitch": 50, "duration": 6, "velocity": 70}, {"time": 498, "pitch": 48, "duration": 6, "velocity": 70}, {"time": 504, "pitch": 47, "duration": 6, "velocity": 70}, {"time": 510, "pitch": 43, "duration": 6, "velocity": 70}, {"time": 516, "pitch": 55, "duration": 6, "velocity": 70}, {"time": 522, "pitch": 53, "duration": 6, "velocity": 70}, {"time": 528, "pitch": 52, "duration": 21, "velocity": 70}, {"time": 552, "pitch": 54, "duration": 21, "velocity": 66}, {"time": 576, "pitch": 55, "duration": 6, "velocity": 62}, {"time": 582, "pitch": 50, "duration": 6, "velocity": 61}, {"time": 588, "pitch": 55, "duration": 6, "velocity": 60}, {"time": 594, "pitch": 53, "duration": 6, "velocity": 59}, {"time": 600, "pitch": 52, "duration": 10, "velocity": 58}, {"time": 624, "pitch": 53, "duration": 6, "velocity": 54}, {"time": 630, "pitch": 48, "duration": 6, "velocity": 53}, {"time": 636, "pitch": 53, "duration": 6, "velocity": 52}, {"time": 642, "pitch": 52, "duration": 6, "velocity": 51}, {"time": 648, "pitch": 50, "duration": 6, "velocity": 50}, {"time": 654, "pitch": 55, "duration": 6, "velocity": 49}, {"time": 660, "pitch": 53, "duration": 6, "velocity": 48}, {"time": 666, "pitch": 55, "duration": 6, "velocity": 47}, {"time": 672, "pitch": 52, "duration": 21, "velocity": 45}, {"time": 696, "pitch": 47, "duration": 10, "velocity": 45}, {"time": 720, "pitch": 48, "duration": 6, "velocity": 45}, {"time": 726, "pitch": 50, "duration": 6, "velocity": 45}, {"time": 732, "pitch": 52, "duration": 6, "velocity": 45}, {"time": 738, "pitch": 53, "duration": 6, "velocity": 45}, {"time": 744, "pitch": 55, "duration": 6, "velocity": 45}, {"time": 750, "pitch": 50, "duration": 6, "velocity": 45}, {"time": 756, "pitch": 55, "duration": 6, "velocity": 45}, {"time": 762, "pitch": 53, "duration": 6, "velocity": 45}, {"time": 768, "pitch": 52, "duration": 21, "velocity": 45}, {"time": 792, "pitch": 50, "duration": 10, "velocity": 45}, {"time": 804, "pitch": 55, "duration": 10, "velocity": 45}, {"time": 816, "pitch": 53, "duration": 6, "velocity": 45}, {"time": 822, "pitch": 52, "duration": 6, "velocity": 45}, {"time": 828, "pitch": 53, "duration": 6, "velocity": 45}, {"time": 834, "pitch": 55, "duration": 6, "velocity": 45}, {"time": 840, "pitch": 52, "duration": 6, "velocity": 45}, {"time": 846, "pitch": 50, "duration": 6, "velocity": 45}, {"time": 852, "pitch": 52, "duration": 6, "velocity": 45}, {"time": 858, "pitch": 53, "duration": 6, "velocity": 45}, {"time": 864, "pitch": 50, "duration": 21, "velocity": 45}, {"time": 888, "pitch": 48, "duration": 10, "velocity": 56}, {"time": 900, "pitch": 60, "duration": 10, "velocity": 62}, {"time": 912, "pitch": 59, "duration": 6, "velocity": 68}, {"time": 918, "pitch": 57, "duration": 6, "velocity": 71}, {"time": 924, "pitch": 59, "duration": 6, "velocity": 74}, {"time": 930, "pitch": 60, "duration": 6, "velocity": 77}, {"time": 936, "pitch": 57, "duration": 10, "velocity": 80}, {"time": 948, "pitch": 59, "duration": 10, "velocity": 86}, {"time": 960, "pitch": 60, "duration": 6, "velocity": 92}, {"time": 966, "pitch": 48, "duration": 6, "velocity": 92}, {"time": 972, "pitch": 50, "duration": 6, "velocity": 92}, {"time": 978, "pitch": 52, "duration": 6, "velocity": 92}, {"time": 984, "pitch": 53, "duration": 10, "velocity": 92}, {"time": 996, "pitch": 52, "duration": 10, "velocity": 92}, {"time": 1008, "pitch": 50, "duration": 6, "velocity": 92}, {"time": 1014, "pitch": 62, "duration": 6, "velocity": 92}, {"time": 1020, "pitch": 55, "duration": 6, "velocity": 92}, {"time": 1026, "pitch": 57, "duration": 6, "velocity": 92}, {"time": 1032, "pitch": 59, "duration": 6, "velocity": 92}, {"time": 1038, "pitch": 55, "duration": 6, "velocity": 92}, {"time": 1044, "pitch": 52, "duration": 6, "velocity": 92}, {"time": 1050, "pitch": 57, "duration": 6, "velocity": 92}, {"time": 1056, "pitch": 50, "duration": 6, "velocity": 92}, {"time": 1062, "pitch": 55, "duration": 6, "velocity": 92}, {"time": 1068, "pitch": 52, "duration": 6, "velocity": 92}, {"time": 1074, "pitch": 53, "duration": 6, "velocity": 92}, {"time": 1080, "pitch": 55, "duration": 10, "velocity": 92}, {"time": 1092, "pitch": 43, "duration": 10, "velocity": 92}, {"time": 1104, "pitch": 48, "duration": 45, "velocity": 92}], "annotations": [{"time": 0, "annotation": {"number": 7, "value": 127}, "group": "control_change"}, {"time": 0, "annotation": {"number": 10, "value": 24}, "group": "control_change"}]}]}