{"metadata": {"schema_version": "0.2"}, "resolution": 24, "tracks": [{"program": 48, "is_drum": false, "name": "Voice I", "notes": [{"time": 0, "pitch": 60, "duration": 6, "velocity": 60}, {"time": 6, "pitch": 62, "duration": 6, "velocity": 60}, {"time": 12, "pitch": 64, "duration": 6, "velocity": 60}, {"time": 18, "pitch": 65, "duration": 6, "velocity": 60}, {"time": 24, "pitch": 67, "duration": 6, "velocity": 60}, {"time": 30, "pitch": 62, "duration": 6, "velocity": 60}, {"time": 36, "pitch": 67, "duration": 6, "velocity": 60}, {"time": 42, "pitch": 65, "duration": 6, "velocity": 60}, {"time": 48, "pitch": 64, "duration": 21, "velocity": 60}, {"time": 72, "pitch": 62, "duration": 30, "velocity": 60}, {"time": 102, "pitch": 55, "duration": 6, "velocity": 60}, {"time": 108, "pitch": 60, "duration": 10, "velocity": 60}, {"time": 120, "pitch": 59, "duration": 6, "velocity": 60}, {"time": 126, "pitch": 65, "duration": 6, "velocity": 60}, {"time": 132, "pitch": 64, "duration": 6, "velocity": 60}, {"time": 138, "pitch": 62, "duration": 6, "velocity": 60}, {"time": 144, "pitch": 64, "duration": 21, "velocity": 60}, {"time": 192, "pitch": 55, "duration": 6, "velocity": 45}, {"time": 198, "pitch": 57, "duration": 6, "velocity": 45}, {"time": 204, "pitch": 59, "duration": 6, "velocity": 45}, {"time": 210, "pitch": 60, "duration": 6, "velocity": 45}, {"time": 216, "pitch": 62, "duration": 6, "velocity": 45}, {"time": 222, "pitch": 57, "duration": 6, "velocity": 45}, {"time": 228, "pitch": 62, "duration": 6, "velocity": 45}, {"time": 234, "pitch": 60, "duration": 6, "velocity": 45}, {"time": 240, "pitch": 59, "duration": 21, "velocity": 45}, {"time": 264, "pitch": 57, "duration": 21, "velocity": 45}, {"time": 288, "pitch": 55, "duration": 6, "velocity": 45}, {"time": 294, "pitch": 67, "duration": 6, "velocity": 52}, {"time": 300, "pitch": 62, "duration": 6, "velocity": 59}, {"time": 306, "pitch": 64, "duration": 6, "velocity": 67}, {"time": 312, "pitch": 65, "duration": 21, "velocity": 75}, {"time": 336, "pitch": 64, "duration": 21, "velocity": 75}, {"time": 360, "pitch": 62, "duration": 21, "velocity": 75}, {"time": 384, "pitch": 60, "duration": 6, "velocity": 75}, {"time": 390, "pitch": 55, "duration": 6, "velocity": 75}, {"time": 396, "pitch": 60, "duration": 6, "velocity": 74}, {"time": 402, "pitch": 59, "duration": 6, "velocity": 73}, {"time": 408, "pitch": 57, "duration": 6, "velocity": 72}, {"time": 414, "pitch": 59, "duration": 6, "velocity": 71}, {"time": 420, "pitch": 60, "duration": 6, "velocity": 70}, {"time": 426, "pitch": 62, "duration": 6, "velocity": 69}, {"time": 432, "pitch": 64, "duration": 6, "velocity": 68}, {"time": 438, "pitch": 62, "duration": 6, "velocity": 67}, {"time": 444, "pitch": 60, "duration": 6, "velocity": 66}, {"time": 450, "pitch": 62, "duration": 6, "velocity": 65}, {"time": 456, "pitch": 59, "duration": 6, "velocity": 64}, {"time": 462, "pitch": 57, "duration": 6, "velocity": 63}, {"time": 468, "pitch": 55, "duration": 6, "velocity": 62}, {"time": 474, "pitch": 57, "duration": 6, "velocity": 61}, {"time": 480, "pitch": 54, "duration": 21, "velocity": 60}, {"time": 504, "pitch": 55, "duration": 10, "velocity": 60}, {"time": 528, "pitch": 55, "duration": 6, "velocity": 60}, {"time": 534, "pitch": 57, "duration": 6, "velocity": 60}, {"time": 540, "pitch": 59, "duration": 6, "velocity": 60}, {"time": 546, "pitch": 60, "duration": 6, "velocity": 60}, {"time": 552, "pitch": 62, "duration": 6, "velocity": 60}, {"time": 558, "pitch": 57, "duration": 6, "velocity": 60}, {"time": 564, "pitch": 62, "duration": 6, "velocity": 60}, {"time": 570, "pitch": 60, "duration": 6, "velocity": 60}, {"time": 576, "pitch": 59, "duration": 21, "velocity": 60}, {"time": 600, "pitch": 60, "duration": 6, "velocity": 60}, {"time": 606, "pitch": 55, "duration": 6, "velocity": 60}, {"time": 612, "pitch": 60, "duration": 6, "velocity": 60}, {"time": 618, "pitch": 59, "duration": 6, "velocity": 60}, {"time": 624, "pitch": 57, "duration": 21, "velocity": 60}, {"time": 648, "pitch": 59, "duration": 21, "velocity": 60}, {"time": 672, "pitch": 60, "duration": 6, "velocity": 45}, {"time": 678, "pitch": 62, "duration": 6, "velocity": 45}, {"time": 684, "pitch": 64, "duration": 6, "velocity": 45}, {"time": 690, "pitch": 65, "duration": 6, "velocity": 45}, {"time": 696, "pitch": 67, "duration": 6, "velocity": 45}, {"time": 702, "pitch": 62, "duration": 6, "velocity": 45}, {"time": 708, "pitch": 67, "duration": 6, "velocity": 45}, {"time": 714, "pitch": 65, "duration": 6, "velocity": 45}, {"time": 720, "pitch": 64, "duration": 6, "velocity": 45}, {"time": 726, "pitch": 62, "duration": 6, "velocity": 45}, {"time": 732, "pitch": 60, "duration": 6, "velocity": 45}, {"time": 738, "pitch": 62, "duration": 6, "velocity": 45}, {"time": 744, "pitch": 59, "duration": 21, "velocity": 45}, {"time": 768, "pitch": 60, "duration": 6, "velocity": 45}, {"time": 774, "pitch": 59, "duration": 6, "velocity": 45}, {"time": 780, "pitch": 60, "duration": 6, "velocity": 45}, {"time": 786, "pitch": 62, "duration": 6, "velocity": 45}, {"time": 792, "pitch": 59, "duration": 6, "velocity": 45}, {"time": 798, "pitch": 57, "duration": 6, "velocity": 45}, {"time": 804, "pitch": 59, "duration": 6, "velocity": 45}, {"time": 810, "pitch": 60, "duration": 6, "velocity": 45}, {"time": 816, "pitch": 57, "duration": 10, "velocity": 45}, {"time": 828, "pitch": 62, "duration": 21, "velocity": 45}, {"time": 852, "pitch": 60, "duration": 10, "velocity": 45}, {"time": 864, "pitch": 65, "duration": 6, "velocity": 45}, {"time": 870, "pitch": 64, "duration": 6, "velocity": 47}, {"time": 876, "pitch": 65, "duration": 6, "velocity": 50}, {"time": 882, "pitch": 67, "duration": 6, "velocity": 53}, {"time": 888, "pitch": 64, "duration": 6, "velocity": 56}, {"time": 894, "pitch": 62, "duration": 6, "velocity": 59}, {"time": 900, "pitch": 64, "duration": 6, "velocity": 62}, {"time": 906, "pitch": 65, "duration": 6, "velocity": 65}, {"time": 912, "pitch": 62, "duration": 10, "velocity": 68}, {"time": 924, "pitch": 67, "duration": 10, "velocity": 74}, {"time": 936, "pitch": 60, "duration": 6, "velocity": 80}, {"time": 942, "pitch": 65, "duration": 6, "velocity": 83}, {"time": 948, "pitch": 64, "duration": 6, "velocity": 86}, {"time": 954, "pitch": 62, "duration": 6, "velocity": 89}, {"time": 960, "pitch": 64, "duration": 6, "velocity": 92}, {"time": 966, "pitch": 52, "duration": 6, "velocity": 92}, {"time": 972, "pitch": 53, "duration": 6, "velocity": 92}, {"time": 978, "pitch": 55, "duration": 6, "velocity": 92}, {"time": 984, "pitch": 57, "duration": 6, "velocity": 92}, {"time": 990, "pitch": 60, "duration": 6, "velocity": 92}, {"time": 996, "pitch": 62, "duration": 6, "velocity": 92}, {"time": 1002, "pitch": 64, "duration": 6, "velocity": 92}, {"time": 1008, "pitch": 65, "duration": 10, "velocity": 92}, {"time": 1020, "pitch": 64, "duration": 10, "velocity": 92}, {"time": 1032, "pitch": 62, "duration": 10, "velocity": 92}, {"time": 1044, "pitch": 60, "duration": 10, "velocity": 92}, {"time": 1056, "pitch": 59, "duration": 10, "velocity": 92}, {"time": 1068, "pitch": 60, "duration": 6, "velocity": 92}, {"time": 1074, "pitch": 62, "duration": 6, "velocity": 92}, {"time": 1080, "pitch": 64, "duration": 2, "velocity": 92}, {"time": 1082, "pitch": 62, "duration": 1, "velocity": 92}, {"time": 1083, "pitch": 64, "duration": 1, "velocity": 92}, {"time": 1084, "pitch": 62, "duration": 2, "velocity": 92}, {"time": 1086, "pitch": 64, "duration": 2, "velocity": 92}, {"time": 1088, "pitch": 62, "duration": 1, "velocity": 92}, {"time": 1089, "pitch": 64, "duration": 1, "velocity": 92}, {"time": 1090, "pitch": 62, "duration": 2, "velocity": 92}, {"time": 1092, "pitch": 64, "duration": 2, "velocity": 92}, {"time": 1094, "pitch": 62, "duration": 1, "velocity": 92}, {"time": 1095, "pitch": 64, "duration": 1, "velocity": 92}, {"time": 1096, "pitch": 62, "duration": 2, "velocity": 92}, {"time": 1098, "pitch": 60, "duration": 6, "velocity": 92}, {"time": 1104, "pitch": 60, "duration": 45, "velocity": 92}], "annotations": [{"time": 0, "annotation": {"number": 7, "value": 127}, "group": "control_change"}, {"time": 0, "annotation": {"number": 10, "value": 104}, "group": "control_change"}]}]}