{"metadata": {"schema_version": "0.2"}, "resolution": 24, "tracks": [{"program": 42, "is_drum": false, "notes": [{"time": 6, "pitch": 57, "duration": 6, "velocity": 80}, {"time": 12, "pitch": 56, "duration": 6, "velocity": 80}, {"time": 18, "pitch": 52, "duration": 6, "velocity": 80}, {"time": 24, "pitch": 57, "duration": 6, "velocity": 80}, {"time": 30, "pitch": 45, "duration": 6, "velocity": 80}, {"time": 36, "pitch": 52, "duration": 6, "velocity": 80}, {"time": 42, "pitch": 50, "duration": 6, "velocity": 80}, {"time": 48, "pitch": 49, "duration": 6, "velocity": 80}, {"time": 54, "pitch": 57, "duration": 6, "velocity": 80}, {"time": 60, "pitch": 56, "duration": 6, "velocity": 80}, {"time": 66, "pitch": 52, "duration": 6, "velocity": 80}, {"time": 72, "pitch": 57, "duration": 6, "velocity": 80}, {"time": 78, "pitch": 45, "duration": 6, "velocity": 80}, {"time": 84, "pitch": 52, "duration": 6, "velocity": 80}, {"time": 90, "pitch": 50, "duration": 6, "velocity": 80}, {"time": 96, "pitch": 49, "duration": 6, "velocity": 80}, {"time": 102, "pitch": 45, "duration": 6, "velocity": 80}, {"time": 108, "pitch": 50, "duration": 6, "velocity": 80}, {"time": 114, "pitch": 47, "duration": 6, "velocity": 80}, {"time": 120, "pitch": 52, "duration": 6, "velocity": 80}, {"time": 126, "pitch": 49, "duration": 6, "velocity": 80}, {"time": 132, "pitch": 54, "duration": 6, "velocity": 80}, {"time": 138, "pitch": 50, "duration": 6, "velocity": 80}, {"time": 144, "pitch": 49, "duration": 6, "velocity": 80}, {"time": 150, "pitch": 45, "duration": 6, "velocity": 80}, {"time": 156, "pitch": 50, "duration": 6, "velocity": 80}, {"time": 162, "pitch": 47, "duration": 6, "velocity": 80}, {"time": 168, "pitch": 52, "duration": 6, "velocity": 80}, {"time": 174, "pitch": 40, "duration": 6, "velocity": 80}, {"time": 180, "pitch": 45, "duration": 6, "velocity": 80}, {"time": 186, "pitch": 57, "duration": 12, "velocity": 80}, {"time": 198, "pitch": 56, "duration": 6, "velocity": 80}, {"time": 204, "pitch": 57, "duration": 6, "velocity": 80}, {"time": 210, "pitch": 59, "duration": 6, "velocity": 80}, {"time": 216, "pitch": 61, "duration": 6, "velocity": 80}, {"time": 222, "pitch": 56, "duration": 6, "velocity": 80}, {"time": 228, "pitch": 57, "duration": 6, "velocity": 80}, {"time": 234, "pitch": 59, "duration": 6, "velocity": 80}, {"time": 240, "pitch": 61, "duration": 6, "velocity": 80}, {"time": 246, "pitch": 56, "duration": 6, "velocity": 80}, {"time": 252, "pitch": 57, "duration": 6, "velocity": 80}, {"time": 258, "pitch": 54, "duration": 6, "velocity": 80}, {"time": 264, "pitch": 56, "duration": 6, "velocity": 80}, {"time": 270, "pitch": 58, "duration": 6, "velocity": 80}, {"time": 276, "pitch": 59, "duration": 3, "velocity": 80}, {"time": 279, "pitch": 71, "duration": 3, "velocity": 80}, {"time": 282, "pitch": 70, "duration": 3, "velocity": 80}, {"time": 285, "pitch": 71, "duration": 3, "velocity": 80}, {"time": 288, "pitch": 68, "duration": 3, "velocity": 80}, {"time": 291, "pitch": 71, "duration": 3, "velocity": 80}, {"time": 294, "pitch": 64, "duration": 3, "velocity": 80}, {"time": 297, "pitch": 68, "duration": 3, "velocity": 80}, {"time": 300, "pitch": 61, "duration": 3, "velocity": 80}, {"time": 303, "pitch": 69, "duration": 3, "velocity": 80}, {"time": 306, "pitch": 68, "duration": 3, "velocity": 80}, {"time": 309, "pitch": 69, "duration": 3, "velocity": 80}, {"time": 312, "pitch": 66, "duration": 3, "velocity": 80}, {"time": 315, "pitch": 69, "duration": 3, "velocity": 80}, {"time": 318, "pitch": 63, "duration": 3, "velocity": 80}, {"time": 321, "pitch": 66, "duration": 3, "velocity": 80}, {"time": 324, "pitch": 59, "duration": 3, "velocity": 80}, {"time": 327, "pitch": 68, "duration": 3, "velocity": 80}, {"time": 330, "pitch": 66, "duration": 3, "velocity": 80}, {"time": 333, "pitch": 68, "duration": 3, "velocity": 80}, {"time": 336, "pitch": 64, "duration": 3, "velocity": 80}, {"time": 339, "pitch": 68, "duration": 3, "velocity": 80}, {"time": 342, "pitch": 61, "duration": 3, "velocity": 80}, {"time": 345, "pitch": 64, "duration": 3, "velocity": 80}, {"time": 348, "pitch": 57, "duration": 3, "velocity": 80}, {"time": 351, "pitch": 66, "duration": 3, "velocity": 80}, {"time": 354, "pitch": 64, "duration": 3, "velocity": 80}, {"time": 357, "pitch": 66, "duration": 3, "velocity": 80}, {"time": 360, "pitch": 63, "duration": 3, "velocity": 80}, {"time": 363, "pitch": 66, "duration": 3, "velocity": 80}, {"time": 366, "pitch": 59, "duration": 3, "velocity": 80}, {"time": 369, "pitch": 63, "duration": 3, "velocity": 80}, {"time": 372, "pitch": 56, "duration": 12, "velocity": 80}, {"time": 384, "pitch": 64, "duration": 6, "velocity": 80}, {"time": 390, "pitch": 68, "duration": 6, "velocity": 80}, {"time": 396, "pitch": 69, "duration": 6, "velocity": 80}, {"time": 402, "pitch": 61, "duration": 6, "velocity": 80}, {"time": 408, "pitch": 63, "duration": 6, "velocity": 80}, {"time": 414, "pitch": 66, "duration": 6, "velocity": 80}, {"time": 420, "pitch": 68, "duration": 6, "velocity": 80}, {"time": 426, "pitch": 59, "duration": 6, "velocity": 80}, {"time": 432, "pitch": 61, "duration": 6, "velocity": 80}, {"time": 438, "pitch": 64, "duration": 6, "velocity": 80}, {"time": 444, "pitch": 66, "duration": 6, "velocity": 80}, {"time": 450, "pitch": 57, "duration": 6, "velocity": 80}, {"time": 456, "pitch": 59, "duration": 6, "velocity": 80}, {"time": 462, "pitch": 63, "duration": 6, "velocity": 80}, {"time": 468, "pitch": 64, "duration": 6, "velocity": 80}, {"time": 474, "pitch": 56, "duration": 6, "velocity": 80}, {"time": 480, "pitch": 57, "duration": 6, "velocity": 80}, {"time": 486, "pitch": 59, "duration": 6, "velocity": 80}, {"time": 492, "pitch": 56, "duration": 6, "velocity": 80}, {"time": 498, "pitch": 61, "duration": 6, "velocity": 80}, {"time": 504, "pitch": 57, "duration": 6, "velocity": 80}, {"time": 510, "pitch": 59, "duration": 6, "velocity": 80}, {"time": 516, "pitch": 56, "duration": 6, "velocity": 80}, {"time": 522, "pitch": 61, "duration": 6, "velocity": 80}, {"time": 528, "pitch": 57, "duration": 6, "velocity": 80}, {"time": 534, "pitch": 59, "duration": 6, "velocity": 80}, {"time": 540, "pitch": 56, "duration": 6, "velocity": 80}, {"time": 546, "pitch": 57, "duration": 6, "velocity": 80}, {"time": 552, "pitch": 59, "duration": 6, "velocity": 80}, {"time": 558, "pitch": 47, "duration": 6, "velocity": 80}, {"time": 564, "pitch": 40, "duration": 6, "velocity": 80}, {"time": 570, "pitch": 52, "duration": 6, "velocity": 80}, {"time": 576, "pitch": 45, "duration": 6, "velocity": 80}, {"time": 582, "pitch": 47, "duration": 6, "velocity": 80}, {"time": 588, "pitch": 44, "duration": 6, "velocity": 80}, {"time": 594, "pitch": 49, "duration": 6, "velocity": 80}, {"time": 600, "pitch": 45, "duration": 6, "velocity": 80}, {"time": 606, "pitch": 47, "duration": 6, "velocity": 80}, {"time": 612, "pitch": 44, "duration": 6, "velocity": 80}, {"time": 618, "pitch": 49, "duration": 6, "velocity": 80}, {"time": 624, "pitch": 45, "duration": 6, "velocity": 80}, {"time": 630, "pitch": 47, "duration": 6, "velocity": 80}, {"time": 636, "pitch": 44, "duration": 6, "velocity": 80}, {"time": 642, "pitch": 45, "duration": 6, "velocity": 80}, {"time": 648, "pitch": 47, "duration": 6, "velocity": 80}, {"time": 654, "pitch": 47, "duration": 6, "velocity": 80}, {"time": 660, "pitch": 40, "duration": 12, "velocity": 80}, {"time": 678, "pitch": 52, "duration": 6, "velocity": 80}, {"time": 684, "pitch": 51, "duration": 6, "velocity": 80}, {"time": 690, "pitch": 47, "duration": 6, "velocity": 80}, {"time": 696, "pitch": 52, "duration": 6, "velocity": 80}, {"time": 702, "pitch": 40, "duration": 6, "velocity": 80}, {"time": 708, "pitch": 47, "duration": 6, "velocity": 80}, {"time": 714, "pitch": 45, "duration": 6, "velocity": 80}, {"time": 720, "pitch": 44, "duration": 6, "velocity": 80}, {"time": 726, "pitch": 52, "duration": 6, "velocity": 80}, {"time": 732, "pitch": 51, "duration": 6, "velocity": 80}, {"time": 738, "pitch": 47, "duration": 6, "velocity": 80}, {"time": 744, "pitch": 52, "duration": 6, "velocity": 80}, {"time": 750, "pitch": 40, "duration": 6, "velocity": 80}, {"time": 756, "pitch": 47, "duration": 6, "velocity": 80}, {"time": 762, "pitch": 57, "duration": 6, "velocity": 80}, {"time": 768, "pitch": 56, "duration": 6, "velocity": 80}, {"time": 774, "pitch": 52, "duration": 6, "velocity": 80}, {"time": 780, "pitch": 57, "duration": 6, "velocity": 80}, {"time": 786, "pitch": 54, "duration": 6, "velocity": 80}, {"time": 792, "pitch": 59, "duration": 6, "velocity": 80}, {"time": 798, "pitch": 56, "duration": 6, "velocity": 80}, {"time": 804, "pitch": 61, "duration": 6, "velocity": 80}, {"time": 810, "pitch": 57, "duration": 6, "velocity": 80}, {"time": 816, "pitch": 56, "duration": 6, "velocity": 80}, {"time": 822, "pitch": 52, "duration": 6, "velocity": 80}, {"time": 828, "pitch": 57, "duration": 6, "velocity": 80}, {"time": 834, "pitch": 54, "duration": 6, "velocity": 80}, {"time": 840, "pitch": 59, "duration": 6, "velocity": 80}, {"time": 846, "pitch": 47, "duration": 6, "velocity": 80}, {"time": 852, "pitch": 40, "duration": 6, "velocity": 80}, {"time": 858, "pitch": 52, "duration": 12, "velocity": 80}, {"time": 870, "pitch": 51, "duration": 6, "velocity": 80}, {"time": 876, "pitch": 52, "duration": 6, "velocity": 80}, {"time": 882, "pitch": 49, "duration": 6, "velocity": 80}, {"time": 888, "pitch": 50, "duration": 6, "velocity": 80}, {"time": 894, "pitch": 46, "duration": 6, "velocity": 80}, {"time": 900, "pitch": 47, "duration": 6, "velocity": 80}, {"time": 906, "pitch": 59, "duration": 12, "velocity": 80}, {"time": 918, "pitch": 58, "duration": 6, "velocity": 80}, {"time": 924, "pitch": 59, "duration": 6, "velocity": 80}, {"time": 930, "pitch": 56, "duration": 6, "velocity": 80}, {"time": 936, "pitch": 57, "duration": 6, "velocity": 80}, {"time": 942, "pitch": 53, "duration": 6, "velocity": 80}, {"time": 948, "pitch": 54, "duration": 18, "velocity": 80}, {"time": 966, "pitch": 57, "duration": 6, "velocity": 80}, {"time": 972, "pitch": 59, "duration": 6, "velocity": 80}, {"time": 978, "pitch": 62, "duration": 6, "velocity": 80}, {"time": 984, "pitch": 64, "duration": 6, "velocity": 80}, {"time": 990, "pitch": 56, "duration": 6, "velocity": 80}, {"time": 996, "pitch": 57, "duration": 6, "velocity": 80}, {"time": 1002, "pitch": 61, "duration": 6, "velocity": 80}, {"time": 1008, "pitch": 62, "duration": 6, "velocity": 80}, {"time": 1014, "pitch": 54, "duration": 6, "velocity": 80}, {"time": 1020, "pitch": 56, "duration": 6, "velocity": 80}, {"time": 1026, "pitch": 59, "duration": 6, "velocity": 80}, {"time": 1032, "pitch": 61, "duration": 6, "velocity": 80}, {"time": 1038, "pitch": 53, "duration": 6, "velocity": 80}, {"time": 1044, "pitch": 54, "duration": 6, "velocity": 80}, {"time": 1050, "pitch": 61, "duration": 6, "velocity": 80}, {"time": 1056, "pitch": 57, "duration": 3, "velocity": 80}, {"time": 1059, "pitch": 61, "duration": 3, "velocity": 80}, {"time": 1062, "pitch": 66, "duration": 3, "velocity": 80}, {"time": 1065, "pitch": 64, "duration": 3, "velocity": 80}, {"time": 1068, "pitch": 62, "duration": 3, "velocity": 80}, {"time": 1071, "pitch": 66, "duration": 3, "velocity": 80}, {"time": 1074, "pitch": 59, "duration": 3, "velocity": 80}, {"time": 1077, "pitch": 62, "duration": 3, "velocity": 80}, {"time": 1080, "pitch": 56, "duration": 3, "velocity": 80}, {"time": 1083, "pitch": 59, "duration": 3, "velocity": 80}, {"time": 1086, "pitch": 64, "duration": 3, "velocity": 80}, {"time": 1089, "pitch": 62, "duration": 3, "velocity": 80}, {"time": 1092, "pitch": 61, "duration": 3, "velocity": 80}, {"time": 1095, "pitch": 64, "duration": 3, "velocity": 80}, {"time": 1098, "pitch": 57, "duration": 3, "velocity": 80}, {"time": 1101, "pitch": 61, "duration": 3, "velocity": 80}, {"time": 1104, "pitch": 54, "duration": 3, "velocity": 80}, {"time": 1107, "pitch": 57, "duration": 3, "velocity": 80}, {"time": 1110, "pitch": 62, "duration": 3, "velocity": 80}, {"time": 1113, "pitch": 61, "duration": 3, "velocity": 80}, {"time": 1116, "pitch": 59, "duration": 3, "velocity": 80}, {"time": 1119, "pitch": 62, "duration": 3, "velocity": 80}, {"time": 1122, "pitch": 56, "duration": 3, "velocity": 80}, {"time": 1125, "pitch": 59, "duration": 3, "velocity": 80}, {"time": 1128, "pitch": 53, "duration": 3, "velocity": 80}, {"time": 1131, "pitch": 56, "duration": 3, "velocity": 80}, {"time": 1134, "pitch": 61, "duration": 3, "velocity": 80}, {"time": 1137, "pitch": 59, "duration": 3, "velocity": 80}, {"time": 1140, "pitch": 57, "duration": 6, "velocity": 80}, {"time": 1146, "pitch": 54, "duration": 6, "velocity": 80}, {"time": 1152, "pitch": 59, "duration": 6, "velocity": 80}, {"time": 1158, "pitch": 61, "duration": 6, "velocity": 80}, {"time": 1164, "pitch": 57, "duration": 6, "velocity": 80}, {"time": 1170, "pitch": 62, "duration": 6, "velocity": 80}, {"time": 1176, "pitch": 59, "duration": 6, "velocity": 80}, {"time": 1182, "pitch": 61, "duration": 6, "velocity": 80}, {"time": 1188, "pitch": 57, "duration": 6, "velocity": 80}, {"time": 1194, "pitch": 62, "duration": 6, "velocity": 80}, {"time": 1200, "pitch": 59, "duration": 6, "velocity": 80}, {"time": 1206, "pitch": 61, "duration": 6, "velocity": 80}, {"time": 1212, "pitch": 57, "duration": 6, "velocity": 80}, {"time": 1218, "pitch": 59, "duration": 6, "velocity": 80}, {"time": 1224, "pitch": 61, "duration": 6, "velocity": 80}, {"time": 1230, "pitch": 49, "duration": 6, "velocity": 80}, {"time": 1236, "pitch": 42, "duration": 6, "velocity": 80}, {"time": 1242, "pitch": 54, "duration": 6, "velocity": 80}, {"time": 1248, "pitch": 47, "duration": 6, "velocity": 80}, {"time": 1254, "pitch": 49, "duration": 6, "velocity": 80}, {"time": 1260, "pitch": 45, "duration": 6, "velocity": 80}, {"time": 1266, "pitch": 50, "duration": 6, "velocity": 80}, {"time": 1272, "pitch": 47, "duration": 6, "velocity": 80}, {"time": 1278, "pitch": 49, "duration": 6, "velocity": 80}, {"time": 1284, "pitch": 45, "duration": 6, "velocity": 80}, {"time": 1290, "pitch": 50, "duration": 6, "velocity": 80}, {"time": 1296, "pitch": 47, "duration": 6, "velocity": 80}, {"time": 1302, "pitch": 49, "duration": 6, "velocity": 80}, {"time": 1308, "pitch": 45, "duration": 6, "velocity": 80}, {"time": 1314, "pitch": 47, "duration": 6, "velocity": 80}, {"time": 1320, "pitch": 49, "duration": 6, "velocity": 80}, {"time": 1326, "pitch": 49, "duration": 6, "velocity": 80}, {"time": 1332, "pitch": 42, "duration": 3, "velocity": 80}, {"time": 1335, "pitch": 54, "duration": 3, "velocity": 80}, {"time": 1338, "pitch": 52, "duration": 3, "velocity": 80}, {"time": 1341, "pitch": 50, "duration": 3, "velocity": 80}, {"time": 1344, "pitch": 49, "duration": 6, "velocity": 80}, {"time": 1350, "pitch": 57, "duration": 6, "velocity": 80}, {"time": 1356, "pitch": 56, "duration": 6, "velocity": 80}, {"time": 1362, "pitch": 52, "duration": 6, "velocity": 80}, {"time": 1368, "pitch": 57, "duration": 6, "velocity": 80}, {"time": 1374, "pitch": 45, "duration": 6, "velocity": 80}, {"time": 1380, "pitch": 52, "duration": 6, "velocity": 80}, {"time": 1386, "pitch": 50, "duration": 6, "velocity": 80}, {"time": 1392, "pitch": 49, "duration": 6, "velocity": 80}, {"time": 1398, "pitch": 57, "duration": 6, "velocity": 80}, {"time": 1404, "pitch": 56, "duration": 6, "velocity": 80}, {"time": 1410, "pitch": 52, "duration": 6, "velocity": 80}, {"time": 1416, "pitch": 57, "duration": 6, "velocity": 80}, {"time": 1422, "pitch": 45, "duration": 6, "velocity": 80}, {"time": 1428, "pitch": 52, "duration": 6, "velocity": 80}, {"time": 1434, "pitch": 62, "duration": 6, "velocity": 80}, {"time": 1440, "pitch": 61, "duration": 6, "velocity": 80}, {"time": 1446, "pitch": 57, "duration": 6, "velocity": 80}, {"time": 1452, "pitch": 62, "duration": 6, "velocity": 80}, {"time": 1458, "pitch": 66, "duration": 6, "velocity": 80}, {"time": 1464, "pitch": 61, "duration": 6, "velocity": 80}, {"time": 1470, "pitch": 57, "duration": 6, "velocity": 80}, {"time": 1476, "pitch": 62, "duration": 6, "velocity": 80}, {"time": 1482, "pitch": 66, "duration": 6, "velocity": 80}, {"time": 1488, "pitch": 63, "duration": 6, "velocity": 80}, {"time": 1494, "pitch": 59, "duration": 6, "velocity": 80}, {"time": 1500, "pitch": 64, "duration": 6, "velocity": 80}, {"time": 1506, "pitch": 68, "duration": 6, "velocity": 80}, {"time": 1512, "pitch": 63, "duration": 6, "velocity": 80}, {"time": 1518, "pitch": 59, "duration": 6, "velocity": 80}, {"time": 1524, "pitch": 52, "duration": 12, "velocity": 80}, {"time": 1536, "pitch": 57, "duration": 6, "velocity": 80}, {"time": 1542, "pitch": 61, "duration": 6, "velocity": 80}, {"time": 1548, "pitch": 62, "duration": 6, "velocity": 80}, {"time": 1554, "pitch": 54, "duration": 6, "velocity": 80}, {"time": 1560, "pitch": 56, "duration": 6, "velocity": 80}, {"time": 1566, "pitch": 59, "duration": 6, "velocity": 80}, {"time": 1572, "pitch": 61, "duration": 6, "velocity": 80}, {"time": 1578, "pitch": 52, "duration": 6, "velocity": 80}, {"time": 1584, "pitch": 54, "duration": 6, "velocity": 80}, {"time": 1590, "pitch": 57, "duration": 6, "velocity": 80}, {"time": 1596, "pitch": 59, "duration": 6, "velocity": 80}, {"time": 1602, "pitch": 50, "duration": 6, "velocity": 80}, {"time": 1608, "pitch": 52, "duration": 6, "velocity": 80}, {"time": 1614, "pitch": 56, "duration": 6, "velocity": 80}, {"time": 1620, "pitch": 57, "duration": 3, "velocity": 80}, {"time": 1623, "pitch": 64, "duration": 3, "velocity": 80}, {"time": 1626, "pitch": 63, "duration": 3, "velocity": 80}, {"time": 1629, "pitch": 64, "duration": 3, "velocity": 80}, {"time": 1632, "pitch": 61, "duration": 3, "velocity": 80}, {"time": 1635, "pitch": 64, "duration": 3, "velocity": 80}, {"time": 1638, "pitch": 57, "duration": 3, "velocity": 80}, {"time": 1641, "pitch": 61, "duration": 3, "velocity": 80}, {"time": 1644, "pitch": 54, "duration": 3, "velocity": 80}, {"time": 1647, "pitch": 62, "duration": 3, "velocity": 80}, {"time": 1650, "pitch": 61, "duration": 3, "velocity": 80}, {"time": 1653, "pitch": 62, "duration": 3, "velocity": 80}, {"time": 1656, "pitch": 59, "duration": 3, "velocity": 80}, {"time": 1659, "pitch": 62, "duration": 3, "velocity": 80}, {"time": 1662, "pitch": 56, "duration": 3, "velocity": 80}, {"time": 1665, "pitch": 59, "duration": 3, "velocity": 80}, {"time": 1668, "pitch": 52, "duration": 3, "velocity": 80}, {"time": 1671, "pitch": 61, "duration": 3, "velocity": 80}, {"time": 1674, "pitch": 59, "duration": 3, "velocity": 80}, {"time": 1677, "pitch": 61, "duration": 3, "velocity": 80}, {"time": 1680, "pitch": 57, "duration": 3, "velocity": 80}, {"time": 1683, "pitch": 61, "duration": 3, "velocity": 80}, {"time": 1686, "pitch": 54, "duration": 3, "velocity": 80}, {"time": 1689, "pitch": 57, "duration": 3, "velocity": 80}, {"time": 1692, "pitch": 50, "duration": 3, "velocity": 80}, {"time": 1695, "pitch": 59, "duration": 3, "velocity": 80}, {"time": 1698, "pitch": 57, "duration": 3, "velocity": 80}, {"time": 1701, "pitch": 59, "duration": 3, "velocity": 80}, {"time": 1704, "pitch": 56, "duration": 3, "velocity": 80}, {"time": 1707, "pitch": 59, "duration": 3, "velocity": 80}, {"time": 1710, "pitch": 52, "duration": 3, "velocity": 80}, {"time": 1713, "pitch": 56, "duration": 3, "velocity": 80}, {"time": 1716, "pitch": 49, "duration": 6, "velocity": 80}, {"time": 1722, "pitch": 57, "duration": 6, "velocity": 80}, {"time": 1728, "pitch": 62, "duration": 6, "velocity": 80}, {"time": 1734, "pitch": 64, "duration": 6, "velocity": 80}, {"time": 1740, "pitch": 61, "duration": 6, "velocity": 80}, {"time": 1746, "pitch": 66, "duration": 6, "velocity": 80}, {"time": 1752, "pitch": 62, "duration": 6, "velocity": 80}, {"time": 1758, "pitch": 64, "duration": 6, "velocity": 80}, {"time": 1764, "pitch": 61, "duration": 6, "velocity": 80}, {"time": 1770, "pitch": 66, "duration": 6, "velocity": 80}, {"time": 1776, "pitch": 62, "duration": 6, "velocity": 80}, {"time": 1782, "pitch": 64, "duration": 6, "velocity": 80}, {"time": 1788, "pitch": 61, "duration": 6, "velocity": 80}, {"time": 1794, "pitch": 62, "duration": 6, "velocity": 80}, {"time": 1800, "pitch": 64, "duration": 6, "velocity": 80}, {"time": 1806, "pitch": 52, "duration": 6, "velocity": 80}, {"time": 1812, "pitch": 45, "duration": 6, "velocity": 80}, {"time": 1818, "pitch": 57, "duration": 6, "velocity": 80}, {"time": 1824, "pitch": 50, "duration": 6, "velocity": 80}, {"time": 1830, "pitch": 52, "duration": 6, "velocity": 80}, {"time": 1836, "pitch": 49, "duration": 6, "velocity": 80}, {"time": 1842, "pitch": 54, "duration": 6, "velocity": 80}, {"time": 1848, "pitch": 50, "duration": 6, "velocity": 80}, {"time": 1854, "pitch": 52, "duration": 6, "velocity": 80}, {"time": 1860, "pitch": 49, "duration": 6, "velocity": 80}, {"time": 1866, "pitch": 54, "duration": 6, "velocity": 80}, {"time": 1872, "pitch": 50, "duration": 6, "velocity": 80}, {"time": 1878, "pitch": 52, "duration": 6, "velocity": 80}, {"time": 1884, "pitch": 49, "duration": 6, "velocity": 80}, {"time": 1890, "pitch": 50, "duration": 6, "velocity": 80}, {"time": 1896, "pitch": 52, "duration": 6, "velocity": 80}, {"time": 1902, "pitch": 52, "duration": 6, "velocity": 80}, {"time": 1908, "pitch": 45, "duration": 12, "velocity": 80}, {"time": 1926, "pitch": 52, "duration": 6, "velocity": 80}, {"time": 1932, "pitch": 51, "duration": 6, "velocity": 80}, {"time": 1938, "pitch": 47, "duration": 6, "velocity": 80}, {"time": 1944, "pitch": 52, "duration": 6, "velocity": 80}, {"time": 1950, "pitch": 40, "duration": 6, "velocity": 80}, {"time": 1956, "pitch": 47, "duration": 6, "velocity": 80}, {"time": 1962, "pitch": 45, "duration": 6, "velocity": 80}, {"time": 1968, "pitch": 44, "duration": 6, "velocity": 80}, {"time": 1974, "pitch": 52, "duration": 6, "velocity": 80}, {"time": 1980, "pitch": 51, "duration": 6, "velocity": 80}, {"time": 1986, "pitch": 47, "duration": 6, "velocity": 80}, {"time": 1992, "pitch": 52, "duration": 6, "velocity": 80}, {"time": 1998, "pitch": 40, "duration": 6, "velocity": 80}, {"time": 2004, "pitch": 47, "duration": 6, "velocity": 80}, {"time": 2010, "pitch": 57, "duration": 6, "velocity": 80}, {"time": 2016, "pitch": 56, "duration": 6, "velocity": 80}, {"time": 2022, "pitch": 52, "duration": 6, "velocity": 80}, {"time": 2028, "pitch": 57, "duration": 6, "velocity": 80}, {"time": 2034, "pitch": 54, "duration": 6, "velocity": 80}, {"time": 2040, "pitch": 59, "duration": 6, "velocity": 80}, {"time": 2046, "pitch": 56, "duration": 6, "velocity": 80}, {"time": 2052, "pitch": 61, "duration": 6, "velocity": 80}, {"time": 2058, "pitch": 57, "duration": 6, "velocity": 80}, {"time": 2064, "pitch": 56, "duration": 6, "velocity": 80}, {"time": 2070, "pitch": 52, "duration": 6, "velocity": 80}, {"time": 2076, "pitch": 57, "duration": 6, "velocity": 80}, {"time": 2082, "pitch": 54, "duration": 6, "velocity": 80}, {"time": 2088, "pitch": 59, "duration": 6, "velocity": 80}, {"time": 2094, "pitch": 47, "duration": 6, "velocity": 80}, {"time": 2100, "pitch": 40, "duration": 6, "velocity": 80}, {"time": 2106, "pitch": 52, "duration": 12, "velocity": 80}, {"time": 2118, "pitch": 51, "duration": 6, "velocity": 80}, {"time": 2124, "pitch": 52, "duration": 6, "velocity": 80}, {"time": 2130, "pitch": 49, "duration": 6, "velocity": 80}, {"time": 2136, "pitch": 50, "duration": 6, "velocity": 80}, {"time": 2142, "pitch": 46, "duration": 6, "velocity": 80}, {"time": 2148, "pitch": 47, "duration": 6, "velocity": 80}, {"time": 2154, "pitch": 59, "duration": 12, "velocity": 80}, {"time": 2166, "pitch": 58, "duration": 6, "velocity": 80}, {"time": 2172, "pitch": 59, "duration": 6, "velocity": 80}, {"time": 2178, "pitch": 56, "duration": 6, "velocity": 80}, {"time": 2184, "pitch": 57, "duration": 6, "velocity": 80}, {"time": 2190, "pitch": 53, "duration": 6, "velocity": 80}, {"time": 2196, "pitch": 54, "duration": 18, "velocity": 80}, {"time": 2214, "pitch": 57, "duration": 6, "velocity": 80}, {"time": 2220, "pitch": 59, "duration": 6, "velocity": 80}, {"time": 2226, "pitch": 62, "duration": 6, "velocity": 80}, {"time": 2232, "pitch": 64, "duration": 6, "velocity": 80}, {"time": 2238, "pitch": 56, "duration": 6, "velocity": 80}, {"time": 2244, "pitch": 57, "duration": 6, "velocity": 80}, {"time": 2250, "pitch": 61, "duration": 6, "velocity": 80}, {"time": 2256, "pitch": 62, "duration": 6, "velocity": 80}, {"time": 2262, "pitch": 54, "duration": 6, "velocity": 80}, {"time": 2268, "pitch": 56, "duration": 6, "velocity": 80}, {"time": 2274, "pitch": 59, "duration": 6, "velocity": 80}, {"time": 2280, "pitch": 61, "duration": 6, "velocity": 80}, {"time": 2286, "pitch": 53, "duration": 6, "velocity": 80}, {"time": 2292, "pitch": 54, "duration": 6, "velocity": 80}, {"time": 2298, "pitch": 61, "duration": 6, "velocity": 80}, {"time": 2304, "pitch": 57, "duration": 3, "velocity": 80}, {"time": 2307, "pitch": 61, "duration": 3, "velocity": 80}, {"time": 2310, "pitch": 66, "duration": 3, "velocity": 80}, {"time": 2313, "pitch": 64, "duration": 3, "velocity": 80}, {"time": 2316, "pitch": 62, "duration": 3, "velocity": 80}, {"time": 2319, "pitch": 66, "duration": 3, "velocity": 80}, {"time": 2322, "pitch": 59, "duration": 3, "velocity": 80}, {"time": 2325, "pitch": 62, "duration": 3, "velocity": 80}, {"time": 2328, "pitch": 56, "duration": 3, "velocity": 80}, {"time": 2331, "pitch": 59, "duration": 3, "velocity": 80}, {"time": 2334, "pitch": 64, "duration": 3, "velocity": 80}, {"time": 2337, "pitch": 62, "duration": 3, "velocity": 80}, {"time": 2340, "pitch": 61, "duration": 3, "velocity": 80}, {"time": 2343, "pitch": 64, "duration": 3, "velocity": 80}, {"time": 2346, "pitch": 57, "duration": 3, "velocity": 80}, {"time": 2349, "pitch": 61, "duration": 3, "velocity": 80}, {"time": 2352, "pitch": 54, "duration": 3, "velocity": 80}, {"time": 2355, "pitch": 57, "duration": 3, "velocity": 80}, {"time": 2358, "pitch": 62, "duration": 3, "velocity": 80}, {"time": 2361, "pitch": 61, "duration": 3, "velocity": 80}, {"time": 2364, "pitch": 59, "duration": 3, "velocity": 80}, {"time": 2367, "pitch": 62, "duration": 3, "velocity": 80}, {"time": 2370, "pitch": 56, "duration": 3, "velocity": 80}, {"time": 2373, "pitch": 59, "duration": 3, "velocity": 80}, {"time": 2376, "pitch": 53, "duration": 3, "velocity": 80}, {"time": 2379, "pitch": 56, "duration": 3, "velocity": 80}, {"time": 2382, "pitch": 61, "duration": 3, "velocity": 80}, {"time": 2385, "pitch": 59, "duration": 3, "velocity": 80}, {"time": 2388, "pitch": 57, "duration": 6, "velocity": 80}, {"time": 2394, "pitch": 54, "duration": 6, "velocity": 80}, {"time": 2400, "pitch": 59, "duration": 6, "velocity": 80}, {"time": 2406, "pitch": 61, "duration": 6, "velocity": 80}, {"time": 2412, "pitch": 57, "duration": 6, "velocity": 80}, {"time": 2418, "pitch": 62, "duration": 6, "velocity": 80}, {"time": 2424, "pitch": 59, "duration": 6, "velocity": 80}, {"time": 2430, "pitch": 61, "duration": 6, "velocity": 80}, {"time": 2436, "pitch": 57, "duration": 6, "velocity": 80}, {"time": 2442, "pitch": 62, "duration": 6, "velocity": 80}, {"time": 2448, "pitch": 59, "duration": 6, "velocity": 80}, {"time": 2454, "pitch": 61, "duration": 6, "velocity": 80}, {"time": 2460, "pitch": 57, "duration": 6, "velocity": 80}, {"time": 2466, "pitch": 59, "duration": 6, "velocity": 80}, {"time": 2472, "pitch": 61, "duration": 6, "velocity": 80}, {"time": 2478, "pitch": 49, "duration": 6, "velocity": 80}, {"time": 2484, "pitch": 42, "duration": 6, "velocity": 80}, {"time": 2490, "pitch": 54, "duration": 6, "velocity": 80}, {"time": 2496, "pitch": 47, "duration": 6, "velocity": 80}, {"time": 2502, "pitch": 49, "duration": 6, "velocity": 80}, {"time": 2508, "pitch": 45, "duration": 6, "velocity": 80}, {"time": 2514, "pitch": 50, "duration": 6, "velocity": 80}, {"time": 2520, "pitch": 47, "duration": 6, "velocity": 80}, {"time": 2526, "pitch": 49, "duration": 6, "velocity": 80}, {"time": 2532, "pitch": 45, "duration": 6, "velocity": 80}, {"time": 2538, "pitch": 50, "duration": 6, "velocity": 80}, {"time": 2544, "pitch": 47, "duration": 6, "velocity": 80}, {"time": 2550, "pitch": 49, "duration": 6, "velocity": 80}, {"time": 2556, "pitch": 45, "duration": 6, "velocity": 80}, {"time": 2562, "pitch": 47, "duration": 6, "velocity": 80}, {"time": 2568, "pitch": 49, "duration": 6, "velocity": 80}, {"time": 2574, "pitch": 49, "duration": 6, "velocity": 80}, {"time": 2580, "pitch": 42, "duration": 3, "velocity": 80}, {"time": 2583, "pitch": 54, "duration": 3, "velocity": 80}, {"time": 2586, "pitch": 52, "duration": 3, "velocity": 80}, {"time": 2589, "pitch": 50, "duration": 3, "velocity": 80}, {"time": 2592, "pitch": 49, "duration": 6, "velocity": 80}, {"time": 2598, "pitch": 57, "duration": 6, "velocity": 80}, {"time": 2604, "pitch": 56, "duration": 6, "velocity": 80}, {"time": 2610, "pitch": 52, "duration": 6, "velocity": 80}, {"time": 2616, "pitch": 57, "duration": 6, "velocity": 80}, {"time": 2622, "pitch": 45, "duration": 6, "velocity": 80}, {"time": 2628, "pitch": 52, "duration": 6, "velocity": 80}, {"time": 2634, "pitch": 50, "duration": 6, "velocity": 80}, {"time": 2640, "pitch": 49, "duration": 6, "velocity": 80}, {"time": 2646, "pitch": 57, "duration": 6, "velocity": 80}, {"time": 2652, "pitch": 56, "duration": 6, "velocity": 80}, {"time": 2658, "pitch": 52, "duration": 6, "velocity": 80}, {"time": 2664, "pitch": 57, "duration": 6, "velocity": 80}, {"time": 2670, "pitch": 45, "duration": 6, "velocity": 80}, {"time": 2676, "pitch": 52, "duration": 6, "velocity": 80}, {"time": 2682, "pitch": 62, "duration": 6, "velocity": 80}, {"time": 2688, "pitch": 61, "duration": 6, "velocity": 80}, {"time": 2694, "pitch": 57, "duration": 6, "velocity": 80}, {"time": 2700, "pitch": 62, "duration": 6, "velocity": 80}, {"time": 2706, "pitch": 66, "duration": 6, "velocity": 80}, {"time": 2712, "pitch": 61, "duration": 6, "velocity": 80}, {"time": 2718, "pitch": 57, "duration": 6, "velocity": 80}, {"time": 2724, "pitch": 62, "duration": 6, "velocity": 80}, {"time": 2730, "pitch": 66, "duration": 6, "velocity": 80}, {"time": 2736, "pitch": 63, "duration": 6, "velocity": 80}, {"time": 2742, "pitch": 59, "duration": 6, "velocity": 80}, {"time": 2748, "pitch": 64, "duration": 6, "velocity": 80}, {"time": 2754, "pitch": 68, "duration": 6, "velocity": 80}, {"time": 2760, "pitch": 63, "duration": 6, "velocity": 80}, {"time": 2766, "pitch": 59, "duration": 6, "velocity": 80}, {"time": 2772, "pitch": 52, "duration": 12, "velocity": 80}, {"time": 2784, "pitch": 57, "duration": 6, "velocity": 80}, {"time": 2790, "pitch": 61, "duration": 6, "velocity": 80}, {"time": 2796, "pitch": 62, "duration": 6, "velocity": 80}, {"time": 2802, "pitch": 54, "duration": 6, "velocity": 80}, {"time": 2808, "pitch": 56, "duration": 6, "velocity": 80}, {"time": 2814, "pitch": 59, "duration": 6, "velocity": 80}, {"time": 2820, "pitch": 61, "duration": 6, "velocity": 80}, {"time": 2826, "pitch": 52, "duration": 6, "velocity": 80}, {"time": 2832, "pitch": 54, "duration": 6, "velocity": 80}, {"time": 2838, "pitch": 57, "duration": 6, "velocity": 80}, {"time": 2844, "pitch": 59, "duration": 6, "velocity": 80}, {"time": 2850, "pitch": 50, "duration": 6, "velocity": 80}, {"time": 2856, "pitch": 52, "duration": 6, "velocity": 80}, {"time": 2862, "pitch": 56, "duration": 6, "velocity": 80}, {"time": 2868, "pitch": 57, "duration": 3, "velocity": 80}, {"time": 2871, "pitch": 64, "duration": 3, "velocity": 80}, {"time": 2874, "pitch": 63, "duration": 3, "velocity": 80}, {"time": 2877, "pitch": 64, "duration": 3, "velocity": 80}, {"time": 2880, "pitch": 61, "duration": 3, "velocity": 80}, {"time": 2883, "pitch": 64, "duration": 3, "velocity": 80}, {"time": 2886, "pitch": 57, "duration": 3, "velocity": 80}, {"time": 2889, "pitch": 61, "duration": 3, "velocity": 80}, {"time": 2892, "pitch": 54, "duration": 3, "velocity": 80}, {"time": 2895, "pitch": 62, "duration": 3, "velocity": 80}, {"time": 2898, "pitch": 61, "duration": 3, "velocity": 80}, {"time": 2901, "pitch": 62, "duration": 3, "velocity": 80}, {"time": 2904, "pitch": 59, "duration": 3, "velocity": 80}, {"time": 2907, "pitch": 62, "duration": 3, "velocity": 80}, {"time": 2910, "pitch": 56, "duration": 3, "velocity": 80}, {"time": 2913, "pitch": 59, "duration": 3, "velocity": 80}, {"time": 2916, "pitch": 52, "duration": 3, "velocity": 80}, {"time": 2919, "pitch": 61, "duration": 3, "velocity": 80}, {"time": 2922, "pitch": 59, "duration": 3, "velocity": 80}, {"time": 2925, "pitch": 61, "duration": 3, "velocity": 80}, {"time": 2928, "pitch": 57, "duration": 3, "velocity": 80}, {"time": 2931, "pitch": 61, "duration": 3, "velocity": 80}, {"time": 2934, "pitch": 54, "duration": 3, "velocity": 80}, {"time": 2937, "pitch": 57, "duration": 3, "velocity": 80}, {"time": 2940, "pitch": 50, "duration": 3, "velocity": 80}, {"time": 2943, "pitch": 59, "duration": 3, "velocity": 80}, {"time": 2946, "pitch": 57, "duration": 3, "velocity": 80}, {"time": 2949, "pitch": 59, "duration": 3, "velocity": 80}, {"time": 2952, "pitch": 56, "duration": 3, "velocity": 80}, {"time": 2955, "pitch": 59, "duration": 3, "velocity": 80}, {"time": 2958, "pitch": 52, "duration": 3, "velocity": 80}, {"time": 2961, "pitch": 56, "duration": 3, "velocity": 80}, {"time": 2964, "pitch": 49, "duration": 6, "velocity": 80}, {"time": 2970, "pitch": 57, "duration": 6, "velocity": 80}, {"time": 2976, "pitch": 62, "duration": 6, "velocity": 80}, {"time": 2982, "pitch": 64, "duration": 6, "velocity": 80}, {"time": 2988, "pitch": 61, "duration": 6, "velocity": 80}, {"time": 2994, "pitch": 66, "duration": 6, "velocity": 80}, {"time": 3000, "pitch": 62, "duration": 6, "velocity": 80}, {"time": 3006, "pitch": 64, "duration": 6, "velocity": 80}, {"time": 3012, "pitch": 61, "duration": 6, "velocity": 80}, {"time": 3018, "pitch": 66, "duration": 6, "velocity": 80}, {"time": 3024, "pitch": 62, "duration": 6, "velocity": 80}, {"time": 3030, "pitch": 64, "duration": 6, "velocity": 80}, {"time": 3036, "pitch": 61, "duration": 6, "velocity": 80}, {"time": 3042, "pitch": 62, "duration": 6, "velocity": 80}, {"time": 3048, "pitch": 64, "duration": 6, "velocity": 80}, {"time": 3054, "pitch": 52, "duration": 6, "velocity": 80}, {"time": 3060, "pitch": 45, "duration": 6, "velocity": 80}, {"time": 3066, "pitch": 57, "duration": 6, "velocity": 80}, {"time": 3072, "pitch": 50, "duration": 6, "velocity": 80}, {"time": 3078, "pitch": 52, "duration": 6, "velocity": 80}, {"time": 3084, "pitch": 49, "duration": 6, "velocity": 80}, {"time": 3090, "pitch": 54, "duration": 6, "velocity": 80}, {"time": 3096, "pitch": 50, "duration": 6, "velocity": 80}, {"time": 3102, "pitch": 52, "duration": 6, "velocity": 80}, {"time": 3108, "pitch": 49, "duration": 6, "velocity": 80}, {"time": 3114, "pitch": 54, "duration": 6, "velocity": 80}, {"time": 3120, "pitch": 50, "duration": 6, "velocity": 80}, {"time": 3126, "pitch": 52, "duration": 6, "velocity": 80}, {"time": 3132, "pitch": 49, "duration": 6, "velocity": 80}, {"time": 3138, "pitch": 50, "duration": 6, "velocity": 80}, {"time": 3144, "pitch": 52, "duration": 6, "velocity": 80}, {"time": 3150, "pitch": 52, "duration": 6, "velocity": 80}, {"time": 3156, "pitch": 45, "duration": 12, "velocity": 80}], "annotations": [{"time": 0, "annotation": {"number": 7, "value": 100}, "group": "control_change"}, {"time": 0, "annotation": {"number": 10, "value": 64}, "group": "control_change"}, {"time": 0, "annotation": {"number": 91, "value": 0}, "group": "control_change"}, {"time": 0, "annotation": {"number": 93, "value": 0}, "group": "control_change"}]}]}