{"metadata": {"schema_version": "0.2"}, "resolution": 24, "tracks": [{"program": 40, "is_drum": false, "notes": [{"time": 0, "pitch": 69, "duration": 3, "velocity": 80}, {"time": 3, "pitch": 64, "duration": 3, "velocity": 80}, {"time": 6, "pitch": 73, "duration": 3, "velocity": 80}, {"time": 9, "pitch": 69, "duration": 3, "velocity": 80}, {"time": 12, "pitch": 71, "duration": 3, "velocity": 80}, {"time": 15, "pitch": 64, "duration": 3, "velocity": 80}, {"time": 18, "pitch": 74, "duration": 3, "velocity": 80}, {"time": 21, "pitch": 71, "duration": 3, "velocity": 80}, {"time": 24, "pitch": 73, "duration": 3, "velocity": 80}, {"time": 27, "pitch": 69, "duration": 3, "velocity": 80}, {"time": 30, "pitch": 76, "duration": 3, "velocity": 80}, {"time": 33, "pitch": 73, "duration": 3, "velocity": 80}, {"time": 36, "pitch": 71, "duration": 3, "velocity": 80}, {"time": 39, "pitch": 76, "duration": 3, "velocity": 80}, {"time": 42, "pitch": 68, "duration": 3, "velocity": 80}, {"time": 45, "pitch": 71, "duration": 3, "velocity": 80}, {"time": 48, "pitch": 69, "duration": 3, "velocity": 80}, {"time": 51, "pitch": 64, "duration": 3, "velocity": 80}, {"time": 54, "pitch": 73, "duration": 3, "velocity": 80}, {"time": 57, "pitch": 69, "duration": 3, "velocity": 80}, {"time": 60, "pitch": 71, "duration": 3, "velocity": 80}, {"time": 63, "pitch": 64, "duration": 3, "velocity": 80}, {"time": 66, "pitch": 74, "duration": 3, "velocity": 80}, {"time": 69, "pitch": 71, "duration": 3, "velocity": 80}, {"time": 72, "pitch": 73, "duration": 3, "velocity": 80}, {"time": 75, "pitch": 69, "duration": 3, "velocity": 80}, {"time": 78, "pitch": 76, "duration": 3, "velocity": 80}, {"time": 81, "pitch": 73, "duration": 3, "velocity": 80}, {"time": 84, "pitch": 71, "duration": 3, "velocity": 80}, {"time": 87, "pitch": 76, "duration": 3, "velocity": 80}, {"time": 90, "pitch": 68, "duration": 3, "velocity": 80}, {"time": 93, "pitch": 71, "duration": 3, "velocity": 80}, {"time": 96, "pitch": 64, "duration": 3, "velocity": 80}, {"time": 99, "pitch": 69, "duration": 3, "velocity": 80}, {"time": 102, "pitch": 73, "duration": 3, "velocity": 80}, {"time": 105, "pitch": 69, "duration": 3, "velocity": 80}, {"time": 108, "pitch": 66, "duration": 3, "velocity": 80}, {"time": 111, "pitch": 71, "duration": 3, "velocity": 80}, {"time": 114, "pitch": 74, "duration": 3, "velocity": 80}, {"time": 117, "pitch": 71, "duration": 3, "velocity": 80}, {"time": 120, "pitch": 68, "duration": 3, "velocity": 80}, {"time": 123, "pitch": 73, "duration": 3, "velocity": 80}, {"time": 126, "pitch": 76, "duration": 3, "velocity": 80}, {"time": 129, "pitch": 73, "duration": 3, "velocity": 80}, {"time": 132, "pitch": 69, "duration": 3, "velocity": 80}, {"time": 135, "pitch": 80, "duration": 3, "velocity": 80}, {"time": 138, "pitch": 81, "duration": 3, "velocity": 80}, {"time": 141, "pitch": 78, "duration": 3, "velocity": 80}, {"time": 144, "pitch": 76, "duration": 3, "velocity": 80}, {"time": 147, "pitch": 81, "duration": 3, "velocity": 80}, {"time": 150, "pitch": 85, "duration": 3, "velocity": 80}, {"time": 153, "pitch": 81, "duration": 3, "velocity": 80}, {"time": 156, "pitch": 78, "duration": 3, "velocity": 80}, {"time": 159, "pitch": 83, "duration": 3, "velocity": 80}, {"time": 162, "pitch": 86, "duration": 3, "velocity": 80}, {"time": 165, "pitch": 83, "duration": 3, "velocity": 80}, {"time": 168, "pitch": 85, "duration": 3, "velocity": 80}, {"time": 171, "pitch": 81, "duration": 3, "velocity": 80}, {"time": 174, "pitch": 83, "duration": 3, "velocity": 80}, {"time": 177, "pitch": 80, "duration": 3, "velocity": 80}, {"time": 183, "pitch": 81, "duration": 3, "velocity": 80}, {"time": 186, "pitch": 76, "duration": 3, "velocity": 80}, {"time": 189, "pitch": 73, "duration": 3, "velocity": 80}, {"time": 192, "pitch": 69, "duration": 3, "velocity": 80}, {"time": 195, "pitch": 73, "duration": 3, "velocity": 80}, {"time": 198, "pitch": 71, "duration": 3, "velocity": 80}, {"time": 201, "pitch": 74, "duration": 3, "velocity": 80}, {"time": 204, "pitch": 73, "duration": 3, "velocity": 80}, {"time": 207, "pitch": 76, "duration": 3, "velocity": 80}, {"time": 210, "pitch": 68, "duration": 3, "velocity": 80}, {"time": 213, "pitch": 71, "duration": 3, "velocity": 80}, {"time": 216, "pitch": 69, "duration": 3, "velocity": 80}, {"time": 219, "pitch": 73, "duration": 3, "velocity": 80}, {"time": 222, "pitch": 71, "duration": 3, "velocity": 80}, {"time": 225, "pitch": 74, "duration": 3, "velocity": 80}, {"time": 228, "pitch": 73, "duration": 3, "velocity": 80}, {"time": 231, "pitch": 76, "duration": 3, "velocity": 80}, {"time": 234, "pitch": 68, "duration": 3, "velocity": 80}, {"time": 237, "pitch": 71, "duration": 3, "velocity": 80}, {"time": 240, "pitch": 69, "duration": 3, "velocity": 80}, {"time": 243, "pitch": 73, "duration": 3, "velocity": 80}, {"time": 246, "pitch": 71, "duration": 3, "velocity": 80}, {"time": 249, "pitch": 74, "duration": 3, "velocity": 80}, {"time": 252, "pitch": 73, "duration": 3, "velocity": 80}, {"time": 255, "pitch": 76, "duration": 3, "velocity": 80}, {"time": 258, "pitch": 75, "duration": 3, "velocity": 80}, {"time": 261, "pitch": 78, "duration": 3, "velocity": 80}, {"time": 264, "pitch": 76, "duration": 3, "velocity": 80}, {"time": 267, "pitch": 80, "duration": 3, "velocity": 80}, {"time": 270, "pitch": 78, "duration": 3, "velocity": 80}, {"time": 273, "pitch": 76, "duration": 3, "velocity": 80}, {"time": 276, "pitch": 83, "duration": 12, "velocity": 80}, {"time": 288, "pitch": 76, "duration": 6, "velocity": 80}, {"time": 294, "pitch": 80, "duration": 6, "velocity": 80}, {"time": 300, "pitch": 81, "duration": 6, "velocity": 80}, {"time": 306, "pitch": 73, "duration": 6, "velocity": 80}, {"time": 312, "pitch": 75, "duration": 6, "velocity": 80}, {"time": 318, "pitch": 78, "duration": 6, "velocity": 80}, {"time": 324, "pitch": 80, "duration": 6, "velocity": 80}, {"time": 330, "pitch": 71, "duration": 6, "velocity": 80}, {"time": 336, "pitch": 73, "duration": 6, "velocity": 80}, {"time": 342, "pitch": 76, "duration": 6, "velocity": 80}, {"time": 348, "pitch": 78, "duration": 6, "velocity": 80}, {"time": 354, "pitch": 69, "duration": 6, "velocity": 80}, {"time": 360, "pitch": 71, "duration": 6, "velocity": 80}, {"time": 366, "pitch": 75, "duration": 6, "velocity": 80}, {"time": 372, "pitch": 71, "duration": 3, "velocity": 80}, {"time": 375, "pitch": 83, "duration": 3, "velocity": 80}, {"time": 378, "pitch": 82, "duration": 3, "velocity": 80}, {"time": 381, "pitch": 83, "duration": 3, "velocity": 80}, {"time": 384, "pitch": 80, "duration": 3, "velocity": 80}, {"time": 387, "pitch": 83, "duration": 3, "velocity": 80}, {"time": 390, "pitch": 76, "duration": 3, "velocity": 80}, {"time": 393, "pitch": 80, "duration": 3, "velocity": 80}, {"time": 396, "pitch": 73, "duration": 3, "velocity": 80}, {"time": 399, "pitch": 81, "duration": 3, "velocity": 80}, {"time": 402, "pitch": 80, "duration": 3, "velocity": 80}, {"time": 405, "pitch": 81, "duration": 3, "velocity": 80}, {"time": 408, "pitch": 78, "duration": 3, "velocity": 80}, {"time": 411, "pitch": 81, "duration": 3, "velocity": 80}, {"time": 414, "pitch": 75, "duration": 3, "velocity": 80}, {"time": 417, "pitch": 78, "duration": 3, "velocity": 80}, {"time": 420, "pitch": 71, "duration": 3, "velocity": 80}, {"time": 423, "pitch": 80, "duration": 3, "velocity": 80}, {"time": 426, "pitch": 78, "duration": 3, "velocity": 80}, {"time": 429, "pitch": 80, "duration": 3, "velocity": 80}, {"time": 432, "pitch": 76, "duration": 3, "velocity": 80}, {"time": 435, "pitch": 80, "duration": 3, "velocity": 80}, {"time": 438, "pitch": 73, "duration": 3, "velocity": 80}, {"time": 441, "pitch": 76, "duration": 3, "velocity": 80}, {"time": 444, "pitch": 69, "duration": 3, "velocity": 80}, {"time": 447, "pitch": 78, "duration": 3, "velocity": 80}, {"time": 450, "pitch": 76, "duration": 3, "velocity": 80}, {"time": 453, "pitch": 78, "duration": 3, "velocity": 80}, {"time": 456, "pitch": 75, "duration": 3, "velocity": 80}, {"time": 459, "pitch": 78, "duration": 3, "velocity": 80}, {"time": 462, "pitch": 71, "duration": 3, "velocity": 80}, {"time": 465, "pitch": 75, "duration": 3, "velocity": 80}, {"time": 468, "pitch": 68, "duration": 3, "velocity": 80}, {"time": 471, "pitch": 71, "duration": 3, "velocity": 80}, {"time": 474, "pitch": 76, "duration": 3, "velocity": 80}, {"time": 477, "pitch": 71, "duration": 3, "velocity": 80}, {"time": 480, "pitch": 73, "duration": 3, "velocity": 80}, {"time": 483, "pitch": 69, "duration": 3, "velocity": 80}, {"time": 486, "pitch": 66, "duration": 3, "velocity": 80}, {"time": 489, "pitch": 75, "duration": 3, "velocity": 80}, {"time": 492, "pitch": 76, "duration": 3, "velocity": 80}, {"time": 495, "pitch": 71, "duration": 3, "velocity": 80}, {"time": 498, "pitch": 68, "duration": 3, "velocity": 80}, {"time": 501, "pitch": 64, "duration": 3, "velocity": 80}, {"time": 504, "pitch": 73, "duration": 3, "velocity": 80}, {"time": 507, "pitch": 69, "duration": 3, "velocity": 80}, {"time": 510, "pitch": 66, "duration": 3, "velocity": 80}, {"time": 513, "pitch": 75, "duration": 3, "velocity": 80}, {"time": 516, "pitch": 76, "duration": 3, "velocity": 80}, {"time": 519, "pitch": 71, "duration": 3, "velocity": 80}, {"time": 522, "pitch": 68, "duration": 3, "velocity": 80}, {"time": 525, "pitch": 64, "duration": 3, "velocity": 80}, {"time": 528, "pitch": 73, "duration": 3, "velocity": 80}, {"time": 531, "pitch": 69, "duration": 3, "velocity": 80}, {"time": 534, "pitch": 66, "duration": 3, "velocity": 80}, {"time": 537, "pitch": 75, "duration": 3, "velocity": 80}, {"time": 540, "pitch": 76, "duration": 3, "velocity": 80}, {"time": 543, "pitch": 71, "duration": 3, "velocity": 80}, {"time": 546, "pitch": 73, "duration": 3, "velocity": 80}, {"time": 549, "pitch": 69, "duration": 3, "velocity": 80}, {"time": 552, "pitch": 68, "duration": 3, "velocity": 80}, {"time": 555, "pitch": 76, "duration": 3, "velocity": 80}, {"time": 558, "pitch": 66, "duration": 3, "velocity": 80}, {"time": 561, "pitch": 75, "duration": 3, "velocity": 80}, {"time": 564, "pitch": 76, "duration": 3, "velocity": 80}, {"time": 567, "pitch": 71, "duration": 3, "velocity": 80}, {"time": 570, "pitch": 68, "duration": 3, "velocity": 80}, {"time": 573, "pitch": 64, "duration": 3, "velocity": 80}, {"time": 576, "pitch": 61, "duration": 3, "velocity": 80}, {"time": 579, "pitch": 57, "duration": 3, "velocity": 80}, {"time": 582, "pitch": 54, "duration": 3, "velocity": 80}, {"time": 585, "pitch": 63, "duration": 3, "velocity": 80}, {"time": 588, "pitch": 64, "duration": 3, "velocity": 80}, {"time": 591, "pitch": 59, "duration": 3, "velocity": 80}, {"time": 594, "pitch": 56, "duration": 3, "velocity": 80}, {"time": 597, "pitch": 52, "duration": 3, "velocity": 80}, {"time": 600, "pitch": 61, "duration": 3, "velocity": 80}, {"time": 603, "pitch": 57, "duration": 3, "velocity": 80}, {"time": 606, "pitch": 54, "duration": 3, "velocity": 80}, {"time": 609, "pitch": 63, "duration": 3, "velocity": 80}, {"time": 612, "pitch": 64, "duration": 3, "velocity": 80}, {"time": 615, "pitch": 59, "duration": 3, "velocity": 80}, {"time": 618, "pitch": 56, "duration": 3, "velocity": 80}, {"time": 621, "pitch": 52, "duration": 3, "velocity": 80}, {"time": 624, "pitch": 61, "duration": 3, "velocity": 80}, {"time": 627, "pitch": 57, "duration": 3, "velocity": 80}, {"time": 630, "pitch": 54, "duration": 3, "velocity": 80}, {"time": 633, "pitch": 63, "duration": 3, "velocity": 80}, {"time": 636, "pitch": 64, "duration": 3, "velocity": 80}, {"time": 639, "pitch": 59, "duration": 3, "velocity": 80}, {"time": 642, "pitch": 61, "duration": 3, "velocity": 80}, {"time": 645, "pitch": 57, "duration": 3, "velocity": 80}, {"time": 648, "pitch": 56, "duration": 3, "velocity": 80}, {"time": 651, "pitch": 64, "duration": 3, "velocity": 80}, {"time": 654, "pitch": 54, "duration": 3, "velocity": 80}, {"time": 657, "pitch": 63, "duration": 3, "velocity": 80}, {"time": 660, "pitch": 64, "duration": 12, "velocity": 80}, {"time": 672, "pitch": 64, "duration": 3, "velocity": 80}, {"time": 675, "pitch": 59, "duration": 3, "velocity": 80}, {"time": 678, "pitch": 68, "duration": 3, "velocity": 80}, {"time": 681, "pitch": 64, "duration": 3, "velocity": 80}, {"time": 684, "pitch": 66, "duration": 3, "velocity": 80}, {"time": 687, "pitch": 59, "duration": 3, "velocity": 80}, {"time": 690, "pitch": 69, "duration": 3, "velocity": 80}, {"time": 693, "pitch": 66, "duration": 3, "velocity": 80}, {"time": 696, "pitch": 68, "duration": 3, "velocity": 80}, {"time": 699, "pitch": 64, "duration": 3, "velocity": 80}, {"time": 702, "pitch": 71, "duration": 3, "velocity": 80}, {"time": 705, "pitch": 68, "duration": 3, "velocity": 80}, {"time": 708, "pitch": 66, "duration": 3, "velocity": 80}, {"time": 711, "pitch": 71, "duration": 3, "velocity": 80}, {"time": 714, "pitch": 63, "duration": 3, "velocity": 80}, {"time": 717, "pitch": 66, "duration": 3, "velocity": 80}, {"time": 720, "pitch": 59, "duration": 3, "velocity": 80}, {"time": 723, "pitch": 64, "duration": 3, "velocity": 80}, {"time": 726, "pitch": 68, "duration": 3, "velocity": 80}, {"time": 729, "pitch": 64, "duration": 3, "velocity": 80}, {"time": 732, "pitch": 66, "duration": 3, "velocity": 80}, {"time": 735, "pitch": 59, "duration": 3, "velocity": 80}, {"time": 738, "pitch": 69, "duration": 3, "velocity": 80}, {"time": 741, "pitch": 66, "duration": 3, "velocity": 80}, {"time": 744, "pitch": 68, "duration": 3, "velocity": 80}, {"time": 747, "pitch": 64, "duration": 3, "velocity": 80}, {"time": 750, "pitch": 71, "duration": 3, "velocity": 80}, {"time": 753, "pitch": 68, "duration": 3, "velocity": 80}, {"time": 756, "pitch": 66, "duration": 3, "velocity": 80}, {"time": 759, "pitch": 71, "duration": 3, "velocity": 80}, {"time": 762, "pitch": 63, "duration": 3, "velocity": 80}, {"time": 765, "pitch": 66, "duration": 3, "velocity": 80}, {"time": 768, "pitch": 59, "duration": 3, "velocity": 80}, {"time": 771, "pitch": 64, "duration": 3, "velocity": 80}, {"time": 774, "pitch": 68, "duration": 3, "velocity": 80}, {"time": 777, "pitch": 64, "duration": 3, "velocity": 80}, {"time": 780, "pitch": 61, "duration": 3, "velocity": 80}, {"time": 783, "pitch": 66, "duration": 3, "velocity": 80}, {"time": 786, "pitch": 69, "duration": 3, "velocity": 80}, {"time": 789, "pitch": 66, "duration": 3, "velocity": 80}, {"time": 792, "pitch": 63, "duration": 3, "velocity": 80}, {"time": 795, "pitch": 68, "duration": 3, "velocity": 80}, {"time": 798, "pitch": 71, "duration": 3, "velocity": 80}, {"time": 801, "pitch": 68, "duration": 3, "velocity": 80}, {"time": 804, "pitch": 64, "duration": 3, "velocity": 80}, {"time": 807, "pitch": 75, "duration": 3, "velocity": 80}, {"time": 810, "pitch": 76, "duration": 3, "velocity": 80}, {"time": 813, "pitch": 73, "duration": 3, "velocity": 80}, {"time": 816, "pitch": 71, "duration": 3, "velocity": 80}, {"time": 819, "pitch": 76, "duration": 3, "velocity": 80}, {"time": 822, "pitch": 80, "duration": 3, "velocity": 80}, {"time": 825, "pitch": 76, "duration": 3, "velocity": 80}, {"time": 828, "pitch": 73, "duration": 3, "velocity": 80}, {"time": 831, "pitch": 78, "duration": 3, "velocity": 80}, {"time": 834, "pitch": 81, "duration": 3, "velocity": 80}, {"time": 837, "pitch": 78, "duration": 3, "velocity": 80}, {"time": 840, "pitch": 80, "duration": 3, "velocity": 80}, {"time": 843, "pitch": 76, "duration": 3, "velocity": 80}, {"time": 846, "pitch": 78, "duration": 3, "velocity": 80}, {"time": 849, "pitch": 75, "duration": 3, "velocity": 80}, {"time": 855, "pitch": 76, "duration": 3, "velocity": 80}, {"time": 858, "pitch": 71, "duration": 3, "velocity": 80}, {"time": 861, "pitch": 68, "duration": 3, "velocity": 80}, {"time": 864, "pitch": 64, "duration": 3, "velocity": 80}, {"time": 867, "pitch": 68, "duration": 3, "velocity": 80}, {"time": 870, "pitch": 66, "duration": 3, "velocity": 80}, {"time": 873, "pitch": 69, "duration": 3, "velocity": 80}, {"time": 876, "pitch": 68, "duration": 3, "velocity": 80}, {"time": 879, "pitch": 71, "duration": 3, "velocity": 80}, {"time": 882, "pitch": 70, "duration": 3, "velocity": 80}, {"time": 885, "pitch": 73, "duration": 3, "velocity": 80}, {"time": 888, "pitch": 71, "duration": 3, "velocity": 80}, {"time": 891, "pitch": 74, "duration": 3, "velocity": 80}, {"time": 894, "pitch": 73, "duration": 3, "velocity": 80}, {"time": 897, "pitch": 76, "duration": 3, "velocity": 80}, {"time": 900, "pitch": 74, "duration": 3, "velocity": 80}, {"time": 903, "pitch": 78, "duration": 3, "velocity": 80}, {"time": 906, "pitch": 74, "duration": 3, "velocity": 80}, {"time": 909, "pitch": 70, "duration": 3, "velocity": 80}, {"time": 912, "pitch": 71, "duration": 3, "velocity": 80}, {"time": 915, "pitch": 74, "duration": 3, "velocity": 80}, {"time": 918, "pitch": 73, "duration": 3, "velocity": 80}, {"time": 921, "pitch": 76, "duration": 3, "velocity": 80}, {"time": 924, "pitch": 74, "duration": 3, "velocity": 80}, {"time": 927, "pitch": 78, "duration": 3, "velocity": 80}, {"time": 930, "pitch": 77, "duration": 3, "velocity": 80}, {"time": 933, "pitch": 80, "duration": 3, "velocity": 80}, {"time": 936, "pitch": 78, "duration": 3, "velocity": 80}, {"time": 939, "pitch": 81, "duration": 3, "velocity": 80}, {"time": 942, "pitch": 80, "duration": 3, "velocity": 80}, {"time": 945, "pitch": 83, "duration": 3, "velocity": 80}, {"time": 948, "pitch": 81, "duration": 3, "velocity": 80}, {"time": 951, "pitch": 85, "duration": 3, "velocity": 80}, {"time": 954, "pitch": 81, "duration": 3, "velocity": 80}, {"time": 957, "pitch": 77, "duration": 3, "velocity": 80}, {"time": 960, "pitch": 78, "duration": 3, "velocity": 80}, {"time": 963, "pitch": 81, "duration": 3, "velocity": 80}, {"time": 966, "pitch": 78, "duration": 3, "velocity": 80}, {"time": 969, "pitch": 73, "duration": 3, "velocity": 80}, {"time": 972, "pitch": 74, "duration": 3, "velocity": 80}, {"time": 975, "pitch": 78, "duration": 3, "velocity": 80}, {"time": 978, "pitch": 71, "duration": 3, "velocity": 80}, {"time": 981, "pitch": 74, "duration": 3, "velocity": 80}, {"time": 984, "pitch": 68, "duration": 3, "velocity": 80}, {"time": 987, "pitch": 71, "duration": 3, "velocity": 80}, {"time": 990, "pitch": 76, "duration": 3, "velocity": 80}, {"time": 993, "pitch": 74, "duration": 3, "velocity": 80}, {"time": 996, "pitch": 73, "duration": 3, "velocity": 80}, {"time": 999, "pitch": 76, "duration": 3, "velocity": 80}, {"time": 1002, "pitch": 69, "duration": 3, "velocity": 80}, {"time": 1005, "pitch": 73, "duration": 3, "velocity": 80}, {"time": 1008, "pitch": 66, "duration": 3, "velocity": 80}, {"time": 1011, "pitch": 69, "duration": 3, "velocity": 80}, {"time": 1014, "pitch": 74, "duration": 3, "velocity": 80}, {"time": 1017, "pitch": 73, "duration": 3, "velocity": 80}, {"time": 1020, "pitch": 71, "duration": 3, "velocity": 80}, {"time": 1023, "pitch": 74, "duration": 3, "velocity": 80}, {"time": 1026, "pitch": 68, "duration": 3, "velocity": 80}, {"time": 1029, "pitch": 71, "duration": 3, "velocity": 80}, {"time": 1032, "pitch": 65, "duration": 3, "velocity": 80}, {"time": 1035, "pitch": 68, "duration": 3, "velocity": 80}, {"time": 1038, "pitch": 73, "duration": 3, "velocity": 80}, {"time": 1041, "pitch": 71, "duration": 3, "velocity": 80}, {"time": 1044, "pitch": 69, "duration": 3, "velocity": 80}, {"time": 1047, "pitch": 73, "duration": 3, "velocity": 80}, {"time": 1050, "pitch": 69, "duration": 3, "velocity": 80}, {"time": 1053, "pitch": 65, "duration": 3, "velocity": 80}, {"time": 1056, "pitch": 66, "duration": 6, "velocity": 80}, {"time": 1062, "pitch": 69, "duration": 6, "velocity": 80}, {"time": 1068, "pitch": 71, "duration": 6, "velocity": 80}, {"time": 1074, "pitch": 74, "duration": 6, "velocity": 80}, {"time": 1080, "pitch": 78, "duration": 6, "velocity": 80}, {"time": 1086, "pitch": 68, "duration": 6, "velocity": 80}, {"time": 1092, "pitch": 69, "duration": 6, "velocity": 80}, {"time": 1098, "pitch": 73, "duration": 6, "velocity": 80}, {"time": 1104, "pitch": 74, "duration": 6, "velocity": 80}, {"time": 1110, "pitch": 66, "duration": 6, "velocity": 80}, {"time": 1116, "pitch": 68, "duration": 6, "velocity": 80}, {"time": 1122, "pitch": 71, "duration": 6, "velocity": 80}, {"time": 1128, "pitch": 73, "duration": 6, "velocity": 80}, {"time": 1134, "pitch": 65, "duration": 6, "velocity": 80}, {"time": 1140, "pitch": 66, "duration": 3, "velocity": 80}, {"time": 1143, "pitch": 73, "duration": 3, "velocity": 80}, {"time": 1146, "pitch": 69, "duration": 3, "velocity": 80}, {"time": 1149, "pitch": 66, "duration": 3, "velocity": 80}, {"time": 1152, "pitch": 74, "duration": 3, "velocity": 80}, {"time": 1155, "pitch": 71, "duration": 3, "velocity": 80}, {"time": 1158, "pitch": 68, "duration": 3, "velocity": 80}, {"time": 1161, "pitch": 65, "duration": 3, "velocity": 80}, {"time": 1164, "pitch": 66, "duration": 3, "velocity": 80}, {"time": 1167, "pitch": 73, "duration": 3, "velocity": 80}, {"time": 1170, "pitch": 69, "duration": 3, "velocity": 80}, {"time": 1173, "pitch": 66, "duration": 3, "velocity": 80}, {"time": 1176, "pitch": 74, "duration": 3, "velocity": 80}, {"time": 1179, "pitch": 71, "duration": 3, "velocity": 80}, {"time": 1182, "pitch": 68, "duration": 3, "velocity": 80}, {"time": 1185, "pitch": 65, "duration": 3, "velocity": 80}, {"time": 1188, "pitch": 66, "duration": 3, "velocity": 80}, {"time": 1191, "pitch": 73, "duration": 3, "velocity": 80}, {"time": 1194, "pitch": 69, "duration": 3, "velocity": 80}, {"time": 1197, "pitch": 66, "duration": 3, "velocity": 80}, {"time": 1200, "pitch": 74, "duration": 3, "velocity": 80}, {"time": 1203, "pitch": 71, "duration": 3, "velocity": 80}, {"time": 1206, "pitch": 68, "duration": 3, "velocity": 80}, {"time": 1209, "pitch": 65, "duration": 3, "velocity": 80}, {"time": 1212, "pitch": 66, "duration": 3, "velocity": 80}, {"time": 1215, "pitch": 78, "duration": 3, "velocity": 80}, {"time": 1218, "pitch": 74, "duration": 3, "velocity": 80}, {"time": 1221, "pitch": 71, "duration": 3, "velocity": 80}, {"time": 1224, "pitch": 69, "duration": 3, "velocity": 80}, {"time": 1227, "pitch": 78, "duration": 3, "velocity": 80}, {"time": 1230, "pitch": 68, "duration": 3, "velocity": 80}, {"time": 1233, "pitch": 77, "duration": 3, "velocity": 80}, {"time": 1236, "pitch": 78, "duration": 3, "velocity": 80}, {"time": 1239, "pitch": 73, "duration": 3, "velocity": 80}, {"time": 1242, "pitch": 69, "duration": 3, "velocity": 80}, {"time": 1245, "pitch": 66, "duration": 3, "velocity": 80}, {"time": 1248, "pitch": 62, "duration": 3, "velocity": 80}, {"time": 1251, "pitch": 59, "duration": 3, "velocity": 80}, {"time": 1254, "pitch": 56, "duration": 3, "velocity": 80}, {"time": 1257, "pitch": 53, "duration": 3, "velocity": 80}, {"time": 1260, "pitch": 54, "duration": 3, "velocity": 80}, {"time": 1263, "pitch": 61, "duration": 3, "velocity": 80}, {"time": 1266, "pitch": 57, "duration": 3, "velocity": 80}, {"time": 1269, "pitch": 54, "duration": 3, "velocity": 80}, {"time": 1272, "pitch": 62, "duration": 3, "velocity": 80}, {"time": 1275, "pitch": 59, "duration": 3, "velocity": 80}, {"time": 1278, "pitch": 56, "duration": 3, "velocity": 80}, {"time": 1281, "pitch": 53, "duration": 3, "velocity": 80}, {"time": 1284, "pitch": 54, "duration": 3, "velocity": 80}, {"time": 1287, "pitch": 61, "duration": 3, "velocity": 80}, {"time": 1290, "pitch": 57, "duration": 3, "velocity": 80}, {"time": 1293, "pitch": 54, "duration": 3, "velocity": 80}, {"time": 1296, "pitch": 62, "duration": 3, "velocity": 80}, {"time": 1299, "pitch": 59, "duration": 3, "velocity": 80}, {"time": 1302, "pitch": 56, "duration": 3, "velocity": 80}, {"time": 1305, "pitch": 53, "duration": 3, "velocity": 80}, {"time": 1308, "pitch": 54, "duration": 3, "velocity": 80}, {"time": 1311, "pitch": 66, "duration": 3, "velocity": 80}, {"time": 1314, "pitch": 62, "duration": 3, "velocity": 80}, {"time": 1317, "pitch": 59, "duration": 3, "velocity": 80}, {"time": 1320, "pitch": 57, "duration": 3, "velocity": 80}, {"time": 1323, "pitch": 66, "duration": 3, "velocity": 80}, {"time": 1326, "pitch": 56, "duration": 3, "velocity": 80}, {"time": 1329, "pitch": 65, "duration": 3, "velocity": 80}, {"time": 1332, "pitch": 66, "duration": 12, "velocity": 80}, {"time": 1344, "pitch": 69, "duration": 3, "velocity": 80}, {"time": 1347, "pitch": 64, "duration": 3, "velocity": 80}, {"time": 1350, "pitch": 73, "duration": 3, "velocity": 80}, {"time": 1353, "pitch": 69, "duration": 3, "velocity": 80}, {"time": 1356, "pitch": 71, "duration": 3, "velocity": 80}, {"time": 1359, "pitch": 64, "duration": 3, "velocity": 80}, {"time": 1362, "pitch": 74, "duration": 3, "velocity": 80}, {"time": 1365, "pitch": 71, "duration": 3, "velocity": 80}, {"time": 1368, "pitch": 73, "duration": 3, "velocity": 80}, {"time": 1371, "pitch": 69, "duration": 3, "velocity": 80}, {"time": 1374, "pitch": 76, "duration": 3, "velocity": 80}, {"time": 1377, "pitch": 73, "duration": 3, "velocity": 80}, {"time": 1380, "pitch": 71, "duration": 3, "velocity": 80}, {"time": 1383, "pitch": 76, "duration": 3, "velocity": 80}, {"time": 1386, "pitch": 68, "duration": 3, "velocity": 80}, {"time": 1389, "pitch": 71, "duration": 3, "velocity": 80}, {"time": 1392, "pitch": 69, "duration": 3, "velocity": 80}, {"time": 1395, "pitch": 64, "duration": 3, "velocity": 80}, {"time": 1398, "pitch": 73, "duration": 3, "velocity": 80}, {"time": 1401, "pitch": 69, "duration": 3, "velocity": 80}, {"time": 1404, "pitch": 71, "duration": 3, "velocity": 80}, {"time": 1407, "pitch": 64, "duration": 3, "velocity": 80}, {"time": 1410, "pitch": 74, "duration": 3, "velocity": 80}, {"time": 1413, "pitch": 71, "duration": 3, "velocity": 80}, {"time": 1416, "pitch": 73, "duration": 3, "velocity": 80}, {"time": 1419, "pitch": 69, "duration": 3, "velocity": 80}, {"time": 1422, "pitch": 64, "duration": 3, "velocity": 80}, {"time": 1425, "pitch": 73, "duration": 3, "velocity": 80}, {"time": 1428, "pitch": 71, "duration": 3, "velocity": 80}, {"time": 1431, "pitch": 76, "duration": 3, "velocity": 80}, {"time": 1434, "pitch": 68, "duration": 3, "velocity": 80}, {"time": 1437, "pitch": 71, "duration": 3, "velocity": 80}, {"time": 1440, "pitch": 69, "duration": 3, "velocity": 80}, {"time": 1443, "pitch": 73, "duration": 3, "velocity": 80}, {"time": 1446, "pitch": 76, "duration": 3, "velocity": 80}, {"time": 1449, "pitch": 79, "duration": 3, "velocity": 80}, {"time": 1452, "pitch": 78, "duration": 3, "velocity": 80}, {"time": 1455, "pitch": 73, "duration": 3, "velocity": 80}, {"time": 1458, "pitch": 74, "duration": 3, "velocity": 80}, {"time": 1461, "pitch": 68, "duration": 3, "velocity": 80}, {"time": 1464, "pitch": 69, "duration": 3, "velocity": 80}, {"time": 1467, "pitch": 73, "duration": 3, "velocity": 80}, {"time": 1470, "pitch": 76, "duration": 3, "velocity": 80}, {"time": 1473, "pitch": 79, "duration": 3, "velocity": 80}, {"time": 1476, "pitch": 78, "duration": 3, "velocity": 80}, {"time": 1479, "pitch": 73, "duration": 3, "velocity": 80}, {"time": 1482, "pitch": 74, "duration": 3, "velocity": 80}, {"time": 1485, "pitch": 70, "duration": 3, "velocity": 80}, {"time": 1488, "pitch": 71, "duration": 3, "velocity": 80}, {"time": 1491, "pitch": 75, "duration": 3, "velocity": 80}, {"time": 1494, "pitch": 78, "duration": 3, "velocity": 80}, {"time": 1497, "pitch": 81, "duration": 3, "velocity": 80}, {"time": 1500, "pitch": 80, "duration": 3, "velocity": 80}, {"time": 1503, "pitch": 75, "duration": 3, "velocity": 80}, {"time": 1506, "pitch": 76, "duration": 3, "velocity": 80}, {"time": 1509, "pitch": 70, "duration": 3, "velocity": 80}, {"time": 1512, "pitch": 71, "duration": 3, "velocity": 80}, {"time": 1515, "pitch": 75, "duration": 3, "velocity": 80}, {"time": 1518, "pitch": 78, "duration": 3, "velocity": 80}, {"time": 1521, "pitch": 81, "duration": 3, "velocity": 80}, {"time": 1524, "pitch": 80, "duration": 3, "velocity": 80}, {"time": 1527, "pitch": 76, "duration": 3, "velocity": 80}, {"time": 1530, "pitch": 75, "duration": 3, "velocity": 80}, {"time": 1533, "pitch": 76, "duration": 3, "velocity": 80}, {"time": 1536, "pitch": 73, "duration": 3, "velocity": 80}, {"time": 1539, "pitch": 76, "duration": 3, "velocity": 80}, {"time": 1542, "pitch": 69, "duration": 3, "velocity": 80}, {"time": 1545, "pitch": 73, "duration": 3, "velocity": 80}, {"time": 1548, "pitch": 78, "duration": 3, "velocity": 80}, {"time": 1551, "pitch": 74, "duration": 3, "velocity": 80}, {"time": 1554, "pitch": 73, "duration": 3, "velocity": 80}, {"time": 1557, "pitch": 74, "duration": 3, "velocity": 80}, {"time": 1560, "pitch": 71, "duration": 3, "velocity": 80}, {"time": 1563, "pitch": 74, "duration": 3, "velocity": 80}, {"time": 1566, "pitch": 68, "duration": 3, "velocity": 80}, {"time": 1569, "pitch": 71, "duration": 3, "velocity": 80}, {"time": 1572, "pitch": 64, "duration": 3, "velocity": 80}, {"time": 1575, "pitch": 73, "duration": 3, "velocity": 80}, {"time": 1578, "pitch": 71, "duration": 3, "velocity": 80}, {"time": 1581, "pitch": 73, "duration": 3, "velocity": 80}, {"time": 1584, "pitch": 69, "duration": 3, "velocity": 80}, {"time": 1587, "pitch": 73, "duration": 3, "velocity": 80}, {"time": 1590, "pitch": 66, "duration": 3, "velocity": 80}, {"time": 1593, "pitch": 69, "duration": 3, "velocity": 80}, {"time": 1596, "pitch": 62, "duration": 3, "velocity": 80}, {"time": 1599, "pitch": 71, "duration": 3, "velocity": 80}, {"time": 1602, "pitch": 69, "duration": 3, "velocity": 80}, {"time": 1605, "pitch": 71, "duration": 3, "velocity": 80}, {"time": 1608, "pitch": 68, "duration": 3, "velocity": 80}, {"time": 1611, "pitch": 71, "duration": 3, "velocity": 80}, {"time": 1614, "pitch": 64, "duration": 3, "velocity": 80}, {"time": 1617, "pitch": 68, "duration": 3, "velocity": 80}, {"time": 1620, "pitch": 61, "duration": 12, "velocity": 80}, {"time": 1632, "pitch": 69, "duration": 6, "velocity": 80}, {"time": 1638, "pitch": 73, "duration": 6, "velocity": 80}, {"time": 1644, "pitch": 74, "duration": 6, "velocity": 80}, {"time": 1650, "pitch": 66, "duration": 6, "velocity": 80}, {"time": 1656, "pitch": 68, "duration": 6, "velocity": 80}, {"time": 1662, "pitch": 71, "duration": 6, "velocity": 80}, {"time": 1668, "pitch": 73, "duration": 6, "velocity": 80}, {"time": 1674, "pitch": 64, "duration": 6, "velocity": 80}, {"time": 1680, "pitch": 66, "duration": 6, "velocity": 80}, {"time": 1686, "pitch": 69, "duration": 6, "velocity": 80}, {"time": 1692, "pitch": 71, "duration": 6, "velocity": 80}, {"time": 1698, "pitch": 62, "duration": 6, "velocity": 80}, {"time": 1704, "pitch": 64, "duration": 6, "velocity": 80}, {"time": 1710, "pitch": 68, "duration": 6, "velocity": 80}, {"time": 1719, "pitch": 69, "duration": 3, "velocity": 80}, {"time": 1722, "pitch": 73, "duration": 3, "velocity": 80}, {"time": 1725, "pitch": 76, "duration": 3, "velocity": 80}, {"time": 1728, "pitch": 78, "duration": 3, "velocity": 80}, {"time": 1731, "pitch": 74, "duration": 3, "velocity": 80}, {"time": 1734, "pitch": 71, "duration": 3, "velocity": 80}, {"time": 1737, "pitch": 80, "duration": 3, "velocity": 80}, {"time": 1740, "pitch": 81, "duration": 3, "velocity": 80}, {"time": 1743, "pitch": 76, "duration": 3, "velocity": 80}, {"time": 1746, "pitch": 73, "duration": 3, "velocity": 80}, {"time": 1749, "pitch": 69, "duration": 3, "velocity": 80}, {"time": 1752, "pitch": 78, "duration": 3, "velocity": 80}, {"time": 1755, "pitch": 74, "duration": 3, "velocity": 80}, {"time": 1758, "pitch": 71, "duration": 3, "velocity": 80}, {"time": 1761, "pitch": 80, "duration": 3, "velocity": 80}, {"time": 1764, "pitch": 81, "duration": 3, "velocity": 80}, {"time": 1767, "pitch": 76, "duration": 3, "velocity": 80}, {"time": 1770, "pitch": 73, "duration": 3, "velocity": 80}, {"time": 1773, "pitch": 69, "duration": 3, "velocity": 80}, {"time": 1776, "pitch": 78, "duration": 3, "velocity": 80}, {"time": 1779, "pitch": 74, "duration": 3, "velocity": 80}, {"time": 1782, "pitch": 71, "duration": 3, "velocity": 80}, {"time": 1785, "pitch": 80, "duration": 3, "velocity": 80}, {"time": 1788, "pitch": 81, "duration": 3, "velocity": 80}, {"time": 1791, "pitch": 76, "duration": 3, "velocity": 80}, {"time": 1794, "pitch": 78, "duration": 3, "velocity": 80}, {"time": 1797, "pitch": 74, "duration": 3, "velocity": 80}, {"time": 1800, "pitch": 73, "duration": 3, "velocity": 80}, {"time": 1803, "pitch": 81, "duration": 3, "velocity": 80}, {"time": 1806, "pitch": 71, "duration": 3, "velocity": 80}, {"time": 1809, "pitch": 80, "duration": 3, "velocity": 80}, {"time": 1812, "pitch": 81, "duration": 3, "velocity": 80}, {"time": 1815, "pitch": 76, "duration": 3, "velocity": 80}, {"time": 1818, "pitch": 73, "duration": 3, "velocity": 80}, {"time": 1821, "pitch": 69, "duration": 3, "velocity": 80}, {"time": 1824, "pitch": 66, "duration": 3, "velocity": 80}, {"time": 1827, "pitch": 62, "duration": 3, "velocity": 80}, {"time": 1830, "pitch": 59, "duration": 3, "velocity": 80}, {"time": 1833, "pitch": 68, "duration": 3, "velocity": 80}, {"time": 1836, "pitch": 69, "duration": 3, "velocity": 80}, {"time": 1839, "pitch": 64, "duration": 3, "velocity": 80}, {"time": 1842, "pitch": 61, "duration": 3, "velocity": 80}, {"time": 1845, "pitch": 57, "duration": 3, "velocity": 80}, {"time": 1848, "pitch": 66, "duration": 3, "velocity": 80}, {"time": 1851, "pitch": 62, "duration": 3, "velocity": 80}, {"time": 1854, "pitch": 59, "duration": 3, "velocity": 80}, {"time": 1857, "pitch": 68, "duration": 3, "velocity": 80}, {"time": 1860, "pitch": 69, "duration": 3, "velocity": 80}, {"time": 1863, "pitch": 64, "duration": 3, "velocity": 80}, {"time": 1866, "pitch": 61, "duration": 3, "velocity": 80}, {"time": 1869, "pitch": 57, "duration": 3, "velocity": 80}, {"time": 1872, "pitch": 66, "duration": 3, "velocity": 80}, {"time": 1875, "pitch": 62, "duration": 3, "velocity": 80}, {"time": 1878, "pitch": 59, "duration": 3, "velocity": 80}, {"time": 1881, "pitch": 68, "duration": 3, "velocity": 80}, {"time": 1884, "pitch": 69, "duration": 3, "velocity": 80}, {"time": 1887, "pitch": 64, "duration": 3, "velocity": 80}, {"time": 1890, "pitch": 66, "duration": 3, "velocity": 80}, {"time": 1893, "pitch": 62, "duration": 3, "velocity": 80}, {"time": 1896, "pitch": 61, "duration": 3, "velocity": 80}, {"time": 1899, "pitch": 69, "duration": 3, "velocity": 80}, {"time": 1902, "pitch": 59, "duration": 3, "velocity": 80}, {"time": 1905, "pitch": 68, "duration": 3, "velocity": 80}, {"time": 1908, "pitch": 69, "duration": 12, "velocity": 80}, {"time": 1920, "pitch": 64, "duration": 3, "velocity": 80}, {"time": 1923, "pitch": 59, "duration": 3, "velocity": 80}, {"time": 1926, "pitch": 68, "duration": 3, "velocity": 80}, {"time": 1929, "pitch": 64, "duration": 3, "velocity": 80}, {"time": 1932, "pitch": 66, "duration": 3, "velocity": 80}, {"time": 1935, "pitch": 59, "duration": 3, "velocity": 80}, {"time": 1938, "pitch": 69, "duration": 3, "velocity": 80}, {"time": 1941, "pitch": 66, "duration": 3, "velocity": 80}, {"time": 1944, "pitch": 68, "duration": 3, "velocity": 80}, {"time": 1947, "pitch": 64, "duration": 3, "velocity": 80}, {"time": 1950, "pitch": 71, "duration": 3, "velocity": 80}, {"time": 1953, "pitch": 68, "duration": 3, "velocity": 80}, {"time": 1956, "pitch": 66, "duration": 3, "velocity": 80}, {"time": 1959, "pitch": 71, "duration": 3, "velocity": 80}, {"time": 1962, "pitch": 63, "duration": 3, "velocity": 80}, {"time": 1965, "pitch": 66, "duration": 3, "velocity": 80}, {"time": 1968, "pitch": 59, "duration": 3, "velocity": 80}, {"time": 1971, "pitch": 64, "duration": 3, "velocity": 80}, {"time": 1974, "pitch": 68, "duration": 3, "velocity": 80}, {"time": 1977, "pitch": 64, "duration": 3, "velocity": 80}, {"time": 1980, "pitch": 66, "duration": 3, "velocity": 80}, {"time": 1983, "pitch": 59, "duration": 3, "velocity": 80}, {"time": 1986, "pitch": 69, "duration": 3, "velocity": 80}, {"time": 1989, "pitch": 66, "duration": 3, "velocity": 80}, {"time": 1992, "pitch": 68, "duration": 3, "velocity": 80}, {"time": 1995, "pitch": 64, "duration": 3, "velocity": 80}, {"time": 1998, "pitch": 71, "duration": 3, "velocity": 80}, {"time": 2001, "pitch": 68, "duration": 3, "velocity": 80}, {"time": 2004, "pitch": 66, "duration": 3, "velocity": 80}, {"time": 2007, "pitch": 71, "duration": 3, "velocity": 80}, {"time": 2010, "pitch": 63, "duration": 3, "velocity": 80}, {"time": 2013, "pitch": 66, "duration": 3, "velocity": 80}, {"time": 2016, "pitch": 59, "duration": 3, "velocity": 80}, {"time": 2019, "pitch": 64, "duration": 3, "velocity": 80}, {"time": 2022, "pitch": 68, "duration": 3, "velocity": 80}, {"time": 2025, "pitch": 64, "duration": 3, "velocity": 80}, {"time": 2028, "pitch": 61, "duration": 3, "velocity": 80}, {"time": 2031, "pitch": 66, "duration": 3, "velocity": 80}, {"time": 2034, "pitch": 69, "duration": 3, "velocity": 80}, {"time": 2037, "pitch": 66, "duration": 3, "velocity": 80}, {"time": 2040, "pitch": 63, "duration": 3, "velocity": 80}, {"time": 2043, "pitch": 68, "duration": 3, "velocity": 80}, {"time": 2046, "pitch": 71, "duration": 3, "velocity": 80}, {"time": 2049, "pitch": 68, "duration": 3, "velocity": 80}, {"time": 2052, "pitch": 64, "duration": 3, "velocity": 80}, {"time": 2055, "pitch": 75, "duration": 3, "velocity": 80}, {"time": 2058, "pitch": 76, "duration": 3, "velocity": 80}, {"time": 2061, "pitch": 73, "duration": 3, "velocity": 80}, {"time": 2064, "pitch": 71, "duration": 3, "velocity": 80}, {"time": 2067, "pitch": 76, "duration": 3, "velocity": 80}, {"time": 2070, "pitch": 80, "duration": 3, "velocity": 80}, {"time": 2073, "pitch": 76, "duration": 3, "velocity": 80}, {"time": 2076, "pitch": 73, "duration": 3, "velocity": 80}, {"time": 2079, "pitch": 78, "duration": 3, "velocity": 80}, {"time": 2082, "pitch": 81, "duration": 3, "velocity": 80}, {"time": 2085, "pitch": 78, "duration": 3, "velocity": 80}, {"time": 2088, "pitch": 80, "duration": 3, "velocity": 80}, {"time": 2091, "pitch": 76, "duration": 3, "velocity": 80}, {"time": 2094, "pitch": 78, "duration": 3, "velocity": 80}, {"time": 2097, "pitch": 75, "duration": 3, "velocity": 80}, {"time": 2103, "pitch": 76, "duration": 3, "velocity": 80}, {"time": 2106, "pitch": 71, "duration": 3, "velocity": 80}, {"time": 2109, "pitch": 68, "duration": 3, "velocity": 80}, {"time": 2112, "pitch": 64, "duration": 3, "velocity": 80}, {"time": 2115, "pitch": 68, "duration": 3, "velocity": 80}, {"time": 2118, "pitch": 66, "duration": 3, "velocity": 80}, {"time": 2121, "pitch": 69, "duration": 3, "velocity": 80}, {"time": 2124, "pitch": 68, "duration": 3, "velocity": 80}, {"time": 2127, "pitch": 71, "duration": 3, "velocity": 80}, {"time": 2130, "pitch": 70, "duration": 3, "velocity": 80}, {"time": 2133, "pitch": 73, "duration": 3, "velocity": 80}, {"time": 2136, "pitch": 71, "duration": 3, "velocity": 80}, {"time": 2139, "pitch": 74, "duration": 3, "velocity": 80}, {"time": 2142, "pitch": 73, "duration": 3, "velocity": 80}, {"time": 2145, "pitch": 76, "duration": 3, "velocity": 80}, {"time": 2148, "pitch": 74, "duration": 3, "velocity": 80}, {"time": 2151, "pitch": 78, "duration": 3, "velocity": 80}, {"time": 2154, "pitch": 74, "duration": 3, "velocity": 80}, {"time": 2157, "pitch": 70, "duration": 3, "velocity": 80}, {"time": 2160, "pitch": 71, "duration": 3, "velocity": 80}, {"time": 2163, "pitch": 74, "duration": 3, "velocity": 80}, {"time": 2166, "pitch": 73, "duration": 3, "velocity": 80}, {"time": 2169, "pitch": 76, "duration": 3, "velocity": 80}, {"time": 2172, "pitch": 74, "duration": 3, "velocity": 80}, {"time": 2175, "pitch": 78, "duration": 3, "velocity": 80}, {"time": 2178, "pitch": 77, "duration": 3, "velocity": 80}, {"time": 2181, "pitch": 80, "duration": 3, "velocity": 80}, {"time": 2184, "pitch": 78, "duration": 3, "velocity": 80}, {"time": 2187, "pitch": 81, "duration": 3, "velocity": 80}, {"time": 2190, "pitch": 80, "duration": 3, "velocity": 80}, {"time": 2193, "pitch": 83, "duration": 3, "velocity": 80}, {"time": 2196, "pitch": 81, "duration": 3, "velocity": 80}, {"time": 2199, "pitch": 85, "duration": 3, "velocity": 80}, {"time": 2202, "pitch": 81, "duration": 3, "velocity": 80}, {"time": 2205, "pitch": 77, "duration": 3, "velocity": 80}, {"time": 2208, "pitch": 78, "duration": 3, "velocity": 80}, {"time": 2211, "pitch": 81, "duration": 3, "velocity": 80}, {"time": 2214, "pitch": 78, "duration": 3, "velocity": 80}, {"time": 2217, "pitch": 73, "duration": 3, "velocity": 80}, {"time": 2220, "pitch": 74, "duration": 3, "velocity": 80}, {"time": 2223, "pitch": 78, "duration": 3, "velocity": 80}, {"time": 2226, "pitch": 71, "duration": 3, "velocity": 80}, {"time": 2229, "pitch": 74, "duration": 3, "velocity": 80}, {"time": 2232, "pitch": 68, "duration": 3, "velocity": 80}, {"time": 2235, "pitch": 71, "duration": 3, "velocity": 80}, {"time": 2238, "pitch": 76, "duration": 3, "velocity": 80}, {"time": 2241, "pitch": 74, "duration": 3, "velocity": 80}, {"time": 2244, "pitch": 73, "duration": 3, "velocity": 80}, {"time": 2247, "pitch": 76, "duration": 3, "velocity": 80}, {"time": 2250, "pitch": 69, "duration": 3, "velocity": 80}, {"time": 2253, "pitch": 73, "duration": 3, "velocity": 80}, {"time": 2256, "pitch": 66, "duration": 3, "velocity": 80}, {"time": 2259, "pitch": 69, "duration": 3, "velocity": 80}, {"time": 2262, "pitch": 74, "duration": 3, "velocity": 80}, {"time": 2265, "pitch": 73, "duration": 3, "velocity": 80}, {"time": 2268, "pitch": 71, "duration": 3, "velocity": 80}, {"time": 2271, "pitch": 74, "duration": 3, "velocity": 80}, {"time": 2274, "pitch": 68, "duration": 3, "velocity": 80}, {"time": 2277, "pitch": 71, "duration": 3, "velocity": 80}, {"time": 2280, "pitch": 65, "duration": 3, "velocity": 80}, {"time": 2283, "pitch": 68, "duration": 3, "velocity": 80}, {"time": 2286, "pitch": 73, "duration": 3, "velocity": 80}, {"time": 2289, "pitch": 71, "duration": 3, "velocity": 80}, {"time": 2292, "pitch": 69, "duration": 3, "velocity": 80}, {"time": 2295, "pitch": 73, "duration": 3, "velocity": 80}, {"time": 2298, "pitch": 69, "duration": 3, "velocity": 80}, {"time": 2301, "pitch": 65, "duration": 3, "velocity": 80}, {"time": 2304, "pitch": 66, "duration": 6, "velocity": 80}, {"time": 2310, "pitch": 69, "duration": 6, "velocity": 80}, {"time": 2316, "pitch": 71, "duration": 6, "velocity": 80}, {"time": 2322, "pitch": 74, "duration": 6, "velocity": 80}, {"time": 2328, "pitch": 78, "duration": 6, "velocity": 80}, {"time": 2334, "pitch": 68, "duration": 6, "velocity": 80}, {"time": 2340, "pitch": 69, "duration": 6, "velocity": 80}, {"time": 2346, "pitch": 73, "duration": 6, "velocity": 80}, {"time": 2352, "pitch": 74, "duration": 6, "velocity": 80}, {"time": 2358, "pitch": 66, "duration": 6, "velocity": 80}, {"time": 2364, "pitch": 68, "duration": 6, "velocity": 80}, {"time": 2370, "pitch": 71, "duration": 6, "velocity": 80}, {"time": 2376, "pitch": 73, "duration": 6, "velocity": 80}, {"time": 2382, "pitch": 65, "duration": 6, "velocity": 80}, {"time": 2388, "pitch": 66, "duration": 3, "velocity": 80}, {"time": 2391, "pitch": 73, "duration": 3, "velocity": 80}, {"time": 2394, "pitch": 69, "duration": 3, "velocity": 80}, {"time": 2397, "pitch": 66, "duration": 3, "velocity": 80}, {"time": 2400, "pitch": 74, "duration": 3, "velocity": 80}, {"time": 2403, "pitch": 71, "duration": 3, "velocity": 80}, {"time": 2406, "pitch": 68, "duration": 3, "velocity": 80}, {"time": 2409, "pitch": 65, "duration": 3, "velocity": 80}, {"time": 2412, "pitch": 66, "duration": 3, "velocity": 80}, {"time": 2415, "pitch": 73, "duration": 3, "velocity": 80}, {"time": 2418, "pitch": 69, "duration": 3, "velocity": 80}, {"time": 2421, "pitch": 66, "duration": 3, "velocity": 80}, {"time": 2424, "pitch": 74, "duration": 3, "velocity": 80}, {"time": 2427, "pitch": 71, "duration": 3, "velocity": 80}, {"time": 2430, "pitch": 68, "duration": 3, "velocity": 80}, {"time": 2433, "pitch": 65, "duration": 3, "velocity": 80}, {"time": 2436, "pitch": 66, "duration": 3, "velocity": 80}, {"time": 2439, "pitch": 73, "duration": 3, "velocity": 80}, {"time": 2442, "pitch": 69, "duration": 3, "velocity": 80}, {"time": 2445, "pitch": 66, "duration": 3, "velocity": 80}, {"time": 2448, "pitch": 74, "duration": 3, "velocity": 80}, {"time": 2451, "pitch": 71, "duration": 3, "velocity": 80}, {"time": 2454, "pitch": 68, "duration": 3, "velocity": 80}, {"time": 2457, "pitch": 65, "duration": 3, "velocity": 80}, {"time": 2460, "pitch": 66, "duration": 3, "velocity": 80}, {"time": 2463, "pitch": 78, "duration": 3, "velocity": 80}, {"time": 2466, "pitch": 74, "duration": 3, "velocity": 80}, {"time": 2469, "pitch": 71, "duration": 3, "velocity": 80}, {"time": 2472, "pitch": 69, "duration": 3, "velocity": 80}, {"time": 2475, "pitch": 78, "duration": 3, "velocity": 80}, {"time": 2478, "pitch": 68, "duration": 3, "velocity": 80}, {"time": 2481, "pitch": 77, "duration": 3, "velocity": 80}, {"time": 2484, "pitch": 78, "duration": 3, "velocity": 80}, {"time": 2487, "pitch": 73, "duration": 3, "velocity": 80}, {"time": 2490, "pitch": 69, "duration": 3, "velocity": 80}, {"time": 2493, "pitch": 66, "duration": 3, "velocity": 80}, {"time": 2496, "pitch": 62, "duration": 3, "velocity": 80}, {"time": 2499, "pitch": 59, "duration": 3, "velocity": 80}, {"time": 2502, "pitch": 56, "duration": 3, "velocity": 80}, {"time": 2505, "pitch": 53, "duration": 3, "velocity": 80}, {"time": 2508, "pitch": 54, "duration": 3, "velocity": 80}, {"time": 2511, "pitch": 61, "duration": 3, "velocity": 80}, {"time": 2514, "pitch": 57, "duration": 3, "velocity": 80}, {"time": 2517, "pitch": 54, "duration": 3, "velocity": 80}, {"time": 2520, "pitch": 62, "duration": 3, "velocity": 80}, {"time": 2523, "pitch": 59, "duration": 3, "velocity": 80}, {"time": 2526, "pitch": 56, "duration": 3, "velocity": 80}, {"time": 2529, "pitch": 53, "duration": 3, "velocity": 80}, {"time": 2532, "pitch": 54, "duration": 3, "velocity": 80}, {"time": 2535, "pitch": 61, "duration": 3, "velocity": 80}, {"time": 2538, "pitch": 57, "duration": 3, "velocity": 80}, {"time": 2541, "pitch": 54, "duration": 3, "velocity": 80}, {"time": 2544, "pitch": 62, "duration": 3, "velocity": 80}, {"time": 2547, "pitch": 59, "duration": 3, "velocity": 80}, {"time": 2550, "pitch": 56, "duration": 3, "velocity": 80}, {"time": 2553, "pitch": 53, "duration": 3, "velocity": 80}, {"time": 2556, "pitch": 54, "duration": 3, "velocity": 80}, {"time": 2559, "pitch": 66, "duration": 3, "velocity": 80}, {"time": 2562, "pitch": 62, "duration": 3, "velocity": 80}, {"time": 2565, "pitch": 59, "duration": 3, "velocity": 80}, {"time": 2568, "pitch": 57, "duration": 3, "velocity": 80}, {"time": 2571, "pitch": 66, "duration": 3, "velocity": 80}, {"time": 2574, "pitch": 56, "duration": 3, "velocity": 80}, {"time": 2577, "pitch": 65, "duration": 3, "velocity": 80}, {"time": 2580, "pitch": 66, "duration": 12, "velocity": 80}, {"time": 2592, "pitch": 69, "duration": 3, "velocity": 80}, {"time": 2595, "pitch": 64, "duration": 3, "velocity": 80}, {"time": 2598, "pitch": 73, "duration": 3, "velocity": 80}, {"time": 2601, "pitch": 69, "duration": 3, "velocity": 80}, {"time": 2604, "pitch": 71, "duration": 3, "velocity": 80}, {"time": 2607, "pitch": 64, "duration": 3, "velocity": 80}, {"time": 2610, "pitch": 74, "duration": 3, "velocity": 80}, {"time": 2613, "pitch": 71, "duration": 3, "velocity": 80}, {"time": 2616, "pitch": 73, "duration": 3, "velocity": 80}, {"time": 2619, "pitch": 69, "duration": 3, "velocity": 80}, {"time": 2622, "pitch": 76, "duration": 3, "velocity": 80}, {"time": 2625, "pitch": 73, "duration": 3, "velocity": 80}, {"time": 2628, "pitch": 71, "duration": 3, "velocity": 80}, {"time": 2631, "pitch": 76, "duration": 3, "velocity": 80}, {"time": 2634, "pitch": 68, "duration": 3, "velocity": 80}, {"time": 2637, "pitch": 71, "duration": 3, "velocity": 80}, {"time": 2640, "pitch": 69, "duration": 3, "velocity": 80}, {"time": 2643, "pitch": 64, "duration": 3, "velocity": 80}, {"time": 2646, "pitch": 73, "duration": 3, "velocity": 80}, {"time": 2649, "pitch": 69, "duration": 3, "velocity": 80}, {"time": 2652, "pitch": 71, "duration": 3, "velocity": 80}, {"time": 2655, "pitch": 64, "duration": 3, "velocity": 80}, {"time": 2658, "pitch": 74, "duration": 3, "velocity": 80}, {"time": 2661, "pitch": 71, "duration": 3, "velocity": 80}, {"time": 2664, "pitch": 73, "duration": 3, "velocity": 80}, {"time": 2667, "pitch": 69, "duration": 3, "velocity": 80}, {"time": 2670, "pitch": 64, "duration": 3, "velocity": 80}, {"time": 2673, "pitch": 73, "duration": 3, "velocity": 80}, {"time": 2676, "pitch": 71, "duration": 3, "velocity": 80}, {"time": 2679, "pitch": 76, "duration": 3, "velocity": 80}, {"time": 2682, "pitch": 68, "duration": 3, "velocity": 80}, {"time": 2685, "pitch": 71, "duration": 3, "velocity": 80}, {"time": 2688, "pitch": 69, "duration": 3, "velocity": 80}, {"time": 2691, "pitch": 73, "duration": 3, "velocity": 80}, {"time": 2694, "pitch": 76, "duration": 3, "velocity": 80}, {"time": 2697, "pitch": 79, "duration": 3, "velocity": 80}, {"time": 2700, "pitch": 78, "duration": 3, "velocity": 80}, {"time": 2703, "pitch": 73, "duration": 3, "velocity": 80}, {"time": 2706, "pitch": 74, "duration": 3, "velocity": 80}, {"time": 2709, "pitch": 68, "duration": 3, "velocity": 80}, {"time": 2712, "pitch": 69, "duration": 3, "velocity": 80}, {"time": 2715, "pitch": 73, "duration": 3, "velocity": 80}, {"time": 2718, "pitch": 76, "duration": 3, "velocity": 80}, {"time": 2721, "pitch": 79, "duration": 3, "velocity": 80}, {"time": 2724, "pitch": 78, "duration": 3, "velocity": 80}, {"time": 2727, "pitch": 73, "duration": 3, "velocity": 80}, {"time": 2730, "pitch": 74, "duration": 3, "velocity": 80}, {"time": 2733, "pitch": 70, "duration": 3, "velocity": 80}, {"time": 2736, "pitch": 71, "duration": 3, "velocity": 80}, {"time": 2739, "pitch": 75, "duration": 3, "velocity": 80}, {"time": 2742, "pitch": 78, "duration": 3, "velocity": 80}, {"time": 2745, "pitch": 81, "duration": 3, "velocity": 80}, {"time": 2748, "pitch": 80, "duration": 3, "velocity": 80}, {"time": 2751, "pitch": 75, "duration": 3, "velocity": 80}, {"time": 2754, "pitch": 76, "duration": 3, "velocity": 80}, {"time": 2757, "pitch": 70, "duration": 3, "velocity": 80}, {"time": 2760, "pitch": 71, "duration": 3, "velocity": 80}, {"time": 2763, "pitch": 75, "duration": 3, "velocity": 80}, {"time": 2766, "pitch": 78, "duration": 3, "velocity": 80}, {"time": 2769, "pitch": 81, "duration": 3, "velocity": 80}, {"time": 2772, "pitch": 80, "duration": 3, "velocity": 80}, {"time": 2775, "pitch": 76, "duration": 3, "velocity": 80}, {"time": 2778, "pitch": 75, "duration": 3, "velocity": 80}, {"time": 2781, "pitch": 76, "duration": 3, "velocity": 80}, {"time": 2784, "pitch": 73, "duration": 3, "velocity": 80}, {"time": 2787, "pitch": 76, "duration": 3, "velocity": 80}, {"time": 2790, "pitch": 69, "duration": 3, "velocity": 80}, {"time": 2793, "pitch": 73, "duration": 3, "velocity": 80}, {"time": 2796, "pitch": 78, "duration": 3, "velocity": 80}, {"time": 2799, "pitch": 74, "duration": 3, "velocity": 80}, {"time": 2802, "pitch": 73, "duration": 3, "velocity": 80}, {"time": 2805, "pitch": 74, "duration": 3, "velocity": 80}, {"time": 2808, "pitch": 71, "duration": 3, "velocity": 80}, {"time": 2811, "pitch": 74, "duration": 3, "velocity": 80}, {"time": 2814, "pitch": 68, "duration": 3, "velocity": 80}, {"time": 2817, "pitch": 71, "duration": 3, "velocity": 80}, {"time": 2820, "pitch": 64, "duration": 3, "velocity": 80}, {"time": 2823, "pitch": 73, "duration": 3, "velocity": 80}, {"time": 2826, "pitch": 71, "duration": 3, "velocity": 80}, {"time": 2829, "pitch": 73, "duration": 3, "velocity": 80}, {"time": 2832, "pitch": 69, "duration": 3, "velocity": 80}, {"time": 2835, "pitch": 73, "duration": 3, "velocity": 80}, {"time": 2838, "pitch": 66, "duration": 3, "velocity": 80}, {"time": 2841, "pitch": 69, "duration": 3, "velocity": 80}, {"time": 2844, "pitch": 62, "duration": 3, "velocity": 80}, {"time": 2847, "pitch": 71, "duration": 3, "velocity": 80}, {"time": 2850, "pitch": 69, "duration": 3, "velocity": 80}, {"time": 2853, "pitch": 71, "duration": 3, "velocity": 80}, {"time": 2856, "pitch": 68, "duration": 3, "velocity": 80}, {"time": 2859, "pitch": 71, "duration": 3, "velocity": 80}, {"time": 2862, "pitch": 64, "duration": 3, "velocity": 80}, {"time": 2865, "pitch": 68, "duration": 3, "velocity": 80}, {"time": 2868, "pitch": 61, "duration": 12, "velocity": 80}, {"time": 2880, "pitch": 69, "duration": 6, "velocity": 80}, {"time": 2886, "pitch": 73, "duration": 6, "velocity": 80}, {"time": 2892, "pitch": 74, "duration": 6, "velocity": 80}, {"time": 2898, "pitch": 66, "duration": 6, "velocity": 80}, {"time": 2904, "pitch": 68, "duration": 6, "velocity": 80}, {"time": 2910, "pitch": 71, "duration": 6, "velocity": 80}, {"time": 2916, "pitch": 73, "duration": 6, "velocity": 80}, {"time": 2922, "pitch": 64, "duration": 6, "velocity": 80}, {"time": 2928, "pitch": 66, "duration": 6, "velocity": 80}, {"time": 2934, "pitch": 69, "duration": 6, "velocity": 80}, {"time": 2940, "pitch": 71, "duration": 6, "velocity": 80}, {"time": 2946, "pitch": 62, "duration": 6, "velocity": 80}, {"time": 2952, "pitch": 64, "duration": 6, "velocity": 80}, {"time": 2958, "pitch": 68, "duration": 6, "velocity": 80}, {"time": 2967, "pitch": 69, "duration": 3, "velocity": 80}, {"time": 2970, "pitch": 73, "duration": 3, "velocity": 80}, {"time": 2973, "pitch": 76, "duration": 3, "velocity": 80}, {"time": 2976, "pitch": 78, "duration": 3, "velocity": 80}, {"time": 2979, "pitch": 74, "duration": 3, "velocity": 80}, {"time": 2982, "pitch": 71, "duration": 3, "velocity": 80}, {"time": 2985, "pitch": 80, "duration": 3, "velocity": 80}, {"time": 2988, "pitch": 81, "duration": 3, "velocity": 80}, {"time": 2991, "pitch": 76, "duration": 3, "velocity": 80}, {"time": 2994, "pitch": 73, "duration": 3, "velocity": 80}, {"time": 2997, "pitch": 69, "duration": 3, "velocity": 80}, {"time": 3000, "pitch": 78, "duration": 3, "velocity": 80}, {"time": 3003, "pitch": 74, "duration": 3, "velocity": 80}, {"time": 3006, "pitch": 71, "duration": 3, "velocity": 80}, {"time": 3009, "pitch": 80, "duration": 3, "velocity": 80}, {"time": 3012, "pitch": 81, "duration": 3, "velocity": 80}, {"time": 3015, "pitch": 76, "duration": 3, "velocity": 80}, {"time": 3018, "pitch": 73, "duration": 3, "velocity": 80}, {"time": 3021, "pitch": 69, "duration": 3, "velocity": 80}, {"time": 3024, "pitch": 78, "duration": 3, "velocity": 80}, {"time": 3027, "pitch": 74, "duration": 3, "velocity": 80}, {"time": 3030, "pitch": 71, "duration": 3, "velocity": 80}, {"time": 3033, "pitch": 80, "duration": 3, "velocity": 80}, {"time": 3036, "pitch": 81, "duration": 3, "velocity": 80}, {"time": 3039, "pitch": 76, "duration": 3, "velocity": 80}, {"time": 3042, "pitch": 78, "duration": 3, "velocity": 80}, {"time": 3045, "pitch": 74, "duration": 3, "velocity": 80}, {"time": 3048, "pitch": 73, "duration": 3, "velocity": 80}, {"time": 3051, "pitch": 81, "duration": 3, "velocity": 80}, {"time": 3054, "pitch": 71, "duration": 3, "velocity": 80}, {"time": 3057, "pitch": 80, "duration": 3, "velocity": 80}, {"time": 3060, "pitch": 81, "duration": 3, "velocity": 80}, {"time": 3063, "pitch": 76, "duration": 3, "velocity": 80}, {"time": 3066, "pitch": 73, "duration": 3, "velocity": 80}, {"time": 3069, "pitch": 69, "duration": 3, "velocity": 80}, {"time": 3072, "pitch": 66, "duration": 3, "velocity": 80}, {"time": 3075, "pitch": 62, "duration": 3, "velocity": 80}, {"time": 3078, "pitch": 59, "duration": 3, "velocity": 80}, {"time": 3081, "pitch": 68, "duration": 3, "velocity": 80}, {"time": 3084, "pitch": 69, "duration": 3, "velocity": 80}, {"time": 3087, "pitch": 64, "duration": 3, "velocity": 80}, {"time": 3090, "pitch": 61, "duration": 3, "velocity": 80}, {"time": 3093, "pitch": 57, "duration": 3, "velocity": 80}, {"time": 3096, "pitch": 66, "duration": 3, "velocity": 80}, {"time": 3099, "pitch": 62, "duration": 3, "velocity": 80}, {"time": 3102, "pitch": 59, "duration": 3, "velocity": 80}, {"time": 3105, "pitch": 68, "duration": 3, "velocity": 80}, {"time": 3108, "pitch": 69, "duration": 3, "velocity": 80}, {"time": 3111, "pitch": 64, "duration": 3, "velocity": 80}, {"time": 3114, "pitch": 61, "duration": 3, "velocity": 80}, {"time": 3117, "pitch": 57, "duration": 3, "velocity": 80}, {"time": 3120, "pitch": 66, "duration": 3, "velocity": 80}, {"time": 3123, "pitch": 62, "duration": 3, "velocity": 80}, {"time": 3126, "pitch": 59, "duration": 3, "velocity": 80}, {"time": 3129, "pitch": 68, "duration": 3, "velocity": 80}, {"time": 3132, "pitch": 69, "duration": 3, "velocity": 80}, {"time": 3135, "pitch": 64, "duration": 3, "velocity": 80}, {"time": 3138, "pitch": 66, "duration": 3, "velocity": 80}, {"time": 3141, "pitch": 62, "duration": 3, "velocity": 80}, {"time": 3144, "pitch": 61, "duration": 3, "velocity": 80}, {"time": 3147, "pitch": 69, "duration": 3, "velocity": 80}, {"time": 3150, "pitch": 59, "duration": 3, "velocity": 80}, {"time": 3153, "pitch": 68, "duration": 3, "velocity": 80}, {"time": 3156, "pitch": 69, "duration": 12, "velocity": 80}], "annotations": [{"time": 0, "annotation": {"number": 7, "value": 100}, "group": "control_change"}, {"time": 0, "annotation": {"number": 10, "value": 64}, "group": "control_change"}, {"time": 0, "annotation": {"number": 91, "value": 0}, "group": "control_change"}, {"time": 0, "annotation": {"number": 93, "value": 0}, "group": "control_change"}]}]}