{"metadata": {"schema_version": "0.2"}, "resolution": 24, "tracks": [{"program": 41, "is_drum": false, "name": "", "notes": [{"time": 108, "pitch": 62, "duration": 12, "velocity": 127}, {"time": 120, "pitch": 55, "duration": 12, "velocity": 127}, {"time": 132, "pitch": 67, "duration": 12, "velocity": 127}, {"time": 144, "pitch": 67, "duration": 24, "velocity": 127}, {"time": 168, "pitch": 66, "duration": 11, "velocity": 127}, {"time": 179, "pitch": 67, "duration": 1, "velocity": 127}, {"time": 179, "pitch": 69, "duration": 1, "velocity": 127}, {"time": 180, "pitch": 70, "duration": 12, "velocity": 127}, {"time": 192, "pitch": 69, "duration": 12, "velocity": 127}, {"time": 204, "pitch": 67, "duration": 11, "velocity": 127}, {"time": 215, "pitch": 70, "duration": 1, "velocity": 127}, {"time": 216, "pitch": 69, "duration": 12, "velocity": 127}, {"time": 228, "pitch": 67, "duration": 6, "velocity": 127}, {"time": 234, "pitch": 66, "duration": 6, "velocity": 127}, {"time": 240, "pitch": 67, "duration": 24, "velocity": 127}, {"time": 276, "pitch": 58, "duration": 12, "velocity": 127}, {"time": 288, "pitch": 58, "duration": 24, "velocity": 127}, {"time": 312, "pitch": 57, "duration": 11, "velocity": 127}, {"time": 323, "pitch": 58, "duration": 1, "velocity": 127}, {"time": 323, "pitch": 60, "duration": 1, "velocity": 127}, {"time": 324, "pitch": 62, "duration": 12, "velocity": 127}, {"time": 336, "pitch": 60, "duration": 12, "velocity": 127}, {"time": 348, "pitch": 58, "duration": 11, "velocity": 127}, {"time": 359, "pitch": 62, "duration": 1, "velocity": 127}, {"time": 360, "pitch": 60, "duration": 12, "velocity": 127}, {"time": 372, "pitch": 58, "duration": 6, "velocity": 127}, {"time": 378, "pitch": 57, "duration": 6, "velocity": 127}, {"time": 384, "pitch": 58, "duration": 6, "velocity": 127}, {"time": 390, "pitch": 62, "duration": 6, "velocity": 127}, {"time": 396, "pitch": 60, "duration": 6, "velocity": 127}, {"time": 402, "pitch": 58, "duration": 6, "velocity": 127}, {"time": 408, "pitch": 63, "duration": 12, "velocity": 127}, {"time": 420, "pitch": 62, "duration": 12, "velocity": 127}, {"time": 432, "pitch": 60, "duration": 12, "velocity": 127}, {"time": 444, "pitch": 53, "duration": 12, "velocity": 127}, {"time": 456, "pitch": 65, "duration": 24, "velocity": 127}, {"time": 504, "pitch": 65, "duration": 24, "velocity": 127}, {"time": 552, "pitch": 65, "duration": 24, "velocity": 127}, {"time": 588, "pitch": 65, "duration": 12, "velocity": 127}, {"time": 600, "pitch": 67, "duration": 6, "velocity": 127}, {"time": 606, "pitch": 69, "duration": 6, "velocity": 127}, {"time": 612, "pitch": 70, "duration": 6, "velocity": 127}, {"time": 618, "pitch": 67, "duration": 6, "velocity": 127}, {"time": 624, "pitch": 70, "duration": 6, "velocity": 127}, {"time": 630, "pitch": 69, "duration": 6, "velocity": 127}, {"time": 636, "pitch": 67, "duration": 6, "velocity": 127}, {"time": 642, "pitch": 65, "duration": 6, "velocity": 127}, {"time": 648, "pitch": 67, "duration": 6, "velocity": 127}, {"time": 654, "pitch": 69, "duration": 6, "velocity": 127}, {"time": 660, "pitch": 70, "duration": 6, "velocity": 127}, {"time": 666, "pitch": 67, "duration": 6, "velocity": 127}, {"time": 672, "pitch": 70, "duration": 6, "velocity": 127}, {"time": 678, "pitch": 69, "duration": 6, "velocity": 127}, {"time": 684, "pitch": 67, "duration": 6, "velocity": 127}, {"time": 690, "pitch": 65, "duration": 6, "velocity": 127}, {"time": 696, "pitch": 67, "duration": 6, "velocity": 127}, {"time": 702, "pitch": 69, "duration": 6, "velocity": 127}, {"time": 708, "pitch": 70, "duration": 6, "velocity": 127}, {"time": 714, "pitch": 67, "duration": 6, "velocity": 127}, {"time": 720, "pitch": 69, "duration": 6, "velocity": 127}, {"time": 726, "pitch": 67, "duration": 6, "velocity": 127}, {"time": 732, "pitch": 65, "duration": 24, "velocity": 127}, {"time": 756, "pitch": 64, "duration": 12, "velocity": 127}, {"time": 768, "pitch": 65, "duration": 12, "velocity": 127}, {"time": 780, "pitch": 57, "duration": 12, "velocity": 127}, {"time": 792, "pitch": 58, "duration": 12, "velocity": 127}, {"time": 804, "pitch": 60, "duration": 12, "velocity": 127}, {"time": 816, "pitch": 53, "duration": 12, "velocity": 127}, {"time": 828, "pitch": 65, "duration": 24, "velocity": 127}, {"time": 852, "pitch": 64, "duration": 12, "velocity": 127}, {"time": 864, "pitch": 65, "duration": 12, "velocity": 127}, {"time": 876, "pitch": 57, "duration": 12, "velocity": 127}, {"time": 888, "pitch": 58, "duration": 12, "velocity": 127}, {"time": 900, "pitch": 60, "duration": 12, "velocity": 127}, {"time": 912, "pitch": 53, "duration": 12, "velocity": 127}, {"time": 924, "pitch": 63, "duration": 12, "velocity": 127}, {"time": 936, "pitch": 62, "duration": 12, "velocity": 127}, {"time": 948, "pitch": 60, "duration": 11, "velocity": 127}, {"time": 959, "pitch": 58, "duration": 1, "velocity": 127}, {"time": 960, "pitch": 57, "duration": 12, "velocity": 127}, {"time": 972, "pitch": 55, "duration": 6, "velocity": 127}, {"time": 978, "pitch": 53, "duration": 6, "velocity": 127}, {"time": 984, "pitch": 58, "duration": 24, "velocity": 127}, {"time": 1008, "pitch": 57, "duration": 12, "velocity": 127}, {"time": 1020, "pitch": 63, "duration": 12, "velocity": 127}, {"time": 1032, "pitch": 62, "duration": 12, "velocity": 127}, {"time": 1044, "pitch": 60, "duration": 11, "velocity": 127}, {"time": 1055, "pitch": 58, "duration": 1, "velocity": 127}, {"time": 1056, "pitch": 57, "duration": 12, "velocity": 127}, {"time": 1068, "pitch": 55, "duration": 6, "velocity": 127}, {"time": 1074, "pitch": 53, "duration": 6, "velocity": 127}, {"time": 1080, "pitch": 65, "duration": 24, "velocity": 127}, {"time": 1116, "pitch": 65, "duration": 12, "velocity": 127}, {"time": 1128, "pitch": 63, "duration": 6, "velocity": 127}, {"time": 1134, "pitch": 62, "duration": 6, "velocity": 127}, {"time": 1140, "pitch": 60, "duration": 6, "velocity": 127}, {"time": 1146, "pitch": 58, "duration": 6, "velocity": 127}, {"time": 1152, "pitch": 60, "duration": 12, "velocity": 127}, {"time": 1164, "pitch": 57, "duration": 12, "velocity": 127}, {"time": 1176, "pitch": 58, "duration": 12, "velocity": 127}, {"time": 1188, "pitch": 51, "duration": 12, "velocity": 127}, {"time": 1200, "pitch": 53, "duration": 24, "velocity": 127}, {"time": 1224, "pitch": 57, "duration": 24, "velocity": 127}, {"time": 1248, "pitch": 58, "duration": 24, "velocity": 127}, {"time": 1296, "pitch": 63, "duration": 24, "velocity": 127}, {"time": 1320, "pitch": 62, "duration": 12, "velocity": 127}, {"time": 1332, "pitch": 67, "duration": 12, "velocity": 127}, {"time": 1344, "pitch": 65, "duration": 12, "velocity": 127}, {"time": 1356, "pitch": 63, "duration": 24, "velocity": 127}, {"time": 1380, "pitch": 62, "duration": 6, "velocity": 127}, {"time": 1386, "pitch": 60, "duration": 6, "velocity": 127}, {"time": 1392, "pitch": 62, "duration": 6, "velocity": 127}, {"time": 1398, "pitch": 65, "duration": 6, "velocity": 127}, {"time": 1404, "pitch": 63, "duration": 6, "velocity": 127}, {"time": 1410, "pitch": 62, "duration": 6, "velocity": 127}, {"time": 1416, "pitch": 67, "duration": 6, "velocity": 127}, {"time": 1422, "pitch": 65, "duration": 6, "velocity": 127}, {"time": 1428, "pitch": 63, "duration": 6, "velocity": 127}, {"time": 1434, "pitch": 62, "duration": 6, "velocity": 127}, {"time": 1440, "pitch": 60, "duration": 12, "velocity": 127}, {"time": 1452, "pitch": 55, "duration": 12, "velocity": 127}, {"time": 1464, "pitch": 59, "duration": 12, "velocity": 127}, {"time": 1476, "pitch": 55, "duration": 12, "velocity": 127}, {"time": 1488, "pitch": 62, "duration": 12, "velocity": 127}, {"time": 1500, "pitch": 55, "duration": 12, "velocity": 127}, {"time": 1512, "pitch": 60, "duration": 48, "velocity": 127}, {"time": 1560, "pitch": 59, "duration": 24, "velocity": 127}, {"time": 1584, "pitch": 60, "duration": 12, "velocity": 127}, {"time": 1596, "pitch": 62, "duration": 6, "velocity": 127}, {"time": 1602, "pitch": 63, "duration": 6, "velocity": 127}, {"time": 1608, "pitch": 62, "duration": 24, "velocity": 127}, {"time": 1632, "pitch": 65, "duration": 12, "velocity": 127}, {"time": 1644, "pitch": 62, "duration": 6, "velocity": 127}, {"time": 1650, "pitch": 65, "duration": 6, "velocity": 127}, {"time": 1656, "pitch": 63, "duration": 12, "velocity": 127}, {"time": 1668, "pitch": 60, "duration": 6, "velocity": 127}, {"time": 1674, "pitch": 63, "duration": 6, "velocity": 127}, {"time": 1680, "pitch": 62, "duration": 12, "velocity": 127}, {"time": 1692, "pitch": 68, "duration": 12, "velocity": 127}, {"time": 1704, "pitch": 67, "duration": 12, "velocity": 127}, {"time": 1716, "pitch": 65, "duration": 12, "velocity": 127}, {"time": 1728, "pitch": 63, "duration": 12, "velocity": 127}, {"time": 1740, "pitch": 62, "duration": 6, "velocity": 127}, {"time": 1746, "pitch": 60, "duration": 6, "velocity": 127}, {"time": 1752, "pitch": 59, "duration": 12, "velocity": 127}, {"time": 1764, "pitch": 60, "duration": 6, "velocity": 127}, {"time": 1770, "pitch": 62, "duration": 6, "velocity": 127}, {"time": 1776, "pitch": 55, "duration": 72, "velocity": 127}, {"time": 1896, "pitch": 65, "duration": 36, "velocity": 127}, {"time": 1932, "pitch": 67, "duration": 6, "velocity": 127}, {"time": 1938, "pitch": 65, "duration": 6, "velocity": 127}, {"time": 1944, "pitch": 64, "duration": 12, "velocity": 127}, {"time": 1956, "pitch": 62, "duration": 12, "velocity": 127}, {"time": 1968, "pitch": 61, "duration": 12, "velocity": 127}, {"time": 1980, "pitch": 57, "duration": 12, "velocity": 127}, {"time": 1992, "pitch": 64, "duration": 12, "velocity": 127}, {"time": 2004, "pitch": 57, "duration": 12, "velocity": 127}, {"time": 2016, "pitch": 69, "duration": 12, "velocity": 127}, {"time": 2028, "pitch": 57, "duration": 12, "velocity": 127}, {"time": 2040, "pitch": 62, "duration": 12, "velocity": 127}, {"time": 2052, "pitch": 50, "duration": 12, "velocity": 127}, {"time": 2064, "pitch": 55, "duration": 24, "velocity": 127}, {"time": 2112, "pitch": 57, "duration": 24, "velocity": 127}, {"time": 2160, "pitch": 53, "duration": 24, "velocity": 127}, {"time": 2208, "pitch": 58, "duration": 6, "velocity": 127}, {"time": 2214, "pitch": 57, "duration": 6, "velocity": 127}, {"time": 2220, "pitch": 55, "duration": 6, "velocity": 127}, {"time": 2226, "pitch": 53, "duration": 6, "velocity": 127}, {"time": 2232, "pitch": 52, "duration": 12, "velocity": 127}, {"time": 2244, "pitch": 50, "duration": 12, "velocity": 127}, {"time": 2256, "pitch": 61, "duration": 12, "velocity": 127}, {"time": 2268, "pitch": 62, "duration": 6, "velocity": 127}, {"time": 2274, "pitch": 64, "duration": 6, "velocity": 127}, {"time": 2280, "pitch": 57, "duration": 12, "velocity": 127}, {"time": 2292, "pitch": 61, "duration": 12, "velocity": 127}, {"time": 2304, "pitch": 62, "duration": 6, "velocity": 127}, {"time": 2310, "pitch": 64, "duration": 6, "velocity": 127}, {"time": 2316, "pitch": 65, "duration": 6, "velocity": 127}, {"time": 2322, "pitch": 67, "duration": 6, "velocity": 127}, {"time": 2328, "pitch": 69, "duration": 12, "velocity": 127}, {"time": 2340, "pitch": 62, "duration": 12, "velocity": 127}, {"time": 2352, "pitch": 67, "duration": 12, "velocity": 127}, {"time": 2364, "pitch": 70, "duration": 6, "velocity": 127}, {"time": 2370, "pitch": 69, "duration": 6, "velocity": 127}, {"time": 2376, "pitch": 70, "duration": 36, "velocity": 127}, {"time": 2412, "pitch": 69, "duration": 6, "velocity": 127}, {"time": 2418, "pitch": 67, "duration": 6, "velocity": 127}, {"time": 2424, "pitch": 65, "duration": 12, "velocity": 127}, {"time": 2436, "pitch": 64, "duration": 12, "velocity": 127}, {"time": 2448, "pitch": 62, "duration": 24, "velocity": 127}, {"time": 2496, "pitch": 63, "duration": 36, "velocity": 127}, {"time": 2532, "pitch": 62, "duration": 12, "velocity": 127}, {"time": 2544, "pitch": 60, "duration": 12, "velocity": 127}, {"time": 2556, "pitch": 70, "duration": 12, "velocity": 127}, {"time": 2568, "pitch": 69, "duration": 12, "velocity": 127}, {"time": 2580, "pitch": 67, "duration": 12, "velocity": 127}, {"time": 2592, "pitch": 66, "duration": 12, "velocity": 127}, {"time": 2604, "pitch": 50, "duration": 12, "velocity": 127}, {"time": 2616, "pitch": 62, "duration": 36, "velocity": 127}, {"time": 2652, "pitch": 60, "duration": 12, "velocity": 127}, {"time": 2664, "pitch": 67, "duration": 12, "velocity": 127}, {"time": 2676, "pitch": 65, "duration": 12, "velocity": 127}, {"time": 2688, "pitch": 63, "duration": 12, "velocity": 127}, {"time": 2700, "pitch": 62, "duration": 12, "velocity": 127}, {"time": 2712, "pitch": 60, "duration": 12, "velocity": 127}, {"time": 2724, "pitch": 58, "duration": 12, "velocity": 127}, {"time": 2736, "pitch": 57, "duration": 6, "velocity": 127}, {"time": 2742, "pitch": 60, "duration": 6, "velocity": 127}, {"time": 2748, "pitch": 58, "duration": 6, "velocity": 127}, {"time": 2754, "pitch": 57, "duration": 6, "velocity": 127}, {"time": 2760, "pitch": 58, "duration": 12, "velocity": 127}, {"time": 2772, "pitch": 50, "duration": 12, "velocity": 127}, {"time": 2784, "pitch": 51, "duration": 12, "velocity": 127}, {"time": 2796, "pitch": 63, "duration": 24, "velocity": 127}, {"time": 2820, "pitch": 62, "duration": 12, "velocity": 127}, {"time": 2832, "pitch": 60, "duration": 12, "velocity": 127}, {"time": 2844, "pitch": 58, "duration": 12, "velocity": 127}, {"time": 2856, "pitch": 57, "duration": 12, "velocity": 127}, {"time": 2868, "pitch": 55, "duration": 12, "velocity": 127}, {"time": 2880, "pitch": 50, "duration": 24, "velocity": 127}, {"time": 2928, "pitch": 67, "duration": 24, "velocity": 127}, {"time": 2952, "pitch": 55, "duration": 24, "velocity": 127}, {"time": 2988, "pitch": 67, "duration": 12, "velocity": 127}, {"time": 3000, "pitch": 69, "duration": 12, "velocity": 127}, {"time": 3012, "pitch": 70, "duration": 12, "velocity": 127}, {"time": 3024, "pitch": 58, "duration": 12, "velocity": 127}, {"time": 3036, "pitch": 67, "duration": 12, "velocity": 127}, {"time": 3048, "pitch": 58, "duration": 12, "velocity": 127}, {"time": 3060, "pitch": 66, "duration": 12, "velocity": 127}, {"time": 3072, "pitch": 67, "duration": 12, "velocity": 127}, {"time": 3084, "pitch": 70, "duration": 6, "velocity": 127}, {"time": 3090, "pitch": 69, "duration": 6, "velocity": 127}, {"time": 3096, "pitch": 67, "duration": 6, "velocity": 127}, {"time": 3102, "pitch": 65, "duration": 6, "velocity": 127}, {"time": 3108, "pitch": 63, "duration": 6, "velocity": 127}, {"time": 3114, "pitch": 62, "duration": 6, "velocity": 127}, {"time": 3120, "pitch": 63, "duration": 24, "velocity": 127}, {"time": 3168, "pitch": 62, "duration": 12, "velocity": 127}, {"time": 3180, "pitch": 58, "duration": 6, "velocity": 127}, {"time": 3186, "pitch": 62, "duration": 6, "velocity": 127}, {"time": 3192, "pitch": 60, "duration": 12, "velocity": 127}, {"time": 3204, "pitch": 57, "duration": 6, "velocity": 127}, {"time": 3210, "pitch": 60, "duration": 6, "velocity": 127}, {"time": 3216, "pitch": 58, "duration": 24, "velocity": 127}, {"time": 3264, "pitch": 60, "duration": 12, "velocity": 127}, {"time": 3276, "pitch": 63, "duration": 6, "velocity": 127}, {"time": 3282, "pitch": 62, "duration": 6, "velocity": 127}, {"time": 3288, "pitch": 60, "duration": 6, "velocity": 127}, {"time": 3294, "pitch": 58, "duration": 6, "velocity": 127}, {"time": 3300, "pitch": 57, "duration": 6, "velocity": 127}, {"time": 3306, "pitch": 55, "duration": 6, "velocity": 127}, {"time": 3312, "pitch": 54, "duration": 12, "velocity": 127}, {"time": 3324, "pitch": 55, "duration": 12, "velocity": 127}, {"time": 3336, "pitch": 57, "duration": 12, "velocity": 127}, {"time": 3348, "pitch": 50, "duration": 12, "velocity": 127}, {"time": 3384, "pitch": 62, "duration": 24, "velocity": 127}, {"time": 3432, "pitch": 63, "duration": 24, "velocity": 127}, {"time": 3480, "pitch": 60, "duration": 12, "velocity": 127}, {"time": 3492, "pitch": 58, "duration": 6, "velocity": 127}, {"time": 3498, "pitch": 57, "duration": 6, "velocity": 127}, {"time": 3504, "pitch": 58, "duration": 12, "velocity": 127}, {"time": 3516, "pitch": 62, "duration": 6, "velocity": 127}, {"time": 3522, "pitch": 60, "duration": 6, "velocity": 127}, {"time": 3528, "pitch": 58, "duration": 12, "velocity": 127}, {"time": 3540, "pitch": 57, "duration": 12, "velocity": 127}, {"time": 3552, "pitch": 55, "duration": 12, "velocity": 127}, {"time": 3564, "pitch": 63, "duration": 6, "velocity": 127}, {"time": 3570, "pitch": 62, "duration": 6, "velocity": 127}, {"time": 3576, "pitch": 60, "duration": 6, "velocity": 127}, {"time": 3582, "pitch": 58, "duration": 6, "velocity": 127}, {"time": 3588, "pitch": 57, "duration": 6, "velocity": 127}, {"time": 3594, "pitch": 55, "duration": 6, "velocity": 127}, {"time": 3600, "pitch": 54, "duration": 12, "velocity": 127}, {"time": 3612, "pitch": 55, "duration": 12, "velocity": 127}, {"time": 3624, "pitch": 57, "duration": 12, "velocity": 127}, {"time": 3636, "pitch": 50, "duration": 12, "velocity": 127}, {"time": 3648, "pitch": 55, "duration": 12, "velocity": 127}, {"time": 3660, "pitch": 70, "duration": 12, "velocity": 127}, {"time": 3672, "pitch": 50, "duration": 12, "velocity": 127}, {"time": 3684, "pitch": 66, "duration": 12, "velocity": 127}, {"time": 3696, "pitch": 67, "duration": 24, "velocity": 127}]}]}