{"metadata": {"schema_version": "0.2"}, "resolution": 24, "tracks": [{"program": 74, "is_drum": false, "notes": [{"time": 72, "pitch": 77, "duration": 6, "velocity": 127}, {"time": 78, "pitch": 77, "duration": 6, "velocity": 127}, {"time": 84, "pitch": 77, "duration": 6, "velocity": 127}, {"time": 90, "pitch": 77, "duration": 6, "velocity": 127}, {"time": 96, "pitch": 77, "duration": 6, "velocity": 127}, {"time": 102, "pitch": 79, "duration": 3, "velocity": 127}, {"time": 105, "pitch": 81, "duration": 3, "velocity": 127}, {"time": 108, "pitch": 82, "duration": 6, "velocity": 127}, {"time": 114, "pitch": 82, "duration": 6, "velocity": 127}, {"time": 120, "pitch": 82, "duration": 6, "velocity": 127}, {"time": 126, "pitch": 82, "duration": 6, "velocity": 127}, {"time": 132, "pitch": 82, "duration": 6, "velocity": 127}, {"time": 138, "pitch": 81, "duration": 3, "velocity": 127}, {"time": 141, "pitch": 79, "duration": 3, "velocity": 127}, {"time": 144, "pitch": 81, "duration": 12, "velocity": 127}, {"time": 156, "pitch": 84, "duration": 12, "velocity": 127}, {"time": 168, "pitch": 82, "duration": 12, "velocity": 127}, {"time": 180, "pitch": 81, "duration": 12, "velocity": 127}, {"time": 192, "pitch": 82, "duration": 12, "velocity": 127}, {"time": 204, "pitch": 79, "duration": 12, "velocity": 127}, {"time": 216, "pitch": 81, "duration": 12, "velocity": 127}, {"time": 228, "pitch": 84, "duration": 12, "velocity": 127}, {"time": 240, "pitch": 82, "duration": 12, "velocity": 127}, {"time": 252, "pitch": 81, "duration": 12, "velocity": 127}, {"time": 264, "pitch": 82, "duration": 12, "velocity": 127}, {"time": 276, "pitch": 79, "duration": 12, "velocity": 127}, {"time": 288, "pitch": 81, "duration": 6, "velocity": 127}, {"time": 294, "pitch": 77, "duration": 6, "velocity": 127}, {"time": 300, "pitch": 77, "duration": 6, "velocity": 127}, {"time": 306, "pitch": 77, "duration": 6, "velocity": 127}, {"time": 312, "pitch": 77, "duration": 6, "velocity": 127}, {"time": 318, "pitch": 79, "duration": 3, "velocity": 127}, {"time": 321, "pitch": 81, "duration": 3, "velocity": 127}, {"time": 324, "pitch": 82, "duration": 12, "velocity": 127}, {"time": 342, "pitch": 80, "duration": 6, "velocity": 127}, {"time": 348, "pitch": 79, "duration": 6, "velocity": 127}, {"time": 354, "pitch": 77, "duration": 6, "velocity": 127}, {"time": 360, "pitch": 79, "duration": 12, "velocity": 127}, {"time": 372, "pitch": 82, "duration": 12, "velocity": 127}, {"time": 384, "pitch": 80, "duration": 12, "velocity": 127}, {"time": 396, "pitch": 79, "duration": 12, "velocity": 127}, {"time": 408, "pitch": 80, "duration": 12, "velocity": 127}, {"time": 420, "pitch": 77, "duration": 12, "velocity": 127}, {"time": 432, "pitch": 79, "duration": 12, "velocity": 127}, {"time": 444, "pitch": 82, "duration": 12, "velocity": 127}, {"time": 456, "pitch": 80, "duration": 12, "velocity": 127}, {"time": 468, "pitch": 79, "duration": 12, "velocity": 127}, {"time": 480, "pitch": 80, "duration": 12, "velocity": 127}, {"time": 492, "pitch": 77, "duration": 12, "velocity": 127}, {"time": 504, "pitch": 79, "duration": 6, "velocity": 127}, {"time": 510, "pitch": 77, "duration": 6, "velocity": 127}, {"time": 516, "pitch": 75, "duration": 6, "velocity": 127}, {"time": 522, "pitch": 74, "duration": 6, "velocity": 127}, {"time": 528, "pitch": 72, "duration": 6, "velocity": 127}, {"time": 534, "pitch": 70, "duration": 6, "velocity": 127}, {"time": 540, "pitch": 75, "duration": 6, "velocity": 127}, {"time": 546, "pitch": 74, "duration": 6, "velocity": 127}, {"time": 552, "pitch": 72, "duration": 6, "velocity": 127}, {"time": 558, "pitch": 70, "duration": 6, "velocity": 127}, {"time": 564, "pitch": 69, "duration": 6, "velocity": 127}, {"time": 570, "pitch": 67, "duration": 6, "velocity": 127}, {"time": 576, "pitch": 65, "duration": 12, "velocity": 127}, {"time": 588, "pitch": 69, "duration": 12, "velocity": 127}, {"time": 600, "pitch": 72, "duration": 12, "velocity": 127}, {"time": 612, "pitch": 75, "duration": 18, "velocity": 127}, {"time": 630, "pitch": 81, "duration": 6, "velocity": 127}, {"time": 636, "pitch": 82, "duration": 6, "velocity": 127}, {"time": 642, "pitch": 77, "duration": 6, "velocity": 127}, {"time": 648, "pitch": 79, "duration": 6, "velocity": 127}, {"time": 654, "pitch": 84, "duration": 6, "velocity": 127}, {"time": 660, "pitch": 81, "duration": 18, "velocity": 127}, {"time": 678, "pitch": 82, "duration": 6, "velocity": 127}, {"time": 684, "pitch": 82, "duration": 12, "velocity": 127}, {"time": 696, "pitch": 70, "duration": 12, "velocity": 127}, {"time": 720, "pitch": 69, "duration": 12, "velocity": 127}, {"time": 732, "pitch": 72, "duration": 12, "velocity": 127}, {"time": 744, "pitch": 69, "duration": 12, "velocity": 127}, {"time": 756, "pitch": 70, "duration": 6, "velocity": 127}, {"time": 762, "pitch": 77, "duration": 6, "velocity": 127}, {"time": 768, "pitch": 74, "duration": 6, "velocity": 127}, {"time": 774, "pitch": 77, "duration": 6, "velocity": 127}, {"time": 780, "pitch": 70, "duration": 6, "velocity": 127}, {"time": 786, "pitch": 77, "duration": 6, "velocity": 127}, {"time": 792, "pitch": 72, "duration": 6, "velocity": 127}, {"time": 798, "pitch": 77, "duration": 6, "velocity": 127}, {"time": 804, "pitch": 69, "duration": 6, "velocity": 127}, {"time": 810, "pitch": 77, "duration": 6, "velocity": 127}, {"time": 816, "pitch": 72, "duration": 6, "velocity": 127}, {"time": 822, "pitch": 77, "duration": 6, "velocity": 127}, {"time": 828, "pitch": 74, "duration": 12, "velocity": 127}, {"time": 852, "pitch": 72, "duration": 12, "velocity": 127}, {"time": 864, "pitch": 71, "duration": 12, "velocity": 127}, {"time": 888, "pitch": 74, "duration": 12, "velocity": 127}, {"time": 900, "pitch": 67, "duration": 12, "velocity": 127}, {"time": 912, "pitch": 71, "duration": 12, "velocity": 127}, {"time": 924, "pitch": 67, "duration": 12, "velocity": 127}, {"time": 936, "pitch": 72, "duration": 6, "velocity": 127}, {"time": 942, "pitch": 79, "duration": 6, "velocity": 127}, {"time": 948, "pitch": 75, "duration": 6, "velocity": 127}, {"time": 954, "pitch": 79, "duration": 6, "velocity": 127}, {"time": 960, "pitch": 72, "duration": 6, "velocity": 127}, {"time": 966, "pitch": 79, "duration": 6, "velocity": 127}, {"time": 972, "pitch": 74, "duration": 6, "velocity": 127}, {"time": 978, "pitch": 79, "duration": 6, "velocity": 127}, {"time": 984, "pitch": 71, "duration": 6, "velocity": 127}, {"time": 990, "pitch": 79, "duration": 6, "velocity": 127}, {"time": 996, "pitch": 74, "duration": 6, "velocity": 127}, {"time": 1002, "pitch": 79, "duration": 6, "velocity": 127}, {"time": 1008, "pitch": 75, "duration": 12, "velocity": 127}, {"time": 1020, "pitch": 72, "duration": 12, "velocity": 127}, {"time": 1044, "pitch": 71, "duration": 12, "velocity": 127}, {"time": 1056, "pitch": 74, "duration": 12, "velocity": 127}, {"time": 1068, "pitch": 71, "duration": 12, "velocity": 127}, {"time": 1080, "pitch": 72, "duration": 12, "velocity": 127}, {"time": 1092, "pitch": 75, "duration": 30, "velocity": 127}, {"time": 1122, "pitch": 74, "duration": 6, "velocity": 127}, {"time": 1128, "pitch": 74, "duration": 6, "velocity": 127}, {"time": 1134, "pitch": 72, "duration": 6, "velocity": 127}, {"time": 1140, "pitch": 71, "duration": 6, "velocity": 127}, {"time": 1146, "pitch": 67, "duration": 6, "velocity": 127}, {"time": 1152, "pitch": 72, "duration": 6, "velocity": 127}, {"time": 1158, "pitch": 67, "duration": 6, "velocity": 127}, {"time": 1164, "pitch": 75, "duration": 6, "velocity": 127}, {"time": 1170, "pitch": 67, "duration": 6, "velocity": 127}, {"time": 1176, "pitch": 74, "duration": 6, "velocity": 127}, {"time": 1182, "pitch": 67, "duration": 6, "velocity": 127}, {"time": 1188, "pitch": 72, "duration": 6, "velocity": 127}, {"time": 1194, "pitch": 67, "duration": 6, "velocity": 127}, {"time": 1200, "pitch": 74, "duration": 6, "velocity": 127}, {"time": 1206, "pitch": 67, "duration": 6, "velocity": 127}, {"time": 1212, "pitch": 71, "duration": 6, "velocity": 127}, {"time": 1218, "pitch": 67, "duration": 6, "velocity": 127}, {"time": 1224, "pitch": 72, "duration": 6, "velocity": 127}, {"time": 1230, "pitch": 67, "duration": 6, "velocity": 127}, {"time": 1236, "pitch": 75, "duration": 6, "velocity": 127}, {"time": 1242, "pitch": 67, "duration": 6, "velocity": 127}, {"time": 1248, "pitch": 74, "duration": 6, "velocity": 127}, {"time": 1254, "pitch": 67, "duration": 6, "velocity": 127}, {"time": 1260, "pitch": 72, "duration": 6, "velocity": 127}, {"time": 1266, "pitch": 67, "duration": 6, "velocity": 127}, {"time": 1272, "pitch": 74, "duration": 6, "velocity": 127}, {"time": 1278, "pitch": 67, "duration": 6, "velocity": 127}, {"time": 1284, "pitch": 71, "duration": 6, "velocity": 127}, {"time": 1290, "pitch": 67, "duration": 6, "velocity": 127}, {"time": 1296, "pitch": 72, "duration": 6, "velocity": 127}, {"time": 1302, "pitch": 79, "duration": 6, "velocity": 127}, {"time": 1308, "pitch": 79, "duration": 4, "velocity": 127}, {"time": 1312, "pitch": 81, "duration": 4, "velocity": 127}, {"time": 1316, "pitch": 79, "duration": 4, "velocity": 127}, {"time": 1320, "pitch": 79, "duration": 4, "velocity": 127}, {"time": 1324, "pitch": 81, "duration": 4, "velocity": 127}, {"time": 1328, "pitch": 79, "duration": 4, "velocity": 127}, {"time": 1338, "pitch": 79, "duration": 6, "velocity": 127}, {"time": 1344, "pitch": 79, "duration": 4, "velocity": 127}, {"time": 1348, "pitch": 81, "duration": 4, "velocity": 127}, {"time": 1352, "pitch": 79, "duration": 4, "velocity": 127}, {"time": 1356, "pitch": 79, "duration": 4, "velocity": 127}, {"time": 1360, "pitch": 81, "duration": 4, "velocity": 127}, {"time": 1364, "pitch": 79, "duration": 4, "velocity": 127}, {"time": 1374, "pitch": 79, "duration": 6, "velocity": 127}, {"time": 1380, "pitch": 81, "duration": 6, "velocity": 127}, {"time": 1386, "pitch": 79, "duration": 6, "velocity": 127}, {"time": 1392, "pitch": 77, "duration": 6, "velocity": 127}, {"time": 1398, "pitch": 76, "duration": 6, "velocity": 127}, {"time": 1404, "pitch": 77, "duration": 6, "velocity": 127}, {"time": 1410, "pitch": 74, "duration": 6, "velocity": 127}, {"time": 1416, "pitch": 74, "duration": 6, "velocity": 127}, {"time": 1422, "pitch": 74, "duration": 6, "velocity": 127}, {"time": 1428, "pitch": 74, "duration": 6, "velocity": 127}, {"time": 1434, "pitch": 76, "duration": 3, "velocity": 127}, {"time": 1437, "pitch": 77, "duration": 3, "velocity": 127}, {"time": 1440, "pitch": 79, "duration": 12, "velocity": 127}, {"time": 1452, "pitch": 79, "duration": 30, "velocity": 127}, {"time": 1482, "pitch": 77, "duration": 6, "velocity": 127}, {"time": 1488, "pitch": 77, "duration": 6, "velocity": 127}, {"time": 1494, "pitch": 77, "duration": 6, "velocity": 127}, {"time": 1500, "pitch": 77, "duration": 6, "velocity": 127}, {"time": 1506, "pitch": 79, "duration": 3, "velocity": 127}, {"time": 1509, "pitch": 81, "duration": 3, "velocity": 127}, {"time": 1512, "pitch": 82, "duration": 6, "velocity": 127}, {"time": 1518, "pitch": 82, "duration": 6, "velocity": 127}, {"time": 1524, "pitch": 82, "duration": 6, "velocity": 127}, {"time": 1530, "pitch": 82, "duration": 6, "velocity": 127}, {"time": 1536, "pitch": 82, "duration": 6, "velocity": 127}, {"time": 1542, "pitch": 81, "duration": 3, "velocity": 127}, {"time": 1545, "pitch": 79, "duration": 3, "velocity": 127}, {"time": 1548, "pitch": 81, "duration": 6, "velocity": 127}, {"time": 1554, "pitch": 65, "duration": 6, "velocity": 127}, {"time": 1560, "pitch": 69, "duration": 6, "velocity": 127}, {"time": 1566, "pitch": 72, "duration": 6, "velocity": 127}, {"time": 1572, "pitch": 77, "duration": 6, "velocity": 127}, {"time": 1578, "pitch": 79, "duration": 3, "velocity": 127}, {"time": 1581, "pitch": 76, "duration": 3, "velocity": 127}, {"time": 1584, "pitch": 77, "duration": 12, "velocity": 127}, {"time": 1623, "pitch": 65, "duration": 3, "velocity": 127}, {"time": 1626, "pitch": 67, "duration": 3, "velocity": 127}, {"time": 1629, "pitch": 69, "duration": 3, "velocity": 127}, {"time": 1632, "pitch": 70, "duration": 3, "velocity": 127}, {"time": 1635, "pitch": 69, "duration": 3, "velocity": 127}, {"time": 1638, "pitch": 70, "duration": 3, "velocity": 127}, {"time": 1641, "pitch": 72, "duration": 3, "velocity": 127}, {"time": 1644, "pitch": 74, "duration": 3, "velocity": 127}, {"time": 1647, "pitch": 72, "duration": 3, "velocity": 127}, {"time": 1650, "pitch": 74, "duration": 3, "velocity": 127}, {"time": 1653, "pitch": 76, "duration": 3, "velocity": 127}, {"time": 1656, "pitch": 77, "duration": 12, "velocity": 127}, {"time": 1698, "pitch": 77, "duration": 6, "velocity": 127}, {"time": 1704, "pitch": 77, "duration": 6, "velocity": 127}, {"time": 1710, "pitch": 77, "duration": 6, "velocity": 127}, {"time": 1716, "pitch": 77, "duration": 6, "velocity": 127}, {"time": 1722, "pitch": 79, "duration": 3, "velocity": 127}, {"time": 1725, "pitch": 81, "duration": 3, "velocity": 127}, {"time": 1728, "pitch": 82, "duration": 12, "velocity": 127}, {"time": 1746, "pitch": 80, "duration": 6, "velocity": 127}, {"time": 1752, "pitch": 79, "duration": 6, "velocity": 127}, {"time": 1758, "pitch": 77, "duration": 6, "velocity": 127}, {"time": 1764, "pitch": 79, "duration": 6, "velocity": 127}, {"time": 1770, "pitch": 77, "duration": 6, "velocity": 127}, {"time": 1776, "pitch": 75, "duration": 6, "velocity": 127}, {"time": 1782, "pitch": 77, "duration": 6, "velocity": 127}, {"time": 1788, "pitch": 79, "duration": 6, "velocity": 127}, {"time": 1794, "pitch": 81, "duration": 6, "velocity": 127}, {"time": 1800, "pitch": 70, "duration": 6, "velocity": 127}, {"time": 1806, "pitch": 65, "duration": 6, "velocity": 127}, {"time": 1812, "pitch": 74, "duration": 6, "velocity": 127}, {"time": 1818, "pitch": 65, "duration": 6, "velocity": 127}, {"time": 1824, "pitch": 72, "duration": 6, "velocity": 127}, {"time": 1830, "pitch": 65, "duration": 6, "velocity": 127}, {"time": 1836, "pitch": 70, "duration": 6, "velocity": 127}, {"time": 1842, "pitch": 65, "duration": 6, "velocity": 127}, {"time": 1848, "pitch": 72, "duration": 6, "velocity": 127}, {"time": 1854, "pitch": 65, "duration": 6, "velocity": 127}, {"time": 1860, "pitch": 69, "duration": 6, "velocity": 127}, {"time": 1866, "pitch": 65, "duration": 6, "velocity": 127}, {"time": 1872, "pitch": 70, "duration": 6, "velocity": 127}, {"time": 1878, "pitch": 65, "duration": 6, "velocity": 127}, {"time": 1884, "pitch": 74, "duration": 6, "velocity": 127}, {"time": 1890, "pitch": 65, "duration": 6, "velocity": 127}, {"time": 1896, "pitch": 72, "duration": 6, "velocity": 127}, {"time": 1902, "pitch": 65, "duration": 6, "velocity": 127}, {"time": 1908, "pitch": 70, "duration": 6, "velocity": 127}, {"time": 1914, "pitch": 65, "duration": 6, "velocity": 127}, {"time": 1920, "pitch": 72, "duration": 6, "velocity": 127}, {"time": 1926, "pitch": 65, "duration": 6, "velocity": 127}, {"time": 1932, "pitch": 69, "duration": 6, "velocity": 127}, {"time": 1938, "pitch": 65, "duration": 6, "velocity": 127}, {"time": 1944, "pitch": 70, "duration": 6, "velocity": 127}, {"time": 1950, "pitch": 65, "duration": 3, "velocity": 127}, {"time": 1953, "pitch": 70, "duration": 3, "velocity": 127}, {"time": 1956, "pitch": 74, "duration": 6, "velocity": 127}, {"time": 1962, "pitch": 70, "duration": 3, "velocity": 127}, {"time": 1965, "pitch": 74, "duration": 3, "velocity": 127}, {"time": 1968, "pitch": 77, "duration": 6, "velocity": 127}, {"time": 1974, "pitch": 74, "duration": 3, "velocity": 127}, {"time": 1977, "pitch": 77, "duration": 3, "velocity": 127}, {"time": 1980, "pitch": 75, "duration": 6, "velocity": 127}, {"time": 1986, "pitch": 72, "duration": 3, "velocity": 127}, {"time": 1989, "pitch": 75, "duration": 3, "velocity": 127}, {"time": 1992, "pitch": 79, "duration": 6, "velocity": 127}, {"time": 1998, "pitch": 75, "duration": 3, "velocity": 127}, {"time": 2001, "pitch": 79, "duration": 3, "velocity": 127}, {"time": 2004, "pitch": 75, "duration": 6, "velocity": 127}, {"time": 2010, "pitch": 72, "duration": 3, "velocity": 127}, {"time": 2013, "pitch": 75, "duration": 3, "velocity": 127}, {"time": 2016, "pitch": 74, "duration": 6, "velocity": 127}, {"time": 2022, "pitch": 70, "duration": 3, "velocity": 127}, {"time": 2025, "pitch": 74, "duration": 3, "velocity": 127}, {"time": 2028, "pitch": 77, "duration": 6, "velocity": 127}, {"time": 2034, "pitch": 74, "duration": 3, "velocity": 127}, {"time": 2037, "pitch": 77, "duration": 3, "velocity": 127}, {"time": 2040, "pitch": 81, "duration": 6, "velocity": 127}, {"time": 2046, "pitch": 77, "duration": 3, "velocity": 127}, {"time": 2049, "pitch": 81, "duration": 3, "velocity": 127}, {"time": 2052, "pitch": 79, "duration": 6, "velocity": 127}, {"time": 2058, "pitch": 75, "duration": 3, "velocity": 127}, {"time": 2061, "pitch": 74, "duration": 3, "velocity": 127}, {"time": 2064, "pitch": 75, "duration": 6, "velocity": 127}, {"time": 2070, "pitch": 79, "duration": 3, "velocity": 127}, {"time": 2073, "pitch": 77, "duration": 3, "velocity": 127}, {"time": 2076, "pitch": 79, "duration": 6, "velocity": 127}, {"time": 2082, "pitch": 75, "duration": 3, "velocity": 127}, {"time": 2085, "pitch": 74, "duration": 3, "velocity": 127}, {"time": 2088, "pitch": 75, "duration": 12, "velocity": 127}, {"time": 2124, "pitch": 79, "duration": 6, "velocity": 127}, {"time": 2130, "pitch": 77, "duration": 6, "velocity": 127}, {"time": 2136, "pitch": 75, "duration": 6, "velocity": 127}, {"time": 2142, "pitch": 74, "duration": 6, "velocity": 127}, {"time": 2148, "pitch": 72, "duration": 6, "velocity": 127}, {"time": 2154, "pitch": 70, "duration": 6, "velocity": 127}, {"time": 2160, "pitch": 75, "duration": 6, "velocity": 127}, {"time": 2166, "pitch": 74, "duration": 6, "velocity": 127}, {"time": 2172, "pitch": 72, "duration": 6, "velocity": 127}, {"time": 2178, "pitch": 70, "duration": 6, "velocity": 127}, {"time": 2184, "pitch": 69, "duration": 6, "velocity": 127}, {"time": 2190, "pitch": 67, "duration": 6, "velocity": 127}, {"time": 2196, "pitch": 65, "duration": 18, "velocity": 127}, {"time": 2214, "pitch": 75, "duration": 6, "velocity": 127}, {"time": 2220, "pitch": 74, "duration": 6, "velocity": 127}, {"time": 2226, "pitch": 72, "duration": 3, "velocity": 127}, {"time": 2229, "pitch": 70, "duration": 3, "velocity": 127}, {"time": 2232, "pitch": 75, "duration": 6, "velocity": 127}, {"time": 2238, "pitch": 74, "duration": 3, "velocity": 127}, {"time": 2241, "pitch": 72, "duration": 3, "velocity": 127}, {"time": 2244, "pitch": 77, "duration": 12, "velocity": 127}, {"time": 2256, "pitch": 65, "duration": 12, "velocity": 127}, {"time": 2268, "pitch": 70, "duration": 36, "velocity": 127}], "annotations": [{"time": 0, "annotation": {"number": 7, "value": 100}, "group": "control_change"}, {"time": 0, "annotation": {"number": 10, "value": 64}, "group": "control_change"}, {"time": 0, "annotation": {"number": 91, "value": 0}, "group": "control_change"}, {"time": 0, "annotation": {"number": 93, "value": 0}, "group": "control_change"}]}]}