{"metadata": {"schema_version": "0.2"}, "resolution": 24, "tracks": [{"program": 7, "is_drum": false, "notes": [{"time": 0, "pitch": 81, "duration": 3, "velocity": 127}, {"time": 3, "pitch": 82, "duration": 3, "velocity": 127}, {"time": 6, "pitch": 82, "duration": 12, "velocity": 127}, {"time": 18, "pitch": 84, "duration": 3, "velocity": 127}, {"time": 21, "pitch": 82, "duration": 1, "velocity": 127}, {"time": 22, "pitch": 81, "duration": 2, "velocity": 127}, {"time": 24, "pitch": 82, "duration": 1, "velocity": 127}, {"time": 26, "pitch": 81, "duration": 1, "velocity": 127}, {"time": 27, "pitch": 79, "duration": 1, "velocity": 127}, {"time": 28, "pitch": 77, "duration": 2, "velocity": 127}, {"time": 30, "pitch": 84, "duration": 3, "velocity": 127}, {"time": 33, "pitch": 77, "duration": 3, "velocity": 127}, {"time": 36, "pitch": 86, "duration": 6, "velocity": 127}, {"time": 42, "pitch": 82, "duration": 12, "velocity": 127}, {"time": 54, "pitch": 79, "duration": 6, "velocity": 127}, {"time": 72, "pitch": 77, "duration": 3, "velocity": 127}, {"time": 75, "pitch": 72, "duration": 3, "velocity": 127}, {"time": 78, "pitch": 81, "duration": 3, "velocity": 127}, {"time": 81, "pitch": 72, "duration": 3, "velocity": 127}, {"time": 84, "pitch": 77, "duration": 3, "velocity": 127}, {"time": 87, "pitch": 72, "duration": 3, "velocity": 127}, {"time": 90, "pitch": 79, "duration": 3, "velocity": 127}, {"time": 93, "pitch": 72, "duration": 3, "velocity": 127}, {"time": 96, "pitch": 82, "duration": 3, "velocity": 127}, {"time": 99, "pitch": 72, "duration": 3, "velocity": 127}, {"time": 102, "pitch": 79, "duration": 3, "velocity": 127}, {"time": 105, "pitch": 72, "duration": 3, "velocity": 127}, {"time": 108, "pitch": 81, "duration": 3, "velocity": 127}, {"time": 111, "pitch": 72, "duration": 3, "velocity": 127}, {"time": 114, "pitch": 84, "duration": 3, "velocity": 127}, {"time": 117, "pitch": 72, "duration": 3, "velocity": 127}, {"time": 120, "pitch": 82, "duration": 3, "velocity": 127}, {"time": 123, "pitch": 72, "duration": 3, "velocity": 127}, {"time": 126, "pitch": 81, "duration": 3, "velocity": 127}, {"time": 129, "pitch": 82, "duration": 3, "velocity": 127}, {"time": 132, "pitch": 81, "duration": 3, "velocity": 127}, {"time": 135, "pitch": 79, "duration": 3, "velocity": 127}, {"time": 138, "pitch": 77, "duration": 3, "velocity": 127}, {"time": 141, "pitch": 79, "duration": 3, "velocity": 127}, {"time": 144, "pitch": 81, "duration": 3, "velocity": 127}, {"time": 147, "pitch": 82, "duration": 3, "velocity": 127}, {"time": 150, "pitch": 82, "duration": 12, "velocity": 127}, {"time": 162, "pitch": 84, "duration": 3, "velocity": 127}, {"time": 165, "pitch": 82, "duration": 1, "velocity": 127}, {"time": 166, "pitch": 81, "duration": 2, "velocity": 127}, {"time": 168, "pitch": 82, "duration": 1, "velocity": 127}, {"time": 170, "pitch": 81, "duration": 1, "velocity": 127}, {"time": 171, "pitch": 79, "duration": 1, "velocity": 127}, {"time": 172, "pitch": 77, "duration": 2, "velocity": 127}, {"time": 174, "pitch": 84, "duration": 3, "velocity": 127}, {"time": 177, "pitch": 77, "duration": 3, "velocity": 127}, {"time": 180, "pitch": 86, "duration": 6, "velocity": 127}, {"time": 186, "pitch": 82, "duration": 12, "velocity": 127}, {"time": 198, "pitch": 79, "duration": 6, "velocity": 127}, {"time": 216, "pitch": 72, "duration": 6, "velocity": 127}, {"time": 222, "pitch": 74, "duration": 6, "velocity": 127}, {"time": 228, "pitch": 76, "duration": 6, "velocity": 127}, {"time": 234, "pitch": 77, "duration": 6, "velocity": 127}, {"time": 252, "pitch": 76, "duration": 2, "velocity": 127}, {"time": 254, "pitch": 77, "duration": 2, "velocity": 127}, {"time": 256, "pitch": 79, "duration": 2, "velocity": 127}, {"time": 258, "pitch": 77, "duration": 2, "velocity": 127}, {"time": 260, "pitch": 79, "duration": 2, "velocity": 127}, {"time": 262, "pitch": 81, "duration": 2, "velocity": 127}, {"time": 264, "pitch": 79, "duration": 2, "velocity": 127}, {"time": 266, "pitch": 81, "duration": 2, "velocity": 127}, {"time": 268, "pitch": 82, "duration": 2, "velocity": 127}, {"time": 270, "pitch": 81, "duration": 2, "velocity": 127}, {"time": 272, "pitch": 82, "duration": 2, "velocity": 127}, {"time": 274, "pitch": 79, "duration": 2, "velocity": 127}, {"time": 276, "pitch": 81, "duration": 2, "velocity": 127}, {"time": 278, "pitch": 82, "duration": 2, "velocity": 127}, {"time": 280, "pitch": 79, "duration": 2, "velocity": 127}, {"time": 282, "pitch": 81, "duration": 2, "velocity": 127}, {"time": 284, "pitch": 79, "duration": 2, "velocity": 127}, {"time": 286, "pitch": 81, "duration": 2, "velocity": 127}, {"time": 288, "pitch": 79, "duration": 2, "velocity": 127}, {"time": 290, "pitch": 81, "duration": 2, "velocity": 127}, {"time": 292, "pitch": 82, "duration": 2, "velocity": 127}, {"time": 294, "pitch": 81, "duration": 2, "velocity": 127}, {"time": 296, "pitch": 83, "duration": 2, "velocity": 127}, {"time": 298, "pitch": 84, "duration": 2, "velocity": 127}, {"time": 300, "pitch": 83, "duration": 2, "velocity": 127}, {"time": 302, "pitch": 84, "duration": 2, "velocity": 127}, {"time": 304, "pitch": 86, "duration": 2, "velocity": 127}, {"time": 306, "pitch": 84, "duration": 2, "velocity": 127}, {"time": 308, "pitch": 86, "duration": 2, "velocity": 127}, {"time": 310, "pitch": 83, "duration": 2, "velocity": 127}, {"time": 312, "pitch": 84, "duration": 2, "velocity": 127}, {"time": 314, "pitch": 86, "duration": 2, "velocity": 127}, {"time": 316, "pitch": 83, "duration": 2, "velocity": 127}, {"time": 318, "pitch": 84, "duration": 2, "velocity": 127}, {"time": 320, "pitch": 83, "duration": 2, "velocity": 127}, {"time": 322, "pitch": 84, "duration": 2, "velocity": 127}, {"time": 324, "pitch": 86, "duration": 3, "velocity": 127}, {"time": 327, "pitch": 84, "duration": 3, "velocity": 127}, {"time": 330, "pitch": 83, "duration": 3, "velocity": 127}, {"time": 333, "pitch": 81, "duration": 3, "velocity": 127}, {"time": 336, "pitch": 79, "duration": 3, "velocity": 127}, {"time": 339, "pitch": 77, "duration": 3, "velocity": 127}, {"time": 342, "pitch": 84, "duration": 3, "velocity": 127}, {"time": 345, "pitch": 83, "duration": 3, "velocity": 127}, {"time": 348, "pitch": 81, "duration": 3, "velocity": 127}, {"time": 351, "pitch": 79, "duration": 3, "velocity": 127}, {"time": 354, "pitch": 77, "duration": 3, "velocity": 127}, {"time": 357, "pitch": 76, "duration": 3, "velocity": 127}, {"time": 360, "pitch": 77, "duration": 6, "velocity": 127}, {"time": 378, "pitch": 76, "duration": 6, "velocity": 127}, {"time": 396, "pitch": 74, "duration": 3, "velocity": 127}, {"time": 399, "pitch": 72, "duration": 3, "velocity": 127}, {"time": 402, "pitch": 77, "duration": 3, "velocity": 127}, {"time": 405, "pitch": 76, "duration": 3, "velocity": 127}, {"time": 408, "pitch": 74, "duration": 3, "velocity": 127}, {"time": 411, "pitch": 72, "duration": 3, "velocity": 127}, {"time": 414, "pitch": 83, "duration": 3, "velocity": 127}, {"time": 417, "pitch": 79, "duration": 3, "velocity": 127}, {"time": 420, "pitch": 81, "duration": 3, "velocity": 127}, {"time": 423, "pitch": 83, "duration": 3, "velocity": 127}, {"time": 426, "pitch": 84, "duration": 6, "velocity": 127}, {"time": 432, "pitch": 84, "duration": 3, "velocity": 127}, {"time": 435, "pitch": 86, "duration": 3, "velocity": 127}, {"time": 438, "pitch": 83, "duration": 9, "velocity": 127}, {"time": 447, "pitch": 84, "duration": 3, "velocity": 127}, {"time": 450, "pitch": 84, "duration": 3, "velocity": 127}, {"time": 453, "pitch": 83, "duration": 1, "velocity": 127}, {"time": 454, "pitch": 81, "duration": 2, "velocity": 127}, {"time": 456, "pitch": 79, "duration": 1, "velocity": 127}, {"time": 458, "pitch": 77, "duration": 1, "velocity": 127}, {"time": 459, "pitch": 76, "duration": 1, "velocity": 127}, {"time": 460, "pitch": 74, "duration": 2, "velocity": 127}, {"time": 462, "pitch": 79, "duration": 1, "velocity": 127}, {"time": 464, "pitch": 77, "duration": 1, "velocity": 127}, {"time": 465, "pitch": 76, "duration": 1, "velocity": 127}, {"time": 466, "pitch": 74, "duration": 2, "velocity": 127}, {"time": 468, "pitch": 76, "duration": 3, "velocity": 127}, {"time": 471, "pitch": 79, "duration": 3, "velocity": 127}, {"time": 474, "pitch": 76, "duration": 3, "velocity": 127}, {"time": 477, "pitch": 79, "duration": 3, "velocity": 127}, {"time": 480, "pitch": 76, "duration": 3, "velocity": 127}, {"time": 483, "pitch": 79, "duration": 3, "velocity": 127}, {"time": 486, "pitch": 84, "duration": 3, "velocity": 127}, {"time": 489, "pitch": 83, "duration": 1, "velocity": 127}, {"time": 490, "pitch": 81, "duration": 2, "velocity": 127}, {"time": 492, "pitch": 79, "duration": 1, "velocity": 127}, {"time": 494, "pitch": 77, "duration": 1, "velocity": 127}, {"time": 495, "pitch": 76, "duration": 1, "velocity": 127}, {"time": 496, "pitch": 74, "duration": 2, "velocity": 127}, {"time": 498, "pitch": 79, "duration": 1, "velocity": 127}, {"time": 500, "pitch": 77, "duration": 1, "velocity": 127}, {"time": 501, "pitch": 76, "duration": 1, "velocity": 127}, {"time": 502, "pitch": 74, "duration": 2, "velocity": 127}, {"time": 504, "pitch": 76, "duration": 3, "velocity": 127}, {"time": 507, "pitch": 84, "duration": 3, "velocity": 127}, {"time": 510, "pitch": 74, "duration": 9, "velocity": 127}, {"time": 519, "pitch": 72, "duration": 3, "velocity": 127}, {"time": 522, "pitch": 72, "duration": 18, "velocity": 127}, {"time": 540, "pitch": 76, "duration": 3, "velocity": 127}, {"time": 543, "pitch": 77, "duration": 3, "velocity": 127}, {"time": 546, "pitch": 77, "duration": 12, "velocity": 127}, {"time": 558, "pitch": 79, "duration": 3, "velocity": 127}, {"time": 561, "pitch": 77, "duration": 1, "velocity": 127}, {"time": 562, "pitch": 76, "duration": 2, "velocity": 127}, {"time": 564, "pitch": 77, "duration": 1, "velocity": 127}, {"time": 566, "pitch": 76, "duration": 1, "velocity": 127}, {"time": 567, "pitch": 74, "duration": 1, "velocity": 127}, {"time": 568, "pitch": 72, "duration": 2, "velocity": 127}, {"time": 570, "pitch": 79, "duration": 3, "velocity": 127}, {"time": 573, "pitch": 72, "duration": 3, "velocity": 127}, {"time": 576, "pitch": 77, "duration": 3, "velocity": 127}, {"time": 579, "pitch": 79, "duration": 3, "velocity": 127}, {"time": 582, "pitch": 79, "duration": 12, "velocity": 127}, {"time": 594, "pitch": 81, "duration": 6, "velocity": 127}, {"time": 612, "pitch": 81, "duration": 3, "velocity": 127}, {"time": 615, "pitch": 74, "duration": 3, "velocity": 127}, {"time": 618, "pitch": 86, "duration": 3, "velocity": 127}, {"time": 621, "pitch": 74, "duration": 3, "velocity": 127}, {"time": 624, "pitch": 81, "duration": 3, "velocity": 127}, {"time": 627, "pitch": 74, "duration": 3, "velocity": 127}, {"time": 630, "pitch": 82, "duration": 6, "velocity": 127}, {"time": 636, "pitch": 79, "duration": 6, "velocity": 127}, {"time": 642, "pitch": 82, "duration": 6, "velocity": 127}, {"time": 648, "pitch": 81, "duration": 3, "velocity": 127}, {"time": 651, "pitch": 74, "duration": 3, "velocity": 127}, {"time": 654, "pitch": 82, "duration": 3, "velocity": 127}, {"time": 657, "pitch": 74, "duration": 3, "velocity": 127}, {"time": 660, "pitch": 81, "duration": 3, "velocity": 127}, {"time": 663, "pitch": 74, "duration": 3, "velocity": 127}, {"time": 666, "pitch": 82, "duration": 6, "velocity": 127}, {"time": 672, "pitch": 79, "duration": 6, "velocity": 127}, {"time": 678, "pitch": 82, "duration": 6, "velocity": 127}, {"time": 684, "pitch": 87, "duration": 3, "velocity": 127}, {"time": 687, "pitch": 86, "duration": 3, "velocity": 127}, {"time": 690, "pitch": 84, "duration": 3, "velocity": 127}, {"time": 693, "pitch": 82, "duration": 3, "velocity": 127}, {"time": 696, "pitch": 81, "duration": 3, "velocity": 127}, {"time": 699, "pitch": 79, "duration": 3, "velocity": 127}, {"time": 702, "pitch": 84, "duration": 9, "velocity": 127}, {"time": 711, "pitch": 86, "duration": 3, "velocity": 127}, {"time": 714, "pitch": 82, "duration": 6, "velocity": 127}, {"time": 720, "pitch": 82, "duration": 3, "velocity": 127}, {"time": 723, "pitch": 81, "duration": 3, "velocity": 127}, {"time": 726, "pitch": 81, "duration": 9, "velocity": 127}, {"time": 735, "pitch": 84, "duration": 3, "velocity": 127}, {"time": 738, "pitch": 79, "duration": 9, "velocity": 127}, {"time": 747, "pitch": 78, "duration": 3, "velocity": 127}, {"time": 750, "pitch": 79, "duration": 6, "velocity": 127}, {"time": 756, "pitch": 79, "duration": 3, "velocity": 127}, {"time": 759, "pitch": 77, "duration": 3, "velocity": 127}, {"time": 762, "pitch": 76, "duration": 3, "velocity": 127}, {"time": 765, "pitch": 74, "duration": 3, "velocity": 127}, {"time": 768, "pitch": 73, "duration": 3, "velocity": 127}, {"time": 771, "pitch": 71, "duration": 3, "velocity": 127}, {"time": 774, "pitch": 69, "duration": 3, "velocity": 127}, {"time": 777, "pitch": 71, "duration": 3, "velocity": 127}, {"time": 780, "pitch": 73, "duration": 3, "velocity": 127}, {"time": 783, "pitch": 69, "duration": 3, "velocity": 127}, {"time": 786, "pitch": 74, "duration": 3, "velocity": 127}, {"time": 789, "pitch": 81, "duration": 3, "velocity": 127}, {"time": 792, "pitch": 86, "duration": 3, "velocity": 127}, {"time": 795, "pitch": 88, "duration": 3, "velocity": 127}, {"time": 798, "pitch": 85, "duration": 9, "velocity": 127}, {"time": 807, "pitch": 86, "duration": 3, "velocity": 127}, {"time": 810, "pitch": 86, "duration": 3, "velocity": 127}, {"time": 813, "pitch": 84, "duration": 1, "velocity": 127}, {"time": 814, "pitch": 82, "duration": 2, "velocity": 127}, {"time": 816, "pitch": 81, "duration": 1, "velocity": 127}, {"time": 818, "pitch": 79, "duration": 1, "velocity": 127}, {"time": 819, "pitch": 77, "duration": 1, "velocity": 127}, {"time": 820, "pitch": 76, "duration": 2, "velocity": 127}, {"time": 822, "pitch": 86, "duration": 1, "velocity": 127}, {"time": 824, "pitch": 84, "duration": 1, "velocity": 127}, {"time": 825, "pitch": 83, "duration": 1, "velocity": 127}, {"time": 826, "pitch": 84, "duration": 2, "velocity": 127}, {"time": 828, "pitch": 83, "duration": 6, "velocity": 127}, {"time": 846, "pitch": 84, "duration": 3, "velocity": 127}, {"time": 849, "pitch": 82, "duration": 1, "velocity": 127}, {"time": 850, "pitch": 81, "duration": 2, "velocity": 127}, {"time": 852, "pitch": 79, "duration": 1, "velocity": 127}, {"time": 854, "pitch": 77, "duration": 1, "velocity": 127}, {"time": 855, "pitch": 76, "duration": 1, "velocity": 127}, {"time": 856, "pitch": 74, "duration": 2, "velocity": 127}, {"time": 858, "pitch": 84, "duration": 1, "velocity": 127}, {"time": 860, "pitch": 82, "duration": 1, "velocity": 127}, {"time": 861, "pitch": 81, "duration": 1, "velocity": 127}, {"time": 862, "pitch": 82, "duration": 2, "velocity": 127}, {"time": 864, "pitch": 81, "duration": 2, "velocity": 127}, {"time": 866, "pitch": 82, "duration": 2, "velocity": 127}, {"time": 868, "pitch": 84, "duration": 2, "velocity": 127}, {"time": 870, "pitch": 82, "duration": 2, "velocity": 127}, {"time": 872, "pitch": 84, "duration": 2, "velocity": 127}, {"time": 874, "pitch": 86, "duration": 2, "velocity": 127}, {"time": 876, "pitch": 84, "duration": 2, "velocity": 127}, {"time": 878, "pitch": 86, "duration": 2, "velocity": 127}, {"time": 880, "pitch": 87, "duration": 2, "velocity": 127}, {"time": 882, "pitch": 86, "duration": 2, "velocity": 127}, {"time": 884, "pitch": 87, "duration": 2, "velocity": 127}, {"time": 886, "pitch": 84, "duration": 2, "velocity": 127}, {"time": 888, "pitch": 86, "duration": 2, "velocity": 127}, {"time": 890, "pitch": 87, "duration": 2, "velocity": 127}, {"time": 892, "pitch": 84, "duration": 2, "velocity": 127}, {"time": 894, "pitch": 86, "duration": 2, "velocity": 127}, {"time": 896, "pitch": 84, "duration": 2, "velocity": 127}, {"time": 898, "pitch": 86, "duration": 2, "velocity": 127}, {"time": 900, "pitch": 77, "duration": 6, "velocity": 127}, {"time": 906, "pitch": 79, "duration": 6, "velocity": 127}, {"time": 912, "pitch": 81, "duration": 6, "velocity": 127}, {"time": 918, "pitch": 82, "duration": 6, "velocity": 127}, {"time": 936, "pitch": 81, "duration": 2, "velocity": 127}, {"time": 938, "pitch": 82, "duration": 2, "velocity": 127}, {"time": 940, "pitch": 84, "duration": 2, "velocity": 127}, {"time": 942, "pitch": 82, "duration": 2, "velocity": 127}, {"time": 944, "pitch": 84, "duration": 2, "velocity": 127}, {"time": 946, "pitch": 86, "duration": 2, "velocity": 127}, {"time": 948, "pitch": 79, "duration": 2, "velocity": 127}, {"time": 950, "pitch": 81, "duration": 2, "velocity": 127}, {"time": 952, "pitch": 82, "duration": 2, "velocity": 127}, {"time": 954, "pitch": 81, "duration": 2, "velocity": 127}, {"time": 956, "pitch": 82, "duration": 2, "velocity": 127}, {"time": 958, "pitch": 79, "duration": 2, "velocity": 127}, {"time": 960, "pitch": 81, "duration": 2, "velocity": 127}, {"time": 962, "pitch": 82, "duration": 2, "velocity": 127}, {"time": 964, "pitch": 79, "duration": 2, "velocity": 127}, {"time": 966, "pitch": 81, "duration": 2, "velocity": 127}, {"time": 968, "pitch": 79, "duration": 2, "velocity": 127}, {"time": 970, "pitch": 81, "duration": 2, "velocity": 127}, {"time": 972, "pitch": 82, "duration": 6, "velocity": 127}, {"time": 990, "pitch": 81, "duration": 6, "velocity": 127}, {"time": 1008, "pitch": 86, "duration": 3, "velocity": 127}, {"time": 1011, "pitch": 84, "duration": 3, "velocity": 127}, {"time": 1014, "pitch": 82, "duration": 3, "velocity": 127}, {"time": 1017, "pitch": 81, "duration": 3, "velocity": 127}, {"time": 1020, "pitch": 79, "duration": 3, "velocity": 127}, {"time": 1023, "pitch": 77, "duration": 3, "velocity": 127}, {"time": 1026, "pitch": 84, "duration": 3, "velocity": 127}, {"time": 1029, "pitch": 82, "duration": 3, "velocity": 127}, {"time": 1032, "pitch": 81, "duration": 3, "velocity": 127}, {"time": 1035, "pitch": 79, "duration": 3, "velocity": 127}, {"time": 1038, "pitch": 77, "duration": 3, "velocity": 127}, {"time": 1041, "pitch": 76, "duration": 3, "velocity": 127}, {"time": 1044, "pitch": 82, "duration": 3, "velocity": 127}, {"time": 1047, "pitch": 81, "duration": 3, "velocity": 127}, {"time": 1050, "pitch": 79, "duration": 3, "velocity": 127}, {"time": 1053, "pitch": 77, "duration": 3, "velocity": 127}, {"time": 1056, "pitch": 82, "duration": 3, "velocity": 127}, {"time": 1059, "pitch": 81, "duration": 3, "velocity": 127}, {"time": 1062, "pitch": 82, "duration": 9, "velocity": 127}, {"time": 1071, "pitch": 81, "duration": 3, "velocity": 127}, {"time": 1074, "pitch": 79, "duration": 3, "velocity": 127}, {"time": 1077, "pitch": 81, "duration": 3, "velocity": 127}, {"time": 1080, "pitch": 81, "duration": 3, "velocity": 127}, {"time": 1083, "pitch": 82, "duration": 3, "velocity": 127}, {"time": 1086, "pitch": 79, "duration": 9, "velocity": 127}, {"time": 1095, "pitch": 77, "duration": 3, "velocity": 127}, {"time": 1098, "pitch": 89, "duration": 3, "velocity": 127}, {"time": 1101, "pitch": 88, "duration": 1, "velocity": 127}, {"time": 1102, "pitch": 86, "duration": 2, "velocity": 127}, {"time": 1104, "pitch": 84, "duration": 1, "velocity": 127}, {"time": 1106, "pitch": 82, "duration": 1, "velocity": 127}, {"time": 1107, "pitch": 81, "duration": 1, "velocity": 127}, {"time": 1108, "pitch": 79, "duration": 2, "velocity": 127}, {"time": 1110, "pitch": 84, "duration": 1, "velocity": 127}, {"time": 1112, "pitch": 82, "duration": 1, "velocity": 127}, {"time": 1113, "pitch": 81, "duration": 1, "velocity": 127}, {"time": 1114, "pitch": 79, "duration": 2, "velocity": 127}, {"time": 1116, "pitch": 81, "duration": 3, "velocity": 127}, {"time": 1119, "pitch": 84, "duration": 3, "velocity": 127}, {"time": 1122, "pitch": 81, "duration": 3, "velocity": 127}, {"time": 1125, "pitch": 84, "duration": 3, "velocity": 127}, {"time": 1128, "pitch": 81, "duration": 3, "velocity": 127}, {"time": 1131, "pitch": 84, "duration": 3, "velocity": 127}, {"time": 1134, "pitch": 89, "duration": 3, "velocity": 127}, {"time": 1137, "pitch": 88, "duration": 1, "velocity": 127}, {"time": 1138, "pitch": 86, "duration": 2, "velocity": 127}, {"time": 1140, "pitch": 84, "duration": 1, "velocity": 127}, {"time": 1142, "pitch": 82, "duration": 1, "velocity": 127}, {"time": 1143, "pitch": 81, "duration": 1, "velocity": 127}, {"time": 1144, "pitch": 79, "duration": 2, "velocity": 127}, {"time": 1146, "pitch": 84, "duration": 1, "velocity": 127}, {"time": 1148, "pitch": 82, "duration": 1, "velocity": 127}, {"time": 1149, "pitch": 81, "duration": 1, "velocity": 127}, {"time": 1150, "pitch": 79, "duration": 2, "velocity": 127}, {"time": 1152, "pitch": 81, "duration": 3, "velocity": 127}, {"time": 1155, "pitch": 89, "duration": 3, "velocity": 127}, {"time": 1158, "pitch": 79, "duration": 9, "velocity": 127}, {"time": 1167, "pitch": 77, "duration": 3, "velocity": 127}, {"time": 1170, "pitch": 77, "duration": 18, "velocity": 127}], "annotations": [{"time": 0, "annotation": {"number": 7, "value": 100}, "group": "control_change"}, {"time": 0, "annotation": {"number": 10, "value": 64}, "group": "control_change"}, {"time": 0, "annotation": {"number": 91, "value": 0}, "group": "control_change"}, {"time": 0, "annotation": {"number": 93, "value": 0}, "group": "control_change"}]}]}