{"metadata": {"schema_version": "0.2"}, "resolution": 24, "tracks": [{"program": 74, "is_drum": false, "notes": [{"time": 24, "pitch": 77, "duration": 3, "velocity": 127}, {"time": 27, "pitch": 79, "duration": 3, "velocity": 127}, {"time": 30, "pitch": 81, "duration": 3, "velocity": 127}, {"time": 33, "pitch": 82, "duration": 3, "velocity": 127}, {"time": 36, "pitch": 84, "duration": 6, "velocity": 127}, {"time": 42, "pitch": 86, "duration": 3, "velocity": 127}, {"time": 45, "pitch": 88, "duration": 3, "velocity": 127}, {"time": 48, "pitch": 89, "duration": 6, "velocity": 127}, {"time": 54, "pitch": 77, "duration": 6, "velocity": 127}, {"time": 66, "pitch": 76, "duration": 6, "velocity": 127}, {"time": 72, "pitch": 74, "duration": 3, "velocity": 127}, {"time": 75, "pitch": 76, "duration": 3, "velocity": 127}, {"time": 78, "pitch": 77, "duration": 3, "velocity": 127}, {"time": 81, "pitch": 79, "duration": 3, "velocity": 127}, {"time": 84, "pitch": 81, "duration": 6, "velocity": 127}, {"time": 90, "pitch": 82, "duration": 3, "velocity": 127}, {"time": 93, "pitch": 84, "duration": 3, "velocity": 127}, {"time": 96, "pitch": 86, "duration": 6, "velocity": 127}, {"time": 102, "pitch": 74, "duration": 6, "velocity": 127}, {"time": 114, "pitch": 72, "duration": 6, "velocity": 127}, {"time": 120, "pitch": 70, "duration": 3, "velocity": 127}, {"time": 123, "pitch": 72, "duration": 3, "velocity": 127}, {"time": 126, "pitch": 74, "duration": 3, "velocity": 127}, {"time": 129, "pitch": 76, "duration": 3, "velocity": 127}, {"time": 132, "pitch": 77, "duration": 6, "velocity": 127}, {"time": 138, "pitch": 79, "duration": 3, "velocity": 127}, {"time": 141, "pitch": 81, "duration": 3, "velocity": 127}, {"time": 144, "pitch": 82, "duration": 3, "velocity": 127}, {"time": 147, "pitch": 70, "duration": 3, "velocity": 127}, {"time": 150, "pitch": 69, "duration": 3, "velocity": 127}, {"time": 153, "pitch": 67, "duration": 3, "velocity": 127}, {"time": 156, "pitch": 74, "duration": 3, "velocity": 127}, {"time": 159, "pitch": 70, "duration": 3, "velocity": 127}, {"time": 162, "pitch": 69, "duration": 3, "velocity": 127}, {"time": 165, "pitch": 67, "duration": 3, "velocity": 127}, {"time": 168, "pitch": 82, "duration": 3, "velocity": 127}, {"time": 171, "pitch": 76, "duration": 3, "velocity": 127}, {"time": 174, "pitch": 74, "duration": 3, "velocity": 127}, {"time": 177, "pitch": 72, "duration": 3, "velocity": 127}, {"time": 180, "pitch": 79, "duration": 3, "velocity": 127}, {"time": 183, "pitch": 76, "duration": 3, "velocity": 127}, {"time": 186, "pitch": 74, "duration": 3, "velocity": 127}, {"time": 189, "pitch": 72, "duration": 3, "velocity": 127}, {"time": 192, "pitch": 65, "duration": 3, "velocity": 127}, {"time": 195, "pitch": 72, "duration": 3, "velocity": 127}, {"time": 198, "pitch": 70, "duration": 3, "velocity": 127}, {"time": 201, "pitch": 69, "duration": 3, "velocity": 127}, {"time": 204, "pitch": 82, "duration": 3, "velocity": 127}, {"time": 207, "pitch": 72, "duration": 3, "velocity": 127}, {"time": 210, "pitch": 70, "duration": 3, "velocity": 127}, {"time": 213, "pitch": 69, "duration": 3, "velocity": 127}, {"time": 216, "pitch": 86, "duration": 3, "velocity": 127}, {"time": 219, "pitch": 84, "duration": 3, "velocity": 127}, {"time": 222, "pitch": 82, "duration": 3, "velocity": 127}, {"time": 225, "pitch": 81, "duration": 3, "velocity": 127}, {"time": 228, "pitch": 82, "duration": 3, "velocity": 127}, {"time": 231, "pitch": 81, "duration": 3, "velocity": 127}, {"time": 234, "pitch": 79, "duration": 3, "velocity": 127}, {"time": 237, "pitch": 77, "duration": 3, "velocity": 127}, {"time": 240, "pitch": 76, "duration": 3, "velocity": 127}, {"time": 243, "pitch": 74, "duration": 3, "velocity": 127}, {"time": 246, "pitch": 72, "duration": 6, "velocity": 127}, {"time": 258, "pitch": 77, "duration": 3, "velocity": 127}, {"time": 261, "pitch": 76, "duration": 3, "velocity": 127}, {"time": 264, "pitch": 77, "duration": 3, "velocity": 127}, {"time": 267, "pitch": 72, "duration": 3, "velocity": 127}, {"time": 270, "pitch": 74, "duration": 3, "velocity": 127}, {"time": 273, "pitch": 70, "duration": 3, "velocity": 127}, {"time": 276, "pitch": 72, "duration": 6, "velocity": 127}, {"time": 282, "pitch": 72, "duration": 6, "velocity": 127}, {"time": 288, "pitch": 65, "duration": 12, "velocity": 127}, {"time": 312, "pitch": 77, "duration": 3, "velocity": 127}, {"time": 315, "pitch": 79, "duration": 3, "velocity": 127}, {"time": 318, "pitch": 81, "duration": 3, "velocity": 127}, {"time": 321, "pitch": 82, "duration": 3, "velocity": 127}, {"time": 324, "pitch": 84, "duration": 6, "velocity": 127}, {"time": 330, "pitch": 86, "duration": 3, "velocity": 127}, {"time": 333, "pitch": 88, "duration": 3, "velocity": 127}, {"time": 336, "pitch": 89, "duration": 6, "velocity": 127}, {"time": 342, "pitch": 77, "duration": 6, "velocity": 127}, {"time": 354, "pitch": 76, "duration": 6, "velocity": 127}, {"time": 360, "pitch": 74, "duration": 3, "velocity": 127}, {"time": 363, "pitch": 72, "duration": 3, "velocity": 127}, {"time": 366, "pitch": 74, "duration": 3, "velocity": 127}, {"time": 369, "pitch": 71, "duration": 3, "velocity": 127}, {"time": 372, "pitch": 72, "duration": 3, "velocity": 127}, {"time": 375, "pitch": 71, "duration": 3, "velocity": 127}, {"time": 378, "pitch": 72, "duration": 3, "velocity": 127}, {"time": 381, "pitch": 69, "duration": 3, "velocity": 127}, {"time": 384, "pitch": 71, "duration": 3, "velocity": 127}, {"time": 387, "pitch": 69, "duration": 3, "velocity": 127}, {"time": 390, "pitch": 67, "duration": 6, "velocity": 127}, {"time": 402, "pitch": 79, "duration": 6, "velocity": 127}, {"time": 408, "pitch": 81, "duration": 3, "velocity": 127}, {"time": 411, "pitch": 79, "duration": 3, "velocity": 127}, {"time": 414, "pitch": 81, "duration": 3, "velocity": 127}, {"time": 417, "pitch": 77, "duration": 3, "velocity": 127}, {"time": 420, "pitch": 81, "duration": 3, "velocity": 127}, {"time": 423, "pitch": 79, "duration": 3, "velocity": 127}, {"time": 426, "pitch": 81, "duration": 3, "velocity": 127}, {"time": 429, "pitch": 84, "duration": 3, "velocity": 127}, {"time": 432, "pitch": 83, "duration": 3, "velocity": 127}, {"time": 435, "pitch": 84, "duration": 3, "velocity": 127}, {"time": 438, "pitch": 86, "duration": 6, "velocity": 127}, {"time": 447, "pitch": 84, "duration": 3, "velocity": 127}, {"time": 450, "pitch": 86, "duration": 3, "velocity": 127}, {"time": 453, "pitch": 83, "duration": 3, "velocity": 127}, {"time": 456, "pitch": 79, "duration": 3, "velocity": 127}, {"time": 459, "pitch": 83, "duration": 3, "velocity": 127}, {"time": 462, "pitch": 84, "duration": 3, "velocity": 127}, {"time": 465, "pitch": 79, "duration": 3, "velocity": 127}, {"time": 468, "pitch": 84, "duration": 3, "velocity": 127}, {"time": 471, "pitch": 83, "duration": 3, "velocity": 127}, {"time": 474, "pitch": 84, "duration": 3, "velocity": 127}, {"time": 477, "pitch": 72, "duration": 3, "velocity": 127}, {"time": 480, "pitch": 77, "duration": 12, "velocity": 127}, {"time": 492, "pitch": 77, "duration": 3, "velocity": 127}, {"time": 495, "pitch": 76, "duration": 3, "velocity": 127}, {"time": 498, "pitch": 77, "duration": 3, "velocity": 127}, {"time": 501, "pitch": 74, "duration": 3, "velocity": 127}, {"time": 504, "pitch": 76, "duration": 3, "velocity": 127}, {"time": 507, "pitch": 72, "duration": 3, "velocity": 127}, {"time": 510, "pitch": 76, "duration": 3, "velocity": 127}, {"time": 513, "pitch": 77, "duration": 3, "velocity": 127}, {"time": 516, "pitch": 79, "duration": 6, "velocity": 127}, {"time": 522, "pitch": 67, "duration": 6, "velocity": 127}, {"time": 528, "pitch": 72, "duration": 6, "velocity": 127}, {"time": 534, "pitch": 76, "duration": 3, "velocity": 127}, {"time": 537, "pitch": 77, "duration": 3, "velocity": 127}, {"time": 540, "pitch": 79, "duration": 3, "velocity": 127}, {"time": 543, "pitch": 76, "duration": 3, "velocity": 127}, {"time": 546, "pitch": 77, "duration": 3, "velocity": 127}, {"time": 549, "pitch": 74, "duration": 3, "velocity": 127}, {"time": 552, "pitch": 76, "duration": 3, "velocity": 127}, {"time": 555, "pitch": 74, "duration": 3, "velocity": 127}, {"time": 558, "pitch": 72, "duration": 6, "velocity": 127}, {"time": 570, "pitch": 71, "duration": 6, "velocity": 127}, {"time": 576, "pitch": 72, "duration": 3, "velocity": 127}, {"time": 579, "pitch": 74, "duration": 3, "velocity": 127}, {"time": 582, "pitch": 76, "duration": 3, "velocity": 127}, {"time": 585, "pitch": 77, "duration": 3, "velocity": 127}, {"time": 588, "pitch": 79, "duration": 3, "velocity": 127}, {"time": 591, "pitch": 81, "duration": 1, "velocity": 127}, {"time": 592, "pitch": 82, "duration": 2, "velocity": 127}, {"time": 594, "pitch": 81, "duration": 3, "velocity": 127}, {"time": 597, "pitch": 79, "duration": 3, "velocity": 127}, {"time": 600, "pitch": 77, "duration": 3, "velocity": 127}, {"time": 603, "pitch": 76, "duration": 3, "velocity": 127}, {"time": 606, "pitch": 74, "duration": 6, "velocity": 127}, {"time": 618, "pitch": 78, "duration": 6, "velocity": 127}, {"time": 624, "pitch": 79, "duration": 6, "velocity": 127}, {"time": 630, "pitch": 78, "duration": 6, "velocity": 127}, {"time": 636, "pitch": 79, "duration": 6, "velocity": 127}, {"time": 642, "pitch": 81, "duration": 6, "velocity": 127}, {"time": 648, "pitch": 82, "duration": 3, "velocity": 127}, {"time": 651, "pitch": 86, "duration": 3, "velocity": 127}, {"time": 654, "pitch": 81, "duration": 3, "velocity": 127}, {"time": 657, "pitch": 86, "duration": 3, "velocity": 127}, {"time": 660, "pitch": 82, "duration": 3, "velocity": 127}, {"time": 663, "pitch": 86, "duration": 3, "velocity": 127}, {"time": 666, "pitch": 78, "duration": 3, "velocity": 127}, {"time": 669, "pitch": 86, "duration": 3, "velocity": 127}, {"time": 672, "pitch": 79, "duration": 9, "velocity": 127}, {"time": 681, "pitch": 78, "duration": 3, "velocity": 127}, {"time": 684, "pitch": 79, "duration": 6, "velocity": 127}, {"time": 690, "pitch": 78, "duration": 6, "velocity": 127}, {"time": 696, "pitch": 79, "duration": 3, "velocity": 127}, {"time": 699, "pitch": 74, "duration": 3, "velocity": 127}, {"time": 702, "pitch": 75, "duration": 3, "velocity": 127}, {"time": 705, "pitch": 72, "duration": 3, "velocity": 127}, {"time": 708, "pitch": 74, "duration": 6, "velocity": 127}, {"time": 714, "pitch": 74, "duration": 6, "velocity": 127}, {"time": 720, "pitch": 67, "duration": 3, "velocity": 127}, {"time": 723, "pitch": 69, "duration": 3, "velocity": 127}, {"time": 726, "pitch": 71, "duration": 3, "velocity": 127}, {"time": 729, "pitch": 72, "duration": 3, "velocity": 127}, {"time": 732, "pitch": 74, "duration": 3, "velocity": 127}, {"time": 735, "pitch": 76, "duration": 3, "velocity": 127}, {"time": 738, "pitch": 77, "duration": 3, "velocity": 127}, {"time": 741, "pitch": 79, "duration": 3, "velocity": 127}, {"time": 744, "pitch": 76, "duration": 3, "velocity": 127}, {"time": 747, "pitch": 77, "duration": 3, "velocity": 127}, {"time": 750, "pitch": 79, "duration": 6, "velocity": 127}, {"time": 759, "pitch": 77, "duration": 3, "velocity": 127}, {"time": 762, "pitch": 79, "duration": 3, "velocity": 127}, {"time": 765, "pitch": 76, "duration": 3, "velocity": 127}, {"time": 768, "pitch": 77, "duration": 3, "velocity": 127}, {"time": 771, "pitch": 79, "duration": 3, "velocity": 127}, {"time": 774, "pitch": 81, "duration": 3, "velocity": 127}, {"time": 777, "pitch": 82, "duration": 3, "velocity": 127}, {"time": 780, "pitch": 84, "duration": 6, "velocity": 127}, {"time": 786, "pitch": 86, "duration": 3, "velocity": 127}, {"time": 789, "pitch": 88, "duration": 3, "velocity": 127}, {"time": 792, "pitch": 89, "duration": 6, "velocity": 127}, {"time": 798, "pitch": 77, "duration": 6, "velocity": 127}, {"time": 810, "pitch": 76, "duration": 6, "velocity": 127}, {"time": 816, "pitch": 74, "duration": 3, "velocity": 127}, {"time": 819, "pitch": 76, "duration": 3, "velocity": 127}, {"time": 822, "pitch": 77, "duration": 3, "velocity": 127}, {"time": 825, "pitch": 79, "duration": 3, "velocity": 127}, {"time": 828, "pitch": 81, "duration": 6, "velocity": 127}, {"time": 834, "pitch": 82, "duration": 3, "velocity": 127}, {"time": 837, "pitch": 84, "duration": 3, "velocity": 127}, {"time": 840, "pitch": 86, "duration": 6, "velocity": 127}, {"time": 846, "pitch": 74, "duration": 6, "velocity": 127}, {"time": 858, "pitch": 72, "duration": 6, "velocity": 127}, {"time": 864, "pitch": 70, "duration": 3, "velocity": 127}, {"time": 867, "pitch": 72, "duration": 3, "velocity": 127}, {"time": 870, "pitch": 74, "duration": 3, "velocity": 127}, {"time": 873, "pitch": 76, "duration": 3, "velocity": 127}, {"time": 876, "pitch": 77, "duration": 6, "velocity": 127}, {"time": 882, "pitch": 79, "duration": 3, "velocity": 127}, {"time": 885, "pitch": 81, "duration": 3, "velocity": 127}, {"time": 888, "pitch": 82, "duration": 6, "velocity": 127}, {"time": 894, "pitch": 70, "duration": 6, "velocity": 127}, {"time": 906, "pitch": 81, "duration": 6, "velocity": 127}, {"time": 912, "pitch": 79, "duration": 3, "velocity": 127}, {"time": 915, "pitch": 77, "duration": 3, "velocity": 127}, {"time": 918, "pitch": 79, "duration": 3, "velocity": 127}, {"time": 921, "pitch": 76, "duration": 3, "velocity": 127}, {"time": 924, "pitch": 77, "duration": 3, "velocity": 127}, {"time": 927, "pitch": 76, "duration": 3, "velocity": 127}, {"time": 930, "pitch": 77, "duration": 3, "velocity": 127}, {"time": 933, "pitch": 74, "duration": 3, "velocity": 127}, {"time": 936, "pitch": 76, "duration": 3, "velocity": 127}, {"time": 939, "pitch": 74, "duration": 3, "velocity": 127}, {"time": 942, "pitch": 72, "duration": 6, "velocity": 127}, {"time": 954, "pitch": 83, "duration": 6, "velocity": 127}, {"time": 960, "pitch": 84, "duration": 3, "velocity": 127}, {"time": 963, "pitch": 83, "duration": 3, "velocity": 127}, {"time": 966, "pitch": 84, "duration": 3, "velocity": 127}, {"time": 969, "pitch": 79, "duration": 3, "velocity": 127}, {"time": 972, "pitch": 84, "duration": 3, "velocity": 127}, {"time": 975, "pitch": 83, "duration": 3, "velocity": 127}, {"time": 978, "pitch": 84, "duration": 3, "velocity": 127}, {"time": 981, "pitch": 84, "duration": 3, "velocity": 127}, {"time": 984, "pitch": 84, "duration": 3, "velocity": 127}, {"time": 987, "pitch": 81, "duration": 3, "velocity": 127}, {"time": 990, "pitch": 82, "duration": 6, "velocity": 127}, {"time": 1002, "pitch": 82, "duration": 6, "velocity": 127}, {"time": 1008, "pitch": 82, "duration": 3, "velocity": 127}, {"time": 1011, "pitch": 81, "duration": 3, "velocity": 127}, {"time": 1014, "pitch": 82, "duration": 3, "velocity": 127}, {"time": 1017, "pitch": 72, "duration": 3, "velocity": 127}, {"time": 1020, "pitch": 82, "duration": 3, "velocity": 127}, {"time": 1023, "pitch": 81, "duration": 3, "velocity": 127}, {"time": 1026, "pitch": 82, "duration": 3, "velocity": 127}, {"time": 1029, "pitch": 82, "duration": 3, "velocity": 127}, {"time": 1032, "pitch": 82, "duration": 3, "velocity": 127}, {"time": 1035, "pitch": 79, "duration": 3, "velocity": 127}, {"time": 1038, "pitch": 81, "duration": 6, "velocity": 127}, {"time": 1050, "pitch": 81, "duration": 6, "velocity": 127}, {"time": 1056, "pitch": 81, "duration": 3, "velocity": 127}, {"time": 1059, "pitch": 79, "duration": 3, "velocity": 127}, {"time": 1062, "pitch": 81, "duration": 3, "velocity": 127}, {"time": 1065, "pitch": 74, "duration": 3, "velocity": 127}, {"time": 1068, "pitch": 79, "duration": 3, "velocity": 127}, {"time": 1071, "pitch": 77, "duration": 3, "velocity": 127}, {"time": 1074, "pitch": 79, "duration": 3, "velocity": 127}, {"time": 1077, "pitch": 76, "duration": 3, "velocity": 127}, {"time": 1080, "pitch": 77, "duration": 3, "velocity": 127}, {"time": 1083, "pitch": 72, "duration": 3, "velocity": 127}, {"time": 1086, "pitch": 74, "duration": 3, "velocity": 127}, {"time": 1089, "pitch": 70, "duration": 3, "velocity": 127}, {"time": 1092, "pitch": 72, "duration": 6, "velocity": 127}, {"time": 1098, "pitch": 73, "duration": 6, "velocity": 127}, {"time": 1104, "pitch": 74, "duration": 3, "velocity": 127}, {"time": 1107, "pitch": 77, "duration": 3, "velocity": 127}, {"time": 1110, "pitch": 76, "duration": 3, "velocity": 127}, {"time": 1113, "pitch": 77, "duration": 3, "velocity": 127}, {"time": 1116, "pitch": 71, "duration": 3, "velocity": 127}, {"time": 1119, "pitch": 83, "duration": 3, "velocity": 127}, {"time": 1122, "pitch": 81, "duration": 3, "velocity": 127}, {"time": 1125, "pitch": 79, "duration": 3, "velocity": 127}, {"time": 1128, "pitch": 72, "duration": 3, "velocity": 127}, {"time": 1131, "pitch": 76, "duration": 3, "velocity": 127}, {"time": 1134, "pitch": 74, "duration": 3, "velocity": 127}, {"time": 1137, "pitch": 76, "duration": 3, "velocity": 127}, {"time": 1140, "pitch": 69, "duration": 3, "velocity": 127}, {"time": 1143, "pitch": 81, "duration": 3, "velocity": 127}, {"time": 1146, "pitch": 79, "duration": 3, "velocity": 127}, {"time": 1149, "pitch": 77, "duration": 3, "velocity": 127}, {"time": 1152, "pitch": 70, "duration": 3, "velocity": 127}, {"time": 1155, "pitch": 74, "duration": 3, "velocity": 127}, {"time": 1158, "pitch": 72, "duration": 3, "velocity": 127}, {"time": 1161, "pitch": 74, "duration": 3, "velocity": 127}, {"time": 1164, "pitch": 67, "duration": 3, "velocity": 127}, {"time": 1167, "pitch": 79, "duration": 3, "velocity": 127}, {"time": 1170, "pitch": 77, "duration": 3, "velocity": 127}, {"time": 1173, "pitch": 76, "duration": 3, "velocity": 127}, {"time": 1176, "pitch": 69, "duration": 3, "velocity": 127}, {"time": 1179, "pitch": 72, "duration": 3, "velocity": 127}, {"time": 1182, "pitch": 70, "duration": 3, "velocity": 127}, {"time": 1185, "pitch": 67, "duration": 3, "velocity": 127}, {"time": 1188, "pitch": 65, "duration": 3, "velocity": 127}, {"time": 1191, "pitch": 77, "duration": 3, "velocity": 127}, {"time": 1194, "pitch": 76, "duration": 3, "velocity": 127}, {"time": 1197, "pitch": 74, "duration": 3, "velocity": 127}, {"time": 1200, "pitch": 67, "duration": 3, "velocity": 127}, {"time": 1203, "pitch": 79, "duration": 3, "velocity": 127}, {"time": 1206, "pitch": 78, "duration": 3, "velocity": 127}, {"time": 1209, "pitch": 79, "duration": 3, "velocity": 127}, {"time": 1212, "pitch": 82, "duration": 3, "velocity": 127}, {"time": 1215, "pitch": 79, "duration": 3, "velocity": 127}, {"time": 1218, "pitch": 78, "duration": 3, "velocity": 127}, {"time": 1221, "pitch": 79, "duration": 3, "velocity": 127}, {"time": 1224, "pitch": 72, "duration": 12, "velocity": 127}, {"time": 1239, "pitch": 79, "duration": 3, "velocity": 127}, {"time": 1242, "pitch": 77, "duration": 3, "velocity": 127}, {"time": 1245, "pitch": 76, "duration": 3, "velocity": 127}, {"time": 1248, "pitch": 77, "duration": 3, "velocity": 127}, {"time": 1251, "pitch": 72, "duration": 3, "velocity": 127}, {"time": 1254, "pitch": 74, "duration": 3, "velocity": 127}, {"time": 1257, "pitch": 70, "duration": 3, "velocity": 127}, {"time": 1260, "pitch": 72, "duration": 6, "velocity": 127}, {"time": 1266, "pitch": 72, "duration": 6, "velocity": 127}, {"time": 1272, "pitch": 65, "duration": 12, "velocity": 127}], "annotations": [{"time": 0, "annotation": {"number": 7, "value": 100}, "group": "control_change"}, {"time": 0, "annotation": {"number": 10, "value": 64}, "group": "control_change"}, {"time": 0, "annotation": {"number": 91, "value": 0}, "group": "control_change"}, {"time": 0, "annotation": {"number": 93, "value": 0}, "group": "control_change"}]}]}