{"metadata": {"schema_version": "0.2"}, "resolution": 24, "tracks": [{"program": 74, "is_drum": false, "notes": [{"time": 0, "pitch": 77, "duration": 24, "velocity": 127}, {"time": 24, "pitch": 82, "duration": 24, "velocity": 127}, {"time": 48, "pitch": 81, "duration": 24, "velocity": 127}, {"time": 84, "pitch": 79, "duration": 12, "velocity": 127}, {"time": 96, "pitch": 77, "duration": 12, "velocity": 127}, {"time": 108, "pitch": 74, "duration": 12, "velocity": 127}, {"time": 120, "pitch": 75, "duration": 18, "velocity": 127}, {"time": 138, "pitch": 77, "duration": 6, "velocity": 127}, {"time": 144, "pitch": 74, "duration": 24, "velocity": 127}, {"time": 168, "pitch": 72, "duration": 24, "velocity": 127}, {"time": 192, "pitch": 70, "duration": 12, "velocity": 127}, {"time": 204, "pitch": 74, "duration": 12, "velocity": 127}, {"time": 216, "pitch": 72, "duration": 12, "velocity": 127}, {"time": 228, "pitch": 75, "duration": 12, "velocity": 127}, {"time": 240, "pitch": 74, "duration": 18, "velocity": 127}, {"time": 258, "pitch": 75, "duration": 3, "velocity": 127}, {"time": 261, "pitch": 77, "duration": 3, "velocity": 127}, {"time": 264, "pitch": 72, "duration": 12, "velocity": 127}, {"time": 276, "pitch": 65, "duration": 12, "velocity": 127}, {"time": 288, "pitch": 70, "duration": 12, "velocity": 127}, {"time": 300, "pitch": 74, "duration": 12, "velocity": 127}, {"time": 312, "pitch": 72, "duration": 12, "velocity": 127}, {"time": 324, "pitch": 75, "duration": 12, "velocity": 127}, {"time": 336, "pitch": 74, "duration": 24, "velocity": 127}, {"time": 360, "pitch": 72, "duration": 24, "velocity": 127}, {"time": 384, "pitch": 70, "duration": 12, "velocity": 127}, {"time": 396, "pitch": 72, "duration": 12, "velocity": 127}, {"time": 408, "pitch": 74, "duration": 12, "velocity": 127}, {"time": 420, "pitch": 70, "duration": 12, "velocity": 127}, {"time": 432, "pitch": 77, "duration": 12, "velocity": 127}, {"time": 444, "pitch": 65, "duration": 12, "velocity": 127}, {"time": 456, "pitch": 77, "duration": 12, "velocity": 127}, {"time": 468, "pitch": 75, "duration": 12, "velocity": 127}, {"time": 480, "pitch": 74, "duration": 12, "velocity": 127}, {"time": 492, "pitch": 70, "duration": 12, "velocity": 127}, {"time": 504, "pitch": 72, "duration": 12, "velocity": 127}, {"time": 516, "pitch": 69, "duration": 12, "velocity": 127}, {"time": 528, "pitch": 70, "duration": 12, "velocity": 127}, {"time": 540, "pitch": 65, "duration": 12, "velocity": 127}, {"time": 552, "pitch": 69, "duration": 12, "velocity": 127}, {"time": 564, "pitch": 65, "duration": 12, "velocity": 127}, {"time": 576, "pitch": 75, "duration": 12, "velocity": 127}, {"time": 588, "pitch": 74, "duration": 6, "velocity": 127}, {"time": 594, "pitch": 72, "duration": 6, "velocity": 127}, {"time": 600, "pitch": 74, "duration": 24, "velocity": 127}, {"time": 624, "pitch": 79, "duration": 12, "velocity": 127}, {"time": 636, "pitch": 70, "duration": 12, "velocity": 127}, {"time": 648, "pitch": 77, "duration": 12, "velocity": 127}, {"time": 660, "pitch": 70, "duration": 12, "velocity": 127}, {"time": 672, "pitch": 75, "duration": 12, "velocity": 127}, {"time": 684, "pitch": 74, "duration": 6, "velocity": 127}, {"time": 690, "pitch": 72, "duration": 6, "velocity": 127}, {"time": 696, "pitch": 74, "duration": 24, "velocity": 127}, {"time": 720, "pitch": 79, "duration": 12, "velocity": 127}, {"time": 732, "pitch": 70, "duration": 12, "velocity": 127}, {"time": 744, "pitch": 77, "duration": 12, "velocity": 127}, {"time": 756, "pitch": 70, "duration": 12, "velocity": 127}, {"time": 768, "pitch": 75, "duration": 24, "velocity": 127}, {"time": 792, "pitch": 75, "duration": 24, "velocity": 127}, {"time": 816, "pitch": 75, "duration": 36, "velocity": 127}, {"time": 852, "pitch": 74, "duration": 6, "velocity": 127}, {"time": 858, "pitch": 72, "duration": 6, "velocity": 127}, {"time": 864, "pitch": 74, "duration": 12, "velocity": 127}, {"time": 876, "pitch": 70, "duration": 12, "velocity": 127}, {"time": 888, "pitch": 65, "duration": 12, "velocity": 127}, {"time": 900, "pitch": 77, "duration": 12, "velocity": 127}, {"time": 912, "pitch": 70, "duration": 12, "velocity": 127}, {"time": 924, "pitch": 77, "duration": 6, "velocity": 127}, {"time": 930, "pitch": 75, "duration": 6, "velocity": 127}, {"time": 936, "pitch": 74, "duration": 12, "velocity": 127}, {"time": 948, "pitch": 72, "duration": 12, "velocity": 127}, {"time": 960, "pitch": 70, "duration": 6, "velocity": 127}, {"time": 966, "pitch": 69, "duration": 6, "velocity": 127}, {"time": 972, "pitch": 70, "duration": 6, "velocity": 127}, {"time": 978, "pitch": 72, "duration": 6, "velocity": 127}, {"time": 984, "pitch": 70, "duration": 6, "velocity": 127}, {"time": 990, "pitch": 74, "duration": 6, "velocity": 127}, {"time": 996, "pitch": 72, "duration": 6, "velocity": 127}, {"time": 1002, "pitch": 70, "duration": 6, "velocity": 127}, {"time": 1008, "pitch": 69, "duration": 6, "velocity": 127}, {"time": 1014, "pitch": 65, "duration": 6, "velocity": 127}, {"time": 1020, "pitch": 67, "duration": 6, "velocity": 127}, {"time": 1026, "pitch": 69, "duration": 6, "velocity": 127}, {"time": 1032, "pitch": 70, "duration": 6, "velocity": 127}, {"time": 1038, "pitch": 72, "duration": 6, "velocity": 127}, {"time": 1044, "pitch": 70, "duration": 6, "velocity": 127}, {"time": 1050, "pitch": 69, "duration": 6, "velocity": 127}, {"time": 1056, "pitch": 70, "duration": 6, "velocity": 127}, {"time": 1062, "pitch": 75, "duration": 6, "velocity": 127}, {"time": 1068, "pitch": 74, "duration": 6, "velocity": 127}, {"time": 1074, "pitch": 75, "duration": 6, "velocity": 127}, {"time": 1080, "pitch": 69, "duration": 6, "velocity": 127}, {"time": 1086, "pitch": 74, "duration": 6, "velocity": 127}, {"time": 1092, "pitch": 72, "duration": 6, "velocity": 127}, {"time": 1098, "pitch": 74, "duration": 6, "velocity": 127}, {"time": 1104, "pitch": 67, "duration": 6, "velocity": 127}, {"time": 1110, "pitch": 79, "duration": 6, "velocity": 127}, {"time": 1116, "pitch": 78, "duration": 6, "velocity": 127}, {"time": 1122, "pitch": 79, "duration": 6, "velocity": 127}, {"time": 1128, "pitch": 74, "duration": 6, "velocity": 127}, {"time": 1134, "pitch": 79, "duration": 6, "velocity": 127}, {"time": 1140, "pitch": 78, "duration": 6, "velocity": 127}, {"time": 1146, "pitch": 79, "duration": 6, "velocity": 127}, {"time": 1152, "pitch": 72, "duration": 6, "velocity": 127}, {"time": 1158, "pitch": 69, "duration": 6, "velocity": 127}, {"time": 1164, "pitch": 70, "duration": 6, "velocity": 127}, {"time": 1170, "pitch": 72, "duration": 6, "velocity": 127}, {"time": 1176, "pitch": 74, "duration": 6, "velocity": 127}, {"time": 1182, "pitch": 74, "duration": 6, "velocity": 127}, {"time": 1188, "pitch": 72, "duration": 6, "velocity": 127}, {"time": 1194, "pitch": 74, "duration": 6, "velocity": 127}, {"time": 1200, "pitch": 70, "duration": 6, "velocity": 127}, {"time": 1206, "pitch": 72, "duration": 6, "velocity": 127}, {"time": 1212, "pitch": 70, "duration": 6, "velocity": 127}, {"time": 1218, "pitch": 69, "duration": 6, "velocity": 127}, {"time": 1224, "pitch": 70, "duration": 6, "velocity": 127}, {"time": 1230, "pitch": 69, "duration": 6, "velocity": 127}, {"time": 1236, "pitch": 67, "duration": 6, "velocity": 127}, {"time": 1242, "pitch": 69, "duration": 6, "velocity": 127}, {"time": 1248, "pitch": 71, "duration": 6, "velocity": 127}, {"time": 1254, "pitch": 72, "duration": 6, "velocity": 127}, {"time": 1260, "pitch": 71, "duration": 6, "velocity": 127}, {"time": 1266, "pitch": 69, "duration": 6, "velocity": 127}, {"time": 1272, "pitch": 71, "duration": 6, "velocity": 127}, {"time": 1278, "pitch": 67, "duration": 6, "velocity": 127}, {"time": 1284, "pitch": 69, "duration": 6, "velocity": 127}, {"time": 1290, "pitch": 71, "duration": 6, "velocity": 127}, {"time": 1296, "pitch": 72, "duration": 6, "velocity": 127}, {"time": 1302, "pitch": 71, "duration": 6, "velocity": 127}, {"time": 1308, "pitch": 72, "duration": 6, "velocity": 127}, {"time": 1314, "pitch": 74, "duration": 6, "velocity": 127}, {"time": 1320, "pitch": 76, "duration": 6, "velocity": 127}, {"time": 1326, "pitch": 72, "duration": 6, "velocity": 127}, {"time": 1332, "pitch": 74, "duration": 6, "velocity": 127}, {"time": 1338, "pitch": 76, "duration": 6, "velocity": 127}, {"time": 1344, "pitch": 77, "duration": 12, "velocity": 127}, {"time": 1356, "pitch": 72, "duration": 12, "velocity": 127}, {"time": 1368, "pitch": 69, "duration": 12, "velocity": 127}, {"time": 1380, "pitch": 72, "duration": 12, "velocity": 127}, {"time": 1392, "pitch": 77, "duration": 36, "velocity": 127}, {"time": 1428, "pitch": 79, "duration": 6, "velocity": 127}, {"time": 1434, "pitch": 76, "duration": 6, "velocity": 127}, {"time": 1440, "pitch": 77, "duration": 12, "velocity": 127}, {"time": 1452, "pitch": 72, "duration": 12, "velocity": 127}, {"time": 1464, "pitch": 69, "duration": 12, "velocity": 127}, {"time": 1476, "pitch": 72, "duration": 12, "velocity": 127}, {"time": 1488, "pitch": 77, "duration": 36, "velocity": 127}, {"time": 1524, "pitch": 79, "duration": 12, "velocity": 127}, {"time": 1536, "pitch": 81, "duration": 12, "velocity": 127}, {"time": 1548, "pitch": 82, "duration": 12, "velocity": 127}, {"time": 1560, "pitch": 84, "duration": 24, "velocity": 127}, {"time": 1584, "pitch": 79, "duration": 12, "velocity": 127}, {"time": 1596, "pitch": 81, "duration": 12, "velocity": 127}, {"time": 1608, "pitch": 82, "duration": 24, "velocity": 127}, {"time": 1632, "pitch": 81, "duration": 12, "velocity": 127}, {"time": 1644, "pitch": 82, "duration": 12, "velocity": 127}, {"time": 1656, "pitch": 84, "duration": 12, "velocity": 127}, {"time": 1668, "pitch": 82, "duration": 12, "velocity": 127}, {"time": 1680, "pitch": 81, "duration": 24, "velocity": 127}, {"time": 1704, "pitch": 79, "duration": 24, "velocity": 127}, {"time": 1728, "pitch": 84, "duration": 24, "velocity": 127}, {"time": 1752, "pitch": 77, "duration": 24, "velocity": 127}, {"time": 1776, "pitch": 82, "duration": 36, "velocity": 127}, {"time": 1812, "pitch": 79, "duration": 12, "velocity": 127}, {"time": 1824, "pitch": 81, "duration": 18, "velocity": 127}, {"time": 1842, "pitch": 82, "duration": 6, "velocity": 127}, {"time": 1848, "pitch": 79, "duration": 24, "velocity": 127}, {"time": 1872, "pitch": 77, "duration": 12, "velocity": 127}, {"time": 1884, "pitch": 65, "duration": 6, "velocity": 127}, {"time": 1890, "pitch": 67, "duration": 6, "velocity": 127}, {"time": 1896, "pitch": 69, "duration": 6, "velocity": 127}, {"time": 1902, "pitch": 65, "duration": 6, "velocity": 127}, {"time": 1908, "pitch": 67, "duration": 6, "velocity": 127}, {"time": 1914, "pitch": 69, "duration": 6, "velocity": 127}, {"time": 1920, "pitch": 70, "duration": 12, "velocity": 127}, {"time": 1932, "pitch": 72, "duration": 12, "velocity": 127}, {"time": 1944, "pitch": 74, "duration": 12, "velocity": 127}, {"time": 1956, "pitch": 70, "duration": 12, "velocity": 127}, {"time": 1968, "pitch": 77, "duration": 12, "velocity": 127}, {"time": 1980, "pitch": 65, "duration": 12, "velocity": 127}, {"time": 1992, "pitch": 77, "duration": 12, "velocity": 127}, {"time": 2004, "pitch": 75, "duration": 12, "velocity": 127}, {"time": 2016, "pitch": 74, "duration": 12, "velocity": 127}, {"time": 2028, "pitch": 70, "duration": 12, "velocity": 127}, {"time": 2040, "pitch": 72, "duration": 12, "velocity": 127}, {"time": 2052, "pitch": 69, "duration": 12, "velocity": 127}, {"time": 2064, "pitch": 70, "duration": 12, "velocity": 127}, {"time": 2076, "pitch": 65, "duration": 12, "velocity": 127}, {"time": 2088, "pitch": 69, "duration": 12, "velocity": 127}, {"time": 2100, "pitch": 65, "duration": 12, "velocity": 127}, {"time": 2136, "pitch": 69, "duration": 18, "velocity": 127}, {"time": 2154, "pitch": 70, "duration": 3, "velocity": 127}, {"time": 2157, "pitch": 72, "duration": 3, "velocity": 127}, {"time": 2160, "pitch": 70, "duration": 24, "velocity": 127}, {"time": 2184, "pitch": 69, "duration": 24, "velocity": 127}, {"time": 2232, "pitch": 69, "duration": 18, "velocity": 127}, {"time": 2250, "pitch": 70, "duration": 3, "velocity": 127}, {"time": 2253, "pitch": 72, "duration": 3, "velocity": 127}, {"time": 2256, "pitch": 70, "duration": 12, "velocity": 127}, {"time": 2268, "pitch": 65, "duration": 12, "velocity": 127}, {"time": 2280, "pitch": 69, "duration": 12, "velocity": 127}, {"time": 2292, "pitch": 65, "duration": 12, "velocity": 127}, {"time": 2304, "pitch": 77, "duration": 24, "velocity": 127}, {"time": 2328, "pitch": 82, "duration": 24, "velocity": 127}, {"time": 2352, "pitch": 81, "duration": 24, "velocity": 127}, {"time": 2388, "pitch": 79, "duration": 12, "velocity": 127}, {"time": 2400, "pitch": 77, "duration": 12, "velocity": 127}, {"time": 2412, "pitch": 74, "duration": 12, "velocity": 127}, {"time": 2424, "pitch": 75, "duration": 18, "velocity": 127}, {"time": 2442, "pitch": 77, "duration": 6, "velocity": 127}, {"time": 2448, "pitch": 74, "duration": 24, "velocity": 127}, {"time": 2472, "pitch": 72, "duration": 24, "velocity": 127}, {"time": 2496, "pitch": 79, "duration": 12, "velocity": 127}, {"time": 2508, "pitch": 70, "duration": 12, "velocity": 127}, {"time": 2520, "pitch": 77, "duration": 12, "velocity": 127}, {"time": 2532, "pitch": 70, "duration": 12, "velocity": 127}, {"time": 2544, "pitch": 75, "duration": 12, "velocity": 127}, {"time": 2556, "pitch": 74, "duration": 6, "velocity": 127}, {"time": 2562, "pitch": 72, "duration": 6, "velocity": 127}, {"time": 2568, "pitch": 74, "duration": 24, "velocity": 127}, {"time": 2592, "pitch": 79, "duration": 12, "velocity": 127}, {"time": 2604, "pitch": 70, "duration": 12, "velocity": 127}, {"time": 2616, "pitch": 77, "duration": 12, "velocity": 127}, {"time": 2628, "pitch": 70, "duration": 12, "velocity": 127}, {"time": 2640, "pitch": 75, "duration": 12, "velocity": 127}, {"time": 2652, "pitch": 74, "duration": 6, "velocity": 127}, {"time": 2658, "pitch": 72, "duration": 6, "velocity": 127}, {"time": 2664, "pitch": 74, "duration": 24, "velocity": 127}, {"time": 2688, "pitch": 72, "duration": 12, "velocity": 127}, {"time": 2700, "pitch": 75, "duration": 12, "velocity": 127}, {"time": 2712, "pitch": 79, "duration": 12, "velocity": 127}, {"time": 2724, "pitch": 70, "duration": 12, "velocity": 127}, {"time": 2736, "pitch": 69, "duration": 12, "velocity": 127}, {"time": 2748, "pitch": 72, "duration": 12, "velocity": 127}, {"time": 2760, "pitch": 65, "duration": 12, "velocity": 127}, {"time": 2772, "pitch": 69, "duration": 12, "velocity": 127}, {"time": 2784, "pitch": 70, "duration": 12, "velocity": 127}, {"time": 2796, "pitch": 74, "duration": 12, "velocity": 127}, {"time": 2808, "pitch": 72, "duration": 12, "velocity": 127}, {"time": 2820, "pitch": 81, "duration": 12, "velocity": 127}, {"time": 2832, "pitch": 82, "duration": 12, "velocity": 127}, {"time": 2844, "pitch": 70, "duration": 6, "velocity": 127}, {"time": 2850, "pitch": 69, "duration": 6, "velocity": 127}, {"time": 2856, "pitch": 70, "duration": 12, "velocity": 127}, {"time": 2868, "pitch": 72, "duration": 12, "velocity": 127}, {"time": 2880, "pitch": 74, "duration": 6, "velocity": 127}, {"time": 2886, "pitch": 77, "duration": 6, "velocity": 127}, {"time": 2892, "pitch": 75, "duration": 6, "velocity": 127}, {"time": 2898, "pitch": 77, "duration": 6, "velocity": 127}, {"time": 2904, "pitch": 74, "duration": 6, "velocity": 127}, {"time": 2910, "pitch": 77, "duration": 6, "velocity": 127}, {"time": 2916, "pitch": 75, "duration": 6, "velocity": 127}, {"time": 2922, "pitch": 74, "duration": 6, "velocity": 127}, {"time": 2928, "pitch": 75, "duration": 6, "velocity": 127}, {"time": 2934, "pitch": 79, "duration": 6, "velocity": 127}, {"time": 2940, "pitch": 77, "duration": 6, "velocity": 127}, {"time": 2946, "pitch": 79, "duration": 6, "velocity": 127}, {"time": 2952, "pitch": 75, "duration": 6, "velocity": 127}, {"time": 2958, "pitch": 79, "duration": 6, "velocity": 127}, {"time": 2964, "pitch": 77, "duration": 6, "velocity": 127}, {"time": 2970, "pitch": 75, "duration": 6, "velocity": 127}, {"time": 2976, "pitch": 74, "duration": 6, "velocity": 127}, {"time": 2982, "pitch": 77, "duration": 6, "velocity": 127}, {"time": 2988, "pitch": 75, "duration": 6, "velocity": 127}, {"time": 2994, "pitch": 77, "duration": 6, "velocity": 127}, {"time": 3000, "pitch": 74, "duration": 6, "velocity": 127}, {"time": 3006, "pitch": 77, "duration": 6, "velocity": 127}, {"time": 3012, "pitch": 75, "duration": 6, "velocity": 127}, {"time": 3018, "pitch": 74, "duration": 6, "velocity": 127}, {"time": 3024, "pitch": 75, "duration": 6, "velocity": 127}, {"time": 3030, "pitch": 79, "duration": 6, "velocity": 127}, {"time": 3036, "pitch": 77, "duration": 6, "velocity": 127}, {"time": 3042, "pitch": 79, "duration": 6, "velocity": 127}, {"time": 3048, "pitch": 75, "duration": 6, "velocity": 127}, {"time": 3054, "pitch": 79, "duration": 6, "velocity": 127}, {"time": 3060, "pitch": 77, "duration": 6, "velocity": 127}, {"time": 3066, "pitch": 79, "duration": 6, "velocity": 127}, {"time": 3072, "pitch": 80, "duration": 6, "velocity": 127}, {"time": 3078, "pitch": 72, "duration": 6, "velocity": 127}, {"time": 3084, "pitch": 72, "duration": 6, "velocity": 127}, {"time": 3090, "pitch": 72, "duration": 6, "velocity": 127}, {"time": 3096, "pitch": 80, "duration": 6, "velocity": 127}, {"time": 3102, "pitch": 72, "duration": 6, "velocity": 127}, {"time": 3108, "pitch": 72, "duration": 6, "velocity": 127}, {"time": 3114, "pitch": 72, "duration": 6, "velocity": 127}, {"time": 3120, "pitch": 74, "duration": 6, "velocity": 127}, {"time": 3126, "pitch": 77, "duration": 6, "velocity": 127}, {"time": 3132, "pitch": 75, "duration": 6, "velocity": 127}, {"time": 3138, "pitch": 77, "duration": 6, "velocity": 127}, {"time": 3144, "pitch": 74, "duration": 6, "velocity": 127}, {"time": 3150, "pitch": 77, "duration": 6, "velocity": 127}, {"time": 3156, "pitch": 75, "duration": 6, "velocity": 127}, {"time": 3162, "pitch": 77, "duration": 6, "velocity": 127}, {"time": 3168, "pitch": 79, "duration": 6, "velocity": 127}, {"time": 3174, "pitch": 70, "duration": 6, "velocity": 127}, {"time": 3180, "pitch": 70, "duration": 6, "velocity": 127}, {"time": 3186, "pitch": 70, "duration": 6, "velocity": 127}, {"time": 3192, "pitch": 79, "duration": 6, "velocity": 127}, {"time": 3198, "pitch": 70, "duration": 6, "velocity": 127}, {"time": 3204, "pitch": 70, "duration": 6, "velocity": 127}, {"time": 3210, "pitch": 70, "duration": 6, "velocity": 127}, {"time": 3216, "pitch": 72, "duration": 6, "velocity": 127}, {"time": 3222, "pitch": 75, "duration": 6, "velocity": 127}, {"time": 3228, "pitch": 74, "duration": 6, "velocity": 127}, {"time": 3234, "pitch": 75, "duration": 6, "velocity": 127}, {"time": 3240, "pitch": 72, "duration": 6, "velocity": 127}, {"time": 3246, "pitch": 75, "duration": 6, "velocity": 127}, {"time": 3252, "pitch": 74, "duration": 6, "velocity": 127}, {"time": 3258, "pitch": 75, "duration": 6, "velocity": 127}, {"time": 3264, "pitch": 77, "duration": 6, "velocity": 127}, {"time": 3270, "pitch": 74, "duration": 6, "velocity": 127}, {"time": 3276, "pitch": 74, "duration": 6, "velocity": 127}, {"time": 3282, "pitch": 74, "duration": 6, "velocity": 127}, {"time": 3288, "pitch": 77, "duration": 6, "velocity": 127}, {"time": 3294, "pitch": 74, "duration": 6, "velocity": 127}, {"time": 3300, "pitch": 74, "duration": 6, "velocity": 127}, {"time": 3306, "pitch": 74, "duration": 6, "velocity": 127}, {"time": 3312, "pitch": 71, "duration": 6, "velocity": 127}, {"time": 3318, "pitch": 72, "duration": 6, "velocity": 127}, {"time": 3324, "pitch": 74, "duration": 6, "velocity": 127}, {"time": 3330, "pitch": 75, "duration": 6, "velocity": 127}, {"time": 3336, "pitch": 77, "duration": 6, "velocity": 127}, {"time": 3342, "pitch": 79, "duration": 6, "velocity": 127}, {"time": 3348, "pitch": 80, "duration": 12, "velocity": 127}, {"time": 3372, "pitch": 79, "duration": 6, "velocity": 127}, {"time": 3378, "pitch": 77, "duration": 6, "velocity": 127}, {"time": 3384, "pitch": 75, "duration": 12, "velocity": 127}, {"time": 3396, "pitch": 74, "duration": 12, "velocity": 127}, {"time": 3408, "pitch": 72, "duration": 6, "velocity": 127}, {"time": 3414, "pitch": 74, "duration": 6, "velocity": 127}, {"time": 3420, "pitch": 75, "duration": 6, "velocity": 127}, {"time": 3426, "pitch": 77, "duration": 6, "velocity": 127}, {"time": 3432, "pitch": 79, "duration": 6, "velocity": 127}, {"time": 3438, "pitch": 75, "duration": 6, "velocity": 127}, {"time": 3444, "pitch": 77, "duration": 6, "velocity": 127}, {"time": 3450, "pitch": 79, "duration": 6, "velocity": 127}, {"time": 3456, "pitch": 72, "duration": 24, "velocity": 127}, {"time": 3504, "pitch": 79, "duration": 6, "velocity": 127}, {"time": 3510, "pitch": 77, "duration": 6, "velocity": 127}, {"time": 3516, "pitch": 75, "duration": 12, "velocity": 127}, {"time": 3552, "pitch": 75, "duration": 6, "velocity": 127}, {"time": 3558, "pitch": 74, "duration": 6, "velocity": 127}, {"time": 3564, "pitch": 72, "duration": 12, "velocity": 127}, {"time": 3600, "pitch": 79, "duration": 6, "velocity": 127}, {"time": 3606, "pitch": 77, "duration": 6, "velocity": 127}, {"time": 3612, "pitch": 75, "duration": 12, "velocity": 127}, {"time": 3624, "pitch": 75, "duration": 6, "velocity": 127}, {"time": 3630, "pitch": 74, "duration": 6, "velocity": 127}, {"time": 3636, "pitch": 72, "duration": 12, "velocity": 127}, {"time": 3648, "pitch": 72, "duration": 6, "velocity": 127}, {"time": 3654, "pitch": 70, "duration": 6, "velocity": 127}, {"time": 3660, "pitch": 69, "duration": 12, "velocity": 127}, {"time": 3672, "pitch": 69, "duration": 6, "velocity": 127}, {"time": 3678, "pitch": 67, "duration": 6, "velocity": 127}, {"time": 3684, "pitch": 65, "duration": 12, "velocity": 127}, {"time": 3696, "pitch": 72, "duration": 6, "velocity": 127}, {"time": 3702, "pitch": 70, "duration": 6, "velocity": 127}, {"time": 3708, "pitch": 69, "duration": 12, "velocity": 127}, {"time": 3720, "pitch": 75, "duration": 6, "velocity": 127}, {"time": 3726, "pitch": 74, "duration": 6, "velocity": 127}, {"time": 3732, "pitch": 72, "duration": 12, "velocity": 127}, {"time": 3744, "pitch": 74, "duration": 6, "velocity": 127}, {"time": 3750, "pitch": 72, "duration": 6, "velocity": 127}, {"time": 3756, "pitch": 74, "duration": 6, "velocity": 127}, {"time": 3762, "pitch": 75, "duration": 6, "velocity": 127}, {"time": 3768, "pitch": 74, "duration": 6, "velocity": 127}, {"time": 3774, "pitch": 77, "duration": 6, "velocity": 127}, {"time": 3780, "pitch": 75, "duration": 6, "velocity": 127}, {"time": 3786, "pitch": 74, "duration": 6, "velocity": 127}, {"time": 3792, "pitch": 72, "duration": 6, "velocity": 127}, {"time": 3798, "pitch": 70, "duration": 6, "velocity": 127}, {"time": 3804, "pitch": 69, "duration": 6, "velocity": 127}, {"time": 3810, "pitch": 67, "duration": 6, "velocity": 127}, {"time": 3816, "pitch": 65, "duration": 24, "velocity": 127}], "annotations": [{"time": 0, "annotation": {"number": 7, "value": 100}, "group": "control_change"}, {"time": 0, "annotation": {"number": 10, "value": 64}, "group": "control_change"}, {"time": 0, "annotation": {"number": 91, "value": 0}, "group": "control_change"}, {"time": 0, "annotation": {"number": 93, "value": 0}, "group": "control_change"}]}]}