{"metadata": {"schema_version": "0.2"}, "resolution": 24, "tracks": [{"program": 74, "is_drum": false, "notes": [{"time": 6, "pitch": 74, "duration": 3, "velocity": 127}, {"time": 9, "pitch": 75, "duration": 3, "velocity": 127}, {"time": 12, "pitch": 77, "duration": 6, "velocity": 127}, {"time": 18, "pitch": 77, "duration": 6, "velocity": 127}, {"time": 24, "pitch": 72, "duration": 6, "velocity": 127}, {"time": 30, "pitch": 74, "duration": 3, "velocity": 127}, {"time": 33, "pitch": 75, "duration": 3, "velocity": 127}, {"time": 36, "pitch": 77, "duration": 6, "velocity": 127}, {"time": 42, "pitch": 77, "duration": 6, "velocity": 127}, {"time": 48, "pitch": 70, "duration": 6, "velocity": 127}, {"time": 54, "pitch": 79, "duration": 3, "velocity": 127}, {"time": 57, "pitch": 77, "duration": 3, "velocity": 127}, {"time": 60, "pitch": 75, "duration": 3, "velocity": 127}, {"time": 63, "pitch": 74, "duration": 3, "velocity": 127}, {"time": 66, "pitch": 72, "duration": 3, "velocity": 127}, {"time": 69, "pitch": 70, "duration": 3, "velocity": 127}, {"time": 72, "pitch": 69, "duration": 6, "velocity": 127}, {"time": 78, "pitch": 84, "duration": 3, "velocity": 127}, {"time": 81, "pitch": 82, "duration": 3, "velocity": 127}, {"time": 84, "pitch": 81, "duration": 3, "velocity": 127}, {"time": 87, "pitch": 79, "duration": 3, "velocity": 127}, {"time": 90, "pitch": 77, "duration": 3, "velocity": 127}, {"time": 93, "pitch": 75, "duration": 3, "velocity": 127}, {"time": 96, "pitch": 74, "duration": 3, "velocity": 127}, {"time": 99, "pitch": 72, "duration": 3, "velocity": 127}, {"time": 102, "pitch": 70, "duration": 6, "velocity": 127}, {"time": 114, "pitch": 70, "duration": 6, "velocity": 127}, {"time": 120, "pitch": 69, "duration": 12, "velocity": 127}, {"time": 138, "pitch": 69, "duration": 6, "velocity": 127}, {"time": 144, "pitch": 67, "duration": 12, "velocity": 127}, {"time": 162, "pitch": 65, "duration": 6, "velocity": 127}, {"time": 168, "pitch": 65, "duration": 12, "velocity": 127}, {"time": 186, "pitch": 69, "duration": 6, "velocity": 127}, {"time": 192, "pitch": 70, "duration": 6, "velocity": 127}, {"time": 198, "pitch": 74, "duration": 3, "velocity": 127}, {"time": 201, "pitch": 79, "duration": 3, "velocity": 127}, {"time": 204, "pitch": 79, "duration": 3, "velocity": 127}, {"time": 207, "pitch": 77, "duration": 3, "velocity": 127}, {"time": 210, "pitch": 77, "duration": 3, "velocity": 127}, {"time": 213, "pitch": 76, "duration": 3, "velocity": 127}, {"time": 216, "pitch": 76, "duration": 3, "velocity": 127}, {"time": 219, "pitch": 74, "duration": 3, "velocity": 127}, {"time": 222, "pitch": 72, "duration": 6, "velocity": 127}, {"time": 234, "pitch": 73, "duration": 6, "velocity": 127}, {"time": 240, "pitch": 74, "duration": 6, "velocity": 127}, {"time": 246, "pitch": 77, "duration": 3, "velocity": 127}, {"time": 249, "pitch": 82, "duration": 3, "velocity": 127}, {"time": 252, "pitch": 82, "duration": 3, "velocity": 127}, {"time": 255, "pitch": 81, "duration": 3, "velocity": 127}, {"time": 258, "pitch": 81, "duration": 3, "velocity": 127}, {"time": 261, "pitch": 79, "duration": 3, "velocity": 127}, {"time": 264, "pitch": 79, "duration": 3, "velocity": 127}, {"time": 267, "pitch": 77, "duration": 3, "velocity": 127}, {"time": 270, "pitch": 76, "duration": 6, "velocity": 127}, {"time": 282, "pitch": 76, "duration": 6, "velocity": 127}, {"time": 288, "pitch": 77, "duration": 6, "velocity": 127}, {"time": 294, "pitch": 81, "duration": 3, "velocity": 127}, {"time": 297, "pitch": 82, "duration": 3, "velocity": 127}, {"time": 300, "pitch": 84, "duration": 6, "velocity": 127}, {"time": 306, "pitch": 84, "duration": 6, "velocity": 127}, {"time": 312, "pitch": 79, "duration": 6, "velocity": 127}, {"time": 318, "pitch": 81, "duration": 3, "velocity": 127}, {"time": 321, "pitch": 82, "duration": 3, "velocity": 127}, {"time": 324, "pitch": 84, "duration": 6, "velocity": 127}, {"time": 330, "pitch": 84, "duration": 6, "velocity": 127}, {"time": 336, "pitch": 77, "duration": 6, "velocity": 127}, {"time": 342, "pitch": 86, "duration": 3, "velocity": 127}, {"time": 345, "pitch": 84, "duration": 3, "velocity": 127}, {"time": 348, "pitch": 82, "duration": 3, "velocity": 127}, {"time": 351, "pitch": 81, "duration": 3, "velocity": 127}, {"time": 354, "pitch": 79, "duration": 3, "velocity": 127}, {"time": 357, "pitch": 77, "duration": 3, "velocity": 127}, {"time": 360, "pitch": 76, "duration": 6, "velocity": 127}, {"time": 366, "pitch": 79, "duration": 3, "velocity": 127}, {"time": 369, "pitch": 77, "duration": 3, "velocity": 127}, {"time": 372, "pitch": 76, "duration": 3, "velocity": 127}, {"time": 375, "pitch": 74, "duration": 3, "velocity": 127}, {"time": 378, "pitch": 72, "duration": 3, "velocity": 127}, {"time": 381, "pitch": 70, "duration": 3, "velocity": 127}, {"time": 384, "pitch": 69, "duration": 6, "velocity": 127}, {"time": 390, "pitch": 74, "duration": 6, "velocity": 127}, {"time": 396, "pitch": 70, "duration": 6, "velocity": 127}, {"time": 402, "pitch": 72, "duration": 6, "velocity": 127}, {"time": 408, "pitch": 65, "duration": 12, "velocity": 127}, {"time": 426, "pitch": 81, "duration": 6, "velocity": 127}, {"time": 432, "pitch": 82, "duration": 12, "velocity": 127}, {"time": 450, "pitch": 74, "duration": 6, "velocity": 127}, {"time": 456, "pitch": 75, "duration": 3, "velocity": 127}, {"time": 459, "pitch": 70, "duration": 3, "velocity": 127}, {"time": 462, "pitch": 75, "duration": 3, "velocity": 127}, {"time": 465, "pitch": 80, "duration": 3, "velocity": 127}, {"time": 468, "pitch": 77, "duration": 9, "velocity": 127}, {"time": 477, "pitch": 75, "duration": 3, "velocity": 127}, {"time": 480, "pitch": 75, "duration": 6, "velocity": 127}, {"time": 486, "pitch": 79, "duration": 3, "velocity": 127}, {"time": 489, "pitch": 75, "duration": 3, "velocity": 127}, {"time": 492, "pitch": 75, "duration": 3, "velocity": 127}, {"time": 495, "pitch": 79, "duration": 3, "velocity": 127}, {"time": 498, "pitch": 79, "duration": 3, "velocity": 127}, {"time": 501, "pitch": 75, "duration": 3, "velocity": 127}, {"time": 504, "pitch": 75, "duration": 3, "velocity": 127}, {"time": 507, "pitch": 74, "duration": 3, "velocity": 127}, {"time": 510, "pitch": 77, "duration": 3, "velocity": 127}, {"time": 513, "pitch": 74, "duration": 3, "velocity": 127}, {"time": 516, "pitch": 74, "duration": 3, "velocity": 127}, {"time": 519, "pitch": 77, "duration": 3, "velocity": 127}, {"time": 522, "pitch": 77, "duration": 3, "velocity": 127}, {"time": 525, "pitch": 74, "duration": 3, "velocity": 127}, {"time": 528, "pitch": 74, "duration": 3, "velocity": 127}, {"time": 531, "pitch": 72, "duration": 3, "velocity": 127}, {"time": 534, "pitch": 75, "duration": 3, "velocity": 127}, {"time": 537, "pitch": 72, "duration": 3, "velocity": 127}, {"time": 540, "pitch": 72, "duration": 3, "velocity": 127}, {"time": 543, "pitch": 75, "duration": 3, "velocity": 127}, {"time": 546, "pitch": 75, "duration": 3, "velocity": 127}, {"time": 549, "pitch": 72, "duration": 3, "velocity": 127}, {"time": 552, "pitch": 72, "duration": 3, "velocity": 127}, {"time": 555, "pitch": 70, "duration": 3, "velocity": 127}, {"time": 558, "pitch": 77, "duration": 3, "velocity": 127}, {"time": 561, "pitch": 75, "duration": 3, "velocity": 127}, {"time": 564, "pitch": 75, "duration": 3, "velocity": 127}, {"time": 567, "pitch": 74, "duration": 3, "velocity": 127}, {"time": 570, "pitch": 72, "duration": 3, "velocity": 127}, {"time": 573, "pitch": 70, "duration": 3, "velocity": 127}, {"time": 576, "pitch": 69, "duration": 12, "velocity": 127}, {"time": 603, "pitch": 77, "duration": 3, "velocity": 127}, {"time": 606, "pitch": 77, "duration": 3, "velocity": 127}, {"time": 609, "pitch": 77, "duration": 3, "velocity": 127}, {"time": 612, "pitch": 77, "duration": 3, "velocity": 127}, {"time": 615, "pitch": 74, "duration": 1, "velocity": 127}, {"time": 616, "pitch": 75, "duration": 2, "velocity": 127}, {"time": 618, "pitch": 77, "duration": 3, "velocity": 127}, {"time": 621, "pitch": 69, "duration": 3, "velocity": 127}, {"time": 624, "pitch": 70, "duration": 12, "velocity": 127}, {"time": 642, "pitch": 74, "duration": 6, "velocity": 127}, {"time": 648, "pitch": 72, "duration": 3, "velocity": 127}, {"time": 651, "pitch": 84, "duration": 3, "velocity": 127}, {"time": 654, "pitch": 84, "duration": 3, "velocity": 127}, {"time": 657, "pitch": 84, "duration": 3, "velocity": 127}, {"time": 660, "pitch": 84, "duration": 3, "velocity": 127}, {"time": 663, "pitch": 81, "duration": 1, "velocity": 127}, {"time": 664, "pitch": 82, "duration": 2, "velocity": 127}, {"time": 666, "pitch": 84, "duration": 3, "velocity": 127}, {"time": 669, "pitch": 75, "duration": 3, "velocity": 127}, {"time": 672, "pitch": 81, "duration": 3, "velocity": 127}, {"time": 675, "pitch": 77, "duration": 3, "velocity": 127}, {"time": 678, "pitch": 82, "duration": 3, "velocity": 127}, {"time": 681, "pitch": 84, "duration": 3, "velocity": 127}, {"time": 684, "pitch": 81, "duration": 9, "velocity": 127}, {"time": 693, "pitch": 82, "duration": 3, "velocity": 127}, {"time": 696, "pitch": 82, "duration": 6, "velocity": 127}, {"time": 702, "pitch": 70, "duration": 6, "velocity": 127}, {"time": 708, "pitch": 70, "duration": 18, "velocity": 127}, {"time": 726, "pitch": 79, "duration": 3, "velocity": 127}, {"time": 729, "pitch": 77, "duration": 3, "velocity": 127}, {"time": 732, "pitch": 76, "duration": 3, "velocity": 127}, {"time": 735, "pitch": 74, "duration": 3, "velocity": 127}, {"time": 738, "pitch": 74, "duration": 3, "velocity": 127}, {"time": 741, "pitch": 72, "duration": 3, "velocity": 127}, {"time": 744, "pitch": 72, "duration": 6, "velocity": 127}, {"time": 750, "pitch": 72, "duration": 9, "velocity": 127}, {"time": 759, "pitch": 70, "duration": 3, "velocity": 127}, {"time": 762, "pitch": 70, "duration": 3, "velocity": 127}, {"time": 765, "pitch": 69, "duration": 3, "velocity": 127}, {"time": 768, "pitch": 69, "duration": 12, "velocity": 127}, {"time": 795, "pitch": 82, "duration": 3, "velocity": 127}, {"time": 798, "pitch": 82, "duration": 3, "velocity": 127}, {"time": 801, "pitch": 82, "duration": 3, "velocity": 127}, {"time": 804, "pitch": 82, "duration": 3, "velocity": 127}, {"time": 807, "pitch": 79, "duration": 1, "velocity": 127}, {"time": 808, "pitch": 81, "duration": 2, "velocity": 127}, {"time": 810, "pitch": 82, "duration": 3, "velocity": 127}, {"time": 813, "pitch": 74, "duration": 3, "velocity": 127}, {"time": 816, "pitch": 75, "duration": 6, "velocity": 127}, {"time": 822, "pitch": 72, "duration": 3, "velocity": 127}, {"time": 825, "pitch": 74, "duration": 3, "velocity": 127}, {"time": 828, "pitch": 75, "duration": 12, "velocity": 127}, {"time": 840, "pitch": 75, "duration": 6, "velocity": 127}, {"time": 846, "pitch": 74, "duration": 3, "velocity": 127}, {"time": 849, "pitch": 75, "duration": 3, "velocity": 127}, {"time": 852, "pitch": 72, "duration": 9, "velocity": 127}, {"time": 861, "pitch": 70, "duration": 3, "velocity": 127}, {"time": 864, "pitch": 70, "duration": 3, "velocity": 127}, {"time": 867, "pitch": 74, "duration": 3, "velocity": 127}, {"time": 870, "pitch": 77, "duration": 3, "velocity": 127}, {"time": 873, "pitch": 82, "duration": 3, "velocity": 127}, {"time": 876, "pitch": 81, "duration": 3, "velocity": 127}, {"time": 879, "pitch": 82, "duration": 1, "velocity": 127}, {"time": 880, "pitch": 84, "duration": 2, "velocity": 127}, {"time": 882, "pitch": 77, "duration": 3, "velocity": 127}, {"time": 885, "pitch": 81, "duration": 3, "velocity": 127}, {"time": 888, "pitch": 82, "duration": 12, "velocity": 127}], "annotations": [{"time": 0, "annotation": {"number": 7, "value": 100}, "group": "control_change"}, {"time": 0, "annotation": {"number": 10, "value": 64}, "group": "control_change"}, {"time": 0, "annotation": {"number": 91, "value": 0}, "group": "control_change"}, {"time": 0, "annotation": {"number": 93, "value": 0}, "group": "control_change"}]}]}