{"metadata": {"schema_version": "0.2"}, "resolution": 24, "tracks": [{"program": 74, "is_drum": false, "notes": [{"time": 0, "pitch": 77, "duration": 3, "velocity": 127}, {"time": 3, "pitch": 79, "duration": 3, "velocity": 127}, {"time": 6, "pitch": 79, "duration": 12, "velocity": 127}, {"time": 18, "pitch": 81, "duration": 6, "velocity": 127}, {"time": 36, "pitch": 82, "duration": 6, "velocity": 127}, {"time": 42, "pitch": 79, "duration": 12, "velocity": 127}, {"time": 54, "pitch": 76, "duration": 3, "velocity": 127}, {"time": 57, "pitch": 77, "duration": 1, "velocity": 127}, {"time": 58, "pitch": 79, "duration": 2, "velocity": 127}, {"time": 60, "pitch": 77, "duration": 1, "velocity": 127}, {"time": 62, "pitch": 76, "duration": 1, "velocity": 127}, {"time": 63, "pitch": 74, "duration": 1, "velocity": 127}, {"time": 64, "pitch": 72, "duration": 2, "velocity": 127}, {"time": 66, "pitch": 79, "duration": 3, "velocity": 127}, {"time": 69, "pitch": 72, "duration": 3, "velocity": 127}, {"time": 72, "pitch": 69, "duration": 6, "velocity": 127}, {"time": 78, "pitch": 77, "duration": 6, "velocity": 127}, {"time": 84, "pitch": 69, "duration": 6, "velocity": 127}, {"time": 90, "pitch": 76, "duration": 6, "velocity": 127}, {"time": 96, "pitch": 79, "duration": 6, "velocity": 127}, {"time": 102, "pitch": 76, "duration": 6, "velocity": 127}, {"time": 108, "pitch": 77, "duration": 6, "velocity": 127}, {"time": 114, "pitch": 81, "duration": 6, "velocity": 127}, {"time": 120, "pitch": 79, "duration": 6, "velocity": 127}, {"time": 126, "pitch": 77, "duration": 3, "velocity": 127}, {"time": 129, "pitch": 69, "duration": 3, "velocity": 127}, {"time": 132, "pitch": 70, "duration": 3, "velocity": 127}, {"time": 135, "pitch": 67, "duration": 3, "velocity": 127}, {"time": 138, "pitch": 69, "duration": 3, "velocity": 127}, {"time": 141, "pitch": 72, "duration": 3, "velocity": 127}, {"time": 144, "pitch": 77, "duration": 3, "velocity": 127}, {"time": 147, "pitch": 79, "duration": 3, "velocity": 127}, {"time": 150, "pitch": 79, "duration": 12, "velocity": 127}, {"time": 162, "pitch": 81, "duration": 6, "velocity": 127}, {"time": 180, "pitch": 82, "duration": 6, "velocity": 127}, {"time": 186, "pitch": 79, "duration": 12, "velocity": 127}, {"time": 198, "pitch": 76, "duration": 3, "velocity": 127}, {"time": 201, "pitch": 77, "duration": 1, "velocity": 127}, {"time": 202, "pitch": 79, "duration": 2, "velocity": 127}, {"time": 204, "pitch": 77, "duration": 1, "velocity": 127}, {"time": 206, "pitch": 76, "duration": 1, "velocity": 127}, {"time": 207, "pitch": 74, "duration": 1, "velocity": 127}, {"time": 208, "pitch": 72, "duration": 2, "velocity": 127}, {"time": 210, "pitch": 79, "duration": 3, "velocity": 127}, {"time": 213, "pitch": 72, "duration": 3, "velocity": 127}, {"time": 216, "pitch": 76, "duration": 2, "velocity": 127}, {"time": 218, "pitch": 77, "duration": 2, "velocity": 127}, {"time": 220, "pitch": 79, "duration": 2, "velocity": 127}, {"time": 222, "pitch": 77, "duration": 2, "velocity": 127}, {"time": 224, "pitch": 79, "duration": 2, "velocity": 127}, {"time": 226, "pitch": 81, "duration": 2, "velocity": 127}, {"time": 228, "pitch": 79, "duration": 2, "velocity": 127}, {"time": 230, "pitch": 81, "duration": 2, "velocity": 127}, {"time": 232, "pitch": 82, "duration": 2, "velocity": 127}, {"time": 234, "pitch": 81, "duration": 2, "velocity": 127}, {"time": 236, "pitch": 82, "duration": 2, "velocity": 127}, {"time": 238, "pitch": 79, "duration": 2, "velocity": 127}, {"time": 240, "pitch": 81, "duration": 2, "velocity": 127}, {"time": 242, "pitch": 82, "duration": 2, "velocity": 127}, {"time": 244, "pitch": 79, "duration": 2, "velocity": 127}, {"time": 246, "pitch": 81, "duration": 2, "velocity": 127}, {"time": 248, "pitch": 79, "duration": 2, "velocity": 127}, {"time": 250, "pitch": 81, "duration": 2, "velocity": 127}, {"time": 252, "pitch": 72, "duration": 6, "velocity": 127}, {"time": 258, "pitch": 74, "duration": 6, "velocity": 127}, {"time": 264, "pitch": 76, "duration": 6, "velocity": 127}, {"time": 270, "pitch": 77, "duration": 6, "velocity": 127}, {"time": 288, "pitch": 76, "duration": 2, "velocity": 127}, {"time": 290, "pitch": 77, "duration": 2, "velocity": 127}, {"time": 292, "pitch": 79, "duration": 2, "velocity": 127}, {"time": 294, "pitch": 77, "duration": 2, "velocity": 127}, {"time": 296, "pitch": 79, "duration": 2, "velocity": 127}, {"time": 298, "pitch": 81, "duration": 2, "velocity": 127}, {"time": 300, "pitch": 74, "duration": 2, "velocity": 127}, {"time": 302, "pitch": 76, "duration": 2, "velocity": 127}, {"time": 304, "pitch": 77, "duration": 2, "velocity": 127}, {"time": 306, "pitch": 76, "duration": 2, "velocity": 127}, {"time": 308, "pitch": 77, "duration": 2, "velocity": 127}, {"time": 310, "pitch": 74, "duration": 2, "velocity": 127}, {"time": 312, "pitch": 76, "duration": 2, "velocity": 127}, {"time": 314, "pitch": 77, "duration": 2, "velocity": 127}, {"time": 316, "pitch": 74, "duration": 2, "velocity": 127}, {"time": 318, "pitch": 76, "duration": 2, "velocity": 127}, {"time": 320, "pitch": 74, "duration": 2, "velocity": 127}, {"time": 322, "pitch": 76, "duration": 2, "velocity": 127}, {"time": 324, "pitch": 77, "duration": 6, "velocity": 127}, {"time": 342, "pitch": 76, "duration": 6, "velocity": 127}, {"time": 360, "pitch": 81, "duration": 3, "velocity": 127}, {"time": 363, "pitch": 79, "duration": 3, "velocity": 127}, {"time": 366, "pitch": 77, "duration": 3, "velocity": 127}, {"time": 369, "pitch": 76, "duration": 3, "velocity": 127}, {"time": 372, "pitch": 74, "duration": 3, "velocity": 127}, {"time": 375, "pitch": 72, "duration": 3, "velocity": 127}, {"time": 378, "pitch": 79, "duration": 3, "velocity": 127}, {"time": 381, "pitch": 77, "duration": 3, "velocity": 127}, {"time": 384, "pitch": 76, "duration": 3, "velocity": 127}, {"time": 387, "pitch": 74, "duration": 3, "velocity": 127}, {"time": 390, "pitch": 72, "duration": 3, "velocity": 127}, {"time": 393, "pitch": 71, "duration": 3, "velocity": 127}, {"time": 396, "pitch": 77, "duration": 3, "velocity": 127}, {"time": 399, "pitch": 76, "duration": 3, "velocity": 127}, {"time": 402, "pitch": 74, "duration": 3, "velocity": 127}, {"time": 405, "pitch": 72, "duration": 3, "velocity": 127}, {"time": 408, "pitch": 77, "duration": 3, "velocity": 127}, {"time": 411, "pitch": 76, "duration": 3, "velocity": 127}, {"time": 414, "pitch": 77, "duration": 9, "velocity": 127}, {"time": 423, "pitch": 74, "duration": 3, "velocity": 127}, {"time": 426, "pitch": 76, "duration": 6, "velocity": 127}, {"time": 432, "pitch": 76, "duration": 3, "velocity": 127}, {"time": 435, "pitch": 77, "duration": 3, "velocity": 127}, {"time": 438, "pitch": 74, "duration": 9, "velocity": 127}, {"time": 447, "pitch": 72, "duration": 3, "velocity": 127}, {"time": 450, "pitch": 72, "duration": 3, "velocity": 127}, {"time": 453, "pitch": 79, "duration": 3, "velocity": 127}, {"time": 456, "pitch": 76, "duration": 3, "velocity": 127}, {"time": 459, "pitch": 79, "duration": 3, "velocity": 127}, {"time": 462, "pitch": 76, "duration": 3, "velocity": 127}, {"time": 465, "pitch": 79, "duration": 3, "velocity": 127}, {"time": 468, "pitch": 84, "duration": 3, "velocity": 127}, {"time": 471, "pitch": 83, "duration": 1, "velocity": 127}, {"time": 472, "pitch": 81, "duration": 2, "velocity": 127}, {"time": 474, "pitch": 79, "duration": 1, "velocity": 127}, {"time": 476, "pitch": 77, "duration": 1, "velocity": 127}, {"time": 477, "pitch": 76, "duration": 1, "velocity": 127}, {"time": 478, "pitch": 74, "duration": 2, "velocity": 127}, {"time": 480, "pitch": 79, "duration": 1, "velocity": 127}, {"time": 482, "pitch": 77, "duration": 1, "velocity": 127}, {"time": 483, "pitch": 76, "duration": 1, "velocity": 127}, {"time": 484, "pitch": 74, "duration": 2, "velocity": 127}, {"time": 486, "pitch": 76, "duration": 3, "velocity": 127}, {"time": 489, "pitch": 79, "duration": 3, "velocity": 127}, {"time": 492, "pitch": 76, "duration": 3, "velocity": 127}, {"time": 495, "pitch": 79, "duration": 3, "velocity": 127}, {"time": 498, "pitch": 76, "duration": 3, "velocity": 127}, {"time": 501, "pitch": 79, "duration": 3, "velocity": 127}, {"time": 504, "pitch": 84, "duration": 3, "velocity": 127}, {"time": 507, "pitch": 72, "duration": 3, "velocity": 127}, {"time": 510, "pitch": 71, "duration": 9, "velocity": 127}, {"time": 519, "pitch": 72, "duration": 3, "velocity": 127}, {"time": 522, "pitch": 72, "duration": 18, "velocity": 127}, {"time": 540, "pitch": 72, "duration": 3, "velocity": 127}, {"time": 543, "pitch": 74, "duration": 3, "velocity": 127}, {"time": 546, "pitch": 74, "duration": 12, "velocity": 127}, {"time": 558, "pitch": 76, "duration": 6, "velocity": 127}, {"time": 576, "pitch": 74, "duration": 3, "velocity": 127}, {"time": 579, "pitch": 76, "duration": 3, "velocity": 127}, {"time": 582, "pitch": 76, "duration": 12, "velocity": 127}, {"time": 594, "pitch": 77, "duration": 3, "velocity": 127}, {"time": 597, "pitch": 79, "duration": 1, "velocity": 127}, {"time": 598, "pitch": 81, "duration": 2, "velocity": 127}, {"time": 600, "pitch": 79, "duration": 1, "velocity": 127}, {"time": 602, "pitch": 77, "duration": 1, "velocity": 127}, {"time": 603, "pitch": 76, "duration": 1, "velocity": 127}, {"time": 604, "pitch": 74, "duration": 2, "velocity": 127}, {"time": 606, "pitch": 81, "duration": 3, "velocity": 127}, {"time": 609, "pitch": 74, "duration": 3, "velocity": 127}, {"time": 612, "pitch": 78, "duration": 6, "velocity": 127}, {"time": 618, "pitch": 74, "duration": 6, "velocity": 127}, {"time": 624, "pitch": 78, "duration": 6, "velocity": 127}, {"time": 630, "pitch": 79, "duration": 3, "velocity": 127}, {"time": 633, "pitch": 74, "duration": 3, "velocity": 127}, {"time": 636, "pitch": 82, "duration": 3, "velocity": 127}, {"time": 639, "pitch": 74, "duration": 3, "velocity": 127}, {"time": 642, "pitch": 84, "duration": 3, "velocity": 127}, {"time": 645, "pitch": 74, "duration": 3, "velocity": 127}, {"time": 648, "pitch": 78, "duration": 6, "velocity": 127}, {"time": 654, "pitch": 74, "duration": 6, "velocity": 127}, {"time": 660, "pitch": 78, "duration": 6, "velocity": 127}, {"time": 666, "pitch": 79, "duration": 3, "velocity": 127}, {"time": 669, "pitch": 74, "duration": 3, "velocity": 127}, {"time": 672, "pitch": 82, "duration": 3, "velocity": 127}, {"time": 675, "pitch": 74, "duration": 3, "velocity": 127}, {"time": 678, "pitch": 79, "duration": 3, "velocity": 127}, {"time": 681, "pitch": 74, "duration": 3, "velocity": 127}, {"time": 684, "pitch": 84, "duration": 3, "velocity": 127}, {"time": 687, "pitch": 82, "duration": 3, "velocity": 127}, {"time": 690, "pitch": 81, "duration": 3, "velocity": 127}, {"time": 693, "pitch": 79, "duration": 3, "velocity": 127}, {"time": 696, "pitch": 78, "duration": 3, "velocity": 127}, {"time": 699, "pitch": 76, "duration": 3, "velocity": 127}, {"time": 702, "pitch": 74, "duration": 3, "velocity": 127}, {"time": 705, "pitch": 76, "duration": 3, "velocity": 127}, {"time": 708, "pitch": 78, "duration": 3, "velocity": 127}, {"time": 711, "pitch": 74, "duration": 3, "velocity": 127}, {"time": 714, "pitch": 79, "duration": 3, "velocity": 127}, {"time": 717, "pitch": 67, "duration": 3, "velocity": 127}, {"time": 720, "pitch": 70, "duration": 3, "velocity": 127}, {"time": 723, "pitch": 72, "duration": 3, "velocity": 127}, {"time": 726, "pitch": 74, "duration": 3, "velocity": 127}, {"time": 729, "pitch": 72, "duration": 3, "velocity": 127}, {"time": 732, "pitch": 74, "duration": 3, "velocity": 127}, {"time": 735, "pitch": 70, "duration": 3, "velocity": 127}, {"time": 738, "pitch": 76, "duration": 3, "velocity": 127}, {"time": 741, "pitch": 74, "duration": 3, "velocity": 127}, {"time": 744, "pitch": 73, "duration": 3, "velocity": 127}, {"time": 747, "pitch": 74, "duration": 3, "velocity": 127}, {"time": 750, "pitch": 73, "duration": 3, "velocity": 127}, {"time": 753, "pitch": 76, "duration": 3, "velocity": 127}, {"time": 756, "pitch": 82, "duration": 3, "velocity": 127}, {"time": 759, "pitch": 81, "duration": 3, "velocity": 127}, {"time": 762, "pitch": 79, "duration": 3, "velocity": 127}, {"time": 765, "pitch": 77, "duration": 3, "velocity": 127}, {"time": 768, "pitch": 76, "duration": 3, "velocity": 127}, {"time": 771, "pitch": 74, "duration": 3, "velocity": 127}, {"time": 774, "pitch": 79, "duration": 9, "velocity": 127}, {"time": 783, "pitch": 81, "duration": 3, "velocity": 127}, {"time": 786, "pitch": 77, "duration": 6, "velocity": 127}, {"time": 792, "pitch": 79, "duration": 3, "velocity": 127}, {"time": 795, "pitch": 79, "duration": 3, "velocity": 127}, {"time": 798, "pitch": 76, "duration": 9, "velocity": 127}, {"time": 807, "pitch": 74, "duration": 3, "velocity": 127}, {"time": 810, "pitch": 74, "duration": 6, "velocity": 127}, {"time": 828, "pitch": 79, "duration": 3, "velocity": 127}, {"time": 831, "pitch": 77, "duration": 1, "velocity": 127}, {"time": 832, "pitch": 76, "duration": 2, "velocity": 127}, {"time": 834, "pitch": 74, "duration": 1, "velocity": 127}, {"time": 836, "pitch": 72, "duration": 1, "velocity": 127}, {"time": 837, "pitch": 71, "duration": 1, "velocity": 127}, {"time": 838, "pitch": 69, "duration": 2, "velocity": 127}, {"time": 840, "pitch": 79, "duration": 1, "velocity": 127}, {"time": 842, "pitch": 77, "duration": 1, "velocity": 127}, {"time": 843, "pitch": 76, "duration": 1, "velocity": 127}, {"time": 844, "pitch": 77, "duration": 2, "velocity": 127}, {"time": 846, "pitch": 76, "duration": 6, "velocity": 127}, {"time": 864, "pitch": 77, "duration": 6, "velocity": 127}, {"time": 870, "pitch": 79, "duration": 6, "velocity": 127}, {"time": 876, "pitch": 81, "duration": 6, "velocity": 127}, {"time": 882, "pitch": 82, "duration": 6, "velocity": 127}, {"time": 900, "pitch": 81, "duration": 2, "velocity": 127}, {"time": 902, "pitch": 82, "duration": 2, "velocity": 127}, {"time": 904, "pitch": 84, "duration": 2, "velocity": 127}, {"time": 906, "pitch": 82, "duration": 2, "velocity": 127}, {"time": 908, "pitch": 84, "duration": 2, "velocity": 127}, {"time": 910, "pitch": 86, "duration": 2, "velocity": 127}, {"time": 912, "pitch": 84, "duration": 2, "velocity": 127}, {"time": 914, "pitch": 86, "duration": 2, "velocity": 127}, {"time": 916, "pitch": 87, "duration": 2, "velocity": 127}, {"time": 918, "pitch": 86, "duration": 2, "velocity": 127}, {"time": 920, "pitch": 87, "duration": 2, "velocity": 127}, {"time": 922, "pitch": 84, "duration": 2, "velocity": 127}, {"time": 924, "pitch": 86, "duration": 2, "velocity": 127}, {"time": 926, "pitch": 87, "duration": 2, "velocity": 127}, {"time": 928, "pitch": 84, "duration": 2, "velocity": 127}, {"time": 930, "pitch": 86, "duration": 2, "velocity": 127}, {"time": 932, "pitch": 84, "duration": 2, "velocity": 127}, {"time": 934, "pitch": 86, "duration": 2, "velocity": 127}, {"time": 936, "pitch": 72, "duration": 2, "velocity": 127}, {"time": 938, "pitch": 74, "duration": 2, "velocity": 127}, {"time": 940, "pitch": 75, "duration": 2, "velocity": 127}, {"time": 942, "pitch": 74, "duration": 2, "velocity": 127}, {"time": 944, "pitch": 76, "duration": 2, "velocity": 127}, {"time": 946, "pitch": 77, "duration": 2, "velocity": 127}, {"time": 948, "pitch": 76, "duration": 2, "velocity": 127}, {"time": 950, "pitch": 77, "duration": 2, "velocity": 127}, {"time": 952, "pitch": 79, "duration": 2, "velocity": 127}, {"time": 954, "pitch": 77, "duration": 2, "velocity": 127}, {"time": 956, "pitch": 79, "duration": 2, "velocity": 127}, {"time": 958, "pitch": 76, "duration": 2, "velocity": 127}, {"time": 960, "pitch": 77, "duration": 2, "velocity": 127}, {"time": 962, "pitch": 79, "duration": 2, "velocity": 127}, {"time": 964, "pitch": 76, "duration": 2, "velocity": 127}, {"time": 966, "pitch": 77, "duration": 2, "velocity": 127}, {"time": 968, "pitch": 76, "duration": 2, "velocity": 127}, {"time": 970, "pitch": 77, "duration": 2, "velocity": 127}, {"time": 972, "pitch": 79, "duration": 3, "velocity": 127}, {"time": 975, "pitch": 77, "duration": 3, "velocity": 127}, {"time": 978, "pitch": 76, "duration": 3, "velocity": 127}, {"time": 981, "pitch": 74, "duration": 3, "velocity": 127}, {"time": 984, "pitch": 72, "duration": 3, "velocity": 127}, {"time": 987, "pitch": 70, "duration": 3, "velocity": 127}, {"time": 990, "pitch": 77, "duration": 3, "velocity": 127}, {"time": 993, "pitch": 76, "duration": 3, "velocity": 127}, {"time": 996, "pitch": 74, "duration": 3, "velocity": 127}, {"time": 999, "pitch": 72, "duration": 3, "velocity": 127}, {"time": 1002, "pitch": 70, "duration": 3, "velocity": 127}, {"time": 1005, "pitch": 69, "duration": 3, "velocity": 127}, {"time": 1008, "pitch": 70, "duration": 6, "velocity": 127}, {"time": 1026, "pitch": 69, "duration": 6, "velocity": 127}, {"time": 1044, "pitch": 79, "duration": 3, "velocity": 127}, {"time": 1047, "pitch": 77, "duration": 3, "velocity": 127}, {"time": 1050, "pitch": 82, "duration": 3, "velocity": 127}, {"time": 1053, "pitch": 81, "duration": 3, "velocity": 127}, {"time": 1056, "pitch": 79, "duration": 3, "velocity": 127}, {"time": 1059, "pitch": 77, "duration": 3, "velocity": 127}, {"time": 1062, "pitch": 76, "duration": 3, "velocity": 127}, {"time": 1065, "pitch": 72, "duration": 3, "velocity": 127}, {"time": 1068, "pitch": 74, "duration": 3, "velocity": 127}, {"time": 1071, "pitch": 76, "duration": 3, "velocity": 127}, {"time": 1074, "pitch": 77, "duration": 6, "velocity": 127}, {"time": 1080, "pitch": 77, "duration": 3, "velocity": 127}, {"time": 1083, "pitch": 79, "duration": 3, "velocity": 127}, {"time": 1086, "pitch": 76, "duration": 9, "velocity": 127}, {"time": 1095, "pitch": 77, "duration": 3, "velocity": 127}, {"time": 1098, "pitch": 77, "duration": 3, "velocity": 127}, {"time": 1101, "pitch": 84, "duration": 3, "velocity": 127}, {"time": 1104, "pitch": 81, "duration": 3, "velocity": 127}, {"time": 1107, "pitch": 84, "duration": 3, "velocity": 127}, {"time": 1110, "pitch": 81, "duration": 3, "velocity": 127}, {"time": 1113, "pitch": 84, "duration": 3, "velocity": 127}, {"time": 1116, "pitch": 89, "duration": 3, "velocity": 127}, {"time": 1119, "pitch": 88, "duration": 1, "velocity": 127}, {"time": 1120, "pitch": 86, "duration": 2, "velocity": 127}, {"time": 1122, "pitch": 84, "duration": 1, "velocity": 127}, {"time": 1124, "pitch": 82, "duration": 1, "velocity": 127}, {"time": 1125, "pitch": 81, "duration": 1, "velocity": 127}, {"time": 1126, "pitch": 79, "duration": 2, "velocity": 127}, {"time": 1128, "pitch": 84, "duration": 1, "velocity": 127}, {"time": 1130, "pitch": 82, "duration": 1, "velocity": 127}, {"time": 1131, "pitch": 81, "duration": 1, "velocity": 127}, {"time": 1132, "pitch": 79, "duration": 2, "velocity": 127}, {"time": 1134, "pitch": 81, "duration": 3, "velocity": 127}, {"time": 1137, "pitch": 84, "duration": 3, "velocity": 127}, {"time": 1140, "pitch": 81, "duration": 3, "velocity": 127}, {"time": 1143, "pitch": 84, "duration": 3, "velocity": 127}, {"time": 1146, "pitch": 81, "duration": 3, "velocity": 127}, {"time": 1149, "pitch": 84, "duration": 3, "velocity": 127}, {"time": 1152, "pitch": 89, "duration": 3, "velocity": 127}, {"time": 1155, "pitch": 77, "duration": 3, "velocity": 127}, {"time": 1158, "pitch": 70, "duration": 6, "velocity": 127}, {"time": 1164, "pitch": 72, "duration": 6, "velocity": 127}, {"time": 1170, "pitch": 65, "duration": 18, "velocity": 127}], "annotations": [{"time": 0, "annotation": {"number": 7, "value": 100}, "group": "control_change"}, {"time": 0, "annotation": {"number": 10, "value": 64}, "group": "control_change"}, {"time": 0, "annotation": {"number": 91, "value": 0}, "group": "control_change"}, {"time": 0, "annotation": {"number": 93, "value": 0}, "group": "control_change"}]}]}