{"metadata": {"schema_version": "0.2"}, "resolution": 24, "tracks": [{"program": 74, "is_drum": false, "notes": [{"time": 0, "pitch": 70, "duration": 6, "velocity": 127}, {"time": 6, "pitch": 72, "duration": 6, "velocity": 127}, {"time": 12, "pitch": 74, "duration": 12, "velocity": 127}, {"time": 36, "pitch": 74, "duration": 6, "velocity": 127}, {"time": 42, "pitch": 72, "duration": 6, "velocity": 127}, {"time": 48, "pitch": 70, "duration": 6, "velocity": 127}, {"time": 54, "pitch": 72, "duration": 6, "velocity": 127}, {"time": 60, "pitch": 72, "duration": 9, "velocity": 127}, {"time": 69, "pitch": 70, "duration": 1, "velocity": 127}, {"time": 70, "pitch": 72, "duration": 2, "velocity": 127}, {"time": 72, "pitch": 74, "duration": 4, "velocity": 127}, {"time": 76, "pitch": 70, "duration": 4, "velocity": 127}, {"time": 80, "pitch": 72, "duration": 4, "velocity": 127}, {"time": 84, "pitch": 74, "duration": 12, "velocity": 127}, {"time": 108, "pitch": 79, "duration": 12, "velocity": 127}, {"time": 120, "pitch": 79, "duration": 12, "velocity": 127}, {"time": 132, "pitch": 79, "duration": 12, "velocity": 127}, {"time": 144, "pitch": 79, "duration": 12, "velocity": 127}, {"time": 156, "pitch": 78, "duration": 12, "velocity": 127}, {"time": 168, "pitch": 79, "duration": 6, "velocity": 127}, {"time": 174, "pitch": 81, "duration": 6, "velocity": 127}, {"time": 180, "pitch": 82, "duration": 12, "velocity": 127}, {"time": 192, "pitch": 82, "duration": 6, "velocity": 127}, {"time": 198, "pitch": 81, "duration": 6, "velocity": 127}, {"time": 204, "pitch": 82, "duration": 6, "velocity": 127}, {"time": 210, "pitch": 84, "duration": 6, "velocity": 127}, {"time": 216, "pitch": 81, "duration": 12, "velocity": 127}, {"time": 228, "pitch": 86, "duration": 12, "velocity": 127}, {"time": 252, "pitch": 79, "duration": 12, "velocity": 127}, {"time": 264, "pitch": 79, "duration": 6, "velocity": 127}, {"time": 270, "pitch": 77, "duration": 6, "velocity": 127}, {"time": 276, "pitch": 79, "duration": 6, "velocity": 127}, {"time": 282, "pitch": 80, "duration": 6, "velocity": 127}, {"time": 288, "pitch": 77, "duration": 12, "velocity": 127}, {"time": 300, "pitch": 82, "duration": 12, "velocity": 127}, {"time": 324, "pitch": 75, "duration": 12, "velocity": 127}, {"time": 336, "pitch": 75, "duration": 6, "velocity": 127}, {"time": 342, "pitch": 74, "duration": 6, "velocity": 127}, {"time": 348, "pitch": 75, "duration": 6, "velocity": 127}, {"time": 354, "pitch": 77, "duration": 6, "velocity": 127}, {"time": 360, "pitch": 74, "duration": 12, "velocity": 127}, {"time": 372, "pitch": 79, "duration": 12, "velocity": 127}, {"time": 396, "pitch": 77, "duration": 12, "velocity": 127}, {"time": 408, "pitch": 79, "duration": 6, "velocity": 127}, {"time": 414, "pitch": 77, "duration": 6, "velocity": 127}, {"time": 420, "pitch": 75, "duration": 6, "velocity": 127}, {"time": 426, "pitch": 74, "duration": 6, "velocity": 127}, {"time": 432, "pitch": 75, "duration": 18, "velocity": 127}, {"time": 450, "pitch": 74, "duration": 6, "velocity": 127}, {"time": 456, "pitch": 72, "duration": 18, "velocity": 127}, {"time": 474, "pitch": 75, "duration": 6, "velocity": 127}, {"time": 480, "pitch": 74, "duration": 6, "velocity": 127}, {"time": 486, "pitch": 72, "duration": 6, "velocity": 127}, {"time": 492, "pitch": 70, "duration": 6, "velocity": 127}, {"time": 498, "pitch": 69, "duration": 6, "velocity": 127}, {"time": 504, "pitch": 70, "duration": 6, "velocity": 127}, {"time": 510, "pitch": 72, "duration": 6, "velocity": 127}, {"time": 516, "pitch": 72, "duration": 18, "velocity": 127}, {"time": 534, "pitch": 70, "duration": 3, "velocity": 127}, {"time": 537, "pitch": 72, "duration": 3, "velocity": 127}, {"time": 540, "pitch": 74, "duration": 36, "velocity": 127}, {"time": 576, "pitch": 70, "duration": 6, "velocity": 127}, {"time": 582, "pitch": 72, "duration": 6, "velocity": 127}, {"time": 588, "pitch": 74, "duration": 12, "velocity": 127}, {"time": 612, "pitch": 77, "duration": 6, "velocity": 127}, {"time": 618, "pitch": 75, "duration": 6, "velocity": 127}, {"time": 624, "pitch": 74, "duration": 6, "velocity": 127}, {"time": 630, "pitch": 75, "duration": 6, "velocity": 127}, {"time": 636, "pitch": 75, "duration": 9, "velocity": 127}, {"time": 645, "pitch": 74, "duration": 1, "velocity": 127}, {"time": 646, "pitch": 75, "duration": 2, "velocity": 127}, {"time": 648, "pitch": 77, "duration": 4, "velocity": 127}, {"time": 652, "pitch": 74, "duration": 4, "velocity": 127}, {"time": 656, "pitch": 75, "duration": 4, "velocity": 127}, {"time": 660, "pitch": 77, "duration": 12, "velocity": 127}, {"time": 684, "pitch": 70, "duration": 12, "velocity": 127}, {"time": 696, "pitch": 70, "duration": 12, "velocity": 127}, {"time": 708, "pitch": 70, "duration": 12, "velocity": 127}, {"time": 720, "pitch": 70, "duration": 12, "velocity": 127}, {"time": 732, "pitch": 69, "duration": 12, "velocity": 127}, {"time": 744, "pitch": 70, "duration": 6, "velocity": 127}, {"time": 750, "pitch": 72, "duration": 6, "velocity": 127}, {"time": 756, "pitch": 74, "duration": 12, "velocity": 127}, {"time": 768, "pitch": 74, "duration": 6, "velocity": 127}, {"time": 774, "pitch": 72, "duration": 6, "velocity": 127}, {"time": 780, "pitch": 74, "duration": 6, "velocity": 127}, {"time": 786, "pitch": 75, "duration": 6, "velocity": 127}, {"time": 792, "pitch": 72, "duration": 12, "velocity": 127}, {"time": 804, "pitch": 77, "duration": 12, "velocity": 127}, {"time": 828, "pitch": 77, "duration": 12, "velocity": 127}, {"time": 840, "pitch": 75, "duration": 6, "velocity": 127}, {"time": 846, "pitch": 74, "duration": 6, "velocity": 127}, {"time": 852, "pitch": 75, "duration": 6, "velocity": 127}, {"time": 858, "pitch": 77, "duration": 6, "velocity": 127}, {"time": 864, "pitch": 74, "duration": 12, "velocity": 127}, {"time": 876, "pitch": 79, "duration": 12, "velocity": 127}, {"time": 900, "pitch": 79, "duration": 12, "velocity": 127}, {"time": 912, "pitch": 77, "duration": 6, "velocity": 127}, {"time": 918, "pitch": 76, "duration": 6, "velocity": 127}, {"time": 924, "pitch": 77, "duration": 6, "velocity": 127}, {"time": 930, "pitch": 79, "duration": 6, "velocity": 127}, {"time": 936, "pitch": 76, "duration": 12, "velocity": 127}, {"time": 948, "pitch": 81, "duration": 12, "velocity": 127}, {"time": 972, "pitch": 81, "duration": 12, "velocity": 127}, {"time": 984, "pitch": 79, "duration": 6, "velocity": 127}, {"time": 990, "pitch": 78, "duration": 6, "velocity": 127}, {"time": 996, "pitch": 79, "duration": 6, "velocity": 127}, {"time": 1002, "pitch": 81, "duration": 6, "velocity": 127}, {"time": 1008, "pitch": 78, "duration": 18, "velocity": 127}, {"time": 1026, "pitch": 79, "duration": 6, "velocity": 127}, {"time": 1032, "pitch": 81, "duration": 18, "velocity": 127}, {"time": 1050, "pitch": 82, "duration": 6, "velocity": 127}, {"time": 1056, "pitch": 81, "duration": 6, "velocity": 127}, {"time": 1062, "pitch": 82, "duration": 6, "velocity": 127}, {"time": 1068, "pitch": 84, "duration": 6, "velocity": 127}, {"time": 1074, "pitch": 81, "duration": 6, "velocity": 127}, {"time": 1080, "pitch": 82, "duration": 6, "velocity": 127}, {"time": 1086, "pitch": 84, "duration": 6, "velocity": 127}, {"time": 1092, "pitch": 81, "duration": 18, "velocity": 127}, {"time": 1110, "pitch": 79, "duration": 6, "velocity": 127}, {"time": 1116, "pitch": 79, "duration": 36, "velocity": 127}], "annotations": [{"time": 0, "annotation": {"number": 7, "value": 100}, "group": "control_change"}, {"time": 0, "annotation": {"number": 10, "value": 64}, "group": "control_change"}, {"time": 0, "annotation": {"number": 91, "value": 0}, "group": "control_change"}, {"time": 0, "annotation": {"number": 93, "value": 0}, "group": "control_change"}]}]}