{"metadata": {"schema_version": "0.2"}, "resolution": 24, "tracks": [{"program": 74, "is_drum": false, "notes": [{"time": 0, "pitch": 72, "duration": 12, "velocity": 127}, {"time": 12, "pitch": 77, "duration": 12, "velocity": 127}, {"time": 24, "pitch": 74, "duration": 6, "velocity": 127}, {"time": 30, "pitch": 76, "duration": 3, "velocity": 127}, {"time": 33, "pitch": 77, "duration": 3, "velocity": 127}, {"time": 36, "pitch": 79, "duration": 6, "velocity": 127}, {"time": 42, "pitch": 77, "duration": 6, "velocity": 127}, {"time": 48, "pitch": 76, "duration": 6, "velocity": 127}, {"time": 54, "pitch": 72, "duration": 6, "velocity": 127}, {"time": 60, "pitch": 81, "duration": 6, "velocity": 127}, {"time": 66, "pitch": 72, "duration": 6, "velocity": 127}, {"time": 72, "pitch": 74, "duration": 6, "velocity": 127}, {"time": 78, "pitch": 70, "duration": 6, "velocity": 127}, {"time": 84, "pitch": 79, "duration": 6, "velocity": 127}, {"time": 90, "pitch": 70, "duration": 6, "velocity": 127}, {"time": 96, "pitch": 72, "duration": 6, "velocity": 127}, {"time": 102, "pitch": 69, "duration": 6, "velocity": 127}, {"time": 108, "pitch": 77, "duration": 6, "velocity": 127}, {"time": 114, "pitch": 69, "duration": 6, "velocity": 127}, {"time": 120, "pitch": 70, "duration": 6, "velocity": 127}, {"time": 126, "pitch": 67, "duration": 6, "velocity": 127}, {"time": 132, "pitch": 76, "duration": 6, "velocity": 127}, {"time": 138, "pitch": 67, "duration": 6, "velocity": 127}, {"time": 144, "pitch": 69, "duration": 6, "velocity": 127}, {"time": 150, "pitch": 77, "duration": 6, "velocity": 127}, {"time": 156, "pitch": 67, "duration": 6, "velocity": 127}, {"time": 162, "pitch": 76, "duration": 6, "velocity": 127}, {"time": 168, "pitch": 65, "duration": 6, "velocity": 127}, {"time": 174, "pitch": 77, "duration": 6, "velocity": 127}, {"time": 180, "pitch": 76, "duration": 6, "velocity": 127}, {"time": 186, "pitch": 72, "duration": 6, "velocity": 127}, {"time": 192, "pitch": 77, "duration": 12, "velocity": 127}, {"time": 204, "pitch": 89, "duration": 12, "velocity": 127}, {"time": 222, "pitch": 88, "duration": 3, "velocity": 127}, {"time": 225, "pitch": 86, "duration": 3, "velocity": 127}, {"time": 228, "pitch": 84, "duration": 6, "velocity": 127}, {"time": 234, "pitch": 86, "duration": 3, "velocity": 127}, {"time": 237, "pitch": 88, "duration": 3, "velocity": 127}, {"time": 240, "pitch": 77, "duration": 6, "velocity": 127}, {"time": 246, "pitch": 86, "duration": 3, "velocity": 127}, {"time": 249, "pitch": 84, "duration": 3, "velocity": 127}, {"time": 252, "pitch": 83, "duration": 6, "velocity": 127}, {"time": 258, "pitch": 84, "duration": 3, "velocity": 127}, {"time": 261, "pitch": 86, "duration": 3, "velocity": 127}, {"time": 264, "pitch": 76, "duration": 6, "velocity": 127}, {"time": 270, "pitch": 84, "duration": 3, "velocity": 127}, {"time": 273, "pitch": 83, "duration": 3, "velocity": 127}, {"time": 276, "pitch": 81, "duration": 6, "velocity": 127}, {"time": 282, "pitch": 83, "duration": 3, "velocity": 127}, {"time": 285, "pitch": 84, "duration": 3, "velocity": 127}, {"time": 288, "pitch": 74, "duration": 6, "velocity": 127}, {"time": 294, "pitch": 83, "duration": 3, "velocity": 127}, {"time": 297, "pitch": 81, "duration": 3, "velocity": 127}, {"time": 300, "pitch": 79, "duration": 6, "velocity": 127}, {"time": 306, "pitch": 81, "duration": 3, "velocity": 127}, {"time": 309, "pitch": 83, "duration": 3, "velocity": 127}, {"time": 312, "pitch": 72, "duration": 6, "velocity": 127}, {"time": 318, "pitch": 74, "duration": 3, "velocity": 127}, {"time": 321, "pitch": 76, "duration": 3, "velocity": 127}, {"time": 324, "pitch": 77, "duration": 6, "velocity": 127}, {"time": 330, "pitch": 76, "duration": 3, "velocity": 127}, {"time": 333, "pitch": 74, "duration": 3, "velocity": 127}, {"time": 336, "pitch": 76, "duration": 12, "velocity": 127}, {"time": 363, "pitch": 72, "duration": 3, "velocity": 127}, {"time": 366, "pitch": 74, "duration": 3, "velocity": 127}, {"time": 369, "pitch": 76, "duration": 3, "velocity": 127}, {"time": 372, "pitch": 77, "duration": 3, "velocity": 127}, {"time": 375, "pitch": 79, "duration": 3, "velocity": 127}, {"time": 378, "pitch": 81, "duration": 3, "velocity": 127}, {"time": 381, "pitch": 83, "duration": 3, "velocity": 127}, {"time": 384, "pitch": 84, "duration": 24, "velocity": 127}, {"time": 408, "pitch": 84, "duration": 12, "velocity": 127}, {"time": 420, "pitch": 83, "duration": 12, "velocity": 127}, {"time": 432, "pitch": 82, "duration": 12, "velocity": 127}, {"time": 444, "pitch": 81, "duration": 12, "velocity": 127}, {"time": 456, "pitch": 81, "duration": 12, "velocity": 127}, {"time": 468, "pitch": 79, "duration": 12, "velocity": 127}, {"time": 480, "pitch": 79, "duration": 12, "velocity": 127}, {"time": 492, "pitch": 78, "duration": 12, "velocity": 127}, {"time": 504, "pitch": 79, "duration": 3, "velocity": 127}, {"time": 507, "pitch": 76, "duration": 3, "velocity": 127}, {"time": 510, "pitch": 77, "duration": 3, "velocity": 127}, {"time": 513, "pitch": 79, "duration": 3, "velocity": 127}, {"time": 516, "pitch": 81, "duration": 3, "velocity": 127}, {"time": 519, "pitch": 69, "duration": 3, "velocity": 127}, {"time": 522, "pitch": 71, "duration": 3, "velocity": 127}, {"time": 525, "pitch": 72, "duration": 3, "velocity": 127}, {"time": 528, "pitch": 74, "duration": 3, "velocity": 127}, {"time": 531, "pitch": 72, "duration": 3, "velocity": 127}, {"time": 534, "pitch": 74, "duration": 3, "velocity": 127}, {"time": 537, "pitch": 76, "duration": 3, "velocity": 127}, {"time": 540, "pitch": 74, "duration": 3, "velocity": 127}, {"time": 543, "pitch": 76, "duration": 3, "velocity": 127}, {"time": 546, "pitch": 77, "duration": 3, "velocity": 127}, {"time": 549, "pitch": 79, "duration": 3, "velocity": 127}, {"time": 552, "pitch": 72, "duration": 12, "velocity": 127}, {"time": 564, "pitch": 77, "duration": 12, "velocity": 127}, {"time": 576, "pitch": 74, "duration": 6, "velocity": 127}, {"time": 582, "pitch": 76, "duration": 3, "velocity": 127}, {"time": 585, "pitch": 77, "duration": 3, "velocity": 127}, {"time": 588, "pitch": 79, "duration": 6, "velocity": 127}, {"time": 594, "pitch": 77, "duration": 6, "velocity": 127}, {"time": 600, "pitch": 76, "duration": 6, "velocity": 127}, {"time": 606, "pitch": 72, "duration": 6, "velocity": 127}, {"time": 612, "pitch": 81, "duration": 6, "velocity": 127}, {"time": 618, "pitch": 72, "duration": 6, "velocity": 127}, {"time": 624, "pitch": 74, "duration": 6, "velocity": 127}, {"time": 630, "pitch": 70, "duration": 6, "velocity": 127}, {"time": 636, "pitch": 79, "duration": 6, "velocity": 127}, {"time": 642, "pitch": 70, "duration": 6, "velocity": 127}, {"time": 648, "pitch": 72, "duration": 6, "velocity": 127}, {"time": 654, "pitch": 69, "duration": 6, "velocity": 127}, {"time": 660, "pitch": 77, "duration": 6, "velocity": 127}, {"time": 666, "pitch": 69, "duration": 6, "velocity": 127}, {"time": 672, "pitch": 70, "duration": 6, "velocity": 127}, {"time": 678, "pitch": 67, "duration": 6, "velocity": 127}, {"time": 684, "pitch": 76, "duration": 6, "velocity": 127}, {"time": 690, "pitch": 67, "duration": 6, "velocity": 127}, {"time": 696, "pitch": 69, "duration": 6, "velocity": 127}, {"time": 702, "pitch": 77, "duration": 6, "velocity": 127}, {"time": 708, "pitch": 67, "duration": 6, "velocity": 127}, {"time": 714, "pitch": 76, "duration": 6, "velocity": 127}, {"time": 720, "pitch": 65, "duration": 6, "velocity": 127}, {"time": 726, "pitch": 67, "duration": 3, "velocity": 127}, {"time": 729, "pitch": 69, "duration": 3, "velocity": 127}, {"time": 732, "pitch": 70, "duration": 6, "velocity": 127}, {"time": 738, "pitch": 69, "duration": 3, "velocity": 127}, {"time": 741, "pitch": 67, "duration": 3, "velocity": 127}, {"time": 744, "pitch": 69, "duration": 6, "velocity": 127}, {"time": 750, "pitch": 70, "duration": 3, "velocity": 127}, {"time": 753, "pitch": 72, "duration": 3, "velocity": 127}, {"time": 756, "pitch": 74, "duration": 6, "velocity": 127}, {"time": 762, "pitch": 72, "duration": 3, "velocity": 127}, {"time": 765, "pitch": 70, "duration": 3, "velocity": 127}, {"time": 768, "pitch": 72, "duration": 6, "velocity": 127}, {"time": 774, "pitch": 74, "duration": 3, "velocity": 127}, {"time": 777, "pitch": 76, "duration": 3, "velocity": 127}, {"time": 780, "pitch": 77, "duration": 6, "velocity": 127}, {"time": 786, "pitch": 76, "duration": 3, "velocity": 127}, {"time": 789, "pitch": 74, "duration": 3, "velocity": 127}, {"time": 792, "pitch": 76, "duration": 6, "velocity": 127}, {"time": 798, "pitch": 77, "duration": 3, "velocity": 127}, {"time": 801, "pitch": 79, "duration": 3, "velocity": 127}, {"time": 804, "pitch": 81, "duration": 6, "velocity": 127}, {"time": 810, "pitch": 79, "duration": 3, "velocity": 127}, {"time": 813, "pitch": 77, "duration": 3, "velocity": 127}, {"time": 816, "pitch": 79, "duration": 6, "velocity": 127}, {"time": 822, "pitch": 72, "duration": 6, "velocity": 127}, {"time": 840, "pitch": 75, "duration": 12, "velocity": 127}, {"time": 864, "pitch": 74, "duration": 12, "velocity": 127}, {"time": 888, "pitch": 78, "duration": 12, "velocity": 127}, {"time": 918, "pitch": 79, "duration": 6, "velocity": 127}, {"time": 924, "pitch": 79, "duration": 6, "velocity": 127}, {"time": 930, "pitch": 79, "duration": 6, "velocity": 127}, {"time": 936, "pitch": 76, "duration": 3, "velocity": 127}, {"time": 939, "pitch": 77, "duration": 3, "velocity": 127}, {"time": 942, "pitch": 79, "duration": 6, "velocity": 127}, {"time": 948, "pitch": 79, "duration": 6, "velocity": 127}, {"time": 954, "pitch": 79, "duration": 6, "velocity": 127}, {"time": 960, "pitch": 73, "duration": 6, "velocity": 127}, {"time": 966, "pitch": 79, "duration": 6, "velocity": 127}, {"time": 972, "pitch": 79, "duration": 6, "velocity": 127}, {"time": 978, "pitch": 79, "duration": 6, "velocity": 127}, {"time": 984, "pitch": 69, "duration": 6, "velocity": 127}, {"time": 990, "pitch": 81, "duration": 3, "velocity": 127}, {"time": 993, "pitch": 79, "duration": 3, "velocity": 127}, {"time": 996, "pitch": 81, "duration": 3, "velocity": 127}, {"time": 999, "pitch": 79, "duration": 3, "velocity": 127}, {"time": 1002, "pitch": 77, "duration": 3, "velocity": 127}, {"time": 1005, "pitch": 76, "duration": 3, "velocity": 127}, {"time": 1008, "pitch": 77, "duration": 3, "velocity": 127}, {"time": 1011, "pitch": 76, "duration": 3, "velocity": 127}, {"time": 1014, "pitch": 77, "duration": 3, "velocity": 127}, {"time": 1017, "pitch": 79, "duration": 3, "velocity": 127}, {"time": 1020, "pitch": 77, "duration": 3, "velocity": 127}, {"time": 1023, "pitch": 79, "duration": 3, "velocity": 127}, {"time": 1026, "pitch": 76, "duration": 3, "velocity": 127}, {"time": 1029, "pitch": 77, "duration": 3, "velocity": 127}, {"time": 1032, "pitch": 79, "duration": 3, "velocity": 127}, {"time": 1035, "pitch": 77, "duration": 3, "velocity": 127}, {"time": 1038, "pitch": 79, "duration": 3, "velocity": 127}, {"time": 1041, "pitch": 81, "duration": 3, "velocity": 127}, {"time": 1044, "pitch": 79, "duration": 3, "velocity": 127}, {"time": 1047, "pitch": 81, "duration": 3, "velocity": 127}, {"time": 1050, "pitch": 77, "duration": 3, "velocity": 127}, {"time": 1053, "pitch": 79, "duration": 3, "velocity": 127}, {"time": 1056, "pitch": 81, "duration": 12, "velocity": 127}, {"time": 1068, "pitch": 86, "duration": 12, "velocity": 127}, {"time": 1080, "pitch": 83, "duration": 6, "velocity": 127}, {"time": 1086, "pitch": 84, "duration": 3, "velocity": 127}, {"time": 1089, "pitch": 86, "duration": 3, "velocity": 127}, {"time": 1092, "pitch": 88, "duration": 6, "velocity": 127}, {"time": 1098, "pitch": 86, "duration": 6, "velocity": 127}, {"time": 1104, "pitch": 85, "duration": 6, "velocity": 127}, {"time": 1110, "pitch": 81, "duration": 6, "velocity": 127}, {"time": 1116, "pitch": 89, "duration": 6, "velocity": 127}, {"time": 1122, "pitch": 81, "duration": 6, "velocity": 127}, {"time": 1128, "pitch": 82, "duration": 6, "velocity": 127}, {"time": 1134, "pitch": 79, "duration": 6, "velocity": 127}, {"time": 1140, "pitch": 88, "duration": 6, "velocity": 127}, {"time": 1146, "pitch": 79, "duration": 6, "velocity": 127}, {"time": 1152, "pitch": 81, "duration": 6, "velocity": 127}, {"time": 1158, "pitch": 77, "duration": 6, "velocity": 127}, {"time": 1164, "pitch": 86, "duration": 6, "velocity": 127}, {"time": 1170, "pitch": 77, "duration": 6, "velocity": 127}, {"time": 1176, "pitch": 79, "duration": 6, "velocity": 127}, {"time": 1182, "pitch": 76, "duration": 6, "velocity": 127}, {"time": 1188, "pitch": 85, "duration": 6, "velocity": 127}, {"time": 1194, "pitch": 76, "duration": 6, "velocity": 127}, {"time": 1200, "pitch": 77, "duration": 6, "velocity": 127}, {"time": 1206, "pitch": 86, "duration": 6, "velocity": 127}, {"time": 1212, "pitch": 76, "duration": 6, "velocity": 127}, {"time": 1218, "pitch": 85, "duration": 6, "velocity": 127}, {"time": 1224, "pitch": 74, "duration": 6, "velocity": 127}, {"time": 1230, "pitch": 76, "duration": 3, "velocity": 127}, {"time": 1233, "pitch": 77, "duration": 3, "velocity": 127}, {"time": 1236, "pitch": 79, "duration": 6, "velocity": 127}, {"time": 1242, "pitch": 77, "duration": 3, "velocity": 127}, {"time": 1245, "pitch": 76, "duration": 3, "velocity": 127}, {"time": 1248, "pitch": 77, "duration": 6, "velocity": 127}, {"time": 1254, "pitch": 86, "duration": 6, "velocity": 127}, {"time": 1260, "pitch": 76, "duration": 6, "velocity": 127}, {"time": 1266, "pitch": 85, "duration": 6, "velocity": 127}, {"time": 1272, "pitch": 74, "duration": 6, "velocity": 127}, {"time": 1278, "pitch": 70, "duration": 6, "velocity": 127}, {"time": 1284, "pitch": 67, "duration": 6, "velocity": 127}, {"time": 1290, "pitch": 69, "duration": 6, "velocity": 127}, {"time": 1296, "pitch": 74, "duration": 3, "velocity": 127}, {"time": 1299, "pitch": 81, "duration": 3, "velocity": 127}, {"time": 1302, "pitch": 79, "duration": 3, "velocity": 127}, {"time": 1305, "pitch": 81, "duration": 3, "velocity": 127}, {"time": 1308, "pitch": 77, "duration": 3, "velocity": 127}, {"time": 1311, "pitch": 81, "duration": 3, "velocity": 127}, {"time": 1314, "pitch": 79, "duration": 3, "velocity": 127}, {"time": 1317, "pitch": 81, "duration": 3, "velocity": 127}, {"time": 1320, "pitch": 74, "duration": 3, "velocity": 127}, {"time": 1323, "pitch": 81, "duration": 3, "velocity": 127}, {"time": 1326, "pitch": 79, "duration": 3, "velocity": 127}, {"time": 1329, "pitch": 81, "duration": 3, "velocity": 127}, {"time": 1332, "pitch": 78, "duration": 3, "velocity": 127}, {"time": 1335, "pitch": 81, "duration": 3, "velocity": 127}, {"time": 1338, "pitch": 79, "duration": 3, "velocity": 127}, {"time": 1341, "pitch": 81, "duration": 3, "velocity": 127}, {"time": 1344, "pitch": 72, "duration": 3, "velocity": 127}, {"time": 1347, "pitch": 71, "duration": 3, "velocity": 127}, {"time": 1350, "pitch": 72, "duration": 3, "velocity": 127}, {"time": 1353, "pitch": 74, "duration": 3, "velocity": 127}, {"time": 1356, "pitch": 72, "duration": 3, "velocity": 127}, {"time": 1359, "pitch": 75, "duration": 3, "velocity": 127}, {"time": 1362, "pitch": 74, "duration": 3, "velocity": 127}, {"time": 1365, "pitch": 72, "duration": 3, "velocity": 127}, {"time": 1368, "pitch": 70, "duration": 12, "velocity": 127}, {"time": 1380, "pitch": 74, "duration": 6, "velocity": 127}, {"time": 1392, "pitch": 71, "duration": 6, "velocity": 127}, {"time": 1404, "pitch": 67, "duration": 6, "velocity": 127}, {"time": 1416, "pitch": 69, "duration": 6, "velocity": 127}, {"time": 1428, "pitch": 71, "duration": 6, "velocity": 127}, {"time": 1440, "pitch": 72, "duration": 12, "velocity": 127}, {"time": 1452, "pitch": 77, "duration": 12, "velocity": 127}, {"time": 1464, "pitch": 74, "duration": 6, "velocity": 127}, {"time": 1470, "pitch": 76, "duration": 3, "velocity": 127}, {"time": 1473, "pitch": 77, "duration": 3, "velocity": 127}, {"time": 1476, "pitch": 79, "duration": 6, "velocity": 127}, {"time": 1482, "pitch": 77, "duration": 6, "velocity": 127}, {"time": 1488, "pitch": 76, "duration": 6, "velocity": 127}, {"time": 1494, "pitch": 72, "duration": 6, "velocity": 127}, {"time": 1500, "pitch": 87, "duration": 12, "velocity": 127}, {"time": 1518, "pitch": 86, "duration": 3, "velocity": 127}, {"time": 1521, "pitch": 84, "duration": 3, "velocity": 127}, {"time": 1524, "pitch": 82, "duration": 6, "velocity": 127}, {"time": 1530, "pitch": 84, "duration": 3, "velocity": 127}, {"time": 1533, "pitch": 86, "duration": 3, "velocity": 127}, {"time": 1536, "pitch": 75, "duration": 6, "velocity": 127}, {"time": 1542, "pitch": 84, "duration": 3, "velocity": 127}, {"time": 1545, "pitch": 82, "duration": 3, "velocity": 127}, {"time": 1548, "pitch": 81, "duration": 6, "velocity": 127}, {"time": 1554, "pitch": 82, "duration": 3, "velocity": 127}, {"time": 1557, "pitch": 84, "duration": 3, "velocity": 127}, {"time": 1560, "pitch": 74, "duration": 6, "velocity": 127}, {"time": 1566, "pitch": 82, "duration": 3, "velocity": 127}, {"time": 1569, "pitch": 81, "duration": 3, "velocity": 127}, {"time": 1572, "pitch": 79, "duration": 6, "velocity": 127}, {"time": 1578, "pitch": 81, "duration": 3, "velocity": 127}, {"time": 1581, "pitch": 82, "duration": 3, "velocity": 127}, {"time": 1584, "pitch": 72, "duration": 6, "velocity": 127}, {"time": 1590, "pitch": 81, "duration": 3, "velocity": 127}, {"time": 1593, "pitch": 79, "duration": 3, "velocity": 127}, {"time": 1596, "pitch": 77, "duration": 6, "velocity": 127}, {"time": 1602, "pitch": 79, "duration": 3, "velocity": 127}, {"time": 1605, "pitch": 81, "duration": 3, "velocity": 127}, {"time": 1608, "pitch": 70, "duration": 6, "velocity": 127}, {"time": 1614, "pitch": 86, "duration": 6, "velocity": 127}, {"time": 1620, "pitch": 69, "duration": 6, "velocity": 127}, {"time": 1626, "pitch": 84, "duration": 6, "velocity": 127}, {"time": 1632, "pitch": 74, "duration": 6, "velocity": 127}, {"time": 1638, "pitch": 82, "duration": 6, "velocity": 127}, {"time": 1644, "pitch": 72, "duration": 6, "velocity": 127}, {"time": 1650, "pitch": 81, "duration": 6, "velocity": 127}, {"time": 1656, "pitch": 70, "duration": 6, "velocity": 127}, {"time": 1662, "pitch": 86, "duration": 6, "velocity": 127}, {"time": 1668, "pitch": 69, "duration": 6, "velocity": 127}, {"time": 1674, "pitch": 84, "duration": 6, "velocity": 127}, {"time": 1680, "pitch": 74, "duration": 6, "velocity": 127}, {"time": 1686, "pitch": 70, "duration": 6, "velocity": 127}, {"time": 1692, "pitch": 77, "duration": 6, "velocity": 127}, {"time": 1698, "pitch": 65, "duration": 6, "velocity": 127}, {"time": 1704, "pitch": 70, "duration": 3, "velocity": 127}, {"time": 1707, "pitch": 65, "duration": 3, "velocity": 127}, {"time": 1710, "pitch": 67, "duration": 3, "velocity": 127}, {"time": 1713, "pitch": 69, "duration": 3, "velocity": 127}, {"time": 1716, "pitch": 70, "duration": 3, "velocity": 127}, {"time": 1719, "pitch": 72, "duration": 3, "velocity": 127}, {"time": 1722, "pitch": 74, "duration": 3, "velocity": 127}, {"time": 1725, "pitch": 76, "duration": 3, "velocity": 127}, {"time": 1728, "pitch": 77, "duration": 12, "velocity": 127}, {"time": 1755, "pitch": 65, "duration": 3, "velocity": 127}, {"time": 1758, "pitch": 67, "duration": 3, "velocity": 127}, {"time": 1761, "pitch": 69, "duration": 3, "velocity": 127}, {"time": 1764, "pitch": 70, "duration": 3, "velocity": 127}, {"time": 1767, "pitch": 74, "duration": 3, "velocity": 127}, {"time": 1770, "pitch": 76, "duration": 3, "velocity": 127}, {"time": 1773, "pitch": 77, "duration": 3, "velocity": 127}, {"time": 1776, "pitch": 79, "duration": 3, "velocity": 127}, {"time": 1779, "pitch": 79, "duration": 3, "velocity": 127}, {"time": 1782, "pitch": 81, "duration": 3, "velocity": 127}, {"time": 1785, "pitch": 82, "duration": 3, "velocity": 127}, {"time": 1788, "pitch": 84, "duration": 3, "velocity": 127}, {"time": 1791, "pitch": 72, "duration": 3, "velocity": 127}, {"time": 1794, "pitch": 74, "duration": 3, "velocity": 127}, {"time": 1797, "pitch": 76, "duration": 3, "velocity": 127}, {"time": 1800, "pitch": 77, "duration": 3, "velocity": 127}, {"time": 1803, "pitch": 77, "duration": 3, "velocity": 127}, {"time": 1806, "pitch": 79, "duration": 3, "velocity": 127}, {"time": 1809, "pitch": 81, "duration": 3, "velocity": 127}, {"time": 1812, "pitch": 82, "duration": 3, "velocity": 127}, {"time": 1815, "pitch": 70, "duration": 3, "velocity": 127}, {"time": 1818, "pitch": 72, "duration": 3, "velocity": 127}, {"time": 1821, "pitch": 74, "duration": 3, "velocity": 127}, {"time": 1824, "pitch": 76, "duration": 3, "velocity": 127}, {"time": 1827, "pitch": 76, "duration": 3, "velocity": 127}, {"time": 1830, "pitch": 77, "duration": 3, "velocity": 127}, {"time": 1833, "pitch": 79, "duration": 3, "velocity": 127}, {"time": 1836, "pitch": 81, "duration": 3, "velocity": 127}, {"time": 1839, "pitch": 69, "duration": 3, "velocity": 127}, {"time": 1842, "pitch": 71, "duration": 3, "velocity": 127}, {"time": 1845, "pitch": 72, "duration": 3, "velocity": 127}, {"time": 1848, "pitch": 74, "duration": 3, "velocity": 127}, {"time": 1851, "pitch": 72, "duration": 3, "velocity": 127}, {"time": 1854, "pitch": 74, "duration": 3, "velocity": 127}, {"time": 1857, "pitch": 76, "duration": 3, "velocity": 127}, {"time": 1860, "pitch": 74, "duration": 3, "velocity": 127}, {"time": 1863, "pitch": 76, "duration": 3, "velocity": 127}, {"time": 1866, "pitch": 77, "duration": 3, "velocity": 127}, {"time": 1869, "pitch": 79, "duration": 3, "velocity": 127}, {"time": 1872, "pitch": 72, "duration": 6, "velocity": 127}, {"time": 1878, "pitch": 74, "duration": 3, "velocity": 127}, {"time": 1881, "pitch": 76, "duration": 3, "velocity": 127}, {"time": 1884, "pitch": 77, "duration": 24, "velocity": 127}, {"time": 1908, "pitch": 76, "duration": 12, "velocity": 127}, {"time": 1926, "pitch": 77, "duration": 6, "velocity": 127}, {"time": 1932, "pitch": 76, "duration": 6, "velocity": 127}, {"time": 1938, "pitch": 72, "duration": 6, "velocity": 127}, {"time": 1944, "pitch": 77, "duration": 12, "velocity": 127}, {"time": 1956, "pitch": 89, "duration": 12, "velocity": 127}, {"time": 1974, "pitch": 88, "duration": 3, "velocity": 127}, {"time": 1977, "pitch": 86, "duration": 3, "velocity": 127}, {"time": 1980, "pitch": 84, "duration": 6, "velocity": 127}, {"time": 1986, "pitch": 86, "duration": 3, "velocity": 127}, {"time": 1989, "pitch": 88, "duration": 3, "velocity": 127}, {"time": 1992, "pitch": 77, "duration": 6, "velocity": 127}, {"time": 1998, "pitch": 86, "duration": 3, "velocity": 127}, {"time": 2001, "pitch": 84, "duration": 3, "velocity": 127}, {"time": 2004, "pitch": 83, "duration": 6, "velocity": 127}, {"time": 2010, "pitch": 84, "duration": 3, "velocity": 127}, {"time": 2013, "pitch": 86, "duration": 3, "velocity": 127}, {"time": 2016, "pitch": 76, "duration": 6, "velocity": 127}, {"time": 2022, "pitch": 84, "duration": 3, "velocity": 127}, {"time": 2025, "pitch": 83, "duration": 3, "velocity": 127}, {"time": 2028, "pitch": 81, "duration": 6, "velocity": 127}, {"time": 2034, "pitch": 83, "duration": 3, "velocity": 127}, {"time": 2037, "pitch": 84, "duration": 3, "velocity": 127}, {"time": 2040, "pitch": 77, "duration": 6, "velocity": 127}, {"time": 2046, "pitch": 83, "duration": 3, "velocity": 127}, {"time": 2049, "pitch": 81, "duration": 3, "velocity": 127}, {"time": 2052, "pitch": 79, "duration": 6, "velocity": 127}, {"time": 2058, "pitch": 81, "duration": 3, "velocity": 127}, {"time": 2061, "pitch": 83, "duration": 3, "velocity": 127}, {"time": 2064, "pitch": 72, "duration": 6, "velocity": 127}, {"time": 2070, "pitch": 74, "duration": 3, "velocity": 127}, {"time": 2073, "pitch": 76, "duration": 3, "velocity": 127}, {"time": 2076, "pitch": 77, "duration": 6, "velocity": 127}, {"time": 2082, "pitch": 76, "duration": 3, "velocity": 127}, {"time": 2085, "pitch": 74, "duration": 3, "velocity": 127}, {"time": 2088, "pitch": 76, "duration": 6, "velocity": 127}, {"time": 2094, "pitch": 84, "duration": 6, "velocity": 127}, {"time": 2100, "pitch": 74, "duration": 6, "velocity": 127}, {"time": 2106, "pitch": 83, "duration": 6, "velocity": 127}, {"time": 2112, "pitch": 72, "duration": 6, "velocity": 127}, {"time": 2118, "pitch": 74, "duration": 3, "velocity": 127}, {"time": 2121, "pitch": 76, "duration": 3, "velocity": 127}, {"time": 2124, "pitch": 77, "duration": 6, "velocity": 127}, {"time": 2130, "pitch": 76, "duration": 3, "velocity": 127}, {"time": 2133, "pitch": 74, "duration": 3, "velocity": 127}, {"time": 2136, "pitch": 76, "duration": 6, "velocity": 127}, {"time": 2142, "pitch": 77, "duration": 3, "velocity": 127}, {"time": 2145, "pitch": 79, "duration": 3, "velocity": 127}, {"time": 2148, "pitch": 81, "duration": 6, "velocity": 127}, {"time": 2154, "pitch": 79, "duration": 3, "velocity": 127}, {"time": 2157, "pitch": 77, "duration": 3, "velocity": 127}, {"time": 2160, "pitch": 79, "duration": 6, "velocity": 127}, {"time": 2166, "pitch": 72, "duration": 6, "velocity": 127}, {"time": 2178, "pitch": 69, "duration": 6, "velocity": 127}, {"time": 2184, "pitch": 70, "duration": 3, "velocity": 127}, {"time": 2187, "pitch": 69, "duration": 3, "velocity": 127}, {"time": 2190, "pitch": 70, "duration": 3, "velocity": 127}, {"time": 2193, "pitch": 72, "duration": 3, "velocity": 127}, {"time": 2196, "pitch": 74, "duration": 3, "velocity": 127}, {"time": 2199, "pitch": 72, "duration": 3, "velocity": 127}, {"time": 2202, "pitch": 74, "duration": 3, "velocity": 127}, {"time": 2205, "pitch": 76, "duration": 3, "velocity": 127}, {"time": 2208, "pitch": 77, "duration": 3, "velocity": 127}, {"time": 2211, "pitch": 76, "duration": 3, "velocity": 127}, {"time": 2214, "pitch": 77, "duration": 3, "velocity": 127}, {"time": 2217, "pitch": 79, "duration": 3, "velocity": 127}, {"time": 2220, "pitch": 81, "duration": 3, "velocity": 127}, {"time": 2223, "pitch": 79, "duration": 3, "velocity": 127}, {"time": 2226, "pitch": 81, "duration": 3, "velocity": 127}, {"time": 2229, "pitch": 82, "duration": 3, "velocity": 127}, {"time": 2232, "pitch": 84, "duration": 6, "velocity": 127}, {"time": 2238, "pitch": 72, "duration": 6, "velocity": 127}, {"time": 2244, "pitch": 74, "duration": 6, "velocity": 127}, {"time": 2250, "pitch": 70, "duration": 6, "velocity": 127}, {"time": 2256, "pitch": 72, "duration": 6, "velocity": 127}, {"time": 2262, "pitch": 69, "duration": 6, "velocity": 127}, {"time": 2268, "pitch": 70, "duration": 6, "velocity": 127}, {"time": 2274, "pitch": 72, "duration": 6, "velocity": 127}, {"time": 2283, "pitch": 65, "duration": 3, "velocity": 127}, {"time": 2286, "pitch": 67, "duration": 3, "velocity": 127}, {"time": 2289, "pitch": 69, "duration": 3, "velocity": 127}, {"time": 2292, "pitch": 70, "duration": 3, "velocity": 127}, {"time": 2295, "pitch": 69, "duration": 3, "velocity": 127}, {"time": 2298, "pitch": 70, "duration": 3, "velocity": 127}, {"time": 2301, "pitch": 72, "duration": 3, "velocity": 127}, {"time": 2304, "pitch": 77, "duration": 3, "velocity": 127}, {"time": 2307, "pitch": 65, "duration": 3, "velocity": 127}, {"time": 2310, "pitch": 67, "duration": 3, "velocity": 127}, {"time": 2313, "pitch": 69, "duration": 3, "velocity": 127}, {"time": 2316, "pitch": 70, "duration": 3, "velocity": 127}, {"time": 2319, "pitch": 69, "duration": 3, "velocity": 127}, {"time": 2322, "pitch": 70, "duration": 3, "velocity": 127}, {"time": 2325, "pitch": 72, "duration": 3, "velocity": 127}, {"time": 2328, "pitch": 74, "duration": 3, "velocity": 127}, {"time": 2331, "pitch": 72, "duration": 3, "velocity": 127}, {"time": 2334, "pitch": 74, "duration": 3, "velocity": 127}, {"time": 2337, "pitch": 76, "duration": 3, "velocity": 127}, {"time": 2340, "pitch": 77, "duration": 3, "velocity": 127}, {"time": 2343, "pitch": 69, "duration": 3, "velocity": 127}, {"time": 2346, "pitch": 70, "duration": 3, "velocity": 127}, {"time": 2349, "pitch": 72, "duration": 3, "velocity": 127}, {"time": 2352, "pitch": 74, "duration": 3, "velocity": 127}, {"time": 2355, "pitch": 72, "duration": 3, "velocity": 127}, {"time": 2358, "pitch": 74, "duration": 3, "velocity": 127}, {"time": 2361, "pitch": 76, "duration": 3, "velocity": 127}, {"time": 2364, "pitch": 77, "duration": 3, "velocity": 127}, {"time": 2367, "pitch": 76, "duration": 3, "velocity": 127}, {"time": 2370, "pitch": 77, "duration": 3, "velocity": 127}, {"time": 2373, "pitch": 79, "duration": 3, "velocity": 127}, {"time": 2376, "pitch": 81, "duration": 3, "velocity": 127}, {"time": 2379, "pitch": 72, "duration": 3, "velocity": 127}, {"time": 2382, "pitch": 74, "duration": 3, "velocity": 127}, {"time": 2385, "pitch": 76, "duration": 3, "velocity": 127}, {"time": 2388, "pitch": 77, "duration": 3, "velocity": 127}, {"time": 2391, "pitch": 76, "duration": 3, "velocity": 127}, {"time": 2394, "pitch": 77, "duration": 3, "velocity": 127}, {"time": 2397, "pitch": 79, "duration": 3, "velocity": 127}, {"time": 2400, "pitch": 81, "duration": 6, "velocity": 127}, {"time": 2406, "pitch": 79, "duration": 6, "velocity": 127}, {"time": 2412, "pitch": 81, "duration": 6, "velocity": 127}, {"time": 2418, "pitch": 74, "duration": 6, "velocity": 127}, {"time": 2424, "pitch": 72, "duration": 6, "velocity": 127}, {"time": 2430, "pitch": 77, "duration": 6, "velocity": 127}, {"time": 2436, "pitch": 70, "duration": 6, "velocity": 127}, {"time": 2442, "pitch": 72, "duration": 6, "velocity": 127}, {"time": 2448, "pitch": 65, "duration": 24, "velocity": 127}], "annotations": [{"time": 0, "annotation": {"number": 7, "value": 100}, "group": "control_change"}, {"time": 0, "annotation": {"number": 10, "value": 64}, "group": "control_change"}, {"time": 0, "annotation": {"number": 91, "value": 0}, "group": "control_change"}, {"time": 0, "annotation": {"number": 93, "value": 0}, "group": "control_change"}]}]}