{"metadata": {"schema_version": "0.2"}, "resolution": 24, "tracks": [{"program": 7, "is_drum": false, "notes": [{"time": 0, "pitch": 77, "duration": 3, "velocity": 127}, {"time": 3, "pitch": 79, "duration": 3, "velocity": 127}, {"time": 6, "pitch": 81, "duration": 3, "velocity": 127}, {"time": 9, "pitch": 82, "duration": 3, "velocity": 127}, {"time": 12, "pitch": 84, "duration": 6, "velocity": 127}, {"time": 18, "pitch": 86, "duration": 3, "velocity": 127}, {"time": 21, "pitch": 88, "duration": 3, "velocity": 127}, {"time": 24, "pitch": 89, "duration": 6, "velocity": 127}, {"time": 30, "pitch": 77, "duration": 6, "velocity": 127}, {"time": 42, "pitch": 76, "duration": 6, "velocity": 127}, {"time": 48, "pitch": 74, "duration": 3, "velocity": 127}, {"time": 51, "pitch": 76, "duration": 3, "velocity": 127}, {"time": 54, "pitch": 77, "duration": 3, "velocity": 127}, {"time": 57, "pitch": 79, "duration": 3, "velocity": 127}, {"time": 60, "pitch": 81, "duration": 6, "velocity": 127}, {"time": 66, "pitch": 82, "duration": 3, "velocity": 127}, {"time": 69, "pitch": 84, "duration": 3, "velocity": 127}, {"time": 72, "pitch": 86, "duration": 6, "velocity": 127}, {"time": 78, "pitch": 74, "duration": 6, "velocity": 127}, {"time": 90, "pitch": 72, "duration": 6, "velocity": 127}, {"time": 96, "pitch": 70, "duration": 3, "velocity": 127}, {"time": 99, "pitch": 72, "duration": 3, "velocity": 127}, {"time": 102, "pitch": 74, "duration": 3, "velocity": 127}, {"time": 105, "pitch": 76, "duration": 3, "velocity": 127}, {"time": 108, "pitch": 77, "duration": 6, "velocity": 127}, {"time": 114, "pitch": 79, "duration": 3, "velocity": 127}, {"time": 117, "pitch": 81, "duration": 3, "velocity": 127}, {"time": 120, "pitch": 82, "duration": 6, "velocity": 127}, {"time": 126, "pitch": 70, "duration": 6, "velocity": 127}, {"time": 138, "pitch": 69, "duration": 6, "velocity": 127}, {"time": 144, "pitch": 67, "duration": 3, "velocity": 127}, {"time": 147, "pitch": 74, "duration": 3, "velocity": 127}, {"time": 150, "pitch": 72, "duration": 3, "velocity": 127}, {"time": 153, "pitch": 70, "duration": 3, "velocity": 127}, {"time": 156, "pitch": 82, "duration": 3, "velocity": 127}, {"time": 159, "pitch": 74, "duration": 3, "velocity": 127}, {"time": 162, "pitch": 72, "duration": 3, "velocity": 127}, {"time": 165, "pitch": 70, "duration": 3, "velocity": 127}, {"time": 168, "pitch": 76, "duration": 3, "velocity": 127}, {"time": 171, "pitch": 79, "duration": 3, "velocity": 127}, {"time": 174, "pitch": 77, "duration": 3, "velocity": 127}, {"time": 177, "pitch": 76, "duration": 3, "velocity": 127}, {"time": 180, "pitch": 82, "duration": 3, "velocity": 127}, {"time": 183, "pitch": 79, "duration": 3, "velocity": 127}, {"time": 186, "pitch": 77, "duration": 3, "velocity": 127}, {"time": 189, "pitch": 76, "duration": 3, "velocity": 127}, {"time": 192, "pitch": 81, "duration": 3, "velocity": 127}, {"time": 195, "pitch": 69, "duration": 3, "velocity": 127}, {"time": 198, "pitch": 67, "duration": 3, "velocity": 127}, {"time": 201, "pitch": 65, "duration": 3, "velocity": 127}, {"time": 204, "pitch": 72, "duration": 3, "velocity": 127}, {"time": 207, "pitch": 69, "duration": 3, "velocity": 127}, {"time": 210, "pitch": 67, "duration": 3, "velocity": 127}, {"time": 213, "pitch": 65, "duration": 3, "velocity": 127}, {"time": 216, "pitch": 82, "duration": 3, "velocity": 127}, {"time": 219, "pitch": 81, "duration": 3, "velocity": 127}, {"time": 222, "pitch": 79, "duration": 3, "velocity": 127}, {"time": 225, "pitch": 77, "duration": 3, "velocity": 127}, {"time": 228, "pitch": 86, "duration": 3, "velocity": 127}, {"time": 231, "pitch": 84, "duration": 3, "velocity": 127}, {"time": 234, "pitch": 82, "duration": 3, "velocity": 127}, {"time": 237, "pitch": 81, "duration": 3, "velocity": 127}, {"time": 240, "pitch": 82, "duration": 12, "velocity": 127}, {"time": 258, "pitch": 81, "duration": 3, "velocity": 127}, {"time": 261, "pitch": 79, "duration": 3, "velocity": 127}, {"time": 264, "pitch": 81, "duration": 3, "velocity": 127}, {"time": 267, "pitch": 82, "duration": 3, "velocity": 127}, {"time": 270, "pitch": 84, "duration": 3, "velocity": 127}, {"time": 273, "pitch": 86, "duration": 3, "velocity": 127}, {"time": 276, "pitch": 76, "duration": 9, "velocity": 127}, {"time": 285, "pitch": 77, "duration": 3, "velocity": 127}, {"time": 288, "pitch": 77, "duration": 3, "velocity": 127}, {"time": 291, "pitch": 79, "duration": 3, "velocity": 127}, {"time": 294, "pitch": 81, "duration": 3, "velocity": 127}, {"time": 297, "pitch": 82, "duration": 3, "velocity": 127}, {"time": 300, "pitch": 84, "duration": 6, "velocity": 127}, {"time": 306, "pitch": 86, "duration": 3, "velocity": 127}, {"time": 309, "pitch": 88, "duration": 3, "velocity": 127}, {"time": 312, "pitch": 89, "duration": 6, "velocity": 127}, {"time": 318, "pitch": 77, "duration": 6, "velocity": 127}, {"time": 330, "pitch": 76, "duration": 6, "velocity": 127}, {"time": 336, "pitch": 74, "duration": 3, "velocity": 127}, {"time": 339, "pitch": 72, "duration": 3, "velocity": 127}, {"time": 342, "pitch": 74, "duration": 3, "velocity": 127}, {"time": 345, "pitch": 71, "duration": 3, "velocity": 127}, {"time": 348, "pitch": 72, "duration": 3, "velocity": 127}, {"time": 351, "pitch": 71, "duration": 3, "velocity": 127}, {"time": 354, "pitch": 72, "duration": 3, "velocity": 127}, {"time": 357, "pitch": 69, "duration": 3, "velocity": 127}, {"time": 360, "pitch": 71, "duration": 3, "velocity": 127}, {"time": 363, "pitch": 69, "duration": 3, "velocity": 127}, {"time": 366, "pitch": 67, "duration": 6, "velocity": 127}, {"time": 378, "pitch": 78, "duration": 6, "velocity": 127}, {"time": 384, "pitch": 79, "duration": 3, "velocity": 127}, {"time": 387, "pitch": 78, "duration": 3, "velocity": 127}, {"time": 390, "pitch": 79, "duration": 3, "velocity": 127}, {"time": 393, "pitch": 77, "duration": 3, "velocity": 127}, {"time": 396, "pitch": 79, "duration": 3, "velocity": 127}, {"time": 399, "pitch": 78, "duration": 3, "velocity": 127}, {"time": 402, "pitch": 79, "duration": 3, "velocity": 127}, {"time": 405, "pitch": 79, "duration": 3, "velocity": 127}, {"time": 408, "pitch": 79, "duration": 3, "velocity": 127}, {"time": 411, "pitch": 76, "duration": 3, "velocity": 127}, {"time": 414, "pitch": 77, "duration": 6, "velocity": 127}, {"time": 426, "pitch": 77, "duration": 6, "velocity": 127}, {"time": 432, "pitch": 77, "duration": 3, "velocity": 127}, {"time": 435, "pitch": 76, "duration": 3, "velocity": 127}, {"time": 438, "pitch": 77, "duration": 3, "velocity": 127}, {"time": 441, "pitch": 67, "duration": 3, "velocity": 127}, {"time": 444, "pitch": 77, "duration": 3, "velocity": 127}, {"time": 447, "pitch": 76, "duration": 3, "velocity": 127}, {"time": 450, "pitch": 77, "duration": 3, "velocity": 127}, {"time": 453, "pitch": 77, "duration": 3, "velocity": 127}, {"time": 456, "pitch": 77, "duration": 3, "velocity": 127}, {"time": 459, "pitch": 74, "duration": 3, "velocity": 127}, {"time": 462, "pitch": 76, "duration": 6, "velocity": 127}, {"time": 474, "pitch": 76, "duration": 6, "velocity": 127}, {"time": 480, "pitch": 76, "duration": 3, "velocity": 127}, {"time": 483, "pitch": 74, "duration": 3, "velocity": 127}, {"time": 486, "pitch": 76, "duration": 3, "velocity": 127}, {"time": 489, "pitch": 69, "duration": 3, "velocity": 127}, {"time": 492, "pitch": 74, "duration": 3, "velocity": 127}, {"time": 495, "pitch": 72, "duration": 3, "velocity": 127}, {"time": 498, "pitch": 74, "duration": 3, "velocity": 127}, {"time": 501, "pitch": 71, "duration": 3, "velocity": 127}, {"time": 504, "pitch": 72, "duration": 3, "velocity": 127}, {"time": 507, "pitch": 79, "duration": 3, "velocity": 127}, {"time": 510, "pitch": 84, "duration": 3, "velocity": 127}, {"time": 513, "pitch": 86, "duration": 3, "velocity": 127}, {"time": 516, "pitch": 83, "duration": 9, "velocity": 127}, {"time": 525, "pitch": 84, "duration": 3, "velocity": 127}, {"time": 528, "pitch": 84, "duration": 12, "velocity": 127}, {"time": 558, "pitch": 76, "duration": 3, "velocity": 127}, {"time": 561, "pitch": 77, "duration": 3, "velocity": 127}, {"time": 564, "pitch": 79, "duration": 3, "velocity": 127}, {"time": 567, "pitch": 76, "duration": 3, "velocity": 127}, {"time": 570, "pitch": 77, "duration": 3, "velocity": 127}, {"time": 573, "pitch": 74, "duration": 3, "velocity": 127}, {"time": 576, "pitch": 76, "duration": 3, "velocity": 127}, {"time": 579, "pitch": 74, "duration": 3, "velocity": 127}, {"time": 582, "pitch": 72, "duration": 6, "velocity": 127}, {"time": 594, "pitch": 73, "duration": 6, "velocity": 127}, {"time": 600, "pitch": 74, "duration": 3, "velocity": 127}, {"time": 603, "pitch": 76, "duration": 3, "velocity": 127}, {"time": 606, "pitch": 77, "duration": 3, "velocity": 127}, {"time": 609, "pitch": 79, "duration": 3, "velocity": 127}, {"time": 612, "pitch": 81, "duration": 3, "velocity": 127}, {"time": 615, "pitch": 82, "duration": 1, "velocity": 127}, {"time": 616, "pitch": 84, "duration": 2, "velocity": 127}, {"time": 618, "pitch": 82, "duration": 3, "velocity": 127}, {"time": 621, "pitch": 81, "duration": 3, "velocity": 127}, {"time": 624, "pitch": 82, "duration": 3, "velocity": 127}, {"time": 627, "pitch": 86, "duration": 3, "velocity": 127}, {"time": 630, "pitch": 81, "duration": 3, "velocity": 127}, {"time": 633, "pitch": 86, "duration": 3, "velocity": 127}, {"time": 636, "pitch": 82, "duration": 3, "velocity": 127}, {"time": 639, "pitch": 86, "duration": 3, "velocity": 127}, {"time": 642, "pitch": 78, "duration": 3, "velocity": 127}, {"time": 645, "pitch": 86, "duration": 3, "velocity": 127}, {"time": 648, "pitch": 79, "duration": 6, "velocity": 127}, {"time": 654, "pitch": 78, "duration": 6, "velocity": 127}, {"time": 660, "pitch": 79, "duration": 6, "velocity": 127}, {"time": 666, "pitch": 81, "duration": 6, "velocity": 127}, {"time": 672, "pitch": 82, "duration": 3, "velocity": 127}, {"time": 675, "pitch": 86, "duration": 3, "velocity": 127}, {"time": 678, "pitch": 81, "duration": 3, "velocity": 127}, {"time": 681, "pitch": 86, "duration": 3, "velocity": 127}, {"time": 684, "pitch": 82, "duration": 3, "velocity": 127}, {"time": 687, "pitch": 86, "duration": 3, "velocity": 127}, {"time": 690, "pitch": 81, "duration": 3, "velocity": 127}, {"time": 693, "pitch": 86, "duration": 3, "velocity": 127}, {"time": 696, "pitch": 82, "duration": 3, "velocity": 127}, {"time": 699, "pitch": 81, "duration": 3, "velocity": 127}, {"time": 702, "pitch": 79, "duration": 3, "velocity": 127}, {"time": 705, "pitch": 81, "duration": 3, "velocity": 127}, {"time": 708, "pitch": 81, "duration": 9, "velocity": 127}, {"time": 717, "pitch": 79, "duration": 3, "velocity": 127}, {"time": 720, "pitch": 79, "duration": 12, "velocity": 127}, {"time": 744, "pitch": 72, "duration": 3, "velocity": 127}, {"time": 747, "pitch": 74, "duration": 3, "velocity": 127}, {"time": 750, "pitch": 76, "duration": 3, "velocity": 127}, {"time": 753, "pitch": 77, "duration": 3, "velocity": 127}, {"time": 756, "pitch": 79, "duration": 3, "velocity": 127}, {"time": 759, "pitch": 81, "duration": 3, "velocity": 127}, {"time": 762, "pitch": 82, "duration": 3, "velocity": 127}, {"time": 765, "pitch": 84, "duration": 3, "velocity": 127}, {"time": 768, "pitch": 81, "duration": 3, "velocity": 127}, {"time": 771, "pitch": 82, "duration": 3, "velocity": 127}, {"time": 774, "pitch": 84, "duration": 6, "velocity": 127}, {"time": 783, "pitch": 81, "duration": 3, "velocity": 127}, {"time": 786, "pitch": 82, "duration": 3, "velocity": 127}, {"time": 789, "pitch": 79, "duration": 3, "velocity": 127}, {"time": 792, "pitch": 77, "duration": 3, "velocity": 127}, {"time": 795, "pitch": 79, "duration": 3, "velocity": 127}, {"time": 798, "pitch": 81, "duration": 3, "velocity": 127}, {"time": 801, "pitch": 82, "duration": 3, "velocity": 127}, {"time": 804, "pitch": 84, "duration": 6, "velocity": 127}, {"time": 810, "pitch": 86, "duration": 3, "velocity": 127}, {"time": 813, "pitch": 88, "duration": 3, "velocity": 127}, {"time": 816, "pitch": 89, "duration": 6, "velocity": 127}, {"time": 822, "pitch": 77, "duration": 6, "velocity": 127}, {"time": 834, "pitch": 76, "duration": 6, "velocity": 127}, {"time": 840, "pitch": 74, "duration": 3, "velocity": 127}, {"time": 843, "pitch": 76, "duration": 3, "velocity": 127}, {"time": 846, "pitch": 77, "duration": 3, "velocity": 127}, {"time": 849, "pitch": 79, "duration": 3, "velocity": 127}, {"time": 852, "pitch": 81, "duration": 6, "velocity": 127}, {"time": 858, "pitch": 82, "duration": 3, "velocity": 127}, {"time": 861, "pitch": 84, "duration": 3, "velocity": 127}, {"time": 864, "pitch": 86, "duration": 6, "velocity": 127}, {"time": 870, "pitch": 74, "duration": 6, "velocity": 127}, {"time": 882, "pitch": 72, "duration": 6, "velocity": 127}, {"time": 888, "pitch": 70, "duration": 3, "velocity": 127}, {"time": 891, "pitch": 72, "duration": 3, "velocity": 127}, {"time": 894, "pitch": 74, "duration": 3, "velocity": 127}, {"time": 897, "pitch": 76, "duration": 3, "velocity": 127}, {"time": 900, "pitch": 77, "duration": 6, "velocity": 127}, {"time": 906, "pitch": 79, "duration": 3, "velocity": 127}, {"time": 909, "pitch": 81, "duration": 3, "velocity": 127}, {"time": 912, "pitch": 82, "duration": 6, "velocity": 127}, {"time": 918, "pitch": 70, "duration": 6, "velocity": 127}, {"time": 930, "pitch": 81, "duration": 6, "velocity": 127}, {"time": 936, "pitch": 79, "duration": 3, "velocity": 127}, {"time": 939, "pitch": 77, "duration": 3, "velocity": 127}, {"time": 942, "pitch": 79, "duration": 3, "velocity": 127}, {"time": 945, "pitch": 76, "duration": 3, "velocity": 127}, {"time": 948, "pitch": 77, "duration": 3, "velocity": 127}, {"time": 951, "pitch": 76, "duration": 3, "velocity": 127}, {"time": 954, "pitch": 77, "duration": 3, "velocity": 127}, {"time": 957, "pitch": 74, "duration": 3, "velocity": 127}, {"time": 960, "pitch": 76, "duration": 3, "velocity": 127}, {"time": 963, "pitch": 74, "duration": 3, "velocity": 127}, {"time": 966, "pitch": 72, "duration": 6, "velocity": 127}, {"time": 978, "pitch": 72, "duration": 6, "velocity": 127}, {"time": 984, "pitch": 74, "duration": 3, "velocity": 127}, {"time": 987, "pitch": 72, "duration": 3, "velocity": 127}, {"time": 990, "pitch": 74, "duration": 3, "velocity": 127}, {"time": 993, "pitch": 70, "duration": 3, "velocity": 127}, {"time": 996, "pitch": 74, "duration": 3, "velocity": 127}, {"time": 999, "pitch": 72, "duration": 3, "velocity": 127}, {"time": 1002, "pitch": 74, "duration": 3, "velocity": 127}, {"time": 1005, "pitch": 77, "duration": 3, "velocity": 127}, {"time": 1008, "pitch": 76, "duration": 3, "velocity": 127}, {"time": 1011, "pitch": 77, "duration": 3, "velocity": 127}, {"time": 1014, "pitch": 79, "duration": 6, "velocity": 127}, {"time": 1023, "pitch": 77, "duration": 3, "velocity": 127}, {"time": 1026, "pitch": 79, "duration": 3, "velocity": 127}, {"time": 1029, "pitch": 76, "duration": 3, "velocity": 127}, {"time": 1032, "pitch": 72, "duration": 3, "velocity": 127}, {"time": 1035, "pitch": 76, "duration": 3, "velocity": 127}, {"time": 1038, "pitch": 77, "duration": 3, "velocity": 127}, {"time": 1041, "pitch": 72, "duration": 3, "velocity": 127}, {"time": 1044, "pitch": 77, "duration": 3, "velocity": 127}, {"time": 1047, "pitch": 76, "duration": 3, "velocity": 127}, {"time": 1050, "pitch": 77, "duration": 3, "velocity": 127}, {"time": 1053, "pitch": 65, "duration": 3, "velocity": 127}, {"time": 1056, "pitch": 70, "duration": 12, "velocity": 127}, {"time": 1068, "pitch": 70, "duration": 3, "velocity": 127}, {"time": 1071, "pitch": 69, "duration": 3, "velocity": 127}, {"time": 1074, "pitch": 70, "duration": 3, "velocity": 127}, {"time": 1077, "pitch": 67, "duration": 3, "velocity": 127}, {"time": 1080, "pitch": 69, "duration": 3, "velocity": 127}, {"time": 1083, "pitch": 76, "duration": 3, "velocity": 127}, {"time": 1086, "pitch": 77, "duration": 3, "velocity": 127}, {"time": 1089, "pitch": 82, "duration": 3, "velocity": 127}, {"time": 1092, "pitch": 79, "duration": 9, "velocity": 127}, {"time": 1101, "pitch": 77, "duration": 3, "velocity": 127}, {"time": 1104, "pitch": 77, "duration": 3, "velocity": 127}, {"time": 1107, "pitch": 74, "duration": 3, "velocity": 127}, {"time": 1110, "pitch": 73, "duration": 3, "velocity": 127}, {"time": 1113, "pitch": 74, "duration": 3, "velocity": 127}, {"time": 1116, "pitch": 86, "duration": 3, "velocity": 127}, {"time": 1119, "pitch": 74, "duration": 3, "velocity": 127}, {"time": 1122, "pitch": 72, "duration": 3, "velocity": 127}, {"time": 1125, "pitch": 71, "duration": 3, "velocity": 127}, {"time": 1128, "pitch": 76, "duration": 3, "velocity": 127}, {"time": 1131, "pitch": 72, "duration": 3, "velocity": 127}, {"time": 1134, "pitch": 71, "duration": 3, "velocity": 127}, {"time": 1137, "pitch": 72, "duration": 3, "velocity": 127}, {"time": 1140, "pitch": 84, "duration": 3, "velocity": 127}, {"time": 1143, "pitch": 72, "duration": 3, "velocity": 127}, {"time": 1146, "pitch": 70, "duration": 3, "velocity": 127}, {"time": 1149, "pitch": 69, "duration": 3, "velocity": 127}, {"time": 1152, "pitch": 74, "duration": 3, "velocity": 127}, {"time": 1155, "pitch": 70, "duration": 3, "velocity": 127}, {"time": 1158, "pitch": 69, "duration": 3, "velocity": 127}, {"time": 1161, "pitch": 70, "duration": 3, "velocity": 127}, {"time": 1164, "pitch": 82, "duration": 3, "velocity": 127}, {"time": 1167, "pitch": 70, "duration": 3, "velocity": 127}, {"time": 1170, "pitch": 69, "duration": 3, "velocity": 127}, {"time": 1173, "pitch": 67, "duration": 3, "velocity": 127}, {"time": 1176, "pitch": 72, "duration": 3, "velocity": 127}, {"time": 1179, "pitch": 69, "duration": 3, "velocity": 127}, {"time": 1182, "pitch": 67, "duration": 3, "velocity": 127}, {"time": 1185, "pitch": 69, "duration": 3, "velocity": 127}, {"time": 1188, "pitch": 81, "duration": 3, "velocity": 127}, {"time": 1191, "pitch": 69, "duration": 3, "velocity": 127}, {"time": 1194, "pitch": 67, "duration": 3, "velocity": 127}, {"time": 1197, "pitch": 65, "duration": 3, "velocity": 127}, {"time": 1200, "pitch": 70, "duration": 3, "velocity": 127}, {"time": 1203, "pitch": 82, "duration": 3, "velocity": 127}, {"time": 1206, "pitch": 81, "duration": 3, "velocity": 127}, {"time": 1209, "pitch": 82, "duration": 3, "velocity": 127}, {"time": 1212, "pitch": 86, "duration": 3, "velocity": 127}, {"time": 1215, "pitch": 82, "duration": 3, "velocity": 127}, {"time": 1218, "pitch": 81, "duration": 3, "velocity": 127}, {"time": 1221, "pitch": 82, "duration": 3, "velocity": 127}, {"time": 1224, "pitch": 88, "duration": 12, "velocity": 127}, {"time": 1239, "pitch": 82, "duration": 3, "velocity": 127}, {"time": 1242, "pitch": 81, "duration": 3, "velocity": 127}, {"time": 1245, "pitch": 79, "duration": 3, "velocity": 127}, {"time": 1248, "pitch": 81, "duration": 3, "velocity": 127}, {"time": 1251, "pitch": 76, "duration": 3, "velocity": 127}, {"time": 1254, "pitch": 77, "duration": 3, "velocity": 127}, {"time": 1257, "pitch": 74, "duration": 3, "velocity": 127}, {"time": 1260, "pitch": 76, "duration": 9, "velocity": 127}, {"time": 1269, "pitch": 77, "duration": 3, "velocity": 127}, {"time": 1272, "pitch": 77, "duration": 12, "velocity": 127}], "annotations": [{"time": 0, "annotation": {"number": 7, "value": 100}, "group": "control_change"}, {"time": 0, "annotation": {"number": 10, "value": 64}, "group": "control_change"}, {"time": 0, "annotation": {"number": 91, "value": 0}, "group": "control_change"}, {"time": 0, "annotation": {"number": 93, "value": 0}, "group": "control_change"}]}]}