{"metadata": {"schema_version": "0.2"}, "resolution": 24, "tracks": [{"program": 41, "is_drum": false, "notes": [{"time": 0, "pitch": 62, "duration": 6, "velocity": 127}, {"time": 6, "pitch": 67, "duration": 12, "velocity": 127}, {"time": 18, "pitch": 66, "duration": 6, "velocity": 127}, {"time": 24, "pitch": 59, "duration": 6, "velocity": 127}, {"time": 30, "pitch": 64, "duration": 12, "velocity": 127}, {"time": 42, "pitch": 62, "duration": 6, "velocity": 127}, {"time": 48, "pitch": 55, "duration": 6, "velocity": 127}, {"time": 54, "pitch": 60, "duration": 12, "velocity": 127}, {"time": 66, "pitch": 59, "duration": 6, "velocity": 127}, {"time": 72, "pitch": 64, "duration": 12, "velocity": 127}, {"time": 84, "pitch": 62, "duration": 12, "velocity": 127}, {"time": 96, "pitch": 60, "duration": 6, "velocity": 127}, {"time": 102, "pitch": 59, "duration": 3, "velocity": 127}, {"time": 105, "pitch": 57, "duration": 3, "velocity": 127}, {"time": 108, "pitch": 59, "duration": 6, "velocity": 127}, {"time": 114, "pitch": 55, "duration": 6, "velocity": 127}, {"time": 120, "pitch": 54, "duration": 12, "velocity": 127}, {"time": 132, "pitch": 55, "duration": 12, "velocity": 127}, {"time": 144, "pitch": 57, "duration": 6, "velocity": 127}, {"time": 150, "pitch": 62, "duration": 6, "velocity": 127}, {"time": 156, "pitch": 59, "duration": 6, "velocity": 127}, {"time": 162, "pitch": 55, "duration": 6, "velocity": 127}, {"time": 168, "pitch": 50, "duration": 12, "velocity": 127}, {"time": 192, "pitch": 62, "duration": 6, "velocity": 127}, {"time": 198, "pitch": 67, "duration": 12, "velocity": 127}, {"time": 210, "pitch": 66, "duration": 6, "velocity": 127}, {"time": 216, "pitch": 59, "duration": 6, "velocity": 127}, {"time": 222, "pitch": 64, "duration": 12, "velocity": 127}, {"time": 234, "pitch": 62, "duration": 6, "velocity": 127}, {"time": 240, "pitch": 62, "duration": 6, "velocity": 127}, {"time": 246, "pitch": 60, "duration": 12, "velocity": 127}, {"time": 258, "pitch": 59, "duration": 6, "velocity": 127}, {"time": 264, "pitch": 64, "duration": 12, "velocity": 127}, {"time": 276, "pitch": 62, "duration": 12, "velocity": 127}, {"time": 288, "pitch": 60, "duration": 6, "velocity": 127}, {"time": 294, "pitch": 59, "duration": 3, "velocity": 127}, {"time": 297, "pitch": 57, "duration": 3, "velocity": 127}, {"time": 300, "pitch": 59, "duration": 6, "velocity": 127}, {"time": 306, "pitch": 55, "duration": 6, "velocity": 127}, {"time": 312, "pitch": 54, "duration": 12, "velocity": 127}, {"time": 324, "pitch": 55, "duration": 12, "velocity": 127}, {"time": 336, "pitch": 57, "duration": 6, "velocity": 127}, {"time": 342, "pitch": 62, "duration": 6, "velocity": 127}, {"time": 348, "pitch": 59, "duration": 6, "velocity": 127}, {"time": 354, "pitch": 55, "duration": 6, "velocity": 127}, {"time": 360, "pitch": 50, "duration": 12, "velocity": 127}, {"time": 372, "pitch": 62, "duration": 12, "velocity": 127}, {"time": 384, "pitch": 62, "duration": 6, "velocity": 127}, {"time": 390, "pitch": 60, "duration": 3, "velocity": 127}, {"time": 393, "pitch": 59, "duration": 3, "velocity": 127}, {"time": 396, "pitch": 60, "duration": 6, "velocity": 127}, {"time": 402, "pitch": 59, "duration": 3, "velocity": 127}, {"time": 405, "pitch": 57, "duration": 3, "velocity": 127}, {"time": 408, "pitch": 59, "duration": 6, "velocity": 127}, {"time": 414, "pitch": 57, "duration": 3, "velocity": 127}, {"time": 417, "pitch": 55, "duration": 3, "velocity": 127}, {"time": 420, "pitch": 57, "duration": 6, "velocity": 127}, {"time": 426, "pitch": 55, "duration": 3, "velocity": 127}, {"time": 429, "pitch": 54, "duration": 3, "velocity": 127}, {"time": 432, "pitch": 55, "duration": 6, "velocity": 127}, {"time": 438, "pitch": 59, "duration": 6, "velocity": 127}, {"time": 444, "pitch": 60, "duration": 6, "velocity": 127}, {"time": 450, "pitch": 62, "duration": 6, "velocity": 127}, {"time": 456, "pitch": 55, "duration": 12, "velocity": 127}, {"time": 480, "pitch": 55, "duration": 3, "velocity": 127}, {"time": 483, "pitch": 57, "duration": 3, "velocity": 127}, {"time": 486, "pitch": 59, "duration": 6, "velocity": 127}, {"time": 492, "pitch": 59, "duration": 3, "velocity": 127}, {"time": 495, "pitch": 57, "duration": 3, "velocity": 127}, {"time": 498, "pitch": 55, "duration": 6, "velocity": 127}, {"time": 504, "pitch": 62, "duration": 6, "velocity": 127}, {"time": 510, "pitch": 62, "duration": 6, "velocity": 127}, {"time": 516, "pitch": 62, "duration": 6, "velocity": 127}, {"time": 522, "pitch": 67, "duration": 6, "velocity": 127}, {"time": 528, "pitch": 66, "duration": 3, "velocity": 127}, {"time": 531, "pitch": 67, "duration": 3, "velocity": 127}, {"time": 534, "pitch": 69, "duration": 6, "velocity": 127}, {"time": 540, "pitch": 71, "duration": 3, "velocity": 127}, {"time": 543, "pitch": 69, "duration": 3, "velocity": 127}, {"time": 546, "pitch": 67, "duration": 6, "velocity": 127}, {"time": 552, "pitch": 69, "duration": 6, "velocity": 127}, {"time": 558, "pitch": 62, "duration": 6, "velocity": 127}, {"time": 564, "pitch": 62, "duration": 6, "velocity": 127}, {"time": 570, "pitch": 64, "duration": 6, "velocity": 127}, {"time": 576, "pitch": 66, "duration": 3, "velocity": 127}, {"time": 579, "pitch": 67, "duration": 3, "velocity": 127}, {"time": 582, "pitch": 66, "duration": 6, "velocity": 127}, {"time": 588, "pitch": 66, "duration": 6, "velocity": 127}, {"time": 594, "pitch": 67, "duration": 6, "velocity": 127}, {"time": 600, "pitch": 69, "duration": 3, "velocity": 127}, {"time": 603, "pitch": 71, "duration": 3, "velocity": 127}, {"time": 606, "pitch": 69, "duration": 6, "velocity": 127}, {"time": 612, "pitch": 69, "duration": 6, "velocity": 127}, {"time": 618, "pitch": 71, "duration": 6, "velocity": 127}, {"time": 624, "pitch": 61, "duration": 12, "velocity": 127}, {"time": 636, "pitch": 62, "duration": 12, "velocity": 127}, {"time": 648, "pitch": 64, "duration": 6, "velocity": 127}, {"time": 654, "pitch": 57, "duration": 6, "velocity": 127}, {"time": 660, "pitch": 66, "duration": 6, "velocity": 127}, {"time": 666, "pitch": 57, "duration": 6, "velocity": 127}, {"time": 672, "pitch": 67, "duration": 12, "velocity": 127}, {"time": 684, "pitch": 69, "duration": 6, "velocity": 127}, {"time": 690, "pitch": 67, "duration": 3, "velocity": 127}, {"time": 693, "pitch": 66, "duration": 3, "velocity": 127}, {"time": 696, "pitch": 71, "duration": 6, "velocity": 127}, {"time": 702, "pitch": 59, "duration": 6, "velocity": 127}, {"time": 708, "pitch": 69, "duration": 12, "velocity": 127}, {"time": 720, "pitch": 67, "duration": 6, "velocity": 127}, {"time": 726, "pitch": 66, "duration": 3, "velocity": 127}, {"time": 729, "pitch": 64, "duration": 3, "velocity": 127}, {"time": 732, "pitch": 66, "duration": 6, "velocity": 127}, {"time": 738, "pitch": 62, "duration": 6, "velocity": 127}, {"time": 744, "pitch": 61, "duration": 12, "velocity": 127}, {"time": 756, "pitch": 62, "duration": 12, "velocity": 127}, {"time": 768, "pitch": 64, "duration": 6, "velocity": 127}, {"time": 774, "pitch": 69, "duration": 6, "velocity": 127}, {"time": 780, "pitch": 66, "duration": 6, "velocity": 127}, {"time": 786, "pitch": 62, "duration": 6, "velocity": 127}, {"time": 792, "pitch": 57, "duration": 12, "velocity": 127}, {"time": 804, "pitch": 69, "duration": 12, "velocity": 127}, {"time": 816, "pitch": 69, "duration": 6, "velocity": 127}, {"time": 822, "pitch": 67, "duration": 3, "velocity": 127}, {"time": 825, "pitch": 66, "duration": 3, "velocity": 127}, {"time": 828, "pitch": 67, "duration": 6, "velocity": 127}, {"time": 834, "pitch": 66, "duration": 3, "velocity": 127}, {"time": 837, "pitch": 64, "duration": 3, "velocity": 127}, {"time": 840, "pitch": 66, "duration": 6, "velocity": 127}, {"time": 846, "pitch": 64, "duration": 3, "velocity": 127}, {"time": 849, "pitch": 62, "duration": 3, "velocity": 127}, {"time": 852, "pitch": 64, "duration": 6, "velocity": 127}, {"time": 858, "pitch": 62, "duration": 3, "velocity": 127}, {"time": 861, "pitch": 61, "duration": 3, "velocity": 127}, {"time": 864, "pitch": 62, "duration": 6, "velocity": 127}, {"time": 870, "pitch": 54, "duration": 6, "velocity": 127}, {"time": 876, "pitch": 55, "duration": 6, "velocity": 127}, {"time": 882, "pitch": 57, "duration": 6, "velocity": 127}, {"time": 888, "pitch": 50, "duration": 12, "velocity": 127}, {"time": 912, "pitch": 62, "duration": 6, "velocity": 127}, {"time": 918, "pitch": 67, "duration": 12, "velocity": 127}, {"time": 930, "pitch": 66, "duration": 6, "velocity": 127}, {"time": 936, "pitch": 59, "duration": 6, "velocity": 127}, {"time": 942, "pitch": 64, "duration": 12, "velocity": 127}, {"time": 954, "pitch": 62, "duration": 6, "velocity": 127}, {"time": 960, "pitch": 55, "duration": 6, "velocity": 127}, {"time": 966, "pitch": 60, "duration": 12, "velocity": 127}, {"time": 978, "pitch": 59, "duration": 6, "velocity": 127}, {"time": 984, "pitch": 64, "duration": 12, "velocity": 127}, {"time": 996, "pitch": 62, "duration": 12, "velocity": 127}, {"time": 1008, "pitch": 60, "duration": 6, "velocity": 127}, {"time": 1014, "pitch": 59, "duration": 3, "velocity": 127}, {"time": 1017, "pitch": 57, "duration": 3, "velocity": 127}, {"time": 1020, "pitch": 59, "duration": 6, "velocity": 127}, {"time": 1026, "pitch": 55, "duration": 6, "velocity": 127}, {"time": 1032, "pitch": 54, "duration": 12, "velocity": 127}, {"time": 1044, "pitch": 55, "duration": 12, "velocity": 127}, {"time": 1056, "pitch": 57, "duration": 6, "velocity": 127}, {"time": 1062, "pitch": 62, "duration": 6, "velocity": 127}, {"time": 1068, "pitch": 59, "duration": 6, "velocity": 127}, {"time": 1074, "pitch": 55, "duration": 6, "velocity": 127}, {"time": 1080, "pitch": 50, "duration": 12, "velocity": 127}, {"time": 1104, "pitch": 62, "duration": 6, "velocity": 127}, {"time": 1110, "pitch": 67, "duration": 12, "velocity": 127}, {"time": 1122, "pitch": 66, "duration": 6, "velocity": 127}, {"time": 1128, "pitch": 59, "duration": 6, "velocity": 127}, {"time": 1134, "pitch": 64, "duration": 12, "velocity": 127}, {"time": 1146, "pitch": 62, "duration": 6, "velocity": 127}, {"time": 1152, "pitch": 55, "duration": 6, "velocity": 127}, {"time": 1158, "pitch": 60, "duration": 12, "velocity": 127}, {"time": 1170, "pitch": 59, "duration": 6, "velocity": 127}, {"time": 1176, "pitch": 64, "duration": 12, "velocity": 127}, {"time": 1188, "pitch": 62, "duration": 12, "velocity": 127}, {"time": 1200, "pitch": 60, "duration": 6, "velocity": 127}, {"time": 1206, "pitch": 59, "duration": 3, "velocity": 127}, {"time": 1209, "pitch": 57, "duration": 3, "velocity": 127}, {"time": 1212, "pitch": 59, "duration": 6, "velocity": 127}, {"time": 1218, "pitch": 55, "duration": 6, "velocity": 127}, {"time": 1224, "pitch": 54, "duration": 12, "velocity": 127}, {"time": 1236, "pitch": 55, "duration": 12, "velocity": 127}, {"time": 1248, "pitch": 57, "duration": 6, "velocity": 127}, {"time": 1254, "pitch": 62, "duration": 6, "velocity": 127}, {"time": 1260, "pitch": 59, "duration": 6, "velocity": 127}, {"time": 1266, "pitch": 55, "duration": 6, "velocity": 127}, {"time": 1272, "pitch": 50, "duration": 12, "velocity": 127}, {"time": 1284, "pitch": 62, "duration": 12, "velocity": 127}, {"time": 1296, "pitch": 62, "duration": 6, "velocity": 127}, {"time": 1302, "pitch": 60, "duration": 3, "velocity": 127}, {"time": 1305, "pitch": 59, "duration": 3, "velocity": 127}, {"time": 1308, "pitch": 60, "duration": 6, "velocity": 127}, {"time": 1314, "pitch": 59, "duration": 3, "velocity": 127}, {"time": 1317, "pitch": 57, "duration": 3, "velocity": 127}, {"time": 1320, "pitch": 59, "duration": 6, "velocity": 127}, {"time": 1326, "pitch": 57, "duration": 3, "velocity": 127}, {"time": 1329, "pitch": 55, "duration": 3, "velocity": 127}, {"time": 1332, "pitch": 57, "duration": 6, "velocity": 127}, {"time": 1338, "pitch": 55, "duration": 3, "velocity": 127}, {"time": 1341, "pitch": 54, "duration": 3, "velocity": 127}, {"time": 1344, "pitch": 55, "duration": 6, "velocity": 127}, {"time": 1350, "pitch": 59, "duration": 6, "velocity": 127}, {"time": 1356, "pitch": 60, "duration": 6, "velocity": 127}, {"time": 1362, "pitch": 62, "duration": 6, "velocity": 127}, {"time": 1368, "pitch": 55, "duration": 12, "velocity": 127}, {"time": 1392, "pitch": 67, "duration": 6, "velocity": 127}, {"time": 1398, "pitch": 67, "duration": 3, "velocity": 127}, {"time": 1401, "pitch": 66, "duration": 3, "velocity": 127}, {"time": 1404, "pitch": 67, "duration": 6, "velocity": 127}, {"time": 1410, "pitch": 69, "duration": 6, "velocity": 127}, {"time": 1416, "pitch": 71, "duration": 12, "velocity": 127}, {"time": 1428, "pitch": 64, "duration": 12, "velocity": 127}, {"time": 1440, "pitch": 63, "duration": 6, "velocity": 127}, {"time": 1446, "pitch": 59, "duration": 6, "velocity": 127}, {"time": 1452, "pitch": 67, "duration": 6, "velocity": 127}, {"time": 1458, "pitch": 64, "duration": 6, "velocity": 127}, {"time": 1464, "pitch": 71, "duration": 12, "velocity": 127}, {"time": 1476, "pitch": 64, "duration": 12, "velocity": 127}, {"time": 1488, "pitch": 63, "duration": 6, "velocity": 127}, {"time": 1494, "pitch": 59, "duration": 6, "velocity": 127}, {"time": 1500, "pitch": 67, "duration": 12, "velocity": 127}, {"time": 1512, "pitch": 66, "duration": 12, "velocity": 127}, {"time": 1524, "pitch": 59, "duration": 6, "velocity": 127}, {"time": 1530, "pitch": 61, "duration": 3, "velocity": 127}, {"time": 1533, "pitch": 59, "duration": 3, "velocity": 127}, {"time": 1536, "pitch": 58, "duration": 6, "velocity": 127}, {"time": 1542, "pitch": 54, "duration": 6, "velocity": 127}, {"time": 1548, "pitch": 62, "duration": 12, "velocity": 127}, {"time": 1560, "pitch": 61, "duration": 12, "velocity": 127}, {"time": 1572, "pitch": 59, "duration": 6, "velocity": 127}, {"time": 1578, "pitch": 61, "duration": 3, "velocity": 127}, {"time": 1581, "pitch": 59, "duration": 3, "velocity": 127}, {"time": 1584, "pitch": 58, "duration": 6, "velocity": 127}, {"time": 1590, "pitch": 54, "duration": 6, "velocity": 127}, {"time": 1596, "pitch": 62, "duration": 12, "velocity": 127}, {"time": 1608, "pitch": 61, "duration": 12, "velocity": 127}, {"time": 1620, "pitch": 59, "duration": 6, "velocity": 127}, {"time": 1626, "pitch": 61, "duration": 3, "velocity": 127}, {"time": 1629, "pitch": 62, "duration": 3, "velocity": 127}, {"time": 1632, "pitch": 64, "duration": 6, "velocity": 127}, {"time": 1638, "pitch": 62, "duration": 3, "velocity": 127}, {"time": 1641, "pitch": 61, "duration": 3, "velocity": 127}, {"time": 1644, "pitch": 62, "duration": 6, "velocity": 127}, {"time": 1650, "pitch": 64, "duration": 3, "velocity": 127}, {"time": 1653, "pitch": 66, "duration": 3, "velocity": 127}, {"time": 1656, "pitch": 67, "duration": 12, "velocity": 127}, {"time": 1668, "pitch": 66, "duration": 12, "velocity": 127}, {"time": 1680, "pitch": 64, "duration": 6, "velocity": 127}, {"time": 1686, "pitch": 71, "duration": 6, "velocity": 127}, {"time": 1692, "pitch": 70, "duration": 6, "velocity": 127}, {"time": 1698, "pitch": 69, "duration": 6, "velocity": 127}, {"time": 1704, "pitch": 68, "duration": 6, "velocity": 127}, {"time": 1710, "pitch": 67, "duration": 6, "velocity": 127}, {"time": 1716, "pitch": 66, "duration": 6, "velocity": 127}, {"time": 1722, "pitch": 59, "duration": 6, "velocity": 127}, {"time": 1728, "pitch": 64, "duration": 12, "velocity": 127}, {"time": 1740, "pitch": 62, "duration": 12, "velocity": 127}, {"time": 1752, "pitch": 61, "duration": 6, "velocity": 127}, {"time": 1758, "pitch": 59, "duration": 3, "velocity": 127}, {"time": 1761, "pitch": 58, "duration": 3, "velocity": 127}, {"time": 1764, "pitch": 59, "duration": 6, "velocity": 127}, {"time": 1770, "pitch": 66, "duration": 6, "velocity": 127}, {"time": 1776, "pitch": 54, "duration": 6, "velocity": 127}, {"time": 1782, "pitch": 66, "duration": 6, "velocity": 127}, {"time": 1788, "pitch": 54, "duration": 6, "velocity": 127}, {"time": 1794, "pitch": 66, "duration": 6, "velocity": 127}, {"time": 1800, "pitch": 66, "duration": 6, "velocity": 127}, {"time": 1806, "pitch": 64, "duration": 3, "velocity": 127}, {"time": 1809, "pitch": 62, "duration": 3, "velocity": 127}, {"time": 1812, "pitch": 64, "duration": 6, "velocity": 127}, {"time": 1818, "pitch": 62, "duration": 3, "velocity": 127}, {"time": 1821, "pitch": 61, "duration": 3, "velocity": 127}, {"time": 1824, "pitch": 62, "duration": 6, "velocity": 127}, {"time": 1830, "pitch": 61, "duration": 3, "velocity": 127}, {"time": 1833, "pitch": 59, "duration": 3, "velocity": 127}, {"time": 1836, "pitch": 61, "duration": 6, "velocity": 127}, {"time": 1842, "pitch": 59, "duration": 3, "velocity": 127}, {"time": 1845, "pitch": 58, "duration": 3, "velocity": 127}, {"time": 1848, "pitch": 59, "duration": 6, "velocity": 127}, {"time": 1854, "pitch": 50, "duration": 6, "velocity": 127}, {"time": 1860, "pitch": 52, "duration": 6, "velocity": 127}, {"time": 1866, "pitch": 54, "duration": 6, "velocity": 127}, {"time": 1872, "pitch": 59, "duration": 12, "velocity": 127}, {"time": 1890, "pitch": 57, "duration": 6, "velocity": 127}, {"time": 1896, "pitch": 55, "duration": 6, "velocity": 127}, {"time": 1902, "pitch": 57, "duration": 3, "velocity": 127}, {"time": 1905, "pitch": 59, "duration": 3, "velocity": 127}, {"time": 1908, "pitch": 60, "duration": 3, "velocity": 127}, {"time": 1911, "pitch": 64, "duration": 3, "velocity": 127}, {"time": 1914, "pitch": 62, "duration": 3, "velocity": 127}, {"time": 1917, "pitch": 60, "duration": 3, "velocity": 127}, {"time": 1920, "pitch": 62, "duration": 6, "velocity": 127}, {"time": 1926, "pitch": 67, "duration": 12, "velocity": 127}, {"time": 1938, "pitch": 66, "duration": 6, "velocity": 127}, {"time": 1944, "pitch": 59, "duration": 6, "velocity": 127}, {"time": 1950, "pitch": 64, "duration": 12, "velocity": 127}, {"time": 1962, "pitch": 62, "duration": 6, "velocity": 127}, {"time": 1968, "pitch": 55, "duration": 6, "velocity": 127}, {"time": 1974, "pitch": 60, "duration": 12, "velocity": 127}, {"time": 1986, "pitch": 59, "duration": 6, "velocity": 127}, {"time": 1992, "pitch": 64, "duration": 12, "velocity": 127}, {"time": 2004, "pitch": 62, "duration": 12, "velocity": 127}, {"time": 2016, "pitch": 60, "duration": 6, "velocity": 127}, {"time": 2022, "pitch": 59, "duration": 3, "velocity": 127}, {"time": 2025, "pitch": 57, "duration": 3, "velocity": 127}, {"time": 2028, "pitch": 59, "duration": 6, "velocity": 127}, {"time": 2034, "pitch": 55, "duration": 6, "velocity": 127}, {"time": 2040, "pitch": 54, "duration": 12, "velocity": 127}, {"time": 2052, "pitch": 55, "duration": 12, "velocity": 127}, {"time": 2064, "pitch": 57, "duration": 6, "velocity": 127}, {"time": 2070, "pitch": 62, "duration": 6, "velocity": 127}, {"time": 2076, "pitch": 59, "duration": 6, "velocity": 127}, {"time": 2082, "pitch": 55, "duration": 6, "velocity": 127}, {"time": 2088, "pitch": 50, "duration": 12, "velocity": 127}, {"time": 2112, "pitch": 62, "duration": 6, "velocity": 127}, {"time": 2118, "pitch": 67, "duration": 12, "velocity": 127}, {"time": 2130, "pitch": 66, "duration": 6, "velocity": 127}, {"time": 2136, "pitch": 59, "duration": 6, "velocity": 127}, {"time": 2142, "pitch": 64, "duration": 12, "velocity": 127}, {"time": 2154, "pitch": 62, "duration": 6, "velocity": 127}, {"time": 2160, "pitch": 55, "duration": 6, "velocity": 127}, {"time": 2166, "pitch": 60, "duration": 12, "velocity": 127}, {"time": 2178, "pitch": 59, "duration": 6, "velocity": 127}, {"time": 2184, "pitch": 64, "duration": 12, "velocity": 127}, {"time": 2196, "pitch": 62, "duration": 12, "velocity": 127}, {"time": 2208, "pitch": 60, "duration": 6, "velocity": 127}, {"time": 2214, "pitch": 59, "duration": 3, "velocity": 127}, {"time": 2217, "pitch": 57, "duration": 3, "velocity": 127}, {"time": 2220, "pitch": 59, "duration": 6, "velocity": 127}, {"time": 2226, "pitch": 55, "duration": 6, "velocity": 127}, {"time": 2232, "pitch": 54, "duration": 12, "velocity": 127}, {"time": 2244, "pitch": 55, "duration": 12, "velocity": 127}, {"time": 2256, "pitch": 57, "duration": 6, "velocity": 127}, {"time": 2262, "pitch": 62, "duration": 6, "velocity": 127}, {"time": 2268, "pitch": 59, "duration": 6, "velocity": 127}, {"time": 2274, "pitch": 55, "duration": 6, "velocity": 127}, {"time": 2280, "pitch": 55, "duration": 12, "velocity": 127}, {"time": 2292, "pitch": 62, "duration": 12, "velocity": 127}, {"time": 2304, "pitch": 62, "duration": 6, "velocity": 127}, {"time": 2310, "pitch": 60, "duration": 3, "velocity": 127}, {"time": 2313, "pitch": 59, "duration": 3, "velocity": 127}, {"time": 2316, "pitch": 60, "duration": 6, "velocity": 127}, {"time": 2322, "pitch": 59, "duration": 3, "velocity": 127}, {"time": 2325, "pitch": 57, "duration": 3, "velocity": 127}, {"time": 2328, "pitch": 59, "duration": 6, "velocity": 127}, {"time": 2334, "pitch": 57, "duration": 3, "velocity": 127}, {"time": 2337, "pitch": 55, "duration": 3, "velocity": 127}, {"time": 2340, "pitch": 57, "duration": 6, "velocity": 127}, {"time": 2346, "pitch": 55, "duration": 3, "velocity": 127}, {"time": 2349, "pitch": 54, "duration": 3, "velocity": 127}, {"time": 2352, "pitch": 55, "duration": 6, "velocity": 127}, {"time": 2358, "pitch": 59, "duration": 6, "velocity": 127}, {"time": 2364, "pitch": 60, "duration": 6, "velocity": 127}, {"time": 2370, "pitch": 62, "duration": 6, "velocity": 127}, {"time": 2376, "pitch": 55, "duration": 12, "velocity": 127}], "annotations": [{"time": 0, "annotation": {"number": 7, "value": 100}, "group": "control_change"}, {"time": 0, "annotation": {"number": 10, "value": 64}, "group": "control_change"}, {"time": 0, "annotation": {"number": 91, "value": 0}, "group": "control_change"}, {"time": 0, "annotation": {"number": 93, "value": 0}, "group": "control_change"}]}]}