{"metadata": {"schema_version": "0.2"}, "resolution": 24, "tracks": [{"program": 74, "is_drum": false, "notes": [{"time": 0, "pitch": 74, "duration": 6, "velocity": 127}, {"time": 6, "pitch": 76, "duration": 6, "velocity": 127}, {"time": 12, "pitch": 77, "duration": 6, "velocity": 127}, {"time": 18, "pitch": 76, "duration": 6, "velocity": 127}, {"time": 24, "pitch": 74, "duration": 6, "velocity": 127}, {"time": 30, "pitch": 72, "duration": 6, "velocity": 127}, {"time": 36, "pitch": 70, "duration": 6, "velocity": 127}, {"time": 42, "pitch": 69, "duration": 6, "velocity": 127}, {"time": 48, "pitch": 67, "duration": 6, "velocity": 127}, {"time": 54, "pitch": 69, "duration": 6, "velocity": 127}, {"time": 60, "pitch": 70, "duration": 6, "velocity": 127}, {"time": 66, "pitch": 67, "duration": 6, "velocity": 127}, {"time": 72, "pitch": 69, "duration": 12, "velocity": 127}, {"time": 96, "pitch": 73, "duration": 12, "velocity": 127}, {"time": 108, "pitch": 74, "duration": 12, "velocity": 127}, {"time": 120, "pitch": 81, "duration": 12, "velocity": 127}, {"time": 132, "pitch": 81, "duration": 12, "velocity": 127}, {"time": 144, "pitch": 86, "duration": 36, "velocity": 127}, {"time": 180, "pitch": 86, "duration": 6, "velocity": 127}, {"time": 186, "pitch": 85, "duration": 6, "velocity": 127}, {"time": 192, "pitch": 86, "duration": 6, "velocity": 127}, {"time": 198, "pitch": 88, "duration": 6, "velocity": 127}, {"time": 204, "pitch": 81, "duration": 6, "velocity": 127}, {"time": 210, "pitch": 79, "duration": 6, "velocity": 127}, {"time": 216, "pitch": 77, "duration": 6, "velocity": 127}, {"time": 222, "pitch": 76, "duration": 6, "velocity": 127}, {"time": 228, "pitch": 74, "duration": 6, "velocity": 127}, {"time": 234, "pitch": 72, "duration": 6, "velocity": 127}, {"time": 240, "pitch": 74, "duration": 6, "velocity": 127}, {"time": 246, "pitch": 70, "duration": 6, "velocity": 127}, {"time": 252, "pitch": 72, "duration": 6, "velocity": 127}, {"time": 258, "pitch": 76, "duration": 6, "velocity": 127}, {"time": 264, "pitch": 77, "duration": 6, "velocity": 127}, {"time": 270, "pitch": 76, "duration": 6, "velocity": 127}, {"time": 276, "pitch": 77, "duration": 6, "velocity": 127}, {"time": 282, "pitch": 65, "duration": 6, "velocity": 127}, {"time": 288, "pitch": 70, "duration": 12, "velocity": 127}, {"time": 300, "pitch": 70, "duration": 18, "velocity": 127}, {"time": 318, "pitch": 69, "duration": 6, "velocity": 127}, {"time": 324, "pitch": 69, "duration": 6, "velocity": 127}, {"time": 330, "pitch": 74, "duration": 6, "velocity": 127}, {"time": 336, "pitch": 73, "duration": 6, "velocity": 127}, {"time": 342, "pitch": 77, "duration": 6, "velocity": 127}, {"time": 348, "pitch": 76, "duration": 6, "velocity": 127}, {"time": 354, "pitch": 79, "duration": 6, "velocity": 127}, {"time": 360, "pitch": 78, "duration": 12, "velocity": 127}, {"time": 372, "pitch": 78, "duration": 18, "velocity": 127}, {"time": 390, "pitch": 76, "duration": 3, "velocity": 127}, {"time": 393, "pitch": 78, "duration": 3, "velocity": 127}, {"time": 396, "pitch": 79, "duration": 6, "velocity": 127}, {"time": 402, "pitch": 86, "duration": 6, "velocity": 127}, {"time": 408, "pitch": 79, "duration": 6, "velocity": 127}, {"time": 414, "pitch": 77, "duration": 6, "velocity": 127}, {"time": 420, "pitch": 75, "duration": 6, "velocity": 127}, {"time": 426, "pitch": 72, "duration": 6, "velocity": 127}, {"time": 432, "pitch": 77, "duration": 6, "velocity": 127}, {"time": 438, "pitch": 84, "duration": 6, "velocity": 127}, {"time": 444, "pitch": 77, "duration": 6, "velocity": 127}, {"time": 450, "pitch": 75, "duration": 6, "velocity": 127}, {"time": 456, "pitch": 74, "duration": 6, "velocity": 127}, {"time": 462, "pitch": 70, "duration": 6, "velocity": 127}, {"time": 468, "pitch": 75, "duration": 6, "velocity": 127}, {"time": 474, "pitch": 74, "duration": 6, "velocity": 127}, {"time": 480, "pitch": 72, "duration": 6, "velocity": 127}, {"time": 486, "pitch": 78, "duration": 6, "velocity": 127}, {"time": 492, "pitch": 79, "duration": 6, "velocity": 127}, {"time": 498, "pitch": 70, "duration": 6, "velocity": 127}, {"time": 504, "pitch": 75, "duration": 6, "velocity": 127}, {"time": 510, "pitch": 72, "duration": 6, "velocity": 127}, {"time": 516, "pitch": 74, "duration": 6, "velocity": 127}, {"time": 522, "pitch": 70, "duration": 6, "velocity": 127}, {"time": 528, "pitch": 72, "duration": 6, "velocity": 127}, {"time": 534, "pitch": 74, "duration": 6, "velocity": 127}, {"time": 540, "pitch": 67, "duration": 6, "velocity": 127}, {"time": 546, "pitch": 72, "duration": 6, "velocity": 127}, {"time": 552, "pitch": 71, "duration": 6, "velocity": 127}, {"time": 558, "pitch": 76, "duration": 6, "velocity": 127}, {"time": 564, "pitch": 74, "duration": 6, "velocity": 127}, {"time": 570, "pitch": 77, "duration": 6, "velocity": 127}, {"time": 576, "pitch": 76, "duration": 12, "velocity": 127}, {"time": 588, "pitch": 76, "duration": 18, "velocity": 127}, {"time": 606, "pitch": 74, "duration": 3, "velocity": 127}, {"time": 609, "pitch": 76, "duration": 3, "velocity": 127}, {"time": 612, "pitch": 77, "duration": 6, "velocity": 127}, {"time": 618, "pitch": 72, "duration": 6, "velocity": 127}, {"time": 624, "pitch": 77, "duration": 18, "velocity": 127}, {"time": 642, "pitch": 77, "duration": 6, "velocity": 127}, {"time": 648, "pitch": 77, "duration": 6, "velocity": 127}, {"time": 654, "pitch": 74, "duration": 6, "velocity": 127}, {"time": 660, "pitch": 76, "duration": 18, "velocity": 127}, {"time": 678, "pitch": 76, "duration": 6, "velocity": 127}, {"time": 684, "pitch": 76, "duration": 6, "velocity": 127}, {"time": 690, "pitch": 73, "duration": 6, "velocity": 127}, {"time": 696, "pitch": 74, "duration": 6, "velocity": 127}, {"time": 702, "pitch": 76, "duration": 6, "velocity": 127}, {"time": 708, "pitch": 77, "duration": 6, "velocity": 127}, {"time": 714, "pitch": 76, "duration": 6, "velocity": 127}, {"time": 720, "pitch": 77, "duration": 6, "velocity": 127}, {"time": 726, "pitch": 74, "duration": 6, "velocity": 127}, {"time": 732, "pitch": 76, "duration": 6, "velocity": 127}, {"time": 738, "pitch": 74, "duration": 6, "velocity": 127}, {"time": 744, "pitch": 73, "duration": 6, "velocity": 127}, {"time": 750, "pitch": 74, "duration": 6, "velocity": 127}, {"time": 756, "pitch": 69, "duration": 12, "velocity": 127}, {"time": 798, "pitch": 69, "duration": 6, "velocity": 127}, {"time": 804, "pitch": 67, "duration": 6, "velocity": 127}, {"time": 810, "pitch": 70, "duration": 6, "velocity": 127}, {"time": 816, "pitch": 69, "duration": 6, "velocity": 127}, {"time": 822, "pitch": 74, "duration": 6, "velocity": 127}, {"time": 828, "pitch": 73, "duration": 12, "velocity": 127}, {"time": 846, "pitch": 74, "duration": 6, "velocity": 127}, {"time": 852, "pitch": 73, "duration": 6, "velocity": 127}, {"time": 858, "pitch": 77, "duration": 6, "velocity": 127}, {"time": 864, "pitch": 76, "duration": 6, "velocity": 127}, {"time": 870, "pitch": 82, "duration": 6, "velocity": 127}, {"time": 876, "pitch": 81, "duration": 6, "velocity": 127}, {"time": 882, "pitch": 79, "duration": 6, "velocity": 127}, {"time": 888, "pitch": 77, "duration": 6, "velocity": 127}, {"time": 894, "pitch": 76, "duration": 6, "velocity": 127}, {"time": 900, "pitch": 77, "duration": 12, "velocity": 127}, {"time": 912, "pitch": 82, "duration": 12, "velocity": 127}, {"time": 924, "pitch": 79, "duration": 12, "velocity": 127}, {"time": 936, "pitch": 76, "duration": 12, "velocity": 127}, {"time": 948, "pitch": 81, "duration": 12, "velocity": 127}, {"time": 960, "pitch": 77, "duration": 12, "velocity": 127}, {"time": 972, "pitch": 74, "duration": 12, "velocity": 127}, {"time": 984, "pitch": 79, "duration": 6, "velocity": 127}, {"time": 990, "pitch": 76, "duration": 6, "velocity": 127}, {"time": 996, "pitch": 77, "duration": 12, "velocity": 127}, {"time": 1014, "pitch": 79, "duration": 6, "velocity": 127}, {"time": 1020, "pitch": 77, "duration": 12, "velocity": 127}, {"time": 1032, "pitch": 76, "duration": 9, "velocity": 127}, {"time": 1041, "pitch": 74, "duration": 3, "velocity": 127}, {"time": 1044, "pitch": 74, "duration": 6, "velocity": 127}, {"time": 1050, "pitch": 81, "duration": 6, "velocity": 127}, {"time": 1056, "pitch": 74, "duration": 6, "velocity": 127}, {"time": 1062, "pitch": 72, "duration": 6, "velocity": 127}, {"time": 1068, "pitch": 70, "duration": 6, "velocity": 127}, {"time": 1074, "pitch": 67, "duration": 6, "velocity": 127}, {"time": 1080, "pitch": 72, "duration": 6, "velocity": 127}, {"time": 1086, "pitch": 79, "duration": 6, "velocity": 127}, {"time": 1092, "pitch": 72, "duration": 6, "velocity": 127}, {"time": 1098, "pitch": 70, "duration": 6, "velocity": 127}, {"time": 1104, "pitch": 69, "duration": 6, "velocity": 127}, {"time": 1110, "pitch": 65, "duration": 6, "velocity": 127}, {"time": 1116, "pitch": 70, "duration": 6, "velocity": 127}, {"time": 1122, "pitch": 69, "duration": 6, "velocity": 127}, {"time": 1128, "pitch": 67, "duration": 6, "velocity": 127}, {"time": 1134, "pitch": 73, "duration": 6, "velocity": 127}, {"time": 1140, "pitch": 74, "duration": 6, "velocity": 127}, {"time": 1146, "pitch": 65, "duration": 6, "velocity": 127}, {"time": 1152, "pitch": 70, "duration": 6, "velocity": 127}, {"time": 1158, "pitch": 67, "duration": 6, "velocity": 127}, {"time": 1164, "pitch": 69, "duration": 24, "velocity": 127}, {"time": 1188, "pitch": 74, "duration": 36, "velocity": 127}], "annotations": [{"time": 0, "annotation": {"number": 7, "value": 100}, "group": "control_change"}, {"time": 0, "annotation": {"number": 10, "value": 64}, "group": "control_change"}, {"time": 0, "annotation": {"number": 91, "value": 0}, "group": "control_change"}, {"time": 0, "annotation": {"number": 93, "value": 0}, "group": "control_change"}]}]}