{"metadata": {"schema_version": "0.2"}, "resolution": 24, "tracks": [{"program": 7, "is_drum": false, "notes": [{"time": 168, "pitch": 77, "duration": 12, "velocity": 127}, {"time": 180, "pitch": 84, "duration": 12, "velocity": 127}, {"time": 192, "pitch": 81, "duration": 6, "velocity": 127}, {"time": 198, "pitch": 83, "duration": 3, "velocity": 127}, {"time": 201, "pitch": 84, "duration": 3, "velocity": 127}, {"time": 204, "pitch": 86, "duration": 6, "velocity": 127}, {"time": 210, "pitch": 84, "duration": 6, "velocity": 127}, {"time": 216, "pitch": 83, "duration": 6, "velocity": 127}, {"time": 222, "pitch": 79, "duration": 6, "velocity": 127}, {"time": 228, "pitch": 88, "duration": 6, "velocity": 127}, {"time": 234, "pitch": 79, "duration": 6, "velocity": 127}, {"time": 240, "pitch": 81, "duration": 6, "velocity": 127}, {"time": 246, "pitch": 77, "duration": 6, "velocity": 127}, {"time": 252, "pitch": 86, "duration": 6, "velocity": 127}, {"time": 258, "pitch": 77, "duration": 6, "velocity": 127}, {"time": 264, "pitch": 79, "duration": 6, "velocity": 127}, {"time": 270, "pitch": 76, "duration": 6, "velocity": 127}, {"time": 276, "pitch": 84, "duration": 6, "velocity": 127}, {"time": 282, "pitch": 76, "duration": 6, "velocity": 127}, {"time": 288, "pitch": 77, "duration": 6, "velocity": 127}, {"time": 294, "pitch": 74, "duration": 6, "velocity": 127}, {"time": 300, "pitch": 83, "duration": 6, "velocity": 127}, {"time": 306, "pitch": 74, "duration": 6, "velocity": 127}, {"time": 312, "pitch": 76, "duration": 6, "velocity": 127}, {"time": 318, "pitch": 84, "duration": 6, "velocity": 127}, {"time": 324, "pitch": 74, "duration": 6, "velocity": 127}, {"time": 330, "pitch": 83, "duration": 6, "velocity": 127}, {"time": 336, "pitch": 84, "duration": 3, "velocity": 127}, {"time": 339, "pitch": 72, "duration": 3, "velocity": 127}, {"time": 342, "pitch": 74, "duration": 3, "velocity": 127}, {"time": 345, "pitch": 76, "duration": 3, "velocity": 127}, {"time": 348, "pitch": 77, "duration": 3, "velocity": 127}, {"time": 351, "pitch": 79, "duration": 3, "velocity": 127}, {"time": 354, "pitch": 81, "duration": 3, "velocity": 127}, {"time": 357, "pitch": 83, "duration": 3, "velocity": 127}, {"time": 360, "pitch": 84, "duration": 12, "velocity": 127}, {"time": 387, "pitch": 72, "duration": 3, "velocity": 127}, {"time": 390, "pitch": 74, "duration": 3, "velocity": 127}, {"time": 393, "pitch": 76, "duration": 3, "velocity": 127}, {"time": 396, "pitch": 77, "duration": 3, "velocity": 127}, {"time": 399, "pitch": 81, "duration": 3, "velocity": 127}, {"time": 402, "pitch": 83, "duration": 3, "velocity": 127}, {"time": 405, "pitch": 84, "duration": 3, "velocity": 127}, {"time": 408, "pitch": 86, "duration": 3, "velocity": 127}, {"time": 411, "pitch": 74, "duration": 3, "velocity": 127}, {"time": 414, "pitch": 76, "duration": 3, "velocity": 127}, {"time": 417, "pitch": 78, "duration": 3, "velocity": 127}, {"time": 420, "pitch": 79, "duration": 3, "velocity": 127}, {"time": 423, "pitch": 79, "duration": 3, "velocity": 127}, {"time": 426, "pitch": 81, "duration": 3, "velocity": 127}, {"time": 429, "pitch": 83, "duration": 3, "velocity": 127}, {"time": 432, "pitch": 84, "duration": 3, "velocity": 127}, {"time": 435, "pitch": 72, "duration": 3, "velocity": 127}, {"time": 438, "pitch": 74, "duration": 3, "velocity": 127}, {"time": 441, "pitch": 76, "duration": 3, "velocity": 127}, {"time": 444, "pitch": 78, "duration": 3, "velocity": 127}, {"time": 447, "pitch": 78, "duration": 3, "velocity": 127}, {"time": 450, "pitch": 79, "duration": 3, "velocity": 127}, {"time": 453, "pitch": 81, "duration": 3, "velocity": 127}, {"time": 456, "pitch": 83, "duration": 3, "velocity": 127}, {"time": 459, "pitch": 71, "duration": 3, "velocity": 127}, {"time": 462, "pitch": 72, "duration": 3, "velocity": 127}, {"time": 465, "pitch": 74, "duration": 3, "velocity": 127}, {"time": 468, "pitch": 76, "duration": 3, "velocity": 127}, {"time": 471, "pitch": 76, "duration": 3, "velocity": 127}, {"time": 474, "pitch": 78, "duration": 3, "velocity": 127}, {"time": 477, "pitch": 79, "duration": 3, "velocity": 127}, {"time": 480, "pitch": 81, "duration": 3, "velocity": 127}, {"time": 483, "pitch": 79, "duration": 3, "velocity": 127}, {"time": 486, "pitch": 81, "duration": 3, "velocity": 127}, {"time": 489, "pitch": 83, "duration": 3, "velocity": 127}, {"time": 492, "pitch": 81, "duration": 3, "velocity": 127}, {"time": 495, "pitch": 83, "duration": 3, "velocity": 127}, {"time": 498, "pitch": 84, "duration": 3, "velocity": 127}, {"time": 501, "pitch": 86, "duration": 3, "velocity": 127}, {"time": 504, "pitch": 79, "duration": 6, "velocity": 127}, {"time": 510, "pitch": 81, "duration": 3, "velocity": 127}, {"time": 513, "pitch": 83, "duration": 3, "velocity": 127}, {"time": 516, "pitch": 84, "duration": 12, "velocity": 127}, {"time": 528, "pitch": 84, "duration": 12, "velocity": 127}, {"time": 540, "pitch": 83, "duration": 12, "velocity": 127}, {"time": 552, "pitch": 84, "duration": 6, "velocity": 127}, {"time": 558, "pitch": 72, "duration": 6, "velocity": 127}, {"time": 564, "pitch": 69, "duration": 6, "velocity": 127}, {"time": 570, "pitch": 65, "duration": 6, "velocity": 127}, {"time": 576, "pitch": 70, "duration": 12, "velocity": 127}, {"time": 588, "pitch": 82, "duration": 12, "velocity": 127}, {"time": 606, "pitch": 81, "duration": 3, "velocity": 127}, {"time": 609, "pitch": 79, "duration": 3, "velocity": 127}, {"time": 612, "pitch": 77, "duration": 6, "velocity": 127}, {"time": 618, "pitch": 79, "duration": 3, "velocity": 127}, {"time": 621, "pitch": 81, "duration": 3, "velocity": 127}, {"time": 624, "pitch": 70, "duration": 6, "velocity": 127}, {"time": 630, "pitch": 79, "duration": 3, "velocity": 127}, {"time": 633, "pitch": 77, "duration": 3, "velocity": 127}, {"time": 636, "pitch": 76, "duration": 6, "velocity": 127}, {"time": 642, "pitch": 77, "duration": 3, "velocity": 127}, {"time": 645, "pitch": 79, "duration": 3, "velocity": 127}, {"time": 648, "pitch": 69, "duration": 6, "velocity": 127}, {"time": 654, "pitch": 77, "duration": 3, "velocity": 127}, {"time": 657, "pitch": 76, "duration": 3, "velocity": 127}, {"time": 660, "pitch": 74, "duration": 6, "velocity": 127}, {"time": 666, "pitch": 76, "duration": 3, "velocity": 127}, {"time": 669, "pitch": 77, "duration": 3, "velocity": 127}, {"time": 672, "pitch": 65, "duration": 6, "velocity": 127}, {"time": 678, "pitch": 76, "duration": 3, "velocity": 127}, {"time": 681, "pitch": 74, "duration": 3, "velocity": 127}, {"time": 684, "pitch": 72, "duration": 6, "velocity": 127}, {"time": 690, "pitch": 74, "duration": 3, "velocity": 127}, {"time": 693, "pitch": 76, "duration": 3, "velocity": 127}, {"time": 696, "pitch": 65, "duration": 6, "velocity": 127}, {"time": 702, "pitch": 67, "duration": 3, "velocity": 127}, {"time": 705, "pitch": 69, "duration": 3, "velocity": 127}, {"time": 708, "pitch": 70, "duration": 6, "velocity": 127}, {"time": 714, "pitch": 69, "duration": 3, "velocity": 127}, {"time": 717, "pitch": 67, "duration": 3, "velocity": 127}, {"time": 720, "pitch": 69, "duration": 6, "velocity": 127}, {"time": 726, "pitch": 70, "duration": 3, "velocity": 127}, {"time": 729, "pitch": 72, "duration": 3, "velocity": 127}, {"time": 732, "pitch": 74, "duration": 6, "velocity": 127}, {"time": 738, "pitch": 72, "duration": 3, "velocity": 127}, {"time": 741, "pitch": 70, "duration": 3, "velocity": 127}, {"time": 744, "pitch": 72, "duration": 6, "velocity": 127}, {"time": 750, "pitch": 74, "duration": 3, "velocity": 127}, {"time": 753, "pitch": 76, "duration": 3, "velocity": 127}, {"time": 756, "pitch": 77, "duration": 6, "velocity": 127}, {"time": 762, "pitch": 76, "duration": 3, "velocity": 127}, {"time": 765, "pitch": 74, "duration": 3, "velocity": 127}, {"time": 768, "pitch": 76, "duration": 6, "velocity": 127}, {"time": 774, "pitch": 77, "duration": 3, "velocity": 127}, {"time": 777, "pitch": 79, "duration": 3, "velocity": 127}, {"time": 780, "pitch": 81, "duration": 6, "velocity": 127}, {"time": 786, "pitch": 79, "duration": 3, "velocity": 127}, {"time": 789, "pitch": 77, "duration": 3, "velocity": 127}, {"time": 792, "pitch": 79, "duration": 6, "velocity": 127}, {"time": 798, "pitch": 72, "duration": 6, "velocity": 127}, {"time": 822, "pitch": 84, "duration": 6, "velocity": 127}, {"time": 828, "pitch": 84, "duration": 6, "velocity": 127}, {"time": 834, "pitch": 84, "duration": 6, "velocity": 127}, {"time": 840, "pitch": 81, "duration": 3, "velocity": 127}, {"time": 843, "pitch": 82, "duration": 3, "velocity": 127}, {"time": 846, "pitch": 84, "duration": 6, "velocity": 127}, {"time": 852, "pitch": 84, "duration": 6, "velocity": 127}, {"time": 858, "pitch": 84, "duration": 6, "velocity": 127}, {"time": 864, "pitch": 78, "duration": 6, "velocity": 127}, {"time": 870, "pitch": 84, "duration": 6, "velocity": 127}, {"time": 876, "pitch": 84, "duration": 6, "velocity": 127}, {"time": 882, "pitch": 84, "duration": 6, "velocity": 127}, {"time": 888, "pitch": 74, "duration": 6, "velocity": 127}, {"time": 894, "pitch": 86, "duration": 3, "velocity": 127}, {"time": 897, "pitch": 84, "duration": 3, "velocity": 127}, {"time": 900, "pitch": 86, "duration": 3, "velocity": 127}, {"time": 903, "pitch": 84, "duration": 3, "velocity": 127}, {"time": 906, "pitch": 82, "duration": 3, "velocity": 127}, {"time": 909, "pitch": 81, "duration": 3, "velocity": 127}, {"time": 912, "pitch": 82, "duration": 12, "velocity": 127}, {"time": 936, "pitch": 70, "duration": 12, "velocity": 127}, {"time": 960, "pitch": 69, "duration": 12, "velocity": 127}, {"time": 984, "pitch": 73, "duration": 12, "velocity": 127}, {"time": 1008, "pitch": 74, "duration": 3, "velocity": 127}, {"time": 1011, "pitch": 73, "duration": 3, "velocity": 127}, {"time": 1014, "pitch": 74, "duration": 3, "velocity": 127}, {"time": 1017, "pitch": 76, "duration": 3, "velocity": 127}, {"time": 1020, "pitch": 74, "duration": 3, "velocity": 127}, {"time": 1023, "pitch": 76, "duration": 3, "velocity": 127}, {"time": 1026, "pitch": 73, "duration": 3, "velocity": 127}, {"time": 1029, "pitch": 74, "duration": 3, "velocity": 127}, {"time": 1032, "pitch": 76, "duration": 3, "velocity": 127}, {"time": 1035, "pitch": 74, "duration": 3, "velocity": 127}, {"time": 1038, "pitch": 76, "duration": 3, "velocity": 127}, {"time": 1041, "pitch": 77, "duration": 3, "velocity": 127}, {"time": 1044, "pitch": 76, "duration": 3, "velocity": 127}, {"time": 1047, "pitch": 77, "duration": 3, "velocity": 127}, {"time": 1050, "pitch": 74, "duration": 3, "velocity": 127}, {"time": 1053, "pitch": 76, "duration": 3, "velocity": 127}, {"time": 1056, "pitch": 77, "duration": 6, "velocity": 127}, {"time": 1062, "pitch": 76, "duration": 6, "velocity": 127}, {"time": 1068, "pitch": 77, "duration": 6, "velocity": 127}, {"time": 1074, "pitch": 74, "duration": 6, "velocity": 127}, {"time": 1080, "pitch": 79, "duration": 6, "velocity": 127}, {"time": 1086, "pitch": 77, "duration": 6, "velocity": 127}, {"time": 1092, "pitch": 79, "duration": 6, "velocity": 127}, {"time": 1098, "pitch": 76, "duration": 6, "velocity": 127}, {"time": 1104, "pitch": 81, "duration": 12, "velocity": 127}, {"time": 1116, "pitch": 74, "duration": 6, "velocity": 127}, {"time": 1122, "pitch": 77, "duration": 6, "velocity": 127}, {"time": 1128, "pitch": 79, "duration": 12, "velocity": 127}, {"time": 1140, "pitch": 72, "duration": 6, "velocity": 127}, {"time": 1146, "pitch": 76, "duration": 6, "velocity": 127}, {"time": 1152, "pitch": 77, "duration": 12, "velocity": 127}, {"time": 1164, "pitch": 70, "duration": 6, "velocity": 127}, {"time": 1170, "pitch": 74, "duration": 6, "velocity": 127}, {"time": 1176, "pitch": 76, "duration": 12, "velocity": 127}, {"time": 1188, "pitch": 69, "duration": 6, "velocity": 127}, {"time": 1194, "pitch": 73, "duration": 6, "velocity": 127}, {"time": 1200, "pitch": 74, "duration": 6, "velocity": 127}, {"time": 1206, "pitch": 76, "duration": 3, "velocity": 127}, {"time": 1209, "pitch": 77, "duration": 3, "velocity": 127}, {"time": 1212, "pitch": 79, "duration": 6, "velocity": 127}, {"time": 1218, "pitch": 77, "duration": 3, "velocity": 127}, {"time": 1221, "pitch": 76, "duration": 3, "velocity": 127}, {"time": 1224, "pitch": 77, "duration": 6, "velocity": 127}, {"time": 1230, "pitch": 86, "duration": 6, "velocity": 127}, {"time": 1236, "pitch": 76, "duration": 6, "velocity": 127}, {"time": 1242, "pitch": 85, "duration": 6, "velocity": 127}, {"time": 1248, "pitch": 74, "duration": 6, "velocity": 127}, {"time": 1254, "pitch": 76, "duration": 3, "velocity": 127}, {"time": 1257, "pitch": 77, "duration": 3, "velocity": 127}, {"time": 1260, "pitch": 79, "duration": 6, "velocity": 127}, {"time": 1266, "pitch": 77, "duration": 3, "velocity": 127}, {"time": 1269, "pitch": 76, "duration": 3, "velocity": 127}, {"time": 1272, "pitch": 77, "duration": 9, "velocity": 127}, {"time": 1281, "pitch": 79, "duration": 3, "velocity": 127}, {"time": 1284, "pitch": 76, "duration": 12, "velocity": 127}, {"time": 1296, "pitch": 74, "duration": 12, "velocity": 127}, {"time": 1308, "pitch": 81, "duration": 6, "velocity": 127}, {"time": 1320, "pitch": 78, "duration": 6, "velocity": 127}, {"time": 1332, "pitch": 74, "duration": 6, "velocity": 127}, {"time": 1344, "pitch": 76, "duration": 6, "velocity": 127}, {"time": 1356, "pitch": 78, "duration": 6, "velocity": 127}, {"time": 1368, "pitch": 79, "duration": 3, "velocity": 127}, {"time": 1371, "pitch": 86, "duration": 3, "velocity": 127}, {"time": 1374, "pitch": 84, "duration": 3, "velocity": 127}, {"time": 1377, "pitch": 86, "duration": 3, "velocity": 127}, {"time": 1380, "pitch": 82, "duration": 3, "velocity": 127}, {"time": 1383, "pitch": 86, "duration": 3, "velocity": 127}, {"time": 1386, "pitch": 84, "duration": 3, "velocity": 127}, {"time": 1389, "pitch": 86, "duration": 3, "velocity": 127}, {"time": 1392, "pitch": 79, "duration": 3, "velocity": 127}, {"time": 1395, "pitch": 86, "duration": 3, "velocity": 127}, {"time": 1398, "pitch": 84, "duration": 3, "velocity": 127}, {"time": 1401, "pitch": 86, "duration": 3, "velocity": 127}, {"time": 1404, "pitch": 83, "duration": 3, "velocity": 127}, {"time": 1407, "pitch": 86, "duration": 3, "velocity": 127}, {"time": 1410, "pitch": 84, "duration": 3, "velocity": 127}, {"time": 1413, "pitch": 86, "duration": 3, "velocity": 127}, {"time": 1416, "pitch": 77, "duration": 3, "velocity": 127}, {"time": 1419, "pitch": 76, "duration": 3, "velocity": 127}, {"time": 1422, "pitch": 77, "duration": 3, "velocity": 127}, {"time": 1425, "pitch": 79, "duration": 3, "velocity": 127}, {"time": 1428, "pitch": 77, "duration": 3, "velocity": 127}, {"time": 1431, "pitch": 81, "duration": 3, "velocity": 127}, {"time": 1434, "pitch": 79, "duration": 3, "velocity": 127}, {"time": 1437, "pitch": 77, "duration": 3, "velocity": 127}, {"time": 1440, "pitch": 76, "duration": 12, "velocity": 127}, {"time": 1464, "pitch": 77, "duration": 12, "velocity": 127}, {"time": 1476, "pitch": 82, "duration": 12, "velocity": 127}, {"time": 1488, "pitch": 79, "duration": 6, "velocity": 127}, {"time": 1494, "pitch": 81, "duration": 3, "velocity": 127}, {"time": 1497, "pitch": 82, "duration": 3, "velocity": 127}, {"time": 1500, "pitch": 84, "duration": 6, "velocity": 127}, {"time": 1506, "pitch": 82, "duration": 6, "velocity": 127}, {"time": 1512, "pitch": 81, "duration": 6, "velocity": 127}, {"time": 1518, "pitch": 77, "duration": 6, "velocity": 127}, {"time": 1524, "pitch": 86, "duration": 6, "velocity": 127}, {"time": 1530, "pitch": 77, "duration": 6, "velocity": 127}, {"time": 1536, "pitch": 79, "duration": 6, "velocity": 127}, {"time": 1542, "pitch": 75, "duration": 6, "velocity": 127}, {"time": 1548, "pitch": 84, "duration": 6, "velocity": 127}, {"time": 1554, "pitch": 75, "duration": 6, "velocity": 127}, {"time": 1560, "pitch": 77, "duration": 6, "velocity": 127}, {"time": 1566, "pitch": 74, "duration": 6, "velocity": 127}, {"time": 1572, "pitch": 82, "duration": 6, "velocity": 127}, {"time": 1578, "pitch": 74, "duration": 6, "velocity": 127}, {"time": 1584, "pitch": 75, "duration": 6, "velocity": 127}, {"time": 1590, "pitch": 72, "duration": 6, "velocity": 127}, {"time": 1596, "pitch": 81, "duration": 6, "velocity": 127}, {"time": 1602, "pitch": 72, "duration": 6, "velocity": 127}, {"time": 1608, "pitch": 74, "duration": 6, "velocity": 127}, {"time": 1614, "pitch": 82, "duration": 6, "velocity": 127}, {"time": 1620, "pitch": 72, "duration": 6, "velocity": 127}, {"time": 1626, "pitch": 81, "duration": 6, "velocity": 127}, {"time": 1632, "pitch": 70, "duration": 6, "velocity": 127}, {"time": 1638, "pitch": 86, "duration": 6, "velocity": 127}, {"time": 1644, "pitch": 69, "duration": 6, "velocity": 127}, {"time": 1650, "pitch": 84, "duration": 6, "velocity": 127}, {"time": 1656, "pitch": 74, "duration": 6, "velocity": 127}, {"time": 1662, "pitch": 82, "duration": 6, "velocity": 127}, {"time": 1668, "pitch": 72, "duration": 6, "velocity": 127}, {"time": 1674, "pitch": 81, "duration": 6, "velocity": 127}, {"time": 1680, "pitch": 82, "duration": 9, "velocity": 127}, {"time": 1689, "pitch": 84, "duration": 3, "velocity": 127}, {"time": 1692, "pitch": 81, "duration": 9, "velocity": 127}, {"time": 1701, "pitch": 82, "duration": 3, "velocity": 127}, {"time": 1704, "pitch": 82, "duration": 12, "velocity": 127}, {"time": 1731, "pitch": 77, "duration": 3, "velocity": 127}, {"time": 1734, "pitch": 79, "duration": 3, "velocity": 127}, {"time": 1737, "pitch": 81, "duration": 3, "velocity": 127}, {"time": 1740, "pitch": 82, "duration": 3, "velocity": 127}, {"time": 1743, "pitch": 84, "duration": 3, "velocity": 127}, {"time": 1746, "pitch": 86, "duration": 3, "velocity": 127}, {"time": 1749, "pitch": 88, "duration": 3, "velocity": 127}, {"time": 1752, "pitch": 89, "duration": 24, "velocity": 127}, {"time": 1776, "pitch": 89, "duration": 12, "velocity": 127}, {"time": 1788, "pitch": 88, "duration": 24, "velocity": 127}, {"time": 1812, "pitch": 86, "duration": 12, "velocity": 127}, {"time": 1824, "pitch": 86, "duration": 12, "velocity": 127}, {"time": 1836, "pitch": 84, "duration": 12, "velocity": 127}, {"time": 1848, "pitch": 84, "duration": 12, "velocity": 127}, {"time": 1860, "pitch": 83, "duration": 12, "velocity": 127}, {"time": 1872, "pitch": 84, "duration": 3, "velocity": 127}, {"time": 1875, "pitch": 81, "duration": 3, "velocity": 127}, {"time": 1878, "pitch": 82, "duration": 3, "velocity": 127}, {"time": 1881, "pitch": 84, "duration": 3, "velocity": 127}, {"time": 1884, "pitch": 86, "duration": 3, "velocity": 127}, {"time": 1887, "pitch": 74, "duration": 3, "velocity": 127}, {"time": 1890, "pitch": 76, "duration": 3, "velocity": 127}, {"time": 1893, "pitch": 77, "duration": 3, "velocity": 127}, {"time": 1896, "pitch": 79, "duration": 3, "velocity": 127}, {"time": 1899, "pitch": 77, "duration": 3, "velocity": 127}, {"time": 1902, "pitch": 79, "duration": 3, "velocity": 127}, {"time": 1905, "pitch": 81, "duration": 3, "velocity": 127}, {"time": 1908, "pitch": 79, "duration": 3, "velocity": 127}, {"time": 1911, "pitch": 81, "duration": 3, "velocity": 127}, {"time": 1914, "pitch": 83, "duration": 3, "velocity": 127}, {"time": 1917, "pitch": 84, "duration": 3, "velocity": 127}, {"time": 1920, "pitch": 77, "duration": 12, "velocity": 127}, {"time": 1932, "pitch": 84, "duration": 12, "velocity": 127}, {"time": 1944, "pitch": 81, "duration": 6, "velocity": 127}, {"time": 1950, "pitch": 83, "duration": 3, "velocity": 127}, {"time": 1953, "pitch": 84, "duration": 3, "velocity": 127}, {"time": 1956, "pitch": 86, "duration": 6, "velocity": 127}, {"time": 1962, "pitch": 84, "duration": 6, "velocity": 127}, {"time": 1968, "pitch": 83, "duration": 6, "velocity": 127}, {"time": 1974, "pitch": 79, "duration": 6, "velocity": 127}, {"time": 1980, "pitch": 88, "duration": 6, "velocity": 127}, {"time": 1986, "pitch": 79, "duration": 6, "velocity": 127}, {"time": 1992, "pitch": 81, "duration": 6, "velocity": 127}, {"time": 1998, "pitch": 77, "duration": 6, "velocity": 127}, {"time": 2004, "pitch": 86, "duration": 6, "velocity": 127}, {"time": 2010, "pitch": 77, "duration": 6, "velocity": 127}, {"time": 2016, "pitch": 79, "duration": 6, "velocity": 127}, {"time": 2022, "pitch": 76, "duration": 6, "velocity": 127}, {"time": 2028, "pitch": 84, "duration": 6, "velocity": 127}, {"time": 2034, "pitch": 76, "duration": 6, "velocity": 127}, {"time": 2040, "pitch": 77, "duration": 6, "velocity": 127}, {"time": 2046, "pitch": 74, "duration": 6, "velocity": 127}, {"time": 2052, "pitch": 83, "duration": 6, "velocity": 127}, {"time": 2058, "pitch": 74, "duration": 6, "velocity": 127}, {"time": 2064, "pitch": 76, "duration": 6, "velocity": 127}, {"time": 2070, "pitch": 84, "duration": 6, "velocity": 127}, {"time": 2076, "pitch": 74, "duration": 6, "velocity": 127}, {"time": 2082, "pitch": 83, "duration": 6, "velocity": 127}, {"time": 2088, "pitch": 72, "duration": 6, "velocity": 127}, {"time": 2094, "pitch": 74, "duration": 3, "velocity": 127}, {"time": 2097, "pitch": 76, "duration": 3, "velocity": 127}, {"time": 2100, "pitch": 77, "duration": 6, "velocity": 127}, {"time": 2106, "pitch": 76, "duration": 3, "velocity": 127}, {"time": 2109, "pitch": 74, "duration": 3, "velocity": 127}, {"time": 2112, "pitch": 76, "duration": 6, "velocity": 127}, {"time": 2118, "pitch": 84, "duration": 6, "velocity": 127}, {"time": 2124, "pitch": 74, "duration": 6, "velocity": 127}, {"time": 2130, "pitch": 83, "duration": 6, "velocity": 127}, {"time": 2136, "pitch": 72, "duration": 6, "velocity": 127}, {"time": 2142, "pitch": 74, "duration": 3, "velocity": 127}, {"time": 2145, "pitch": 76, "duration": 3, "velocity": 127}, {"time": 2148, "pitch": 77, "duration": 6, "velocity": 127}, {"time": 2154, "pitch": 76, "duration": 3, "velocity": 127}, {"time": 2157, "pitch": 74, "duration": 3, "velocity": 127}, {"time": 2160, "pitch": 76, "duration": 12, "velocity": 127}, {"time": 2178, "pitch": 69, "duration": 6, "velocity": 127}, {"time": 2184, "pitch": 70, "duration": 3, "velocity": 127}, {"time": 2187, "pitch": 69, "duration": 3, "velocity": 127}, {"time": 2190, "pitch": 70, "duration": 3, "velocity": 127}, {"time": 2193, "pitch": 72, "duration": 3, "velocity": 127}, {"time": 2196, "pitch": 74, "duration": 3, "velocity": 127}, {"time": 2199, "pitch": 72, "duration": 3, "velocity": 127}, {"time": 2202, "pitch": 74, "duration": 3, "velocity": 127}, {"time": 2205, "pitch": 76, "duration": 3, "velocity": 127}, {"time": 2208, "pitch": 77, "duration": 3, "velocity": 127}, {"time": 2211, "pitch": 76, "duration": 3, "velocity": 127}, {"time": 2214, "pitch": 77, "duration": 3, "velocity": 127}, {"time": 2217, "pitch": 79, "duration": 3, "velocity": 127}, {"time": 2220, "pitch": 81, "duration": 3, "velocity": 127}, {"time": 2223, "pitch": 79, "duration": 3, "velocity": 127}, {"time": 2226, "pitch": 81, "duration": 3, "velocity": 127}, {"time": 2229, "pitch": 82, "duration": 3, "velocity": 127}, {"time": 2232, "pitch": 84, "duration": 6, "velocity": 127}, {"time": 2238, "pitch": 76, "duration": 6, "velocity": 127}, {"time": 2244, "pitch": 77, "duration": 6, "velocity": 127}, {"time": 2250, "pitch": 86, "duration": 6, "velocity": 127}, {"time": 2256, "pitch": 81, "duration": 12, "velocity": 127}, {"time": 2268, "pitch": 79, "duration": 12, "velocity": 127}, {"time": 2280, "pitch": 77, "duration": 12, "velocity": 127}, {"time": 2295, "pitch": 65, "duration": 3, "velocity": 127}, {"time": 2298, "pitch": 67, "duration": 3, "velocity": 127}, {"time": 2301, "pitch": 69, "duration": 3, "velocity": 127}, {"time": 2304, "pitch": 70, "duration": 3, "velocity": 127}, {"time": 2307, "pitch": 69, "duration": 3, "velocity": 127}, {"time": 2310, "pitch": 70, "duration": 3, "velocity": 127}, {"time": 2313, "pitch": 72, "duration": 3, "velocity": 127}, {"time": 2316, "pitch": 74, "duration": 3, "velocity": 127}, {"time": 2319, "pitch": 72, "duration": 3, "velocity": 127}, {"time": 2322, "pitch": 74, "duration": 3, "velocity": 127}, {"time": 2325, "pitch": 76, "duration": 3, "velocity": 127}, {"time": 2328, "pitch": 77, "duration": 3, "velocity": 127}, {"time": 2331, "pitch": 69, "duration": 3, "velocity": 127}, {"time": 2334, "pitch": 70, "duration": 3, "velocity": 127}, {"time": 2337, "pitch": 72, "duration": 3, "velocity": 127}, {"time": 2340, "pitch": 74, "duration": 3, "velocity": 127}, {"time": 2343, "pitch": 72, "duration": 3, "velocity": 127}, {"time": 2346, "pitch": 74, "duration": 3, "velocity": 127}, {"time": 2349, "pitch": 76, "duration": 3, "velocity": 127}, {"time": 2352, "pitch": 77, "duration": 3, "velocity": 127}, {"time": 2355, "pitch": 76, "duration": 3, "velocity": 127}, {"time": 2358, "pitch": 77, "duration": 3, "velocity": 127}, {"time": 2361, "pitch": 79, "duration": 3, "velocity": 127}, {"time": 2364, "pitch": 81, "duration": 3, "velocity": 127}, {"time": 2367, "pitch": 72, "duration": 3, "velocity": 127}, {"time": 2370, "pitch": 74, "duration": 3, "velocity": 127}, {"time": 2373, "pitch": 76, "duration": 3, "velocity": 127}, {"time": 2376, "pitch": 77, "duration": 3, "velocity": 127}, {"time": 2379, "pitch": 76, "duration": 3, "velocity": 127}, {"time": 2382, "pitch": 77, "duration": 3, "velocity": 127}, {"time": 2385, "pitch": 79, "duration": 3, "velocity": 127}, {"time": 2388, "pitch": 81, "duration": 3, "velocity": 127}, {"time": 2391, "pitch": 79, "duration": 3, "velocity": 127}, {"time": 2394, "pitch": 81, "duration": 3, "velocity": 127}, {"time": 2397, "pitch": 82, "duration": 3, "velocity": 127}, {"time": 2400, "pitch": 84, "duration": 6, "velocity": 127}, {"time": 2406, "pitch": 86, "duration": 3, "velocity": 127}, {"time": 2409, "pitch": 88, "duration": 3, "velocity": 127}, {"time": 2412, "pitch": 89, "duration": 6, "velocity": 127}, {"time": 2418, "pitch": 82, "duration": 6, "velocity": 127}, {"time": 2424, "pitch": 81, "duration": 12, "velocity": 127}, {"time": 2436, "pitch": 79, "duration": 12, "velocity": 127}, {"time": 2448, "pitch": 77, "duration": 24, "velocity": 127}], "annotations": [{"time": 0, "annotation": {"number": 7, "value": 100}, "group": "control_change"}, {"time": 0, "annotation": {"number": 10, "value": 64}, "group": "control_change"}, {"time": 0, "annotation": {"number": 91, "value": 0}, "group": "control_change"}, {"time": 0, "annotation": {"number": 93, "value": 0}, "group": "control_change"}]}]}