{"metadata": {"schema_version": "0.2"}, "resolution": 24, "tracks": [{"program": 41, "is_drum": false, "name": "", "notes": [{"time": 0, "pitch": 70, "duration": 5, "velocity": 127}, {"time": 5, "pitch": 67, "duration": 1, "velocity": 127}, {"time": 6, "pitch": 66, "duration": 12, "velocity": 127}, {"time": 18, "pitch": 67, "duration": 12, "velocity": 127}, {"time": 30, "pitch": 62, "duration": 6, "velocity": 127}, {"time": 36, "pitch": 55, "duration": 3, "velocity": 127}, {"time": 39, "pitch": 58, "duration": 3, "velocity": 127}, {"time": 42, "pitch": 62, "duration": 6, "velocity": 127}, {"time": 48, "pitch": 60, "duration": 6, "velocity": 127}, {"time": 54, "pitch": 58, "duration": 6, "velocity": 127}, {"time": 60, "pitch": 57, "duration": 3, "velocity": 127}, {"time": 63, "pitch": 58, "duration": 3, "velocity": 127}, {"time": 66, "pitch": 55, "duration": 6, "velocity": 127}, {"time": 78, "pitch": 58, "duration": 3, "velocity": 127}, {"time": 81, "pitch": 60, "duration": 3, "velocity": 127}, {"time": 84, "pitch": 57, "duration": 6, "velocity": 127}, {"time": 96, "pitch": 60, "duration": 3, "velocity": 127}, {"time": 99, "pitch": 62, "duration": 3, "velocity": 127}, {"time": 102, "pitch": 58, "duration": 6, "velocity": 127}, {"time": 108, "pitch": 63, "duration": 6, "velocity": 127}, {"time": 114, "pitch": 62, "duration": 6, "velocity": 127}, {"time": 120, "pitch": 60, "duration": 6, "velocity": 127}, {"time": 126, "pitch": 58, "duration": 6, "velocity": 127}, {"time": 132, "pitch": 57, "duration": 6, "velocity": 127}, {"time": 138, "pitch": 55, "duration": 6, "velocity": 127}, {"time": 144, "pitch": 54, "duration": 6, "velocity": 127}, {"time": 150, "pitch": 54, "duration": 3, "velocity": 127}, {"time": 153, "pitch": 55, "duration": 3, "velocity": 127}, {"time": 156, "pitch": 57, "duration": 6, "velocity": 127}, {"time": 162, "pitch": 50, "duration": 12, "velocity": 127}, {"time": 180, "pitch": 62, "duration": 6, "velocity": 127}, {"time": 186, "pitch": 60, "duration": 3, "velocity": 127}, {"time": 189, "pitch": 58, "duration": 3, "velocity": 127}, {"time": 192, "pitch": 57, "duration": 3, "velocity": 127}, {"time": 195, "pitch": 60, "duration": 3, "velocity": 127}, {"time": 198, "pitch": 58, "duration": 3, "velocity": 127}, {"time": 201, "pitch": 62, "duration": 3, "velocity": 127}, {"time": 204, "pitch": 64, "duration": 3, "velocity": 127}, {"time": 207, "pitch": 66, "duration": 3, "velocity": 127}, {"time": 210, "pitch": 67, "duration": 3, "velocity": 127}, {"time": 213, "pitch": 69, "duration": 3, "velocity": 127}, {"time": 216, "pitch": 70, "duration": 5, "velocity": 127}, {"time": 221, "pitch": 67, "duration": 1, "velocity": 127}, {"time": 222, "pitch": 66, "duration": 12, "velocity": 127}, {"time": 234, "pitch": 67, "duration": 12, "velocity": 127}, {"time": 246, "pitch": 62, "duration": 6, "velocity": 127}, {"time": 252, "pitch": 55, "duration": 3, "velocity": 127}, {"time": 255, "pitch": 58, "duration": 3, "velocity": 127}, {"time": 258, "pitch": 62, "duration": 6, "velocity": 127}, {"time": 264, "pitch": 60, "duration": 6, "velocity": 127}, {"time": 270, "pitch": 58, "duration": 6, "velocity": 127}, {"time": 276, "pitch": 57, "duration": 3, "velocity": 127}, {"time": 279, "pitch": 58, "duration": 3, "velocity": 127}, {"time": 282, "pitch": 55, "duration": 6, "velocity": 127}, {"time": 294, "pitch": 58, "duration": 3, "velocity": 127}, {"time": 297, "pitch": 60, "duration": 3, "velocity": 127}, {"time": 300, "pitch": 57, "duration": 6, "velocity": 127}, {"time": 312, "pitch": 60, "duration": 3, "velocity": 127}, {"time": 315, "pitch": 62, "duration": 3, "velocity": 127}, {"time": 318, "pitch": 58, "duration": 6, "velocity": 127}, {"time": 324, "pitch": 63, "duration": 6, "velocity": 127}, {"time": 330, "pitch": 62, "duration": 6, "velocity": 127}, {"time": 336, "pitch": 60, "duration": 6, "velocity": 127}, {"time": 342, "pitch": 58, "duration": 6, "velocity": 127}, {"time": 348, "pitch": 57, "duration": 6, "velocity": 127}, {"time": 354, "pitch": 55, "duration": 6, "velocity": 127}, {"time": 360, "pitch": 54, "duration": 3, "velocity": 127}, {"time": 363, "pitch": 60, "duration": 3, "velocity": 127}, {"time": 366, "pitch": 58, "duration": 3, "velocity": 127}, {"time": 369, "pitch": 57, "duration": 3, "velocity": 127}, {"time": 372, "pitch": 55, "duration": 3, "velocity": 127}, {"time": 375, "pitch": 54, "duration": 3, "velocity": 127}, {"time": 378, "pitch": 55, "duration": 6, "velocity": 127}, {"time": 384, "pitch": 60, "duration": 9, "velocity": 127}, {"time": 393, "pitch": 62, "duration": 1, "velocity": 127}, {"time": 394, "pitch": 63, "duration": 2, "velocity": 127}, {"time": 396, "pitch": 62, "duration": 6, "velocity": 127}, {"time": 402, "pitch": 62, "duration": 3, "velocity": 127}, {"time": 405, "pitch": 60, "duration": 3, "velocity": 127}, {"time": 408, "pitch": 58, "duration": 3, "velocity": 127}, {"time": 411, "pitch": 57, "duration": 3, "velocity": 127}, {"time": 414, "pitch": 55, "duration": 6, "velocity": 127}, {"time": 432, "pitch": 66, "duration": 6, "velocity": 127}, {"time": 438, "pitch": 67, "duration": 3, "velocity": 127}, {"time": 441, "pitch": 66, "duration": 3, "velocity": 127}, {"time": 444, "pitch": 67, "duration": 3, "velocity": 127}, {"time": 447, "pitch": 69, "duration": 2, "velocity": 127}, {"time": 449, "pitch": 69, "duration": 1, "velocity": 127}, {"time": 450, "pitch": 70, "duration": 12, "velocity": 127}, {"time": 462, "pitch": 67, "duration": 6, "velocity": 127}, {"time": 468, "pitch": 69, "duration": 6, "velocity": 127}, {"time": 474, "pitch": 62, "duration": 6, "velocity": 127}, {"time": 480, "pitch": 62, "duration": 6, "velocity": 127}, {"time": 486, "pitch": 67, "duration": 6, "velocity": 127}, {"time": 492, "pitch": 60, "duration": 6, "velocity": 127}, {"time": 498, "pitch": 60, "duration": 6, "velocity": 127}, {"time": 504, "pitch": 65, "duration": 12, "velocity": 127}, {"time": 522, "pitch": 63, "duration": 12, "velocity": 127}, {"time": 540, "pitch": 62, "duration": 3, "velocity": 127}, {"time": 543, "pitch": 65, "duration": 3, "velocity": 127}, {"time": 546, "pitch": 63, "duration": 3, "velocity": 127}, {"time": 549, "pitch": 62, "duration": 3, "velocity": 127}, {"time": 552, "pitch": 60, "duration": 3, "velocity": 127}, {"time": 555, "pitch": 58, "duration": 3, "velocity": 127}, {"time": 558, "pitch": 60, "duration": 3, "velocity": 127}, {"time": 561, "pitch": 63, "duration": 3, "velocity": 127}, {"time": 564, "pitch": 62, "duration": 3, "velocity": 127}, {"time": 567, "pitch": 60, "duration": 3, "velocity": 127}, {"time": 570, "pitch": 58, "duration": 3, "velocity": 127}, {"time": 573, "pitch": 57, "duration": 3, "velocity": 127}, {"time": 576, "pitch": 58, "duration": 3, "velocity": 127}, {"time": 579, "pitch": 62, "duration": 3, "velocity": 127}, {"time": 582, "pitch": 60, "duration": 3, "velocity": 127}, {"time": 585, "pitch": 58, "duration": 3, "velocity": 127}, {"time": 588, "pitch": 57, "duration": 3, "velocity": 127}, {"time": 591, "pitch": 55, "duration": 3, "velocity": 127}, {"time": 594, "pitch": 53, "duration": 6, "velocity": 127}, {"time": 600, "pitch": 65, "duration": 6, "velocity": 127}, {"time": 606, "pitch": 53, "duration": 6, "velocity": 127}, {"time": 612, "pitch": 62, "duration": 3, "velocity": 127}, {"time": 615, "pitch": 58, "duration": 3, "velocity": 127}, {"time": 618, "pitch": 57, "duration": 3, "velocity": 127}, {"time": 621, "pitch": 58, "duration": 3, "velocity": 127}, {"time": 624, "pitch": 63, "duration": 12, "velocity": 127}, {"time": 636, "pitch": 62, "duration": 3, "velocity": 127}, {"time": 639, "pitch": 60, "duration": 3, "velocity": 127}, {"time": 642, "pitch": 58, "duration": 3, "velocity": 127}, {"time": 645, "pitch": 57, "duration": 3, "velocity": 127}, {"time": 648, "pitch": 58, "duration": 6, "velocity": 127}, {"time": 654, "pitch": 53, "duration": 6, "velocity": 127}, {"time": 660, "pitch": 57, "duration": 6, "velocity": 127}, {"time": 666, "pitch": 58, "duration": 9, "velocity": 127}, {"time": 675, "pitch": 60, "duration": 3, "velocity": 127}, {"time": 678, "pitch": 62, "duration": 3, "velocity": 127}, {"time": 681, "pitch": 63, "duration": 3, "velocity": 127}, {"time": 684, "pitch": 62, "duration": 3, "velocity": 127}, {"time": 687, "pitch": 58, "duration": 3, "velocity": 127}, {"time": 690, "pitch": 57, "duration": 3, "velocity": 127}, {"time": 693, "pitch": 58, "duration": 3, "velocity": 127}, {"time": 696, "pitch": 63, "duration": 12, "velocity": 127}, {"time": 708, "pitch": 62, "duration": 3, "velocity": 127}, {"time": 711, "pitch": 60, "duration": 3, "velocity": 127}, {"time": 714, "pitch": 58, "duration": 3, "velocity": 127}, {"time": 717, "pitch": 57, "duration": 3, "velocity": 127}, {"time": 720, "pitch": 58, "duration": 6, "velocity": 127}, {"time": 726, "pitch": 53, "duration": 6, "velocity": 127}, {"time": 732, "pitch": 57, "duration": 6, "velocity": 127}, {"time": 738, "pitch": 58, "duration": 12, "velocity": 127}, {"time": 756, "pitch": 65, "duration": 6, "velocity": 127}, {"time": 762, "pitch": 63, "duration": 3, "velocity": 127}, {"time": 765, "pitch": 62, "duration": 3, "velocity": 127}, {"time": 768, "pitch": 63, "duration": 6, "velocity": 127}, {"time": 774, "pitch": 62, "duration": 6, "velocity": 127}, {"time": 780, "pitch": 62, "duration": 6, "velocity": 127}, {"time": 786, "pitch": 70, "duration": 6, "velocity": 127}, {"time": 792, "pitch": 69, "duration": 6, "velocity": 127}, {"time": 798, "pitch": 67, "duration": 3, "velocity": 127}, {"time": 801, "pitch": 66, "duration": 3, "velocity": 127}, {"time": 804, "pitch": 67, "duration": 5, "velocity": 127}, {"time": 809, "pitch": 67, "duration": 1, "velocity": 127}, {"time": 810, "pitch": 66, "duration": 12, "velocity": 127}, {"time": 822, "pitch": 67, "duration": 6, "velocity": 127}, {"time": 828, "pitch": 62, "duration": 6, "velocity": 127}, {"time": 834, "pitch": 63, "duration": 3, "velocity": 127}, {"time": 837, "pitch": 62, "duration": 3, "velocity": 127}, {"time": 840, "pitch": 63, "duration": 3, "velocity": 127}, {"time": 843, "pitch": 60, "duration": 3, "velocity": 127}, {"time": 846, "pitch": 62, "duration": 12, "velocity": 127}, {"time": 864, "pitch": 62, "duration": 12, "velocity": 127}, {"time": 876, "pitch": 60, "duration": 6, "velocity": 127}, {"time": 882, "pitch": 58, "duration": 3, "velocity": 127}, {"time": 885, "pitch": 57, "duration": 3, "velocity": 127}, {"time": 888, "pitch": 55, "duration": 6, "velocity": 127}, {"time": 894, "pitch": 69, "duration": 6, "velocity": 127}, {"time": 900, "pitch": 70, "duration": 5, "velocity": 127}, {"time": 905, "pitch": 67, "duration": 1, "velocity": 127}, {"time": 906, "pitch": 66, "duration": 12, "velocity": 127}, {"time": 918, "pitch": 67, "duration": 12, "velocity": 127}, {"time": 930, "pitch": 62, "duration": 6, "velocity": 127}, {"time": 936, "pitch": 55, "duration": 3, "velocity": 127}, {"time": 939, "pitch": 58, "duration": 3, "velocity": 127}, {"time": 942, "pitch": 62, "duration": 6, "velocity": 127}, {"time": 948, "pitch": 60, "duration": 6, "velocity": 127}, {"time": 954, "pitch": 58, "duration": 6, "velocity": 127}, {"time": 960, "pitch": 57, "duration": 3, "velocity": 127}, {"time": 963, "pitch": 58, "duration": 3, "velocity": 127}, {"time": 966, "pitch": 55, "duration": 6, "velocity": 127}, {"time": 978, "pitch": 58, "duration": 3, "velocity": 127}, {"time": 981, "pitch": 60, "duration": 3, "velocity": 127}, {"time": 984, "pitch": 57, "duration": 6, "velocity": 127}, {"time": 996, "pitch": 60, "duration": 3, "velocity": 127}, {"time": 999, "pitch": 62, "duration": 3, "velocity": 127}, {"time": 1002, "pitch": 58, "duration": 6, "velocity": 127}, {"time": 1008, "pitch": 63, "duration": 6, "velocity": 127}, {"time": 1014, "pitch": 62, "duration": 6, "velocity": 127}, {"time": 1020, "pitch": 60, "duration": 6, "velocity": 127}, {"time": 1026, "pitch": 58, "duration": 6, "velocity": 127}, {"time": 1032, "pitch": 57, "duration": 6, "velocity": 127}, {"time": 1038, "pitch": 55, "duration": 6, "velocity": 127}, {"time": 1044, "pitch": 54, "duration": 6, "velocity": 127}, {"time": 1050, "pitch": 54, "duration": 3, "velocity": 127}, {"time": 1053, "pitch": 55, "duration": 3, "velocity": 127}, {"time": 1056, "pitch": 57, "duration": 6, "velocity": 127}, {"time": 1062, "pitch": 50, "duration": 12, "velocity": 127}, {"time": 1080, "pitch": 62, "duration": 6, "velocity": 127}, {"time": 1086, "pitch": 60, "duration": 3, "velocity": 127}, {"time": 1089, "pitch": 58, "duration": 3, "velocity": 127}, {"time": 1092, "pitch": 57, "duration": 3, "velocity": 127}, {"time": 1095, "pitch": 60, "duration": 3, "velocity": 127}, {"time": 1098, "pitch": 58, "duration": 3, "velocity": 127}, {"time": 1101, "pitch": 62, "duration": 3, "velocity": 127}, {"time": 1104, "pitch": 64, "duration": 3, "velocity": 127}, {"time": 1107, "pitch": 66, "duration": 3, "velocity": 127}, {"time": 1110, "pitch": 67, "duration": 3, "velocity": 127}, {"time": 1113, "pitch": 69, "duration": 3, "velocity": 127}, {"time": 1116, "pitch": 70, "duration": 5, "velocity": 127}, {"time": 1121, "pitch": 67, "duration": 1, "velocity": 127}, {"time": 1122, "pitch": 66, "duration": 12, "velocity": 127}, {"time": 1134, "pitch": 67, "duration": 12, "velocity": 127}, {"time": 1146, "pitch": 62, "duration": 6, "velocity": 127}, {"time": 1152, "pitch": 55, "duration": 3, "velocity": 127}, {"time": 1155, "pitch": 58, "duration": 3, "velocity": 127}, {"time": 1158, "pitch": 62, "duration": 6, "velocity": 127}, {"time": 1164, "pitch": 60, "duration": 6, "velocity": 127}, {"time": 1170, "pitch": 58, "duration": 6, "velocity": 127}, {"time": 1176, "pitch": 57, "duration": 3, "velocity": 127}, {"time": 1179, "pitch": 58, "duration": 3, "velocity": 127}, {"time": 1182, "pitch": 55, "duration": 6, "velocity": 127}, {"time": 1194, "pitch": 58, "duration": 3, "velocity": 127}, {"time": 1197, "pitch": 60, "duration": 3, "velocity": 127}, {"time": 1200, "pitch": 57, "duration": 6, "velocity": 127}, {"time": 1212, "pitch": 60, "duration": 3, "velocity": 127}, {"time": 1215, "pitch": 62, "duration": 3, "velocity": 127}, {"time": 1218, "pitch": 58, "duration": 6, "velocity": 127}, {"time": 1224, "pitch": 63, "duration": 6, "velocity": 127}, {"time": 1230, "pitch": 62, "duration": 6, "velocity": 127}, {"time": 1236, "pitch": 60, "duration": 6, "velocity": 127}, {"time": 1242, "pitch": 58, "duration": 6, "velocity": 127}, {"time": 1248, "pitch": 57, "duration": 6, "velocity": 127}, {"time": 1254, "pitch": 55, "duration": 6, "velocity": 127}, {"time": 1260, "pitch": 54, "duration": 3, "velocity": 127}, {"time": 1263, "pitch": 60, "duration": 3, "velocity": 127}, {"time": 1266, "pitch": 58, "duration": 3, "velocity": 127}, {"time": 1269, "pitch": 57, "duration": 3, "velocity": 127}, {"time": 1272, "pitch": 55, "duration": 3, "velocity": 127}, {"time": 1275, "pitch": 54, "duration": 3, "velocity": 127}, {"time": 1278, "pitch": 55, "duration": 6, "velocity": 127}, {"time": 1284, "pitch": 60, "duration": 9, "velocity": 127}, {"time": 1293, "pitch": 62, "duration": 1, "velocity": 127}, {"time": 1294, "pitch": 63, "duration": 2, "velocity": 127}, {"time": 1296, "pitch": 62, "duration": 6, "velocity": 127}, {"time": 1302, "pitch": 62, "duration": 3, "velocity": 127}, {"time": 1305, "pitch": 60, "duration": 3, "velocity": 127}, {"time": 1308, "pitch": 58, "duration": 3, "velocity": 127}, {"time": 1311, "pitch": 57, "duration": 3, "velocity": 127}, {"time": 1314, "pitch": 55, "duration": 12, "velocity": 127}]}]}