{"metadata": {"schema_version": "0.2"}, "resolution": 24, "tracks": [{"program": 74, "is_drum": false, "notes": [{"time": 0, "pitch": 67, "duration": 6, "velocity": 127}, {"time": 6, "pitch": 69, "duration": 6, "velocity": 127}, {"time": 12, "pitch": 70, "duration": 12, "velocity": 127}, {"time": 36, "pitch": 70, "duration": 6, "velocity": 127}, {"time": 42, "pitch": 69, "duration": 6, "velocity": 127}, {"time": 48, "pitch": 67, "duration": 6, "velocity": 127}, {"time": 54, "pitch": 69, "duration": 6, "velocity": 127}, {"time": 60, "pitch": 69, "duration": 9, "velocity": 127}, {"time": 69, "pitch": 67, "duration": 1, "velocity": 127}, {"time": 70, "pitch": 69, "duration": 2, "velocity": 127}, {"time": 72, "pitch": 70, "duration": 4, "velocity": 127}, {"time": 76, "pitch": 67, "duration": 4, "velocity": 127}, {"time": 80, "pitch": 69, "duration": 4, "velocity": 127}, {"time": 84, "pitch": 70, "duration": 12, "velocity": 127}, {"time": 120, "pitch": 70, "duration": 6, "velocity": 127}, {"time": 126, "pitch": 69, "duration": 6, "velocity": 127}, {"time": 132, "pitch": 70, "duration": 6, "velocity": 127}, {"time": 138, "pitch": 72, "duration": 6, "velocity": 127}, {"time": 144, "pitch": 69, "duration": 12, "velocity": 127}, {"time": 156, "pitch": 74, "duration": 12, "velocity": 127}, {"time": 180, "pitch": 79, "duration": 12, "velocity": 127}, {"time": 192, "pitch": 79, "duration": 12, "velocity": 127}, {"time": 204, "pitch": 79, "duration": 12, "velocity": 127}, {"time": 216, "pitch": 79, "duration": 12, "velocity": 127}, {"time": 228, "pitch": 78, "duration": 12, "velocity": 127}, {"time": 240, "pitch": 79, "duration": 6, "velocity": 127}, {"time": 246, "pitch": 81, "duration": 6, "velocity": 127}, {"time": 252, "pitch": 82, "duration": 12, "velocity": 127}, {"time": 264, "pitch": 75, "duration": 12, "velocity": 127}, {"time": 276, "pitch": 75, "duration": 12, "velocity": 127}, {"time": 288, "pitch": 75, "duration": 12, "velocity": 127}, {"time": 300, "pitch": 74, "duration": 12, "velocity": 127}, {"time": 312, "pitch": 75, "duration": 6, "velocity": 127}, {"time": 318, "pitch": 77, "duration": 6, "velocity": 127}, {"time": 324, "pitch": 79, "duration": 12, "velocity": 127}, {"time": 336, "pitch": 72, "duration": 12, "velocity": 127}, {"time": 348, "pitch": 72, "duration": 12, "velocity": 127}, {"time": 360, "pitch": 72, "duration": 12, "velocity": 127}, {"time": 372, "pitch": 70, "duration": 6, "velocity": 127}, {"time": 378, "pitch": 69, "duration": 6, "velocity": 127}, {"time": 384, "pitch": 70, "duration": 6, "velocity": 127}, {"time": 390, "pitch": 67, "duration": 6, "velocity": 127}, {"time": 396, "pitch": 69, "duration": 12, "velocity": 127}, {"time": 408, "pitch": 71, "duration": 12, "velocity": 127}, {"time": 420, "pitch": 67, "duration": 12, "velocity": 127}, {"time": 432, "pitch": 72, "duration": 12, "velocity": 127}, {"time": 444, "pitch": 84, "duration": 6, "velocity": 127}, {"time": 450, "pitch": 82, "duration": 6, "velocity": 127}, {"time": 456, "pitch": 81, "duration": 6, "velocity": 127}, {"time": 462, "pitch": 79, "duration": 6, "velocity": 127}, {"time": 468, "pitch": 78, "duration": 18, "velocity": 127}, {"time": 504, "pitch": 79, "duration": 6, "velocity": 127}, {"time": 510, "pitch": 81, "duration": 6, "velocity": 127}, {"time": 516, "pitch": 81, "duration": 18, "velocity": 127}, {"time": 534, "pitch": 79, "duration": 6, "velocity": 127}, {"time": 540, "pitch": 78, "duration": 36, "velocity": 127}, {"time": 576, "pitch": 74, "duration": 6, "velocity": 127}, {"time": 582, "pitch": 75, "duration": 6, "velocity": 127}, {"time": 588, "pitch": 77, "duration": 12, "velocity": 127}, {"time": 612, "pitch": 74, "duration": 6, "velocity": 127}, {"time": 618, "pitch": 72, "duration": 6, "velocity": 127}, {"time": 624, "pitch": 70, "duration": 6, "velocity": 127}, {"time": 630, "pitch": 72, "duration": 6, "velocity": 127}, {"time": 636, "pitch": 72, "duration": 9, "velocity": 127}, {"time": 645, "pitch": 70, "duration": 1, "velocity": 127}, {"time": 646, "pitch": 72, "duration": 2, "velocity": 127}, {"time": 648, "pitch": 74, "duration": 4, "velocity": 127}, {"time": 652, "pitch": 70, "duration": 4, "velocity": 127}, {"time": 656, "pitch": 72, "duration": 4, "velocity": 127}, {"time": 660, "pitch": 74, "duration": 12, "velocity": 127}, {"time": 696, "pitch": 74, "duration": 6, "velocity": 127}, {"time": 702, "pitch": 72, "duration": 6, "velocity": 127}, {"time": 708, "pitch": 74, "duration": 6, "velocity": 127}, {"time": 714, "pitch": 75, "duration": 6, "velocity": 127}, {"time": 720, "pitch": 72, "duration": 12, "velocity": 127}, {"time": 732, "pitch": 77, "duration": 12, "velocity": 127}, {"time": 756, "pitch": 70, "duration": 12, "velocity": 127}, {"time": 768, "pitch": 70, "duration": 12, "velocity": 127}, {"time": 780, "pitch": 70, "duration": 12, "velocity": 127}, {"time": 792, "pitch": 70, "duration": 12, "velocity": 127}, {"time": 804, "pitch": 69, "duration": 12, "velocity": 127}, {"time": 816, "pitch": 70, "duration": 6, "velocity": 127}, {"time": 822, "pitch": 72, "duration": 6, "velocity": 127}, {"time": 828, "pitch": 74, "duration": 12, "velocity": 127}, {"time": 840, "pitch": 72, "duration": 12, "velocity": 127}, {"time": 864, "pitch": 72, "duration": 12, "velocity": 127}, {"time": 876, "pitch": 70, "duration": 6, "velocity": 127}, {"time": 882, "pitch": 69, "duration": 6, "velocity": 127}, {"time": 888, "pitch": 70, "duration": 6, "velocity": 127}, {"time": 894, "pitch": 72, "duration": 6, "velocity": 127}, {"time": 900, "pitch": 69, "duration": 12, "velocity": 127}, {"time": 912, "pitch": 74, "duration": 12, "velocity": 127}, {"time": 936, "pitch": 74, "duration": 12, "velocity": 127}, {"time": 948, "pitch": 72, "duration": 6, "velocity": 127}, {"time": 954, "pitch": 70, "duration": 6, "velocity": 127}, {"time": 960, "pitch": 72, "duration": 6, "velocity": 127}, {"time": 966, "pitch": 74, "duration": 6, "velocity": 127}, {"time": 972, "pitch": 70, "duration": 12, "velocity": 127}, {"time": 984, "pitch": 75, "duration": 12, "velocity": 127}, {"time": 1008, "pitch": 74, "duration": 12, "velocity": 127}, {"time": 1020, "pitch": 81, "duration": 6, "velocity": 127}, {"time": 1026, "pitch": 82, "duration": 6, "velocity": 127}, {"time": 1032, "pitch": 84, "duration": 12, "velocity": 127}, {"time": 1044, "pitch": 78, "duration": 18, "velocity": 127}, {"time": 1062, "pitch": 79, "duration": 6, "velocity": 127}, {"time": 1068, "pitch": 81, "duration": 6, "velocity": 127}, {"time": 1074, "pitch": 78, "duration": 6, "velocity": 127}, {"time": 1080, "pitch": 79, "duration": 6, "velocity": 127}, {"time": 1086, "pitch": 81, "duration": 6, "velocity": 127}, {"time": 1092, "pitch": 78, "duration": 18, "velocity": 127}, {"time": 1110, "pitch": 79, "duration": 6, "velocity": 127}, {"time": 1116, "pitch": 79, "duration": 36, "velocity": 127}], "annotations": [{"time": 0, "annotation": {"number": 7, "value": 100}, "group": "control_change"}, {"time": 0, "annotation": {"number": 10, "value": 64}, "group": "control_change"}, {"time": 0, "annotation": {"number": 91, "value": 0}, "group": "control_change"}, {"time": 0, "annotation": {"number": 93, "value": 0}, "group": "control_change"}]}]}