{"metadata": {"schema_version": "0.2"}, "resolution": 24, "tracks": [{"program": 7, "is_drum": false, "notes": [{"time": 12, "pitch": 81, "duration": 12, "velocity": 127}, {"time": 24, "pitch": 81, "duration": 12, "velocity": 127}, {"time": 36, "pitch": 86, "duration": 36, "velocity": 127}, {"time": 72, "pitch": 86, "duration": 6, "velocity": 127}, {"time": 78, "pitch": 85, "duration": 6, "velocity": 127}, {"time": 84, "pitch": 86, "duration": 6, "velocity": 127}, {"time": 90, "pitch": 88, "duration": 6, "velocity": 127}, {"time": 96, "pitch": 81, "duration": 6, "velocity": 127}, {"time": 102, "pitch": 79, "duration": 6, "velocity": 127}, {"time": 108, "pitch": 77, "duration": 6, "velocity": 127}, {"time": 114, "pitch": 76, "duration": 6, "velocity": 127}, {"time": 120, "pitch": 77, "duration": 6, "velocity": 127}, {"time": 126, "pitch": 76, "duration": 6, "velocity": 127}, {"time": 132, "pitch": 74, "duration": 6, "velocity": 127}, {"time": 138, "pitch": 72, "duration": 6, "velocity": 127}, {"time": 144, "pitch": 70, "duration": 6, "velocity": 127}, {"time": 150, "pitch": 69, "duration": 6, "velocity": 127}, {"time": 156, "pitch": 67, "duration": 6, "velocity": 127}, {"time": 162, "pitch": 69, "duration": 6, "velocity": 127}, {"time": 168, "pitch": 70, "duration": 6, "velocity": 127}, {"time": 174, "pitch": 67, "duration": 6, "velocity": 127}, {"time": 180, "pitch": 69, "duration": 12, "velocity": 127}, {"time": 204, "pitch": 73, "duration": 12, "velocity": 127}, {"time": 216, "pitch": 74, "duration": 12, "velocity": 127}, {"time": 228, "pitch": 82, "duration": 18, "velocity": 127}, {"time": 246, "pitch": 82, "duration": 6, "velocity": 127}, {"time": 252, "pitch": 82, "duration": 6, "velocity": 127}, {"time": 258, "pitch": 79, "duration": 6, "velocity": 127}, {"time": 264, "pitch": 81, "duration": 18, "velocity": 127}, {"time": 282, "pitch": 81, "duration": 6, "velocity": 127}, {"time": 288, "pitch": 86, "duration": 6, "velocity": 127}, {"time": 294, "pitch": 82, "duration": 6, "velocity": 127}, {"time": 300, "pitch": 79, "duration": 18, "velocity": 127}, {"time": 318, "pitch": 81, "duration": 6, "velocity": 127}, {"time": 324, "pitch": 81, "duration": 36, "velocity": 127}, {"time": 366, "pitch": 87, "duration": 6, "velocity": 127}, {"time": 372, "pitch": 86, "duration": 6, "velocity": 127}, {"time": 378, "pitch": 84, "duration": 6, "velocity": 127}, {"time": 384, "pitch": 82, "duration": 6, "velocity": 127}, {"time": 390, "pitch": 81, "duration": 6, "velocity": 127}, {"time": 396, "pitch": 82, "duration": 12, "velocity": 127}, {"time": 408, "pitch": 87, "duration": 12, "velocity": 127}, {"time": 420, "pitch": 84, "duration": 12, "velocity": 127}, {"time": 432, "pitch": 81, "duration": 12, "velocity": 127}, {"time": 444, "pitch": 86, "duration": 12, "velocity": 127}, {"time": 456, "pitch": 82, "duration": 12, "velocity": 127}, {"time": 468, "pitch": 79, "duration": 12, "velocity": 127}, {"time": 480, "pitch": 84, "duration": 6, "velocity": 127}, {"time": 486, "pitch": 81, "duration": 6, "velocity": 127}, {"time": 492, "pitch": 82, "duration": 12, "velocity": 127}, {"time": 510, "pitch": 84, "duration": 6, "velocity": 127}, {"time": 516, "pitch": 82, "duration": 12, "velocity": 127}, {"time": 528, "pitch": 81, "duration": 9, "velocity": 127}, {"time": 537, "pitch": 79, "duration": 3, "velocity": 127}, {"time": 540, "pitch": 79, "duration": 36, "velocity": 127}, {"time": 582, "pitch": 86, "duration": 6, "velocity": 127}, {"time": 588, "pitch": 84, "duration": 6, "velocity": 127}, {"time": 594, "pitch": 82, "duration": 6, "velocity": 127}, {"time": 600, "pitch": 81, "duration": 6, "velocity": 127}, {"time": 606, "pitch": 79, "duration": 6, "velocity": 127}, {"time": 612, "pitch": 81, "duration": 6, "velocity": 127}, {"time": 618, "pitch": 84, "duration": 6, "velocity": 127}, {"time": 624, "pitch": 82, "duration": 6, "velocity": 127}, {"time": 630, "pitch": 81, "duration": 6, "velocity": 127}, {"time": 636, "pitch": 79, "duration": 6, "velocity": 127}, {"time": 642, "pitch": 77, "duration": 6, "velocity": 127}, {"time": 648, "pitch": 79, "duration": 6, "velocity": 127}, {"time": 654, "pitch": 82, "duration": 6, "velocity": 127}, {"time": 660, "pitch": 81, "duration": 6, "velocity": 127}, {"time": 666, "pitch": 79, "duration": 6, "velocity": 127}, {"time": 672, "pitch": 77, "duration": 6, "velocity": 127}, {"time": 678, "pitch": 76, "duration": 6, "velocity": 127}, {"time": 684, "pitch": 77, "duration": 18, "velocity": 127}, {"time": 702, "pitch": 79, "duration": 6, "velocity": 127}, {"time": 708, "pitch": 81, "duration": 12, "velocity": 127}, {"time": 726, "pitch": 82, "duration": 6, "velocity": 127}, {"time": 732, "pitch": 79, "duration": 18, "velocity": 127}, {"time": 750, "pitch": 77, "duration": 6, "velocity": 127}, {"time": 756, "pitch": 76, "duration": 6, "velocity": 127}, {"time": 762, "pitch": 69, "duration": 6, "velocity": 127}, {"time": 768, "pitch": 67, "duration": 6, "velocity": 127}, {"time": 774, "pitch": 70, "duration": 6, "velocity": 127}, {"time": 780, "pitch": 69, "duration": 6, "velocity": 127}, {"time": 786, "pitch": 74, "duration": 6, "velocity": 127}, {"time": 792, "pitch": 73, "duration": 12, "velocity": 127}, {"time": 810, "pitch": 74, "duration": 6, "velocity": 127}, {"time": 816, "pitch": 73, "duration": 6, "velocity": 127}, {"time": 822, "pitch": 77, "duration": 6, "velocity": 127}, {"time": 828, "pitch": 76, "duration": 6, "velocity": 127}, {"time": 834, "pitch": 81, "duration": 6, "velocity": 127}, {"time": 840, "pitch": 79, "duration": 6, "velocity": 127}, {"time": 846, "pitch": 82, "duration": 6, "velocity": 127}, {"time": 852, "pitch": 81, "duration": 6, "velocity": 127}, {"time": 858, "pitch": 86, "duration": 6, "velocity": 127}, {"time": 864, "pitch": 85, "duration": 12, "velocity": 127}, {"time": 876, "pitch": 85, "duration": 18, "velocity": 127}, {"time": 894, "pitch": 83, "duration": 3, "velocity": 127}, {"time": 897, "pitch": 85, "duration": 3, "velocity": 127}, {"time": 900, "pitch": 86, "duration": 6, "velocity": 127}, {"time": 906, "pitch": 81, "duration": 6, "velocity": 127}, {"time": 912, "pitch": 74, "duration": 6, "velocity": 127}, {"time": 918, "pitch": 72, "duration": 6, "velocity": 127}, {"time": 924, "pitch": 70, "duration": 6, "velocity": 127}, {"time": 930, "pitch": 67, "duration": 6, "velocity": 127}, {"time": 936, "pitch": 72, "duration": 6, "velocity": 127}, {"time": 942, "pitch": 79, "duration": 6, "velocity": 127}, {"time": 948, "pitch": 72, "duration": 6, "velocity": 127}, {"time": 954, "pitch": 70, "duration": 6, "velocity": 127}, {"time": 960, "pitch": 69, "duration": 6, "velocity": 127}, {"time": 966, "pitch": 65, "duration": 6, "velocity": 127}, {"time": 972, "pitch": 70, "duration": 6, "velocity": 127}, {"time": 978, "pitch": 69, "duration": 6, "velocity": 127}, {"time": 984, "pitch": 67, "duration": 6, "velocity": 127}, {"time": 990, "pitch": 73, "duration": 6, "velocity": 127}, {"time": 996, "pitch": 74, "duration": 6, "velocity": 127}, {"time": 1002, "pitch": 65, "duration": 6, "velocity": 127}, {"time": 1008, "pitch": 70, "duration": 6, "velocity": 127}, {"time": 1014, "pitch": 67, "duration": 6, "velocity": 127}, {"time": 1020, "pitch": 69, "duration": 6, "velocity": 127}, {"time": 1026, "pitch": 65, "duration": 6, "velocity": 127}, {"time": 1032, "pitch": 67, "duration": 6, "velocity": 127}, {"time": 1038, "pitch": 69, "duration": 6, "velocity": 127}, {"time": 1044, "pitch": 74, "duration": 12, "velocity": 127}, {"time": 1056, "pitch": 82, "duration": 12, "velocity": 127}, {"time": 1068, "pitch": 79, "duration": 12, "velocity": 127}, {"time": 1080, "pitch": 76, "duration": 12, "velocity": 127}, {"time": 1092, "pitch": 81, "duration": 12, "velocity": 127}, {"time": 1104, "pitch": 77, "duration": 12, "velocity": 127}, {"time": 1116, "pitch": 74, "duration": 12, "velocity": 127}, {"time": 1128, "pitch": 79, "duration": 6, "velocity": 127}, {"time": 1134, "pitch": 76, "duration": 6, "velocity": 127}, {"time": 1140, "pitch": 77, "duration": 12, "velocity": 127}, {"time": 1152, "pitch": 77, "duration": 6, "velocity": 127}, {"time": 1158, "pitch": 79, "duration": 6, "velocity": 127}, {"time": 1164, "pitch": 76, "duration": 18, "velocity": 127}, {"time": 1182, "pitch": 74, "duration": 6, "velocity": 127}, {"time": 1188, "pitch": 74, "duration": 36, "velocity": 127}], "annotations": [{"time": 0, "annotation": {"number": 7, "value": 100}, "group": "control_change"}, {"time": 0, "annotation": {"number": 10, "value": 64}, "group": "control_change"}, {"time": 0, "annotation": {"number": 91, "value": 0}, "group": "control_change"}, {"time": 0, "annotation": {"number": 93, "value": 0}, "group": "control_change"}]}]}