{"metadata": {"schema_version": "0.2"}, "resolution": 24, "tracks": [{"program": 41, "is_drum": false, "name": "", "notes": [{"time": 12, "pitch": 62, "duration": 12, "velocity": 127}, {"time": 24, "pitch": 55, "duration": 12, "velocity": 127}, {"time": 36, "pitch": 67, "duration": 12, "velocity": 127}, {"time": 48, "pitch": 67, "duration": 24, "velocity": 127}, {"time": 72, "pitch": 66, "duration": 11, "velocity": 127}, {"time": 83, "pitch": 67, "duration": 1, "velocity": 127}, {"time": 83, "pitch": 69, "duration": 1, "velocity": 127}, {"time": 84, "pitch": 70, "duration": 12, "velocity": 127}, {"time": 96, "pitch": 69, "duration": 12, "velocity": 127}, {"time": 108, "pitch": 67, "duration": 11, "velocity": 127}, {"time": 119, "pitch": 70, "duration": 1, "velocity": 127}, {"time": 120, "pitch": 69, "duration": 12, "velocity": 127}, {"time": 132, "pitch": 67, "duration": 6, "velocity": 127}, {"time": 138, "pitch": 66, "duration": 6, "velocity": 127}, {"time": 144, "pitch": 67, "duration": 24, "velocity": 127}, {"time": 180, "pitch": 58, "duration": 12, "velocity": 127}, {"time": 192, "pitch": 58, "duration": 24, "velocity": 127}, {"time": 216, "pitch": 57, "duration": 11, "velocity": 127}, {"time": 227, "pitch": 58, "duration": 1, "velocity": 127}, {"time": 227, "pitch": 60, "duration": 1, "velocity": 127}, {"time": 228, "pitch": 62, "duration": 12, "velocity": 127}, {"time": 240, "pitch": 60, "duration": 12, "velocity": 127}, {"time": 252, "pitch": 58, "duration": 11, "velocity": 127}, {"time": 263, "pitch": 62, "duration": 1, "velocity": 127}, {"time": 264, "pitch": 60, "duration": 12, "velocity": 127}, {"time": 276, "pitch": 58, "duration": 6, "velocity": 127}, {"time": 282, "pitch": 57, "duration": 6, "velocity": 127}, {"time": 288, "pitch": 58, "duration": 6, "velocity": 127}, {"time": 294, "pitch": 62, "duration": 6, "velocity": 127}, {"time": 300, "pitch": 60, "duration": 6, "velocity": 127}, {"time": 306, "pitch": 58, "duration": 6, "velocity": 127}, {"time": 312, "pitch": 63, "duration": 12, "velocity": 127}, {"time": 324, "pitch": 62, "duration": 12, "velocity": 127}, {"time": 336, "pitch": 60, "duration": 12, "velocity": 127}, {"time": 348, "pitch": 53, "duration": 12, "velocity": 127}, {"time": 360, "pitch": 65, "duration": 24, "velocity": 127}, {"time": 408, "pitch": 65, "duration": 24, "velocity": 127}, {"time": 456, "pitch": 65, "duration": 24, "velocity": 127}, {"time": 492, "pitch": 65, "duration": 12, "velocity": 127}, {"time": 504, "pitch": 67, "duration": 6, "velocity": 127}, {"time": 510, "pitch": 69, "duration": 6, "velocity": 127}, {"time": 516, "pitch": 70, "duration": 6, "velocity": 127}, {"time": 522, "pitch": 67, "duration": 6, "velocity": 127}, {"time": 528, "pitch": 70, "duration": 6, "velocity": 127}, {"time": 534, "pitch": 69, "duration": 6, "velocity": 127}, {"time": 540, "pitch": 67, "duration": 6, "velocity": 127}, {"time": 546, "pitch": 65, "duration": 6, "velocity": 127}, {"time": 552, "pitch": 67, "duration": 6, "velocity": 127}, {"time": 558, "pitch": 69, "duration": 6, "velocity": 127}, {"time": 564, "pitch": 70, "duration": 6, "velocity": 127}, {"time": 570, "pitch": 67, "duration": 6, "velocity": 127}, {"time": 576, "pitch": 70, "duration": 6, "velocity": 127}, {"time": 582, "pitch": 69, "duration": 6, "velocity": 127}, {"time": 588, "pitch": 67, "duration": 6, "velocity": 127}, {"time": 594, "pitch": 65, "duration": 6, "velocity": 127}, {"time": 600, "pitch": 67, "duration": 6, "velocity": 127}, {"time": 606, "pitch": 69, "duration": 6, "velocity": 127}, {"time": 612, "pitch": 70, "duration": 6, "velocity": 127}, {"time": 618, "pitch": 67, "duration": 6, "velocity": 127}, {"time": 624, "pitch": 69, "duration": 6, "velocity": 127}, {"time": 630, "pitch": 67, "duration": 6, "velocity": 127}, {"time": 636, "pitch": 65, "duration": 24, "velocity": 127}, {"time": 660, "pitch": 64, "duration": 12, "velocity": 127}, {"time": 672, "pitch": 65, "duration": 12, "velocity": 127}, {"time": 684, "pitch": 57, "duration": 12, "velocity": 127}, {"time": 696, "pitch": 58, "duration": 12, "velocity": 127}, {"time": 708, "pitch": 60, "duration": 12, "velocity": 127}, {"time": 720, "pitch": 53, "duration": 12, "velocity": 127}, {"time": 732, "pitch": 65, "duration": 24, "velocity": 127}, {"time": 756, "pitch": 64, "duration": 12, "velocity": 127}, {"time": 768, "pitch": 65, "duration": 12, "velocity": 127}, {"time": 780, "pitch": 57, "duration": 12, "velocity": 127}, {"time": 792, "pitch": 58, "duration": 12, "velocity": 127}, {"time": 804, "pitch": 60, "duration": 12, "velocity": 127}, {"time": 816, "pitch": 53, "duration": 12, "velocity": 127}, {"time": 828, "pitch": 63, "duration": 12, "velocity": 127}, {"time": 840, "pitch": 62, "duration": 12, "velocity": 127}, {"time": 852, "pitch": 60, "duration": 11, "velocity": 127}, {"time": 863, "pitch": 58, "duration": 1, "velocity": 127}, {"time": 864, "pitch": 57, "duration": 12, "velocity": 127}, {"time": 876, "pitch": 55, "duration": 6, "velocity": 127}, {"time": 882, "pitch": 53, "duration": 6, "velocity": 127}, {"time": 888, "pitch": 58, "duration": 24, "velocity": 127}, {"time": 912, "pitch": 57, "duration": 12, "velocity": 127}, {"time": 924, "pitch": 63, "duration": 12, "velocity": 127}, {"time": 936, "pitch": 62, "duration": 12, "velocity": 127}, {"time": 948, "pitch": 60, "duration": 11, "velocity": 127}, {"time": 959, "pitch": 58, "duration": 1, "velocity": 127}, {"time": 960, "pitch": 57, "duration": 12, "velocity": 127}, {"time": 972, "pitch": 55, "duration": 6, "velocity": 127}, {"time": 978, "pitch": 53, "duration": 6, "velocity": 127}, {"time": 984, "pitch": 65, "duration": 24, "velocity": 127}, {"time": 1020, "pitch": 65, "duration": 12, "velocity": 127}, {"time": 1032, "pitch": 63, "duration": 6, "velocity": 127}, {"time": 1038, "pitch": 62, "duration": 6, "velocity": 127}, {"time": 1044, "pitch": 60, "duration": 6, "velocity": 127}, {"time": 1050, "pitch": 58, "duration": 6, "velocity": 127}, {"time": 1056, "pitch": 60, "duration": 12, "velocity": 127}, {"time": 1068, "pitch": 57, "duration": 12, "velocity": 127}, {"time": 1080, "pitch": 58, "duration": 12, "velocity": 127}, {"time": 1092, "pitch": 51, "duration": 12, "velocity": 127}, {"time": 1104, "pitch": 53, "duration": 24, "velocity": 127}, {"time": 1128, "pitch": 57, "duration": 24, "velocity": 127}, {"time": 1152, "pitch": 58, "duration": 24, "velocity": 127}, {"time": 1200, "pitch": 63, "duration": 24, "velocity": 127}, {"time": 1224, "pitch": 62, "duration": 12, "velocity": 127}, {"time": 1236, "pitch": 67, "duration": 12, "velocity": 127}, {"time": 1248, "pitch": 65, "duration": 12, "velocity": 127}, {"time": 1260, "pitch": 63, "duration": 24, "velocity": 127}, {"time": 1284, "pitch": 62, "duration": 6, "velocity": 127}, {"time": 1290, "pitch": 60, "duration": 6, "velocity": 127}, {"time": 1296, "pitch": 62, "duration": 6, "velocity": 127}, {"time": 1302, "pitch": 65, "duration": 6, "velocity": 127}, {"time": 1308, "pitch": 63, "duration": 6, "velocity": 127}, {"time": 1314, "pitch": 62, "duration": 6, "velocity": 127}, {"time": 1320, "pitch": 67, "duration": 6, "velocity": 127}, {"time": 1326, "pitch": 65, "duration": 6, "velocity": 127}, {"time": 1332, "pitch": 63, "duration": 6, "velocity": 127}, {"time": 1338, "pitch": 62, "duration": 6, "velocity": 127}, {"time": 1344, "pitch": 60, "duration": 12, "velocity": 127}, {"time": 1356, "pitch": 55, "duration": 12, "velocity": 127}, {"time": 1368, "pitch": 59, "duration": 12, "velocity": 127}, {"time": 1380, "pitch": 55, "duration": 12, "velocity": 127}, {"time": 1392, "pitch": 62, "duration": 12, "velocity": 127}, {"time": 1404, "pitch": 55, "duration": 12, "velocity": 127}, {"time": 1416, "pitch": 60, "duration": 48, "velocity": 127}, {"time": 1464, "pitch": 59, "duration": 24, "velocity": 127}, {"time": 1488, "pitch": 60, "duration": 12, "velocity": 127}, {"time": 1500, "pitch": 62, "duration": 6, "velocity": 127}, {"time": 1506, "pitch": 63, "duration": 6, "velocity": 127}, {"time": 1512, "pitch": 62, "duration": 24, "velocity": 127}, {"time": 1536, "pitch": 65, "duration": 12, "velocity": 127}, {"time": 1548, "pitch": 62, "duration": 6, "velocity": 127}, {"time": 1554, "pitch": 65, "duration": 6, "velocity": 127}, {"time": 1560, "pitch": 63, "duration": 12, "velocity": 127}, {"time": 1572, "pitch": 60, "duration": 6, "velocity": 127}, {"time": 1578, "pitch": 63, "duration": 6, "velocity": 127}, {"time": 1584, "pitch": 62, "duration": 12, "velocity": 127}, {"time": 1596, "pitch": 68, "duration": 12, "velocity": 127}, {"time": 1608, "pitch": 67, "duration": 12, "velocity": 127}, {"time": 1620, "pitch": 65, "duration": 12, "velocity": 127}, {"time": 1632, "pitch": 63, "duration": 12, "velocity": 127}, {"time": 1644, "pitch": 62, "duration": 6, "velocity": 127}, {"time": 1650, "pitch": 60, "duration": 6, "velocity": 127}, {"time": 1656, "pitch": 59, "duration": 12, "velocity": 127}, {"time": 1668, "pitch": 60, "duration": 6, "velocity": 127}, {"time": 1674, "pitch": 62, "duration": 6, "velocity": 127}, {"time": 1680, "pitch": 55, "duration": 72, "velocity": 127}, {"time": 1800, "pitch": 65, "duration": 36, "velocity": 127}, {"time": 1836, "pitch": 67, "duration": 6, "velocity": 127}, {"time": 1842, "pitch": 65, "duration": 6, "velocity": 127}, {"time": 1848, "pitch": 64, "duration": 12, "velocity": 127}, {"time": 1860, "pitch": 62, "duration": 12, "velocity": 127}, {"time": 1872, "pitch": 61, "duration": 12, "velocity": 127}, {"time": 1884, "pitch": 57, "duration": 12, "velocity": 127}, {"time": 1896, "pitch": 64, "duration": 12, "velocity": 127}, {"time": 1908, "pitch": 57, "duration": 12, "velocity": 127}, {"time": 1920, "pitch": 69, "duration": 12, "velocity": 127}, {"time": 1932, "pitch": 57, "duration": 12, "velocity": 127}, {"time": 1944, "pitch": 62, "duration": 12, "velocity": 127}, {"time": 1956, "pitch": 50, "duration": 12, "velocity": 127}, {"time": 1968, "pitch": 55, "duration": 24, "velocity": 127}, {"time": 2016, "pitch": 57, "duration": 24, "velocity": 127}, {"time": 2064, "pitch": 53, "duration": 24, "velocity": 127}, {"time": 2112, "pitch": 58, "duration": 6, "velocity": 127}, {"time": 2118, "pitch": 57, "duration": 6, "velocity": 127}, {"time": 2124, "pitch": 55, "duration": 6, "velocity": 127}, {"time": 2130, "pitch": 53, "duration": 6, "velocity": 127}, {"time": 2136, "pitch": 52, "duration": 12, "velocity": 127}, {"time": 2148, "pitch": 50, "duration": 12, "velocity": 127}, {"time": 2160, "pitch": 61, "duration": 12, "velocity": 127}, {"time": 2172, "pitch": 62, "duration": 6, "velocity": 127}, {"time": 2178, "pitch": 64, "duration": 6, "velocity": 127}, {"time": 2184, "pitch": 57, "duration": 12, "velocity": 127}, {"time": 2196, "pitch": 61, "duration": 12, "velocity": 127}, {"time": 2208, "pitch": 62, "duration": 6, "velocity": 127}, {"time": 2214, "pitch": 64, "duration": 6, "velocity": 127}, {"time": 2220, "pitch": 65, "duration": 6, "velocity": 127}, {"time": 2226, "pitch": 67, "duration": 6, "velocity": 127}, {"time": 2232, "pitch": 69, "duration": 12, "velocity": 127}, {"time": 2244, "pitch": 62, "duration": 12, "velocity": 127}, {"time": 2256, "pitch": 67, "duration": 12, "velocity": 127}, {"time": 2268, "pitch": 70, "duration": 6, "velocity": 127}, {"time": 2274, "pitch": 69, "duration": 6, "velocity": 127}, {"time": 2280, "pitch": 70, "duration": 36, "velocity": 127}, {"time": 2316, "pitch": 69, "duration": 6, "velocity": 127}, {"time": 2322, "pitch": 67, "duration": 6, "velocity": 127}, {"time": 2328, "pitch": 65, "duration": 12, "velocity": 127}, {"time": 2340, "pitch": 64, "duration": 12, "velocity": 127}, {"time": 2352, "pitch": 62, "duration": 24, "velocity": 127}, {"time": 2400, "pitch": 63, "duration": 36, "velocity": 127}, {"time": 2436, "pitch": 62, "duration": 12, "velocity": 127}, {"time": 2448, "pitch": 60, "duration": 12, "velocity": 127}, {"time": 2460, "pitch": 70, "duration": 12, "velocity": 127}, {"time": 2472, "pitch": 69, "duration": 12, "velocity": 127}, {"time": 2484, "pitch": 67, "duration": 12, "velocity": 127}, {"time": 2496, "pitch": 66, "duration": 12, "velocity": 127}, {"time": 2508, "pitch": 50, "duration": 12, "velocity": 127}, {"time": 2520, "pitch": 62, "duration": 36, "velocity": 127}, {"time": 2556, "pitch": 60, "duration": 12, "velocity": 127}, {"time": 2568, "pitch": 67, "duration": 12, "velocity": 127}, {"time": 2580, "pitch": 65, "duration": 12, "velocity": 127}, {"time": 2592, "pitch": 63, "duration": 12, "velocity": 127}, {"time": 2604, "pitch": 62, "duration": 12, "velocity": 127}, {"time": 2616, "pitch": 60, "duration": 12, "velocity": 127}, {"time": 2628, "pitch": 58, "duration": 12, "velocity": 127}, {"time": 2640, "pitch": 57, "duration": 6, "velocity": 127}, {"time": 2646, "pitch": 60, "duration": 6, "velocity": 127}, {"time": 2652, "pitch": 58, "duration": 6, "velocity": 127}, {"time": 2658, "pitch": 57, "duration": 6, "velocity": 127}, {"time": 2664, "pitch": 58, "duration": 12, "velocity": 127}, {"time": 2676, "pitch": 50, "duration": 12, "velocity": 127}, {"time": 2688, "pitch": 51, "duration": 12, "velocity": 127}, {"time": 2700, "pitch": 63, "duration": 24, "velocity": 127}, {"time": 2724, "pitch": 62, "duration": 12, "velocity": 127}, {"time": 2736, "pitch": 60, "duration": 12, "velocity": 127}, {"time": 2748, "pitch": 58, "duration": 12, "velocity": 127}, {"time": 2760, "pitch": 57, "duration": 12, "velocity": 127}, {"time": 2772, "pitch": 55, "duration": 12, "velocity": 127}, {"time": 2784, "pitch": 50, "duration": 24, "velocity": 127}, {"time": 2832, "pitch": 67, "duration": 24, "velocity": 127}, {"time": 2856, "pitch": 55, "duration": 24, "velocity": 127}, {"time": 2892, "pitch": 67, "duration": 12, "velocity": 127}, {"time": 2904, "pitch": 69, "duration": 12, "velocity": 127}, {"time": 2916, "pitch": 70, "duration": 12, "velocity": 127}, {"time": 2928, "pitch": 58, "duration": 12, "velocity": 127}, {"time": 2940, "pitch": 67, "duration": 12, "velocity": 127}, {"time": 2952, "pitch": 58, "duration": 12, "velocity": 127}, {"time": 2964, "pitch": 66, "duration": 12, "velocity": 127}, {"time": 2976, "pitch": 67, "duration": 12, "velocity": 127}, {"time": 2988, "pitch": 70, "duration": 6, "velocity": 127}, {"time": 2994, "pitch": 69, "duration": 6, "velocity": 127}, {"time": 3000, "pitch": 67, "duration": 6, "velocity": 127}, {"time": 3006, "pitch": 65, "duration": 6, "velocity": 127}, {"time": 3012, "pitch": 63, "duration": 6, "velocity": 127}, {"time": 3018, "pitch": 62, "duration": 6, "velocity": 127}, {"time": 3024, "pitch": 63, "duration": 24, "velocity": 127}, {"time": 3072, "pitch": 62, "duration": 12, "velocity": 127}, {"time": 3084, "pitch": 58, "duration": 6, "velocity": 127}, {"time": 3090, "pitch": 62, "duration": 6, "velocity": 127}, {"time": 3096, "pitch": 60, "duration": 12, "velocity": 127}, {"time": 3108, "pitch": 57, "duration": 6, "velocity": 127}, {"time": 3114, "pitch": 60, "duration": 6, "velocity": 127}, {"time": 3120, "pitch": 58, "duration": 24, "velocity": 127}, {"time": 3168, "pitch": 60, "duration": 12, "velocity": 127}, {"time": 3180, "pitch": 63, "duration": 6, "velocity": 127}, {"time": 3186, "pitch": 62, "duration": 6, "velocity": 127}, {"time": 3192, "pitch": 60, "duration": 6, "velocity": 127}, {"time": 3198, "pitch": 58, "duration": 6, "velocity": 127}, {"time": 3204, "pitch": 57, "duration": 6, "velocity": 127}, {"time": 3210, "pitch": 55, "duration": 6, "velocity": 127}, {"time": 3216, "pitch": 54, "duration": 12, "velocity": 127}, {"time": 3228, "pitch": 55, "duration": 12, "velocity": 127}, {"time": 3240, "pitch": 57, "duration": 12, "velocity": 127}, {"time": 3252, "pitch": 50, "duration": 12, "velocity": 127}, {"time": 3288, "pitch": 62, "duration": 24, "velocity": 127}, {"time": 3336, "pitch": 63, "duration": 24, "velocity": 127}, {"time": 3384, "pitch": 60, "duration": 12, "velocity": 127}, {"time": 3396, "pitch": 58, "duration": 6, "velocity": 127}, {"time": 3402, "pitch": 57, "duration": 6, "velocity": 127}, {"time": 3408, "pitch": 58, "duration": 12, "velocity": 127}, {"time": 3420, "pitch": 62, "duration": 6, "velocity": 127}, {"time": 3426, "pitch": 60, "duration": 6, "velocity": 127}, {"time": 3432, "pitch": 58, "duration": 12, "velocity": 127}, {"time": 3444, "pitch": 57, "duration": 12, "velocity": 127}, {"time": 3456, "pitch": 55, "duration": 12, "velocity": 127}, {"time": 3468, "pitch": 63, "duration": 6, "velocity": 127}, {"time": 3474, "pitch": 62, "duration": 6, "velocity": 127}, {"time": 3480, "pitch": 60, "duration": 6, "velocity": 127}, {"time": 3486, "pitch": 58, "duration": 6, "velocity": 127}, {"time": 3492, "pitch": 57, "duration": 6, "velocity": 127}, {"time": 3498, "pitch": 55, "duration": 6, "velocity": 127}, {"time": 3504, "pitch": 54, "duration": 12, "velocity": 127}, {"time": 3516, "pitch": 55, "duration": 12, "velocity": 127}, {"time": 3528, "pitch": 57, "duration": 12, "velocity": 127}, {"time": 3540, "pitch": 50, "duration": 12, "velocity": 127}, {"time": 3552, "pitch": 55, "duration": 12, "velocity": 127}, {"time": 3564, "pitch": 70, "duration": 12, "velocity": 127}, {"time": 3576, "pitch": 50, "duration": 12, "velocity": 127}, {"time": 3588, "pitch": 66, "duration": 12, "velocity": 127}, {"time": 3600, "pitch": 67, "duration": 24, "velocity": 127}]}]}