{"metadata": {"schema_version": "0.2"}, "resolution": 24, "tracks": [{"program": 41, "is_drum": false, "name": "", "notes": [{"time": 36, "pitch": 70, "duration": 5, "velocity": 127}, {"time": 41, "pitch": 67, "duration": 1, "velocity": 127}, {"time": 42, "pitch": 66, "duration": 12, "velocity": 127}, {"time": 54, "pitch": 67, "duration": 12, "velocity": 127}, {"time": 66, "pitch": 62, "duration": 6, "velocity": 127}, {"time": 72, "pitch": 55, "duration": 3, "velocity": 127}, {"time": 75, "pitch": 58, "duration": 3, "velocity": 127}, {"time": 78, "pitch": 62, "duration": 6, "velocity": 127}, {"time": 84, "pitch": 60, "duration": 6, "velocity": 127}, {"time": 90, "pitch": 58, "duration": 6, "velocity": 127}, {"time": 96, "pitch": 57, "duration": 3, "velocity": 127}, {"time": 99, "pitch": 58, "duration": 3, "velocity": 127}, {"time": 102, "pitch": 55, "duration": 6, "velocity": 127}, {"time": 114, "pitch": 58, "duration": 3, "velocity": 127}, {"time": 117, "pitch": 60, "duration": 3, "velocity": 127}, {"time": 120, "pitch": 57, "duration": 6, "velocity": 127}, {"time": 132, "pitch": 60, "duration": 3, "velocity": 127}, {"time": 135, "pitch": 62, "duration": 3, "velocity": 127}, {"time": 138, "pitch": 58, "duration": 6, "velocity": 127}, {"time": 144, "pitch": 63, "duration": 6, "velocity": 127}, {"time": 150, "pitch": 62, "duration": 6, "velocity": 127}, {"time": 156, "pitch": 60, "duration": 6, "velocity": 127}, {"time": 162, "pitch": 58, "duration": 6, "velocity": 127}, {"time": 168, "pitch": 57, "duration": 6, "velocity": 127}, {"time": 174, "pitch": 55, "duration": 6, "velocity": 127}, {"time": 180, "pitch": 54, "duration": 6, "velocity": 127}, {"time": 186, "pitch": 54, "duration": 3, "velocity": 127}, {"time": 189, "pitch": 55, "duration": 3, "velocity": 127}, {"time": 192, "pitch": 57, "duration": 6, "velocity": 127}, {"time": 198, "pitch": 50, "duration": 12, "velocity": 127}, {"time": 216, "pitch": 62, "duration": 6, "velocity": 127}, {"time": 222, "pitch": 60, "duration": 3, "velocity": 127}, {"time": 225, "pitch": 58, "duration": 3, "velocity": 127}, {"time": 228, "pitch": 57, "duration": 3, "velocity": 127}, {"time": 231, "pitch": 60, "duration": 3, "velocity": 127}, {"time": 234, "pitch": 58, "duration": 3, "velocity": 127}, {"time": 237, "pitch": 62, "duration": 3, "velocity": 127}, {"time": 240, "pitch": 64, "duration": 3, "velocity": 127}, {"time": 243, "pitch": 66, "duration": 3, "velocity": 127}, {"time": 246, "pitch": 67, "duration": 3, "velocity": 127}, {"time": 249, "pitch": 69, "duration": 3, "velocity": 127}, {"time": 252, "pitch": 70, "duration": 5, "velocity": 127}, {"time": 257, "pitch": 67, "duration": 1, "velocity": 127}, {"time": 258, "pitch": 66, "duration": 12, "velocity": 127}, {"time": 270, "pitch": 67, "duration": 12, "velocity": 127}, {"time": 282, "pitch": 62, "duration": 6, "velocity": 127}, {"time": 288, "pitch": 55, "duration": 3, "velocity": 127}, {"time": 291, "pitch": 58, "duration": 3, "velocity": 127}, {"time": 294, "pitch": 62, "duration": 6, "velocity": 127}, {"time": 300, "pitch": 60, "duration": 6, "velocity": 127}, {"time": 306, "pitch": 58, "duration": 6, "velocity": 127}, {"time": 312, "pitch": 57, "duration": 3, "velocity": 127}, {"time": 315, "pitch": 58, "duration": 3, "velocity": 127}, {"time": 318, "pitch": 55, "duration": 6, "velocity": 127}, {"time": 330, "pitch": 58, "duration": 3, "velocity": 127}, {"time": 333, "pitch": 60, "duration": 3, "velocity": 127}, {"time": 336, "pitch": 57, "duration": 6, "velocity": 127}, {"time": 348, "pitch": 60, "duration": 3, "velocity": 127}, {"time": 351, "pitch": 62, "duration": 3, "velocity": 127}, {"time": 354, "pitch": 58, "duration": 6, "velocity": 127}, {"time": 360, "pitch": 63, "duration": 6, "velocity": 127}, {"time": 366, "pitch": 62, "duration": 6, "velocity": 127}, {"time": 372, "pitch": 60, "duration": 6, "velocity": 127}, {"time": 378, "pitch": 58, "duration": 6, "velocity": 127}, {"time": 384, "pitch": 57, "duration": 6, "velocity": 127}, {"time": 390, "pitch": 55, "duration": 6, "velocity": 127}, {"time": 396, "pitch": 54, "duration": 3, "velocity": 127}, {"time": 399, "pitch": 60, "duration": 3, "velocity": 127}, {"time": 402, "pitch": 58, "duration": 3, "velocity": 127}, {"time": 405, "pitch": 57, "duration": 3, "velocity": 127}, {"time": 408, "pitch": 55, "duration": 3, "velocity": 127}, {"time": 411, "pitch": 54, "duration": 3, "velocity": 127}, {"time": 414, "pitch": 55, "duration": 6, "velocity": 127}, {"time": 420, "pitch": 60, "duration": 9, "velocity": 127}, {"time": 429, "pitch": 62, "duration": 1, "velocity": 127}, {"time": 430, "pitch": 63, "duration": 2, "velocity": 127}, {"time": 432, "pitch": 62, "duration": 6, "velocity": 127}, {"time": 438, "pitch": 62, "duration": 3, "velocity": 127}, {"time": 441, "pitch": 60, "duration": 3, "velocity": 127}, {"time": 444, "pitch": 58, "duration": 3, "velocity": 127}, {"time": 447, "pitch": 57, "duration": 3, "velocity": 127}, {"time": 450, "pitch": 55, "duration": 6, "velocity": 127}, {"time": 468, "pitch": 66, "duration": 6, "velocity": 127}, {"time": 474, "pitch": 67, "duration": 3, "velocity": 127}, {"time": 477, "pitch": 66, "duration": 3, "velocity": 127}, {"time": 480, "pitch": 67, "duration": 3, "velocity": 127}, {"time": 483, "pitch": 69, "duration": 2, "velocity": 127}, {"time": 485, "pitch": 69, "duration": 1, "velocity": 127}, {"time": 486, "pitch": 70, "duration": 12, "velocity": 127}, {"time": 498, "pitch": 67, "duration": 6, "velocity": 127}, {"time": 504, "pitch": 69, "duration": 6, "velocity": 127}, {"time": 510, "pitch": 62, "duration": 6, "velocity": 127}, {"time": 516, "pitch": 62, "duration": 6, "velocity": 127}, {"time": 522, "pitch": 67, "duration": 6, "velocity": 127}, {"time": 528, "pitch": 60, "duration": 6, "velocity": 127}, {"time": 534, "pitch": 60, "duration": 6, "velocity": 127}, {"time": 540, "pitch": 65, "duration": 12, "velocity": 127}, {"time": 558, "pitch": 63, "duration": 12, "velocity": 127}, {"time": 576, "pitch": 62, "duration": 3, "velocity": 127}, {"time": 579, "pitch": 65, "duration": 3, "velocity": 127}, {"time": 582, "pitch": 63, "duration": 3, "velocity": 127}, {"time": 585, "pitch": 62, "duration": 3, "velocity": 127}, {"time": 588, "pitch": 60, "duration": 3, "velocity": 127}, {"time": 591, "pitch": 58, "duration": 3, "velocity": 127}, {"time": 594, "pitch": 60, "duration": 3, "velocity": 127}, {"time": 597, "pitch": 63, "duration": 3, "velocity": 127}, {"time": 600, "pitch": 62, "duration": 3, "velocity": 127}, {"time": 603, "pitch": 60, "duration": 3, "velocity": 127}, {"time": 606, "pitch": 58, "duration": 3, "velocity": 127}, {"time": 609, "pitch": 57, "duration": 3, "velocity": 127}, {"time": 612, "pitch": 58, "duration": 3, "velocity": 127}, {"time": 615, "pitch": 62, "duration": 3, "velocity": 127}, {"time": 618, "pitch": 60, "duration": 3, "velocity": 127}, {"time": 621, "pitch": 58, "duration": 3, "velocity": 127}, {"time": 624, "pitch": 57, "duration": 3, "velocity": 127}, {"time": 627, "pitch": 55, "duration": 3, "velocity": 127}, {"time": 630, "pitch": 53, "duration": 6, "velocity": 127}, {"time": 636, "pitch": 65, "duration": 6, "velocity": 127}, {"time": 642, "pitch": 53, "duration": 6, "velocity": 127}, {"time": 648, "pitch": 62, "duration": 3, "velocity": 127}, {"time": 651, "pitch": 58, "duration": 3, "velocity": 127}, {"time": 654, "pitch": 57, "duration": 3, "velocity": 127}, {"time": 657, "pitch": 58, "duration": 3, "velocity": 127}, {"time": 660, "pitch": 63, "duration": 12, "velocity": 127}, {"time": 672, "pitch": 62, "duration": 3, "velocity": 127}, {"time": 675, "pitch": 60, "duration": 3, "velocity": 127}, {"time": 678, "pitch": 58, "duration": 3, "velocity": 127}, {"time": 681, "pitch": 57, "duration": 3, "velocity": 127}, {"time": 684, "pitch": 58, "duration": 6, "velocity": 127}, {"time": 690, "pitch": 53, "duration": 6, "velocity": 127}, {"time": 696, "pitch": 57, "duration": 6, "velocity": 127}, {"time": 702, "pitch": 58, "duration": 9, "velocity": 127}, {"time": 711, "pitch": 60, "duration": 3, "velocity": 127}, {"time": 714, "pitch": 62, "duration": 3, "velocity": 127}, {"time": 717, "pitch": 63, "duration": 3, "velocity": 127}, {"time": 720, "pitch": 62, "duration": 3, "velocity": 127}, {"time": 723, "pitch": 58, "duration": 3, "velocity": 127}, {"time": 726, "pitch": 57, "duration": 3, "velocity": 127}, {"time": 729, "pitch": 58, "duration": 3, "velocity": 127}, {"time": 732, "pitch": 63, "duration": 12, "velocity": 127}, {"time": 744, "pitch": 62, "duration": 3, "velocity": 127}, {"time": 747, "pitch": 60, "duration": 3, "velocity": 127}, {"time": 750, "pitch": 58, "duration": 3, "velocity": 127}, {"time": 753, "pitch": 57, "duration": 3, "velocity": 127}, {"time": 756, "pitch": 58, "duration": 6, "velocity": 127}, {"time": 762, "pitch": 53, "duration": 6, "velocity": 127}, {"time": 768, "pitch": 57, "duration": 6, "velocity": 127}, {"time": 774, "pitch": 58, "duration": 12, "velocity": 127}, {"time": 792, "pitch": 65, "duration": 6, "velocity": 127}, {"time": 798, "pitch": 63, "duration": 3, "velocity": 127}, {"time": 801, "pitch": 62, "duration": 3, "velocity": 127}, {"time": 804, "pitch": 63, "duration": 6, "velocity": 127}, {"time": 810, "pitch": 62, "duration": 6, "velocity": 127}, {"time": 816, "pitch": 62, "duration": 6, "velocity": 127}, {"time": 822, "pitch": 70, "duration": 6, "velocity": 127}, {"time": 828, "pitch": 69, "duration": 6, "velocity": 127}, {"time": 834, "pitch": 67, "duration": 3, "velocity": 127}, {"time": 837, "pitch": 66, "duration": 3, "velocity": 127}, {"time": 840, "pitch": 67, "duration": 5, "velocity": 127}, {"time": 845, "pitch": 67, "duration": 1, "velocity": 127}, {"time": 846, "pitch": 66, "duration": 12, "velocity": 127}, {"time": 858, "pitch": 67, "duration": 6, "velocity": 127}, {"time": 864, "pitch": 62, "duration": 6, "velocity": 127}, {"time": 870, "pitch": 63, "duration": 3, "velocity": 127}, {"time": 873, "pitch": 62, "duration": 3, "velocity": 127}, {"time": 876, "pitch": 63, "duration": 3, "velocity": 127}, {"time": 879, "pitch": 60, "duration": 3, "velocity": 127}, {"time": 882, "pitch": 62, "duration": 12, "velocity": 127}, {"time": 900, "pitch": 62, "duration": 12, "velocity": 127}, {"time": 912, "pitch": 60, "duration": 6, "velocity": 127}, {"time": 918, "pitch": 58, "duration": 3, "velocity": 127}, {"time": 921, "pitch": 57, "duration": 3, "velocity": 127}, {"time": 924, "pitch": 55, "duration": 6, "velocity": 127}, {"time": 930, "pitch": 69, "duration": 6, "velocity": 127}, {"time": 936, "pitch": 70, "duration": 5, "velocity": 127}, {"time": 941, "pitch": 67, "duration": 1, "velocity": 127}, {"time": 942, "pitch": 66, "duration": 12, "velocity": 127}, {"time": 954, "pitch": 67, "duration": 12, "velocity": 127}, {"time": 966, "pitch": 62, "duration": 6, "velocity": 127}, {"time": 972, "pitch": 55, "duration": 3, "velocity": 127}, {"time": 975, "pitch": 58, "duration": 3, "velocity": 127}, {"time": 978, "pitch": 62, "duration": 6, "velocity": 127}, {"time": 984, "pitch": 60, "duration": 6, "velocity": 127}, {"time": 990, "pitch": 58, "duration": 6, "velocity": 127}, {"time": 996, "pitch": 57, "duration": 3, "velocity": 127}, {"time": 999, "pitch": 58, "duration": 3, "velocity": 127}, {"time": 1002, "pitch": 55, "duration": 6, "velocity": 127}, {"time": 1014, "pitch": 58, "duration": 3, "velocity": 127}, {"time": 1017, "pitch": 60, "duration": 3, "velocity": 127}, {"time": 1020, "pitch": 57, "duration": 6, "velocity": 127}, {"time": 1032, "pitch": 60, "duration": 3, "velocity": 127}, {"time": 1035, "pitch": 62, "duration": 3, "velocity": 127}, {"time": 1038, "pitch": 58, "duration": 6, "velocity": 127}, {"time": 1044, "pitch": 63, "duration": 6, "velocity": 127}, {"time": 1050, "pitch": 62, "duration": 6, "velocity": 127}, {"time": 1056, "pitch": 60, "duration": 6, "velocity": 127}, {"time": 1062, "pitch": 58, "duration": 6, "velocity": 127}, {"time": 1068, "pitch": 57, "duration": 6, "velocity": 127}, {"time": 1074, "pitch": 55, "duration": 6, "velocity": 127}, {"time": 1080, "pitch": 54, "duration": 6, "velocity": 127}, {"time": 1086, "pitch": 54, "duration": 3, "velocity": 127}, {"time": 1089, "pitch": 55, "duration": 3, "velocity": 127}, {"time": 1092, "pitch": 57, "duration": 6, "velocity": 127}, {"time": 1098, "pitch": 50, "duration": 12, "velocity": 127}, {"time": 1116, "pitch": 62, "duration": 6, "velocity": 127}, {"time": 1122, "pitch": 60, "duration": 3, "velocity": 127}, {"time": 1125, "pitch": 58, "duration": 3, "velocity": 127}, {"time": 1128, "pitch": 57, "duration": 3, "velocity": 127}, {"time": 1131, "pitch": 60, "duration": 3, "velocity": 127}, {"time": 1134, "pitch": 58, "duration": 3, "velocity": 127}, {"time": 1137, "pitch": 62, "duration": 3, "velocity": 127}, {"time": 1140, "pitch": 64, "duration": 3, "velocity": 127}, {"time": 1143, "pitch": 66, "duration": 3, "velocity": 127}, {"time": 1146, "pitch": 67, "duration": 3, "velocity": 127}, {"time": 1149, "pitch": 69, "duration": 3, "velocity": 127}, {"time": 1152, "pitch": 70, "duration": 5, "velocity": 127}, {"time": 1157, "pitch": 67, "duration": 1, "velocity": 127}, {"time": 1158, "pitch": 66, "duration": 12, "velocity": 127}, {"time": 1170, "pitch": 67, "duration": 12, "velocity": 127}, {"time": 1182, "pitch": 62, "duration": 6, "velocity": 127}, {"time": 1188, "pitch": 55, "duration": 3, "velocity": 127}, {"time": 1191, "pitch": 58, "duration": 3, "velocity": 127}, {"time": 1194, "pitch": 62, "duration": 6, "velocity": 127}, {"time": 1200, "pitch": 60, "duration": 6, "velocity": 127}, {"time": 1206, "pitch": 58, "duration": 6, "velocity": 127}, {"time": 1212, "pitch": 57, "duration": 3, "velocity": 127}, {"time": 1215, "pitch": 58, "duration": 3, "velocity": 127}, {"time": 1218, "pitch": 55, "duration": 6, "velocity": 127}, {"time": 1230, "pitch": 58, "duration": 3, "velocity": 127}, {"time": 1233, "pitch": 60, "duration": 3, "velocity": 127}, {"time": 1236, "pitch": 57, "duration": 6, "velocity": 127}, {"time": 1248, "pitch": 60, "duration": 3, "velocity": 127}, {"time": 1251, "pitch": 62, "duration": 3, "velocity": 127}, {"time": 1254, "pitch": 58, "duration": 6, "velocity": 127}, {"time": 1260, "pitch": 63, "duration": 6, "velocity": 127}, {"time": 1266, "pitch": 62, "duration": 6, "velocity": 127}, {"time": 1272, "pitch": 60, "duration": 6, "velocity": 127}, {"time": 1278, "pitch": 58, "duration": 6, "velocity": 127}, {"time": 1284, "pitch": 57, "duration": 6, "velocity": 127}, {"time": 1290, "pitch": 55, "duration": 6, "velocity": 127}, {"time": 1296, "pitch": 54, "duration": 3, "velocity": 127}, {"time": 1299, "pitch": 60, "duration": 3, "velocity": 127}, {"time": 1302, "pitch": 58, "duration": 3, "velocity": 127}, {"time": 1305, "pitch": 57, "duration": 3, "velocity": 127}, {"time": 1308, "pitch": 55, "duration": 3, "velocity": 127}, {"time": 1311, "pitch": 54, "duration": 3, "velocity": 127}, {"time": 1314, "pitch": 55, "duration": 6, "velocity": 127}, {"time": 1320, "pitch": 60, "duration": 9, "velocity": 127}, {"time": 1329, "pitch": 62, "duration": 1, "velocity": 127}, {"time": 1330, "pitch": 63, "duration": 2, "velocity": 127}, {"time": 1332, "pitch": 62, "duration": 6, "velocity": 127}, {"time": 1338, "pitch": 62, "duration": 3, "velocity": 127}, {"time": 1341, "pitch": 60, "duration": 3, "velocity": 127}, {"time": 1344, "pitch": 58, "duration": 3, "velocity": 127}, {"time": 1347, "pitch": 57, "duration": 3, "velocity": 127}, {"time": 1350, "pitch": 55, "duration": 12, "velocity": 127}]}]}