{"metadata": {"schema_version": "0.2"}, "resolution": 24, "tracks": [{"program": 41, "is_drum": false, "name": "", "notes": [{"time": 72, "pitch": 58, "duration": 9, "velocity": 127}, {"time": 81, "pitch": 63, "duration": 3, "velocity": 127}, {"time": 84, "pitch": 62, "duration": 12, "velocity": 127}, {"time": 96, "pitch": 60, "duration": 12, "velocity": 127}, {"time": 108, "pitch": 53, "duration": 9, "velocity": 127}, {"time": 117, "pitch": 57, "duration": 2, "velocity": 127}, {"time": 119, "pitch": 57, "duration": 1, "velocity": 127}, {"time": 120, "pitch": 58, "duration": 12, "velocity": 127}, {"time": 144, "pitch": 70, "duration": 9, "velocity": 127}, {"time": 153, "pitch": 69, "duration": 1, "velocity": 127}, {"time": 154, "pitch": 67, "duration": 2, "velocity": 127}, {"time": 156, "pitch": 65, "duration": 12, "velocity": 127}, {"time": 168, "pitch": 63, "duration": 12, "velocity": 127}, {"time": 180, "pitch": 63, "duration": 12, "velocity": 127}, {"time": 192, "pitch": 62, "duration": 12, "velocity": 127}, {"time": 216, "pitch": 62, "duration": 6, "velocity": 127}, {"time": 222, "pitch": 53, "duration": 6, "velocity": 127}, {"time": 228, "pitch": 62, "duration": 6, "velocity": 127}, {"time": 234, "pitch": 53, "duration": 6, "velocity": 127}, {"time": 240, "pitch": 60, "duration": 6, "velocity": 127}, {"time": 246, "pitch": 53, "duration": 6, "velocity": 127}, {"time": 252, "pitch": 58, "duration": 6, "velocity": 127}, {"time": 258, "pitch": 53, "duration": 6, "velocity": 127}, {"time": 264, "pitch": 58, "duration": 6, "velocity": 127}, {"time": 270, "pitch": 53, "duration": 6, "velocity": 127}, {"time": 276, "pitch": 62, "duration": 6, "velocity": 127}, {"time": 282, "pitch": 58, "duration": 6, "velocity": 127}, {"time": 288, "pitch": 65, "duration": 9, "velocity": 127}, {"time": 297, "pitch": 64, "duration": 3, "velocity": 127}, {"time": 300, "pitch": 65, "duration": 12, "velocity": 127}, {"time": 324, "pitch": 65, "duration": 9, "velocity": 127}, {"time": 333, "pitch": 64, "duration": 3, "velocity": 127}, {"time": 336, "pitch": 65, "duration": 12, "velocity": 127}, {"time": 360, "pitch": 57, "duration": 6, "velocity": 127}, {"time": 366, "pitch": 62, "duration": 6, "velocity": 127}, {"time": 372, "pitch": 60, "duration": 6, "velocity": 127}, {"time": 378, "pitch": 57, "duration": 6, "velocity": 127}, {"time": 384, "pitch": 58, "duration": 6, "velocity": 127}, {"time": 390, "pitch": 55, "duration": 6, "velocity": 127}, {"time": 396, "pitch": 57, "duration": 6, "velocity": 127}, {"time": 402, "pitch": 62, "duration": 6, "velocity": 127}, {"time": 408, "pitch": 60, "duration": 6, "velocity": 127}, {"time": 414, "pitch": 57, "duration": 6, "velocity": 127}, {"time": 420, "pitch": 58, "duration": 6, "velocity": 127}, {"time": 426, "pitch": 55, "duration": 6, "velocity": 127}, {"time": 432, "pitch": 53, "duration": 6, "velocity": 127}, {"time": 438, "pitch": 58, "duration": 6, "velocity": 127}, {"time": 444, "pitch": 57, "duration": 6, "velocity": 127}, {"time": 450, "pitch": 53, "duration": 6, "velocity": 127}, {"time": 456, "pitch": 55, "duration": 6, "velocity": 127}, {"time": 462, "pitch": 52, "duration": 6, "velocity": 127}, {"time": 468, "pitch": 53, "duration": 6, "velocity": 127}, {"time": 474, "pitch": 58, "duration": 6, "velocity": 127}, {"time": 480, "pitch": 57, "duration": 6, "velocity": 127}, {"time": 486, "pitch": 53, "duration": 6, "velocity": 127}, {"time": 492, "pitch": 55, "duration": 6, "velocity": 127}, {"time": 498, "pitch": 52, "duration": 6, "velocity": 127}, {"time": 504, "pitch": 60, "duration": 54, "velocity": 127}, {"time": 558, "pitch": 57, "duration": 6, "velocity": 127}, {"time": 564, "pitch": 58, "duration": 12, "velocity": 127}, {"time": 576, "pitch": 57, "duration": 6, "velocity": 127}, {"time": 582, "pitch": 55, "duration": 6, "velocity": 127}, {"time": 588, "pitch": 53, "duration": 6, "velocity": 127}, {"time": 594, "pitch": 57, "duration": 6, "velocity": 127}, {"time": 600, "pitch": 60, "duration": 6, "velocity": 127}, {"time": 606, "pitch": 63, "duration": 5, "velocity": 127}, {"time": 611, "pitch": 63, "duration": 1, "velocity": 127}, {"time": 612, "pitch": 62, "duration": 18, "velocity": 127}, {"time": 630, "pitch": 60, "duration": 6, "velocity": 127}, {"time": 636, "pitch": 62, "duration": 12, "velocity": 127}, {"time": 648, "pitch": 60, "duration": 12, "velocity": 127}, {"time": 660, "pitch": 65, "duration": 12, "velocity": 127}, {"time": 684, "pitch": 65, "duration": 12, "velocity": 127}, {"time": 696, "pitch": 70, "duration": 12, "velocity": 127}, {"time": 708, "pitch": 58, "duration": 12, "velocity": 127}, {"time": 720, "pitch": 63, "duration": 18, "velocity": 127}, {"time": 738, "pitch": 62, "duration": 6, "velocity": 127}, {"time": 744, "pitch": 63, "duration": 6, "velocity": 127}, {"time": 750, "pitch": 60, "duration": 6, "velocity": 127}, {"time": 756, "pitch": 62, "duration": 18, "velocity": 127}, {"time": 774, "pitch": 60, "duration": 6, "velocity": 127}, {"time": 780, "pitch": 62, "duration": 6, "velocity": 127}, {"time": 786, "pitch": 58, "duration": 6, "velocity": 127}, {"time": 792, "pitch": 60, "duration": 12, "velocity": 127}, {"time": 804, "pitch": 53, "duration": 12, "velocity": 127}, {"time": 816, "pitch": 57, "duration": 12, "velocity": 127}, {"time": 828, "pitch": 58, "duration": 12, "velocity": 127}, {"time": 840, "pitch": 70, "duration": 12, "velocity": 127}, {"time": 864, "pitch": 63, "duration": 12, "velocity": 127}, {"time": 876, "pitch": 62, "duration": 12, "velocity": 127}, {"time": 888, "pitch": 60, "duration": 12, "velocity": 127}, {"time": 900, "pitch": 58, "duration": 12, "velocity": 127}, {"time": 912, "pitch": 57, "duration": 12, "velocity": 127}, {"time": 936, "pitch": 55, "duration": 12, "velocity": 127}, {"time": 948, "pitch": 53, "duration": 12, "velocity": 127}, {"time": 960, "pitch": 51, "duration": 12, "velocity": 127}, {"time": 972, "pitch": 50, "duration": 24, "velocity": 127}]}]}