{"metadata": {"schema_version": "0.2"}, "resolution": 24, "tracks": [{"program": 74, "is_drum": false, "notes": [{"time": 0, "pitch": 70, "duration": 12, "velocity": 127}, {"time": 12, "pitch": 72, "duration": 12, "velocity": 127}, {"time": 24, "pitch": 74, "duration": 12, "velocity": 127}, {"time": 36, "pitch": 70, "duration": 12, "velocity": 127}, {"time": 48, "pitch": 77, "duration": 12, "velocity": 127}, {"time": 60, "pitch": 65, "duration": 12, "velocity": 127}, {"time": 72, "pitch": 77, "duration": 12, "velocity": 127}, {"time": 84, "pitch": 75, "duration": 12, "velocity": 127}, {"time": 96, "pitch": 74, "duration": 12, "velocity": 127}, {"time": 108, "pitch": 70, "duration": 12, "velocity": 127}, {"time": 120, "pitch": 72, "duration": 12, "velocity": 127}, {"time": 132, "pitch": 69, "duration": 12, "velocity": 127}, {"time": 144, "pitch": 70, "duration": 12, "velocity": 127}, {"time": 156, "pitch": 65, "duration": 12, "velocity": 127}, {"time": 168, "pitch": 69, "duration": 12, "velocity": 127}, {"time": 180, "pitch": 65, "duration": 12, "velocity": 127}, {"time": 216, "pitch": 69, "duration": 18, "velocity": 127}, {"time": 234, "pitch": 70, "duration": 3, "velocity": 127}, {"time": 237, "pitch": 72, "duration": 3, "velocity": 127}, {"time": 240, "pitch": 70, "duration": 24, "velocity": 127}, {"time": 264, "pitch": 69, "duration": 24, "velocity": 127}, {"time": 312, "pitch": 69, "duration": 18, "velocity": 127}, {"time": 330, "pitch": 70, "duration": 3, "velocity": 127}, {"time": 333, "pitch": 72, "duration": 3, "velocity": 127}, {"time": 336, "pitch": 70, "duration": 12, "velocity": 127}, {"time": 348, "pitch": 65, "duration": 12, "velocity": 127}, {"time": 360, "pitch": 69, "duration": 12, "velocity": 127}, {"time": 372, "pitch": 65, "duration": 12, "velocity": 127}, {"time": 384, "pitch": 77, "duration": 24, "velocity": 127}, {"time": 408, "pitch": 82, "duration": 24, "velocity": 127}, {"time": 432, "pitch": 81, "duration": 24, "velocity": 127}, {"time": 468, "pitch": 79, "duration": 12, "velocity": 127}, {"time": 480, "pitch": 77, "duration": 12, "velocity": 127}, {"time": 492, "pitch": 74, "duration": 12, "velocity": 127}, {"time": 504, "pitch": 75, "duration": 18, "velocity": 127}, {"time": 522, "pitch": 77, "duration": 6, "velocity": 127}, {"time": 528, "pitch": 74, "duration": 24, "velocity": 127}, {"time": 552, "pitch": 72, "duration": 24, "velocity": 127}, {"time": 576, "pitch": 77, "duration": 12, "velocity": 127}, {"time": 588, "pitch": 70, "duration": 12, "velocity": 127}, {"time": 600, "pitch": 77, "duration": 12, "velocity": 127}, {"time": 612, "pitch": 70, "duration": 12, "velocity": 127}, {"time": 624, "pitch": 75, "duration": 12, "velocity": 127}, {"time": 636, "pitch": 74, "duration": 6, "velocity": 127}, {"time": 642, "pitch": 72, "duration": 6, "velocity": 127}, {"time": 648, "pitch": 74, "duration": 24, "velocity": 127}, {"time": 672, "pitch": 79, "duration": 12, "velocity": 127}, {"time": 684, "pitch": 70, "duration": 12, "velocity": 127}, {"time": 696, "pitch": 77, "duration": 12, "velocity": 127}, {"time": 708, "pitch": 70, "duration": 12, "velocity": 127}, {"time": 720, "pitch": 75, "duration": 12, "velocity": 127}, {"time": 732, "pitch": 74, "duration": 6, "velocity": 127}, {"time": 738, "pitch": 72, "duration": 6, "velocity": 127}, {"time": 744, "pitch": 74, "duration": 24, "velocity": 127}, {"time": 768, "pitch": 72, "duration": 12, "velocity": 127}, {"time": 780, "pitch": 75, "duration": 12, "velocity": 127}, {"time": 792, "pitch": 79, "duration": 12, "velocity": 127}, {"time": 804, "pitch": 70, "duration": 12, "velocity": 127}, {"time": 816, "pitch": 69, "duration": 12, "velocity": 127}, {"time": 828, "pitch": 72, "duration": 12, "velocity": 127}, {"time": 840, "pitch": 65, "duration": 12, "velocity": 127}, {"time": 852, "pitch": 69, "duration": 12, "velocity": 127}, {"time": 864, "pitch": 70, "duration": 12, "velocity": 127}, {"time": 876, "pitch": 74, "duration": 12, "velocity": 127}, {"time": 888, "pitch": 72, "duration": 12, "velocity": 127}, {"time": 900, "pitch": 81, "duration": 12, "velocity": 127}, {"time": 912, "pitch": 82, "duration": 24, "velocity": 127}, {"time": 960, "pitch": 74, "duration": 24, "velocity": 127}, {"time": 984, "pitch": 76, "duration": 24, "velocity": 127}, {"time": 1008, "pitch": 77, "duration": 24, "velocity": 127}, {"time": 1044, "pitch": 74, "duration": 12, "velocity": 127}, {"time": 1056, "pitch": 79, "duration": 24, "velocity": 127}, {"time": 1080, "pitch": 81, "duration": 24, "velocity": 127}, {"time": 1104, "pitch": 82, "duration": 24, "velocity": 127}, {"time": 1140, "pitch": 81, "duration": 12, "velocity": 127}, {"time": 1152, "pitch": 81, "duration": 24, "velocity": 127}, {"time": 1176, "pitch": 79, "duration": 12, "velocity": 127}, {"time": 1188, "pitch": 78, "duration": 12, "velocity": 127}, {"time": 1200, "pitch": 79, "duration": 24, "velocity": 127}, {"time": 1224, "pitch": 81, "duration": 12, "velocity": 127}, {"time": 1236, "pitch": 82, "duration": 9, "velocity": 127}, {"time": 1245, "pitch": 81, "duration": 3, "velocity": 127}, {"time": 1248, "pitch": 79, "duration": 36, "velocity": 127}, {"time": 1284, "pitch": 77, "duration": 12, "velocity": 127}, {"time": 1296, "pitch": 76, "duration": 18, "velocity": 127}, {"time": 1314, "pitch": 74, "duration": 6, "velocity": 127}, {"time": 1320, "pitch": 72, "duration": 12, "velocity": 127}, {"time": 1332, "pitch": 70, "duration": 12, "velocity": 127}, {"time": 1344, "pitch": 69, "duration": 6, "velocity": 127}, {"time": 1350, "pitch": 72, "duration": 6, "velocity": 127}, {"time": 1356, "pitch": 70, "duration": 6, "velocity": 127}, {"time": 1362, "pitch": 72, "duration": 6, "velocity": 127}, {"time": 1368, "pitch": 77, "duration": 6, "velocity": 127}, {"time": 1374, "pitch": 72, "duration": 6, "velocity": 127}, {"time": 1380, "pitch": 70, "duration": 6, "velocity": 127}, {"time": 1386, "pitch": 72, "duration": 6, "velocity": 127}, {"time": 1392, "pitch": 69, "duration": 6, "velocity": 127}, {"time": 1398, "pitch": 72, "duration": 6, "velocity": 127}, {"time": 1404, "pitch": 70, "duration": 6, "velocity": 127}, {"time": 1410, "pitch": 72, "duration": 6, "velocity": 127}, {"time": 1416, "pitch": 65, "duration": 6, "velocity": 127}, {"time": 1422, "pitch": 72, "duration": 6, "velocity": 127}, {"time": 1428, "pitch": 70, "duration": 6, "velocity": 127}, {"time": 1434, "pitch": 72, "duration": 6, "velocity": 127}, {"time": 1440, "pitch": 69, "duration": 6, "velocity": 127}, {"time": 1446, "pitch": 72, "duration": 6, "velocity": 127}, {"time": 1452, "pitch": 70, "duration": 6, "velocity": 127}, {"time": 1458, "pitch": 72, "duration": 6, "velocity": 127}, {"time": 1464, "pitch": 77, "duration": 6, "velocity": 127}, {"time": 1470, "pitch": 72, "duration": 6, "velocity": 127}, {"time": 1476, "pitch": 70, "duration": 6, "velocity": 127}, {"time": 1482, "pitch": 72, "duration": 6, "velocity": 127}, {"time": 1488, "pitch": 69, "duration": 6, "velocity": 127}, {"time": 1494, "pitch": 72, "duration": 6, "velocity": 127}, {"time": 1500, "pitch": 70, "duration": 6, "velocity": 127}, {"time": 1506, "pitch": 72, "duration": 6, "velocity": 127}, {"time": 1512, "pitch": 65, "duration": 6, "velocity": 127}, {"time": 1518, "pitch": 72, "duration": 6, "velocity": 127}, {"time": 1524, "pitch": 70, "duration": 6, "velocity": 127}, {"time": 1530, "pitch": 72, "duration": 6, "velocity": 127}, {"time": 1536, "pitch": 77, "duration": 6, "velocity": 127}, {"time": 1542, "pitch": 72, "duration": 6, "velocity": 127}, {"time": 1548, "pitch": 79, "duration": 6, "velocity": 127}, {"time": 1554, "pitch": 72, "duration": 6, "velocity": 127}, {"time": 1560, "pitch": 81, "duration": 6, "velocity": 127}, {"time": 1566, "pitch": 72, "duration": 6, "velocity": 127}, {"time": 1572, "pitch": 81, "duration": 6, "velocity": 127}, {"time": 1578, "pitch": 72, "duration": 6, "velocity": 127}, {"time": 1584, "pitch": 75, "duration": 6, "velocity": 127}, {"time": 1590, "pitch": 72, "duration": 6, "velocity": 127}, {"time": 1596, "pitch": 77, "duration": 6, "velocity": 127}, {"time": 1602, "pitch": 72, "duration": 6, "velocity": 127}, {"time": 1608, "pitch": 79, "duration": 6, "velocity": 127}, {"time": 1614, "pitch": 72, "duration": 6, "velocity": 127}, {"time": 1620, "pitch": 79, "duration": 6, "velocity": 127}, {"time": 1626, "pitch": 72, "duration": 6, "velocity": 127}, {"time": 1632, "pitch": 77, "duration": 6, "velocity": 127}, {"time": 1638, "pitch": 72, "duration": 6, "velocity": 127}, {"time": 1644, "pitch": 79, "duration": 6, "velocity": 127}, {"time": 1650, "pitch": 72, "duration": 6, "velocity": 127}, {"time": 1656, "pitch": 81, "duration": 6, "velocity": 127}, {"time": 1662, "pitch": 72, "duration": 6, "velocity": 127}, {"time": 1668, "pitch": 79, "duration": 6, "velocity": 127}, {"time": 1674, "pitch": 72, "duration": 6, "velocity": 127}, {"time": 1680, "pitch": 77, "duration": 6, "velocity": 127}, {"time": 1686, "pitch": 72, "duration": 6, "velocity": 127}, {"time": 1692, "pitch": 77, "duration": 6, "velocity": 127}, {"time": 1698, "pitch": 72, "duration": 6, "velocity": 127}, {"time": 1704, "pitch": 76, "duration": 6, "velocity": 127}, {"time": 1710, "pitch": 72, "duration": 6, "velocity": 127}, {"time": 1716, "pitch": 76, "duration": 6, "velocity": 127}, {"time": 1722, "pitch": 72, "duration": 6, "velocity": 127}, {"time": 1728, "pitch": 69, "duration": 6, "velocity": 127}, {"time": 1734, "pitch": 69, "duration": 6, "velocity": 127}, {"time": 1740, "pitch": 70, "duration": 6, "velocity": 127}, {"time": 1746, "pitch": 72, "duration": 6, "velocity": 127}, {"time": 1752, "pitch": 74, "duration": 6, "velocity": 127}, {"time": 1758, "pitch": 74, "duration": 6, "velocity": 127}, {"time": 1764, "pitch": 72, "duration": 6, "velocity": 127}, {"time": 1770, "pitch": 74, "duration": 6, "velocity": 127}, {"time": 1776, "pitch": 67, "duration": 6, "velocity": 127}, {"time": 1782, "pitch": 67, "duration": 6, "velocity": 127}, {"time": 1788, "pitch": 69, "duration": 6, "velocity": 127}, {"time": 1794, "pitch": 70, "duration": 6, "velocity": 127}, {"time": 1800, "pitch": 72, "duration": 6, "velocity": 127}, {"time": 1806, "pitch": 72, "duration": 6, "velocity": 127}, {"time": 1812, "pitch": 74, "duration": 6, "velocity": 127}, {"time": 1818, "pitch": 76, "duration": 6, "velocity": 127}, {"time": 1824, "pitch": 77, "duration": 6, "velocity": 127}, {"time": 1830, "pitch": 76, "duration": 6, "velocity": 127}, {"time": 1836, "pitch": 77, "duration": 6, "velocity": 127}, {"time": 1842, "pitch": 74, "duration": 6, "velocity": 127}, {"time": 1848, "pitch": 70, "duration": 12, "velocity": 127}, {"time": 1860, "pitch": 72, "duration": 12, "velocity": 127}, {"time": 1872, "pitch": 65, "duration": 24, "velocity": 127}, {"time": 1920, "pitch": 77, "duration": 24, "velocity": 127}, {"time": 1944, "pitch": 82, "duration": 24, "velocity": 127}, {"time": 1968, "pitch": 81, "duration": 24, "velocity": 127}, {"time": 2004, "pitch": 79, "duration": 12, "velocity": 127}, {"time": 2016, "pitch": 77, "duration": 12, "velocity": 127}, {"time": 2028, "pitch": 74, "duration": 12, "velocity": 127}, {"time": 2040, "pitch": 75, "duration": 18, "velocity": 127}, {"time": 2058, "pitch": 77, "duration": 6, "velocity": 127}, {"time": 2064, "pitch": 74, "duration": 24, "velocity": 127}, {"time": 2088, "pitch": 72, "duration": 24, "velocity": 127}, {"time": 2112, "pitch": 70, "duration": 12, "velocity": 127}, {"time": 2124, "pitch": 74, "duration": 12, "velocity": 127}, {"time": 2136, "pitch": 72, "duration": 12, "velocity": 127}, {"time": 2148, "pitch": 75, "duration": 12, "velocity": 127}, {"time": 2160, "pitch": 74, "duration": 18, "velocity": 127}, {"time": 2178, "pitch": 75, "duration": 3, "velocity": 127}, {"time": 2181, "pitch": 77, "duration": 3, "velocity": 127}, {"time": 2184, "pitch": 72, "duration": 12, "velocity": 127}, {"time": 2196, "pitch": 65, "duration": 12, "velocity": 127}, {"time": 2208, "pitch": 70, "duration": 12, "velocity": 127}, {"time": 2220, "pitch": 74, "duration": 12, "velocity": 127}, {"time": 2232, "pitch": 72, "duration": 12, "velocity": 127}, {"time": 2244, "pitch": 75, "duration": 12, "velocity": 127}, {"time": 2256, "pitch": 74, "duration": 24, "velocity": 127}, {"time": 2280, "pitch": 72, "duration": 24, "velocity": 127}, {"time": 2304, "pitch": 70, "duration": 12, "velocity": 127}, {"time": 2316, "pitch": 72, "duration": 12, "velocity": 127}, {"time": 2328, "pitch": 74, "duration": 12, "velocity": 127}, {"time": 2340, "pitch": 70, "duration": 12, "velocity": 127}, {"time": 2352, "pitch": 77, "duration": 12, "velocity": 127}, {"time": 2364, "pitch": 65, "duration": 12, "velocity": 127}, {"time": 2376, "pitch": 77, "duration": 12, "velocity": 127}, {"time": 2388, "pitch": 75, "duration": 12, "velocity": 127}, {"time": 2400, "pitch": 74, "duration": 12, "velocity": 127}, {"time": 2412, "pitch": 70, "duration": 12, "velocity": 127}, {"time": 2424, "pitch": 72, "duration": 12, "velocity": 127}, {"time": 2436, "pitch": 69, "duration": 12, "velocity": 127}, {"time": 2448, "pitch": 70, "duration": 12, "velocity": 127}, {"time": 2460, "pitch": 65, "duration": 12, "velocity": 127}, {"time": 2472, "pitch": 69, "duration": 12, "velocity": 127}, {"time": 2484, "pitch": 65, "duration": 12, "velocity": 127}, {"time": 2496, "pitch": 75, "duration": 12, "velocity": 127}, {"time": 2508, "pitch": 74, "duration": 6, "velocity": 127}, {"time": 2514, "pitch": 72, "duration": 6, "velocity": 127}, {"time": 2520, "pitch": 74, "duration": 24, "velocity": 127}, {"time": 2544, "pitch": 79, "duration": 12, "velocity": 127}, {"time": 2556, "pitch": 70, "duration": 12, "velocity": 127}, {"time": 2568, "pitch": 77, "duration": 12, "velocity": 127}, {"time": 2580, "pitch": 70, "duration": 12, "velocity": 127}, {"time": 2592, "pitch": 75, "duration": 12, "velocity": 127}, {"time": 2604, "pitch": 74, "duration": 6, "velocity": 127}, {"time": 2610, "pitch": 72, "duration": 6, "velocity": 127}, {"time": 2616, "pitch": 74, "duration": 24, "velocity": 127}, {"time": 2640, "pitch": 79, "duration": 12, "velocity": 127}, {"time": 2652, "pitch": 70, "duration": 12, "velocity": 127}, {"time": 2664, "pitch": 77, "duration": 12, "velocity": 127}, {"time": 2676, "pitch": 70, "duration": 12, "velocity": 127}, {"time": 2688, "pitch": 75, "duration": 24, "velocity": 127}, {"time": 2712, "pitch": 75, "duration": 24, "velocity": 127}, {"time": 2736, "pitch": 75, "duration": 36, "velocity": 127}, {"time": 2772, "pitch": 74, "duration": 6, "velocity": 127}, {"time": 2778, "pitch": 72, "duration": 6, "velocity": 127}, {"time": 2784, "pitch": 74, "duration": 12, "velocity": 127}, {"time": 2796, "pitch": 70, "duration": 12, "velocity": 127}, {"time": 2808, "pitch": 65, "duration": 12, "velocity": 127}, {"time": 2820, "pitch": 77, "duration": 12, "velocity": 127}, {"time": 2832, "pitch": 70, "duration": 24, "velocity": 127}, {"time": 2880, "pitch": 71, "duration": 6, "velocity": 127}, {"time": 2886, "pitch": 74, "duration": 6, "velocity": 127}, {"time": 2892, "pitch": 72, "duration": 6, "velocity": 127}, {"time": 2898, "pitch": 74, "duration": 6, "velocity": 127}, {"time": 2904, "pitch": 71, "duration": 6, "velocity": 127}, {"time": 2910, "pitch": 74, "duration": 6, "velocity": 127}, {"time": 2916, "pitch": 72, "duration": 6, "velocity": 127}, {"time": 2922, "pitch": 71, "duration": 6, "velocity": 127}, {"time": 2928, "pitch": 72, "duration": 6, "velocity": 127}, {"time": 2934, "pitch": 75, "duration": 6, "velocity": 127}, {"time": 2940, "pitch": 74, "duration": 6, "velocity": 127}, {"time": 2946, "pitch": 75, "duration": 6, "velocity": 127}, {"time": 2952, "pitch": 72, "duration": 6, "velocity": 127}, {"time": 2958, "pitch": 75, "duration": 6, "velocity": 127}, {"time": 2964, "pitch": 74, "duration": 6, "velocity": 127}, {"time": 2970, "pitch": 72, "duration": 6, "velocity": 127}, {"time": 2976, "pitch": 71, "duration": 6, "velocity": 127}, {"time": 2982, "pitch": 74, "duration": 6, "velocity": 127}, {"time": 2988, "pitch": 72, "duration": 6, "velocity": 127}, {"time": 2994, "pitch": 74, "duration": 6, "velocity": 127}, {"time": 3000, "pitch": 71, "duration": 6, "velocity": 127}, {"time": 3006, "pitch": 74, "duration": 6, "velocity": 127}, {"time": 3012, "pitch": 72, "duration": 6, "velocity": 127}, {"time": 3018, "pitch": 71, "duration": 6, "velocity": 127}, {"time": 3024, "pitch": 72, "duration": 6, "velocity": 127}, {"time": 3030, "pitch": 75, "duration": 6, "velocity": 127}, {"time": 3036, "pitch": 74, "duration": 6, "velocity": 127}, {"time": 3042, "pitch": 75, "duration": 6, "velocity": 127}, {"time": 3048, "pitch": 72, "duration": 6, "velocity": 127}, {"time": 3054, "pitch": 75, "duration": 6, "velocity": 127}, {"time": 3060, "pitch": 74, "duration": 6, "velocity": 127}, {"time": 3066, "pitch": 75, "duration": 6, "velocity": 127}, {"time": 3072, "pitch": 77, "duration": 6, "velocity": 127}, {"time": 3078, "pitch": 80, "duration": 6, "velocity": 127}, {"time": 3084, "pitch": 80, "duration": 6, "velocity": 127}, {"time": 3090, "pitch": 80, "duration": 6, "velocity": 127}, {"time": 3096, "pitch": 77, "duration": 6, "velocity": 127}, {"time": 3102, "pitch": 80, "duration": 6, "velocity": 127}, {"time": 3108, "pitch": 80, "duration": 6, "velocity": 127}, {"time": 3114, "pitch": 80, "duration": 6, "velocity": 127}, {"time": 3120, "pitch": 70, "duration": 6, "velocity": 127}, {"time": 3126, "pitch": 74, "duration": 6, "velocity": 127}, {"time": 3132, "pitch": 72, "duration": 6, "velocity": 127}, {"time": 3138, "pitch": 74, "duration": 6, "velocity": 127}, {"time": 3144, "pitch": 70, "duration": 6, "velocity": 127}, {"time": 3150, "pitch": 74, "duration": 6, "velocity": 127}, {"time": 3156, "pitch": 72, "duration": 6, "velocity": 127}, {"time": 3162, "pitch": 74, "duration": 6, "velocity": 127}, {"time": 3168, "pitch": 75, "duration": 6, "velocity": 127}, {"time": 3174, "pitch": 79, "duration": 6, "velocity": 127}, {"time": 3180, "pitch": 79, "duration": 6, "velocity": 127}, {"time": 3186, "pitch": 79, "duration": 6, "velocity": 127}, {"time": 3192, "pitch": 75, "duration": 6, "velocity": 127}, {"time": 3198, "pitch": 79, "duration": 6, "velocity": 127}, {"time": 3204, "pitch": 79, "duration": 6, "velocity": 127}, {"time": 3210, "pitch": 79, "duration": 6, "velocity": 127}, {"time": 3216, "pitch": 69, "duration": 6, "velocity": 127}, {"time": 3222, "pitch": 72, "duration": 6, "velocity": 127}, {"time": 3228, "pitch": 70, "duration": 6, "velocity": 127}, {"time": 3234, "pitch": 72, "duration": 6, "velocity": 127}, {"time": 3240, "pitch": 69, "duration": 6, "velocity": 127}, {"time": 3246, "pitch": 72, "duration": 6, "velocity": 127}, {"time": 3252, "pitch": 70, "duration": 6, "velocity": 127}, {"time": 3258, "pitch": 72, "duration": 6, "velocity": 127}, {"time": 3264, "pitch": 74, "duration": 6, "velocity": 127}, {"time": 3270, "pitch": 77, "duration": 6, "velocity": 127}, {"time": 3276, "pitch": 77, "duration": 6, "velocity": 127}, {"time": 3282, "pitch": 77, "duration": 6, "velocity": 127}, {"time": 3288, "pitch": 74, "duration": 6, "velocity": 127}, {"time": 3294, "pitch": 77, "duration": 6, "velocity": 127}, {"time": 3300, "pitch": 77, "duration": 6, "velocity": 127}, {"time": 3306, "pitch": 77, "duration": 6, "velocity": 127}, {"time": 3312, "pitch": 67, "duration": 6, "velocity": 127}, {"time": 3318, "pitch": 69, "duration": 6, "velocity": 127}, {"time": 3324, "pitch": 71, "duration": 6, "velocity": 127}, {"time": 3330, "pitch": 72, "duration": 6, "velocity": 127}, {"time": 3336, "pitch": 74, "duration": 6, "velocity": 127}, {"time": 3342, "pitch": 75, "duration": 6, "velocity": 127}, {"time": 3348, "pitch": 77, "duration": 12, "velocity": 127}, {"time": 3372, "pitch": 75, "duration": 6, "velocity": 127}, {"time": 3378, "pitch": 74, "duration": 6, "velocity": 127}, {"time": 3384, "pitch": 72, "duration": 12, "velocity": 127}, {"time": 3396, "pitch": 71, "duration": 12, "velocity": 127}, {"time": 3408, "pitch": 72, "duration": 24, "velocity": 127}, {"time": 3456, "pitch": 72, "duration": 6, "velocity": 127}, {"time": 3462, "pitch": 74, "duration": 6, "velocity": 127}, {"time": 3468, "pitch": 75, "duration": 6, "velocity": 127}, {"time": 3474, "pitch": 77, "duration": 6, "velocity": 127}, {"time": 3480, "pitch": 79, "duration": 6, "velocity": 127}, {"time": 3486, "pitch": 75, "duration": 6, "velocity": 127}, {"time": 3492, "pitch": 77, "duration": 6, "velocity": 127}, {"time": 3498, "pitch": 79, "duration": 6, "velocity": 127}, {"time": 3504, "pitch": 72, "duration": 24, "velocity": 127}, {"time": 3528, "pitch": 79, "duration": 6, "velocity": 127}, {"time": 3534, "pitch": 77, "duration": 6, "velocity": 127}, {"time": 3540, "pitch": 75, "duration": 12, "velocity": 127}, {"time": 3576, "pitch": 75, "duration": 6, "velocity": 127}, {"time": 3582, "pitch": 74, "duration": 6, "velocity": 127}, {"time": 3588, "pitch": 72, "duration": 12, "velocity": 127}, {"time": 3624, "pitch": 79, "duration": 6, "velocity": 127}, {"time": 3630, "pitch": 77, "duration": 6, "velocity": 127}, {"time": 3636, "pitch": 75, "duration": 12, "velocity": 127}, {"time": 3648, "pitch": 75, "duration": 6, "velocity": 127}, {"time": 3654, "pitch": 74, "duration": 6, "velocity": 127}, {"time": 3660, "pitch": 72, "duration": 12, "velocity": 127}, {"time": 3672, "pitch": 72, "duration": 6, "velocity": 127}, {"time": 3678, "pitch": 70, "duration": 6, "velocity": 127}, {"time": 3684, "pitch": 69, "duration": 12, "velocity": 127}, {"time": 3696, "pitch": 69, "duration": 6, "velocity": 127}, {"time": 3702, "pitch": 67, "duration": 6, "velocity": 127}, {"time": 3708, "pitch": 65, "duration": 12, "velocity": 127}, {"time": 3720, "pitch": 72, "duration": 6, "velocity": 127}, {"time": 3726, "pitch": 70, "duration": 6, "velocity": 127}, {"time": 3732, "pitch": 69, "duration": 12, "velocity": 127}, {"time": 3744, "pitch": 70, "duration": 6, "velocity": 127}, {"time": 3750, "pitch": 69, "duration": 6, "velocity": 127}, {"time": 3756, "pitch": 70, "duration": 6, "velocity": 127}, {"time": 3762, "pitch": 72, "duration": 6, "velocity": 127}, {"time": 3768, "pitch": 70, "duration": 6, "velocity": 127}, {"time": 3774, "pitch": 74, "duration": 6, "velocity": 127}, {"time": 3780, "pitch": 72, "duration": 6, "velocity": 127}, {"time": 3786, "pitch": 70, "duration": 6, "velocity": 127}, {"time": 3792, "pitch": 69, "duration": 6, "velocity": 127}, {"time": 3798, "pitch": 70, "duration": 6, "velocity": 127}, {"time": 3804, "pitch": 72, "duration": 6, "velocity": 127}, {"time": 3810, "pitch": 70, "duration": 6, "velocity": 127}, {"time": 3816, "pitch": 69, "duration": 6, "velocity": 127}, {"time": 3822, "pitch": 65, "duration": 6, "velocity": 127}, {"time": 3828, "pitch": 67, "duration": 6, "velocity": 127}, {"time": 3834, "pitch": 69, "duration": 6, "velocity": 127}], "annotations": [{"time": 0, "annotation": {"number": 7, "value": 100}, "group": "control_change"}, {"time": 0, "annotation": {"number": 10, "value": 64}, "group": "control_change"}, {"time": 0, "annotation": {"number": 91, "value": 0}, "group": "control_change"}, {"time": 0, "annotation": {"number": 93, "value": 0}, "group": "control_change"}]}]}