{"metadata": {"schema_version": "0.2"}, "resolution": 24, "tracks": [{"program": 74, "is_drum": false, "notes": [{"time": 0, "pitch": 70, "duration": 12, "velocity": 127}, {"time": 18, "pitch": 70, "duration": 6, "velocity": 127}, {"time": 24, "pitch": 69, "duration": 12, "velocity": 127}, {"time": 42, "pitch": 69, "duration": 6, "velocity": 127}, {"time": 48, "pitch": 67, "duration": 12, "velocity": 127}, {"time": 66, "pitch": 67, "duration": 6, "velocity": 127}, {"time": 72, "pitch": 65, "duration": 12, "velocity": 127}, {"time": 90, "pitch": 69, "duration": 6, "velocity": 127}, {"time": 96, "pitch": 70, "duration": 6, "velocity": 127}, {"time": 102, "pitch": 74, "duration": 3, "velocity": 127}, {"time": 105, "pitch": 75, "duration": 3, "velocity": 127}, {"time": 108, "pitch": 77, "duration": 6, "velocity": 127}, {"time": 114, "pitch": 77, "duration": 6, "velocity": 127}, {"time": 120, "pitch": 72, "duration": 6, "velocity": 127}, {"time": 126, "pitch": 74, "duration": 3, "velocity": 127}, {"time": 129, "pitch": 75, "duration": 3, "velocity": 127}, {"time": 132, "pitch": 77, "duration": 6, "velocity": 127}, {"time": 138, "pitch": 77, "duration": 6, "velocity": 127}, {"time": 144, "pitch": 70, "duration": 6, "velocity": 127}, {"time": 150, "pitch": 79, "duration": 3, "velocity": 127}, {"time": 153, "pitch": 79, "duration": 3, "velocity": 127}, {"time": 156, "pitch": 75, "duration": 3, "velocity": 127}, {"time": 159, "pitch": 74, "duration": 3, "velocity": 127}, {"time": 162, "pitch": 72, "duration": 3, "velocity": 127}, {"time": 165, "pitch": 70, "duration": 3, "velocity": 127}, {"time": 168, "pitch": 69, "duration": 6, "velocity": 127}, {"time": 174, "pitch": 84, "duration": 3, "velocity": 127}, {"time": 177, "pitch": 82, "duration": 3, "velocity": 127}, {"time": 180, "pitch": 81, "duration": 3, "velocity": 127}, {"time": 183, "pitch": 79, "duration": 3, "velocity": 127}, {"time": 186, "pitch": 77, "duration": 3, "velocity": 127}, {"time": 189, "pitch": 75, "duration": 3, "velocity": 127}, {"time": 192, "pitch": 74, "duration": 3, "velocity": 127}, {"time": 195, "pitch": 72, "duration": 3, "velocity": 127}, {"time": 198, "pitch": 70, "duration": 6, "velocity": 127}, {"time": 210, "pitch": 71, "duration": 6, "velocity": 127}, {"time": 216, "pitch": 72, "duration": 6, "velocity": 127}, {"time": 222, "pitch": 76, "duration": 3, "velocity": 127}, {"time": 225, "pitch": 81, "duration": 3, "velocity": 127}, {"time": 228, "pitch": 81, "duration": 3, "velocity": 127}, {"time": 231, "pitch": 79, "duration": 3, "velocity": 127}, {"time": 234, "pitch": 79, "duration": 3, "velocity": 127}, {"time": 237, "pitch": 77, "duration": 3, "velocity": 127}, {"time": 240, "pitch": 77, "duration": 3, "velocity": 127}, {"time": 243, "pitch": 76, "duration": 3, "velocity": 127}, {"time": 246, "pitch": 74, "duration": 6, "velocity": 127}, {"time": 258, "pitch": 74, "duration": 6, "velocity": 127}, {"time": 264, "pitch": 76, "duration": 6, "velocity": 127}, {"time": 270, "pitch": 79, "duration": 3, "velocity": 127}, {"time": 273, "pitch": 84, "duration": 3, "velocity": 127}, {"time": 276, "pitch": 84, "duration": 3, "velocity": 127}, {"time": 279, "pitch": 82, "duration": 3, "velocity": 127}, {"time": 282, "pitch": 82, "duration": 3, "velocity": 127}, {"time": 285, "pitch": 81, "duration": 3, "velocity": 127}, {"time": 288, "pitch": 81, "duration": 3, "velocity": 127}, {"time": 291, "pitch": 79, "duration": 3, "velocity": 127}, {"time": 294, "pitch": 77, "duration": 6, "velocity": 127}, {"time": 306, "pitch": 77, "duration": 6, "velocity": 127}, {"time": 312, "pitch": 76, "duration": 12, "velocity": 127}, {"time": 330, "pitch": 76, "duration": 6, "velocity": 127}, {"time": 336, "pitch": 74, "duration": 12, "velocity": 127}, {"time": 354, "pitch": 74, "duration": 6, "velocity": 127}, {"time": 360, "pitch": 72, "duration": 12, "velocity": 127}, {"time": 378, "pitch": 76, "duration": 6, "velocity": 127}, {"time": 384, "pitch": 77, "duration": 3, "velocity": 127}, {"time": 387, "pitch": 72, "duration": 3, "velocity": 127}, {"time": 390, "pitch": 77, "duration": 3, "velocity": 127}, {"time": 393, "pitch": 82, "duration": 3, "velocity": 127}, {"time": 396, "pitch": 79, "duration": 9, "velocity": 127}, {"time": 405, "pitch": 77, "duration": 3, "velocity": 127}, {"time": 408, "pitch": 77, "duration": 6, "velocity": 127}, {"time": 414, "pitch": 84, "duration": 3, "velocity": 127}, {"time": 417, "pitch": 82, "duration": 3, "velocity": 127}, {"time": 420, "pitch": 81, "duration": 3, "velocity": 127}, {"time": 423, "pitch": 79, "duration": 3, "velocity": 127}, {"time": 426, "pitch": 77, "duration": 3, "velocity": 127}, {"time": 429, "pitch": 75, "duration": 3, "velocity": 127}, {"time": 432, "pitch": 74, "duration": 6, "velocity": 127}, {"time": 438, "pitch": 77, "duration": 3, "velocity": 127}, {"time": 441, "pitch": 75, "duration": 3, "velocity": 127}, {"time": 444, "pitch": 74, "duration": 3, "velocity": 127}, {"time": 447, "pitch": 72, "duration": 3, "velocity": 127}, {"time": 450, "pitch": 70, "duration": 3, "velocity": 127}, {"time": 453, "pitch": 68, "duration": 3, "velocity": 127}, {"time": 456, "pitch": 67, "duration": 6, "velocity": 127}, {"time": 462, "pitch": 79, "duration": 3, "velocity": 127}, {"time": 465, "pitch": 77, "duration": 3, "velocity": 127}, {"time": 468, "pitch": 70, "duration": 6, "velocity": 127}, {"time": 474, "pitch": 74, "duration": 6, "velocity": 127}, {"time": 480, "pitch": 75, "duration": 6, "velocity": 127}, {"time": 486, "pitch": 75, "duration": 3, "velocity": 127}, {"time": 489, "pitch": 79, "duration": 3, "velocity": 127}, {"time": 492, "pitch": 79, "duration": 3, "velocity": 127}, {"time": 495, "pitch": 75, "duration": 3, "velocity": 127}, {"time": 498, "pitch": 75, "duration": 3, "velocity": 127}, {"time": 501, "pitch": 79, "duration": 3, "velocity": 127}, {"time": 504, "pitch": 79, "duration": 3, "velocity": 127}, {"time": 507, "pitch": 77, "duration": 3, "velocity": 127}, {"time": 510, "pitch": 74, "duration": 3, "velocity": 127}, {"time": 513, "pitch": 77, "duration": 3, "velocity": 127}, {"time": 516, "pitch": 77, "duration": 3, "velocity": 127}, {"time": 519, "pitch": 74, "duration": 3, "velocity": 127}, {"time": 522, "pitch": 74, "duration": 3, "velocity": 127}, {"time": 525, "pitch": 77, "duration": 3, "velocity": 127}, {"time": 528, "pitch": 77, "duration": 3, "velocity": 127}, {"time": 531, "pitch": 75, "duration": 3, "velocity": 127}, {"time": 534, "pitch": 72, "duration": 3, "velocity": 127}, {"time": 537, "pitch": 75, "duration": 3, "velocity": 127}, {"time": 540, "pitch": 75, "duration": 3, "velocity": 127}, {"time": 543, "pitch": 72, "duration": 3, "velocity": 127}, {"time": 546, "pitch": 72, "duration": 3, "velocity": 127}, {"time": 549, "pitch": 75, "duration": 3, "velocity": 127}, {"time": 552, "pitch": 75, "duration": 3, "velocity": 127}, {"time": 555, "pitch": 74, "duration": 3, "velocity": 127}, {"time": 558, "pitch": 74, "duration": 3, "velocity": 127}, {"time": 561, "pitch": 72, "duration": 3, "velocity": 127}, {"time": 564, "pitch": 79, "duration": 3, "velocity": 127}, {"time": 567, "pitch": 77, "duration": 3, "velocity": 127}, {"time": 570, "pitch": 75, "duration": 3, "velocity": 127}, {"time": 573, "pitch": 74, "duration": 3, "velocity": 127}, {"time": 576, "pitch": 72, "duration": 3, "velocity": 127}, {"time": 579, "pitch": 77, "duration": 3, "velocity": 127}, {"time": 582, "pitch": 77, "duration": 3, "velocity": 127}, {"time": 585, "pitch": 77, "duration": 3, "velocity": 127}, {"time": 588, "pitch": 77, "duration": 3, "velocity": 127}, {"time": 591, "pitch": 74, "duration": 1, "velocity": 127}, {"time": 592, "pitch": 75, "duration": 2, "velocity": 127}, {"time": 594, "pitch": 77, "duration": 3, "velocity": 127}, {"time": 597, "pitch": 69, "duration": 3, "velocity": 127}, {"time": 600, "pitch": 70, "duration": 12, "velocity": 127}, {"time": 618, "pitch": 69, "duration": 6, "velocity": 127}, {"time": 624, "pitch": 67, "duration": 3, "velocity": 127}, {"time": 627, "pitch": 82, "duration": 3, "velocity": 127}, {"time": 630, "pitch": 82, "duration": 3, "velocity": 127}, {"time": 633, "pitch": 82, "duration": 3, "velocity": 127}, {"time": 636, "pitch": 82, "duration": 3, "velocity": 127}, {"time": 639, "pitch": 79, "duration": 1, "velocity": 127}, {"time": 640, "pitch": 81, "duration": 2, "velocity": 127}, {"time": 642, "pitch": 82, "duration": 3, "velocity": 127}, {"time": 645, "pitch": 74, "duration": 3, "velocity": 127}, {"time": 648, "pitch": 75, "duration": 6, "velocity": 127}, {"time": 654, "pitch": 87, "duration": 6, "velocity": 127}, {"time": 660, "pitch": 87, "duration": 15, "velocity": 127}, {"time": 675, "pitch": 87, "duration": 3, "velocity": 127}, {"time": 678, "pitch": 86, "duration": 3, "velocity": 127}, {"time": 681, "pitch": 87, "duration": 3, "velocity": 127}, {"time": 684, "pitch": 84, "duration": 9, "velocity": 127}, {"time": 693, "pitch": 82, "duration": 3, "velocity": 127}, {"time": 696, "pitch": 82, "duration": 6, "velocity": 127}, {"time": 702, "pitch": 82, "duration": 3, "velocity": 127}, {"time": 705, "pitch": 81, "duration": 3, "velocity": 127}, {"time": 708, "pitch": 79, "duration": 3, "velocity": 127}, {"time": 711, "pitch": 77, "duration": 3, "velocity": 127}, {"time": 714, "pitch": 77, "duration": 3, "velocity": 127}, {"time": 717, "pitch": 76, "duration": 3, "velocity": 127}, {"time": 720, "pitch": 76, "duration": 6, "velocity": 127}, {"time": 726, "pitch": 70, "duration": 6, "velocity": 127}, {"time": 732, "pitch": 70, "duration": 18, "velocity": 127}, {"time": 750, "pitch": 82, "duration": 3, "velocity": 127}, {"time": 753, "pitch": 81, "duration": 3, "velocity": 127}, {"time": 756, "pitch": 81, "duration": 3, "velocity": 127}, {"time": 759, "pitch": 79, "duration": 3, "velocity": 127}, {"time": 762, "pitch": 79, "duration": 3, "velocity": 127}, {"time": 765, "pitch": 77, "duration": 3, "velocity": 127}, {"time": 768, "pitch": 77, "duration": 3, "velocity": 127}, {"time": 771, "pitch": 84, "duration": 3, "velocity": 127}, {"time": 774, "pitch": 84, "duration": 3, "velocity": 127}, {"time": 777, "pitch": 84, "duration": 3, "velocity": 127}, {"time": 780, "pitch": 84, "duration": 3, "velocity": 127}, {"time": 783, "pitch": 81, "duration": 1, "velocity": 127}, {"time": 784, "pitch": 82, "duration": 2, "velocity": 127}, {"time": 786, "pitch": 84, "duration": 3, "velocity": 127}, {"time": 789, "pitch": 75, "duration": 3, "velocity": 127}, {"time": 792, "pitch": 74, "duration": 12, "velocity": 127}, {"time": 810, "pitch": 74, "duration": 6, "velocity": 127}, {"time": 816, "pitch": 72, "duration": 3, "velocity": 127}, {"time": 819, "pitch": 79, "duration": 3, "velocity": 127}, {"time": 822, "pitch": 79, "duration": 3, "velocity": 127}, {"time": 825, "pitch": 79, "duration": 3, "velocity": 127}, {"time": 828, "pitch": 79, "duration": 3, "velocity": 127}, {"time": 831, "pitch": 75, "duration": 1, "velocity": 127}, {"time": 832, "pitch": 77, "duration": 2, "velocity": 127}, {"time": 834, "pitch": 79, "duration": 3, "velocity": 127}, {"time": 837, "pitch": 70, "duration": 3, "velocity": 127}, {"time": 840, "pitch": 69, "duration": 3, "velocity": 127}, {"time": 843, "pitch": 81, "duration": 3, "velocity": 127}, {"time": 846, "pitch": 82, "duration": 3, "velocity": 127}, {"time": 849, "pitch": 84, "duration": 3, "velocity": 127}, {"time": 852, "pitch": 81, "duration": 9, "velocity": 127}, {"time": 861, "pitch": 82, "duration": 3, "velocity": 127}, {"time": 864, "pitch": 82, "duration": 6, "velocity": 127}, {"time": 870, "pitch": 74, "duration": 3, "velocity": 127}, {"time": 873, "pitch": 70, "duration": 3, "velocity": 127}, {"time": 876, "pitch": 77, "duration": 6, "velocity": 127}, {"time": 882, "pitch": 65, "duration": 6, "velocity": 127}, {"time": 888, "pitch": 70, "duration": 12, "velocity": 127}], "annotations": [{"time": 0, "annotation": {"number": 7, "value": 100}, "group": "control_change"}, {"time": 0, "annotation": {"number": 10, "value": 64}, "group": "control_change"}, {"time": 0, "annotation": {"number": 91, "value": 0}, "group": "control_change"}, {"time": 0, "annotation": {"number": 93, "value": 0}, "group": "control_change"}]}]}