{"metadata": {"schema_version": "0.2"}, "resolution": 24, "tracks": [{"program": 41, "is_drum": false, "notes": [{"time": 24, "pitch": 62, "duration": 6, "velocity": 127}, {"time": 30, "pitch": 67, "duration": 12, "velocity": 127}, {"time": 42, "pitch": 66, "duration": 6, "velocity": 127}, {"time": 48, "pitch": 59, "duration": 6, "velocity": 127}, {"time": 54, "pitch": 64, "duration": 12, "velocity": 127}, {"time": 66, "pitch": 62, "duration": 6, "velocity": 127}, {"time": 72, "pitch": 55, "duration": 6, "velocity": 127}, {"time": 78, "pitch": 60, "duration": 12, "velocity": 127}, {"time": 90, "pitch": 59, "duration": 6, "velocity": 127}, {"time": 96, "pitch": 64, "duration": 12, "velocity": 127}, {"time": 108, "pitch": 62, "duration": 12, "velocity": 127}, {"time": 120, "pitch": 60, "duration": 6, "velocity": 127}, {"time": 126, "pitch": 59, "duration": 3, "velocity": 127}, {"time": 129, "pitch": 57, "duration": 3, "velocity": 127}, {"time": 132, "pitch": 59, "duration": 6, "velocity": 127}, {"time": 138, "pitch": 55, "duration": 6, "velocity": 127}, {"time": 144, "pitch": 54, "duration": 12, "velocity": 127}, {"time": 156, "pitch": 55, "duration": 12, "velocity": 127}, {"time": 168, "pitch": 57, "duration": 6, "velocity": 127}, {"time": 174, "pitch": 62, "duration": 6, "velocity": 127}, {"time": 180, "pitch": 59, "duration": 6, "velocity": 127}, {"time": 186, "pitch": 55, "duration": 6, "velocity": 127}, {"time": 192, "pitch": 50, "duration": 12, "velocity": 127}, {"time": 216, "pitch": 62, "duration": 6, "velocity": 127}, {"time": 222, "pitch": 67, "duration": 12, "velocity": 127}, {"time": 234, "pitch": 66, "duration": 6, "velocity": 127}, {"time": 240, "pitch": 59, "duration": 6, "velocity": 127}, {"time": 246, "pitch": 64, "duration": 12, "velocity": 127}, {"time": 258, "pitch": 62, "duration": 6, "velocity": 127}, {"time": 264, "pitch": 62, "duration": 6, "velocity": 127}, {"time": 270, "pitch": 60, "duration": 12, "velocity": 127}, {"time": 282, "pitch": 59, "duration": 6, "velocity": 127}, {"time": 288, "pitch": 64, "duration": 12, "velocity": 127}, {"time": 300, "pitch": 62, "duration": 12, "velocity": 127}, {"time": 312, "pitch": 60, "duration": 6, "velocity": 127}, {"time": 318, "pitch": 59, "duration": 3, "velocity": 127}, {"time": 321, "pitch": 57, "duration": 3, "velocity": 127}, {"time": 324, "pitch": 59, "duration": 6, "velocity": 127}, {"time": 330, "pitch": 55, "duration": 6, "velocity": 127}, {"time": 336, "pitch": 54, "duration": 12, "velocity": 127}, {"time": 348, "pitch": 55, "duration": 12, "velocity": 127}, {"time": 360, "pitch": 57, "duration": 6, "velocity": 127}, {"time": 366, "pitch": 62, "duration": 6, "velocity": 127}, {"time": 372, "pitch": 59, "duration": 6, "velocity": 127}, {"time": 378, "pitch": 55, "duration": 6, "velocity": 127}, {"time": 384, "pitch": 50, "duration": 12, "velocity": 127}, {"time": 396, "pitch": 62, "duration": 12, "velocity": 127}, {"time": 408, "pitch": 62, "duration": 6, "velocity": 127}, {"time": 414, "pitch": 60, "duration": 3, "velocity": 127}, {"time": 417, "pitch": 59, "duration": 3, "velocity": 127}, {"time": 420, "pitch": 60, "duration": 6, "velocity": 127}, {"time": 426, "pitch": 59, "duration": 3, "velocity": 127}, {"time": 429, "pitch": 57, "duration": 3, "velocity": 127}, {"time": 432, "pitch": 59, "duration": 6, "velocity": 127}, {"time": 438, "pitch": 57, "duration": 3, "velocity": 127}, {"time": 441, "pitch": 55, "duration": 3, "velocity": 127}, {"time": 444, "pitch": 57, "duration": 6, "velocity": 127}, {"time": 450, "pitch": 55, "duration": 3, "velocity": 127}, {"time": 453, "pitch": 54, "duration": 3, "velocity": 127}, {"time": 456, "pitch": 55, "duration": 6, "velocity": 127}, {"time": 462, "pitch": 59, "duration": 6, "velocity": 127}, {"time": 468, "pitch": 60, "duration": 6, "velocity": 127}, {"time": 474, "pitch": 62, "duration": 6, "velocity": 127}, {"time": 480, "pitch": 55, "duration": 12, "velocity": 127}, {"time": 504, "pitch": 55, "duration": 3, "velocity": 127}, {"time": 507, "pitch": 57, "duration": 3, "velocity": 127}, {"time": 510, "pitch": 59, "duration": 6, "velocity": 127}, {"time": 516, "pitch": 59, "duration": 3, "velocity": 127}, {"time": 519, "pitch": 57, "duration": 3, "velocity": 127}, {"time": 522, "pitch": 55, "duration": 6, "velocity": 127}, {"time": 528, "pitch": 62, "duration": 6, "velocity": 127}, {"time": 534, "pitch": 62, "duration": 6, "velocity": 127}, {"time": 540, "pitch": 62, "duration": 6, "velocity": 127}, {"time": 546, "pitch": 67, "duration": 6, "velocity": 127}, {"time": 552, "pitch": 66, "duration": 3, "velocity": 127}, {"time": 555, "pitch": 67, "duration": 3, "velocity": 127}, {"time": 558, "pitch": 69, "duration": 6, "velocity": 127}, {"time": 564, "pitch": 71, "duration": 3, "velocity": 127}, {"time": 567, "pitch": 69, "duration": 3, "velocity": 127}, {"time": 570, "pitch": 67, "duration": 6, "velocity": 127}, {"time": 576, "pitch": 69, "duration": 6, "velocity": 127}, {"time": 582, "pitch": 62, "duration": 6, "velocity": 127}, {"time": 588, "pitch": 62, "duration": 6, "velocity": 127}, {"time": 594, "pitch": 64, "duration": 6, "velocity": 127}, {"time": 600, "pitch": 66, "duration": 3, "velocity": 127}, {"time": 603, "pitch": 67, "duration": 3, "velocity": 127}, {"time": 606, "pitch": 66, "duration": 6, "velocity": 127}, {"time": 612, "pitch": 66, "duration": 6, "velocity": 127}, {"time": 618, "pitch": 67, "duration": 6, "velocity": 127}, {"time": 624, "pitch": 69, "duration": 3, "velocity": 127}, {"time": 627, "pitch": 71, "duration": 3, "velocity": 127}, {"time": 630, "pitch": 69, "duration": 6, "velocity": 127}, {"time": 636, "pitch": 69, "duration": 6, "velocity": 127}, {"time": 642, "pitch": 71, "duration": 6, "velocity": 127}, {"time": 648, "pitch": 61, "duration": 12, "velocity": 127}, {"time": 660, "pitch": 62, "duration": 12, "velocity": 127}, {"time": 672, "pitch": 64, "duration": 6, "velocity": 127}, {"time": 678, "pitch": 57, "duration": 6, "velocity": 127}, {"time": 684, "pitch": 66, "duration": 6, "velocity": 127}, {"time": 690, "pitch": 57, "duration": 6, "velocity": 127}, {"time": 696, "pitch": 67, "duration": 12, "velocity": 127}, {"time": 708, "pitch": 69, "duration": 6, "velocity": 127}, {"time": 714, "pitch": 67, "duration": 3, "velocity": 127}, {"time": 717, "pitch": 66, "duration": 3, "velocity": 127}, {"time": 720, "pitch": 71, "duration": 6, "velocity": 127}, {"time": 726, "pitch": 59, "duration": 6, "velocity": 127}, {"time": 732, "pitch": 69, "duration": 12, "velocity": 127}, {"time": 744, "pitch": 67, "duration": 6, "velocity": 127}, {"time": 750, "pitch": 66, "duration": 3, "velocity": 127}, {"time": 753, "pitch": 64, "duration": 3, "velocity": 127}, {"time": 756, "pitch": 66, "duration": 6, "velocity": 127}, {"time": 762, "pitch": 62, "duration": 6, "velocity": 127}, {"time": 768, "pitch": 61, "duration": 12, "velocity": 127}, {"time": 780, "pitch": 62, "duration": 12, "velocity": 127}, {"time": 792, "pitch": 64, "duration": 6, "velocity": 127}, {"time": 798, "pitch": 69, "duration": 6, "velocity": 127}, {"time": 804, "pitch": 66, "duration": 6, "velocity": 127}, {"time": 810, "pitch": 62, "duration": 6, "velocity": 127}, {"time": 816, "pitch": 57, "duration": 12, "velocity": 127}, {"time": 828, "pitch": 69, "duration": 12, "velocity": 127}, {"time": 840, "pitch": 69, "duration": 6, "velocity": 127}, {"time": 846, "pitch": 67, "duration": 3, "velocity": 127}, {"time": 849, "pitch": 66, "duration": 3, "velocity": 127}, {"time": 852, "pitch": 67, "duration": 6, "velocity": 127}, {"time": 858, "pitch": 66, "duration": 3, "velocity": 127}, {"time": 861, "pitch": 64, "duration": 3, "velocity": 127}, {"time": 864, "pitch": 66, "duration": 6, "velocity": 127}, {"time": 870, "pitch": 64, "duration": 3, "velocity": 127}, {"time": 873, "pitch": 62, "duration": 3, "velocity": 127}, {"time": 876, "pitch": 64, "duration": 6, "velocity": 127}, {"time": 882, "pitch": 62, "duration": 3, "velocity": 127}, {"time": 885, "pitch": 61, "duration": 3, "velocity": 127}, {"time": 888, "pitch": 62, "duration": 6, "velocity": 127}, {"time": 894, "pitch": 54, "duration": 6, "velocity": 127}, {"time": 900, "pitch": 55, "duration": 6, "velocity": 127}, {"time": 906, "pitch": 57, "duration": 6, "velocity": 127}, {"time": 912, "pitch": 50, "duration": 12, "velocity": 127}, {"time": 936, "pitch": 62, "duration": 6, "velocity": 127}, {"time": 942, "pitch": 67, "duration": 12, "velocity": 127}, {"time": 954, "pitch": 66, "duration": 6, "velocity": 127}, {"time": 960, "pitch": 59, "duration": 6, "velocity": 127}, {"time": 966, "pitch": 64, "duration": 12, "velocity": 127}, {"time": 978, "pitch": 62, "duration": 6, "velocity": 127}, {"time": 984, "pitch": 55, "duration": 6, "velocity": 127}, {"time": 990, "pitch": 60, "duration": 12, "velocity": 127}, {"time": 1002, "pitch": 59, "duration": 6, "velocity": 127}, {"time": 1008, "pitch": 64, "duration": 12, "velocity": 127}, {"time": 1020, "pitch": 62, "duration": 12, "velocity": 127}, {"time": 1032, "pitch": 60, "duration": 6, "velocity": 127}, {"time": 1038, "pitch": 59, "duration": 3, "velocity": 127}, {"time": 1041, "pitch": 57, "duration": 3, "velocity": 127}, {"time": 1044, "pitch": 59, "duration": 6, "velocity": 127}, {"time": 1050, "pitch": 55, "duration": 6, "velocity": 127}, {"time": 1056, "pitch": 54, "duration": 12, "velocity": 127}, {"time": 1068, "pitch": 55, "duration": 12, "velocity": 127}, {"time": 1080, "pitch": 57, "duration": 6, "velocity": 127}, {"time": 1086, "pitch": 62, "duration": 6, "velocity": 127}, {"time": 1092, "pitch": 59, "duration": 6, "velocity": 127}, {"time": 1098, "pitch": 55, "duration": 6, "velocity": 127}, {"time": 1104, "pitch": 50, "duration": 12, "velocity": 127}, {"time": 1128, "pitch": 62, "duration": 6, "velocity": 127}, {"time": 1134, "pitch": 67, "duration": 12, "velocity": 127}, {"time": 1146, "pitch": 66, "duration": 6, "velocity": 127}, {"time": 1152, "pitch": 59, "duration": 6, "velocity": 127}, {"time": 1158, "pitch": 64, "duration": 12, "velocity": 127}, {"time": 1170, "pitch": 62, "duration": 6, "velocity": 127}, {"time": 1176, "pitch": 55, "duration": 6, "velocity": 127}, {"time": 1182, "pitch": 60, "duration": 12, "velocity": 127}, {"time": 1194, "pitch": 59, "duration": 6, "velocity": 127}, {"time": 1200, "pitch": 64, "duration": 12, "velocity": 127}, {"time": 1212, "pitch": 62, "duration": 12, "velocity": 127}, {"time": 1224, "pitch": 60, "duration": 6, "velocity": 127}, {"time": 1230, "pitch": 59, "duration": 3, "velocity": 127}, {"time": 1233, "pitch": 57, "duration": 3, "velocity": 127}, {"time": 1236, "pitch": 59, "duration": 6, "velocity": 127}, {"time": 1242, "pitch": 55, "duration": 6, "velocity": 127}, {"time": 1248, "pitch": 54, "duration": 12, "velocity": 127}, {"time": 1260, "pitch": 55, "duration": 12, "velocity": 127}, {"time": 1272, "pitch": 57, "duration": 6, "velocity": 127}, {"time": 1278, "pitch": 62, "duration": 6, "velocity": 127}, {"time": 1284, "pitch": 59, "duration": 6, "velocity": 127}, {"time": 1290, "pitch": 55, "duration": 6, "velocity": 127}, {"time": 1296, "pitch": 50, "duration": 12, "velocity": 127}, {"time": 1308, "pitch": 62, "duration": 12, "velocity": 127}, {"time": 1320, "pitch": 62, "duration": 6, "velocity": 127}, {"time": 1326, "pitch": 60, "duration": 3, "velocity": 127}, {"time": 1329, "pitch": 59, "duration": 3, "velocity": 127}, {"time": 1332, "pitch": 60, "duration": 6, "velocity": 127}, {"time": 1338, "pitch": 59, "duration": 3, "velocity": 127}, {"time": 1341, "pitch": 57, "duration": 3, "velocity": 127}, {"time": 1344, "pitch": 59, "duration": 6, "velocity": 127}, {"time": 1350, "pitch": 57, "duration": 3, "velocity": 127}, {"time": 1353, "pitch": 55, "duration": 3, "velocity": 127}, {"time": 1356, "pitch": 57, "duration": 6, "velocity": 127}, {"time": 1362, "pitch": 55, "duration": 3, "velocity": 127}, {"time": 1365, "pitch": 54, "duration": 3, "velocity": 127}, {"time": 1368, "pitch": 55, "duration": 6, "velocity": 127}, {"time": 1374, "pitch": 59, "duration": 6, "velocity": 127}, {"time": 1380, "pitch": 60, "duration": 6, "velocity": 127}, {"time": 1386, "pitch": 62, "duration": 6, "velocity": 127}, {"time": 1392, "pitch": 55, "duration": 12, "velocity": 127}, {"time": 1416, "pitch": 67, "duration": 6, "velocity": 127}, {"time": 1422, "pitch": 67, "duration": 3, "velocity": 127}, {"time": 1425, "pitch": 66, "duration": 3, "velocity": 127}, {"time": 1428, "pitch": 67, "duration": 6, "velocity": 127}, {"time": 1434, "pitch": 69, "duration": 6, "velocity": 127}, {"time": 1440, "pitch": 71, "duration": 12, "velocity": 127}, {"time": 1452, "pitch": 64, "duration": 12, "velocity": 127}, {"time": 1464, "pitch": 63, "duration": 6, "velocity": 127}, {"time": 1470, "pitch": 59, "duration": 6, "velocity": 127}, {"time": 1476, "pitch": 67, "duration": 6, "velocity": 127}, {"time": 1482, "pitch": 64, "duration": 6, "velocity": 127}, {"time": 1488, "pitch": 71, "duration": 12, "velocity": 127}, {"time": 1500, "pitch": 64, "duration": 12, "velocity": 127}, {"time": 1512, "pitch": 63, "duration": 6, "velocity": 127}, {"time": 1518, "pitch": 59, "duration": 6, "velocity": 127}, {"time": 1524, "pitch": 67, "duration": 12, "velocity": 127}, {"time": 1536, "pitch": 66, "duration": 12, "velocity": 127}, {"time": 1548, "pitch": 59, "duration": 6, "velocity": 127}, {"time": 1554, "pitch": 61, "duration": 3, "velocity": 127}, {"time": 1557, "pitch": 59, "duration": 3, "velocity": 127}, {"time": 1560, "pitch": 58, "duration": 6, "velocity": 127}, {"time": 1566, "pitch": 54, "duration": 6, "velocity": 127}, {"time": 1572, "pitch": 62, "duration": 12, "velocity": 127}, {"time": 1584, "pitch": 61, "duration": 12, "velocity": 127}, {"time": 1596, "pitch": 59, "duration": 6, "velocity": 127}, {"time": 1602, "pitch": 61, "duration": 3, "velocity": 127}, {"time": 1605, "pitch": 59, "duration": 3, "velocity": 127}, {"time": 1608, "pitch": 58, "duration": 6, "velocity": 127}, {"time": 1614, "pitch": 54, "duration": 6, "velocity": 127}, {"time": 1620, "pitch": 62, "duration": 12, "velocity": 127}, {"time": 1632, "pitch": 61, "duration": 12, "velocity": 127}, {"time": 1644, "pitch": 59, "duration": 6, "velocity": 127}, {"time": 1650, "pitch": 61, "duration": 3, "velocity": 127}, {"time": 1653, "pitch": 62, "duration": 3, "velocity": 127}, {"time": 1656, "pitch": 64, "duration": 6, "velocity": 127}, {"time": 1662, "pitch": 62, "duration": 3, "velocity": 127}, {"time": 1665, "pitch": 61, "duration": 3, "velocity": 127}, {"time": 1668, "pitch": 62, "duration": 6, "velocity": 127}, {"time": 1674, "pitch": 64, "duration": 3, "velocity": 127}, {"time": 1677, "pitch": 66, "duration": 3, "velocity": 127}, {"time": 1680, "pitch": 67, "duration": 12, "velocity": 127}, {"time": 1692, "pitch": 66, "duration": 12, "velocity": 127}, {"time": 1704, "pitch": 64, "duration": 6, "velocity": 127}, {"time": 1710, "pitch": 71, "duration": 6, "velocity": 127}, {"time": 1716, "pitch": 70, "duration": 6, "velocity": 127}, {"time": 1722, "pitch": 69, "duration": 6, "velocity": 127}, {"time": 1728, "pitch": 68, "duration": 6, "velocity": 127}, {"time": 1734, "pitch": 67, "duration": 6, "velocity": 127}, {"time": 1740, "pitch": 66, "duration": 6, "velocity": 127}, {"time": 1746, "pitch": 59, "duration": 6, "velocity": 127}, {"time": 1752, "pitch": 64, "duration": 12, "velocity": 127}, {"time": 1764, "pitch": 62, "duration": 12, "velocity": 127}, {"time": 1776, "pitch": 61, "duration": 6, "velocity": 127}, {"time": 1782, "pitch": 59, "duration": 3, "velocity": 127}, {"time": 1785, "pitch": 58, "duration": 3, "velocity": 127}, {"time": 1788, "pitch": 59, "duration": 6, "velocity": 127}, {"time": 1794, "pitch": 66, "duration": 6, "velocity": 127}, {"time": 1800, "pitch": 54, "duration": 6, "velocity": 127}, {"time": 1806, "pitch": 66, "duration": 6, "velocity": 127}, {"time": 1812, "pitch": 54, "duration": 6, "velocity": 127}, {"time": 1818, "pitch": 66, "duration": 6, "velocity": 127}, {"time": 1824, "pitch": 66, "duration": 6, "velocity": 127}, {"time": 1830, "pitch": 64, "duration": 3, "velocity": 127}, {"time": 1833, "pitch": 62, "duration": 3, "velocity": 127}, {"time": 1836, "pitch": 64, "duration": 6, "velocity": 127}, {"time": 1842, "pitch": 62, "duration": 3, "velocity": 127}, {"time": 1845, "pitch": 61, "duration": 3, "velocity": 127}, {"time": 1848, "pitch": 62, "duration": 6, "velocity": 127}, {"time": 1854, "pitch": 61, "duration": 3, "velocity": 127}, {"time": 1857, "pitch": 59, "duration": 3, "velocity": 127}, {"time": 1860, "pitch": 61, "duration": 6, "velocity": 127}, {"time": 1866, "pitch": 59, "duration": 3, "velocity": 127}, {"time": 1869, "pitch": 58, "duration": 3, "velocity": 127}, {"time": 1872, "pitch": 59, "duration": 6, "velocity": 127}, {"time": 1878, "pitch": 50, "duration": 6, "velocity": 127}, {"time": 1884, "pitch": 52, "duration": 6, "velocity": 127}, {"time": 1890, "pitch": 54, "duration": 6, "velocity": 127}, {"time": 1896, "pitch": 59, "duration": 12, "velocity": 127}, {"time": 1914, "pitch": 57, "duration": 6, "velocity": 127}, {"time": 1920, "pitch": 55, "duration": 6, "velocity": 127}, {"time": 1926, "pitch": 57, "duration": 3, "velocity": 127}, {"time": 1929, "pitch": 59, "duration": 3, "velocity": 127}, {"time": 1932, "pitch": 60, "duration": 3, "velocity": 127}, {"time": 1935, "pitch": 64, "duration": 3, "velocity": 127}, {"time": 1938, "pitch": 62, "duration": 3, "velocity": 127}, {"time": 1941, "pitch": 60, "duration": 3, "velocity": 127}, {"time": 1944, "pitch": 62, "duration": 6, "velocity": 127}, {"time": 1950, "pitch": 67, "duration": 12, "velocity": 127}, {"time": 1962, "pitch": 66, "duration": 6, "velocity": 127}, {"time": 1968, "pitch": 59, "duration": 6, "velocity": 127}, {"time": 1974, "pitch": 64, "duration": 12, "velocity": 127}, {"time": 1986, "pitch": 62, "duration": 6, "velocity": 127}, {"time": 1992, "pitch": 55, "duration": 6, "velocity": 127}, {"time": 1998, "pitch": 60, "duration": 12, "velocity": 127}, {"time": 2010, "pitch": 59, "duration": 6, "velocity": 127}, {"time": 2016, "pitch": 64, "duration": 12, "velocity": 127}, {"time": 2028, "pitch": 62, "duration": 12, "velocity": 127}, {"time": 2040, "pitch": 60, "duration": 6, "velocity": 127}, {"time": 2046, "pitch": 59, "duration": 3, "velocity": 127}, {"time": 2049, "pitch": 57, "duration": 3, "velocity": 127}, {"time": 2052, "pitch": 59, "duration": 6, "velocity": 127}, {"time": 2058, "pitch": 55, "duration": 6, "velocity": 127}, {"time": 2064, "pitch": 54, "duration": 12, "velocity": 127}, {"time": 2076, "pitch": 55, "duration": 12, "velocity": 127}, {"time": 2088, "pitch": 57, "duration": 6, "velocity": 127}, {"time": 2094, "pitch": 62, "duration": 6, "velocity": 127}, {"time": 2100, "pitch": 59, "duration": 6, "velocity": 127}, {"time": 2106, "pitch": 55, "duration": 6, "velocity": 127}, {"time": 2112, "pitch": 50, "duration": 12, "velocity": 127}, {"time": 2136, "pitch": 62, "duration": 6, "velocity": 127}, {"time": 2142, "pitch": 67, "duration": 12, "velocity": 127}, {"time": 2154, "pitch": 66, "duration": 6, "velocity": 127}, {"time": 2160, "pitch": 59, "duration": 6, "velocity": 127}, {"time": 2166, "pitch": 64, "duration": 12, "velocity": 127}, {"time": 2178, "pitch": 62, "duration": 6, "velocity": 127}, {"time": 2184, "pitch": 55, "duration": 6, "velocity": 127}, {"time": 2190, "pitch": 60, "duration": 12, "velocity": 127}, {"time": 2202, "pitch": 59, "duration": 6, "velocity": 127}, {"time": 2208, "pitch": 64, "duration": 12, "velocity": 127}, {"time": 2220, "pitch": 62, "duration": 12, "velocity": 127}, {"time": 2232, "pitch": 60, "duration": 6, "velocity": 127}, {"time": 2238, "pitch": 59, "duration": 3, "velocity": 127}, {"time": 2241, "pitch": 57, "duration": 3, "velocity": 127}, {"time": 2244, "pitch": 59, "duration": 6, "velocity": 127}, {"time": 2250, "pitch": 55, "duration": 6, "velocity": 127}, {"time": 2256, "pitch": 54, "duration": 12, "velocity": 127}, {"time": 2268, "pitch": 55, "duration": 12, "velocity": 127}, {"time": 2280, "pitch": 57, "duration": 6, "velocity": 127}, {"time": 2286, "pitch": 62, "duration": 6, "velocity": 127}, {"time": 2292, "pitch": 59, "duration": 6, "velocity": 127}, {"time": 2298, "pitch": 55, "duration": 6, "velocity": 127}, {"time": 2304, "pitch": 55, "duration": 12, "velocity": 127}, {"time": 2316, "pitch": 62, "duration": 12, "velocity": 127}, {"time": 2328, "pitch": 62, "duration": 6, "velocity": 127}, {"time": 2334, "pitch": 60, "duration": 3, "velocity": 127}, {"time": 2337, "pitch": 59, "duration": 3, "velocity": 127}, {"time": 2340, "pitch": 60, "duration": 6, "velocity": 127}, {"time": 2346, "pitch": 59, "duration": 3, "velocity": 127}, {"time": 2349, "pitch": 57, "duration": 3, "velocity": 127}, {"time": 2352, "pitch": 59, "duration": 6, "velocity": 127}, {"time": 2358, "pitch": 57, "duration": 3, "velocity": 127}, {"time": 2361, "pitch": 55, "duration": 3, "velocity": 127}, {"time": 2364, "pitch": 57, "duration": 6, "velocity": 127}, {"time": 2370, "pitch": 55, "duration": 3, "velocity": 127}, {"time": 2373, "pitch": 54, "duration": 3, "velocity": 127}, {"time": 2376, "pitch": 55, "duration": 6, "velocity": 127}, {"time": 2382, "pitch": 59, "duration": 6, "velocity": 127}, {"time": 2388, "pitch": 60, "duration": 6, "velocity": 127}, {"time": 2394, "pitch": 62, "duration": 6, "velocity": 127}, {"time": 2400, "pitch": 55, "duration": 12, "velocity": 127}], "annotations": [{"time": 0, "annotation": {"number": 7, "value": 100}, "group": "control_change"}, {"time": 0, "annotation": {"number": 10, "value": 64}, "group": "control_change"}, {"time": 0, "annotation": {"number": 91, "value": 0}, "group": "control_change"}, {"time": 0, "annotation": {"number": 93, "value": 0}, "group": "control_change"}]}]}