{"metadata": {"schema_version": "0.2"}, "resolution": 24, "tracks": [{"program": 74, "is_drum": false, "notes": [{"time": 0, "pitch": 70, "duration": 6, "velocity": 127}, {"time": 6, "pitch": 70, "duration": 6, "velocity": 127}, {"time": 12, "pitch": 70, "duration": 6, "velocity": 127}, {"time": 18, "pitch": 70, "duration": 6, "velocity": 127}, {"time": 24, "pitch": 70, "duration": 6, "velocity": 127}, {"time": 30, "pitch": 72, "duration": 3, "velocity": 127}, {"time": 33, "pitch": 74, "duration": 3, "velocity": 127}, {"time": 36, "pitch": 75, "duration": 6, "velocity": 127}, {"time": 42, "pitch": 75, "duration": 6, "velocity": 127}, {"time": 48, "pitch": 75, "duration": 6, "velocity": 127}, {"time": 54, "pitch": 75, "duration": 6, "velocity": 127}, {"time": 60, "pitch": 75, "duration": 6, "velocity": 127}, {"time": 66, "pitch": 74, "duration": 3, "velocity": 127}, {"time": 69, "pitch": 72, "duration": 3, "velocity": 127}, {"time": 72, "pitch": 74, "duration": 6, "velocity": 127}, {"time": 78, "pitch": 72, "duration": 6, "velocity": 127}, {"time": 84, "pitch": 70, "duration": 6, "velocity": 127}, {"time": 90, "pitch": 72, "duration": 6, "velocity": 127}, {"time": 96, "pitch": 74, "duration": 6, "velocity": 127}, {"time": 102, "pitch": 75, "duration": 6, "velocity": 127}, {"time": 108, "pitch": 74, "duration": 6, "velocity": 127}, {"time": 114, "pitch": 72, "duration": 6, "velocity": 127}, {"time": 120, "pitch": 70, "duration": 6, "velocity": 127}, {"time": 126, "pitch": 72, "duration": 6, "velocity": 127}, {"time": 132, "pitch": 74, "duration": 6, "velocity": 127}, {"time": 138, "pitch": 76, "duration": 6, "velocity": 127}, {"time": 144, "pitch": 77, "duration": 6, "velocity": 127}, {"time": 150, "pitch": 72, "duration": 6, "velocity": 127}, {"time": 156, "pitch": 81, "duration": 6, "velocity": 127}, {"time": 162, "pitch": 72, "duration": 6, "velocity": 127}, {"time": 168, "pitch": 79, "duration": 6, "velocity": 127}, {"time": 174, "pitch": 72, "duration": 6, "velocity": 127}, {"time": 180, "pitch": 77, "duration": 6, "velocity": 127}, {"time": 186, "pitch": 72, "duration": 6, "velocity": 127}, {"time": 192, "pitch": 79, "duration": 6, "velocity": 127}, {"time": 198, "pitch": 72, "duration": 6, "velocity": 127}, {"time": 204, "pitch": 76, "duration": 6, "velocity": 127}, {"time": 210, "pitch": 72, "duration": 6, "velocity": 127}, {"time": 216, "pitch": 77, "duration": 6, "velocity": 127}, {"time": 222, "pitch": 72, "duration": 6, "velocity": 127}, {"time": 228, "pitch": 81, "duration": 6, "velocity": 127}, {"time": 234, "pitch": 72, "duration": 6, "velocity": 127}, {"time": 240, "pitch": 79, "duration": 6, "velocity": 127}, {"time": 246, "pitch": 72, "duration": 6, "velocity": 127}, {"time": 252, "pitch": 77, "duration": 6, "velocity": 127}, {"time": 258, "pitch": 72, "duration": 6, "velocity": 127}, {"time": 264, "pitch": 79, "duration": 6, "velocity": 127}, {"time": 270, "pitch": 72, "duration": 6, "velocity": 127}, {"time": 276, "pitch": 76, "duration": 6, "velocity": 127}, {"time": 282, "pitch": 72, "duration": 6, "velocity": 127}, {"time": 288, "pitch": 77, "duration": 12, "velocity": 127}, {"time": 306, "pitch": 75, "duration": 6, "velocity": 127}, {"time": 312, "pitch": 74, "duration": 6, "velocity": 127}, {"time": 318, "pitch": 72, "duration": 6, "velocity": 127}, {"time": 324, "pitch": 74, "duration": 6, "velocity": 127}, {"time": 330, "pitch": 70, "duration": 6, "velocity": 127}, {"time": 336, "pitch": 70, "duration": 6, "velocity": 127}, {"time": 342, "pitch": 70, "duration": 6, "velocity": 127}, {"time": 348, "pitch": 70, "duration": 6, "velocity": 127}, {"time": 354, "pitch": 72, "duration": 3, "velocity": 127}, {"time": 357, "pitch": 74, "duration": 3, "velocity": 127}, {"time": 360, "pitch": 75, "duration": 6, "velocity": 127}, {"time": 366, "pitch": 70, "duration": 6, "velocity": 127}, {"time": 372, "pitch": 79, "duration": 6, "velocity": 127}, {"time": 378, "pitch": 70, "duration": 6, "velocity": 127}, {"time": 384, "pitch": 77, "duration": 6, "velocity": 127}, {"time": 390, "pitch": 70, "duration": 6, "velocity": 127}, {"time": 396, "pitch": 75, "duration": 6, "velocity": 127}, {"time": 402, "pitch": 70, "duration": 6, "velocity": 127}, {"time": 408, "pitch": 77, "duration": 6, "velocity": 127}, {"time": 414, "pitch": 70, "duration": 6, "velocity": 127}, {"time": 420, "pitch": 74, "duration": 6, "velocity": 127}, {"time": 426, "pitch": 70, "duration": 6, "velocity": 127}, {"time": 432, "pitch": 75, "duration": 6, "velocity": 127}, {"time": 438, "pitch": 70, "duration": 6, "velocity": 127}, {"time": 444, "pitch": 79, "duration": 6, "velocity": 127}, {"time": 450, "pitch": 70, "duration": 6, "velocity": 127}, {"time": 456, "pitch": 77, "duration": 6, "velocity": 127}, {"time": 462, "pitch": 70, "duration": 6, "velocity": 127}, {"time": 468, "pitch": 75, "duration": 6, "velocity": 127}, {"time": 474, "pitch": 70, "duration": 6, "velocity": 127}, {"time": 480, "pitch": 77, "duration": 6, "velocity": 127}, {"time": 486, "pitch": 70, "duration": 6, "velocity": 127}, {"time": 492, "pitch": 74, "duration": 6, "velocity": 127}, {"time": 498, "pitch": 70, "duration": 6, "velocity": 127}, {"time": 504, "pitch": 75, "duration": 12, "velocity": 127}, {"time": 540, "pitch": 79, "duration": 6, "velocity": 127}, {"time": 546, "pitch": 77, "duration": 6, "velocity": 127}, {"time": 552, "pitch": 75, "duration": 6, "velocity": 127}, {"time": 558, "pitch": 74, "duration": 6, "velocity": 127}, {"time": 564, "pitch": 72, "duration": 6, "velocity": 127}, {"time": 570, "pitch": 70, "duration": 6, "velocity": 127}, {"time": 576, "pitch": 75, "duration": 6, "velocity": 127}, {"time": 582, "pitch": 74, "duration": 6, "velocity": 127}, {"time": 588, "pitch": 72, "duration": 6, "velocity": 127}, {"time": 594, "pitch": 70, "duration": 6, "velocity": 127}, {"time": 600, "pitch": 69, "duration": 6, "velocity": 127}, {"time": 606, "pitch": 67, "duration": 6, "velocity": 127}, {"time": 612, "pitch": 65, "duration": 18, "velocity": 127}, {"time": 630, "pitch": 75, "duration": 6, "velocity": 127}, {"time": 636, "pitch": 74, "duration": 6, "velocity": 127}, {"time": 642, "pitch": 72, "duration": 3, "velocity": 127}, {"time": 645, "pitch": 70, "duration": 3, "velocity": 127}, {"time": 648, "pitch": 75, "duration": 6, "velocity": 127}, {"time": 654, "pitch": 74, "duration": 3, "velocity": 127}, {"time": 657, "pitch": 72, "duration": 3, "velocity": 127}, {"time": 660, "pitch": 77, "duration": 12, "velocity": 127}, {"time": 672, "pitch": 65, "duration": 12, "velocity": 127}, {"time": 684, "pitch": 70, "duration": 6, "velocity": 127}, {"time": 690, "pitch": 77, "duration": 6, "velocity": 127}, {"time": 696, "pitch": 74, "duration": 6, "velocity": 127}, {"time": 702, "pitch": 77, "duration": 6, "velocity": 127}, {"time": 708, "pitch": 70, "duration": 6, "velocity": 127}, {"time": 714, "pitch": 77, "duration": 6, "velocity": 127}, {"time": 720, "pitch": 72, "duration": 6, "velocity": 127}, {"time": 726, "pitch": 77, "duration": 6, "velocity": 127}, {"time": 732, "pitch": 69, "duration": 6, "velocity": 127}, {"time": 738, "pitch": 77, "duration": 6, "velocity": 127}, {"time": 744, "pitch": 72, "duration": 6, "velocity": 127}, {"time": 750, "pitch": 77, "duration": 6, "velocity": 127}, {"time": 756, "pitch": 74, "duration": 12, "velocity": 127}, {"time": 768, "pitch": 70, "duration": 12, "velocity": 127}, {"time": 792, "pitch": 69, "duration": 12, "velocity": 127}, {"time": 804, "pitch": 72, "duration": 12, "velocity": 127}, {"time": 816, "pitch": 69, "duration": 12, "velocity": 127}, {"time": 828, "pitch": 70, "duration": 6, "velocity": 127}, {"time": 834, "pitch": 77, "duration": 6, "velocity": 127}, {"time": 840, "pitch": 77, "duration": 4, "velocity": 127}, {"time": 844, "pitch": 79, "duration": 4, "velocity": 127}, {"time": 848, "pitch": 77, "duration": 4, "velocity": 127}, {"time": 852, "pitch": 77, "duration": 4, "velocity": 127}, {"time": 856, "pitch": 79, "duration": 4, "velocity": 127}, {"time": 860, "pitch": 77, "duration": 4, "velocity": 127}, {"time": 870, "pitch": 77, "duration": 6, "velocity": 127}, {"time": 876, "pitch": 77, "duration": 4, "velocity": 127}, {"time": 880, "pitch": 79, "duration": 4, "velocity": 127}, {"time": 884, "pitch": 77, "duration": 4, "velocity": 127}, {"time": 888, "pitch": 77, "duration": 4, "velocity": 127}, {"time": 892, "pitch": 79, "duration": 4, "velocity": 127}, {"time": 896, "pitch": 77, "duration": 4, "velocity": 127}, {"time": 906, "pitch": 77, "duration": 6, "velocity": 127}, {"time": 912, "pitch": 79, "duration": 6, "velocity": 127}, {"time": 918, "pitch": 77, "duration": 6, "velocity": 127}, {"time": 924, "pitch": 75, "duration": 6, "velocity": 127}, {"time": 930, "pitch": 74, "duration": 6, "velocity": 127}, {"time": 936, "pitch": 75, "duration": 12, "velocity": 127}, {"time": 948, "pitch": 72, "duration": 12, "velocity": 127}, {"time": 972, "pitch": 71, "duration": 12, "velocity": 127}, {"time": 984, "pitch": 74, "duration": 12, "velocity": 127}, {"time": 996, "pitch": 71, "duration": 12, "velocity": 127}, {"time": 1008, "pitch": 72, "duration": 6, "velocity": 127}, {"time": 1014, "pitch": 79, "duration": 6, "velocity": 127}, {"time": 1020, "pitch": 75, "duration": 6, "velocity": 127}, {"time": 1026, "pitch": 79, "duration": 6, "velocity": 127}, {"time": 1032, "pitch": 72, "duration": 6, "velocity": 127}, {"time": 1038, "pitch": 79, "duration": 6, "velocity": 127}, {"time": 1044, "pitch": 74, "duration": 6, "velocity": 127}, {"time": 1050, "pitch": 79, "duration": 6, "velocity": 127}, {"time": 1056, "pitch": 71, "duration": 6, "velocity": 127}, {"time": 1062, "pitch": 79, "duration": 6, "velocity": 127}, {"time": 1068, "pitch": 74, "duration": 6, "velocity": 127}, {"time": 1074, "pitch": 79, "duration": 6, "velocity": 127}, {"time": 1080, "pitch": 75, "duration": 6, "velocity": 127}, {"time": 1086, "pitch": 72, "duration": 6, "velocity": 127}, {"time": 1092, "pitch": 72, "duration": 6, "velocity": 127}, {"time": 1098, "pitch": 72, "duration": 6, "velocity": 127}, {"time": 1104, "pitch": 72, "duration": 6, "velocity": 127}, {"time": 1110, "pitch": 74, "duration": 3, "velocity": 127}, {"time": 1113, "pitch": 75, "duration": 3, "velocity": 127}, {"time": 1116, "pitch": 77, "duration": 6, "velocity": 127}, {"time": 1122, "pitch": 77, "duration": 6, "velocity": 127}, {"time": 1128, "pitch": 77, "duration": 6, "velocity": 127}, {"time": 1134, "pitch": 77, "duration": 6, "velocity": 127}, {"time": 1140, "pitch": 77, "duration": 6, "velocity": 127}, {"time": 1146, "pitch": 75, "duration": 3, "velocity": 127}, {"time": 1149, "pitch": 74, "duration": 3, "velocity": 127}, {"time": 1152, "pitch": 75, "duration": 12, "velocity": 127}, {"time": 1164, "pitch": 79, "duration": 12, "velocity": 127}, {"time": 1176, "pitch": 77, "duration": 12, "velocity": 127}, {"time": 1188, "pitch": 75, "duration": 12, "velocity": 127}, {"time": 1200, "pitch": 77, "duration": 12, "velocity": 127}, {"time": 1212, "pitch": 74, "duration": 12, "velocity": 127}, {"time": 1224, "pitch": 75, "duration": 12, "velocity": 127}, {"time": 1236, "pitch": 79, "duration": 12, "velocity": 127}, {"time": 1248, "pitch": 77, "duration": 12, "velocity": 127}, {"time": 1260, "pitch": 75, "duration": 12, "velocity": 127}, {"time": 1272, "pitch": 77, "duration": 12, "velocity": 127}, {"time": 1284, "pitch": 74, "duration": 12, "velocity": 127}, {"time": 1296, "pitch": 75, "duration": 12, "velocity": 127}, {"time": 1320, "pitch": 74, "duration": 12, "velocity": 127}, {"time": 1332, "pitch": 73, "duration": 12, "velocity": 127}, {"time": 1356, "pitch": 76, "duration": 12, "velocity": 127}, {"time": 1368, "pitch": 69, "duration": 12, "velocity": 127}, {"time": 1380, "pitch": 73, "duration": 12, "velocity": 127}, {"time": 1392, "pitch": 69, "duration": 12, "velocity": 127}, {"time": 1404, "pitch": 74, "duration": 12, "velocity": 127}, {"time": 1416, "pitch": 77, "duration": 30, "velocity": 127}, {"time": 1446, "pitch": 76, "duration": 6, "velocity": 127}, {"time": 1452, "pitch": 76, "duration": 6, "velocity": 127}, {"time": 1458, "pitch": 76, "duration": 6, "velocity": 127}, {"time": 1464, "pitch": 76, "duration": 6, "velocity": 127}, {"time": 1470, "pitch": 77, "duration": 3, "velocity": 127}, {"time": 1473, "pitch": 79, "duration": 3, "velocity": 127}, {"time": 1476, "pitch": 81, "duration": 12, "velocity": 127}, {"time": 1488, "pitch": 81, "duration": 30, "velocity": 127}, {"time": 1518, "pitch": 79, "duration": 6, "velocity": 127}, {"time": 1524, "pitch": 79, "duration": 6, "velocity": 127}, {"time": 1530, "pitch": 79, "duration": 6, "velocity": 127}, {"time": 1536, "pitch": 76, "duration": 6, "velocity": 127}, {"time": 1542, "pitch": 72, "duration": 6, "velocity": 127}, {"time": 1548, "pitch": 77, "duration": 12, "velocity": 127}, {"time": 1590, "pitch": 65, "duration": 6, "velocity": 127}, {"time": 1596, "pitch": 69, "duration": 6, "velocity": 127}, {"time": 1602, "pitch": 72, "duration": 6, "velocity": 127}, {"time": 1608, "pitch": 77, "duration": 6, "velocity": 127}, {"time": 1614, "pitch": 79, "duration": 3, "velocity": 127}, {"time": 1617, "pitch": 76, "duration": 3, "velocity": 127}, {"time": 1620, "pitch": 77, "duration": 12, "velocity": 127}, {"time": 1659, "pitch": 65, "duration": 3, "velocity": 127}, {"time": 1662, "pitch": 67, "duration": 3, "velocity": 127}, {"time": 1665, "pitch": 69, "duration": 3, "velocity": 127}, {"time": 1668, "pitch": 70, "duration": 3, "velocity": 127}, {"time": 1671, "pitch": 69, "duration": 3, "velocity": 127}, {"time": 1674, "pitch": 70, "duration": 3, "velocity": 127}, {"time": 1677, "pitch": 72, "duration": 3, "velocity": 127}, {"time": 1680, "pitch": 74, "duration": 3, "velocity": 127}, {"time": 1683, "pitch": 72, "duration": 3, "velocity": 127}, {"time": 1686, "pitch": 74, "duration": 3, "velocity": 127}, {"time": 1689, "pitch": 76, "duration": 3, "velocity": 127}, {"time": 1692, "pitch": 77, "duration": 12, "velocity": 127}, {"time": 1710, "pitch": 75, "duration": 6, "velocity": 127}, {"time": 1716, "pitch": 74, "duration": 6, "velocity": 127}, {"time": 1722, "pitch": 72, "duration": 6, "velocity": 127}, {"time": 1728, "pitch": 74, "duration": 6, "velocity": 127}, {"time": 1734, "pitch": 70, "duration": 6, "velocity": 127}, {"time": 1740, "pitch": 70, "duration": 6, "velocity": 127}, {"time": 1746, "pitch": 70, "duration": 6, "velocity": 127}, {"time": 1752, "pitch": 70, "duration": 6, "velocity": 127}, {"time": 1758, "pitch": 72, "duration": 3, "velocity": 127}, {"time": 1761, "pitch": 74, "duration": 3, "velocity": 127}, {"time": 1764, "pitch": 75, "duration": 6, "velocity": 127}, {"time": 1770, "pitch": 75, "duration": 6, "velocity": 127}, {"time": 1776, "pitch": 75, "duration": 6, "velocity": 127}, {"time": 1782, "pitch": 75, "duration": 6, "velocity": 127}, {"time": 1788, "pitch": 75, "duration": 6, "velocity": 127}, {"time": 1794, "pitch": 74, "duration": 3, "velocity": 127}, {"time": 1797, "pitch": 72, "duration": 3, "velocity": 127}, {"time": 1800, "pitch": 74, "duration": 12, "velocity": 127}, {"time": 1812, "pitch": 77, "duration": 12, "velocity": 127}, {"time": 1824, "pitch": 75, "duration": 12, "velocity": 127}, {"time": 1836, "pitch": 74, "duration": 12, "velocity": 127}, {"time": 1848, "pitch": 75, "duration": 12, "velocity": 127}, {"time": 1860, "pitch": 72, "duration": 12, "velocity": 127}, {"time": 1872, "pitch": 74, "duration": 12, "velocity": 127}, {"time": 1884, "pitch": 77, "duration": 12, "velocity": 127}, {"time": 1896, "pitch": 75, "duration": 12, "velocity": 127}, {"time": 1908, "pitch": 74, "duration": 12, "velocity": 127}, {"time": 1920, "pitch": 75, "duration": 12, "velocity": 127}, {"time": 1932, "pitch": 72, "duration": 12, "velocity": 127}, {"time": 1944, "pitch": 74, "duration": 6, "velocity": 127}, {"time": 1950, "pitch": 70, "duration": 3, "velocity": 127}, {"time": 1953, "pitch": 74, "duration": 3, "velocity": 127}, {"time": 1956, "pitch": 77, "duration": 6, "velocity": 127}, {"time": 1962, "pitch": 74, "duration": 3, "velocity": 127}, {"time": 1965, "pitch": 77, "duration": 3, "velocity": 127}, {"time": 1968, "pitch": 74, "duration": 6, "velocity": 127}, {"time": 1974, "pitch": 70, "duration": 3, "velocity": 127}, {"time": 1977, "pitch": 74, "duration": 3, "velocity": 127}, {"time": 1980, "pitch": 72, "duration": 6, "velocity": 127}, {"time": 1986, "pitch": 67, "duration": 3, "velocity": 127}, {"time": 1989, "pitch": 72, "duration": 3, "velocity": 127}, {"time": 1992, "pitch": 75, "duration": 6, "velocity": 127}, {"time": 1998, "pitch": 72, "duration": 3, "velocity": 127}, {"time": 2001, "pitch": 75, "duration": 3, "velocity": 127}, {"time": 2004, "pitch": 79, "duration": 6, "velocity": 127}, {"time": 2010, "pitch": 75, "duration": 3, "velocity": 127}, {"time": 2013, "pitch": 79, "duration": 3, "velocity": 127}, {"time": 2016, "pitch": 77, "duration": 6, "velocity": 127}, {"time": 2022, "pitch": 74, "duration": 3, "velocity": 127}, {"time": 2025, "pitch": 77, "duration": 3, "velocity": 127}, {"time": 2028, "pitch": 81, "duration": 6, "velocity": 127}, {"time": 2034, "pitch": 77, "duration": 3, "velocity": 127}, {"time": 2037, "pitch": 81, "duration": 3, "velocity": 127}, {"time": 2040, "pitch": 77, "duration": 6, "velocity": 127}, {"time": 2046, "pitch": 74, "duration": 3, "velocity": 127}, {"time": 2049, "pitch": 77, "duration": 3, "velocity": 127}, {"time": 2052, "pitch": 75, "duration": 6, "velocity": 127}, {"time": 2058, "pitch": 79, "duration": 3, "velocity": 127}, {"time": 2061, "pitch": 77, "duration": 3, "velocity": 127}, {"time": 2064, "pitch": 79, "duration": 6, "velocity": 127}, {"time": 2070, "pitch": 75, "duration": 3, "velocity": 127}, {"time": 2073, "pitch": 74, "duration": 3, "velocity": 127}, {"time": 2076, "pitch": 75, "duration": 6, "velocity": 127}, {"time": 2082, "pitch": 79, "duration": 3, "velocity": 127}, {"time": 2085, "pitch": 77, "duration": 3, "velocity": 127}, {"time": 2088, "pitch": 79, "duration": 6, "velocity": 127}, {"time": 2094, "pitch": 77, "duration": 6, "velocity": 127}, {"time": 2100, "pitch": 75, "duration": 6, "velocity": 127}, {"time": 2106, "pitch": 74, "duration": 6, "velocity": 127}, {"time": 2112, "pitch": 72, "duration": 6, "velocity": 127}, {"time": 2118, "pitch": 70, "duration": 6, "velocity": 127}, {"time": 2124, "pitch": 75, "duration": 6, "velocity": 127}, {"time": 2130, "pitch": 74, "duration": 6, "velocity": 127}, {"time": 2136, "pitch": 72, "duration": 6, "velocity": 127}, {"time": 2142, "pitch": 70, "duration": 6, "velocity": 127}, {"time": 2148, "pitch": 69, "duration": 6, "velocity": 127}, {"time": 2154, "pitch": 67, "duration": 6, "velocity": 127}, {"time": 2160, "pitch": 65, "duration": 12, "velocity": 127}, {"time": 2172, "pitch": 69, "duration": 12, "velocity": 127}, {"time": 2184, "pitch": 72, "duration": 12, "velocity": 127}, {"time": 2196, "pitch": 75, "duration": 18, "velocity": 127}, {"time": 2214, "pitch": 81, "duration": 6, "velocity": 127}, {"time": 2220, "pitch": 82, "duration": 6, "velocity": 127}, {"time": 2226, "pitch": 77, "duration": 6, "velocity": 127}, {"time": 2232, "pitch": 79, "duration": 6, "velocity": 127}, {"time": 2238, "pitch": 84, "duration": 6, "velocity": 127}, {"time": 2244, "pitch": 81, "duration": 18, "velocity": 127}, {"time": 2262, "pitch": 82, "duration": 6, "velocity": 127}, {"time": 2268, "pitch": 82, "duration": 36, "velocity": 127}], "annotations": [{"time": 0, "annotation": {"number": 7, "value": 100}, "group": "control_change"}, {"time": 0, "annotation": {"number": 10, "value": 64}, "group": "control_change"}, {"time": 0, "annotation": {"number": 91, "value": 0}, "group": "control_change"}, {"time": 0, "annotation": {"number": 93, "value": 0}, "group": "control_change"}]}]}