{"metadata": {"schema_version": "0.2"}, "resolution": 24, "tracks": [{"program": 41, "is_drum": false, "name": "", "notes": [{"time": 0, "pitch": 58, "duration": 9, "velocity": 127}, {"time": 9, "pitch": 63, "duration": 3, "velocity": 127}, {"time": 12, "pitch": 62, "duration": 12, "velocity": 127}, {"time": 24, "pitch": 60, "duration": 12, "velocity": 127}, {"time": 36, "pitch": 53, "duration": 9, "velocity": 127}, {"time": 45, "pitch": 57, "duration": 2, "velocity": 127}, {"time": 47, "pitch": 57, "duration": 1, "velocity": 127}, {"time": 48, "pitch": 58, "duration": 12, "velocity": 127}, {"time": 72, "pitch": 70, "duration": 9, "velocity": 127}, {"time": 81, "pitch": 69, "duration": 1, "velocity": 127}, {"time": 82, "pitch": 67, "duration": 2, "velocity": 127}, {"time": 84, "pitch": 65, "duration": 12, "velocity": 127}, {"time": 96, "pitch": 63, "duration": 12, "velocity": 127}, {"time": 108, "pitch": 63, "duration": 12, "velocity": 127}, {"time": 120, "pitch": 62, "duration": 12, "velocity": 127}, {"time": 144, "pitch": 62, "duration": 6, "velocity": 127}, {"time": 150, "pitch": 53, "duration": 6, "velocity": 127}, {"time": 156, "pitch": 62, "duration": 6, "velocity": 127}, {"time": 162, "pitch": 53, "duration": 6, "velocity": 127}, {"time": 168, "pitch": 60, "duration": 6, "velocity": 127}, {"time": 174, "pitch": 53, "duration": 6, "velocity": 127}, {"time": 180, "pitch": 58, "duration": 6, "velocity": 127}, {"time": 186, "pitch": 53, "duration": 6, "velocity": 127}, {"time": 192, "pitch": 58, "duration": 6, "velocity": 127}, {"time": 198, "pitch": 53, "duration": 6, "velocity": 127}, {"time": 204, "pitch": 62, "duration": 6, "velocity": 127}, {"time": 210, "pitch": 58, "duration": 6, "velocity": 127}, {"time": 216, "pitch": 65, "duration": 9, "velocity": 127}, {"time": 225, "pitch": 64, "duration": 3, "velocity": 127}, {"time": 228, "pitch": 65, "duration": 12, "velocity": 127}, {"time": 252, "pitch": 65, "duration": 9, "velocity": 127}, {"time": 261, "pitch": 64, "duration": 3, "velocity": 127}, {"time": 264, "pitch": 65, "duration": 12, "velocity": 127}, {"time": 288, "pitch": 57, "duration": 6, "velocity": 127}, {"time": 294, "pitch": 62, "duration": 6, "velocity": 127}, {"time": 300, "pitch": 60, "duration": 6, "velocity": 127}, {"time": 306, "pitch": 57, "duration": 6, "velocity": 127}, {"time": 312, "pitch": 58, "duration": 6, "velocity": 127}, {"time": 318, "pitch": 55, "duration": 6, "velocity": 127}, {"time": 324, "pitch": 57, "duration": 6, "velocity": 127}, {"time": 330, "pitch": 62, "duration": 6, "velocity": 127}, {"time": 336, "pitch": 60, "duration": 6, "velocity": 127}, {"time": 342, "pitch": 57, "duration": 6, "velocity": 127}, {"time": 348, "pitch": 58, "duration": 6, "velocity": 127}, {"time": 354, "pitch": 55, "duration": 6, "velocity": 127}, {"time": 360, "pitch": 53, "duration": 6, "velocity": 127}, {"time": 366, "pitch": 58, "duration": 6, "velocity": 127}, {"time": 372, "pitch": 57, "duration": 6, "velocity": 127}, {"time": 378, "pitch": 53, "duration": 6, "velocity": 127}, {"time": 384, "pitch": 55, "duration": 6, "velocity": 127}, {"time": 390, "pitch": 52, "duration": 6, "velocity": 127}, {"time": 396, "pitch": 53, "duration": 6, "velocity": 127}, {"time": 402, "pitch": 58, "duration": 6, "velocity": 127}, {"time": 408, "pitch": 57, "duration": 6, "velocity": 127}, {"time": 414, "pitch": 53, "duration": 6, "velocity": 127}, {"time": 420, "pitch": 55, "duration": 6, "velocity": 127}, {"time": 426, "pitch": 52, "duration": 6, "velocity": 127}, {"time": 432, "pitch": 60, "duration": 54, "velocity": 127}, {"time": 486, "pitch": 57, "duration": 6, "velocity": 127}, {"time": 492, "pitch": 58, "duration": 12, "velocity": 127}, {"time": 504, "pitch": 57, "duration": 6, "velocity": 127}, {"time": 510, "pitch": 55, "duration": 6, "velocity": 127}, {"time": 516, "pitch": 53, "duration": 6, "velocity": 127}, {"time": 522, "pitch": 57, "duration": 6, "velocity": 127}, {"time": 528, "pitch": 60, "duration": 6, "velocity": 127}, {"time": 534, "pitch": 63, "duration": 5, "velocity": 127}, {"time": 539, "pitch": 63, "duration": 1, "velocity": 127}, {"time": 540, "pitch": 62, "duration": 18, "velocity": 127}, {"time": 558, "pitch": 60, "duration": 6, "velocity": 127}, {"time": 564, "pitch": 62, "duration": 12, "velocity": 127}, {"time": 576, "pitch": 60, "duration": 12, "velocity": 127}, {"time": 588, "pitch": 65, "duration": 12, "velocity": 127}, {"time": 612, "pitch": 65, "duration": 12, "velocity": 127}, {"time": 624, "pitch": 70, "duration": 12, "velocity": 127}, {"time": 636, "pitch": 58, "duration": 12, "velocity": 127}, {"time": 648, "pitch": 63, "duration": 18, "velocity": 127}, {"time": 666, "pitch": 62, "duration": 6, "velocity": 127}, {"time": 672, "pitch": 63, "duration": 6, "velocity": 127}, {"time": 678, "pitch": 60, "duration": 6, "velocity": 127}, {"time": 684, "pitch": 62, "duration": 18, "velocity": 127}, {"time": 702, "pitch": 60, "duration": 6, "velocity": 127}, {"time": 708, "pitch": 62, "duration": 6, "velocity": 127}, {"time": 714, "pitch": 58, "duration": 6, "velocity": 127}, {"time": 720, "pitch": 60, "duration": 12, "velocity": 127}, {"time": 732, "pitch": 53, "duration": 12, "velocity": 127}, {"time": 744, "pitch": 57, "duration": 12, "velocity": 127}, {"time": 756, "pitch": 58, "duration": 12, "velocity": 127}, {"time": 768, "pitch": 70, "duration": 12, "velocity": 127}, {"time": 792, "pitch": 63, "duration": 12, "velocity": 127}, {"time": 804, "pitch": 62, "duration": 12, "velocity": 127}, {"time": 816, "pitch": 60, "duration": 12, "velocity": 127}, {"time": 828, "pitch": 58, "duration": 12, "velocity": 127}, {"time": 840, "pitch": 57, "duration": 12, "velocity": 127}, {"time": 864, "pitch": 55, "duration": 12, "velocity": 127}, {"time": 876, "pitch": 53, "duration": 12, "velocity": 127}, {"time": 888, "pitch": 51, "duration": 12, "velocity": 127}, {"time": 900, "pitch": 50, "duration": 24, "velocity": 127}]}]}